<svg xmlns="http://www.w3.org/2000/svg" xmlns:xlink="http://www.w3.org/1999/xlink" width="1920" zoomAndPan="magnify" viewBox="0 0 1440 809.999993" height="1080" preserveAspectRatio="xMidYMid meet" version="1.0"><defs><clipPath id="id1"><path d="M 549 448 L 737 448 L 737 662 L 549 662 Z M 549 448 " clip-rule="nonzero"/></clipPath><clipPath id="id2"><path d="M 567.433594 427.210938 L 753 470.285156 L 706.195312 671.925781 L 520.628906 628.851562 Z M 567.433594 427.210938 " clip-rule="nonzero"/></clipPath><clipPath id="id3"><path d="M 567.433594 427.210938 L 753 470.285156 L 706.195312 671.925781 L 520.628906 628.851562 Z M 567.433594 427.210938 " clip-rule="nonzero"/></clipPath><clipPath id="id4"><path d="M 315.015625 377.949219 L 455.265625 377.949219 L 455.265625 518.199219 L 315.015625 518.199219 Z M 315.015625 377.949219 " clip-rule="nonzero"/></clipPath></defs><g clip-path="url(#id1)"><g clip-path="url(#id2)"><g clip-path="url(#id3)"><path fill="rgb(21.179199%, 27.059937%, 30.979919%)" d="M 736.175781 541.644531 C 736.125 541.066406 735.644531 540.535156 735.027344 540.585938 C 733.734375 540.6875 732.441406 540.78125 731.152344 540.878906 C 731.015625 540.890625 730.882812 540.902344 730.75 540.910156 C 731.882812 540.121094 733.011719 539.324219 734.144531 538.53125 C 735.308594 537.71875 734.148438 535.835938 732.976562 536.652344 C 732.128906 537.242188 731.289062 537.835938 730.445312 538.429688 C 730.949219 537.476562 731.289062 536.394531 730.890625 535.335938 C 730.6875 534.796875 730.09375 534.398438 729.507812 534.609375 C 728.972656 534.800781 728.5625 535.417969 728.78125 535.996094 C 728.808594 536.070312 728.832031 536.148438 728.851562 536.222656 C 728.847656 536.234375 728.859375 536.339844 728.863281 536.390625 C 728.863281 536.410156 728.863281 536.421875 728.863281 536.433594 C 728.859375 536.445312 728.855469 536.460938 728.851562 536.484375 C 728.824219 536.601562 728.785156 536.714844 728.761719 536.828125 C 728.761719 536.835938 728.761719 536.835938 728.757812 536.839844 C 728.746094 536.875 728.730469 536.90625 728.71875 536.9375 C 728.675781 537.035156 728.628906 537.132812 728.582031 537.226562 C 728.476562 537.4375 728.359375 537.640625 728.238281 537.839844 C 727.828125 538.53125 727.4375 539.238281 727.332031 540.046875 C 727.304688 540.242188 727.296875 540.4375 727.296875 540.636719 C 720.535156 545.378906 713.777344 550.136719 707.003906 554.867188 C 708.183594 550.757812 709.378906 546.652344 710.515625 542.527344 C 711.328125 539.570312 711.875 536.570312 712.621094 533.597656 C 713.367188 530.617188 714.515625 527.75 715.316406 524.777344 C 716.191406 521.53125 717.085938 518.292969 717.84375 515.011719 C 718.628906 511.617188 719.457031 508.199219 720.382812 504.835938 C 720.484375 504.46875 720.40625 504.167969 720.226562 503.945312 C 719.59375 501.527344 718.289062 499.613281 716.746094 497.679688 C 715.902344 496.621094 715.113281 495.519531 714.246094 494.480469 C 713.324219 493.371094 712.277344 492.429688 711.1875 491.496094 C 706.558594 487.515625 701.902344 483.566406 697.246094 479.613281 C 694.957031 477.671875 692.617188 475.75 690.414062 473.714844 C 688.210938 471.675781 686.207031 469.46875 683.921875 467.515625 C 681.609375 465.542969 679.351562 463.550781 677.179688 461.417969 C 676.140625 460.402344 675.101562 459.378906 673.9375 458.507812 C 672.804688 457.660156 671.601562 456.917969 670.464844 456.078125 C 668.230469 454.421875 666.414062 452.277344 664.097656 450.714844 C 661.691406 449.089844 658.902344 448.480469 656.027344 448.476562 C 653.046875 448.472656 650.109375 449.085938 647.136719 449.253906 C 644.125 449.421875 641.265625 449.785156 638.328125 450.476562 C 636.886719 450.8125 635.429688 451.054688 633.984375 451.371094 C 632.640625 451.667969 631.328125 452.070312 630 452.40625 C 628.617188 452.757812 627.261719 452.957031 625.835938 452.980469 C 624.460938 453.007812 623.078125 452.941406 621.707031 453.113281 C 620.1875 453.300781 618.679688 453.628906 617.171875 453.886719 C 615.699219 454.136719 614.207031 454.339844 612.757812 454.695312 C 611.425781 455.027344 610.136719 455.515625 608.824219 455.914062 C 607.457031 456.335938 606.054688 456.5625 604.660156 456.863281 C 603.203125 457.183594 601.753906 457.539062 600.285156 457.816406 C 598.847656 458.085938 597.398438 458.164062 595.941406 458.234375 C 593.003906 458.378906 590.183594 459 587.300781 459.539062 C 584.417969 460.078125 581.472656 460.359375 578.597656 460.941406 C 577.6875 461.125 576.964844 462.1875 576.488281 462.949219 C 576.160156 463.46875 575.945312 464.046875 575.863281 464.65625 C 575.769531 465.363281 575.789062 466.074219 575.722656 466.78125 C 575.613281 467.925781 575.332031 469.042969 575.078125 470.160156 C 574.464844 472.851562 573.703125 475.558594 573.3125 478.289062 C 573.101562 479.742188 572.984375 481.207031 572.75 482.652344 C 572.511719 484.136719 572.113281 485.582031 571.699219 487.027344 C 570.847656 489.96875 570.136719 492.910156 569.5 495.90625 C 568.863281 498.902344 568.050781 501.816406 567.234375 504.765625 C 566.421875 507.710938 566.042969 510.730469 565.390625 513.707031 C 565.308594 514.09375 565.214844 514.480469 565.117188 514.863281 C 563.890625 513.25 562.648438 511.648438 561.355469 510.085938 C 560.851562 509.480469 560.355469 508.871094 559.859375 508.261719 C 559.976562 508.074219 560.039062 507.855469 560.011719 507.648438 C 559.6875 505.070312 558.9375 502.621094 557.824219 500.28125 C 557.566406 499.738281 556.769531 499.632812 556.300781 499.925781 C 555.746094 500.273438 555.6875 500.910156 555.945312 501.453125 C 556.5 502.613281 556.933594 503.839844 557.269531 505.089844 C 556.316406 503.929688 555.363281 502.777344 554.378906 501.644531 C 553.445312 500.570312 551.933594 502.191406 552.859375 503.257812 C 553.757812 504.289062 554.628906 505.34375 555.492188 506.402344 C 553.722656 506.300781 551.949219 506.203125 550.175781 506.105469 C 549.578125 506.074219 549.09375 506.703125 549.117188 507.257812 C 549.140625 507.90625 549.667969 508.289062 550.265625 508.320312 C 552.636719 508.453125 555.007812 508.585938 557.378906 508.714844 C 557.859375 509.304688 558.335938 509.890625 558.820312 510.476562 C 560.722656 512.773438 562.617188 515.074219 564.375 517.484375 C 563.878906 519.144531 563.371094 520.804688 563.046875 522.507812 C 562.488281 525.402344 562.261719 528.304688 561.539062 531.175781 C 560.828125 534 560.144531 536.832031 559.398438 539.648438 C 558.710938 542.238281 558.003906 544.816406 557.546875 547.460938 C 557.371094 548.476562 557.226562 549.496094 557.082031 550.519531 C 557 551.113281 556.816406 551.753906 556.8125 552.355469 C 556.804688 554.050781 558.355469 555.625 559.375 556.808594 C 561.128906 558.855469 562.960938 560.878906 564.835938 562.8125 C 566.773438 564.808594 568.679688 566.859375 570.660156 568.804688 C 572.71875 570.820312 575.183594 572.304688 577.382812 574.144531 C 579.515625 575.925781 581.132812 578.234375 583.285156 579.992188 C 585.601562 581.882812 588.140625 583.453125 590.375 585.445312 C 592.519531 587.363281 594.640625 589.269531 596.863281 591.101562 C 599.128906 592.964844 601.394531 594.8125 603.765625 596.542969 C 604.828125 597.324219 605.867188 598.148438 606.925781 598.945312 C 605.71875 601.726562 604.515625 604.511719 603.304688 607.289062 C 602.65625 608.777344 602.007812 610.265625 601.355469 611.753906 C 600.78125 613.070312 600.335938 614.664062 599.476562 615.824219 C 598.644531 616.953125 597.5625 615.886719 596.734375 615.253906 C 595.625 614.40625 594.542969 613.523438 593.464844 612.636719 C 591.078125 610.675781 588.730469 608.667969 586.339844 606.71875 C 585.085938 605.695312 583.832031 604.675781 582.53125 603.714844 C 581.695312 603.09375 580.855469 602.433594 579.867188 602.078125 C 579.515625 601.953125 579.054688 602.136719 578.8125 602.398438 C 577.410156 603.917969 576.085938 605.660156 575.214844 607.542969 C 574.617188 608.835938 576.558594 609.894531 577.15625 608.597656 C 577.839844 607.125 578.804688 605.777344 579.871094 604.542969 C 579.949219 604.59375 580.03125 604.640625 580.109375 604.691406 C 580.648438 605.046875 581.167969 605.4375 581.679688 605.828125 C 582.957031 606.804688 584.203125 607.820312 585.441406 608.839844 C 587.996094 610.945312 590.515625 613.09375 593.085938 615.179688 C 594.105469 616.007812 595.132812 616.832031 596.199219 617.597656 C 597.328125 618.402344 598.683594 618.984375 600.011719 618.265625 C 601.210938 617.621094 601.773438 616.308594 602.289062 615.121094 C 602.988281 613.523438 603.683594 611.925781 604.378906 610.328125 C 605.84375 606.972656 607.300781 603.609375 608.761719 600.25 C 609.007812 600.417969 609.253906 600.59375 609.507812 600.753906 C 610.652344 601.46875 611.8125 602.085938 612.898438 602.886719 C 613.039062 603.105469 613.242188 603.277344 613.523438 603.324219 C 616.234375 603.773438 618.960938 603.957031 621.695312 604.222656 C 624.386719 604.480469 627.03125 604.878906 629.746094 604.878906 C 632.679688 604.875 635.605469 604.753906 638.539062 604.765625 C 641.367188 604.777344 644.160156 604.691406 646.980469 604.429688 C 650.832031 604.066406 654.6875 603.777344 658.542969 603.476562 C 658.539062 606.949219 658.621094 610.429688 658.660156 613.902344 C 658.707031 617.679688 658.617188 621.457031 658.582031 625.238281 C 658.5625 627.097656 658.476562 628.957031 658.480469 630.816406 C 658.484375 632.601562 658.632812 634.375 658.746094 636.152344 C 658.984375 639.871094 658.929688 643.636719 658.929688 647.367188 C 658.933594 649.464844 658.871094 651.566406 658.960938 653.664062 C 659.054688 655.796875 659.273438 657.921875 659.351562 660.058594 C 659.375 660.617188 659.910156 661.199219 660.5 661.121094 C 663.804688 660.679688 666.910156 659.445312 669.507812 657.328125 C 670.601562 656.4375 669.445312 654.546875 668.339844 655.445312 C 666.335938 657.082031 664.015625 658.203125 661.503906 658.71875 C 661.351562 655.382812 661.109375 652.066406 661.132812 648.714844 C 661.160156 644.964844 661.195312 641.175781 661.03125 637.429688 C 660.957031 635.65625 660.777344 633.894531 660.714844 632.121094 C 660.648438 630.277344 660.722656 628.429688 660.765625 626.585938 C 660.851562 622.8125 660.921875 619.023438 660.886719 615.246094 C 660.847656 611.269531 660.742188 607.28125 660.75 603.300781 C 667.453125 602.765625 674.144531 602.136719 680.789062 600.957031 C 683.550781 600.464844 686.277344 599.75 689.019531 599.140625 C 690.902344 598.722656 693.386719 598.449219 694.890625 597.105469 C 695.265625 596.769531 695.300781 596.363281 695.152344 596.019531 C 695.984375 593.25 696.566406 590.386719 697.617188 587.6875 C 698.179688 586.246094 698.808594 584.828125 699.3125 583.359375 C 699.804688 581.925781 700.144531 580.445312 700.488281 578.96875 C 701.171875 576.027344 702.0625 573.15625 702.925781 570.265625 C 703.839844 567.199219 704.429688 564.0625 705.277344 560.980469 C 705.609375 559.773438 705.953125 558.574219 706.292969 557.371094 C 706.59375 557.554688 706.980469 557.582031 707.367188 557.3125 C 714.339844 552.445312 721.289062 547.550781 728.25 542.664062 C 729.1875 543.332031 730.339844 543.164062 731.433594 543.082031 C 732.660156 542.988281 733.886719 542.898438 735.113281 542.800781 C 735.691406 542.753906 736.226562 542.257812 736.175781 541.644531 Z M 604.632812 594.453125 C 602.152344 592.625 599.804688 590.644531 597.421875 588.699219 C 595.039062 586.75 592.871094 584.5625 590.480469 582.628906 C 588.101562 580.703125 585.417969 579.148438 583.253906 576.96875 C 582.242188 575.949219 581.316406 574.847656 580.308594 573.828125 C 579.265625 572.773438 578.101562 571.867188 576.90625 570.988281 C 574.5 569.21875 572.3125 567.40625 570.277344 565.203125 C 568.316406 563.085938 566.21875 561.113281 564.285156 558.96875 C 562.632812 557.136719 560.707031 555.359375 559.40625 553.242188 C 559.253906 552.988281 559.117188 552.746094 559.039062 552.464844 C 559.050781 552.46875 559.039062 552.335938 559.03125 552.292969 C 559.046875 552.234375 559.070312 552.09375 559.078125 552.054688 C 559.246094 551.226562 559.320312 550.375 559.445312 549.542969 C 559.847656 546.84375 560.457031 544.199219 561.167969 541.566406 C 561.953125 538.667969 562.644531 535.746094 563.394531 532.839844 C 563.777344 531.359375 564.179688 529.871094 564.425781 528.359375 C 564.671875 526.863281 564.804688 525.351562 565.046875 523.855469 C 565.273438 522.464844 565.632812 521.105469 566.019531 519.757812 C 569.25 524.242188 572.507812 528.703125 575.449219 533.390625 C 577.359375 536.433594 579.410156 539.386719 581.253906 542.46875 C 581.988281 543.695312 583.863281 542.519531 583.128906 541.296875 C 581.496094 538.566406 579.675781 535.957031 577.980469 533.265625 C 576.289062 530.570312 574.59375 527.886719 572.734375 525.300781 C 570.757812 522.5625 568.804688 519.8125 566.796875 517.097656 C 567.027344 516.308594 567.242188 515.519531 567.429688 514.71875 C 568.144531 511.636719 568.503906 508.492188 569.339844 505.433594 C 570.175781 502.371094 571.027344 499.34375 571.6875 496.234375 C 572.363281 493.066406 573.164062 489.972656 574.039062 486.859375 C 574.464844 485.351562 574.820312 483.84375 575.03125 482.292969 C 575.230469 480.808594 575.34375 479.3125 575.617188 477.839844 C 576.140625 475.007812 576.894531 472.207031 577.519531 469.394531 C 577.757812 468.320312 577.90625 467.238281 577.96875 466.140625 C 578.007812 465.5 577.949219 465.078125 578.148438 464.511719 C 578.300781 464.089844 578.769531 463.542969 579.191406 463.085938 C 581.6875 462.746094 584.179688 462.308594 586.664062 461.886719 C 589.289062 461.441406 591.890625 460.738281 594.546875 460.535156 C 597.171875 460.335938 599.703125 460.210938 602.285156 459.65625 C 604.882812 459.097656 607.550781 458.65625 610.082031 457.84375 C 615.074219 456.234375 620.363281 455.253906 625.605469 455.203125 C 628.125 455.175781 630.464844 454.574219 632.886719 453.925781 C 635.496094 453.226562 638.1875 452.738281 640.828125 452.167969 C 643.453125 451.597656 646.097656 451.601562 648.757812 451.363281 C 651.5 451.121094 654.203125 450.585938 656.972656 450.710938 C 659.589844 450.828125 661.910156 451.714844 663.960938 453.339844 C 665.976562 454.941406 667.714844 456.839844 669.824219 458.328125 C 670.816406 459.023438 671.851562 459.664062 672.804688 460.414062 C 673.863281 461.25 674.824219 462.207031 675.78125 463.152344 C 677.78125 465.117188 679.855469 466.964844 681.992188 468.78125 C 684.074219 470.554688 685.976562 472.453125 687.910156 474.378906 C 689.878906 476.335938 692.078125 478.039062 694.160156 479.863281 C 698.828125 483.941406 703.582031 487.9375 708.308594 491.949219 C 709.449219 492.914062 710.640625 493.855469 711.6875 494.925781 C 712.648438 495.910156 713.457031 497.023438 714.292969 498.113281 C 715.6875 499.925781 717.046875 501.566406 717.820312 503.671875 C 715.546875 504.277344 713.308594 505.011719 711.015625 505.539062 C 708.316406 506.15625 705.597656 506.636719 702.949219 507.449219 C 700.464844 508.207031 698.003906 508.976562 695.484375 509.605469 C 692.824219 510.273438 690.167969 510.898438 687.566406 511.777344 C 686.414062 512.167969 685.261719 512.566406 684.078125 512.871094 C 682.710938 513.222656 681.3125 513.320312 679.910156 513.4375 C 677.351562 513.648438 674.890625 514.269531 672.386719 514.816406 C 666.921875 516.007812 661.410156 517.019531 655.867188 517.777344 C 653.398438 518.117188 651.058594 518.964844 648.605469 519.332031 C 645.945312 519.734375 643.265625 519.136719 640.597656 519.3125 C 638.40625 519.460938 635.652344 520.398438 633.675781 519.054688 C 632.753906 518.421875 632.09375 517.453125 631.441406 516.5625 C 630.71875 515.578125 629.957031 514.640625 629.121094 513.75 C 627.238281 511.738281 625.28125 509.777344 623.351562 507.804688 C 621.519531 505.929688 619.542969 504.171875 617.90625 502.113281 C 614.636719 497.992188 610.914062 494.09375 606.886719 490.699219 C 602.222656 486.773438 597.679688 482.710938 593.332031 478.429688 C 591.253906 476.382812 589.382812 474.21875 587.488281 472.003906 C 585.507812 469.695312 583.476562 467.453125 581.5625 465.085938 C 580.679688 463.992188 578.792969 465.15625 579.6875 466.261719 C 581.449219 468.441406 583.25 470.578125 585.128906 472.660156 C 586.882812 474.605469 588.464844 476.699219 590.316406 478.558594 C 594.238281 482.496094 598.328125 486.230469 602.5 489.898438 C 604.554688 491.699219 606.695312 493.375 608.636719 495.304688 C 610.515625 497.171875 612.523438 499.015625 614.242188 501.035156 C 615.929688 503.023438 617.46875 505.054688 619.320312 506.898438 C 621.316406 508.886719 623.230469 510.953125 625.21875 512.945312 C 626.171875 513.902344 627.144531 514.84375 628.050781 515.847656 C 628.914062 516.804688 629.621094 517.871094 630.421875 518.878906 C 631.1875 519.84375 632.015625 520.601562 632.964844 521.121094 C 632.925781 521.203125 632.886719 521.292969 632.863281 521.398438 C 631.636719 526.628906 630.503906 531.925781 628.929688 537.066406 C 628.078125 539.847656 627.140625 542.59375 626.3125 545.382812 C 625.492188 548.160156 624.6875 550.9375 623.855469 553.710938 C 622.984375 556.621094 622.21875 559.503906 621.625 562.484375 C 621.0625 565.324219 620.191406 568.09375 619.417969 570.882812 C 618.671875 573.566406 617.835938 576.226562 617.089844 578.914062 C 616.320312 581.667969 615.6875 584.460938 615.015625 587.238281 C 614.019531 591.363281 612.496094 595.675781 612.511719 599.992188 C 611.890625 599.609375 611.265625 599.238281 610.632812 598.847656 C 608.539062 597.554688 606.613281 595.914062 604.632812 594.453125 Z M 711.140625 530.769531 C 710.191406 533.703125 709.761719 536.75 708.984375 539.726562 C 707.367188 545.914062 705.5 552.03125 703.769531 558.1875 C 702.910156 561.242188 702.265625 564.34375 701.449219 567.410156 C 700.65625 570.386719 699.613281 573.292969 698.859375 576.277344 C 698.445312 577.914062 698.109375 579.566406 697.667969 581.195312 C 697.21875 582.839844 696.570312 584.398438 695.933594 585.980469 C 694.648438 589.167969 693.933594 592.511719 692.921875 595.785156 C 692.542969 595.953125 692 596.117188 691.652344 596.222656 C 690.570312 596.535156 689.464844 596.777344 688.367188 597.023438 C 685.953125 597.558594 683.550781 598.175781 681.125 598.652344 C 675.851562 599.691406 670.445312 600.226562 665.105469 600.773438 C 659.628906 601.332031 654.128906 601.570312 648.644531 602.050781 C 645.828125 602.296875 643.039062 602.546875 640.207031 602.554688 C 637.386719 602.558594 634.566406 602.582031 631.746094 602.636719 C 628.730469 602.695312 625.828125 602.46875 622.839844 602.132812 C 620.148438 601.828125 617.453125 601.664062 614.773438 601.269531 C 614.445312 597.15625 615.820312 593.011719 616.832031 589.089844 C 617.519531 586.425781 618.117188 583.742188 618.796875 581.082031 C 619.484375 578.394531 620.363281 575.765625 621.097656 573.09375 C 621.894531 570.203125 622.820312 567.324219 623.484375 564.398438 C 624.125 561.554688 624.65625 558.738281 625.488281 555.941406 C 627.125 550.457031 628.636719 544.925781 630.457031 539.5 C 632.378906 533.761719 633.632812 527.78125 635.015625 521.898438 C 635.019531 521.871094 635.019531 521.847656 635.023438 521.824219 C 635.433594 521.894531 635.855469 521.941406 636.304688 521.941406 C 637.464844 521.945312 638.613281 521.742188 639.765625 521.617188 C 641.207031 521.453125 642.636719 521.496094 644.082031 521.582031 C 645.292969 521.65625 646.511719 521.742188 647.722656 521.65625 C 649.113281 521.554688 650.476562 521.226562 651.824219 520.875 C 654.449219 520.1875 657.089844 519.851562 659.765625 519.429688 C 662.496094 518.996094 665.214844 518.515625 667.925781 517.980469 C 670.65625 517.441406 673.378906 516.863281 676.09375 516.253906 C 678.640625 515.679688 681.238281 515.703125 683.789062 515.207031 C 686.730469 514.632812 689.519531 513.382812 692.425781 512.648438 C 695.417969 511.894531 698.425781 511.207031 701.371094 510.269531 C 704.375 509.316406 707.378906 508.582031 710.460938 507.921875 C 712.945312 507.390625 715.359375 506.628906 717.808594 505.960938 C 716.386719 511.324219 715.207031 516.75 713.753906 522.105469 C 712.957031 525.027344 712.074219 527.890625 711.140625 530.769531 Z M 655.351562 552.660156 C 654.863281 552.351562 654.101562 552.59375 653.851562 553.109375 C 653.578125 553.679688 653.773438 554.28125 654.296875 554.609375 C 656.5 556.003906 658.5625 557.941406 660.09375 560.070312 C 660.441406 560.554688 661.082031 560.753906 661.613281 560.421875 C 662.09375 560.121094 662.320312 559.382812 661.96875 558.894531 C 660.175781 556.402344 657.941406 554.300781 655.351562 552.660156 Z M 683.984375 552.457031 C 683.519531 552.054688 682.855469 552.0625 682.421875 552.5 C 680.539062 554.402344 678.664062 556.308594 676.785156 558.210938 C 676.375 558.625 676.382812 559.394531 676.828125 559.777344 C 677.289062 560.179688 677.953125 560.175781 678.390625 559.734375 C 680.269531 557.832031 682.144531 555.925781 684.027344 554.023438 C 684.433594 553.609375 684.425781 552.839844 683.984375 552.457031 Z M 668.878906 569.347656 C 669.789062 569.585938 670.691406 569.28125 671.363281 568.652344 C 672.082031 567.984375 672.394531 566.933594 672.382812 565.972656 C 672.375 565.625 672.144531 565.183594 671.804688 565.046875 C 670.847656 564.660156 669.730469 564.292969 668.710938 564.707031 C 668.183594 564.921875 667.769531 565.257812 667.484375 565.757812 C 667.425781 565.855469 667.375 565.960938 667.332031 566.070312 C 667.308594 566.109375 667.277344 566.148438 667.253906 566.1875 C 666.988281 566.652344 666.960938 567.175781 667.082031 567.683594 C 667.28125 568.535156 668.070312 569.140625 668.878906 569.347656 Z M 672.265625 570.765625 C 669.605469 573.644531 664.222656 573.304688 661.996094 570.058594 C 661.191406 568.886719 659.3125 570.054688 660.121094 571.230469 C 663.136719 575.632812 670.214844 576.246094 673.871094 572.285156 C 674.839844 571.238281 673.234375 569.71875 672.265625 570.765625 Z M 672.265625 570.765625 " fill-opacity="1" fill-rule="nonzero"/></g></g></g><g clip-path="url(#id4)"><path fill="rgb(21.179199%, 27.059937%, 30.979919%)" d="M 455.265625 516.671875 L 455.265625 517.054688 C 455.265625 517.703125 454.769531 518.199219 454.117188 518.199219 L 453.738281 518.199219 C 453.089844 518.199219 452.59375 517.703125 452.59375 517.054688 C 452.59375 516.632812 452.820312 516.289062 453.125 516.0625 C 453.316406 515.71875 453.699219 515.527344 454.117188 515.527344 C 454.730469 515.527344 455.265625 516.023438 455.265625 516.671875 Z M 420.039062 515.910156 L 419.238281 515.910156 C 418.589844 515.910156 418.09375 516.40625 418.09375 517.054688 C 418.09375 517.703125 418.589844 518.199219 419.238281 518.199219 L 420.039062 518.199219 C 420.6875 518.199219 421.183594 517.703125 421.183594 517.054688 C 421.183594 516.40625 420.648438 515.910156 420.039062 515.910156 Z M 333.789062 515.910156 L 333.027344 515.910156 C 332.378906 515.910156 331.882812 516.40625 331.882812 517.054688 C 331.882812 517.703125 332.378906 518.199219 333.027344 518.199219 L 333.789062 518.199219 C 334.4375 518.199219 334.933594 517.703125 334.933594 517.054688 C 334.933594 516.40625 334.4375 515.910156 333.789062 515.910156 Z M 411.414062 515.910156 L 410.652344 515.910156 C 410.003906 515.910156 409.507812 516.40625 409.507812 517.054688 C 409.507812 517.703125 410.003906 518.199219 410.652344 518.199219 L 411.414062 518.199219 C 412.0625 518.199219 412.558594 517.703125 412.558594 517.054688 C 412.558594 516.40625 412.023438 515.910156 411.414062 515.910156 Z M 428.625 515.910156 L 427.824219 515.910156 C 427.175781 515.910156 426.679688 516.40625 426.679688 517.054688 C 426.679688 517.703125 427.175781 518.199219 427.824219 518.199219 L 428.625 518.199219 C 429.273438 518.199219 429.769531 517.703125 429.769531 517.054688 C 429.769531 516.40625 429.273438 515.910156 428.625 515.910156 Z M 445.875 515.910156 L 445.113281 515.910156 C 444.464844 515.910156 443.96875 516.40625 443.96875 517.054688 C 443.96875 517.703125 444.464844 518.199219 445.113281 518.199219 L 445.875 518.199219 C 446.523438 518.199219 447.019531 517.703125 447.019531 517.054688 C 447.019531 516.40625 446.523438 515.910156 445.875 515.910156 Z M 325.203125 515.910156 L 324.402344 515.910156 C 323.753906 515.910156 323.257812 516.40625 323.257812 517.054688 C 323.257812 517.703125 323.753906 518.199219 324.402344 518.199219 L 325.203125 518.199219 C 325.851562 518.199219 326.347656 517.703125 326.347656 517.054688 C 326.347656 516.40625 325.8125 515.910156 325.203125 515.910156 Z M 402.789062 515.910156 L 402.027344 515.910156 C 401.378906 515.910156 400.882812 516.40625 400.882812 517.054688 C 400.882812 517.703125 401.378906 518.199219 402.027344 518.199219 L 402.789062 518.199219 C 403.4375 518.199219 403.933594 517.703125 403.933594 517.054688 C 403.933594 516.40625 403.398438 515.910156 402.789062 515.910156 Z M 437.25 515.910156 L 436.488281 515.910156 C 435.839844 515.910156 435.34375 516.40625 435.34375 517.054688 C 435.34375 517.703125 435.839844 518.199219 436.488281 518.199219 L 437.25 518.199219 C 437.898438 518.199219 438.394531 517.703125 438.394531 517.054688 C 438.394531 516.40625 437.898438 515.910156 437.25 515.910156 Z M 376.914062 515.910156 L 376.113281 515.910156 C 375.464844 515.910156 374.96875 516.40625 374.96875 517.054688 C 374.96875 517.703125 375.464844 518.199219 376.113281 518.199219 L 376.914062 518.199219 C 377.5625 518.199219 378.058594 517.703125 378.058594 517.054688 C 378.058594 516.40625 377.5625 515.910156 376.914062 515.910156 Z M 351.039062 515.910156 L 350.238281 515.910156 C 349.589844 515.910156 349.09375 516.40625 349.09375 517.054688 C 349.09375 517.703125 349.589844 518.199219 350.238281 518.199219 L 351.039062 518.199219 C 351.6875 518.199219 352.183594 517.703125 352.183594 517.054688 C 352.183594 516.40625 351.6875 515.910156 351.039062 515.910156 Z M 385.539062 515.910156 L 384.738281 515.910156 C 384.089844 515.910156 383.59375 516.40625 383.59375 517.054688 C 383.59375 517.703125 384.089844 518.199219 384.738281 518.199219 L 385.539062 518.199219 C 386.1875 518.199219 386.683594 517.703125 386.683594 517.054688 C 386.683594 516.40625 386.148438 515.910156 385.539062 515.910156 Z M 368.289062 515.910156 L 367.527344 515.910156 C 366.878906 515.910156 366.382812 516.40625 366.382812 517.054688 C 366.382812 517.703125 366.878906 518.199219 367.527344 518.199219 L 368.289062 518.199219 C 368.9375 518.199219 369.433594 517.703125 369.433594 517.054688 C 369.433594 516.40625 368.9375 515.910156 368.289062 515.910156 Z M 359.664062 515.910156 L 358.902344 515.910156 C 358.253906 515.910156 357.757812 516.40625 357.757812 517.054688 C 357.757812 517.703125 358.253906 518.199219 358.902344 518.199219 L 359.703125 518.199219 C 360.351562 518.199219 360.847656 517.703125 360.847656 517.054688 C 360.847656 516.40625 360.3125 515.910156 359.664062 515.910156 Z M 394.164062 515.910156 L 393.402344 515.910156 C 392.753906 515.910156 392.257812 516.40625 392.257812 517.054688 C 392.257812 517.703125 392.753906 518.199219 393.402344 518.199219 L 394.164062 518.199219 C 394.8125 518.199219 395.308594 517.703125 395.308594 517.054688 C 395.308594 516.40625 394.773438 515.910156 394.164062 515.910156 Z M 342.414062 515.910156 L 341.652344 515.910156 C 341.003906 515.910156 340.507812 516.40625 340.507812 517.054688 C 340.507812 517.703125 341.003906 518.199219 341.652344 518.199219 L 342.414062 518.199219 C 343.0625 518.199219 343.558594 517.703125 343.558594 517.054688 C 343.558594 516.40625 343.0625 515.910156 342.414062 515.910156 Z M 317.152344 516.0625 C 316.921875 515.71875 316.578125 515.527344 316.160156 515.527344 C 315.511719 515.527344 315.015625 516.023438 315.015625 516.671875 L 315.015625 517.054688 C 315.015625 517.703125 315.511719 518.199219 316.160156 518.199219 L 316.539062 518.199219 C 317.1875 518.199219 317.683594 517.703125 317.683594 517.054688 C 317.683594 516.632812 317.457031 516.253906 317.152344 516.0625 Z M 316.160156 509.957031 C 316.808594 509.957031 317.304688 509.460938 317.304688 508.8125 L 317.304688 508.046875 C 317.304688 507.398438 316.808594 506.902344 316.160156 506.902344 C 315.511719 506.902344 315.015625 507.398438 315.015625 508.046875 L 315.015625 508.8125 C 315.015625 509.460938 315.511719 509.957031 316.160156 509.957031 Z M 316.160156 415.121094 C 316.808594 415.121094 317.304688 414.625 317.304688 413.976562 L 317.304688 413.171875 C 317.304688 412.523438 316.808594 412.027344 316.160156 412.027344 C 315.511719 412.027344 315.015625 412.523438 315.015625 413.171875 L 315.015625 413.976562 C 315.015625 414.625 315.511719 415.121094 316.160156 415.121094 Z M 316.160156 440.996094 C 316.808594 440.996094 317.304688 440.5 317.304688 439.851562 L 317.304688 439.046875 C 317.304688 438.398438 316.808594 437.902344 316.160156 437.902344 C 315.511719 437.902344 315.015625 438.398438 315.015625 439.046875 L 315.015625 439.851562 C 315.015625 440.5 315.511719 440.996094 316.160156 440.996094 Z M 316.160156 449.621094 C 316.808594 449.621094 317.304688 449.125 317.304688 448.472656 L 317.304688 447.671875 C 317.304688 447.023438 316.808594 446.527344 316.160156 446.527344 C 315.511719 446.527344 315.015625 447.023438 315.015625 447.671875 L 315.015625 448.472656 C 315.015625 449.085938 315.511719 449.621094 316.160156 449.621094 Z M 316.160156 432.371094 C 316.808594 432.371094 317.304688 431.875 317.304688 431.226562 L 317.304688 430.460938 C 317.304688 429.8125 316.808594 429.316406 316.160156 429.316406 C 315.511719 429.316406 315.015625 429.8125 315.015625 430.460938 L 315.015625 431.226562 C 315.015625 431.875 315.511719 432.371094 316.160156 432.371094 Z M 316.160156 423.746094 C 316.808594 423.746094 317.304688 423.25 317.304688 422.601562 L 317.304688 421.835938 C 317.304688 421.1875 316.808594 420.691406 316.160156 420.691406 C 315.511719 420.691406 315.015625 421.1875 315.015625 421.835938 L 315.015625 422.636719 C 315.015625 423.25 315.511719 423.746094 316.160156 423.746094 Z M 316.160156 389.285156 C 316.808594 389.285156 317.304688 388.789062 317.304688 388.136719 L 317.304688 387.335938 C 317.304688 386.6875 316.808594 386.191406 316.160156 386.191406 C 315.511719 386.191406 315.015625 386.6875 315.015625 387.335938 L 315.015625 388.136719 C 315.015625 388.75 315.511719 389.285156 316.160156 389.285156 Z M 316.160156 397.871094 C 316.808594 397.871094 317.304688 397.375 317.304688 396.726562 L 317.304688 395.960938 C 317.304688 395.3125 316.808594 394.816406 316.160156 394.816406 C 315.511719 394.816406 315.015625 395.3125 315.015625 395.960938 L 315.015625 396.726562 C 315.015625 397.375 315.511719 397.871094 316.160156 397.871094 Z M 316.160156 458.246094 C 316.808594 458.246094 317.304688 457.75 317.304688 457.097656 L 317.304688 456.335938 C 317.304688 455.6875 316.808594 455.191406 316.160156 455.191406 C 315.511719 455.191406 315.015625 455.6875 315.015625 456.335938 L 315.015625 457.097656 C 315.015625 457.710938 315.511719 458.246094 316.160156 458.246094 Z M 316.160156 406.496094 C 316.808594 406.496094 317.304688 406 317.304688 405.351562 L 317.304688 404.585938 C 317.304688 403.9375 316.808594 403.441406 316.160156 403.441406 C 315.511719 403.441406 315.015625 403.9375 315.015625 404.585938 L 315.015625 405.351562 C 315.015625 406 315.511719 406.496094 316.160156 406.496094 Z M 316.160156 484.117188 C 316.808594 484.117188 317.304688 483.621094 317.304688 482.972656 L 317.304688 482.171875 C 317.304688 481.523438 316.808594 481.027344 316.160156 481.027344 C 315.511719 481.027344 315.015625 481.523438 315.015625 482.171875 L 315.015625 482.972656 C 315.015625 483.585938 315.511719 484.117188 316.160156 484.117188 Z M 316.160156 492.707031 C 316.808594 492.707031 317.304688 492.210938 317.304688 491.5625 L 317.304688 490.757812 C 317.304688 490.109375 316.808594 489.613281 316.160156 489.613281 C 315.511719 489.613281 315.015625 490.109375 315.015625 490.757812 L 315.015625 491.5625 C 315.015625 492.210938 315.511719 492.707031 316.160156 492.707031 Z M 316.160156 501.332031 C 316.808594 501.332031 317.304688 500.835938 317.304688 500.1875 L 317.304688 499.421875 C 317.304688 498.773438 316.808594 498.277344 316.160156 498.277344 C 315.511719 498.277344 315.015625 498.773438 315.015625 499.421875 L 315.015625 500.1875 C 315.015625 500.835938 315.511719 501.332031 316.160156 501.332031 Z M 316.160156 475.496094 C 316.808594 475.496094 317.304688 474.996094 317.304688 474.347656 L 317.304688 473.585938 C 317.304688 472.9375 316.808594 472.441406 316.160156 472.441406 C 315.511719 472.441406 315.015625 472.9375 315.015625 473.585938 L 315.015625 474.347656 C 315.015625 474.960938 315.511719 475.496094 316.160156 475.496094 Z M 316.160156 466.871094 C 316.808594 466.871094 317.304688 466.375 317.304688 465.722656 L 317.304688 464.960938 C 317.304688 464.3125 316.808594 463.816406 316.160156 463.816406 C 315.511719 463.816406 315.015625 464.3125 315.015625 464.960938 L 315.015625 465.722656 C 315.015625 466.335938 315.511719 466.871094 316.160156 466.871094 Z M 316.539062 377.949219 L 316.160156 377.949219 C 315.511719 377.949219 315.015625 378.445312 315.015625 379.09375 L 315.015625 379.476562 C 315.015625 380.125 315.511719 380.621094 316.160156 380.621094 C 316.578125 380.621094 316.921875 380.390625 317.152344 380.085938 C 317.457031 379.855469 317.683594 379.511719 317.683594 379.09375 C 317.683594 378.445312 317.1875 377.949219 316.539062 377.949219 Z M 324.363281 380.238281 L 325.128906 380.238281 C 325.777344 380.238281 326.273438 379.742188 326.273438 379.09375 C 326.273438 378.445312 325.777344 377.949219 325.128906 377.949219 L 324.363281 377.949219 C 323.714844 377.949219 323.21875 378.445312 323.21875 379.09375 C 323.21875 379.742188 323.753906 380.238281 324.363281 380.238281 Z M 358.863281 380.238281 L 359.664062 380.238281 C 360.3125 380.238281 360.808594 379.742188 360.808594 379.09375 C 360.808594 378.445312 360.3125 377.949219 359.664062 377.949219 L 358.863281 377.949219 C 358.214844 377.949219 357.71875 378.445312 357.71875 379.09375 C 357.71875 379.742188 358.214844 380.238281 358.863281 380.238281 Z M 341.613281 380.238281 L 342.378906 380.238281 C 343.027344 380.238281 343.523438 379.742188 343.523438 379.09375 C 343.523438 378.445312 343.027344 377.949219 342.378906 377.949219 L 341.613281 377.949219 C 340.964844 377.949219 340.46875 378.445312 340.46875 379.09375 C 340.46875 379.742188 341.003906 380.238281 341.613281 380.238281 Z M 350.238281 380.238281 L 351 380.238281 C 351.652344 380.238281 352.148438 379.742188 352.148438 379.09375 C 352.148438 378.445312 351.652344 377.949219 351 377.949219 L 350.238281 377.949219 C 349.589844 377.949219 349.09375 378.445312 349.09375 379.09375 C 349.09375 379.742188 349.628906 380.238281 350.238281 380.238281 Z M 332.988281 380.238281 L 333.789062 380.238281 C 334.4375 380.238281 334.933594 379.742188 334.933594 379.09375 C 334.933594 378.445312 334.4375 377.949219 333.789062 377.949219 L 332.988281 377.949219 C 332.339844 377.949219 331.84375 378.445312 331.84375 379.09375 C 331.84375 379.742188 332.378906 380.238281 332.988281 380.238281 Z M 419.199219 380.238281 L 419.964844 380.238281 C 420.613281 380.238281 421.109375 379.742188 421.109375 379.09375 C 421.109375 378.445312 420.613281 377.949219 419.964844 377.949219 L 419.199219 377.949219 C 418.550781 377.949219 418.054688 378.445312 418.054688 379.09375 C 418.054688 379.742188 418.589844 380.238281 419.199219 380.238281 Z M 427.824219 380.238281 L 428.585938 380.238281 C 429.238281 380.238281 429.734375 379.742188 429.734375 379.09375 C 429.734375 378.445312 429.238281 377.949219 428.585938 377.949219 L 427.824219 377.949219 C 427.175781 377.949219 426.679688 378.445312 426.679688 379.09375 C 426.679688 379.742188 427.214844 380.238281 427.824219 380.238281 Z M 410.574219 380.238281 L 411.339844 380.238281 C 411.988281 380.238281 412.484375 379.742188 412.484375 379.09375 C 412.484375 378.445312 411.988281 377.949219 411.339844 377.949219 L 410.574219 377.949219 C 409.925781 377.949219 409.429688 378.445312 409.429688 379.09375 C 409.429688 379.742188 409.964844 380.238281 410.574219 380.238281 Z M 445.074219 380.238281 L 445.835938 380.238281 C 446.488281 380.238281 446.984375 379.742188 446.984375 379.09375 C 446.984375 378.445312 446.488281 377.949219 445.835938 377.949219 L 445.074219 377.949219 C 444.425781 377.949219 443.929688 378.445312 443.929688 379.09375 C 443.929688 379.742188 444.425781 380.238281 445.074219 380.238281 Z M 436.449219 380.238281 L 437.210938 380.238281 C 437.863281 380.238281 438.359375 379.742188 438.359375 379.09375 C 438.359375 378.445312 437.863281 377.949219 437.210938 377.949219 L 436.449219 377.949219 C 435.800781 377.949219 435.304688 378.445312 435.304688 379.09375 C 435.304688 379.742188 435.839844 380.238281 436.449219 380.238281 Z M 384.738281 380.238281 L 385.539062 380.238281 C 386.1875 380.238281 386.683594 379.742188 386.683594 379.09375 C 386.683594 378.445312 386.1875 377.949219 385.539062 377.949219 L 384.738281 377.949219 C 384.089844 377.949219 383.59375 378.445312 383.59375 379.09375 C 383.59375 379.742188 384.089844 380.238281 384.738281 380.238281 Z M 401.949219 380.238281 L 402.75 380.238281 C 403.398438 380.238281 403.894531 379.742188 403.894531 379.09375 C 403.894531 378.445312 403.398438 377.949219 402.75 377.949219 L 401.949219 377.949219 C 401.300781 377.949219 400.804688 378.445312 400.804688 379.09375 C 400.804688 379.742188 401.339844 380.238281 401.949219 380.238281 Z M 367.488281 380.238281 L 368.25 380.238281 C 368.902344 380.238281 369.398438 379.742188 369.398438 379.09375 C 369.398438 378.445312 368.902344 377.949219 368.25 377.949219 L 367.488281 377.949219 C 366.839844 377.949219 366.34375 378.445312 366.34375 379.09375 C 366.34375 379.742188 366.839844 380.238281 367.488281 380.238281 Z M 376.113281 380.238281 L 376.875 380.238281 C 377.527344 380.238281 378.023438 379.742188 378.023438 379.09375 C 378.023438 378.445312 377.527344 377.949219 376.875 377.949219 L 376.113281 377.949219 C 375.464844 377.949219 374.96875 378.445312 374.96875 379.09375 C 374.96875 379.742188 375.464844 380.238281 376.113281 380.238281 Z M 393.363281 380.238281 L 394.125 380.238281 C 394.773438 380.238281 395.269531 379.742188 395.269531 379.09375 C 395.269531 378.445312 394.773438 377.949219 394.125 377.949219 L 393.363281 377.949219 C 392.714844 377.949219 392.21875 378.445312 392.21875 379.09375 C 392.21875 379.742188 392.714844 380.238281 393.363281 380.238281 Z M 454.117188 377.949219 L 453.738281 377.949219 C 453.089844 377.949219 452.59375 378.445312 452.59375 379.09375 C 452.59375 379.511719 452.820312 379.855469 453.125 380.085938 C 453.316406 380.429688 453.699219 380.621094 454.117188 380.621094 C 454.769531 380.621094 455.265625 380.125 455.265625 379.476562 L 455.265625 379.09375 C 455.265625 378.445312 454.730469 377.949219 454.117188 377.949219 Z M 454.117188 429.277344 C 453.46875 429.277344 452.972656 429.773438 452.972656 430.421875 L 452.972656 431.1875 C 452.972656 431.835938 453.46875 432.332031 454.117188 432.332031 C 454.769531 432.332031 455.265625 431.835938 455.265625 431.1875 L 455.265625 430.421875 C 455.265625 429.773438 454.730469 429.277344 454.117188 429.277344 Z M 454.117188 420.652344 C 453.46875 420.652344 452.972656 421.148438 452.972656 421.796875 L 452.972656 422.601562 C 452.972656 423.25 453.46875 423.746094 454.117188 423.746094 C 454.769531 423.746094 455.265625 423.25 455.265625 422.601562 L 455.265625 421.796875 C 455.265625 421.148438 454.730469 420.652344 454.117188 420.652344 Z M 454.117188 437.902344 C 453.46875 437.902344 452.972656 438.398438 452.972656 439.046875 L 452.972656 439.8125 C 452.972656 440.460938 453.46875 440.957031 454.117188 440.957031 C 454.769531 440.957031 455.265625 440.460938 455.265625 439.8125 L 455.265625 439.046875 C 455.265625 438.398438 454.730469 437.902344 454.117188 437.902344 Z M 454.117188 446.527344 C 453.46875 446.527344 452.972656 447.023438 452.972656 447.671875 L 452.972656 448.472656 C 452.972656 449.125 453.46875 449.621094 454.117188 449.621094 C 454.769531 449.621094 455.265625 449.125 455.265625 448.472656 L 455.265625 447.671875 C 455.265625 447.023438 454.730469 446.527344 454.117188 446.527344 Z M 454.117188 412.027344 C 453.46875 412.027344 452.972656 412.523438 452.972656 413.171875 L 452.972656 413.9375 C 452.972656 414.585938 453.46875 415.082031 454.117188 415.082031 C 454.769531 415.082031 455.265625 414.585938 455.265625 413.9375 L 455.265625 413.171875 C 455.265625 412.5625 454.730469 412.027344 454.117188 412.027344 Z M 454.117188 386.152344 C 453.46875 386.152344 452.972656 386.648438 452.972656 387.300781 L 452.972656 388.0625 C 452.972656 388.710938 453.46875 389.207031 454.117188 389.207031 C 454.769531 389.207031 455.265625 388.710938 455.265625 388.0625 L 455.265625 387.300781 C 455.265625 386.6875 454.730469 386.152344 454.117188 386.152344 Z M 454.117188 394.777344 C 453.46875 394.777344 452.972656 395.273438 452.972656 395.921875 L 452.972656 396.726562 C 452.972656 397.375 453.46875 397.871094 454.117188 397.871094 C 454.769531 397.871094 455.265625 397.375 455.265625 396.726562 L 455.265625 395.921875 C 455.265625 395.3125 454.730469 394.777344 454.117188 394.777344 Z M 454.117188 506.863281 C 453.46875 506.863281 452.972656 507.359375 452.972656 508.007812 L 452.972656 508.773438 C 452.972656 509.421875 453.46875 509.917969 454.117188 509.917969 C 454.769531 509.917969 455.265625 509.421875 455.265625 508.773438 L 455.265625 508.007812 C 455.265625 507.359375 454.730469 506.863281 454.117188 506.863281 Z M 454.117188 403.402344 C 453.46875 403.402344 452.972656 403.898438 452.972656 404.546875 L 452.972656 405.3125 C 452.972656 405.960938 453.46875 406.457031 454.117188 406.457031 C 454.769531 406.457031 455.265625 405.960938 455.265625 405.3125 L 455.265625 404.546875 C 455.265625 403.9375 454.730469 403.402344 454.117188 403.402344 Z M 454.117188 455.152344 C 453.46875 455.152344 452.972656 455.648438 452.972656 456.296875 L 452.972656 457.0625 C 452.972656 457.710938 453.46875 458.207031 454.117188 458.207031 C 454.769531 458.207031 455.265625 457.710938 455.265625 457.0625 L 455.265625 456.296875 C 455.265625 455.648438 454.730469 455.152344 454.117188 455.152344 Z M 454.117188 498.238281 C 453.46875 498.238281 452.972656 498.734375 452.972656 499.382812 L 452.972656 500.148438 C 452.972656 500.796875 453.46875 501.292969 454.117188 501.292969 C 454.769531 501.292969 455.265625 500.796875 455.265625 500.148438 L 455.265625 499.382812 C 455.265625 498.773438 454.730469 498.238281 454.117188 498.238281 Z M 454.117188 480.988281 C 453.46875 480.988281 452.972656 481.484375 452.972656 482.132812 L 452.972656 482.898438 C 452.972656 483.546875 453.46875 484.042969 454.117188 484.042969 C 454.769531 484.042969 455.265625 483.546875 455.265625 482.898438 L 455.265625 482.132812 C 455.265625 481.523438 454.730469 480.988281 454.117188 480.988281 Z M 454.117188 489.613281 C 453.46875 489.613281 452.972656 490.109375 452.972656 490.757812 L 452.972656 491.523438 C 452.972656 492.171875 453.46875 492.667969 454.117188 492.667969 C 454.769531 492.667969 455.265625 492.171875 455.265625 491.523438 L 455.265625 490.757812 C 455.265625 490.148438 454.730469 489.613281 454.117188 489.613281 Z M 454.117188 463.738281 C 453.46875 463.738281 452.972656 464.234375 452.972656 464.882812 L 452.972656 465.6875 C 452.972656 466.335938 453.46875 466.832031 454.117188 466.832031 C 454.769531 466.832031 455.265625 466.335938 455.265625 465.6875 L 455.265625 464.882812 C 455.265625 464.273438 454.730469 463.738281 454.117188 463.738281 Z M 454.117188 472.363281 C 453.46875 472.363281 452.972656 472.859375 452.972656 473.507812 L 452.972656 474.273438 C 452.972656 474.921875 453.46875 475.417969 454.117188 475.417969 C 454.769531 475.417969 455.265625 474.921875 455.265625 474.273438 L 455.265625 473.507812 C 455.265625 472.898438 454.730469 472.363281 454.117188 472.363281 Z M 454.117188 472.363281 " fill-opacity="1" fill-rule="nonzero"/></g></svg>