<svg xmlns="http://www.w3.org/2000/svg" xmlns:xlink="http://www.w3.org/1999/xlink" width="1920" zoomAndPan="magnify" viewBox="0 0 1440 809.999993" height="1080" preserveAspectRatio="xMidYMid meet" version="1.0"><defs><g><g id="id1"/></g><clipPath id="id2"><path d="M 0 133.558594 L 417 133.558594 L 417 550.558594 L 0 550.558594 Z M 0 133.558594 " clip-rule="nonzero"/></clipPath><clipPath id="id3"><path d="M 610 195 L 1016 195 L 1016 586 L 610 586 Z M 610 195 " clip-rule="nonzero"/></clipPath><clipPath id="id4"><path d="M 550.929688 271.9375 L 935.789062 121.414062 L 1098.605469 537.707031 L 713.746094 688.230469 Z M 550.929688 271.9375 " clip-rule="nonzero"/></clipPath><clipPath id="id5"><path d="M 550.929688 271.9375 L 935.789062 121.414062 L 1098.605469 537.707031 L 713.746094 688.230469 Z M 550.929688 271.9375 " clip-rule="nonzero"/></clipPath><clipPath id="id6"><path d="M 1211.011719 380.777344 L 1439 380.777344 L 1439 593 L 1211.011719 593 Z M 1211.011719 380.777344 " clip-rule="nonzero"/></clipPath></defs><g clip-path="url(#id2)"><path fill="rgb(21.179199%, 27.059937%, 30.979919%)" d="M 417 546.019531 L 417 547.152344 C 417 549.082031 415.523438 550.558594 413.597656 550.558594 L 412.460938 550.558594 C 410.53125 550.558594 409.058594 549.082031 409.058594 547.152344 C 409.058594 545.90625 409.738281 544.886719 410.644531 544.203125 C 411.214844 543.183594 412.347656 542.617188 413.597656 542.617188 C 415.410156 542.617188 417 544.089844 417 546.019531 Z M 312.269531 543.75 L 309.886719 543.75 C 307.957031 543.75 306.480469 545.226562 306.480469 547.152344 C 306.480469 549.082031 307.957031 550.558594 309.886719 550.558594 L 312.269531 550.558594 C 314.195312 550.558594 315.671875 549.082031 315.671875 547.152344 C 315.671875 545.226562 314.082031 543.75 312.269531 543.75 Z M 55.828125 543.75 L 53.558594 543.75 C 51.628906 543.75 50.152344 545.226562 50.152344 547.152344 C 50.152344 549.082031 51.628906 550.558594 53.558594 550.558594 L 55.828125 550.558594 C 57.757812 550.558594 59.230469 549.082031 59.230469 547.152344 C 59.230469 545.226562 57.757812 543.75 55.828125 543.75 Z M 286.625 543.75 L 284.355469 543.75 C 282.425781 543.75 280.949219 545.226562 280.949219 547.152344 C 280.949219 549.082031 282.425781 550.558594 284.355469 550.558594 L 286.625 550.558594 C 288.550781 550.558594 290.027344 549.082031 290.027344 547.152344 C 290.027344 545.226562 288.4375 543.75 286.625 543.75 Z M 337.796875 543.75 L 335.414062 543.75 C 333.488281 543.75 332.011719 545.226562 332.011719 547.152344 C 332.011719 549.082031 333.488281 550.558594 335.414062 550.558594 L 337.796875 550.558594 C 339.726562 550.558594 341.203125 549.082031 341.203125 547.152344 C 341.203125 545.226562 339.726562 543.75 337.796875 543.75 Z M 389.085938 543.75 L 386.816406 543.75 C 384.886719 543.75 383.414062 545.226562 383.414062 547.152344 C 383.414062 549.082031 384.886719 550.558594 386.816406 550.558594 L 389.085938 550.558594 C 391.015625 550.558594 392.492188 549.082031 392.492188 547.152344 C 392.492188 545.226562 391.015625 543.75 389.085938 543.75 Z M 30.296875 543.75 L 27.914062 543.75 C 25.984375 543.75 24.507812 545.226562 24.507812 547.152344 C 24.507812 549.082031 25.984375 550.558594 27.914062 550.558594 L 30.296875 550.558594 C 32.226562 550.558594 33.699219 549.082031 33.699219 547.152344 C 33.699219 545.226562 32.113281 543.75 30.296875 543.75 Z M 260.980469 543.75 L 258.710938 543.75 C 256.78125 543.75 255.304688 545.226562 255.304688 547.152344 C 255.304688 549.082031 256.78125 550.558594 258.710938 550.558594 L 260.980469 550.558594 C 262.910156 550.558594 264.382812 549.082031 264.382812 547.152344 C 264.382812 545.226562 262.796875 543.75 260.980469 543.75 Z M 363.441406 543.75 L 361.171875 543.75 C 359.242188 543.75 357.769531 545.226562 357.769531 547.152344 C 357.769531 549.082031 359.242188 550.558594 361.171875 550.558594 L 363.441406 550.558594 C 365.371094 550.558594 366.847656 549.082031 366.847656 547.152344 C 366.847656 545.226562 365.371094 543.75 363.441406 543.75 Z M 184.046875 543.75 L 181.664062 543.75 C 179.734375 543.75 178.261719 545.226562 178.261719 547.152344 C 178.261719 549.082031 179.734375 550.558594 181.664062 550.558594 L 184.046875 550.558594 C 185.976562 550.558594 187.453125 549.082031 187.453125 547.152344 C 187.453125 545.226562 185.976562 543.75 184.046875 543.75 Z M 107.113281 543.75 L 104.730469 543.75 C 102.804688 543.75 101.328125 545.226562 101.328125 547.152344 C 101.328125 549.082031 102.804688 550.558594 104.730469 550.558594 L 107.113281 550.558594 C 109.042969 550.558594 110.519531 549.082031 110.519531 547.152344 C 110.519531 545.226562 109.042969 543.75 107.113281 543.75 Z M 209.691406 543.75 L 207.308594 543.75 C 205.378906 543.75 203.90625 545.226562 203.90625 547.152344 C 203.90625 549.082031 205.378906 550.558594 207.308594 550.558594 L 209.691406 550.558594 C 211.621094 550.558594 213.09375 549.082031 213.09375 547.152344 C 213.09375 545.226562 211.507812 543.75 209.691406 543.75 Z M 158.402344 543.75 L 156.132812 543.75 C 154.203125 543.75 152.730469 545.226562 152.730469 547.152344 C 152.730469 549.082031 154.203125 550.558594 156.132812 550.558594 L 158.402344 550.558594 C 160.332031 550.558594 161.808594 549.082031 161.808594 547.152344 C 161.808594 545.226562 160.332031 543.75 158.402344 543.75 Z M 132.757812 543.75 L 130.488281 543.75 C 128.5625 543.75 127.085938 545.226562 127.085938 547.152344 C 127.085938 549.082031 128.5625 550.558594 130.488281 550.558594 L 132.871094 550.558594 C 134.800781 550.558594 136.277344 549.082031 136.277344 547.152344 C 136.277344 545.226562 134.6875 543.75 132.757812 543.75 Z M 235.335938 543.75 L 233.066406 543.75 C 231.136719 543.75 229.660156 545.226562 229.660156 547.152344 C 229.660156 549.082031 231.136719 550.558594 233.066406 550.558594 L 235.335938 550.558594 C 237.265625 550.558594 238.738281 549.082031 238.738281 547.152344 C 238.738281 545.226562 237.152344 543.75 235.335938 543.75 Z M 81.472656 543.75 L 79.203125 543.75 C 77.273438 543.75 75.796875 545.226562 75.796875 547.152344 C 75.796875 549.082031 77.273438 550.558594 79.203125 550.558594 L 81.472656 550.558594 C 83.398438 550.558594 84.875 549.082031 84.875 547.152344 C 84.875 545.226562 83.398438 543.75 81.472656 543.75 Z M 6.355469 544.203125 C 5.671875 543.183594 4.652344 542.617188 3.402344 542.617188 C 1.476562 542.617188 0 544.089844 0 546.019531 L 0 547.152344 C 0 549.082031 1.476562 550.558594 3.402344 550.558594 L 4.539062 550.558594 C 6.46875 550.558594 7.941406 549.082031 7.941406 547.152344 C 7.941406 545.90625 7.261719 544.769531 6.355469 544.203125 Z M 3.402344 526.050781 C 5.332031 526.050781 6.808594 524.574219 6.808594 522.644531 L 6.808594 520.375 C 6.808594 518.445312 5.332031 516.972656 3.402344 516.972656 C 1.476562 516.972656 0 518.445312 0 520.375 L 0 522.644531 C 0 524.574219 1.476562 526.050781 3.402344 526.050781 Z M 3.402344 244.078125 C 5.332031 244.078125 6.808594 242.601562 6.808594 240.671875 L 6.808594 238.289062 C 6.808594 236.363281 5.332031 234.886719 3.402344 234.886719 C 1.476562 234.886719 0 236.363281 0 238.289062 L 0 240.671875 C 0 242.601562 1.476562 244.078125 3.402344 244.078125 Z M 3.402344 321.011719 C 5.332031 321.011719 6.808594 319.535156 6.808594 317.605469 L 6.808594 315.222656 C 6.808594 313.292969 5.332031 311.820312 3.402344 311.820312 C 1.476562 311.820312 0 313.292969 0 315.222656 L 0 317.605469 C 0 319.535156 1.476562 321.011719 3.402344 321.011719 Z M 3.402344 346.652344 C 5.332031 346.652344 6.808594 345.179688 6.808594 343.25 L 6.808594 340.867188 C 6.808594 338.9375 5.332031 337.460938 3.402344 337.460938 C 1.476562 337.460938 0 338.9375 0 340.867188 L 0 343.25 C 0 345.066406 1.476562 346.652344 3.402344 346.652344 Z M 3.402344 295.367188 C 5.332031 295.367188 6.808594 293.890625 6.808594 291.960938 L 6.808594 289.691406 C 6.808594 287.761719 5.332031 286.289062 3.402344 286.289062 C 1.476562 286.289062 0 287.761719 0 289.691406 L 0 291.960938 C 0 293.890625 1.476562 295.367188 3.402344 295.367188 Z M 3.402344 269.722656 C 5.332031 269.722656 6.808594 268.246094 6.808594 266.316406 L 6.808594 264.046875 C 6.808594 262.121094 5.332031 260.644531 3.402344 260.644531 C 1.476562 260.644531 0 262.121094 0 264.046875 L 0 266.429688 C 0 268.246094 1.476562 269.722656 3.402344 269.722656 Z M 3.402344 167.257812 C 5.332031 167.257812 6.808594 165.785156 6.808594 163.855469 L 6.808594 161.472656 C 6.808594 159.542969 5.332031 158.066406 3.402344 158.066406 C 1.476562 158.066406 0 159.542969 0 161.472656 L 0 163.855469 C 0 165.671875 1.476562 167.257812 3.402344 167.257812 Z M 3.402344 192.789062 C 5.332031 192.789062 6.808594 191.3125 6.808594 189.386719 L 6.808594 187.117188 C 6.808594 185.1875 5.332031 183.710938 3.402344 183.710938 C 1.476562 183.710938 0 185.1875 0 187.117188 L 0 189.386719 C 0 191.3125 1.476562 192.789062 3.402344 192.789062 Z M 3.402344 372.296875 C 5.332031 372.296875 6.808594 370.824219 6.808594 368.894531 L 6.808594 366.625 C 6.808594 364.695312 5.332031 363.21875 3.402344 363.21875 C 1.476562 363.21875 0 364.695312 0 366.625 L 0 368.894531 C 0 370.710938 1.476562 372.296875 3.402344 372.296875 Z M 3.402344 218.433594 C 5.332031 218.433594 6.808594 216.957031 6.808594 215.03125 L 6.808594 212.761719 C 6.808594 210.832031 5.332031 209.355469 3.402344 209.355469 C 1.476562 209.355469 0 210.832031 0 212.761719 L 0 215.03125 C 0 216.957031 1.476562 218.433594 3.402344 218.433594 Z M 3.402344 449.230469 C 5.332031 449.230469 6.808594 447.753906 6.808594 445.824219 L 6.808594 443.441406 C 6.808594 441.515625 5.332031 440.039062 3.402344 440.039062 C 1.476562 440.039062 0 441.515625 0 443.441406 L 0 445.824219 C 0 447.640625 1.476562 449.230469 3.402344 449.230469 Z M 3.402344 474.761719 C 5.332031 474.761719 6.808594 473.285156 6.808594 471.355469 L 6.808594 468.972656 C 6.808594 467.042969 5.332031 465.570312 3.402344 465.570312 C 1.476562 465.570312 0 467.042969 0 468.972656 L 0 471.355469 C 0 473.285156 1.476562 474.761719 3.402344 474.761719 Z M 3.402344 500.40625 C 5.332031 500.40625 6.808594 498.929688 6.808594 497 L 6.808594 494.730469 C 6.808594 492.800781 5.332031 491.328125 3.402344 491.328125 C 1.476562 491.328125 0 492.800781 0 494.730469 L 0 497 C 0 498.929688 1.476562 500.40625 3.402344 500.40625 Z M 3.402344 423.585938 C 5.332031 423.585938 6.808594 422.109375 6.808594 420.183594 L 6.808594 417.914062 C 6.808594 415.984375 5.332031 414.507812 3.402344 414.507812 C 1.476562 414.507812 0 415.984375 0 417.914062 L 0 420.183594 C 0 421.996094 1.476562 423.585938 3.402344 423.585938 Z M 3.402344 397.941406 C 5.332031 397.941406 6.808594 396.46875 6.808594 394.539062 L 6.808594 392.269531 C 6.808594 390.339844 5.332031 388.863281 3.402344 388.863281 C 1.476562 388.863281 0 390.339844 0 392.269531 L 0 394.539062 C 0 396.351562 1.476562 397.941406 3.402344 397.941406 Z M 4.539062 133.558594 L 3.402344 133.558594 C 1.476562 133.558594 0 135.035156 0 136.960938 L 0 138.097656 C 0 140.027344 1.476562 141.5 3.402344 141.5 C 4.652344 141.5 5.671875 140.820312 6.355469 139.914062 C 7.261719 139.230469 7.941406 138.210938 7.941406 136.960938 C 7.941406 135.035156 6.46875 133.558594 4.539062 133.558594 Z M 27.800781 140.367188 L 30.070312 140.367188 C 32 140.367188 33.472656 138.890625 33.472656 136.960938 C 33.472656 135.035156 32 133.558594 30.070312 133.558594 L 27.800781 133.558594 C 25.871094 133.558594 24.394531 135.035156 24.394531 136.960938 C 24.394531 138.890625 25.984375 140.367188 27.800781 140.367188 Z M 130.375 140.367188 L 132.757812 140.367188 C 134.6875 140.367188 136.164062 138.890625 136.164062 136.960938 C 136.164062 135.035156 134.6875 133.558594 132.757812 133.558594 L 130.375 133.558594 C 128.449219 133.558594 126.972656 135.035156 126.972656 136.960938 C 126.972656 138.890625 128.449219 140.367188 130.375 140.367188 Z M 79.089844 140.367188 L 81.359375 140.367188 C 83.285156 140.367188 84.761719 138.890625 84.761719 136.960938 C 84.761719 135.035156 83.285156 133.558594 81.359375 133.558594 L 79.089844 133.558594 C 77.160156 133.558594 75.683594 135.035156 75.683594 136.960938 C 75.683594 138.890625 77.273438 140.367188 79.089844 140.367188 Z M 104.730469 140.367188 L 107 140.367188 C 108.929688 140.367188 110.40625 138.890625 110.40625 136.960938 C 110.40625 135.035156 108.929688 133.558594 107 133.558594 L 104.730469 133.558594 C 102.804688 133.558594 101.328125 135.035156 101.328125 136.960938 C 101.328125 138.890625 102.917969 140.367188 104.730469 140.367188 Z M 53.445312 140.367188 L 55.828125 140.367188 C 57.757812 140.367188 59.230469 138.890625 59.230469 136.960938 C 59.230469 135.035156 57.757812 133.558594 55.828125 133.558594 L 53.445312 133.558594 C 51.515625 133.558594 50.039062 135.035156 50.039062 136.960938 C 50.039062 138.890625 51.628906 140.367188 53.445312 140.367188 Z M 309.769531 140.367188 L 312.039062 140.367188 C 313.96875 140.367188 315.445312 138.890625 315.445312 136.960938 C 315.445312 135.035156 313.96875 133.558594 312.039062 133.558594 L 309.769531 133.558594 C 307.84375 133.558594 306.367188 135.035156 306.367188 136.960938 C 306.367188 138.890625 307.957031 140.367188 309.769531 140.367188 Z M 335.414062 140.367188 L 337.683594 140.367188 C 339.613281 140.367188 341.089844 138.890625 341.089844 136.960938 C 341.089844 135.035156 339.613281 133.558594 337.683594 133.558594 L 335.414062 133.558594 C 333.488281 133.558594 332.011719 135.035156 332.011719 136.960938 C 332.011719 138.890625 333.601562 140.367188 335.414062 140.367188 Z M 284.128906 140.367188 L 286.398438 140.367188 C 288.324219 140.367188 289.800781 138.890625 289.800781 136.960938 C 289.800781 135.035156 288.324219 133.558594 286.398438 133.558594 L 284.128906 133.558594 C 282.199219 133.558594 280.722656 135.035156 280.722656 136.960938 C 280.722656 138.890625 282.3125 140.367188 284.128906 140.367188 Z M 386.703125 140.367188 L 388.972656 140.367188 C 390.902344 140.367188 392.378906 138.890625 392.378906 136.960938 C 392.378906 135.035156 390.902344 133.558594 388.972656 133.558594 L 386.703125 133.558594 C 384.773438 133.558594 383.300781 135.035156 383.300781 136.960938 C 383.300781 138.890625 384.773438 140.367188 386.703125 140.367188 Z M 361.058594 140.367188 L 363.328125 140.367188 C 365.257812 140.367188 366.734375 138.890625 366.734375 136.960938 C 366.734375 135.035156 365.257812 133.558594 363.328125 133.558594 L 361.058594 133.558594 C 359.128906 133.558594 357.65625 135.035156 357.65625 136.960938 C 357.65625 138.890625 359.242188 140.367188 361.058594 140.367188 Z M 207.308594 140.367188 L 209.691406 140.367188 C 211.621094 140.367188 213.09375 138.890625 213.09375 136.960938 C 213.09375 135.035156 211.621094 133.558594 209.691406 133.558594 L 207.308594 133.558594 C 205.378906 133.558594 203.90625 135.035156 203.90625 136.960938 C 203.90625 138.890625 205.378906 140.367188 207.308594 140.367188 Z M 258.484375 140.367188 L 260.867188 140.367188 C 262.796875 140.367188 264.269531 138.890625 264.269531 136.960938 C 264.269531 135.035156 262.796875 133.558594 260.867188 133.558594 L 258.484375 133.558594 C 256.554688 133.558594 255.078125 135.035156 255.078125 136.960938 C 255.078125 138.890625 256.667969 140.367188 258.484375 140.367188 Z M 156.019531 140.367188 L 158.289062 140.367188 C 160.21875 140.367188 161.695312 138.890625 161.695312 136.960938 C 161.695312 135.035156 160.21875 133.558594 158.289062 133.558594 L 156.019531 133.558594 C 154.089844 133.558594 152.617188 135.035156 152.617188 136.960938 C 152.617188 138.890625 154.089844 140.367188 156.019531 140.367188 Z M 181.664062 140.367188 L 183.933594 140.367188 C 185.863281 140.367188 187.339844 138.890625 187.339844 136.960938 C 187.339844 135.035156 185.863281 133.558594 183.933594 133.558594 L 181.664062 133.558594 C 179.734375 133.558594 178.261719 135.035156 178.261719 136.960938 C 178.261719 138.890625 179.734375 140.367188 181.664062 140.367188 Z M 232.953125 140.367188 L 235.222656 140.367188 C 237.152344 140.367188 238.625 138.890625 238.625 136.960938 C 238.625 135.035156 237.152344 133.558594 235.222656 133.558594 L 232.953125 133.558594 C 231.023438 133.558594 229.546875 135.035156 229.546875 136.960938 C 229.546875 138.890625 231.023438 140.367188 232.953125 140.367188 Z M 413.597656 133.558594 L 412.460938 133.558594 C 410.53125 133.558594 409.058594 135.035156 409.058594 136.960938 C 409.058594 138.210938 409.738281 139.230469 410.644531 139.914062 C 411.214844 140.933594 412.347656 141.5 413.597656 141.5 C 415.523438 141.5 417 140.027344 417 138.097656 L 417 136.960938 C 417 135.035156 415.410156 133.558594 413.597656 133.558594 Z M 413.597656 286.175781 C 411.667969 286.175781 410.191406 287.648438 410.191406 289.578125 L 410.191406 291.847656 C 410.191406 293.777344 411.667969 295.253906 413.597656 295.253906 C 415.523438 295.253906 417 293.777344 417 291.847656 L 417 289.578125 C 417 287.648438 415.410156 286.175781 413.597656 286.175781 Z M 413.597656 260.53125 C 411.667969 260.53125 410.191406 262.003906 410.191406 263.933594 L 410.191406 266.316406 C 410.191406 268.246094 411.667969 269.722656 413.597656 269.722656 C 415.523438 269.722656 417 268.246094 417 266.316406 L 417 263.933594 C 417 262.003906 415.410156 260.53125 413.597656 260.53125 Z M 413.597656 311.820312 C 411.667969 311.820312 410.191406 313.292969 410.191406 315.222656 L 410.191406 317.492188 C 410.191406 319.421875 411.667969 320.894531 413.597656 320.894531 C 415.523438 320.894531 417 319.421875 417 317.492188 L 417 315.222656 C 417 313.292969 415.410156 311.820312 413.597656 311.820312 Z M 413.597656 337.460938 C 411.667969 337.460938 410.191406 338.9375 410.191406 340.867188 L 410.191406 343.25 C 410.191406 345.179688 411.667969 346.652344 413.597656 346.652344 C 415.523438 346.652344 417 345.179688 417 343.25 L 417 340.867188 C 417 338.9375 415.410156 337.460938 413.597656 337.460938 Z M 413.597656 234.886719 C 411.667969 234.886719 410.191406 236.363281 410.191406 238.289062 L 410.191406 240.558594 C 410.191406 242.488281 411.667969 243.964844 413.597656 243.964844 C 415.523438 243.964844 417 242.488281 417 240.558594 L 417 238.289062 C 417 236.476562 415.410156 234.886719 413.597656 234.886719 Z M 413.597656 157.953125 C 411.667969 157.953125 410.191406 159.429688 410.191406 161.359375 L 410.191406 163.628906 C 410.191406 165.558594 411.667969 167.03125 413.597656 167.03125 C 415.523438 167.03125 417 165.558594 417 163.628906 L 417 161.359375 C 417 159.542969 415.410156 157.953125 413.597656 157.953125 Z M 413.597656 183.597656 C 411.667969 183.597656 410.191406 185.074219 410.191406 187.003906 L 410.191406 189.386719 C 410.191406 191.3125 411.667969 192.789062 413.597656 192.789062 C 415.523438 192.789062 417 191.3125 417 189.386719 L 417 187.003906 C 417 185.1875 415.410156 183.597656 413.597656 183.597656 Z M 413.597656 516.859375 C 411.667969 516.859375 410.191406 518.332031 410.191406 520.261719 L 410.191406 522.53125 C 410.191406 524.460938 411.667969 525.933594 413.597656 525.933594 C 415.523438 525.933594 417 524.460938 417 522.53125 L 417 520.261719 C 417 518.332031 415.410156 516.859375 413.597656 516.859375 Z M 413.597656 209.242188 C 411.667969 209.242188 410.191406 210.71875 410.191406 212.648438 L 410.191406 214.914062 C 410.191406 216.84375 411.667969 218.320312 413.597656 218.320312 C 415.523438 218.320312 417 216.84375 417 214.914062 L 417 212.648438 C 417 210.832031 415.410156 209.242188 413.597656 209.242188 Z M 413.597656 363.105469 C 411.667969 363.105469 410.191406 364.582031 410.191406 366.511719 L 410.191406 368.78125 C 410.191406 370.710938 411.667969 372.183594 413.597656 372.183594 C 415.523438 372.183594 417 370.710938 417 368.78125 L 417 366.511719 C 417 364.582031 415.410156 363.105469 413.597656 363.105469 Z M 413.597656 491.214844 C 411.667969 491.214844 410.191406 492.6875 410.191406 494.617188 L 410.191406 496.886719 C 410.191406 498.816406 411.667969 500.292969 413.597656 500.292969 C 415.523438 500.292969 417 498.816406 417 496.886719 L 417 494.617188 C 417 492.800781 415.410156 491.214844 413.597656 491.214844 Z M 413.597656 439.925781 C 411.667969 439.925781 410.191406 441.402344 410.191406 443.328125 L 410.191406 445.597656 C 410.191406 447.527344 411.667969 449.003906 413.597656 449.003906 C 415.523438 449.003906 417 447.527344 417 445.597656 L 417 443.328125 C 417 441.515625 415.410156 439.925781 413.597656 439.925781 Z M 413.597656 465.570312 C 411.667969 465.570312 410.191406 467.042969 410.191406 468.972656 L 410.191406 471.242188 C 410.191406 473.171875 411.667969 474.648438 413.597656 474.648438 C 415.523438 474.648438 417 473.171875 417 471.242188 L 417 468.972656 C 417 467.160156 415.410156 465.570312 413.597656 465.570312 Z M 413.597656 388.636719 C 411.667969 388.636719 410.191406 390.113281 410.191406 392.042969 L 410.191406 394.425781 C 410.191406 396.351562 411.667969 397.828125 413.597656 397.828125 C 415.523438 397.828125 417 396.351562 417 394.425781 L 417 392.042969 C 417 390.226562 415.410156 388.636719 413.597656 388.636719 Z M 413.597656 414.28125 C 411.667969 414.28125 410.191406 415.757812 410.191406 417.6875 L 410.191406 419.957031 C 410.191406 421.882812 411.667969 423.359375 413.597656 423.359375 C 415.523438 423.359375 417 421.882812 417 419.957031 L 417 417.6875 C 417 415.871094 415.410156 414.28125 413.597656 414.28125 Z M 413.597656 414.28125 " fill-opacity="1" fill-rule="nonzero"/></g><g clip-path="url(#id3)"><g clip-path="url(#id4)"><g clip-path="url(#id5)"><path fill="rgb(21.179199%, 27.059937%, 30.979919%)" d="M 992.941406 269.0625 C 992.144531 268.085938 990.632812 267.734375 989.585938 268.578125 C 987.398438 270.339844 985.203125 272.089844 983.011719 273.851562 C 982.785156 274.03125 982.558594 274.210938 982.332031 274.394531 C 983.390625 271.597656 984.4375 268.800781 985.496094 266.003906 C 986.585938 263.128906 982.203125 261.199219 981.105469 264.085938 C 980.316406 266.171875 979.535156 268.261719 978.746094 270.347656 C 978.484375 268.035156 977.773438 265.691406 975.769531 264.300781 C 974.742188 263.585938 973.191406 263.601562 972.402344 264.695312 C 971.679688 265.691406 971.695312 267.292969 972.792969 268.058594 C 972.9375 268.15625 973.070312 268.261719 973.199219 268.375 C 973.207031 268.398438 973.359375 268.574219 973.421875 268.660156 C 973.449219 268.695312 973.464844 268.714844 973.480469 268.734375 C 973.488281 268.757812 973.5 268.792969 973.519531 268.84375 C 973.613281 269.078125 973.683594 269.328125 973.78125 269.5625 C 973.785156 269.578125 973.785156 269.574219 973.789062 269.585938 C 973.804688 269.660156 973.820312 269.734375 973.835938 269.8125 C 973.878906 270.039062 973.914062 270.265625 973.945312 270.492188 C 974.007812 270.996094 974.046875 271.5 974.082031 272.003906 C 974.191406 273.734375 974.355469 275.472656 975.15625 277.046875 C 975.347656 277.421875 975.570312 277.785156 975.8125 278.128906 C 969.507812 294.859375 963.234375 311.597656 956.894531 328.3125 C 953.976562 319.550781 951.097656 310.78125 948.085938 302.050781 C 945.925781 295.792969 943.234375 289.773438 940.933594 283.574219 C 938.621094 277.351562 937.171875 270.839844 934.972656 264.570312 C 932.570312 257.714844 930.207031 250.855469 927.554688 244.089844 C 924.808594 237.078125 922.109375 229.984375 919.660156 222.863281 C 919.390625 222.085938 918.878906 221.648438 918.289062 221.46875 C 914.199219 217.933594 909.523438 216.128906 904.394531 214.574219 C 901.589844 213.71875 898.828125 212.730469 896.003906 211.9375 C 893.003906 211.09375 889.976562 210.703125 886.882812 210.371094 C 873.726562 208.953125 860.5625 207.621094 847.398438 206.289062 C 840.921875 205.632812 834.386719 205.074219 827.945312 204.148438 C 821.511719 203.21875 815.226562 201.742188 808.746094 201.066406 C 802.191406 200.378906 795.714844 199.601562 789.222656 198.464844 C 786.121094 197.921875 783.003906 197.375 779.851562 197.25 C 776.792969 197.128906 773.730469 197.28125 770.671875 197.175781 C 764.644531 196.960938 758.773438 195.367188 752.710938 195.417969 C 746.417969 195.472656 740.683594 197.808594 735.535156 201.316406 C 730.1875 204.960938 725.679688 209.652344 720.5625 213.589844 C 715.382812 217.578125 710.707031 221.71875 706.292969 226.546875 C 704.125 228.917969 701.808594 231.128906 699.609375 233.464844 C 697.574219 235.632812 695.714844 237.960938 693.746094 240.1875 C 691.695312 242.503906 689.519531 244.515625 686.996094 246.308594 C 684.5625 248.035156 682.007812 249.617188 679.765625 251.59375 C 677.277344 253.789062 674.972656 256.222656 672.589844 258.527344 C 670.265625 260.773438 667.835938 262.960938 665.683594 265.371094 C 663.699219 267.589844 661.992188 270.035156 660.132812 272.355469 C 658.195312 274.777344 655.960938 276.898438 653.835938 279.148438 C 651.613281 281.496094 649.457031 283.90625 647.171875 286.191406 C 644.933594 288.4375 642.425781 290.347656 639.902344 292.261719 C 634.824219 296.113281 630.535156 300.671875 626.035156 305.160156 C 621.53125 309.648438 616.605469 313.761719 612.175781 318.3125 C 610.769531 319.757812 610.773438 322.53125 610.847656 324.472656 C 610.898438 325.800781 611.222656 327.09375 611.820312 328.277344 C 612.511719 329.648438 613.425781 330.894531 614.167969 332.234375 C 615.371094 334.40625 616.230469 336.738281 617.140625 339.039062 C 619.335938 344.582031 621.289062 350.328125 623.925781 355.675781 C 625.324219 358.515625 626.90625 361.265625 628.257812 364.128906 C 629.644531 367.0625 630.703125 370.125 631.722656 373.203125 C 633.796875 379.476562 636.125 385.589844 638.648438 391.703125 C 641.167969 397.816406 643.277344 404 645.425781 410.25 C 647.570312 416.488281 650.585938 422.328125 653.0625 428.429688 C 653.386719 429.21875 653.6875 430.015625 653.980469 430.816406 C 649.816406 429.445312 645.632812 428.117188 641.40625 426.921875 C 639.769531 426.460938 638.132812 425.984375 636.5 425.507812 C 636.476562 425.023438 636.324219 424.558594 636.027344 424.226562 C 632.289062 420.035156 627.949219 416.59375 623.09375 413.785156 C 621.972656 413.140625 620.414062 413.929688 619.9375 415.019531 C 619.371094 416.316406 620.046875 417.523438 621.167969 418.171875 C 623.578125 419.566406 625.855469 421.210938 627.980469 423.027344 C 624.863281 422.128906 621.742188 421.246094 618.601562 420.433594 C 615.609375 419.660156 614.894531 424.398438 617.851562 425.164062 C 620.71875 425.90625 623.566406 426.710938 626.410156 427.535156 C 623.113281 429.53125 619.820312 431.527344 616.527344 433.523438 C 615.421875 434.191406 615.324219 435.910156 616.042969 436.875 C 616.878906 437.992188 618.285156 438.03125 619.398438 437.359375 C 623.800781 434.6875 628.210938 432.019531 632.617188 429.347656 C 634.191406 429.808594 635.769531 430.269531 637.347656 430.71875 C 643.5625 432.480469 649.765625 434.253906 655.859375 436.394531 C 657.007812 439.957031 658.128906 443.53125 659.625 446.964844 C 662.171875 452.800781 665.3125 458.25 667.527344 464.242188 C 669.710938 470.136719 671.957031 476.019531 674.058594 481.945312 C 675.996094 487.402344 677.886719 492.851562 680.296875 498.125 C 681.226562 500.148438 682.214844 502.140625 683.207031 504.132812 C 683.785156 505.292969 684.242188 506.660156 684.972656 507.734375 C 687.03125 510.761719 691.730469 511.667969 695.003906 512.53125 C 700.652344 514.023438 706.398438 515.378906 712.125 516.527344 C 718.027344 517.710938 723.949219 519.03125 729.875 520.0625 C 736.027344 521.136719 742.25 520.761719 748.445312 521.339844 C 754.441406 521.902344 760.152344 524.03125 766.160156 524.523438 C 772.609375 525.054688 779.082031 524.746094 785.515625 525.558594 C 791.703125 526.339844 797.832031 527.140625 804.046875 527.675781 C 810.382812 528.222656 816.699219 528.734375 823.058594 528.921875 C 825.914062 529.003906 828.785156 529.199219 831.65625 529.320312 C 832.894531 535.753906 834.144531 542.183594 835.375 548.617188 C 836.035156 552.058594 836.691406 555.5 837.351562 558.945312 C 837.933594 561.992188 839.082031 565.375 838.964844 568.496094 C 838.851562 571.527344 835.609375 570.949219 833.355469 570.839844 C 830.332031 570.691406 827.316406 570.4375 824.300781 570.179688 C 817.632812 569.613281 810.976562 568.910156 804.308594 568.367188 C 800.816406 568.082031 797.320312 567.804688 793.820312 567.679688 C 791.5625 567.597656 789.253906 567.453125 787.050781 568.035156 C 786.265625 568.242188 785.667969 569.132812 785.554688 569.890625 C 784.902344 574.316406 784.664062 579.039062 785.40625 583.457031 C 785.914062 586.488281 790.683594 586 790.171875 582.960938 C 789.59375 579.503906 789.671875 575.914062 790.074219 572.417969 C 790.277344 572.40625 790.476562 572.390625 790.679688 572.386719 C 792.078125 572.355469 793.480469 572.417969 794.882812 572.488281 C 798.359375 572.667969 801.832031 572.945312 805.300781 573.242188 C 812.445312 573.863281 819.582031 574.609375 826.734375 575.175781 C 829.570312 575.398438 832.417969 575.609375 835.265625 575.660156 C 838.273438 575.710938 841.40625 575.09375 842.910156 572.1875 C 844.261719 569.570312 843.667969 566.542969 843.140625 563.800781 C 842.433594 560.105469 841.726562 556.40625 841.019531 552.707031 C 839.535156 544.9375 838.03125 537.171875 836.535156 529.402344 C 837.1875 529.398438 837.839844 529.410156 838.488281 529.382812 C 841.40625 529.253906 844.242188 528.933594 847.167969 529.03125 C 847.6875 529.242188 848.261719 529.300781 848.816406 529.039062 C 854.21875 526.519531 859.324219 523.511719 864.542969 520.636719 C 869.683594 517.800781 874.902344 515.273438 879.761719 511.945312 C 885.003906 508.351562 890.097656 504.546875 895.359375 500.980469 C 900.433594 497.535156 905.335938 493.964844 910.058594 490.042969 C 916.511719 484.683594 923.0625 479.453125 929.59375 474.195312 C 933.832031 480.382812 938.234375 486.476562 942.554688 492.605469 C 947.257812 499.277344 951.71875 506.113281 956.277344 512.886719 C 958.519531 516.21875 960.636719 519.636719 962.921875 522.941406 C 965.109375 526.109375 967.542969 529.085938 969.921875 532.113281 C 974.898438 538.445312 979.398438 545.222656 983.964844 551.855469 C 986.535156 555.589844 988.992188 559.40625 991.71875 563.027344 C 994.496094 566.714844 997.488281 570.230469 1000.242188 573.933594 C 1000.960938 574.902344 1002.628906 575.285156 1003.59375 574.417969 C 1008.96875 569.59375 1013.019531 563.585938 1015.078125 556.636719 C 1015.945312 553.71875 1011.566406 551.765625 1010.691406 554.71875 C 1009.101562 560.089844 1006.320312 564.925781 1002.453125 568.917969 C 998.097656 563.164062 993.609375 557.558594 989.554688 551.558594 C 985.019531 544.847656 980.445312 538.0625 975.570312 531.589844 C 973.269531 528.53125 970.792969 525.605469 968.511719 522.53125 C 966.140625 519.324219 964.011719 515.945312 961.832031 512.613281 C 957.367188 505.789062 952.863281 498.957031 948.183594 492.28125 C 943.246094 485.238281 938.1875 478.273438 933.328125 471.179688 C 944.671875 462.015625 955.882812 452.703125 966.332031 442.464844 C 970.675781 438.207031 974.683594 433.597656 978.84375 429.160156 C 981.703125 426.105469 985.816406 422.582031 986.863281 418.347656 C 987.121094 417.289062 986.695312 416.519531 986.007812 416.09375 C 984.109375 410.140625 981.648438 404.335938 980.230469 398.242188 C 979.46875 394.980469 978.867188 391.6875 977.972656 388.457031 C 977.101562 385.304688 975.894531 382.25 974.707031 379.207031 C 972.332031 373.128906 970.417969 366.929688 968.421875 360.722656 C 966.308594 354.144531 963.527344 347.835938 961.28125 341.3125 C 960.402344 338.757812 959.542969 336.199219 958.679688 333.640625 C 959.445312 333.601562 960.167969 333.179688 960.53125 332.226562 C 967.0625 315.023438 973.515625 297.796875 980.003906 280.578125 C 982.492188 280.621094 984.355469 278.910156 986.207031 277.421875 C 988.289062 275.753906 990.375 274.085938 992.457031 272.414062 C 993.429688 271.628906 993.78125 270.085938 992.941406 269.0625 Z M 822.050781 524.136719 C 815.382812 523.914062 808.753906 523.265625 802.105469 522.71875 C 795.460938 522.167969 788.898438 520.925781 782.257812 520.410156 C 775.644531 519.894531 768.945312 520.414062 762.398438 519.179688 C 759.34375 518.605469 756.339844 517.777344 753.285156 517.195312 C 750.128906 516.59375 746.9375 516.40625 743.730469 516.304688 C 737.253906 516.101562 731.121094 515.550781 724.785156 514.125 C 718.691406 512.753906 712.519531 511.8125 706.4375 510.363281 C 701.230469 509.121094 695.617188 508.320312 690.699219 506.136719 C 690.117188 505.875 689.578125 505.609375 689.089844 505.199219 C 689.117188 505.199219 688.9375 504.976562 688.867188 504.910156 C 688.820312 504.785156 688.695312 504.503906 688.660156 504.421875 C 687.945312 502.746094 687.039062 501.144531 686.242188 499.503906 C 683.660156 494.203125 681.523438 488.753906 679.574219 483.195312 C 677.433594 477.078125 675.097656 471.03125 672.886719 464.9375 C 671.757812 461.828125 670.660156 458.691406 669.253906 455.691406 C 667.863281 452.730469 666.253906 449.871094 664.859375 446.910156 C 663.558594 444.160156 662.539062 441.304688 661.585938 438.425781 C 672.851562 442.457031 684.140625 446.414062 695.136719 451.15625 C 702.273438 454.234375 709.5625 456.980469 716.632812 460.210938 C 719.441406 461.496094 721.363281 457.105469 718.554688 455.824219 C 712.292969 452.964844 705.839844 450.546875 699.515625 447.828125 C 693.191406 445.105469 686.871094 442.402344 680.382812 440.078125 C 673.5 437.617188 666.636719 435.117188 659.730469 432.742188 C 659.171875 431.058594 658.589844 429.382812 657.945312 427.730469 C 655.460938 421.367188 652.257812 415.328125 650.011719 408.863281 C 647.761719 402.382812 645.585938 395.953125 642.964844 389.605469 C 640.300781 383.144531 637.945312 376.652344 635.707031 370.035156 C 634.628906 366.835938 633.414062 363.714844 631.894531 360.695312 C 630.441406 357.808594 628.816406 355.003906 627.5 352.046875 C 624.972656 346.367188 622.894531 340.457031 620.578125 334.6875 C 619.691406 332.484375 618.632812 330.367188 617.402344 328.335938 C 616.6875 327.15625 616.066406 326.46875 615.738281 325.222656 C 615.492188 324.285156 615.660156 322.734375 615.855469 321.410156 C 619.910156 317.746094 623.832031 313.910156 627.765625 310.117188 C 631.917969 306.113281 635.714844 301.675781 640.226562 298.0625 C 644.679688 294.496094 649.058594 291.175781 653 287.023438 C 656.964844 282.851562 661.207031 278.796875 664.738281 274.246094 C 671.707031 265.269531 679.972656 257.050781 689.296875 250.539062 C 693.777344 247.410156 697.230469 243.472656 700.769531 239.355469 C 704.585938 234.914062 708.808594 230.753906 712.835938 226.5 C 716.835938 222.273438 721.574219 219.035156 726.050781 215.363281 C 730.660156 211.574219 734.847656 207.308594 739.949219 204.140625 C 744.777344 201.144531 750.015625 199.878906 755.679688 200.265625 C 761.246094 200.648438 766.675781 201.898438 772.273438 201.964844 C 774.902344 201.992188 777.539062 201.867188 780.164062 202.03125 C 783.078125 202.21875 785.96875 202.753906 788.839844 203.257812 C 794.824219 204.3125 800.796875 205.058594 806.839844 205.675781 C 812.734375 206.28125 818.460938 207.339844 824.285156 208.398438 C 830.195312 209.46875 836.214844 209.8125 842.175781 210.503906 C 855.519531 212.054688 868.914062 213.34375 882.277344 214.703125 C 885.503906 215.03125 888.785156 215.242188 891.96875 215.867188 C 894.894531 216.441406 897.703125 217.433594 900.535156 218.347656 C 905.25 219.871094 909.6875 221.125 913.648438 223.925781 C 910.316406 227.789062 907.207031 231.835938 903.742188 235.582031 C 899.671875 239.988281 895.394531 244.167969 891.636719 248.859375 C 888.121094 253.25 884.65625 257.632812 880.917969 261.839844 C 876.972656 266.285156 872.984375 270.648438 869.402344 275.398438 C 867.8125 277.503906 866.238281 279.632812 864.496094 281.617188 C 862.480469 283.921875 860.097656 285.800781 857.730469 287.726562 C 853.40625 291.242188 849.761719 295.355469 845.949219 299.394531 C 837.621094 308.214844 828.988281 316.757812 819.992188 324.898438 C 815.992188 328.515625 812.835938 332.894531 808.898438 336.554688 C 804.625 340.527344 799.105469 342.742188 794.542969 346.328125 C 790.796875 349.269531 787.019531 354.308594 781.835938 354.335938 C 779.410156 354.347656 777.042969 353.421875 774.789062 352.640625 C 772.292969 351.769531 769.777344 351.03125 767.191406 350.46875 C 761.359375 349.195312 755.457031 348.101562 749.597656 346.953125 C 744.023438 345.859375 738.335938 345.148438 732.890625 343.484375 C 721.996094 340.15625 710.5625 337.769531 699.203125 336.660156 C 686.050781 335.375 672.945312 333.707031 659.933594 331.410156 C 653.710938 330.3125 647.710938 328.746094 641.613281 327.125 C 635.25 325.4375 628.867188 323.933594 622.546875 322.066406 C 619.628906 321.203125 617.671875 325.578125 620.625 326.453125 C 626.449219 328.175781 632.28125 329.773438 638.191406 331.179688 C 643.714844 332.496094 649.101562 334.289062 654.691406 335.332031 C 666.527344 337.539062 678.421875 339.179688 690.371094 340.597656 C 696.253906 341.292969 702.128906 341.65625 707.964844 342.714844 C 713.617188 343.738281 719.460938 344.5625 725.011719 346.054688 C 730.46875 347.527344 735.695312 349.257812 741.273438 350.273438 C 747.277344 351.363281 753.226562 352.703125 759.222656 353.816406 C 762.101562 354.351562 764.992188 354.835938 767.84375 355.515625 C 770.558594 356.167969 773.132812 357.195312 775.796875 358.011719 C 778.34375 358.789062 780.753906 359.121094 783.09375 358.886719 C 783.117188 359.085938 783.160156 359.292969 783.246094 359.507812 C 787.441406 370.320312 791.894531 381.140625 795.367188 392.214844 C 797.246094 398.207031 798.921875 404.25 800.855469 410.226562 C 802.777344 416.171875 804.738281 422.109375 806.640625 428.0625 C 808.640625 434.3125 810.789062 440.378906 813.378906 446.410156 C 815.84375 452.160156 817.667969 458.15625 819.691406 464.066406 C 821.644531 469.761719 823.402344 475.519531 825.34375 481.214844 C 827.335938 487.0625 829.621094 492.808594 831.820312 498.578125 C 835.082031 507.136719 837.628906 516.683594 842.929688 524.351562 C 841.351562 524.425781 839.777344 524.53125 838.175781 524.609375 C 832.839844 524.871094 827.390625 524.3125 822.050781 524.136719 Z M 934.828125 280.347656 C 936.714844 286.730469 939.675781 292.683594 941.921875 298.933594 C 946.59375 311.933594 950.730469 325.109375 955.160156 338.1875 C 957.359375 344.679688 960.003906 350.988281 962.289062 357.445312 C 964.503906 363.714844 966.199219 370.164062 968.496094 376.40625 C 969.753906 379.824219 971.175781 383.179688 972.375 386.621094 C 973.589844 390.097656 974.335938 393.667969 975.128906 397.257812 C 976.726562 404.507812 979.53125 411.335938 981.726562 418.40625 C 981.253906 419.167969 980.484375 420.128906 979.984375 420.738281 C 978.433594 422.625 976.753906 424.40625 975.085938 426.1875 C 971.421875 430.097656 967.875 434.136719 964.117188 437.957031 C 955.949219 446.261719 946.925781 453.832031 938.035156 461.34375 C 928.917969 469.046875 919.359375 476.203125 910.128906 483.769531 C 905.386719 487.660156 900.703125 491.519531 895.644531 494.996094 C 890.597656 498.464844 885.582031 501.953125 880.597656 505.507812 C 875.277344 509.304688 869.796875 512.457031 864.035156 515.511719 C 858.847656 518.265625 853.824219 521.273438 848.546875 523.847656 C 842.925781 516.929688 840.316406 507.871094 837.332031 499.648438 C 835.304688 494.070312 833.09375 488.558594 831.058594 482.984375 C 829.007812 477.363281 827.363281 471.605469 825.410156 465.949219 C 823.296875 459.828125 821.4375 453.5625 819.039062 447.546875 C 816.714844 441.699219 814.222656 436.035156 812.292969 430.035156 C 808.511719 418.265625 804.457031 406.570312 801.074219 394.679688 C 797.5 382.117188 792.429688 369.925781 787.707031 357.757812 C 787.6875 357.707031 787.65625 357.667969 787.636719 357.617188 C 788.449219 357.242188 789.265625 356.8125 790.074219 356.261719 C 792.152344 354.84375 793.964844 353.078125 795.867188 351.441406 C 798.25 349.390625 800.863281 347.714844 803.554688 346.097656 C 805.8125 344.742188 808.097656 343.410156 810.164062 341.769531 C 812.527344 339.886719 814.566406 337.632812 816.542969 335.359375 C 820.40625 330.921875 824.714844 327.089844 828.992188 323.058594 C 833.355469 318.949219 837.632812 314.765625 841.832031 310.488281 C 846.058594 306.183594 850.226562 301.824219 854.339844 297.410156 C 858.195312 293.277344 862.871094 290.140625 866.832031 286.128906 C 871.390625 281.507812 874.855469 275.867188 879.160156 271.003906 C 883.597656 265.996094 888.144531 261.085938 892.265625 255.816406 C 896.476562 250.4375 900.960938 245.457031 905.664062 240.507812 C 909.460938 236.515625 912.855469 232.199219 916.421875 228.019531 C 920.4375 239.304688 924.964844 250.410156 928.90625 261.726562 C 931.058594 267.902344 932.972656 274.078125 934.828125 280.347656 Z M 861.734375 387.628906 C 860.480469 387.679688 859.417969 389.039062 859.597656 390.261719 C 859.800781 391.613281 860.886719 392.445312 862.230469 392.394531 C 867.882812 392.175781 873.941406 393.101562 879.28125 395.015625 C 880.5 395.453125 881.894531 395.023438 882.4375 393.78125 C 882.929688 392.65625 882.429688 391.066406 881.207031 390.628906 C 874.949219 388.386719 868.378906 387.375 861.734375 387.628906 Z M 912.734375 352.207031 C 911.417969 352.058594 910.234375 352.886719 909.992188 354.203125 C 908.953125 359.890625 907.929688 365.582031 906.890625 371.273438 C 906.664062 372.503906 907.617188 373.867188 908.882812 374.007812 C 910.199219 374.160156 911.382812 373.332031 911.621094 372.015625 C 912.660156 366.324219 913.6875 360.632812 914.726562 354.945312 C 914.953125 353.710938 913.996094 352.351562 912.734375 352.207031 Z M 906.355469 400.777344 C 908.273438 400.085938 909.519531 398.441406 909.953125 396.492188 C 910.417969 394.425781 909.695312 392.171875 908.5 390.480469 C 908.0625 389.863281 907.105469 389.363281 906.332031 389.535156 C 904.144531 390.019531 901.699219 390.734375 900.382812 392.71875 C 899.699219 393.746094 899.371094 394.855469 899.46875 396.09375 C 899.484375 396.335938 899.523438 396.582031 899.582031 396.832031 C 899.582031 396.933594 899.574219 397.039062 899.582031 397.140625 C 899.671875 398.289062 900.269531 399.257812 901.105469 400.015625 C 902.5 401.28125 904.652344 401.394531 906.355469 400.777344 Z M 914.152344 399.152344 C 912.910156 407.53125 902.859375 413.523438 894.90625 410.464844 C 892.03125 409.363281 890.097656 413.746094 892.984375 414.851562 C 903.765625 418.996094 917.179688 411.421875 918.882812 399.898438 C 919.335938 396.84375 914.601562 396.101562 914.152344 399.152344 Z M 914.152344 399.152344 " fill-opacity="1" fill-rule="nonzero"/></g></g></g><g fill="rgb(32.939148%, 32.939148%, 32.939148%)" fill-opacity="1"><g transform="translate(1249.43985, -3.676028)"><g><path d="M 13.09375 2.859375 C 12.664062 2.054688 12.191406 1.054688 11.671875 -0.140625 C 11.148438 -1.335938 10.613281 -2.582031 10.0625 -3.875 C 9.507812 -5.175781 8.929688 -6.445312 8.328125 -7.6875 C 7.722656 -8.9375 7.113281 -10.023438 6.5 -10.953125 C 6.257812 -11.128906 5.921875 -11.238281 5.484375 -11.28125 C 5.054688 -11.320312 4.609375 -11.335938 4.140625 -11.328125 C 3.671875 -11.316406 3.207031 -11.328125 2.75 -11.359375 C 2.289062 -11.390625 1.890625 -11.5 1.546875 -11.6875 C 1.210938 -11.875 0.960938 -12.160156 0.796875 -12.546875 C 0.628906 -12.929688 0.597656 -13.492188 0.703125 -14.234375 L 5.859375 -14.234375 C 5.960938 -15.378906 6.132812 -16.515625 6.375 -17.640625 C 6.625 -18.765625 6.957031 -19.835938 7.375 -20.859375 C 7.789062 -21.878906 8.296875 -22.828125 8.890625 -23.703125 C 9.484375 -24.585938 10.195312 -25.34375 11.03125 -25.96875 C 11.875 -26.601562 12.84375 -27.101562 13.9375 -27.46875 C 15.03125 -27.84375 16.273438 -28.03125 17.671875 -28.03125 C 18.160156 -28.03125 18.648438 -27.910156 19.140625 -27.671875 C 19.628906 -27.441406 20.066406 -27.128906 20.453125 -26.734375 C 20.847656 -26.347656 21.160156 -25.910156 21.390625 -25.421875 C 21.628906 -24.929688 21.75 -24.441406 21.75 -23.953125 C 21.351562 -23.953125 21.003906 -24.023438 20.703125 -24.171875 C 20.398438 -24.328125 20.101562 -24.503906 19.8125 -24.703125 C 19.53125 -24.898438 19.222656 -25.082031 18.890625 -25.25 C 18.566406 -25.425781 18.195312 -25.515625 17.78125 -25.515625 C 16.5625 -25.515625 15.425781 -25.269531 14.375 -24.78125 C 13.320312 -24.289062 12.398438 -23.632812 11.609375 -22.8125 C 10.816406 -22 10.195312 -21.050781 9.75 -19.96875 C 9.300781 -18.882812 9.078125 -17.738281 9.078125 -16.53125 C 9.078125 -16.445312 9.082031 -16.296875 9.09375 -16.078125 C 9.101562 -15.867188 9.109375 -15.640625 9.109375 -15.390625 C 9.109375 -15.148438 9.113281 -14.914062 9.125 -14.6875 C 9.132812 -14.46875 9.140625 -14.316406 9.140625 -14.234375 C 9.898438 -13.984375 10.75 -13.796875 11.6875 -13.671875 C 12.625 -13.554688 13.566406 -13.484375 14.515625 -13.453125 C 15.472656 -13.421875 16.394531 -13.425781 17.28125 -13.46875 C 18.164062 -13.507812 18.957031 -13.5625 19.65625 -13.625 C 19.71875 -13.5625 19.832031 -13.445312 20 -13.28125 C 20.164062 -13.113281 20.253906 -12.988281 20.265625 -12.90625 C 20.265625 -12.84375 20.273438 -12.804688 20.296875 -12.796875 C 20.335938 -12.671875 20.359375 -12.609375 20.359375 -12.609375 C 20.359375 -12.179688 20.132812 -11.84375 19.6875 -11.59375 C 19.238281 -11.34375 18.664062 -11.160156 17.96875 -11.046875 C 17.28125 -10.941406 16.507812 -10.867188 15.65625 -10.828125 C 14.8125 -10.785156 13.992188 -10.75 13.203125 -10.71875 C 12.410156 -10.6875 11.703125 -10.644531 11.078125 -10.59375 C 10.460938 -10.539062 10.03125 -10.445312 9.78125 -10.3125 C 10.050781 -9.082031 10.523438 -7.894531 11.203125 -6.75 C 11.890625 -5.601562 12.59375 -4.457031 13.3125 -3.3125 C 14.03125 -2.164062 14.664062 -1.007812 15.21875 0.15625 C 15.769531 1.320312 16.046875 2.515625 16.046875 3.734375 C 15.960938 3.734375 15.769531 3.738281 15.46875 3.75 C 15.175781 3.757812 14.863281 3.742188 14.53125 3.703125 C 14.207031 3.671875 13.894531 3.585938 13.59375 3.453125 C 13.300781 3.316406 13.132812 3.117188 13.09375 2.859375 Z M 13.09375 2.859375 "/></g></g></g><g clip-path="url(#id6)"><path fill="rgb(21.179199%, 27.059937%, 30.979919%)" d="M 1438.339844 531.972656 C 1437.277344 530.53125 1436.191406 529.105469 1435.113281 527.671875 C 1435.03125 524.632812 1434.988281 521.585938 1435.054688 518.523438 C 1435.234375 510.378906 1435.628906 502.238281 1435.476562 494.09375 C 1435.332031 486.253906 1434.6875 478.433594 1434.40625 470.597656 C 1434.40625 470.53125 1434.40625 470.464844 1434.402344 470.402344 C 1435.4375 469.792969 1436.074219 468.519531 1435.28125 467.1875 C 1434.964844 466.65625 1434.632812 466.136719 1434.3125 465.609375 C 1434.289062 462.324219 1434.359375 459.035156 1434.488281 455.75 C 1435.855469 455.339844 1436.914062 453.867188 1435.933594 452.308594 C 1435.550781 451.699219 1435.140625 451.113281 1434.742188 450.511719 C 1434.785156 449.753906 1434.820312 448.992188 1434.871094 448.234375 C 1435.070312 445.152344 1435.3125 442.070312 1435.546875 438.992188 C 1435.703125 436.875 1436.1875 434.871094 1434.878906 433.070312 C 1432.015625 429.121094 1428.644531 425.5 1425.417969 421.855469 C 1414.050781 409.019531 1402.660156 396.066406 1390.597656 383.878906 C 1390.167969 383.449219 1389.695312 383.238281 1389.226562 383.183594 C 1389.074219 383.125 1388.921875 383.0625 1388.753906 383.019531 C 1383.722656 381.683594 1378.023438 381.726562 1372.871094 381.433594 C 1363.769531 380.925781 1354.691406 380.84375 1345.582031 381.027344 C 1335.996094 381.222656 1326.417969 381.15625 1316.839844 381.613281 C 1306.664062 382.09375 1296.605469 382.109375 1286.425781 381.683594 C 1276.433594 381.269531 1266.429688 381.53125 1256.433594 381.5625 C 1246.847656 381.59375 1237.417969 382.164062 1227.914062 383.449219 C 1224.433594 383.917969 1220.953125 384.402344 1217.460938 384.800781 C 1216.71875 384.546875 1215.824219 384.652344 1215.132812 385.097656 C 1212.933594 385.523438 1212.5 388.40625 1213.875 389.480469 C 1213.273438 398.671875 1213.0625 407.878906 1212.660156 417.082031 C 1212.226562 427.117188 1211.527344 437.144531 1211.332031 447.1875 C 1211.132812 457.234375 1211.441406 467.28125 1211.628906 477.324219 C 1211.816406 487.367188 1211.722656 497.417969 1212.089844 507.460938 C 1212.5 518.78125 1213.746094 530.042969 1214.636719 541.332031 C 1214.726562 542.488281 1215.460938 543.480469 1216.59375 543.695312 C 1225.136719 551.214844 1233.40625 559.035156 1241.867188 566.640625 C 1248.34375 572.460938 1254.773438 578.660156 1261.96875 583.605469 C 1263.527344 584.675781 1265.011719 585.507812 1266.910156 585.683594 C 1269.632812 585.9375 1272.394531 585.914062 1275.125 585.976562 C 1285.890625 586.21875 1296.597656 586.4375 1307.332031 587.34375 C 1313.664062 587.875 1319.980469 588.066406 1326.328125 588.324219 C 1332.480469 588.578125 1338.628906 588.992188 1344.789062 589.191406 C 1356.992188 589.585938 1369.097656 587.65625 1381.296875 588.207031 C 1381.148438 588.445312 1381 588.683594 1380.851562 588.921875 C 1379.4375 591.226562 1382.769531 593.886719 1384.628906 591.84375 C 1385.605469 590.773438 1386.5625 589.683594 1387.523438 588.597656 C 1391.441406 588.898438 1395.359375 589.246094 1399.28125 589.453125 C 1404.855469 589.746094 1410.464844 589.628906 1416.039062 589.425781 C 1416.894531 589.390625 1417.753906 589.339844 1418.609375 589.300781 C 1419.289062 589.558594 1420.105469 589.527344 1420.792969 589.195312 C 1423.027344 589.070312 1425.261719 588.914062 1427.484375 588.6875 C 1428.238281 588.609375 1429.183594 588.585938 1430.101562 588.449219 C 1431.457031 588.941406 1433.441406 588.222656 1433.652344 586.300781 C 1434.390625 579.636719 1435.359375 573.003906 1435.925781 566.324219 C 1436.585938 558.492188 1436.539062 550.773438 1435.9375 542.941406 C 1435.746094 540.457031 1435.582031 537.980469 1435.441406 535.503906 C 1437.292969 536.335938 1439.640625 533.738281 1438.339844 531.972656 Z M 1332.832031 583.816406 C 1333.117188 583.695312 1333.402344 583.507812 1333.675781 583.238281 C 1336.101562 580.839844 1338.492188 578.398438 1340.796875 575.875 C 1340.082031 576.910156 1339.351562 577.941406 1338.667969 579 C 1337.15625 581.335938 1340.523438 583.800781 1342.445312 581.921875 C 1345.015625 579.410156 1347.402344 576.726562 1349.597656 573.90625 C 1348.808594 575.296875 1348.027344 576.6875 1347.269531 578.09375 C 1346.964844 578.664062 1346.953125 579.316406 1347.132812 579.921875 C 1346.410156 581.40625 1345.699219 582.898438 1344.996094 584.386719 C 1340.9375 584.265625 1336.882812 584.027344 1332.832031 583.816406 Z M 1262.320312 550.410156 C 1259.757812 553.5 1256.523438 555.867188 1252.867188 557.386719 C 1255.824219 555.613281 1258.378906 553.320312 1260.484375 550.386719 C 1261.53125 548.925781 1260.351562 547.277344 1258.878906 546.894531 C 1258.09375 545.800781 1256.503906 545.285156 1255.277344 546.527344 C 1254.601562 547.210938 1253.898438 547.863281 1253.207031 548.527344 C 1252.695312 548.789062 1252.207031 549.085938 1251.726562 549.390625 C 1251.160156 548.105469 1249.644531 547.171875 1248.328125 548.167969 C 1248.164062 548.292969 1248.007812 548.429688 1247.847656 548.554688 C 1247.84375 548.550781 1247.84375 548.546875 1247.839844 548.546875 C 1247.808594 548.574219 1247.78125 548.605469 1247.75 548.632812 C 1246.664062 549.480469 1245.613281 550.363281 1244.574219 551.265625 C 1244.894531 550.558594 1245.269531 549.878906 1245.707031 549.242188 C 1246.996094 547.371094 1245.1875 545.652344 1243.402344 545.777344 C 1243.578125 545.035156 1243.34375 544.296875 1242.886719 543.726562 C 1252.207031 543.808594 1261.445312 544.789062 1270.75 545.207031 C 1271.296875 545.234375 1271.84375 545.234375 1272.386719 545.257812 C 1272.359375 545.289062 1272.328125 545.308594 1272.296875 545.34375 C 1271.078125 546.769531 1269.890625 548.21875 1268.726562 549.683594 C 1270.078125 547.066406 1266.234375 545.066406 1264.476562 547.441406 C 1263.75 548.425781 1263.042969 549.421875 1262.320312 550.410156 Z M 1236.050781 547.539062 C 1235.738281 547.019531 1235.261719 546.613281 1234.675781 546.515625 C 1232.226562 546.113281 1229.773438 545.773438 1227.320312 545.398438 C 1227.339844 545.351562 1227.363281 545.316406 1227.390625 545.296875 C 1227.996094 544.875 1228.3125 544.316406 1228.417969 543.730469 C 1232.007812 543.714844 1235.597656 543.714844 1239.191406 543.71875 C 1238.152344 544.976562 1237.125 546.28125 1236.050781 547.539062 Z M 1236.535156 555.070312 C 1237.242188 554.988281 1237.917969 554.820312 1238.574219 554.617188 C 1238.441406 555.359375 1238.339844 556.105469 1238.261719 556.847656 C 1237.613281 556.25 1236.964844 555.65625 1236.316406 555.0625 C 1236.390625 555.058594 1236.457031 555.082031 1236.535156 555.070312 Z M 1243.582031 560.601562 C 1243.554688 560.722656 1243.503906 560.835938 1243.476562 560.957031 C 1243.429688 561.148438 1243.417969 561.34375 1243.421875 561.539062 C 1243.015625 561.171875 1242.609375 560.808594 1242.207031 560.441406 C 1242.628906 560.617188 1243.097656 560.691406 1243.582031 560.601562 Z M 1282.453125 545.460938 C 1282.8125 545.464844 1283.167969 545.46875 1283.527344 545.46875 C 1283.097656 545.996094 1282.664062 546.519531 1282.246094 547.054688 C 1282.511719 546.511719 1282.554688 545.964844 1282.453125 545.460938 Z M 1276.25 546.457031 C 1276.121094 546.042969 1275.886719 545.660156 1275.585938 545.351562 C 1276.144531 545.367188 1276.703125 545.390625 1277.261719 545.402344 C 1276.921875 545.75 1276.582031 546.101562 1276.25 546.457031 Z M 1255.730469 569.171875 C 1255.550781 569.5 1255.367188 569.824219 1255.191406 570.152344 C 1254.90625 570.6875 1254.859375 571.265625 1254.976562 571.800781 C 1254.464844 571.359375 1253.941406 570.925781 1253.429688 570.480469 C 1254.214844 570.070312 1254.96875 569.617188 1255.730469 569.171875 Z M 1258.480469 573.453125 C 1258.828125 573.226562 1259.152344 572.976562 1259.496094 572.742188 C 1259.335938 573.136719 1259.15625 573.523438 1259.003906 573.921875 C 1258.832031 574.367188 1258.808594 574.78125 1258.894531 575.148438 C 1258.371094 574.714844 1257.867188 574.265625 1257.351562 573.832031 C 1257.71875 573.816406 1258.101562 573.703125 1258.480469 573.453125 Z M 1288.738281 546.613281 C 1289.003906 546.242188 1289.113281 545.855469 1289.121094 545.476562 C 1290.53125 545.472656 1291.945312 545.472656 1293.355469 545.46875 C 1288.765625 550.832031 1283.84375 555.90625 1279.289062 561.304688 C 1278.207031 562.589844 1277.132812 563.878906 1276.050781 565.164062 C 1277.777344 562.019531 1279.640625 558.949219 1281.65625 555.980469 C 1284.09375 552.921875 1286.460938 549.800781 1288.738281 546.613281 Z M 1297.957031 547.445312 C 1298.417969 546.789062 1298.421875 546.085938 1298.167969 545.46875 C 1298.707031 545.46875 1299.246094 545.464844 1299.785156 545.46875 C 1299.175781 546.140625 1298.554688 546.800781 1297.941406 547.46875 C 1297.945312 547.460938 1297.953125 547.453125 1297.957031 547.445312 Z M 1386.777344 386.726562 C 1386.78125 386.753906 1386.789062 386.785156 1386.796875 386.820312 C 1386.777344 386.78125 1386.773438 386.746094 1386.769531 386.710938 C 1386.773438 386.714844 1386.773438 386.71875 1386.777344 386.726562 Z M 1428.089844 480.433594 C 1417.789062 465.121094 1406.707031 450.261719 1394.746094 436.203125 C 1394.484375 431.925781 1394.183594 427.65625 1393.910156 423.378906 C 1398.625 429.570312 1404.355469 435.027344 1409.546875 440.78125 C 1416.921875 448.945312 1423.683594 457.644531 1429.503906 466.984375 C 1429.617188 474.480469 1430.246094 481.960938 1430.53125 489.449219 C 1430.636719 492.253906 1430.664062 495.0625 1430.660156 497.867188 C 1430.589844 497.851562 1430.519531 497.847656 1430.449219 497.839844 C 1419.152344 485.316406 1408.546875 472.140625 1398.710938 458.4375 C 1397.898438 457.308594 1396.605469 457.1875 1395.597656 457.617188 C 1395.496094 453.136719 1395.371094 448.660156 1395.175781 444.183594 C 1405.410156 456.570312 1414.96875 469.539062 1423.933594 482.867188 C 1425.65625 485.425781 1429.828125 483.015625 1428.089844 480.433594 Z M 1430.332031 529.277344 C 1430.394531 532.050781 1430.496094 534.824219 1430.707031 537.597656 C 1431.175781 543.835938 1431.589844 549.996094 1431.570312 556.199219 C 1425.339844 550.160156 1419.296875 543.914062 1413.921875 537.09375 C 1408.160156 529.78125 1403.117188 521.910156 1398.460938 513.859375 C 1398.199219 513.40625 1397.859375 513.109375 1397.488281 512.921875 C 1397.457031 509.878906 1397.398438 506.835938 1397.257812 503.800781 C 1397.246094 503.488281 1397.226562 503.179688 1397.210938 502.867188 C 1406.644531 516.347656 1416.019531 529.871094 1425.476562 543.335938 C 1427.246094 545.851562 1431.421875 543.445312 1429.632812 540.902344 C 1419.121094 525.9375 1408.722656 510.894531 1398.21875 495.925781 C 1397.835938 495.378906 1397.332031 495.074219 1396.804688 494.941406 C 1396.632812 491.789062 1396.46875 488.636719 1396.316406 485.480469 C 1402.421875 493.089844 1408.300781 500.882812 1414.273438 508.597656 C 1419.617188 515.496094 1425.054688 522.324219 1430.332031 529.277344 Z M 1409.460938 556.355469 C 1412.539062 560.3125 1415.621094 564.269531 1418.789062 568.15625 C 1420.667969 570.460938 1425.453125 577.574219 1428.535156 572.617188 C 1428.988281 571.886719 1428.953125 570.917969 1428.535156 570.183594 C 1428.46875 570.070312 1428.402344 569.957031 1428.339844 569.84375 C 1427.679688 568.6875 1426.542969 568.476562 1425.574219 568.824219 C 1425.300781 568.4375 1424.949219 568.082031 1424.648438 567.722656 C 1423.988281 566.933594 1423.332031 566.140625 1422.679688 565.34375 C 1421.296875 563.652344 1419.929688 561.949219 1418.570312 560.234375 C 1415.9375 556.910156 1413.339844 553.554688 1410.734375 550.203125 C 1406.164062 544.335938 1401.621094 538.445312 1397.242188 532.433594 C 1397.265625 531.699219 1397.292969 530.964844 1397.3125 530.230469 C 1397.386719 527.359375 1397.4375 524.480469 1397.476562 521.601562 C 1401.34375 527.925781 1405.496094 534.066406 1410.0625 539.917969 C 1414.839844 546.046875 1420.160156 551.707031 1425.679688 557.167969 C 1425.683594 557.191406 1425.679688 557.207031 1425.683594 557.230469 C 1426.1875 559.902344 1428.628906 561.304688 1431.140625 561.558594 C 1431.246094 561.570312 1431.332031 561.539062 1431.433594 561.535156 C 1431.398438 562.277344 1431.363281 563.023438 1431.3125 563.769531 C 1430.933594 569.113281 1430.265625 574.421875 1429.617188 579.738281 C 1427.679688 577.695312 1425.679688 575.714844 1423.671875 573.742188 C 1423.570312 573.625 1423.457031 573.515625 1423.335938 573.417969 C 1422.039062 572.144531 1420.742188 570.871094 1419.464844 569.582031 C 1414.9375 565.011719 1410.492188 560.332031 1406.132812 555.59375 C 1402.476562 551.625 1399.011719 547.492188 1396.25 542.859375 C 1396.664062 542.007812 1396.796875 540.976562 1396.859375 539.972656 C 1400.996094 545.480469 1405.230469 550.914062 1409.460938 556.355469 Z M 1350.476562 563.453125 C 1350.765625 562.996094 1351.046875 562.539062 1351.320312 562.078125 C 1351.804688 561.472656 1352.289062 560.875 1352.769531 560.265625 C 1352.492188 560.769531 1352.222656 561.28125 1351.933594 561.777344 C 1351.445312 562.332031 1350.960938 562.894531 1350.476562 563.453125 Z M 1393.414062 550.8125 C 1393.160156 551.078125 1392.917969 551.351562 1392.667969 551.621094 C 1393.078125 550.421875 1393.464844 549.214844 1393.828125 547.996094 C 1394.292969 548.691406 1394.753906 549.390625 1395.246094 550.070312 C 1394.636719 550 1393.984375 550.199219 1393.414062 550.8125 Z M 1371.84375 545.191406 C 1371.8125 545.152344 1371.792969 545.101562 1371.757812 545.066406 C 1371.832031 545.066406 1371.902344 545.066406 1371.972656 545.066406 C 1371.929688 545.105469 1371.886719 545.148438 1371.84375 545.191406 Z M 1362.683594 550 C 1363.230469 548.488281 1363.753906 546.964844 1364.226562 545.425781 C 1364.257812 545.324219 1364.269531 545.222656 1364.285156 545.121094 C 1365.546875 545.105469 1366.808594 545.09375 1368.066406 545.085938 C 1366.179688 546.628906 1364.398438 548.28125 1362.683594 550 Z M 1351.851562 546.308594 C 1351.746094 546 1351.582031 545.714844 1351.382812 545.457031 C 1351.8125 545.445312 1352.238281 545.433594 1352.667969 545.417969 C 1352.394531 545.714844 1352.125 546.011719 1351.851562 546.308594 Z M 1325.28125 577.269531 C 1328.257812 572.949219 1331.105469 568.539062 1334.140625 564.257812 C 1334.574219 563.648438 1335.011719 563.039062 1335.449219 562.425781 C 1337.128906 560.648438 1338.902344 558.96875 1340.730469 557.347656 C 1339.804688 558.789062 1338.859375 560.210938 1337.890625 561.625 C 1333.492188 566.679688 1329.554688 572.113281 1325.28125 577.269531 Z M 1346.722656 546.292969 C 1346.878906 546.058594 1347.039062 545.828125 1347.191406 545.589844 C 1347.347656 545.585938 1347.5 545.582031 1347.652344 545.574219 C 1347.34375 545.816406 1347.03125 546.054688 1346.722656 546.292969 Z M 1339.757812 546 C 1339.75 545.921875 1339.734375 545.851562 1339.71875 545.773438 C 1339.808594 545.773438 1339.902344 545.769531 1339.996094 545.769531 C 1339.917969 545.847656 1339.835938 545.921875 1339.757812 546 Z M 1332.085938 546.8125 C 1331.980469 546.445312 1331.796875 546.113281 1331.558594 545.835938 C 1332.207031 545.839844 1332.851562 545.832031 1333.496094 545.832031 C 1333.019531 546.148438 1332.554688 546.480469 1332.085938 546.8125 Z M 1305.546875 557.546875 C 1306.320312 556.828125 1307.105469 556.125 1307.898438 555.429688 C 1306.753906 556.652344 1305.613281 557.878906 1304.472656 559.105469 C 1304.835938 558.585938 1305.191406 558.066406 1305.546875 557.546875 Z M 1313.785156 556.246094 C 1313.914062 556.113281 1314.039062 555.984375 1314.167969 555.851562 C 1314.082031 555.992188 1314 556.132812 1313.917969 556.269531 C 1313.765625 556.402344 1313.617188 556.542969 1313.46875 556.675781 C 1313.574219 556.53125 1313.679688 556.390625 1313.785156 556.246094 Z M 1323.542969 548.808594 C 1324.074219 547.792969 1324.609375 546.777344 1325.144531 545.765625 C 1326.152344 545.78125 1327.160156 545.796875 1328.167969 545.808594 C 1326.601562 546.769531 1325.058594 547.765625 1323.542969 548.808594 Z M 1287.179688 580.230469 C 1287.144531 580.644531 1287.242188 581.039062 1287.4375 581.398438 C 1286.964844 581.390625 1286.492188 581.378906 1286.019531 581.371094 C 1286.40625 580.988281 1286.800781 580.617188 1287.179688 580.230469 Z M 1322.191406 581.59375 C 1322.128906 582.269531 1322.375 582.921875 1322.789062 583.421875 C 1322.160156 583.402344 1321.53125 583.375 1320.902344 583.355469 C 1321.34375 582.777344 1321.761719 582.179688 1322.191406 581.59375 Z M 1352.308594 584.144531 C 1352.433594 584.246094 1352.570312 584.335938 1352.710938 584.414062 C 1352.476562 584.417969 1352.246094 584.425781 1352.011719 584.429688 C 1352.109375 584.332031 1352.210938 584.242188 1352.308594 584.144531 Z M 1355.398438 583.957031 C 1355.472656 583.875 1355.539062 583.789062 1355.609375 583.707031 C 1355.714844 583.917969 1355.847656 584.113281 1356.003906 584.289062 C 1355.65625 584.304688 1355.308594 584.332031 1354.960938 584.347656 C 1355.113281 584.242188 1355.261719 584.117188 1355.398438 583.957031 Z M 1361.757812 582.050781 C 1361.546875 582.691406 1361.632812 583.347656 1361.910156 583.90625 C 1361.222656 583.957031 1360.539062 584.007812 1359.851562 584.054688 C 1360.496094 583.398438 1361.125 582.722656 1361.757812 582.050781 Z M 1379.882812 581.769531 C 1379.578125 582.289062 1379.273438 582.804688 1378.96875 583.324219 C 1378.875 583.320312 1378.78125 583.316406 1378.683594 583.316406 C 1379.085938 582.800781 1379.488281 582.289062 1379.882812 581.769531 Z M 1413.523438 575.890625 C 1413.628906 575.773438 1413.722656 575.757812 1413.808594 575.796875 C 1413.671875 575.828125 1413.554688 575.855469 1413.523438 575.890625 Z M 1414.394531 575.671875 C 1414.382812 575.675781 1414.363281 575.679688 1414.347656 575.683594 C 1414.042969 575.117188 1413.5 574.753906 1412.859375 574.632812 C 1412.835938 574.320312 1412.816406 574.003906 1412.785156 573.6875 C 1412.667969 572.554688 1411.808594 571.617188 1410.808594 571.351562 C 1410.894531 571.1875 1410.984375 571.019531 1411.070312 570.855469 C 1412.367188 568.402344 1409.339844 566.109375 1407.292969 567.933594 C 1406.34375 568.777344 1405.410156 569.640625 1404.472656 570.5 C 1405.078125 569.378906 1405.679688 568.261719 1406.320312 567.160156 C 1407.664062 564.84375 1404.421875 562.175781 1402.539062 564.238281 C 1401.855469 564.992188 1401.1875 565.757812 1400.511719 566.515625 C 1401.378906 565.117188 1402.261719 563.730469 1403.121094 562.332031 C 1404.585938 559.949219 1401.300781 557.5625 1399.34375 559.410156 C 1398.726562 559.988281 1398.15625 560.609375 1397.554688 561.203125 C 1398.03125 560.390625 1398.511719 559.578125 1398.988281 558.761719 C 1400.09375 556.882812 1398.238281 554.878906 1396.46875 555.167969 C 1396.707031 554.6875 1396.957031 554.214844 1397.191406 553.734375 C 1397.320312 553.46875 1397.390625 553.199219 1397.421875 552.929688 C 1401.574219 558.121094 1406.347656 562.863281 1410.882812 567.652344 C 1412.90625 569.789062 1414.96875 571.886719 1417.046875 573.96875 C 1416.757812 574.082031 1416.476562 574.234375 1416.242188 574.472656 C 1415.714844 575 1415.097656 575.410156 1414.394531 575.671875 Z M 1424 580.875 C 1425.011719 581.878906 1426.035156 582.90625 1426.941406 583.898438 C 1425.648438 584.027344 1424.351562 584.152344 1423.054688 584.242188 C 1423.359375 583.117188 1423.667969 581.992188 1424 580.875 Z M 1418.15625 505.804688 C 1411.371094 497.058594 1404.738281 488.1875 1397.746094 479.605469 C 1397.238281 478.980469 1396.632812 478.753906 1396.046875 478.796875 C 1396 477.355469 1395.941406 475.914062 1395.914062 474.46875 C 1395.835938 470.453125 1395.769531 466.433594 1395.695312 462.414062 C 1406.136719 476.839844 1417.347656 490.75 1429.378906 503.875 C 1429.75 504.277344 1430.167969 504.496094 1430.59375 504.578125 C 1430.488281 510.167969 1430.324219 515.757812 1430.273438 521.347656 C 1426.253906 516.152344 1422.183594 510.996094 1418.15625 505.804688 Z M 1413.921875 438.453125 C 1406.839844 430.511719 1398.53125 423.28125 1393.386719 413.851562 C 1393.316406 412.367188 1393.246094 410.886719 1393.183594 409.402344 C 1403.578125 424.941406 1419.183594 436.445312 1429.851562 451.855469 C 1429.734375 454.011719 1429.648438 456.167969 1429.585938 458.324219 C 1424.808594 451.363281 1419.539062 444.75 1413.921875 438.453125 Z M 1429.46875 433.914062 C 1429.917969 434.460938 1430.386719 435.039062 1430.726562 435.503906 C 1430.777344 435.578125 1430.847656 435.703125 1430.917969 435.820312 C 1430.878906 436.113281 1430.910156 436.582031 1430.894531 436.773438 C 1430.71875 439.3125 1430.515625 441.847656 1430.328125 444.386719 C 1425.261719 437.882812 1419.515625 431.929688 1413.75 426.035156 C 1406.011719 418.121094 1398.378906 410.019531 1393.25 400.097656 C 1393.101562 399.808594 1392.917969 399.589844 1392.71875 399.410156 C 1392.597656 397.132812 1392.460938 394.859375 1392.300781 392.589844 C 1401.0625 401.757812 1409.488281 411.277344 1417.949219 420.710938 C 1421.847656 425.054688 1425.777344 429.390625 1429.46875 433.914062 Z M 1241.839844 386.765625 C 1251.203125 386.148438 1260.609375 386.464844 1269.984375 386.335938 C 1279.796875 386.199219 1289.554688 386.84375 1299.359375 386.949219 C 1308.949219 387.046875 1318.511719 386.164062 1328.09375 386.03125 C 1345.441406 385.792969 1362.820312 385.292969 1380.132812 386.761719 C 1382.28125 386.941406 1384.464844 387.113281 1386.511719 387.476562 C 1386.671875 387.503906 1386.832031 387.539062 1386.992188 387.570312 C 1388.011719 392.394531 1387.855469 398.636719 1388.101562 403.871094 C 1388.222656 406.53125 1388.363281 409.1875 1388.503906 411.84375 C 1387.996094 412.523438 1387.796875 413.441406 1388.261719 414.40625 C 1388.394531 414.675781 1388.554688 414.925781 1388.691406 415.191406 C 1389.015625 421.015625 1389.359375 426.835938 1389.683594 432.660156 C 1388.382812 433.304688 1387.542969 435.175781 1388.800781 436.628906 C 1389.195312 437.082031 1389.578125 437.542969 1389.96875 438 C 1390.351562 445.316406 1390.667969 452.640625 1390.824219 459.972656 C 1391.03125 469.761719 1391.070312 479.558594 1391.617188 489.335938 C 1392.121094 498.402344 1392.660156 507.417969 1392.660156 516.5 C 1392.65625 520.601562 1392.644531 524.710938 1392.554688 528.820312 C 1391.136719 529.210938 1390.0625 530.679688 1391.148438 532.199219 C 1391.554688 532.769531 1391.976562 533.332031 1392.386719 533.898438 C 1392.328125 535.242188 1392.269531 536.585938 1392.179688 537.929688 C 1392.140625 538.5 1392.085938 539.070312 1392.03125 539.636719 C 1391.839844 539.726562 1391.660156 539.835938 1391.496094 539.964844 C 1390.824219 540.007812 1390.152344 540.054688 1389.480469 540.082031 C 1382.21875 540.34375 1374.941406 540.25 1367.675781 540.28125 C 1358.75 540.320312 1349.839844 540.824219 1340.914062 540.996094 C 1334.945312 541.113281 1328.972656 541.039062 1323 540.9375 C 1322.347656 539.8125 1320.894531 539.105469 1319.707031 539.976562 C 1319.304688 540.273438 1318.910156 540.570312 1318.507812 540.863281 C 1316.460938 540.828125 1314.414062 540.792969 1312.367188 540.761719 C 1302.464844 540.625 1292.566406 540.632812 1282.664062 540.582031 C 1273.316406 540.535156 1264.074219 539.917969 1254.75 539.292969 C 1245.839844 538.699219 1236.890625 538.859375 1227.960938 538.902344 C 1225.054688 538.917969 1222.148438 538.921875 1219.242188 538.917969 C 1218.480469 529.753906 1217.53125 520.605469 1217.070312 511.417969 C 1216.566406 501.382812 1216.644531 491.332031 1216.507812 481.285156 C 1216.367188 471.242188 1216.015625 461.199219 1216.089844 451.152344 C 1216.164062 441.105469 1216.796875 431.078125 1217.289062 421.042969 C 1217.804688 410.535156 1218 400.007812 1218.6875 389.507812 C 1226.40625 388.597656 1234.074219 387.277344 1241.839844 386.765625 Z M 1246.105469 563.972656 C 1248.777344 563.683594 1251.347656 563.078125 1253.773438 562.171875 C 1252.558594 563.84375 1251.355469 565.523438 1250.125 567.1875 C 1250.066406 567.269531 1250.027344 567.347656 1249.980469 567.429688 C 1248.96875 566.53125 1247.953125 565.636719 1246.945312 564.734375 C 1246.664062 564.480469 1246.386719 564.226562 1246.105469 563.972656 Z M 1260.929688 576.832031 C 1261.664062 576.957031 1262.453125 576.800781 1263.023438 576.265625 C 1264.449219 574.9375 1265.839844 573.582031 1267.214844 572.207031 C 1266.15625 574.550781 1265.148438 576.914062 1264.214844 579.316406 C 1263.082031 578.542969 1261.992188 577.699219 1260.929688 576.832031 Z M 1272.429688 581.082031 C 1272.433594 581.078125 1272.4375 581.074219 1272.441406 581.070312 C 1274.527344 578.761719 1276.730469 576.574219 1278.953125 574.398438 C 1278.714844 574.738281 1278.464844 575.070312 1278.226562 575.414062 C 1277.019531 577.152344 1278.972656 579.265625 1280.695312 579.078125 C 1280.183594 579.800781 1279.660156 580.511719 1279.160156 581.242188 C 1276.917969 581.195312 1274.675781 581.144531 1272.429688 581.082031 Z M 1291.917969 581.503906 C 1293.648438 579.691406 1295.371094 577.867188 1297.085938 576.039062 C 1296.726562 576.566406 1296.363281 577.097656 1296.003906 577.625 C 1294.4375 579.917969 1297.886719 582.449219 1299.78125 580.546875 C 1301.328125 578.996094 1302.859375 577.4375 1304.378906 575.863281 C 1304.25 576.089844 1304.105469 576.308594 1303.980469 576.535156 C 1302.714844 578.828125 1305.980469 581.667969 1307.757812 579.457031 C 1311.683594 574.570312 1315.550781 569.636719 1319.417969 564.703125 C 1320.140625 563.949219 1320.867188 563.203125 1321.59375 562.453125 C 1323.136719 560.867188 1324.710938 559.308594 1326.324219 557.792969 C 1324.640625 560.007812 1322.9375 562.207031 1321.234375 564.410156 C 1318.59375 567.828125 1316.09375 571.355469 1313.476562 574.785156 C 1311.304688 577.335938 1309.152344 579.902344 1307.011719 582.484375 C 1303.835938 582.210938 1300.65625 581.933594 1297.476562 581.738281 C 1295.625 581.628906 1293.769531 581.558594 1291.917969 581.503906 Z M 1313.0625 582.960938 C 1314.417969 581.367188 1315.722656 579.726562 1316.992188 578.0625 C 1318.539062 576.25 1320.101562 574.449219 1321.675781 572.660156 C 1319.875 575.480469 1318.167969 578.363281 1316.5 581.257812 C 1316.101562 581.953125 1316.046875 582.601562 1316.21875 583.144531 C 1315.507812 583.109375 1314.792969 583.082031 1314.082031 583.035156 C 1313.742188 583.011719 1313.402344 582.984375 1313.0625 582.960938 Z M 1326.289062 583.539062 C 1331.972656 577.695312 1337.125 571.226562 1341.796875 564.433594 C 1341.890625 564.332031 1341.972656 564.222656 1342.0625 564.117188 C 1344.292969 561.617188 1346.574219 559.160156 1348.851562 556.699219 C 1348.339844 557.636719 1347.8125 558.570312 1347.265625 559.488281 C 1346.722656 560.164062 1346.1875 560.847656 1345.640625 561.515625 C 1340.605469 567.695312 1335.328125 573.667969 1330.273438 579.832031 C 1329.082031 581.28125 1329.800781 583.082031 1331.050781 583.730469 C 1329.464844 583.65625 1327.875 583.59375 1326.289062 583.539062 Z M 1366.574219 583.578125 C 1368.78125 581.011719 1370.988281 578.441406 1373.144531 575.828125 C 1372.355469 576.988281 1371.574219 578.152344 1370.808594 579.328125 C 1369.722656 581.003906 1371.253906 582.855469 1372.882812 582.949219 C 1372.851562 582.992188 1372.820312 583.035156 1372.789062 583.078125 C 1372.738281 583.148438 1372.710938 583.21875 1372.671875 583.289062 C 1371.132812 583.320312 1369.589844 583.382812 1368.042969 583.476562 C 1367.554688 583.507812 1367.0625 583.546875 1366.574219 583.578125 Z M 1392.203125 583.289062 C 1392.066406 583.566406 1391.988281 583.84375 1391.964844 584.121094 C 1391.816406 584.109375 1391.664062 584.097656 1391.511719 584.085938 C 1391.742188 583.820312 1391.972656 583.554688 1392.203125 583.289062 Z M 1401.949219 584.742188 C 1400.441406 584.699219 1398.929688 584.617188 1397.421875 584.523438 C 1398.273438 583.550781 1399.125 582.585938 1400.007812 581.648438 C 1399.578125 583.78125 1402.257812 585.777344 1404.015625 583.90625 C 1405.089844 582.757812 1406.171875 581.621094 1407.253906 580.484375 C 1407.125 580.769531 1406.980469 581.050781 1406.8125 581.328125 C 1405.804688 582.984375 1406.960938 584.476562 1408.402344 584.789062 C 1406.25 584.808594 1404.097656 584.804688 1401.949219 584.742188 Z M 1409.496094 584.785156 C 1410.042969 584.65625 1410.566406 584.339844 1410.964844 583.761719 C 1411.652344 582.761719 1412.214844 581.695312 1412.785156 580.632812 C 1413.082031 580.683594 1413.386719 580.710938 1413.699219 580.699219 C 1414.625 580.664062 1415.554688 580.421875 1416.433594 580.046875 C 1416.558594 580.554688 1416.6875 581.0625 1416.816406 581.566406 C 1416.957031 582.113281 1417.296875 582.527344 1417.71875 582.824219 C 1417.660156 583.394531 1417.601562 583.96875 1417.550781 584.539062 C 1414.871094 584.65625 1412.183594 584.746094 1409.496094 584.785156 Z M 1428.34375 585.527344 C 1428.417969 585.625 1428.488281 585.75 1428.558594 585.863281 C 1428.246094 585.957031 1428.222656 585.796875 1428.34375 585.527344 Z M 1428.574219 585.886719 C 1428.605469 585.933594 1428.628906 585.984375 1428.664062 586.019531 C 1428.957031 586.292969 1428.410156 586.019531 1428.574219 585.886719 Z M 1428.574219 585.886719 " fill-opacity="1" fill-rule="nonzero"/></g></svg>