<svg xmlns="http://www.w3.org/2000/svg" width="375" viewBox="0 0 375 375" height="375" version="1.0"><defs><clipPath id="a"><path d="M 10.226562 0 L 364.976562 0 L 364.976562 374 L 10.226562 374 Z M 10.226562 0"/></clipPath></defs><g clip-path="url(#a)" fill="#C1272D"><path d="M 169.453125 39.324219 C 169.710938 40.730469 169.96875 42.136719 170.265625 43.78125 C 169.128906 42.097656 166.726562 29.0625 166.882812 25.78125 C 168.0625 31.691406 170.101562 37.164062 171.472656 43.25 C 172.03125 42.367188 171.859375 41.871094 171.785156 41.40625 C 170.394531 33.019531 169.238281 24.59375 168.097656 16.167969 C 167.636719 12.738281 167.605469 9.292969 168.3125 5.871094 C 168.339844 5.742188 168.347656 5.609375 168.382812 5.480469 C 168.996094 3.375 170.464844 2.75 172.1875 4.144531 C 173.285156 5.03125 174.066406 4.878906 175.207031 4.410156 C 178.550781 3.039062 182.121094 2.570312 185.679688 2.070312 C 190.882812 1.332031 196.148438 1.273438 201.363281 0.644531 C 201.6875 0.605469 202.035156 0.632812 202.355469 0.699219 C 203.40625 0.917969 204.292969 1.726562 205.234375 1.933594 C 206.261719 2.15625 207.199219 2.417969 208.109375 2.925781 C 209.773438 3.859375 210.8125 5.21875 211.230469 7.089844 C 212.527344 12.863281 214.28125 18.515625 215.960938 24.183594 C 218.359375 32.265625 220.46875 40.414062 222.132812 48.679688 C 223.652344 56.234375 225.386719 63.757812 226.539062 71.367188 C 227.976562 80.875 231.042969 89.898438 234.015625 98.960938 C 235.425781 103.246094 236.984375 107.488281 239.34375 111.382812 C 239.871094 112.253906 240.46875 113.050781 241.332031 113.570312 C 242.246094 114.121094 243.144531 114.511719 244.308594 113.902344 C 245.277344 113.398438 246.289062 113.417969 247.503906 113.933594 C 249.203125 114.652344 251.1875 114.195312 253.03125 114.027344 C 257.457031 113.628906 261.878906 113.148438 266.289062 112.585938 C 271.554688 111.917969 276.808594 111.128906 282.070312 110.402344 C 288.449219 109.523438 294.828125 108.648438 301.207031 107.777344 C 310.8125 106.46875 320.492188 105.769531 330.070312 104.25 C 331.390625 104.042969 332.683594 103.769531 333.953125 103.371094 C 334.527344 103.191406 335.089844 103.027344 335.699219 103 C 336.628906 102.957031 337.160156 103.179688 337.285156 104.265625 C 337.511719 106.226562 337.613281 106.238281 339.53125 105.699219 C 339.976562 105.570312 340.417969 105.414062 340.863281 105.28125 C 341.949219 104.949219 343.15625 105.417969 343.351562 106.46875 C 343.566406 107.65625 344.164062 108.535156 344.972656 109.328125 C 345.90625 110.238281 346.0625 111.445312 346.203125 112.621094 C 346.460938 114.796875 346.679688 116.984375 346.800781 119.171875 C 347.015625 122.953125 347.175781 126.738281 347.292969 130.527344 C 347.367188 132.816406 347.09375 133.195312 345.011719 133.890625 C 342.175781 134.839844 339.472656 136.003906 336.84375 137.488281 C 330.867188 140.867188 324.378906 142.71875 317.496094 143.195312 C 312.242188 143.5625 307.144531 144.890625 302.019531 146.023438 C 296.308594 147.292969 290.535156 148.1875 284.765625 149.117188 C 279.976562 149.890625 275.175781 150.585938 270.378906 151.300781 C 266.363281 151.898438 262.316406 152.191406 258.261719 152.289062 C 252.140625 152.429688 246.023438 152.289062 239.914062 151.894531 C 238.257812 151.785156 236.601562 151.601562 234.960938 151.359375 C 233.308594 151.121094 231.675781 150.949219 230 151.183594 C 228.46875 151.398438 226.953125 151.136719 225.460938 150.765625 C 220.144531 149.453125 215.003906 147.691406 210.308594 144.828125 C 209.179688 144.140625 208.144531 143.304688 207.054688 142.550781 C 206.441406 142.128906 205.820312 141.753906 206.101562 140.816406 C 206.195312 140.503906 205.984375 140.183594 205.777344 139.90625 C 204.777344 138.558594 203.296875 137.527344 203.003906 135.710938 C 200.1875 133.429688 198.496094 130.292969 196.757812 127.234375 C 194.957031 124.0625 193.355469 120.773438 191.769531 117.484375 C 190.203125 114.246094 189.191406 110.792969 188.140625 107.359375 C 183.171875 91.089844 178.765625 74.667969 174.941406 58.09375 C 173.550781 52.066406 171.8125 46.144531 170.1875 40.1875 C 170.105469 39.875 169.941406 39.582031 169.8125 39.28125 C 169.691406 39.292969 169.574219 39.308594 169.453125 39.324219 Z M 195.390625 82.226562 C 195.832031 82.484375 195.9375 82.933594 196.0625 83.378906 C 196.480469 84.894531 196.828125 86.441406 197.351562 87.925781 C 197.796875 89.199219 197.824219 90.667969 198.929688 91.675781 C 198.835938 91.839844 198.6875 91.992188 198.660156 92.164062 C 198.628906 92.386719 198.558594 92.722656 198.964844 92.679688 C 199.019531 92.671875 199.085938 92.34375 199.070312 92.171875 C 199.054688 91.988281 198.949219 91.8125 198.882812 91.632812 C 199.722656 91.796875 199.980469 92.402344 200.222656 93.160156 C 201.882812 98.339844 203.605469 103.5 205.292969 108.671875 C 206.722656 113.046875 208.65625 117.160156 211.097656 121.089844 C 214.28125 126.210938 218.148438 130.753906 222.3125 135.054688 C 225.464844 138.308594 229.410156 140.390625 233.769531 141.628906 C 236.132812 142.296875 238.527344 142.863281 240.898438 143.511719 C 245.300781 144.710938 249.765625 145.238281 254.320312 144.730469 C 259.605469 144.148438 264.878906 143.46875 270.195312 143.222656 C 274.785156 143.007812 279.320312 142.453125 283.824219 141.507812 C 297.085938 138.730469 310.367188 136.039062 323.632812 133.273438 C 326.949219 132.578125 330.28125 131.960938 333.519531 130.929688 C 334.53125 130.605469 335.027344 130.144531 334.949219 128.945312 C 334.667969 124.632812 334.535156 120.3125 334.292969 116 C 334.183594 114.011719 333.9375 112.027344 333.78125 110.042969 C 333.707031 109.089844 333.226562 108.765625 332.324219 108.960938 C 331.933594 109.042969 331.542969 109.121094 331.148438 109.1875 C 327.9375 109.722656 324.738281 110.347656 321.511719 110.769531 C 312.820312 111.90625 304.164062 113.257812 295.515625 114.675781 C 294.359375 114.867188 293.140625 115.304688 291.894531 114.761719 C 294.308594 113.972656 296.8125 113.664062 299.273438 113.136719 C 301.710938 112.621094 304.238281 112.480469 306.574219 111.511719 C 302.714844 111.75 298.914062 112.375 295.132812 113.085938 C 291.09375 113.84375 287.109375 114.90625 283.058594 115.582031 C 278.089844 116.414062 273.078125 117.023438 268.074219 117.65625 C 265.507812 117.980469 262.898438 118.46875 260.339844 118.316406 C 256.152344 118.070312 251.976562 118.085938 247.792969 118.128906 C 246.664062 118.136719 245.515625 118.460938 244.417969 118.316406 C 240.585938 117.804688 236.863281 116.921875 233.429688 115 C 229.492188 112.796875 227.160156 109.5625 226.539062 105.097656 C 226.410156 104.171875 226.179688 103.273438 225.8125 102.414062 C 224.71875 99.84375 223.855469 97.191406 222.929688 94.558594 C 220.96875 88.984375 219.480469 83.25 217.359375 77.726562 C 216.292969 74.949219 216.066406 71.878906 214.40625 69.3125 C 214.554688 67.441406 213.511719 65.886719 213.082031 64.175781 C 212.085938 60.191406 211.199219 56.179688 210.386719 52.152344 C 208.96875 45.132812 207.625 38.09375 206.285156 31.054688 C 205.300781 25.90625 204.40625 20.738281 203.398438 15.59375 C 202.808594 12.601562 202.730469 9.519531 201.722656 6.601562 C 201.191406 5.0625 201.222656 4.976562 199.65625 5.144531 C 197.410156 5.386719 195.179688 5.742188 192.941406 6.066406 C 192.625 6.113281 192.296875 6.25 192.296875 6.640625 C 192.382812 7.042969 192.683594 7.199219 192.953125 7.390625 C 193.230469 7.582031 193.484375 7.796875 193.390625 8.207031 C 192.617188 8.648438 191.75 8.640625 190.890625 8.730469 C 187.585938 9.074219 184.257812 9.25 181.011719 9.996094 C 179.3125 10.390625 177.675781 10.675781 176.140625 9.53125 C 175.605469 10.574219 175.730469 11.46875 175.957031 12.386719 C 177.535156 18.761719 179.257812 25.101562 180.675781 31.519531 C 181.933594 37.21875 183.355469 42.882812 184.617188 48.578125 C 185.742188 53.660156 187.050781 58.6875 188.34375 63.722656 C 188.9375 66.039062 189.738281 68.285156 190.433594 70.5625 C 190.675781 71.367188 190.574219 72.210938 190.984375 73.042969 C 191.722656 74.546875 192.003906 76.253906 192.394531 77.871094 C 192.867188 79.835938 193.46875 81.761719 193.945312 83.722656 C 194.597656 86.386719 195.382812 89.019531 196.117188 91.664062 C 196.75 93.957031 197.332031 96.28125 198.054688 98.535156 C 199.242188 102.230469 200.246094 105.980469 201.507812 109.648438 C 202.519531 112.589844 203.613281 115.519531 205.214844 118.1875 C 208.566406 123.773438 212.324219 129.070312 216.929688 133.734375 C 218.554688 135.382812 220.1875 136.964844 222.46875 137.730469 C 219.792969 135.480469 217.546875 132.824219 215.269531 130.207031 C 209.890625 124.027344 205.660156 117.160156 203.175781 109.320312 C 201.117188 102.8125 199.140625 96.273438 197.292969 89.703125 C 196.59375 87.230469 195.640625 84.800781 195.425781 82.199219 Z M 336.835938 113.863281 C 337.5 113.148438 337.5 112.390625 337.726562 111.722656 C 338.085938 110.652344 338.414062 109.5625 339.214844 108.710938 C 339.488281 108.421875 339.796875 108.109375 340.222656 108.453125 C 340.550781 108.722656 340.414062 109.054688 340.25 109.355469 C 339.492188 110.742188 339.464844 112.324219 339.3125 113.800781 C 338.910156 117.789062 338.964844 121.808594 339.121094 125.816406 C 339.164062 126.875 338.960938 127.929688 339.136719 128.980469 C 339.175781 129.234375 339.25 129.527344 339.597656 129.523438 C 339.875 129.523438 340.164062 129.394531 340.25 129.152344 C 340.371094 128.785156 340.433594 128.382812 340.429688 127.996094 C 340.414062 126.539062 340.355469 125.082031 340.316406 123.621094 C 340.203125 119.046875 340.1875 114.472656 340.917969 109.9375 C 341.34375 107.292969 341.257812 107.15625 338.652344 107.734375 C 337.875 107.90625 337.066406 108.027344 336.925781 109.070312 C 336.71875 110.613281 336.589844 112.148438 336.835938 113.863281 Z M 225.335938 139.417969 C 225.179688 139.285156 225.054688 139.164062 224.917969 139.0625 C 224.789062 138.972656 224.613281 139.03125 224.648438 139.132812 C 224.695312 139.285156 224.839844 139.425781 224.976562 139.519531 C 225.03125 139.558594 225.179688 139.464844 225.335938 139.417969 Z M 234.425781 241.96875 C 234.425781 232.972656 236.148438 225.121094 239.269531 217.527344 C 240.722656 213.988281 242.773438 210.851562 244.984375 207.773438 C 246.1875 206.097656 247.519531 204.53125 248.773438 202.90625 C 249.308594 202.210938 250.351562 201.535156 249.238281 200.425781 C 248.925781 200.113281 249.347656 199.691406 249.625 199.410156 C 250.382812 198.644531 251.304688 198.101562 252.265625 197.644531 C 254.128906 196.765625 256.023438 195.96875 257.976562 195.296875 C 265.136719 192.828125 272.332031 190.453125 279.261719 187.367188 C 292.101562 183.640625 304.382812 178.34375 317.003906 173.996094 C 324.328125 171.476562 331.855469 169.929688 339.492188 168.828125 C 343.238281 168.285156 346.949219 167.488281 350.769531 167.527344 C 353.066406 167.546875 355.257812 167.996094 357.394531 168.777344 C 358.5625 169.207031 358.621094 169.621094 357.699219 170.402344 C 357.230469 170.804688 356.722656 171.09375 356.09375 171.121094 C 351.0625 171.332031 346.347656 173.125 341.453125 174 C 336.023438 174.972656 330.636719 176.128906 325.332031 177.609375 C 323.132812 178.222656 320.996094 179.144531 318.84375 179.945312 C 311.875 182.53125 305.101562 185.609375 298.007812 187.882812 C 291.496094 189.96875 284.921875 191.835938 278.367188 193.777344 C 275.167969 194.726562 272.328125 196.410156 269.425781 197.988281 C 265.5625 200.089844 262.4375 203.148438 259 205.804688 C 257.941406 206.621094 257.335938 207.820312 256.605469 208.902344 C 254.808594 211.570312 253.355469 214.503906 252.679688 217.570312 C 252.054688 220.402344 251.335938 223.234375 250.78125 226.09375 C 249.269531 233.867188 249.246094 241.679688 249.925781 249.523438 C 250.226562 252.964844 250.554688 256.402344 250.875 259.84375 C 251.300781 264.382812 252.863281 268.648438 254.128906 272.976562 C 256.363281 280.628906 258.714844 288.246094 261.582031 295.695312 C 264.019531 302.019531 266.453125 308.34375 268.851562 314.679688 C 271.648438 322.074219 274.390625 329.492188 277.1875 336.886719 C 278.035156 339.125 279.03125 341.304688 280.203125 343.394531 C 280.960938 344.75 281.097656 344.785156 282.496094 344.046875 C 286.542969 341.90625 290.582031 339.75 294.609375 337.578125 C 295.882812 336.894531 295.875 336.816406 295.316406 335.390625 C 293.382812 330.453125 291.207031 325.613281 289.402344 320.625 C 287.78125 316.132812 286.144531 311.640625 284.117188 307.308594 C 283.246094 305.441406 282.207031 303.667969 280.996094 301.992188 C 279.148438 299.433594 278.164062 296.449219 276.957031 293.578125 C 272.875 283.878906 270.804688 273.667969 269.523438 263.289062 C 268.921875 258.390625 269.332031 253.457031 269.878906 248.566406 C 270.515625 242.882812 271.605469 237.277344 272.925781 231.710938 C 274.578125 224.753906 278.515625 219.613281 284.8125 216.269531 C 286.863281 215.179688 288.949219 214.148438 291.046875 213.144531 C 292.199219 212.589844 293.257812 211.867188 294.746094 212.597656 C 295.671875 213.050781 296.832031 212.34375 297.789062 211.964844 C 301.097656 210.660156 304.378906 209.28125 307.597656 207.742188 C 308.277344 207.414062 308.679688 206.863281 309.332031 206.535156 C 311.527344 205.429688 313.890625 204.808594 316.1875 204.023438 C 324.484375 201.183594 332.964844 198.984375 341.53125 197.109375 C 345.550781 196.226562 349.554688 195.265625 353.5625 194.324219 C 356.074219 193.730469 356.214844 193.558594 356.011719 190.980469 C 355.808594 188.402344 355.46875 185.835938 355.316406 183.257812 C 355.125 180.011719 354.65625 176.769531 355.027344 173.511719 C 355.246094 171.617188 355.449219 171.480469 357.378906 172.050781 C 357.910156 172.207031 358.269531 171.925781 358.691406 171.804688 C 360.398438 171.3125 361.34375 171.875 361.582031 173.65625 C 361.96875 176.542969 362.253906 179.445312 362.65625 182.332031 C 363.121094 185.683594 363.328125 189.050781 363.386719 192.425781 C 363.402344 193.367188 363.800781 194.066406 364.351562 194.75 C 364.980469 195.527344 364.859375 196.121094 364.003906 196.71875 C 362.355469 197.867188 360.601562 198.769531 358.730469 199.492188 C 352.007812 202.078125 344.988281 203.601562 338.050781 205.425781 C 323.429688 209.269531 309.238281 214.296875 295.628906 220.960938 C 287.394531 224.992188 282.199219 231.382812 279.546875 240.011719 C 278.4375 243.628906 277.519531 247.257812 277.285156 251.089844 C 277.175781 252.859375 276.84375 254.667969 277.050781 256.414062 C 277.371094 259.15625 277.117188 261.9375 277.726562 264.644531 C 277.769531 264.839844 277.796875 265.042969 277.78125 265.238281 C 277.5625 268.398438 278.660156 271.195312 280.15625 273.882812 C 280.933594 275.285156 281.535156 276.765625 281.984375 278.296875 C 284.519531 286.921875 288.113281 295.152344 291.433594 303.480469 C 295.222656 312.988281 298.898438 322.539062 301.753906 332.378906 C 302.527344 335.042969 303.28125 337.699219 303.054688 340.582031 C 302.96875 341.609375 302.703125 341.976562 301.917969 342.292969 C 299.890625 343.121094 297.886719 344.023438 295.832031 344.78125 C 290.28125 346.824219 284.730469 348.867188 278.894531 349.988281 C 277.527344 350.25 276.140625 350.429688 274.765625 350.652344 C 273.554688 350.847656 272.554688 350.480469 271.707031 349.589844 C 270.921875 348.769531 270.21875 347.890625 269.589844 346.949219 C 267.960938 344.511719 266.539062 341.957031 265.265625 339.320312 C 257.707031 323.683594 251.085938 307.671875 246.023438 291.042969 C 244.246094 285.199219 242.816406 279.246094 240.625 273.53125 C 237.460938 265.28125 235.851562 256.679688 234.808594 247.953125 C 234.539062 245.714844 234.515625 243.445312 234.425781 241.96875 Z M 259.273438 315.125 C 258.628906 315.042969 258.59375 314.179688 257.945312 314.09375 C 258.378906 315.863281 258.378906 315.863281 259.597656 316.082031 C 261.226562 318.40625 261.796875 321.277344 263.574219 323.542969 C 261.125 317.421875 258.542969 311.355469 256.546875 305.058594 C 254.523438 298.675781 252.339844 292.34375 250.644531 285.871094 C 248.976562 279.484375 247.554688 273.03125 246.023438 266.609375 C 245.484375 267.972656 245.871094 269.234375 246.199219 270.476562 C 246.417969 271.308594 246.390625 271.953125 245.472656 272.191406 C 244.386719 272.476562 244.4375 273.101562 244.652344 274.007812 C 245.65625 278.257812 247.078125 282.390625 248.34375 286.5625 C 250.164062 292.570312 251.777344 298.652344 254.074219 304.511719 C 254.746094 306.230469 255.050781 308.097656 256.128906 309.65625 L 256.09375 309.621094 C 256.222656 310.628906 256.550781 311.484375 257.429688 312.152344 C 258.394531 312.882812 258.929688 313.964844 259.273438 315.125 Z M 273.726562 348.5625 C 273.792969 347.539062 273.285156 347.140625 273 346.644531 C 272.125 345.089844 271.152344 343.582031 270.351562 341.988281 C 267.28125 335.898438 264.84375 329.535156 262.265625 323.234375 C 261.820312 322.148438 261.589844 320.84375 260.378906 320.042969 C 260.007812 320.664062 260.03125 321.140625 260.257812 321.664062 C 261.945312 325.609375 263.628906 329.558594 265.300781 333.507812 C 266.894531 337.28125 268.386719 341.097656 270.511719 344.617188 C 271.351562 346.003906 272.054688 347.511719 273.726562 348.5625 Z M 246.648438 238.59375 C 246.484375 239.910156 246.28125 241.199219 246.746094 242.457031 C 246.910156 241.152344 247.125 239.847656 246.648438 238.59375 Z M 280.71875 224.261719 C 278.980469 225.363281 278.980469 225.367188 279.078125 226.742188 C 279.6875 225.820312 280.203125 225.039062 280.71875 224.261719 Z M 247.003906 236.226562 C 246.945312 236.109375 246.863281 235.949219 246.78125 235.792969 C 246.710938 235.882812 246.582031 235.972656 246.578125 236.070312 C 246.566406 236.246094 246.570312 236.53125 246.667969 236.582031 C 246.890625 236.703125 246.933594 236.457031 247.003906 236.226562 Z M 252.167969 202.472656 C 252.144531 202.308594 252.039062 202.238281 251.886719 202.316406 C 251.78125 202.367188 251.625 202.472656 251.621094 202.558594 C 251.609375 202.796875 251.773438 202.910156 251.988281 202.796875 C 252.082031 202.746094 252.113281 202.585938 252.167969 202.472656 Z M 191.011719 358.230469 C 189.113281 353.40625 187.796875 348.386719 186.144531 343.476562 C 183.5625 335.796875 180.546875 328.269531 178.167969 320.515625 C 177.785156 319.273438 177.320312 318.042969 177.355469 316.679688 C 181.398438 327.515625 185.21875 338.425781 189.710938 349.121094 C 189.476562 348.113281 189.246094 347.105469 189.011719 346.097656 C 189.109375 346.058594 189.207031 346.019531 189.304688 345.976562 C 189.921875 347.566406 190.675781 349.113281 191.117188 350.746094 C 191.699219 352.875 192.5 354.863281 193.554688 356.800781 C 194.597656 358.71875 195.332031 360.796875 196.210938 362.800781 C 196.285156 362.972656 196.410156 363.117188 196.5 363.257812 C 196.832031 363.234375 196.8125 363.039062 196.746094 362.859375 C 195.546875 359.546875 194.710938 356.140625 193.949219 352.699219 C 193.570312 350.980469 192.84375 349.3125 192.109375 347.699219 C 190.734375 344.683594 189.710938 341.554688 188.726562 338.40625 C 187.144531 333.324219 185.210938 328.390625 182.878906 323.597656 C 181.695312 321.160156 180.597656 318.609375 179.9375 315.992188 C 177.558594 306.589844 173.175781 298.023438 169.105469 289.328125 C 167.589844 286.089844 166.144531 282.800781 164.148438 279.808594 C 164.152344 279.804688 164.144531 279.816406 164.144531 279.816406 C 164.851562 279.800781 165.171875 280.578125 165.773438 280.742188 C 166.089844 280.308594 165.867188 280.019531 165.734375 279.730469 C 163.480469 274.882812 160.570312 270.453125 157.160156 266.351562 C 154.960938 263.703125 152.25 261.695312 149.136719 260.222656 C 147.804688 259.589844 146.375 259.453125 144.949219 259.167969 C 141.089844 258.390625 137.984375 260.222656 134.695312 261.539062 C 134.453125 261.636719 134.234375 261.824219 133.984375 261.890625 C 126.378906 263.941406 119.363281 267.519531 112.09375 270.433594 C 97.289062 276.371094 82.316406 281.859375 67.394531 287.488281 C 63.53125 288.945312 59.886719 290.882812 56.097656 292.5 C 54.054688 293.371094 52.050781 294.136719 49.765625 293.378906 C 48.878906 293.085938 47.914062 293.355469 47.011719 293.589844 C 45.300781 294.035156 44.042969 293.414062 43.03125 292.054688 C 41.941406 290.597656 41.222656 288.957031 40.597656 287.273438 C 38.742188 282.277344 37.53125 277.097656 36.25 271.941406 C 35.769531 270.007812 35.363281 268.054688 35.019531 266.09375 C 34.875 265.257812 34.621094 264.71875 33.695312 264.691406 C 33.433594 264.683594 33.167969 264.609375 32.917969 264.527344 C 31.785156 264.15625 31.488281 263.464844 31.996094 262.378906 C 32.382812 261.558594 33.132812 261.089844 33.828125 260.589844 C 37.078125 258.269531 40.382812 256.007812 43.960938 254.238281 C 56.828125 247.875 69.460938 241.03125 82.625 235.261719 C 94.6875 229.976562 106.910156 225.140625 119.671875 221.753906 C 127.191406 219.753906 134.855469 218.472656 142.488281 217.03125 C 148.636719 215.871094 154.789062 214.964844 161.066406 215.03125 C 168.527344 215.113281 175.546875 216.898438 182.09375 220.433594 C 186.585938 222.859375 189.699219 226.644531 191.769531 231.242188 C 193.816406 235.785156 195.679688 240.410156 197.601562 245.007812 C 198.015625 245.996094 198.457031 246.882812 199.328125 247.613281 C 200.34375 248.46875 200.949219 249.707031 201.5625 250.890625 C 204.789062 257.09375 207.195312 263.632812 209.417969 270.246094 C 212.351562 278.984375 214.902344 287.839844 217.453125 296.695312 C 219.386719 303.390625 221.21875 310.113281 223.355469 316.746094 C 226.246094 325.726562 229.351562 334.628906 232.503906 343.519531 C 233.925781 347.527344 235.429688 351.503906 236.90625 355.492188 C 237.453125 356.960938 237.3125 357.710938 236.042969 358.578125 C 235.171875 359.171875 234.199219 359.632812 233.230469 360.074219 C 231.601562 360.816406 229.929688 361.476562 228.289062 362.207031 C 225.867188 363.289062 223.574219 364.539062 221.417969 366.164062 C 216.527344 369.851562 210.917969 372.128906 204.96875 373.503906 C 201.285156 374.355469 198.648438 373.1875 196.628906 370.011719 C 196.246094 369.414062 195.496094 369.027344 195.496094 368.195312 C 195.714844 367.511719 195.535156 366.878906 195.242188 366.261719 C 195.042969 365.785156 194.875 365.292969 194.640625 364.832031 C 193.792969 363.179688 193.457031 361.28125 192.210938 359.824219 L 192.25 359.890625 C 192.21875 359.210938 191.992188 358.578125 191.628906 358.023438 C 191.34375 357.589844 191.105469 357.8125 191.011719 358.230469 Z M 202.882812 358.789062 C 202.9375 358.433594 203.257812 358.109375 203.023438 357.703125 C 202.503906 358.015625 202.894531 358.410156 202.902344 358.765625 C 203.328125 359.648438 203.304688 360.890625 204.695312 361 C 204.089844 361.789062 204.207031 362.472656 205.007812 363.046875 C 205.292969 364.289062 206.015625 365.164062 207.15625 365.691406 C 206.175781 365.035156 206.429688 363.320312 204.964844 363.078125 C 205.277344 362.332031 205.226562 361.644531 204.652344 361.035156 C 203.992188 360.34375 203.808594 359.273438 202.882812 358.789062 Z M 173.855469 223.164062 C 173.3125 222.597656 172.726562 222.339844 172.109375 222.066406 C 166.972656 219.773438 161.570312 219.375 156.085938 219.933594 C 147.535156 220.804688 139.183594 222.722656 130.960938 225.1875 C 116.480469 229.527344 102.527344 235.25 88.800781 241.523438 C 80.402344 245.359375 72.167969 249.558594 63.785156 253.4375 C 58.109375 256.066406 52.464844 258.722656 47.039062 261.832031 C 45.710938 262.589844 44.355469 263.289062 42.902344 263.800781 C 41.585938 264.265625 41.550781 264.316406 41.933594 265.632812 C 43.042969 269.425781 44.140625 273.222656 45.347656 276.984375 C 46.335938 280.066406 47.316406 283.160156 48.71875 286.089844 C 49.4375 287.59375 49.507812 287.632812 50.9375 286.996094 C 60.710938 282.636719 70.738281 278.917969 80.742188 275.132812 C 83.359375 274.144531 85.738281 272.503906 88.628906 272.265625 C 101.394531 267.492188 114.339844 263.246094 127.335938 259.148438 C 131.121094 257.957031 134.929688 256.839844 138.742188 255.734375 C 141.796875 254.847656 144.941406 254.640625 148.011719 255.429688 C 156.019531 257.484375 163.265625 260.921875 168.597656 267.539062 C 171.824219 271.535156 174.640625 275.808594 176.949219 280.394531 C 181.875 290.175781 185.265625 300.511719 187.875 311.125 C 188.796875 314.863281 189.714844 318.605469 191.066406 322.226562 C 193.359375 328.371094 195.609375 334.53125 197.847656 340.699219 C 199.566406 345.441406 201.199219 350.21875 202.949219 354.953125 C 203.988281 357.753906 205.078125 360.546875 206.527344 363.171875 C 208.410156 366.589844 209.265625 366.917969 212.914062 365.609375 C 216.355469 364.378906 219.726562 362.96875 223.207031 361.847656 C 226.242188 360.875 229.289062 359.914062 232.214844 358.628906 C 233.695312 357.980469 233.742188 357.816406 232.996094 356.429688 C 230.125 351.097656 227.742188 345.539062 225.507812 339.917969 C 222.855469 333.253906 220.304688 326.546875 217.6875 319.867188 C 217.453125 319.273438 217.433594 318.421875 216.71875 318.21875 C 215.433594 317.851562 215.054688 316.753906 214.546875 315.785156 C 213.460938 313.726562 212.617188 311.554688 211.839844 309.359375 C 207.808594 297.96875 204.367188 286.378906 200.03125 275.089844 C 198.894531 272.121094 197.917969 269.09375 196.816406 266.109375 C 194.578125 260.070312 191.765625 254.277344 189.113281 248.417969 C 186.535156 242.722656 183.84375 237.085938 180.046875 232.070312 C 178.152344 229.570312 176.046875 227.277344 173.339844 225.605469 C 172.472656 225.070312 172.433594 224.683594 173.109375 223.921875 C 173.320312 223.683594 173.714844 223.632812 173.855469 223.164062 Z M 163.597656 263.75 C 164.285156 264.546875 164.980469 265.34375 165.664062 266.148438 C 170.359375 271.683594 173.5 278.109375 176.296875 284.722656 C 177.898438 288.511719 179.292969 292.386719 180.554688 296.300781 C 181.128906 298.070312 182.101562 299.535156 183.386719 300.847656 C 183.367188 300.296875 183.246094 299.796875 183.09375 299.300781 C 182.023438 295.820312 180.667969 292.441406 179.460938 289.011719 C 177.488281 283.40625 174.992188 278.078125 171.785156 273.09375 C 169.527344 269.578125 167.152344 266.125 163.597656 263.75 Z M 215.386719 368.082031 C 212.898438 367.371094 210.625 368.328125 208.277344 368.621094 C 207.75 368.6875 207.230469 368.757812 206.851562 369.210938 C 206.632812 369.472656 206.390625 369.742188 206.472656 370.085938 C 206.554688 370.433594 206.871094 370.59375 207.222656 370.640625 C 208.082031 370.75 208.925781 370.765625 209.773438 370.46875 C 211.707031 369.792969 213.609375 369.039062 215.386719 368.082031 Z M 83.5 79.296875 C 83.839844 79.300781 83.894531 79.578125 84 79.804688 C 87.207031 86.472656 89.511719 93.457031 91.273438 100.632812 C 91.875 103.082031 92.558594 105.503906 93.046875 107.984375 C 93.878906 112.21875 94.359375 116.449219 94.113281 120.78125 C 93.8125 126.066406 92.328125 131.046875 90.632812 135.996094 C 90.351562 136.816406 90.097656 137.617188 90.046875 138.5 C 89.96875 140.023438 89.046875 141.210938 88.289062 142.449219 C 87.949219 143.003906 87.578125 143.535156 87.347656 144.167969 C 89.839844 142.457031 91.578125 140.125 92.886719 137.441406 C 92.378906 134.867188 94.414062 133.191406 95.21875 131.089844 C 97.289062 125.667969 98.472656 120.109375 97.972656 114.339844 C 97.25 105.964844 95.429688 97.800781 92.496094 89.90625 C 90.082031 83.417969 87.121094 77.175781 84.148438 70.9375 C 82.550781 67.582031 80.957031 64.226562 79.371094 60.871094 C 78.089844 58.164062 76.789062 55.453125 74.839844 53.164062 C 72.988281 50.992188 72.210938 48.136719 70.074219 46.210938 C 70.503906 45.722656 70.921875 46.261719 71.28125 46 C 71.574219 45.535156 71.144531 45.257812 70.941406 44.960938 C 69.308594 42.539062 67.628906 40.144531 66.007812 37.714844 C 65.535156 37.011719 64.570312 36.207031 64.960938 35.476562 C 65.359375 34.730469 65.800781 33.871094 66.496094 33.257812 C 68.246094 31.714844 70.097656 30.324219 72.128906 29.164062 C 80.519531 24.355469 89.5 20.875 98.503906 17.457031 C 99.246094 17.175781 100.019531 16.953125 100.796875 16.804688 C 101.289062 16.710938 101.839844 16.523438 102.3125 16.972656 C 102.84375 17.472656 103.289062 17.597656 103.617188 16.714844 C 103.804688 16.21875 104.332031 16.15625 104.816406 16.246094 C 105.339844 16.339844 105.941406 16.347656 106.355469 16.621094 C 108.667969 18.148438 111.070312 19.605469 112.050781 22.453125 C 116.054688 34.074219 120.054688 45.695312 124.09375 57.304688 C 125.535156 61.445312 127.335938 65.449219 129.105469 69.457031 C 136.417969 86.035156 142.023438 103.175781 146.019531 120.839844 C 146.679688 123.757812 147.0625 126.726562 147.164062 129.726562 C 147.292969 133.574219 148.066406 137.375 147.929688 141.253906 C 147.78125 145.597656 147.164062 149.851562 146.117188 154.058594 C 145.5625 156.285156 144.4375 158.230469 143.214844 160.144531 C 139.109375 166.554688 133.789062 171.78125 127.777344 176.390625 C 121.296875 181.355469 114.136719 185.101562 106.796875 188.582031 C 96.660156 193.386719 85.914062 196.394531 75.214844 199.570312 C 71.148438 200.777344 67.015625 201.773438 63.058594 203.390625 C 59.210938 204.957031 55.058594 205.296875 50.964844 205.78125 C 45.613281 206.414062 40.226562 206.636719 34.855469 207.050781 C 32.730469 207.214844 30.621094 207.503906 28.511719 207.019531 C 27.542969 206.800781 26.597656 206.453125 25.621094 206.28125 C 25.046875 206.179688 24.425781 206.246094 23.84375 206.347656 C 22.917969 206.503906 23.378906 207.230469 23.289062 207.769531 C 23.171875 208.492188 21.332031 208.808594 20.789062 208.21875 C 20.570312 207.984375 20.394531 207.675781 20.289062 207.371094 C 19.972656 206.457031 19.3125 206.058594 18.410156 205.804688 C 14.472656 204.695312 13.382812 203.296875 13.023438 199.203125 C 12.785156 196.484375 12.675781 193.761719 12.636719 191.035156 C 12.554688 185.242188 12.0625 179.5 10.46875 173.890625 C 10.308594 173.324219 10.207031 172.710938 10.230469 172.125 C 10.289062 170.78125 10.738281 170.28125 12.09375 170 C 15.296875 169.332031 18.304688 168.0625 21.394531 167.039062 C 25.570312 165.652344 29.800781 164.664062 34.269531 164.667969 C 36.917969 164.667969 39.472656 163.664062 42.066406 163.085938 C 52.519531 160.757812 62.3125 156.671875 71.789062 151.773438 C 72.378906 151.46875 72.957031 151.140625 73.539062 150.820312 C 81.457031 146.46875 86.980469 140.167969 89.8125 131.480469 C 91.601562 125.992188 92.988281 120.488281 92.390625 114.675781 C 91.75 108.453125 90.617188 102.316406 89.097656 96.246094 C 87.722656 90.757812 85.957031 85.398438 83.726562 80.195312 C 83.609375 79.917969 83.320312 79.660156 83.5 79.296875 Z M 27.160156 201.730469 C 31.644531 201.28125 36.738281 200.796875 41.757812 199.765625 C 49.507812 198.179688 57.152344 196.140625 64.839844 194.273438 C 79.28125 190.757812 93.253906 185.980469 106.640625 179.382812 C 118.308594 173.628906 128.527344 166.359375 136.035156 155.550781 C 138.410156 152.132812 139.835938 148.421875 140.722656 144.441406 C 140.859375 143.8125 140.804688 143.109375 140.707031 142.460938 C 140.109375 138.585938 139.351562 134.746094 138.417969 130.933594 C 134.789062 116.085938 130.941406 101.316406 125.667969 86.9375 C 122.105469 77.230469 118.773438 67.433594 115.347656 57.675781 C 111.585938 46.960938 107.746094 36.265625 105.089844 25.195312 C 104.65625 23.386719 104.609375 23.34375 103.457031 23.773438 C 99.785156 25.140625 96.125 26.542969 92.464844 27.945312 C 92.109375 28.082031 91.519531 28.214844 91.558594 28.605469 C 91.714844 30.074219 90.480469 30.328125 89.648438 30.839844 C 85.449219 33.433594 80.878906 35.265625 76.335938 37.144531 C 74.882812 37.746094 74.84375 37.839844 75.632812 39.117188 C 79.300781 45.066406 82.359375 51.34375 85.550781 57.546875 C 89.324219 64.875 92.46875 72.5 96.210938 79.832031 C 101.09375 89.390625 104.417969 99.421875 106.167969 109.988281 C 106.964844 114.800781 107.390625 119.644531 106.183594 124.441406 C 105.082031 128.824219 103.617188 133.101562 101.683594 137.203125 C 100.417969 139.878906 98.671875 142.210938 96.53125 144.242188 C 93.082031 147.511719 89.285156 150.296875 85.007812 152.382812 C 82.617188 153.546875 80.1875 154.628906 77.78125 155.753906 C 68.894531 159.890625 59.753906 163.25 50.074219 165.027344 C 43.871094 166.167969 37.667969 167.316406 31.679688 169.402344 C 27.851562 170.738281 24.214844 172.5625 20.332031 173.761719 C 19.15625 174.125 18.882812 175.140625 19.820312 176.070312 C 20.851562 177.09375 21.15625 178.328125 21.433594 179.625 C 21.808594 181.378906 22.203125 183.128906 22.515625 184.894531 C 23.398438 189.871094 23.621094 194.933594 24.34375 199.929688 C 24.617188 201.820312 24.617188 201.820312 27.160156 201.730469 Z M 145.710938 127.113281 C 146.066406 121.359375 130.554688 70.972656 127.242188 67.382812 C 128.058594 70.359375 128.914062 73.328125 129.902344 76.25 C 132.453125 83.789062 135.109375 91.300781 137.265625 98.960938 C 139.660156 107.488281 142.21875 115.984375 143.585938 124.769531 C 143.773438 125.972656 144.503906 126.738281 145.710938 127.113281 Z M 194.203125 365.859375 L 194.238281 365.847656 C 194.488281 366.71875 194.804688 367.558594 195.496094 368.195312 C 195.714844 367.511719 195.535156 366.878906 195.242188 366.261719 C 194.894531 366.128906 194.550781 365.992188 194.203125 365.859375 Z M 194.203125 365.859375 C 194.183594 364.761719 193.621094 363.898438 193.003906 363.054688 L 193.050781 363.035156 C 193.152344 364.097656 193.679688 364.976562 194.238281 365.847656 Z M 163.472656 278.03125 C 163.386719 277.457031 163.394531 276.832031 162.640625 276.378906 C 162.699219 277.210938 163.023438 277.648438 163.515625 277.984375 Z M 140.519531 260.421875 C 140.859375 260.257812 141.144531 260.125 141.441406 259.980469 C 140.976562 259.757812 140.777344 260.078125 140.519531 260.421875 Z M 192.242188 361.414062 L 192.203125 361.46875 C 192.207031 360.917969 192.207031 360.371094 192.210938 359.824219 C 192.210938 359.824219 192.25 359.890625 192.25 359.890625 C 191.96875 359.546875 191.691406 359.199219 191.414062 358.855469 C 191.351562 359.816406 191.863281 360.589844 192.242188 361.414062 Z M 81.210938 74.476562 C 81.242188 74.59375 81.261719 74.734375 81.339844 74.816406 C 81.445312 74.921875 81.554688 74.851562 81.523438 74.683594 C 81.503906 74.582031 81.398438 74.496094 81.332031 74.402344 C 81.289062 74.429688 81.207031 74.464844 81.210938 74.476562 Z M 82.324219 76.730469 C 82.3125 76.730469 82.285156 76.941406 82.324219 77.023438 C 82.371094 77.132812 82.46875 77.265625 82.570312 77.296875 C 82.710938 77.339844 82.769531 77.21875 82.714844 77.050781 C 82.644531 76.867188 82.546875 76.714844 82.324219 76.730469 Z M 296.722656 210.453125 C 296.628906 210.5 296.527344 210.632812 296.527344 210.730469 C 296.527344 210.863281 296.65625 210.886719 296.78125 210.777344 C 296.867188 210.695312 296.941406 210.605469 297.027344 210.515625 C 296.917969 210.488281 296.792969 210.417969 296.722656 210.453125 Z M 193.003906 363.054688 C 193.023438 362.382812 192.867188 361.796875 192.203125 361.46875 C 192.203125 361.46875 192.242188 361.414062 192.242188 361.414062 C 192.398438 362.007812 192.527344 362.621094 193.050781 363.035156 Z M 163.515625 277.984375 C 163.480469 278.679688 163.992188 279.183594 164.148438 279.808594 C 164.152344 279.804688 164.144531 279.816406 164.144531 279.816406 C 164.433594 279.027344 164.289062 278.402344 163.472656 278.03125 C 163.472656 278.03125 163.515625 277.984375 163.515625 277.984375 Z M 195.390625 82.226562 C 195.550781 80.382812 194.726562 78.75 194.257812 77.046875 C 193.53125 74.394531 192.726562 71.765625 191.957031 69.125 C 192.363281 71.929688 193.074219 74.648438 193.894531 77.332031 C 194.394531 78.957031 194.507812 80.707031 195.425781 82.199219 C 195.425781 82.199219 195.390625 82.226562 195.390625 82.226562 Z M 198.730469 90.390625 C 198.75 90.609375 198.878906 90.773438 199.101562 90.761719 C 199.339844 90.75 199.410156 90.554688 199.375 90.347656 C 199.34375 90.144531 199.234375 89.984375 199.003906 89.960938 C 198.761719 90.007812 198.714844 90.1875 198.730469 90.390625 Z M 190.871094 65.769531 C 190.976562 65.355469 190.785156 65.101562 190.429688 64.683594 C 190.414062 65.234375 190.585938 65.507812 190.871094 65.769531 Z M 196.507812 82.011719 C 196.722656 82.117188 196.84375 81.984375 196.816406 81.773438 C 196.804688 81.6875 196.6875 81.570312 196.597656 81.546875 C 196.539062 81.53125 196.441406 81.65625 196.363281 81.71875 C 196.410156 81.820312 196.429688 81.972656 196.507812 82.011719 Z M 198.484375 88.15625 C 198.429688 88.253906 198.320312 88.351562 198.332031 88.441406 C 198.339844 88.515625 198.476562 88.582031 198.558594 88.652344 C 198.621094 88.558594 198.6875 88.464844 198.75 88.371094 C 198.660156 88.300781 198.574219 88.226562 198.484375 88.15625 Z M 188.898438 57.890625 C 188.777344 57.828125 188.714844 57.898438 188.734375 58.066406 C 188.738281 58.125 188.746094 58.214844 188.78125 58.234375 C 188.902344 58.296875 188.960938 58.230469 188.941406 58.058594 C 188.929688 58 188.933594 57.910156 188.898438 57.890625 Z M 195.199219 77.511719 C 195.148438 77.671875 195.214844 77.769531 195.378906 77.769531 C 195.425781 77.769531 195.5 77.714844 195.515625 77.667969 C 195.558594 77.519531 195.484375 77.429688 195.328125 77.402344 C 195.285156 77.4375 195.210938 77.464844 195.199219 77.511719 Z M 197.164062 84.148438 C 197.164062 84.179688 197.257812 84.234375 197.3125 84.238281 C 197.46875 84.242188 197.5625 84.140625 197.5 84 C 197.460938 83.917969 197.320312 83.878906 197.226562 83.820312 C 197.203125 83.929688 197.167969 84.039062 197.164062 84.148438 Z M 256.09375 309.621094 C 256.195312 309.542969 256.316406 309.484375 256.402344 309.394531 C 256.550781 309.238281 256.589844 308.960938 256.417969 308.898438 C 256.171875 308.8125 256.1875 309.105469 256.152344 309.269531 C 256.128906 309.394531 256.136719 309.527344 256.128906 309.65625 C 256.128906 309.65625 256.09375 309.621094 256.09375 309.621094 Z M 256.09375 309.621094"/><path d="M 169.453125 39.324219 C 169.710938 40.730469 169.96875 42.136719 170.265625 43.78125 C 169.128906 42.097656 166.726562 29.0625 166.882812 25.78125 C 168.0625 31.691406 170.101562 37.164062 171.472656 43.25 C 172.03125 42.367188 171.859375 41.871094 171.785156 41.40625 C 170.394531 33.019531 169.238281 24.59375 168.097656 16.167969 C 167.636719 12.738281 167.605469 9.292969 168.3125 5.871094 C 168.339844 5.742188 168.347656 5.609375 168.382812 5.480469 C 168.996094 3.375 170.464844 2.75 172.1875 4.144531 C 173.285156 5.03125 174.066406 4.878906 175.207031 4.410156 C 178.550781 3.039062 182.121094 2.570312 185.679688 2.070312 C 190.882812 1.332031 196.148438 1.273438 201.363281 0.644531 C 201.6875 0.605469 202.035156 0.632812 202.355469 0.699219 C 203.40625 0.917969 204.292969 1.726562 205.234375 1.933594 C 206.261719 2.15625 207.199219 2.417969 208.109375 2.925781 C 209.773438 3.859375 210.8125 5.21875 211.230469 7.089844 C 212.527344 12.863281 214.28125 18.515625 215.960938 24.183594 C 218.359375 32.265625 220.46875 40.414062 222.132812 48.679688 C 223.652344 56.234375 225.386719 63.757812 226.539062 71.367188 C 227.976562 80.875 231.042969 89.898438 234.015625 98.960938 C 235.425781 103.246094 236.984375 107.488281 239.34375 111.382812 C 239.871094 112.253906 240.46875 113.050781 241.332031 113.570312 C 242.246094 114.121094 243.144531 114.511719 244.308594 113.902344 C 245.277344 113.398438 246.289062 113.417969 247.503906 113.933594 C 249.203125 114.652344 251.1875 114.195312 253.03125 114.027344 C 257.457031 113.628906 261.878906 113.148438 266.289062 112.585938 C 271.554688 111.917969 276.808594 111.128906 282.070312 110.402344 C 288.449219 109.523438 294.828125 108.648438 301.207031 107.777344 C 310.8125 106.46875 320.492188 105.769531 330.070312 104.25 C 331.390625 104.042969 332.683594 103.769531 333.953125 103.371094 C 334.527344 103.191406 335.089844 103.027344 335.699219 103 C 336.628906 102.957031 337.160156 103.179688 337.285156 104.265625 C 337.511719 106.226562 337.613281 106.238281 339.53125 105.699219 C 339.976562 105.570312 340.417969 105.414062 340.863281 105.28125 C 341.949219 104.949219 343.15625 105.417969 343.351562 106.46875 C 343.566406 107.65625 344.164062 108.535156 344.972656 109.328125 C 345.90625 110.238281 346.0625 111.445312 346.203125 112.621094 C 346.460938 114.796875 346.679688 116.984375 346.800781 119.171875 C 347.015625 122.953125 347.175781 126.738281 347.292969 130.527344 C 347.367188 132.816406 347.09375 133.195312 345.011719 133.890625 C 342.175781 134.839844 339.472656 136.003906 336.84375 137.488281 C 330.867188 140.867188 324.378906 142.71875 317.496094 143.195312 C 312.242188 143.5625 307.144531 144.890625 302.019531 146.023438 C 296.308594 147.292969 290.535156 148.1875 284.765625 149.117188 C 279.976562 149.890625 275.175781 150.585938 270.378906 151.300781 C 266.363281 151.898438 262.316406 152.191406 258.261719 152.289062 C 252.140625 152.429688 246.023438 152.289062 239.914062 151.894531 C 238.257812 151.785156 236.601562 151.601562 234.960938 151.359375 C 233.308594 151.121094 231.675781 150.949219 230 151.183594 C 228.46875 151.398438 226.953125 151.136719 225.460938 150.765625 C 220.144531 149.453125 215.003906 147.691406 210.308594 144.828125 C 209.179688 144.140625 208.144531 143.304688 207.054688 142.550781 C 206.441406 142.128906 205.820312 141.753906 206.101562 140.816406 C 206.195312 140.503906 205.984375 140.183594 205.777344 139.90625 C 204.777344 138.558594 203.296875 137.527344 203.003906 135.710938 C 200.1875 133.429688 198.496094 130.292969 196.757812 127.234375 C 194.957031 124.0625 193.355469 120.773438 191.769531 117.484375 C 190.203125 114.246094 189.191406 110.792969 188.140625 107.359375 C 183.171875 91.089844 178.765625 74.667969 174.941406 58.09375 C 173.550781 52.066406 171.8125 46.144531 170.1875 40.1875 C 170.105469 39.875 169.941406 39.582031 169.8125 39.28125 C 169.691406 39.292969 169.574219 39.308594 169.453125 39.324219 Z M 195.390625 82.226562 C 195.832031 82.484375 195.9375 82.933594 196.0625 83.378906 C 196.480469 84.894531 196.828125 86.441406 197.351562 87.925781 C 197.796875 89.199219 197.824219 90.667969 198.929688 91.675781 C 198.835938 91.839844 198.6875 91.992188 198.660156 92.164062 C 198.628906 92.386719 198.558594 92.722656 198.964844 92.679688 C 199.019531 92.671875 199.085938 92.34375 199.070312 92.171875 C 199.054688 91.988281 198.949219 91.8125 198.882812 91.632812 C 199.722656 91.796875 199.980469 92.402344 200.222656 93.160156 C 201.882812 98.339844 203.605469 103.5 205.292969 108.671875 C 206.722656 113.046875 208.65625 117.160156 211.097656 121.089844 C 214.28125 126.210938 218.148438 130.753906 222.3125 135.054688 C 225.464844 138.308594 229.410156 140.390625 233.769531 141.628906 C 236.132812 142.296875 238.527344 142.863281 240.898438 143.511719 C 245.300781 144.710938 249.765625 145.238281 254.320312 144.730469 C 259.605469 144.148438 264.878906 143.46875 270.195312 143.222656 C 274.785156 143.007812 279.320312 142.453125 283.824219 141.507812 C 297.085938 138.730469 310.367188 136.039062 323.632812 133.273438 C 326.949219 132.578125 330.28125 131.960938 333.519531 130.929688 C 334.53125 130.605469 335.027344 130.144531 334.949219 128.945312 C 334.667969 124.632812 334.535156 120.3125 334.292969 116 C 334.183594 114.011719 333.9375 112.027344 333.78125 110.042969 C 333.707031 109.089844 333.226562 108.765625 332.324219 108.960938 C 331.933594 109.042969 331.542969 109.121094 331.148438 109.1875 C 327.9375 109.722656 324.738281 110.347656 321.511719 110.769531 C 312.820312 111.90625 304.164062 113.257812 295.515625 114.675781 C 294.359375 114.867188 293.140625 115.304688 291.894531 114.761719 C 294.308594 113.972656 296.8125 113.664062 299.273438 113.136719 C 301.710938 112.621094 304.238281 112.480469 306.574219 111.511719 C 302.714844 111.75 298.914062 112.375 295.132812 113.085938 C 291.09375 113.84375 287.109375 114.90625 283.058594 115.582031 C 278.089844 116.414062 273.078125 117.023438 268.074219 117.65625 C 265.507812 117.980469 262.898438 118.46875 260.339844 118.316406 C 256.152344 118.070312 251.976562 118.085938 247.792969 118.128906 C 246.664062 118.136719 245.515625 118.460938 244.417969 118.316406 C 240.585938 117.804688 236.863281 116.921875 233.429688 115 C 229.492188 112.796875 227.160156 109.5625 226.539062 105.097656 C 226.410156 104.171875 226.179688 103.273438 225.8125 102.414062 C 224.71875 99.84375 223.855469 97.191406 222.929688 94.558594 C 220.96875 88.984375 219.480469 83.25 217.359375 77.726562 C 216.292969 74.949219 216.066406 71.878906 214.40625 69.3125 C 214.554688 67.441406 213.511719 65.886719 213.082031 64.175781 C 212.085938 60.191406 211.199219 56.179688 210.386719 52.152344 C 208.96875 45.132812 207.625 38.09375 206.285156 31.054688 C 205.300781 25.90625 204.40625 20.738281 203.398438 15.59375 C 202.808594 12.601562 202.730469 9.519531 201.722656 6.601562 C 201.191406 5.0625 201.222656 4.976562 199.65625 5.144531 C 197.410156 5.386719 195.179688 5.742188 192.941406 6.066406 C 192.625 6.113281 192.296875 6.25 192.296875 6.640625 C 192.382812 7.042969 192.683594 7.199219 192.953125 7.390625 C 193.230469 7.582031 193.484375 7.796875 193.390625 8.207031 C 192.617188 8.648438 191.75 8.640625 190.890625 8.730469 C 187.585938 9.074219 184.257812 9.25 181.011719 9.996094 C 179.3125 10.390625 177.675781 10.675781 176.140625 9.53125 C 175.605469 10.574219 175.730469 11.46875 175.957031 12.386719 C 177.535156 18.761719 179.257812 25.101562 180.675781 31.519531 C 181.933594 37.21875 183.355469 42.882812 184.617188 48.578125 C 185.742188 53.660156 187.050781 58.6875 188.34375 63.722656 C 188.9375 66.039062 189.738281 68.285156 190.433594 70.5625 C 190.675781 71.367188 190.574219 72.210938 190.984375 73.042969 C 191.722656 74.546875 192.003906 76.253906 192.394531 77.871094 C 192.867188 79.835938 193.46875 81.761719 193.945312 83.722656 C 194.597656 86.386719 195.382812 89.019531 196.117188 91.664062 C 196.75 93.957031 197.332031 96.28125 198.054688 98.535156 C 199.242188 102.230469 200.246094 105.980469 201.507812 109.648438 C 202.519531 112.589844 203.613281 115.519531 205.214844 118.1875 C 208.566406 123.773438 212.324219 129.070312 216.929688 133.734375 C 218.554688 135.382812 220.1875 136.964844 222.46875 137.730469 C 219.792969 135.480469 217.546875 132.824219 215.269531 130.207031 C 209.890625 124.027344 205.660156 117.160156 203.175781 109.320312 C 201.117188 102.8125 199.140625 96.273438 197.292969 89.703125 C 196.59375 87.230469 195.640625 84.800781 195.425781 82.199219 Z M 336.835938 113.863281 C 337.5 113.148438 337.5 112.390625 337.726562 111.722656 C 338.085938 110.652344 338.414062 109.5625 339.214844 108.710938 C 339.488281 108.421875 339.796875 108.109375 340.222656 108.453125 C 340.550781 108.722656 340.414062 109.054688 340.25 109.355469 C 339.492188 110.742188 339.464844 112.324219 339.3125 113.800781 C 338.910156 117.789062 338.964844 121.808594 339.121094 125.816406 C 339.164062 126.875 338.960938 127.929688 339.136719 128.980469 C 339.175781 129.234375 339.25 129.527344 339.597656 129.523438 C 339.875 129.523438 340.164062 129.394531 340.25 129.152344 C 340.371094 128.785156 340.433594 128.382812 340.429688 127.996094 C 340.414062 126.539062 340.355469 125.082031 340.316406 123.621094 C 340.203125 119.046875 340.1875 114.472656 340.917969 109.9375 C 341.34375 107.292969 341.257812 107.15625 338.652344 107.734375 C 337.875 107.90625 337.066406 108.027344 336.925781 109.070312 C 336.71875 110.613281 336.589844 112.148438 336.835938 113.863281 Z M 225.335938 139.417969 C 225.179688 139.285156 225.054688 139.164062 224.917969 139.0625 C 224.789062 138.972656 224.613281 139.03125 224.648438 139.132812 C 224.695312 139.285156 224.839844 139.425781 224.976562 139.519531 C 225.03125 139.558594 225.179688 139.464844 225.335938 139.417969 Z M 234.425781 241.96875 C 234.425781 232.972656 236.148438 225.121094 239.269531 217.527344 C 240.722656 213.988281 242.773438 210.851562 244.984375 207.773438 C 246.1875 206.097656 247.519531 204.53125 248.773438 202.90625 C 249.308594 202.210938 250.351562 201.535156 249.238281 200.425781 C 248.925781 200.113281 249.347656 199.691406 249.625 199.410156 C 250.382812 198.644531 251.304688 198.101562 252.265625 197.644531 C 254.128906 196.765625 256.023438 195.96875 257.976562 195.296875 C 265.136719 192.828125 272.332031 190.453125 279.261719 187.367188 C 292.101562 183.640625 304.382812 178.34375 317.003906 173.996094 C 324.328125 171.476562 331.855469 169.929688 339.492188 168.828125 C 343.238281 168.285156 346.949219 167.488281 350.769531 167.527344 C 353.066406 167.546875 355.257812 167.996094 357.394531 168.777344 C 358.5625 169.207031 358.621094 169.621094 357.699219 170.402344 C 357.230469 170.804688 356.722656 171.09375 356.09375 171.121094 C 351.0625 171.332031 346.347656 173.125 341.453125 174 C 336.023438 174.972656 330.636719 176.128906 325.332031 177.609375 C 323.132812 178.222656 320.996094 179.144531 318.84375 179.945312 C 311.875 182.53125 305.101562 185.609375 298.007812 187.882812 C 291.496094 189.96875 284.921875 191.835938 278.367188 193.777344 C 275.167969 194.726562 272.328125 196.410156 269.425781 197.988281 C 265.5625 200.089844 262.4375 203.148438 259 205.804688 C 257.941406 206.621094 257.335938 207.820312 256.605469 208.902344 C 254.808594 211.570312 253.355469 214.503906 252.679688 217.570312 C 252.054688 220.402344 251.335938 223.234375 250.78125 226.09375 C 249.269531 233.867188 249.246094 241.679688 249.925781 249.523438 C 250.226562 252.964844 250.554688 256.402344 250.875 259.84375 C 251.300781 264.382812 252.863281 268.648438 254.128906 272.976562 C 256.363281 280.628906 258.714844 288.246094 261.582031 295.695312 C 264.019531 302.019531 266.453125 308.34375 268.851562 314.679688 C 271.648438 322.074219 274.390625 329.492188 277.1875 336.886719 C 278.035156 339.125 279.03125 341.304688 280.203125 343.394531 C 280.960938 344.75 281.097656 344.785156 282.496094 344.046875 C 286.542969 341.90625 290.582031 339.75 294.609375 337.578125 C 295.882812 336.894531 295.875 336.816406 295.316406 335.390625 C 293.382812 330.453125 291.207031 325.613281 289.402344 320.625 C 287.78125 316.132812 286.144531 311.640625 284.117188 307.308594 C 283.246094 305.441406 282.207031 303.667969 280.996094 301.992188 C 279.148438 299.433594 278.164062 296.449219 276.957031 293.578125 C 272.875 283.878906 270.804688 273.667969 269.523438 263.289062 C 268.921875 258.390625 269.332031 253.457031 269.878906 248.566406 C 270.515625 242.882812 271.605469 237.277344 272.925781 231.710938 C 274.578125 224.753906 278.515625 219.613281 284.8125 216.269531 C 286.863281 215.179688 288.949219 214.148438 291.046875 213.144531 C 292.199219 212.589844 293.257812 211.867188 294.746094 212.597656 C 295.671875 213.050781 296.832031 212.34375 297.789062 211.964844 C 301.097656 210.660156 304.378906 209.28125 307.597656 207.742188 C 308.277344 207.414062 308.679688 206.863281 309.332031 206.535156 C 311.527344 205.429688 313.890625 204.808594 316.1875 204.023438 C 324.484375 201.183594 332.964844 198.984375 341.53125 197.109375 C 345.550781 196.226562 349.554688 195.265625 353.5625 194.324219 C 356.074219 193.730469 356.214844 193.558594 356.011719 190.980469 C 355.808594 188.402344 355.46875 185.835938 355.316406 183.257812 C 355.125 180.011719 354.65625 176.769531 355.027344 173.511719 C 355.246094 171.617188 355.449219 171.480469 357.378906 172.050781 C 357.910156 172.207031 358.269531 171.925781 358.691406 171.804688 C 360.398438 171.3125 361.34375 171.875 361.582031 173.65625 C 361.96875 176.542969 362.253906 179.445312 362.65625 182.332031 C 363.121094 185.683594 363.328125 189.050781 363.386719 192.425781 C 363.402344 193.367188 363.800781 194.066406 364.351562 194.75 C 364.980469 195.527344 364.859375 196.121094 364.003906 196.71875 C 362.355469 197.867188 360.601562 198.769531 358.730469 199.492188 C 352.007812 202.078125 344.988281 203.601562 338.050781 205.425781 C 323.429688 209.269531 309.238281 214.296875 295.628906 220.960938 C 287.394531 224.992188 282.199219 231.382812 279.546875 240.011719 C 278.4375 243.628906 277.519531 247.257812 277.285156 251.089844 C 277.175781 252.859375 276.84375 254.667969 277.050781 256.414062 C 277.371094 259.15625 277.117188 261.9375 277.726562 264.644531 C 277.769531 264.839844 277.796875 265.042969 277.78125 265.238281 C 277.5625 268.398438 278.660156 271.195312 280.15625 273.882812 C 280.933594 275.285156 281.535156 276.765625 281.984375 278.296875 C 284.519531 286.921875 288.113281 295.152344 291.433594 303.480469 C 295.222656 312.988281 298.898438 322.539062 301.753906 332.378906 C 302.527344 335.042969 303.28125 337.699219 303.054688 340.582031 C 302.96875 341.609375 302.703125 341.976562 301.917969 342.292969 C 299.890625 343.121094 297.886719 344.023438 295.832031 344.78125 C 290.28125 346.824219 284.730469 348.867188 278.894531 349.988281 C 277.527344 350.25 276.140625 350.429688 274.765625 350.652344 C 273.554688 350.847656 272.554688 350.480469 271.707031 349.589844 C 270.921875 348.769531 270.21875 347.890625 269.589844 346.949219 C 267.960938 344.511719 266.539062 341.957031 265.265625 339.320312 C 257.707031 323.683594 251.085938 307.671875 246.023438 291.042969 C 244.246094 285.199219 242.816406 279.246094 240.625 273.53125 C 237.460938 265.28125 235.851562 256.679688 234.808594 247.953125 C 234.539062 245.714844 234.515625 243.445312 234.425781 241.96875 Z M 259.273438 315.125 C 258.628906 315.042969 258.59375 314.179688 257.945312 314.09375 C 258.378906 315.863281 258.378906 315.863281 259.597656 316.082031 C 261.226562 318.40625 261.796875 321.277344 263.574219 323.542969 C 261.125 317.421875 258.542969 311.355469 256.546875 305.058594 C 254.523438 298.675781 252.339844 292.34375 250.644531 285.871094 C 248.976562 279.484375 247.554688 273.03125 246.023438 266.609375 C 245.484375 267.972656 245.871094 269.234375 246.199219 270.476562 C 246.417969 271.308594 246.390625 271.953125 245.472656 272.191406 C 244.386719 272.476562 244.4375 273.101562 244.652344 274.007812 C 245.65625 278.257812 247.078125 282.390625 248.34375 286.5625 C 250.164062 292.570312 251.777344 298.652344 254.074219 304.511719 C 254.746094 306.230469 255.050781 308.097656 256.128906 309.65625 L 256.09375 309.621094 C 256.222656 310.628906 256.550781 311.484375 257.429688 312.152344 C 258.394531 312.882812 258.929688 313.964844 259.273438 315.125 Z M 273.726562 348.5625 C 273.792969 347.539062 273.285156 347.140625 273 346.644531 C 272.125 345.089844 271.152344 343.582031 270.351562 341.988281 C 267.28125 335.898438 264.84375 329.535156 262.265625 323.234375 C 261.820312 322.148438 261.589844 320.84375 260.378906 320.042969 C 260.007812 320.664062 260.03125 321.140625 260.257812 321.664062 C 261.945312 325.609375 263.628906 329.558594 265.300781 333.507812 C 266.894531 337.28125 268.386719 341.097656 270.511719 344.617188 C 271.351562 346.003906 272.054688 347.511719 273.726562 348.5625 Z M 246.648438 238.59375 C 246.484375 239.910156 246.28125 241.199219 246.746094 242.457031 C 246.910156 241.152344 247.125 239.847656 246.648438 238.59375 Z M 280.71875 224.261719 C 278.980469 225.363281 278.980469 225.367188 279.078125 226.742188 C 279.6875 225.820312 280.203125 225.039062 280.71875 224.261719 Z M 247.003906 236.226562 C 246.945312 236.109375 246.863281 235.949219 246.78125 235.792969 C 246.710938 235.882812 246.582031 235.972656 246.578125 236.070312 C 246.566406 236.246094 246.570312 236.53125 246.667969 236.582031 C 246.890625 236.703125 246.933594 236.457031 247.003906 236.226562 Z M 252.167969 202.472656 C 252.144531 202.308594 252.039062 202.238281 251.886719 202.316406 C 251.78125 202.367188 251.625 202.472656 251.621094 202.558594 C 251.609375 202.796875 251.773438 202.910156 251.988281 202.796875 C 252.082031 202.746094 252.113281 202.585938 252.167969 202.472656 Z M 191.011719 358.230469 C 189.113281 353.40625 187.796875 348.386719 186.144531 343.476562 C 183.5625 335.796875 180.546875 328.269531 178.167969 320.515625 C 177.785156 319.273438 177.320312 318.042969 177.355469 316.679688 C 181.398438 327.515625 185.21875 338.425781 189.710938 349.121094 C 189.476562 348.113281 189.246094 347.105469 189.011719 346.097656 C 189.109375 346.058594 189.207031 346.019531 189.304688 345.976562 C 189.921875 347.566406 190.675781 349.113281 191.117188 350.746094 C 191.699219 352.875 192.5 354.863281 193.554688 356.800781 C 194.597656 358.71875 195.332031 360.796875 196.210938 362.800781 C 196.285156 362.972656 196.410156 363.117188 196.5 363.257812 C 196.832031 363.234375 196.8125 363.039062 196.746094 362.859375 C 195.546875 359.546875 194.710938 356.140625 193.949219 352.699219 C 193.570312 350.980469 192.84375 349.3125 192.109375 347.699219 C 190.734375 344.683594 189.710938 341.554688 188.726562 338.40625 C 187.144531 333.324219 185.210938 328.390625 182.878906 323.597656 C 181.695312 321.160156 180.597656 318.609375 179.9375 315.992188 C 177.558594 306.589844 173.175781 298.023438 169.105469 289.328125 C 167.589844 286.089844 166.144531 282.800781 164.148438 279.808594 C 164.152344 279.804688 164.144531 279.816406 164.144531 279.816406 C 164.851562 279.800781 165.171875 280.578125 165.773438 280.742188 C 166.089844 280.308594 165.867188 280.019531 165.734375 279.730469 C 163.480469 274.882812 160.570312 270.453125 157.160156 266.351562 C 154.960938 263.703125 152.25 261.695312 149.136719 260.222656 C 147.804688 259.589844 146.375 259.453125 144.949219 259.167969 C 141.089844 258.390625 137.984375 260.222656 134.695312 261.539062 C 134.453125 261.636719 134.234375 261.824219 133.984375 261.890625 C 126.378906 263.941406 119.363281 267.519531 112.09375 270.433594 C 97.289062 276.371094 82.316406 281.859375 67.394531 287.488281 C 63.53125 288.945312 59.886719 290.882812 56.097656 292.5 C 54.054688 293.371094 52.050781 294.136719 49.765625 293.378906 C 48.878906 293.085938 47.914062 293.355469 47.011719 293.589844 C 45.300781 294.035156 44.042969 293.414062 43.03125 292.054688 C 41.941406 290.597656 41.222656 288.957031 40.597656 287.273438 C 38.742188 282.277344 37.53125 277.097656 36.25 271.941406 C 35.769531 270.007812 35.363281 268.054688 35.019531 266.09375 C 34.875 265.257812 34.621094 264.71875 33.695312 264.691406 C 33.433594 264.683594 33.167969 264.609375 32.917969 264.527344 C 31.785156 264.15625 31.488281 263.464844 31.996094 262.378906 C 32.382812 261.558594 33.132812 261.089844 33.828125 260.589844 C 37.078125 258.269531 40.382812 256.007812 43.960938 254.238281 C 56.828125 247.875 69.460938 241.03125 82.625 235.261719 C 94.6875 229.976562 106.910156 225.140625 119.671875 221.753906 C 127.191406 219.753906 134.855469 218.472656 142.488281 217.03125 C 148.636719 215.871094 154.789062 214.964844 161.066406 215.03125 C 168.527344 215.113281 175.546875 216.898438 182.09375 220.433594 C 186.585938 222.859375 189.699219 226.644531 191.769531 231.242188 C 193.816406 235.785156 195.679688 240.410156 197.601562 245.007812 C 198.015625 245.996094 198.457031 246.882812 199.328125 247.613281 C 200.34375 248.46875 200.949219 249.707031 201.5625 250.890625 C 204.789062 257.09375 207.195312 263.632812 209.417969 270.246094 C 212.351562 278.984375 214.902344 287.839844 217.453125 296.695312 C 219.386719 303.390625 221.21875 310.113281 223.355469 316.746094 C 226.246094 325.726562 229.351562 334.628906 232.503906 343.519531 C 233.925781 347.527344 235.429688 351.503906 236.90625 355.492188 C 237.453125 356.960938 237.3125 357.710938 236.042969 358.578125 C 235.171875 359.171875 234.199219 359.632812 233.230469 360.074219 C 231.601562 360.816406 229.929688 361.476562 228.289062 362.207031 C 225.867188 363.289062 223.574219 364.539062 221.417969 366.164062 C 216.527344 369.851562 210.917969 372.128906 204.96875 373.503906 C 201.285156 374.355469 198.648438 373.1875 196.628906 370.011719 C 196.246094 369.414062 195.496094 369.027344 195.496094 368.195312 C 195.714844 367.511719 195.535156 366.878906 195.242188 366.261719 C 195.042969 365.785156 194.875 365.292969 194.640625 364.832031 C 193.792969 363.179688 193.457031 361.28125 192.210938 359.824219 L 192.25 359.890625 C 192.21875 359.210938 191.992188 358.578125 191.628906 358.023438 C 191.34375 357.589844 191.105469 357.8125 191.011719 358.230469 Z M 202.882812 358.789062 C 202.9375 358.433594 203.257812 358.109375 203.023438 357.703125 C 202.503906 358.015625 202.894531 358.410156 202.902344 358.765625 C 203.328125 359.648438 203.304688 360.890625 204.695312 361 C 204.089844 361.789062 204.207031 362.472656 205.007812 363.046875 C 205.292969 364.289062 206.015625 365.164062 207.15625 365.691406 C 206.175781 365.035156 206.429688 363.320312 204.964844 363.078125 C 205.277344 362.332031 205.226562 361.644531 204.652344 361.035156 C 203.992188 360.34375 203.808594 359.273438 202.882812 358.789062 Z M 173.855469 223.164062 C 173.3125 222.597656 172.726562 222.339844 172.109375 222.066406 C 166.972656 219.773438 161.570312 219.375 156.085938 219.933594 C 147.535156 220.804688 139.183594 222.722656 130.960938 225.1875 C 116.480469 229.527344 102.527344 235.25 88.800781 241.523438 C 80.402344 245.359375 72.167969 249.558594 63.785156 253.4375 C 58.109375 256.066406 52.464844 258.722656 47.039062 261.832031 C 45.710938 262.589844 44.355469 263.289062 42.902344 263.800781 C 41.585938 264.265625 41.550781 264.316406 41.933594 265.632812 C 43.042969 269.425781 44.140625 273.222656 45.347656 276.984375 C 46.335938 280.066406 47.316406 283.160156 48.71875 286.089844 C 49.4375 287.59375 49.507812 287.632812 50.9375 286.996094 C 60.710938 282.636719 70.738281 278.917969 80.742188 275.132812 C 83.359375 274.144531 85.738281 272.503906 88.628906 272.265625 C 101.394531 267.492188 114.339844 263.246094 127.335938 259.148438 C 131.121094 257.957031 134.929688 256.839844 138.742188 255.734375 C 141.796875 254.847656 144.941406 254.640625 148.011719 255.429688 C 156.019531 257.484375 163.265625 260.921875 168.597656 267.539062 C 171.824219 271.535156 174.640625 275.808594 176.949219 280.394531 C 181.875 290.175781 185.265625 300.511719 187.875 311.125 C 188.796875 314.863281 189.714844 318.605469 191.066406 322.226562 C 193.359375 328.371094 195.609375 334.53125 197.847656 340.699219 C 199.566406 345.441406 201.199219 350.21875 202.949219 354.953125 C 203.988281 357.753906 205.078125 360.546875 206.527344 363.171875 C 208.410156 366.589844 209.265625 366.917969 212.914062 365.609375 C 216.355469 364.378906 219.726562 362.96875 223.207031 361.847656 C 226.242188 360.875 229.289062 359.914062 232.214844 358.628906 C 233.695312 357.980469 233.742188 357.816406 232.996094 356.429688 C 230.125 351.097656 227.742188 345.539062 225.507812 339.917969 C 222.855469 333.253906 220.304688 326.546875 217.6875 319.867188 C 217.453125 319.273438 217.433594 318.421875 216.71875 318.21875 C 215.433594 317.851562 215.054688 316.753906 214.546875 315.785156 C 213.460938 313.726562 212.617188 311.554688 211.839844 309.359375 C 207.808594 297.96875 204.367188 286.378906 200.03125 275.089844 C 198.894531 272.121094 197.917969 269.09375 196.816406 266.109375 C 194.578125 260.070312 191.765625 254.277344 189.113281 248.417969 C 186.535156 242.722656 183.84375 237.085938 180.046875 232.070312 C 178.152344 229.570312 176.046875 227.277344 173.339844 225.605469 C 172.472656 225.070312 172.433594 224.683594 173.109375 223.921875 C 173.320312 223.683594 173.714844 223.632812 173.855469 223.164062 Z M 163.597656 263.75 C 164.285156 264.546875 164.980469 265.34375 165.664062 266.148438 C 170.359375 271.683594 173.5 278.109375 176.296875 284.722656 C 177.898438 288.511719 179.292969 292.386719 180.554688 296.300781 C 181.128906 298.070312 182.101562 299.535156 183.386719 300.847656 C 183.367188 300.296875 183.246094 299.796875 183.09375 299.300781 C 182.023438 295.820312 180.667969 292.441406 179.460938 289.011719 C 177.488281 283.40625 174.992188 278.078125 171.785156 273.09375 C 169.527344 269.578125 167.152344 266.125 163.597656 263.75 Z M 215.386719 368.082031 C 212.898438 367.371094 210.625 368.328125 208.277344 368.621094 C 207.75 368.6875 207.230469 368.757812 206.851562 369.210938 C 206.632812 369.472656 206.390625 369.742188 206.472656 370.085938 C 206.554688 370.433594 206.871094 370.59375 207.222656 370.640625 C 208.082031 370.75 208.925781 370.765625 209.773438 370.46875 C 211.707031 369.792969 213.609375 369.039062 215.386719 368.082031 Z M 83.5 79.296875 C 83.839844 79.300781 83.894531 79.578125 84 79.804688 C 87.207031 86.472656 89.511719 93.457031 91.273438 100.632812 C 91.875 103.082031 92.558594 105.503906 93.046875 107.984375 C 93.878906 112.21875 94.359375 116.449219 94.113281 120.78125 C 93.8125 126.066406 92.328125 131.046875 90.632812 135.996094 C 90.351562 136.816406 90.097656 137.617188 90.046875 138.5 C 89.96875 140.023438 89.046875 141.210938 88.289062 142.449219 C 87.949219 143.003906 87.578125 143.535156 87.347656 144.167969 C 89.839844 142.457031 91.578125 140.125 92.886719 137.441406 C 92.378906 134.867188 94.414062 133.191406 95.21875 131.089844 C 97.289062 125.667969 98.472656 120.109375 97.972656 114.339844 C 97.25 105.964844 95.429688 97.800781 92.496094 89.90625 C 90.082031 83.417969 87.121094 77.175781 84.148438 70.9375 C 82.550781 67.582031 80.957031 64.226562 79.371094 60.871094 C 78.089844 58.164062 76.789062 55.453125 74.839844 53.164062 C 72.988281 50.992188 72.210938 48.136719 70.074219 46.210938 C 70.503906 45.722656 70.921875 46.261719 71.28125 46 C 71.574219 45.535156 71.144531 45.257812 70.941406 44.960938 C 69.308594 42.539062 67.628906 40.144531 66.007812 37.714844 C 65.535156 37.011719 64.570312 36.207031 64.960938 35.476562 C 65.359375 34.730469 65.800781 33.871094 66.496094 33.257812 C 68.246094 31.714844 70.097656 30.324219 72.128906 29.164062 C 80.519531 24.355469 89.5 20.875 98.503906 17.457031 C 99.246094 17.175781 100.019531 16.953125 100.796875 16.804688 C 101.289062 16.710938 101.839844 16.523438 102.3125 16.972656 C 102.84375 17.472656 103.289062 17.597656 103.617188 16.714844 C 103.804688 16.21875 104.332031 16.15625 104.816406 16.246094 C 105.339844 16.339844 105.941406 16.347656 106.355469 16.621094 C 108.667969 18.148438 111.070312 19.605469 112.050781 22.453125 C 116.054688 34.074219 120.054688 45.695312 124.09375 57.304688 C 125.535156 61.445312 127.335938 65.449219 129.105469 69.457031 C 136.417969 86.035156 142.023438 103.175781 146.019531 120.839844 C 146.679688 123.757812 147.0625 126.726562 147.164062 129.726562 C 147.292969 133.574219 148.066406 137.375 147.929688 141.253906 C 147.78125 145.597656 147.164062 149.851562 146.117188 154.058594 C 145.5625 156.285156 144.4375 158.230469 143.214844 160.144531 C 139.109375 166.554688 133.789062 171.78125 127.777344 176.390625 C 121.296875 181.355469 114.136719 185.101562 106.796875 188.582031 C 96.660156 193.386719 85.914062 196.394531 75.214844 199.570312 C 71.148438 200.777344 67.015625 201.773438 63.058594 203.390625 C 59.210938 204.957031 55.058594 205.296875 50.964844 205.78125 C 45.613281 206.414062 40.226562 206.636719 34.855469 207.050781 C 32.730469 207.214844 30.621094 207.503906 28.511719 207.019531 C 27.542969 206.800781 26.597656 206.453125 25.621094 206.28125 C 25.046875 206.179688 24.425781 206.246094 23.84375 206.347656 C 22.917969 206.503906 23.378906 207.230469 23.289062 207.769531 C 23.171875 208.492188 21.332031 208.808594 20.789062 208.21875 C 20.570312 207.984375 20.394531 207.675781 20.289062 207.371094 C 19.972656 206.457031 19.3125 206.058594 18.410156 205.804688 C 14.472656 204.695312 13.382812 203.296875 13.023438 199.203125 C 12.785156 196.484375 12.675781 193.761719 12.636719 191.035156 C 12.554688 185.242188 12.0625 179.5 10.46875 173.890625 C 10.308594 173.324219 10.207031 172.710938 10.230469 172.125 C 10.289062 170.78125 10.738281 170.28125 12.09375 170 C 15.296875 169.332031 18.304688 168.0625 21.394531 167.039062 C 25.570312 165.652344 29.800781 164.664062 34.269531 164.667969 C 36.917969 164.667969 39.472656 163.664062 42.066406 163.085938 C 52.519531 160.757812 62.3125 156.671875 71.789062 151.773438 C 72.378906 151.46875 72.957031 151.140625 73.539062 150.820312 C 81.457031 146.46875 86.980469 140.167969 89.8125 131.480469 C 91.601562 125.992188 92.988281 120.488281 92.390625 114.675781 C 91.75 108.453125 90.617188 102.316406 89.097656 96.246094 C 87.722656 90.757812 85.957031 85.398438 83.726562 80.195312 C 83.609375 79.917969 83.320312 79.660156 83.5 79.296875 Z M 27.160156 201.730469 C 31.644531 201.28125 36.738281 200.796875 41.757812 199.765625 C 49.507812 198.179688 57.152344 196.140625 64.839844 194.273438 C 79.28125 190.757812 93.253906 185.980469 106.640625 179.382812 C 118.308594 173.628906 128.527344 166.359375 136.035156 155.550781 C 138.410156 152.132812 139.835938 148.421875 140.722656 144.441406 C 140.859375 143.8125 140.804688 143.109375 140.707031 142.460938 C 140.109375 138.585938 139.351562 134.746094 138.417969 130.933594 C 134.789062 116.085938 130.941406 101.316406 125.667969 86.9375 C 122.105469 77.230469 118.773438 67.433594 115.347656 57.675781 C 111.585938 46.960938 107.746094 36.265625 105.089844 25.195312 C 104.65625 23.386719 104.609375 23.34375 103.457031 23.773438 C 99.785156 25.140625 96.125 26.542969 92.464844 27.945312 C 92.109375 28.082031 91.519531 28.214844 91.558594 28.605469 C 91.714844 30.074219 90.480469 30.328125 89.648438 30.839844 C 85.449219 33.433594 80.878906 35.265625 76.335938 37.144531 C 74.882812 37.746094 74.84375 37.839844 75.632812 39.117188 C 79.300781 45.066406 82.359375 51.34375 85.550781 57.546875 C 89.324219 64.875 92.46875 72.5 96.210938 79.832031 C 101.09375 89.390625 104.417969 99.421875 106.167969 109.988281 C 106.964844 114.800781 107.390625 119.644531 106.183594 124.441406 C 105.082031 128.824219 103.617188 133.101562 101.683594 137.203125 C 100.417969 139.878906 98.671875 142.210938 96.53125 144.242188 C 93.082031 147.511719 89.285156 150.296875 85.007812 152.382812 C 82.617188 153.546875 80.1875 154.628906 77.78125 155.753906 C 68.894531 159.890625 59.753906 163.25 50.074219 165.027344 C 43.871094 166.167969 37.667969 167.316406 31.679688 169.402344 C 27.851562 170.738281 24.214844 172.5625 20.332031 173.761719 C 19.15625 174.125 18.882812 175.140625 19.820312 176.070312 C 20.851562 177.09375 21.15625 178.328125 21.433594 179.625 C 21.808594 181.378906 22.203125 183.128906 22.515625 184.894531 C 23.398438 189.871094 23.621094 194.933594 24.34375 199.929688 C 24.617188 201.820312 24.617188 201.820312 27.160156 201.730469 Z M 145.710938 127.113281 C 146.066406 121.359375 130.554688 70.972656 127.242188 67.382812 C 128.058594 70.359375 128.914062 73.328125 129.902344 76.25 C 132.453125 83.789062 135.109375 91.300781 137.265625 98.960938 C 139.660156 107.488281 142.21875 115.984375 143.585938 124.769531 C 143.773438 125.972656 144.503906 126.738281 145.710938 127.113281 Z M 194.203125 365.859375 L 194.238281 365.847656 C 194.488281 366.71875 194.804688 367.558594 195.496094 368.195312 C 195.714844 367.511719 195.535156 366.878906 195.242188 366.261719 C 194.894531 366.128906 194.550781 365.992188 194.203125 365.859375 Z M 194.203125 365.859375 C 194.183594 364.761719 193.621094 363.898438 193.003906 363.054688 L 193.050781 363.035156 C 193.152344 364.097656 193.679688 364.976562 194.238281 365.847656 Z M 163.472656 278.03125 C 163.386719 277.457031 163.394531 276.832031 162.640625 276.378906 C 162.699219 277.210938 163.023438 277.648438 163.515625 277.984375 Z M 140.519531 260.421875 C 140.859375 260.257812 141.144531 260.125 141.441406 259.980469 C 140.976562 259.757812 140.777344 260.078125 140.519531 260.421875 Z M 192.242188 361.414062 L 192.203125 361.46875 C 192.207031 360.917969 192.207031 360.371094 192.210938 359.824219 C 192.210938 359.824219 192.25 359.890625 192.25 359.890625 C 191.96875 359.546875 191.691406 359.199219 191.414062 358.855469 C 191.351562 359.816406 191.863281 360.589844 192.242188 361.414062 Z M 81.210938 74.476562 C 81.242188 74.59375 81.261719 74.734375 81.339844 74.816406 C 81.445312 74.921875 81.554688 74.851562 81.523438 74.683594 C 81.503906 74.582031 81.398438 74.496094 81.332031 74.402344 C 81.289062 74.429688 81.207031 74.464844 81.210938 74.476562 Z M 82.324219 76.730469 C 82.3125 76.730469 82.285156 76.941406 82.324219 77.023438 C 82.371094 77.132812 82.46875 77.265625 82.570312 77.296875 C 82.710938 77.339844 82.769531 77.21875 82.714844 77.050781 C 82.644531 76.867188 82.546875 76.714844 82.324219 76.730469 Z M 296.722656 210.453125 C 296.628906 210.5 296.527344 210.632812 296.527344 210.730469 C 296.527344 210.863281 296.65625 210.886719 296.78125 210.777344 C 296.867188 210.695312 296.941406 210.605469 297.027344 210.515625 C 296.917969 210.488281 296.792969 210.417969 296.722656 210.453125 Z M 193.003906 363.054688 C 193.023438 362.382812 192.867188 361.796875 192.203125 361.46875 C 192.203125 361.46875 192.242188 361.414062 192.242188 361.414062 C 192.398438 362.007812 192.527344 362.621094 193.050781 363.035156 Z M 163.515625 277.984375 C 163.480469 278.679688 163.992188 279.183594 164.148438 279.808594 C 164.152344 279.804688 164.144531 279.816406 164.144531 279.816406 C 164.433594 279.027344 164.289062 278.402344 163.472656 278.03125 C 163.472656 278.03125 163.515625 277.984375 163.515625 277.984375 Z M 195.390625 82.226562 C 195.550781 80.382812 194.726562 78.75 194.257812 77.046875 C 193.53125 74.394531 192.726562 71.765625 191.957031 69.125 C 192.363281 71.929688 193.074219 74.648438 193.894531 77.332031 C 194.394531 78.957031 194.507812 80.707031 195.425781 82.199219 C 195.425781 82.199219 195.390625 82.226562 195.390625 82.226562 Z M 198.730469 90.390625 C 198.75 90.609375 198.878906 90.773438 199.101562 90.761719 C 199.339844 90.75 199.410156 90.554688 199.375 90.347656 C 199.34375 90.144531 199.234375 89.984375 199.003906 89.960938 C 198.761719 90.007812 198.714844 90.1875 198.730469 90.390625 Z M 190.871094 65.769531 C 190.976562 65.355469 190.785156 65.101562 190.429688 64.683594 C 190.414062 65.234375 190.585938 65.507812 190.871094 65.769531 Z M 196.507812 82.011719 C 196.722656 82.117188 196.84375 81.984375 196.816406 81.773438 C 196.804688 81.6875 196.6875 81.570312 196.597656 81.546875 C 196.539062 81.53125 196.441406 81.65625 196.363281 81.71875 C 196.410156 81.820312 196.429688 81.972656 196.507812 82.011719 Z M 198.484375 88.15625 C 198.429688 88.253906 198.320312 88.351562 198.332031 88.441406 C 198.339844 88.515625 198.476562 88.582031 198.558594 88.652344 C 198.621094 88.558594 198.6875 88.464844 198.75 88.371094 C 198.660156 88.300781 198.574219 88.226562 198.484375 88.15625 Z M 188.898438 57.890625 C 188.777344 57.828125 188.714844 57.898438 188.734375 58.066406 C 188.738281 58.125 188.746094 58.214844 188.78125 58.234375 C 188.902344 58.296875 188.960938 58.230469 188.941406 58.058594 C 188.929688 58 188.933594 57.910156 188.898438 57.890625 Z M 195.199219 77.511719 C 195.148438 77.671875 195.214844 77.769531 195.378906 77.769531 C 195.425781 77.769531 195.5 77.714844 195.515625 77.667969 C 195.558594 77.519531 195.484375 77.429688 195.328125 77.402344 C 195.285156 77.4375 195.210938 77.464844 195.199219 77.511719 Z M 197.164062 84.148438 C 197.164062 84.179688 197.257812 84.234375 197.3125 84.238281 C 197.46875 84.242188 197.5625 84.140625 197.5 84 C 197.460938 83.917969 197.320312 83.878906 197.226562 83.820312 C 197.203125 83.929688 197.167969 84.039062 197.164062 84.148438 Z M 256.09375 309.621094 C 256.195312 309.542969 256.316406 309.484375 256.402344 309.394531 C 256.550781 309.238281 256.589844 308.960938 256.417969 308.898438 C 256.171875 308.8125 256.1875 309.105469 256.152344 309.269531 C 256.128906 309.394531 256.136719 309.527344 256.128906 309.65625 C 256.128906 309.65625 256.09375 309.621094 256.09375 309.621094 Z M 256.09375 309.621094"/></g></svg>