<svg xmlns="http://www.w3.org/2000/svg" width="375" viewBox="0 0 375 375" height="375" version="1.0"><defs><clipPath id="a"><path d="M 0 3.410156 L 375 3.410156 L 375 371.660156 L 0 371.660156 Z M 0 3.410156"/></clipPath></defs><g clip-path="url(#a)" fill="#C1272D"><path d="M 158.183594 103.601562 C 156.347656 105.441406 154.769531 107.507812 153.050781 109.453125 C 152.355469 110.238281 151.796875 111.199219 150.703125 111.542969 C 151.664062 110.253906 152.546875 108.910156 153.585938 107.699219 C 157.386719 103.265625 160.132812 98.171875 162.757812 93.019531 C 164.300781 89.992188 165.617188 86.851562 166.972656 83.738281 C 167.558594 82.394531 168.375 81.046875 168.394531 79.59375 C 168.425781 77.242188 169.324219 75.195312 170.121094 73.082031 C 170.726562 71.484375 171.007812 69.808594 171.234375 68.109375 C 170.363281 70.191406 169.683594 72.332031 168.882812 74.425781 C 166.914062 79.578125 164.773438 84.65625 162.40625 89.644531 C 159.828125 95.078125 156.933594 100.335938 153.292969 105.140625 C 150.957031 108.222656 148.476562 111.199219 146.128906 114.273438 C 145.054688 115.683594 143.960938 117.121094 143.742188 118.984375 C 142.441406 121.328125 140.691406 123.359375 139.050781 125.457031 C 134.171875 131.6875 128.1875 136.667969 121.398438 140.710938 C 118.011719 142.730469 114.503906 144.523438 111.082031 146.464844 C 106.15625 149.261719 101.324219 152.21875 96.242188 154.734375 C 92.9375 156.367188 89.523438 157.714844 85.945312 158.601562 C 83.230469 159.273438 80.511719 159.171875 77.847656 158.238281 C 77.660156 158.171875 77.492188 158.074219 77.492188 157.574219 C 79.34375 157.230469 81.175781 158.25 83.039062 157.894531 C 84.875 157.542969 86.714844 157.195312 88.457031 156.515625 C 90.222656 155.828125 92.089844 155.324219 93.5625 153.941406 C 92.414062 154.222656 91.273438 154.519531 90.121094 154.773438 C 84.695312 155.972656 79.214844 156.785156 73.648438 156.714844 C 70.101562 156.667969 66.585938 157.109375 63.050781 157.234375 C 48.933594 157.738281 35.199219 155.605469 21.777344 151.308594 C 19.425781 150.554688 17.164062 149.570312 14.667969 149.285156 C 13.53125 149.15625 12.1875 148.996094 12.183594 147.28125 C 12.183594 147.117188 11.832031 146.949219 11.613281 146.761719 C 12.480469 145.644531 13.414062 147.171875 14.300781 146.464844 C 13.6875 145.832031 12.820312 145.773438 12.074219 145.523438 C 10.171875 144.890625 8.238281 144.328125 6.476562 143.351562 C 5.195312 142.640625 3.859375 141.957031 3.195312 140.527344 C 2.929688 139.953125 2.4375 139.800781 1.898438 139.75 C 1.238281 139.683594 0.839844 139.234375 0.40625 138.824219 C 0.191406 138.621094 0.113281 138.328125 0.296875 138.109375 C 0.464844 137.910156 0.714844 137.902344 1.007812 138.054688 C 1.59375 138.359375 2.210938 138.617188 2.839844 138.832031 C 3.941406 139.210938 4.917969 139.753906 6.203125 138.878906 C 7.246094 138.167969 8.683594 138.679688 9.9375 138.8125 C 13.664062 139.207031 17.398438 139.464844 21.140625 139.671875 C 22.03125 139.71875 22.933594 139.863281 22.957031 138.507812 C 22.96875 137.757812 23.816406 137.894531 24.03125 137.988281 C 25.992188 138.824219 28.007812 138.296875 29.988281 138.316406 C 36.207031 138.378906 42.433594 138.207031 48.652344 138.394531 C 55.652344 138.609375 62.523438 137.769531 69.375 136.488281 C 73.515625 135.714844 77.660156 134.976562 81.8125 134.273438 C 83.023438 134.070312 84.117188 133.664062 85.175781 133.058594 C 93.839844 128.105469 101.945312 122.308594 110.210938 116.738281 C 115.714844 113.027344 120.332031 108.546875 124.460938 103.371094 C 135.925781 89.003906 145.980469 73.71875 154.980469 57.714844 C 155.929688 56.027344 156.730469 54.253906 157.644531 52.546875 C 160.160156 47.847656 161.757812 42.835938 162.863281 37.640625 C 163.121094 36.425781 163.492188 35.230469 163.886719 33.738281 C 164.386719 34.605469 163.507812 35.308594 164.28125 35.820312 C 165.433594 33.5 165.605469 30.910156 166.015625 28.394531 C 166.371094 26.230469 166.527344 24.035156 166.722656 21.847656 C 166.867188 20.246094 166.738281 18.644531 166.59375 17.042969 C 166.355469 14.445312 166.160156 11.84375 166 9.242188 C 165.957031 8.484375 165.746094 7.617188 166.589844 7.027344 C 167.386719 7.40625 166.816406 8.277344 167.273438 8.777344 C 167.859375 8.554688 167.617188 8.027344 167.65625 7.636719 C 167.71875 7.042969 167.597656 6.410156 167.742188 5.839844 C 167.964844 4.949219 168.273438 3.878906 169.191406 3.617188 C 169.984375 3.390625 170.664062 4.210938 171.113281 4.84375 C 172.140625 6.300781 173.808594 7.257812 174.355469 9.082031 C 174.519531 9.628906 175.03125 9.855469 175.515625 10.117188 C 176.449219 10.617188 177.125 11.476562 177.191406 12.488281 C 177.363281 15.152344 177.960938 17.757812 178.144531 20.425781 C 178.445312 24.8125 178.703125 29.199219 178.78125 33.597656 C 178.878906 38.742188 178.777344 43.875 178.175781 49.003906 C 177.113281 58.007812 174.929688 66.730469 172.070312 75.3125 C 171 78.53125 170.230469 81.851562 168.847656 84.964844 C 166.171875 90.984375 163.097656 96.800781 159.675781 102.433594 C 159.378906 102.925781 159.199219 103.601562 158.382812 103.40625 C 158.335938 103.507812 158.269531 103.574219 158.183594 103.601562 Z M 152.410156 72.828125 C 153.53125 71.960938 153.949219 70.726562 154.195312 69.402344 C 153.640625 70.5625 152.457031 71.367188 152.335938 72.761719 C 151.308594 73.542969 150.90625 74.691406 150.429688 75.796875 C 151.75 74.5 151.957031 74.167969 152.410156 72.828125 Z M 177.074219 15.609375 C 176.769531 16.457031 176.824219 17.320312 176.882812 18.183594 C 177.5 27.34375 176.941406 36.449219 175.734375 45.535156 C 175.632812 46.28125 175.179688 47.277344 176.332031 47.96875 C 178.027344 37.148438 178.199219 26.394531 177.074219 15.609375 Z M 35.777344 145.082031 C 40.796875 146.839844 45.914062 146.253906 51.390625 146.210938 C 49.425781 144.789062 49.074219 144.605469 47.851562 144.746094 C 44.53125 145.125 41.203125 145.070312 37.871094 145.082031 C 37.171875 145.082031 36.476562 145.082031 35.777344 145.082031 Z M 55.675781 143.992188 C 59.253906 145.851562 62.140625 143.519531 65.222656 142.257812 C 62.042969 142.835938 58.859375 143.414062 55.675781 143.992188 Z M 11.1875 142.8125 C 12.039062 143.304688 12.96875 143.808594 14.433594 143.648438 C 13.226562 143.011719 12.253906 142.882812 11.1875 142.8125 Z M 157.71875 370.878906 C 157.402344 370.96875 157.089844 371.058594 156.519531 371.222656 C 157.191406 369.808594 157.953125 368.542969 157.503906 367.007812 C 156.871094 367.257812 156.574219 367.8125 156.210938 368.25 C 155.816406 368.71875 155.523438 369.324219 154.789062 369.039062 C 154.15625 368.792969 153.648438 368.378906 153.566406 367.597656 C 153.445312 366.46875 153.28125 365.347656 153.128906 364.226562 C 153.007812 363.3125 153.046875 362.355469 151.796875 362.066406 C 151.21875 361.9375 151.054688 361.289062 151.179688 360.730469 C 152.425781 355.296875 150.34375 350.296875 149.171875 345.179688 C 148.828125 343.683594 148.4375 342.183594 147.882812 340.757812 C 147.515625 339.8125 147.984375 338.921875 147.734375 338.023438 C 146.511719 333.667969 145.394531 329.304688 143.351562 325.195312 C 141.839844 322.164062 140.59375 318.988281 139.164062 315.902344 C 134.316406 305.4375 128.445312 295.558594 121.964844 286.042969 C 114.492188 275.074219 105.964844 264.953125 96.644531 255.511719 C 92.464844 251.28125 88 247.347656 83.445312 243.511719 C 80.132812 240.71875 76.957031 237.757812 73.363281 235.3125 C 70.050781 233.054688 66.734375 230.796875 63.375 228.609375 C 61.476562 227.375 59.46875 226.308594 57.546875 225.113281 C 55.167969 223.636719 52.542969 223.019531 49.816406 222.589844 C 38.714844 220.835938 27.546875 219.636719 16.40625 218.234375 C 14.664062 218.015625 12.929688 218.222656 11.199219 218.3125 C 10.515625 218.347656 9.761719 218.539062 9.519531 217.710938 C 9.25 216.796875 9.980469 216.429688 10.691406 216.136719 C 10.8125 216.085938 10.933594 216.03125 11.0625 215.972656 C 11.28125 215.460938 10.8125 215.128906 10.714844 214.695312 C 10.316406 212.894531 11.011719 211.726562 12.867188 211.375 C 13.78125 211.199219 14.710938 211.0625 15.65625 211.128906 C 23.601562 211.667969 31.574219 211.425781 39.511719 212.132812 C 48.445312 212.921875 57.34375 213.804688 65.992188 216.390625 C 68.792969 217.226562 71.765625 217.480469 74.589844 218.246094 C 92.144531 223.011719 108.875 229.761719 123.449219 240.804688 C 138.296875 252.058594 149.832031 266.179688 157.273438 283.40625 C 160.785156 291.535156 162.941406 300.085938 164.792969 308.730469 C 166.640625 317.371094 168.203125 326.050781 169.03125 334.855469 C 169.339844 338.117188 169.527344 341.390625 169.292969 344.675781 C 169.148438 346.660156 168.765625 348.523438 167.011719 349.796875 C 166.378906 350.257812 166.132812 350.9375 166.03125 351.699219 C 165.824219 353.234375 165.242188 354.65625 164.746094 356.113281 C 163.992188 358.335938 163.707031 360.679688 163.699219 363 C 163.6875 365.988281 162.503906 368.308594 160.269531 370.140625 C 159.558594 370.726562 158.804688 371.648438 157.660156 370.824219 C 158.128906 370.441406 158.378906 369.976562 158.222656 369.355469 C 158.167969 369.898438 157.277344 370.164062 157.71875 370.878906 Z M 127.925781 252.398438 C 127.878906 250.839844 126.75 250.132812 125.609375 249.433594 C 126.082031 250.667969 126.480469 251.96875 127.996094 252.347656 C 127.796875 253.210938 128.339844 253.59375 129.042969 254.105469 C 128.988281 253.148438 128.566406 252.695312 127.925781 252.398438 Z M 113.003906 238.648438 C 112.851562 237.90625 112.28125 237.710938 111.640625 237.613281 C 111.957031 238.15625 112.300781 238.660156 113.042969 238.605469 C 112.996094 238.996094 113.269531 239.21875 113.515625 239.425781 C 116.042969 241.570312 118.578125 243.710938 121.121094 245.839844 C 121.316406 246.003906 121.589844 246.097656 121.851562 245.714844 C 121.648438 244.929688 120.953125 244.484375 120.355469 244 C 118.597656 242.574219 116.828125 241.164062 115.027344 239.792969 C 114.414062 239.324219 113.894531 238.644531 113.003906 238.648438 Z M 131.730469 262.546875 C 133.625 267.265625 136.574219 271.363281 139.410156 275.527344 C 139.84375 276.164062 140.289062 275.941406 140.769531 275.652344 C 141.328125 275.3125 141.433594 274.898438 141.019531 274.347656 C 140.5 273.652344 140.03125 272.917969 139.527344 272.214844 C 137.117188 268.855469 134.644531 265.546875 131.730469 262.546875 Z M 137.472656 262.085938 C 137.355469 262.175781 137.234375 262.269531 137.113281 262.359375 C 139.828125 266 142.542969 269.636719 145.257812 273.277344 C 143.136719 269.199219 140.414062 265.5625 137.472656 262.085938 Z M 15.523438 213.570312 C 14.796875 213.570312 14.261719 213.539062 13.734375 213.578125 C 12.859375 213.644531 12.667969 214.398438 12.6875 215.003906 C 12.714844 215.773438 13.359375 215.601562 13.910156 215.480469 C 14.816406 215.28125 15.738281 215.117188 16.65625 214.957031 C 17.058594 214.890625 17.429688 214.882812 17.445312 214.300781 C 17.457031 213.617188 16.984375 213.558594 16.527344 213.519531 C 16.132812 213.484375 15.730469 213.558594 15.523438 213.570312 Z M 164.40625 333.949219 C 163.890625 336.566406 164.417969 339.097656 164.976562 341.632812 C 165.351562 339.035156 164.804688 336.5 164.40625 333.949219 Z M 149.621094 289.636719 C 149.980469 292.742188 150.140625 293.039062 151.441406 293.066406 C 151 291.898438 150.5625 290.765625 149.621094 289.636719 Z M 124.554688 254.457031 C 124.460938 254.554688 124.367188 254.648438 124.269531 254.746094 C 125.226562 255.855469 126.183594 256.96875 127.140625 258.078125 C 126.699219 256.523438 125.632812 255.484375 124.554688 254.457031 Z M 158.707031 365.550781 C 158.417969 366.515625 158.191406 367.492188 158.609375 368.828125 C 159.292969 367.523438 159.226562 366.546875 158.707031 365.550781 Z M 129.59375 263.015625 C 128.972656 262.023438 128.453125 260.96875 127.363281 260.441406 C 128.0625 261.347656 128.515625 262.464844 129.59375 263.015625 Z M 101.691406 247.308594 C 100.851562 245.941406 100.851562 245.941406 99.429688 245.324219 C 100.3125 246.101562 101.003906 246.703125 101.691406 247.308594 Z M 104.542969 249.234375 C 104.25 249.414062 104.234375 249.523438 104.351562 249.644531 C 104.484375 249.78125 104.625 249.921875 104.785156 250.015625 C 104.917969 250.089844 105.007812 249.984375 104.925781 249.835938 C 104.808594 249.609375 104.652344 249.40625 104.542969 249.234375 Z M 123.835938 255.996094 C 123.875 256.125 123.886719 256.230469 123.933594 256.316406 C 124.046875 256.515625 124.25 256.867188 124.421875 256.621094 C 124.542969 256.449219 124.113281 256.179688 123.835938 255.996094 Z M 163.433594 327.265625 C 163.410156 327.316406 163.363281 327.367188 163.363281 327.417969 C 163.355469 327.546875 163.367188 327.671875 163.371094 327.800781 C 163.398438 327.746094 163.445312 327.699219 163.449219 327.644531 C 163.453125 327.519531 163.441406 327.394531 163.433594 327.265625 Z M 325.417969 230.484375 C 331.78125 227.976562 338.425781 226.59375 345.273438 226.285156 C 348.078125 226.15625 350.886719 226.386719 353.6875 226.378906 C 357.847656 226.371094 361.964844 226.554688 366.058594 227.289062 C 366.578125 227.382812 367.121094 227.378906 367.652344 227.398438 C 367.933594 227.410156 368.210938 227.320312 368.207031 226.992188 C 368.203125 226.828125 368.054688 226.632812 367.921875 226.515625 C 367.605469 226.238281 367.191406 226.214844 366.792969 226.144531 C 366.464844 226.085938 366.332031 225.832031 366.503906 225.574219 C 367.121094 224.652344 366.46875 224.453125 365.796875 224.25 C 364.039062 223.730469 362.394531 223.097656 361.613281 221.191406 C 361.433594 220.746094 360.910156 220.371094 360.453125 220.117188 C 357.238281 218.335938 354.03125 216.542969 350.277344 216.085938 C 344.097656 215.335938 337.90625 214.847656 331.675781 214.835938 C 323.769531 214.820312 315.890625 215.089844 308.097656 216.542969 C 294 219.175781 280.699219 223.734375 269.285156 232.789062 C 268.671875 233.273438 268.085938 233.597656 267.28125 233.390625 C 266.320312 233.140625 265.617188 233.539062 265.027344 234.304688 C 263.964844 235.679688 262.808594 236.988281 261.78125 238.386719 C 260.785156 239.742188 259.707031 240.996094 258.464844 242.128906 C 250.84375 249.105469 244.765625 257.289062 239.695312 266.253906 C 237.289062 270.5 235.4375 275.03125 233.121094 279.320312 C 231.078125 283.109375 229.671875 287.148438 228.476562 291.234375 C 226.773438 297.054688 225.390625 302.96875 223.90625 308.847656 C 223.054688 312.210938 222.3125 315.589844 221.902344 319.054688 C 221.507812 322.425781 220.695312 325.75 220.1875 329.113281 C 219.476562 333.847656 218.882812 338.5625 219.121094 343.417969 C 219.363281 348.398438 218.324219 353.402344 219.03125 358.421875 C 219.335938 360.558594 219.460938 362.71875 219.710938 364.863281 C 219.75 365.175781 219.734375 365.707031 220.492188 365.640625 C 220.367188 364.453125 220.300781 363.269531 220.101562 362.105469 C 220.007812 361.539062 220.074219 361.0625 220.253906 360.550781 C 220.445312 360.007812 220.742188 359.773438 221.304688 360.003906 C 222.515625 360.492188 223.8125 360.359375 225.066406 360.527344 C 226.980469 360.78125 227.621094 360.261719 228.246094 358.410156 C 229.054688 356.007812 228.980469 353.402344 229.984375 351.046875 C 230.285156 350.347656 230.546875 349.621094 229.382812 349.398438 C 228.976562 349.324219 229.019531 348.871094 229.011719 348.558594 C 228.992188 347.824219 228.976562 347.085938 229.042969 346.355469 C 229.179688 344.824219 229.398438 343.300781 229.527344 341.769531 C 229.65625 340.238281 230.882812 338.914062 230.339844 337.246094 C 230.234375 336.925781 230.542969 336.640625 230.882812 336.503906 C 231.332031 336.324219 231.355469 335.894531 231.449219 335.511719 C 231.902344 333.636719 232.375 331.761719 232.796875 329.878906 C 233.058594 328.707031 233.214844 327.511719 233.476562 326.339844 C 233.726562 325.234375 233.992188 324.125 234.363281 323.054688 C 234.75 321.929688 235.269531 320.847656 235.734375 319.746094 C 236.15625 318.746094 235.980469 317.574219 236.757812 316.65625 C 237.375 315.933594 237.25 314.769531 238.1875 314.144531 C 236.824219 319.597656 235.363281 325.019531 234.429688 330.5625 C 235.457031 327.675781 236.375 324.757812 237.3125 321.847656 C 238.191406 319.121094 238.75 316.21875 240.066406 313.71875 C 241.730469 310.566406 242.535156 307.136719 243.949219 303.925781 C 244.191406 303.375 244.40625 302.808594 244.714844 302.296875 C 246.054688 300.089844 247.476562 297.929688 248.773438 295.695312 C 251.3125 291.3125 254.066406 287.09375 257.496094 283.339844 C 267.433594 272.457031 278.015625 262.25 289.355469 252.828125 C 296.597656 246.8125 304.433594 241.773438 313.058594 237.960938 C 322.425781 233.824219 332.234375 231.316406 342.328125 229.824219 C 346.960938 229.140625 351.617188 228.671875 356.308594 228.753906 C 357.355469 228.773438 358.3125 228.785156 358.507812 230.183594 C 358.574219 230.644531 358.878906 231.1875 359.609375 231.230469 C 359.496094 229.636719 359.378906 228.066406 357.496094 227.578125 C 356.40625 227.296875 355.273438 227.042969 354.15625 227.03125 C 348.089844 226.957031 342.058594 227.464844 336.117188 228.675781 C 331.667969 229.582031 327.171875 230.191406 323.082031 232.601562 C 320.261719 234.265625 316.972656 235.140625 313.890625 236.371094 C 317.597656 234.121094 321.40625 232.0625 325.417969 230.484375 Z M 274.421875 143.855469 C 273.257812 143.675781 272.609375 142.636719 271.382812 141.914062 C 271.902344 143.230469 273.046875 143.613281 273.558594 144.597656 C 272.84375 144.753906 272.621094 144.171875 272.25 143.890625 C 268.519531 141.074219 265.039062 137.9375 261.769531 134.628906 C 254.859375 127.636719 248.863281 119.914062 244.296875 111.136719 C 238.941406 100.84375 235.078125 90.007812 232.292969 78.761719 C 230.992188 73.507812 230.082031 68.171875 228.949219 62.882812 C 228.6875 61.652344 228.417969 60.417969 228.09375 59.203125 C 226.421875 52.929688 226.589844 46.515625 226.761719 40.128906 C 226.933594 33.722656 227.84375 27.390625 229.75 21.234375 C 230.027344 20.347656 230.15625 19.410156 230.398438 18.507812 C 230.660156 17.542969 230.894531 16.527344 231.828125 15.945312 C 232.878906 15.289062 233.089844 14.285156 233.097656 13.171875 C 233.101562 12.246094 233.097656 11.320312 233.339844 10.386719 C 233.398438 11.359375 233.453125 12.332031 233.511719 13.300781 C 234.058594 12.273438 233.734375 11.132812 233.980469 9.96875 C 235.15625 10.453125 234.378906 11.59375 235.117188 12.09375 C 235.699219 12.140625 235.964844 11.589844 236.363281 11.28125 C 237.078125 10.726562 237.878906 10.441406 238.773438 10.445312 C 239.203125 10.445312 239.503906 10.621094 239.679688 11.074219 C 239.875 11.582031 239.632812 11.8125 239.269531 12.042969 C 239.042969 12.183594 238.804688 12.316406 238.609375 12.496094 C 237.6875 13.351562 237.621094 13.828125 238.636719 14.523438 C 239.175781 14.890625 239.285156 16.089844 240.425781 15.574219 C 240.683594 15.453125 240.621094 15.984375 240.566406 16.191406 C 240.21875 17.5 240.285156 18.851562 240.125 20.179688 C 240.070312 20.636719 239.941406 21.199219 240.132812 21.558594 C 240.957031 23.105469 240.523438 24.667969 240.40625 26.25 C 240.234375 28.519531 240.441406 30.789062 240.664062 33.050781 C 240.730469 33.742188 241.050781 34.113281 241.609375 34.433594 C 242.496094 34.9375 242.796875 35.679688 242.742188 36.753906 C 242.539062 40.925781 243.214844 45.015625 244.160156 49.0625 C 247.105469 61.636719 251.242188 73.816406 256.738281 85.492188 C 260.59375 93.683594 265.578125 101.234375 271.140625 108.375 C 284.933594 126.078125 301.789062 140.246094 321.269531 151.292969 C 331.320312 156.992188 342.242188 160.277344 353.5625 162.347656 C 358.632812 163.273438 363.71875 164.003906 368.894531 163.996094 C 370.53125 163.992188 372.167969 164.300781 374.175781 164.503906 C 372.882812 165.960938 371.480469 166.074219 370.171875 166.320312 C 369.324219 166.480469 368.414062 166.347656 367.605469 166.699219 C 365.792969 167.480469 363.972656 168.246094 362.128906 168.976562 C 364.308594 169.214844 366.417969 168.816406 368.535156 168.628906 C 370.605469 168.449219 372.414062 166.972656 374.90625 167.285156 C 373.804688 168.589844 372.519531 169.054688 371.207031 169.480469 C 366.90625 170.867188 362.449219 171.277344 357.980469 171.566406 C 355.378906 171.738281 352.769531 171.808594 350.164062 171.925781 C 349.828125 171.941406 349.40625 171.84375 349.175781 172.007812 C 347.003906 173.539062 344.5 172.570312 342.195312 172.78125 C 340.402344 172.945312 338.425781 172.214844 336.519531 171.953125 C 331.765625 171.300781 327.011719 170.65625 322.257812 169.976562 C 318.8125 169.484375 315.417969 168.757812 312.136719 167.574219 C 310.941406 167.140625 309.660156 166.789062 308.699219 165.964844 C 307.195312 164.671875 305.402344 164.324219 303.566406 163.953125 C 299.761719 163.183594 296.039062 162.117188 292.445312 160.632812 C 291.261719 160.144531 290.148438 159.488281 289.078125 158.707031 C 294.714844 160.734375 300.300781 162.882812 306.289062 163.964844 C 306.179688 163.140625 305.613281 163.226562 305.222656 163.105469 C 302.855469 162.378906 300.53125 161.546875 298.234375 160.628906 C 297.484375 160.328125 296.789062 159.839844 296.84375 159.140625 C 296.945312 157.859375 296.09375 157.6875 295.28125 157.40625 C 294.003906 156.964844 292.867188 156.324219 291.894531 155.382812 C 289.964844 153.515625 287.566406 152.285156 285.449219 150.671875 C 280.8125 147.152344 276.398438 143.394531 272.4375 139.109375 C 270.765625 137.296875 268.976562 135.585938 267.207031 133.863281 C 266.011719 132.703125 264.910156 131.472656 263.902344 130.15625 C 264.117188 130.101562 264.269531 129.914062 264.152344 129.761719 C 263.5 128.921875 262.976562 127.953125 261.945312 127.476562 C 261.910156 126.820312 261.4375 126.421875 261.050781 125.976562 C 260.914062 125.824219 260.660156 125.703125 260.554688 125.90625 C 260.429688 126.148438 260.601562 126.40625 260.792969 126.605469 C 259.101562 125.609375 258.195312 123.8125 256.539062 122.6875 C 256.804688 123.097656 257.042969 123.527344 257.335938 123.914062 C 260.535156 128.113281 263.992188 132.085938 267.746094 135.808594 C 268.226562 136.285156 269.183594 136.609375 268.660156 137.714844 C 268.476562 138.109375 269.09375 138.484375 269.417969 138.796875 C 270.761719 140.09375 272.132812 141.367188 273.488281 142.652344 C 273.859375 143.007812 274.386719 143.261719 274.386719 143.894531 Z M 281.21875 127.421875 C 281.261719 126.660156 280.765625 126.394531 280.152344 126.25 C 280.550781 126.589844 280.457031 127.429688 281.257812 127.382812 C 281.445312 128.324219 282.09375 128.921875 282.824219 129.453125 C 282.933594 129.6875 282.996094 129.964844 283.15625 130.152344 C 286.980469 134.496094 291.035156 138.628906 295.132812 142.707031 C 298.5 146.058594 302.296875 148.941406 306.15625 151.71875 C 312.210938 156.074219 318.855469 159.285156 325.789062 161.941406 C 331.269531 164.042969 336.972656 165.347656 342.703125 166.527344 C 343.847656 166.761719 344.980469 167.230469 346.484375 166.976562 C 345.867188 166.746094 345.507812 166.589844 345.140625 166.476562 C 341.503906 165.355469 337.820312 164.359375 334.238281 163.089844 C 330.816406 161.871094 327.023438 161.5625 324.179688 158.800781 C 323.40625 158.050781 322.097656 157.660156 321.027344 157.117188 C 316.621094 154.882812 312.230469 152.585938 308.265625 149.625 C 302.269531 145.152344 296.402344 140.507812 290.742188 135.605469 C 288.21875 133.421875 285.914062 130.984375 283.195312 129.027344 C 282.664062 128.332031 282.15625 127.609375 281.21875 127.421875 Z M 361.472656 167.128906 C 358.066406 166.933594 354.660156 166.738281 351.253906 166.542969 C 354.589844 167.632812 357.96875 167.941406 361.472656 167.128906 Z M 349.019531 167.738281 C 349.761719 168.0625 350.457031 168.414062 351.308594 168.160156 C 350.542969 167.96875 349.902344 167.351562 349.019531 167.738281 Z M 259.773438 124.648438 C 259.472656 124.152344 259.339844 123.484375 258.597656 123.421875 C 258.929688 123.894531 259.007812 124.558594 259.773438 124.648438 Z M 147.964844 114.722656 C 147.460938 115.140625 147.054688 115.644531 146.628906 116.140625 C 145.742188 117.167969 144.941406 118.308594 143.699219 118.976562 C 145.699219 118.140625 147 116.601562 147.964844 114.722656 Z M 150.777344 111.507812 C 149.742188 112.394531 148.914062 113.464844 148.125 114.566406 C 149.410156 113.898438 150.289062 112.871094 150.777344 111.507812 Z M 158.09375 104.640625 C 158.191406 104.6875 159.171875 104.054688 158.382812 103.40625 C 158.335938 103.507812 158.269531 103.574219 158.183594 103.601562 C 157.960938 103.949219 157.417969 104.316406 158.09375 104.640625 Z M 274.421875 143.851562 C 274.601562 144.660156 275.367188 144.773438 275.925781 145.132812 C 275.460938 144.664062 275.261719 143.859375 274.386719 143.894531 C 274.386719 143.894531 274.421875 143.855469 274.421875 143.851562 Z M 277.34375 146.203125 C 277.375 146.675781 277.800781 146.726562 278.15625 146.863281 C 277.976562 146.546875 277.75 146.253906 277.34375 146.203125 Z M 228.429688 286.007812 C 228.222656 286.40625 228.046875 286.742188 227.871094 287.082031 C 228.269531 286.898438 228.679688 286.589844 228.429688 286.007812 Z M 164.527344 30.183594 C 164.46875 30.609375 164.425781 30.914062 164.382812 31.222656 C 164.671875 30.976562 164.808594 30.648438 164.527344 30.183594 Z M 219.636719 367.703125 C 219.617188 367.824219 219.574219 367.941406 219.578125 368.058594 C 219.585938 368.261719 219.675781 368.425781 219.910156 368.359375 C 219.964844 368.34375 219.972656 368.167969 220.007812 368.039062 C 219.890625 367.933594 219.761719 367.820312 219.636719 367.703125 Z M 90.519531 158.851562 C 90.402344 158.847656 90.285156 158.878906 90.167969 158.890625 C 90.269531 158.921875 90.367188 158.96875 90.46875 158.976562 C 90.578125 158.980469 90.691406 158.953125 90.835938 158.933594 C 90.710938 158.898438 90.617188 158.855469 90.519531 158.851562 Z M 166.070312 83.8125 C 166.890625 82.679688 167.097656 81.773438 167.269531 80.847656 C 166.785156 81.640625 166.277344 82.417969 166.070312 83.8125 Z M 166.070312 83.8125"/><path d="M 158.183594 103.601562 C 156.347656 105.441406 154.769531 107.507812 153.050781 109.453125 C 152.355469 110.238281 151.796875 111.199219 150.703125 111.542969 C 151.664062 110.253906 152.546875 108.910156 153.585938 107.699219 C 157.386719 103.265625 160.132812 98.171875 162.757812 93.019531 C 164.300781 89.992188 165.617188 86.851562 166.972656 83.738281 C 167.558594 82.394531 168.375 81.046875 168.394531 79.59375 C 168.425781 77.242188 169.324219 75.195312 170.121094 73.082031 C 170.726562 71.484375 171.007812 69.808594 171.234375 68.109375 C 170.363281 70.191406 169.683594 72.332031 168.882812 74.425781 C 166.914062 79.578125 164.773438 84.65625 162.40625 89.644531 C 159.828125 95.078125 156.933594 100.335938 153.292969 105.140625 C 150.957031 108.222656 148.476562 111.199219 146.128906 114.273438 C 145.054688 115.683594 143.960938 117.121094 143.742188 118.984375 C 142.441406 121.328125 140.691406 123.359375 139.050781 125.457031 C 134.171875 131.6875 128.1875 136.667969 121.398438 140.710938 C 118.011719 142.730469 114.503906 144.523438 111.082031 146.464844 C 106.15625 149.261719 101.324219 152.21875 96.242188 154.734375 C 92.9375 156.367188 89.523438 157.714844 85.945312 158.601562 C 83.230469 159.273438 80.511719 159.171875 77.847656 158.238281 C 77.660156 158.171875 77.492188 158.074219 77.492188 157.574219 C 79.34375 157.230469 81.175781 158.25 83.039062 157.894531 C 84.875 157.542969 86.714844 157.195312 88.457031 156.515625 C 90.222656 155.828125 92.089844 155.324219 93.5625 153.941406 C 92.414062 154.222656 91.273438 154.519531 90.121094 154.773438 C 84.695312 155.972656 79.214844 156.785156 73.648438 156.714844 C 70.101562 156.667969 66.585938 157.109375 63.050781 157.234375 C 48.933594 157.738281 35.199219 155.605469 21.777344 151.308594 C 19.425781 150.554688 17.164062 149.570312 14.667969 149.285156 C 13.53125 149.15625 12.1875 148.996094 12.183594 147.28125 C 12.183594 147.117188 11.832031 146.949219 11.613281 146.761719 C 12.480469 145.644531 13.414062 147.171875 14.300781 146.464844 C 13.6875 145.832031 12.820312 145.773438 12.074219 145.523438 C 10.171875 144.890625 8.238281 144.328125 6.476562 143.351562 C 5.195312 142.640625 3.859375 141.957031 3.195312 140.527344 C 2.929688 139.953125 2.4375 139.800781 1.898438 139.75 C 1.238281 139.683594 0.839844 139.234375 0.40625 138.824219 C 0.191406 138.621094 0.113281 138.328125 0.296875 138.109375 C 0.464844 137.910156 0.714844 137.902344 1.007812 138.054688 C 1.59375 138.359375 2.210938 138.617188 2.839844 138.832031 C 3.941406 139.210938 4.917969 139.753906 6.203125 138.878906 C 7.246094 138.167969 8.683594 138.679688 9.9375 138.8125 C 13.664062 139.207031 17.398438 139.464844 21.140625 139.671875 C 22.03125 139.71875 22.933594 139.863281 22.957031 138.507812 C 22.96875 137.757812 23.816406 137.894531 24.03125 137.988281 C 25.992188 138.824219 28.007812 138.296875 29.988281 138.316406 C 36.207031 138.378906 42.433594 138.207031 48.652344 138.394531 C 55.652344 138.609375 62.523438 137.769531 69.375 136.488281 C 73.515625 135.714844 77.660156 134.976562 81.8125 134.273438 C 83.023438 134.070312 84.117188 133.664062 85.175781 133.058594 C 93.839844 128.105469 101.945312 122.308594 110.210938 116.738281 C 115.714844 113.027344 120.332031 108.546875 124.460938 103.371094 C 135.925781 89.003906 145.980469 73.71875 154.980469 57.714844 C 155.929688 56.027344 156.730469 54.253906 157.644531 52.546875 C 160.160156 47.847656 161.757812 42.835938 162.863281 37.640625 C 163.121094 36.425781 163.492188 35.230469 163.886719 33.738281 C 164.386719 34.605469 163.507812 35.308594 164.28125 35.820312 C 165.433594 33.5 165.605469 30.910156 166.015625 28.394531 C 166.371094 26.230469 166.527344 24.035156 166.722656 21.847656 C 166.867188 20.246094 166.738281 18.644531 166.59375 17.042969 C 166.355469 14.445312 166.160156 11.84375 166 9.242188 C 165.957031 8.484375 165.746094 7.617188 166.589844 7.027344 C 167.386719 7.40625 166.816406 8.277344 167.273438 8.777344 C 167.859375 8.554688 167.617188 8.027344 167.65625 7.636719 C 167.71875 7.042969 167.597656 6.410156 167.742188 5.839844 C 167.964844 4.949219 168.273438 3.878906 169.191406 3.617188 C 169.984375 3.390625 170.664062 4.210938 171.113281 4.84375 C 172.140625 6.300781 173.808594 7.257812 174.355469 9.082031 C 174.519531 9.628906 175.03125 9.855469 175.515625 10.117188 C 176.449219 10.617188 177.125 11.476562 177.191406 12.488281 C 177.363281 15.152344 177.960938 17.757812 178.144531 20.425781 C 178.445312 24.8125 178.703125 29.199219 178.78125 33.597656 C 178.878906 38.742188 178.777344 43.875 178.175781 49.003906 C 177.113281 58.007812 174.929688 66.730469 172.070312 75.3125 C 171 78.53125 170.230469 81.851562 168.847656 84.964844 C 166.171875 90.984375 163.097656 96.800781 159.675781 102.433594 C 159.378906 102.925781 159.199219 103.601562 158.382812 103.40625 C 158.335938 103.507812 158.269531 103.574219 158.183594 103.601562 Z M 152.410156 72.828125 C 153.53125 71.960938 153.949219 70.726562 154.195312 69.402344 C 153.640625 70.5625 152.457031 71.367188 152.335938 72.761719 C 151.308594 73.542969 150.90625 74.691406 150.429688 75.796875 C 151.75 74.5 151.957031 74.167969 152.410156 72.828125 Z M 177.074219 15.609375 C 176.769531 16.457031 176.824219 17.320312 176.882812 18.183594 C 177.5 27.34375 176.941406 36.449219 175.734375 45.535156 C 175.632812 46.28125 175.179688 47.277344 176.332031 47.96875 C 178.027344 37.148438 178.199219 26.394531 177.074219 15.609375 Z M 35.777344 145.082031 C 40.796875 146.839844 45.914062 146.253906 51.390625 146.210938 C 49.425781 144.789062 49.074219 144.605469 47.851562 144.746094 C 44.53125 145.125 41.203125 145.070312 37.871094 145.082031 C 37.171875 145.082031 36.476562 145.082031 35.777344 145.082031 Z M 55.675781 143.992188 C 59.253906 145.851562 62.140625 143.519531 65.222656 142.257812 C 62.042969 142.835938 58.859375 143.414062 55.675781 143.992188 Z M 11.1875 142.8125 C 12.039062 143.304688 12.96875 143.808594 14.433594 143.648438 C 13.226562 143.011719 12.253906 142.882812 11.1875 142.8125 Z M 157.71875 370.878906 C 157.402344 370.96875 157.089844 371.058594 156.519531 371.222656 C 157.191406 369.808594 157.953125 368.542969 157.503906 367.007812 C 156.871094 367.257812 156.574219 367.8125 156.210938 368.25 C 155.816406 368.71875 155.523438 369.324219 154.789062 369.039062 C 154.15625 368.792969 153.648438 368.378906 153.566406 367.597656 C 153.445312 366.46875 153.28125 365.347656 153.128906 364.226562 C 153.007812 363.3125 153.046875 362.355469 151.796875 362.066406 C 151.21875 361.9375 151.054688 361.289062 151.179688 360.730469 C 152.425781 355.296875 150.34375 350.296875 149.171875 345.179688 C 148.828125 343.683594 148.4375 342.183594 147.882812 340.757812 C 147.515625 339.8125 147.984375 338.921875 147.734375 338.023438 C 146.511719 333.667969 145.394531 329.304688 143.351562 325.195312 C 141.839844 322.164062 140.59375 318.988281 139.164062 315.902344 C 134.316406 305.4375 128.445312 295.558594 121.964844 286.042969 C 114.492188 275.074219 105.964844 264.953125 96.644531 255.511719 C 92.464844 251.28125 88 247.347656 83.445312 243.511719 C 80.132812 240.71875 76.957031 237.757812 73.363281 235.3125 C 70.050781 233.054688 66.734375 230.796875 63.375 228.609375 C 61.476562 227.375 59.46875 226.308594 57.546875 225.113281 C 55.167969 223.636719 52.542969 223.019531 49.816406 222.589844 C 38.714844 220.835938 27.546875 219.636719 16.40625 218.234375 C 14.664062 218.015625 12.929688 218.222656 11.199219 218.3125 C 10.515625 218.347656 9.761719 218.539062 9.519531 217.710938 C 9.25 216.796875 9.980469 216.429688 10.691406 216.136719 C 10.8125 216.085938 10.933594 216.03125 11.0625 215.972656 C 11.28125 215.460938 10.8125 215.128906 10.714844 214.695312 C 10.316406 212.894531 11.011719 211.726562 12.867188 211.375 C 13.78125 211.199219 14.710938 211.0625 15.65625 211.128906 C 23.601562 211.667969 31.574219 211.425781 39.511719 212.132812 C 48.445312 212.921875 57.34375 213.804688 65.992188 216.390625 C 68.792969 217.226562 71.765625 217.480469 74.589844 218.246094 C 92.144531 223.011719 108.875 229.761719 123.449219 240.804688 C 138.296875 252.058594 149.832031 266.179688 157.273438 283.40625 C 160.785156 291.535156 162.941406 300.085938 164.792969 308.730469 C 166.640625 317.371094 168.203125 326.050781 169.03125 334.855469 C 169.339844 338.117188 169.527344 341.390625 169.292969 344.675781 C 169.148438 346.660156 168.765625 348.523438 167.011719 349.796875 C 166.378906 350.257812 166.132812 350.9375 166.03125 351.699219 C 165.824219 353.234375 165.242188 354.65625 164.746094 356.113281 C 163.992188 358.335938 163.707031 360.679688 163.699219 363 C 163.6875 365.988281 162.503906 368.308594 160.269531 370.140625 C 159.558594 370.726562 158.804688 371.648438 157.660156 370.824219 C 158.128906 370.441406 158.378906 369.976562 158.222656 369.355469 C 158.167969 369.898438 157.277344 370.164062 157.71875 370.878906 Z M 127.925781 252.398438 C 127.878906 250.839844 126.75 250.132812 125.609375 249.433594 C 126.082031 250.667969 126.480469 251.96875 127.996094 252.347656 C 127.796875 253.210938 128.339844 253.59375 129.042969 254.105469 C 128.988281 253.148438 128.566406 252.695312 127.925781 252.398438 Z M 113.003906 238.648438 C 112.851562 237.90625 112.28125 237.710938 111.640625 237.613281 C 111.957031 238.15625 112.300781 238.660156 113.042969 238.605469 C 112.996094 238.996094 113.269531 239.21875 113.515625 239.425781 C 116.042969 241.570312 118.578125 243.710938 121.121094 245.839844 C 121.316406 246.003906 121.589844 246.097656 121.851562 245.714844 C 121.648438 244.929688 120.953125 244.484375 120.355469 244 C 118.597656 242.574219 116.828125 241.164062 115.027344 239.792969 C 114.414062 239.324219 113.894531 238.644531 113.003906 238.648438 Z M 131.730469 262.546875 C 133.625 267.265625 136.574219 271.363281 139.410156 275.527344 C 139.84375 276.164062 140.289062 275.941406 140.769531 275.652344 C 141.328125 275.3125 141.433594 274.898438 141.019531 274.347656 C 140.5 273.652344 140.03125 272.917969 139.527344 272.214844 C 137.117188 268.855469 134.644531 265.546875 131.730469 262.546875 Z M 137.472656 262.085938 C 137.355469 262.175781 137.234375 262.269531 137.113281 262.359375 C 139.828125 266 142.542969 269.636719 145.257812 273.277344 C 143.136719 269.199219 140.414062 265.5625 137.472656 262.085938 Z M 15.523438 213.570312 C 14.796875 213.570312 14.261719 213.539062 13.734375 213.578125 C 12.859375 213.644531 12.667969 214.398438 12.6875 215.003906 C 12.714844 215.773438 13.359375 215.601562 13.910156 215.480469 C 14.816406 215.28125 15.738281 215.117188 16.65625 214.957031 C 17.058594 214.890625 17.429688 214.882812 17.445312 214.300781 C 17.457031 213.617188 16.984375 213.558594 16.527344 213.519531 C 16.132812 213.484375 15.730469 213.558594 15.523438 213.570312 Z M 164.40625 333.949219 C 163.890625 336.566406 164.417969 339.097656 164.976562 341.632812 C 165.351562 339.035156 164.804688 336.5 164.40625 333.949219 Z M 149.621094 289.636719 C 149.980469 292.742188 150.140625 293.039062 151.441406 293.066406 C 151 291.898438 150.5625 290.765625 149.621094 289.636719 Z M 124.554688 254.457031 C 124.460938 254.554688 124.367188 254.648438 124.269531 254.746094 C 125.226562 255.855469 126.183594 256.96875 127.140625 258.078125 C 126.699219 256.523438 125.632812 255.484375 124.554688 254.457031 Z M 158.707031 365.550781 C 158.417969 366.515625 158.191406 367.492188 158.609375 368.828125 C 159.292969 367.523438 159.226562 366.546875 158.707031 365.550781 Z M 129.59375 263.015625 C 128.972656 262.023438 128.453125 260.96875 127.363281 260.441406 C 128.0625 261.347656 128.515625 262.464844 129.59375 263.015625 Z M 101.691406 247.308594 C 100.851562 245.941406 100.851562 245.941406 99.429688 245.324219 C 100.3125 246.101562 101.003906 246.703125 101.691406 247.308594 Z M 104.542969 249.234375 C 104.25 249.414062 104.234375 249.523438 104.351562 249.644531 C 104.484375 249.78125 104.625 249.921875 104.785156 250.015625 C 104.917969 250.089844 105.007812 249.984375 104.925781 249.835938 C 104.808594 249.609375 104.652344 249.40625 104.542969 249.234375 Z M 123.835938 255.996094 C 123.875 256.125 123.886719 256.230469 123.933594 256.316406 C 124.046875 256.515625 124.25 256.867188 124.421875 256.621094 C 124.542969 256.449219 124.113281 256.179688 123.835938 255.996094 Z M 163.433594 327.265625 C 163.410156 327.316406 163.363281 327.367188 163.363281 327.417969 C 163.355469 327.546875 163.367188 327.671875 163.371094 327.800781 C 163.398438 327.746094 163.445312 327.699219 163.449219 327.644531 C 163.453125 327.519531 163.441406 327.394531 163.433594 327.265625 Z M 325.417969 230.484375 C 331.78125 227.976562 338.425781 226.59375 345.273438 226.285156 C 348.078125 226.15625 350.886719 226.386719 353.6875 226.378906 C 357.847656 226.371094 361.964844 226.554688 366.058594 227.289062 C 366.578125 227.382812 367.121094 227.378906 367.652344 227.398438 C 367.933594 227.410156 368.210938 227.320312 368.207031 226.992188 C 368.203125 226.828125 368.054688 226.632812 367.921875 226.515625 C 367.605469 226.238281 367.191406 226.214844 366.792969 226.144531 C 366.464844 226.085938 366.332031 225.832031 366.503906 225.574219 C 367.121094 224.652344 366.46875 224.453125 365.796875 224.25 C 364.039062 223.730469 362.394531 223.097656 361.613281 221.191406 C 361.433594 220.746094 360.910156 220.371094 360.453125 220.117188 C 357.238281 218.335938 354.03125 216.542969 350.277344 216.085938 C 344.097656 215.335938 337.90625 214.847656 331.675781 214.835938 C 323.769531 214.820312 315.890625 215.089844 308.097656 216.542969 C 294 219.175781 280.699219 223.734375 269.285156 232.789062 C 268.671875 233.273438 268.085938 233.597656 267.28125 233.390625 C 266.320312 233.140625 265.617188 233.539062 265.027344 234.304688 C 263.964844 235.679688 262.808594 236.988281 261.78125 238.386719 C 260.785156 239.742188 259.707031 240.996094 258.464844 242.128906 C 250.84375 249.105469 244.765625 257.289062 239.695312 266.253906 C 237.289062 270.5 235.4375 275.03125 233.121094 279.320312 C 231.078125 283.109375 229.671875 287.148438 228.476562 291.234375 C 226.773438 297.054688 225.390625 302.96875 223.90625 308.847656 C 223.054688 312.210938 222.3125 315.589844 221.902344 319.054688 C 221.507812 322.425781 220.695312 325.75 220.1875 329.113281 C 219.476562 333.847656 218.882812 338.5625 219.121094 343.417969 C 219.363281 348.398438 218.324219 353.402344 219.03125 358.421875 C 219.335938 360.558594 219.460938 362.71875 219.710938 364.863281 C 219.75 365.175781 219.734375 365.707031 220.492188 365.640625 C 220.367188 364.453125 220.300781 363.269531 220.101562 362.105469 C 220.007812 361.539062 220.074219 361.0625 220.253906 360.550781 C 220.445312 360.007812 220.742188 359.773438 221.304688 360.003906 C 222.515625 360.492188 223.8125 360.359375 225.066406 360.527344 C 226.980469 360.78125 227.621094 360.261719 228.246094 358.410156 C 229.054688 356.007812 228.980469 353.402344 229.984375 351.046875 C 230.285156 350.347656 230.546875 349.621094 229.382812 349.398438 C 228.976562 349.324219 229.019531 348.871094 229.011719 348.558594 C 228.992188 347.824219 228.976562 347.085938 229.042969 346.355469 C 229.179688 344.824219 229.398438 343.300781 229.527344 341.769531 C 229.65625 340.238281 230.882812 338.914062 230.339844 337.246094 C 230.234375 336.925781 230.542969 336.640625 230.882812 336.503906 C 231.332031 336.324219 231.355469 335.894531 231.449219 335.511719 C 231.902344 333.636719 232.375 331.761719 232.796875 329.878906 C 233.058594 328.707031 233.214844 327.511719 233.476562 326.339844 C 233.726562 325.234375 233.992188 324.125 234.363281 323.054688 C 234.75 321.929688 235.269531 320.847656 235.734375 319.746094 C 236.15625 318.746094 235.980469 317.574219 236.757812 316.65625 C 237.375 315.933594 237.25 314.769531 238.1875 314.144531 C 236.824219 319.597656 235.363281 325.019531 234.429688 330.5625 C 235.457031 327.675781 236.375 324.757812 237.3125 321.847656 C 238.191406 319.121094 238.75 316.21875 240.066406 313.71875 C 241.730469 310.566406 242.535156 307.136719 243.949219 303.925781 C 244.191406 303.375 244.40625 302.808594 244.714844 302.296875 C 246.054688 300.089844 247.476562 297.929688 248.773438 295.695312 C 251.3125 291.3125 254.066406 287.09375 257.496094 283.339844 C 267.433594 272.457031 278.015625 262.25 289.355469 252.828125 C 296.597656 246.8125 304.433594 241.773438 313.058594 237.960938 C 322.425781 233.824219 332.234375 231.316406 342.328125 229.824219 C 346.960938 229.140625 351.617188 228.671875 356.308594 228.753906 C 357.355469 228.773438 358.3125 228.785156 358.507812 230.183594 C 358.574219 230.644531 358.878906 231.1875 359.609375 231.230469 C 359.496094 229.636719 359.378906 228.066406 357.496094 227.578125 C 356.40625 227.296875 355.273438 227.042969 354.15625 227.03125 C 348.089844 226.957031 342.058594 227.464844 336.117188 228.675781 C 331.667969 229.582031 327.171875 230.191406 323.082031 232.601562 C 320.261719 234.265625 316.972656 235.140625 313.890625 236.371094 C 317.597656 234.121094 321.40625 232.0625 325.417969 230.484375 Z M 274.421875 143.855469 C 273.257812 143.675781 272.609375 142.636719 271.382812 141.914062 C 271.902344 143.230469 273.046875 143.613281 273.558594 144.597656 C 272.84375 144.753906 272.621094 144.171875 272.25 143.890625 C 268.519531 141.074219 265.039062 137.9375 261.769531 134.628906 C 254.859375 127.636719 248.863281 119.914062 244.296875 111.136719 C 238.941406 100.84375 235.078125 90.007812 232.292969 78.761719 C 230.992188 73.507812 230.082031 68.171875 228.949219 62.882812 C 228.6875 61.652344 228.417969 60.417969 228.09375 59.203125 C 226.421875 52.929688 226.589844 46.515625 226.761719 40.128906 C 226.933594 33.722656 227.84375 27.390625 229.75 21.234375 C 230.027344 20.347656 230.15625 19.410156 230.398438 18.507812 C 230.660156 17.542969 230.894531 16.527344 231.828125 15.945312 C 232.878906 15.289062 233.089844 14.285156 233.097656 13.171875 C 233.101562 12.246094 233.097656 11.320312 233.339844 10.386719 C 233.398438 11.359375 233.453125 12.332031 233.511719 13.300781 C 234.058594 12.273438 233.734375 11.132812 233.980469 9.96875 C 235.15625 10.453125 234.378906 11.59375 235.117188 12.09375 C 235.699219 12.140625 235.964844 11.589844 236.363281 11.28125 C 237.078125 10.726562 237.878906 10.441406 238.773438 10.445312 C 239.203125 10.445312 239.503906 10.621094 239.679688 11.074219 C 239.875 11.582031 239.632812 11.8125 239.269531 12.042969 C 239.042969 12.183594 238.804688 12.316406 238.609375 12.496094 C 237.6875 13.351562 237.621094 13.828125 238.636719 14.523438 C 239.175781 14.890625 239.285156 16.089844 240.425781 15.574219 C 240.683594 15.453125 240.621094 15.984375 240.566406 16.191406 C 240.21875 17.5 240.285156 18.851562 240.125 20.179688 C 240.070312 20.636719 239.941406 21.199219 240.132812 21.558594 C 240.957031 23.105469 240.523438 24.667969 240.40625 26.25 C 240.234375 28.519531 240.441406 30.789062 240.664062 33.050781 C 240.730469 33.742188 241.050781 34.113281 241.609375 34.433594 C 242.496094 34.9375 242.796875 35.679688 242.742188 36.753906 C 242.539062 40.925781 243.214844 45.015625 244.160156 49.0625 C 247.105469 61.636719 251.242188 73.816406 256.738281 85.492188 C 260.59375 93.683594 265.578125 101.234375 271.140625 108.375 C 284.933594 126.078125 301.789062 140.246094 321.269531 151.292969 C 331.320312 156.992188 342.242188 160.277344 353.5625 162.347656 C 358.632812 163.273438 363.71875 164.003906 368.894531 163.996094 C 370.53125 163.992188 372.167969 164.300781 374.175781 164.503906 C 372.882812 165.960938 371.480469 166.074219 370.171875 166.320312 C 369.324219 166.480469 368.414062 166.347656 367.605469 166.699219 C 365.792969 167.480469 363.972656 168.246094 362.128906 168.976562 C 364.308594 169.214844 366.417969 168.816406 368.535156 168.628906 C 370.605469 168.449219 372.414062 166.972656 374.90625 167.285156 C 373.804688 168.589844 372.519531 169.054688 371.207031 169.480469 C 366.90625 170.867188 362.449219 171.277344 357.980469 171.566406 C 355.378906 171.738281 352.769531 171.808594 350.164062 171.925781 C 349.828125 171.941406 349.40625 171.84375 349.175781 172.007812 C 347.003906 173.539062 344.5 172.570312 342.195312 172.78125 C 340.402344 172.945312 338.425781 172.214844 336.519531 171.953125 C 331.765625 171.300781 327.011719 170.65625 322.257812 169.976562 C 318.8125 169.484375 315.417969 168.757812 312.136719 167.574219 C 310.941406 167.140625 309.660156 166.789062 308.699219 165.964844 C 307.195312 164.671875 305.402344 164.324219 303.566406 163.953125 C 299.761719 163.183594 296.039062 162.117188 292.445312 160.632812 C 291.261719 160.144531 290.148438 159.488281 289.078125 158.707031 C 294.714844 160.734375 300.300781 162.882812 306.289062 163.964844 C 306.179688 163.140625 305.613281 163.226562 305.222656 163.105469 C 302.855469 162.378906 300.53125 161.546875 298.234375 160.628906 C 297.484375 160.328125 296.789062 159.839844 296.84375 159.140625 C 296.945312 157.859375 296.09375 157.6875 295.28125 157.40625 C 294.003906 156.964844 292.867188 156.324219 291.894531 155.382812 C 289.964844 153.515625 287.566406 152.285156 285.449219 150.671875 C 280.8125 147.152344 276.398438 143.394531 272.4375 139.109375 C 270.765625 137.296875 268.976562 135.585938 267.207031 133.863281 C 266.011719 132.703125 264.910156 131.472656 263.902344 130.15625 C 264.117188 130.101562 264.269531 129.914062 264.152344 129.761719 C 263.5 128.921875 262.976562 127.953125 261.945312 127.476562 C 261.910156 126.820312 261.4375 126.421875 261.050781 125.976562 C 260.914062 125.824219 260.660156 125.703125 260.554688 125.90625 C 260.429688 126.148438 260.601562 126.40625 260.792969 126.605469 C 259.101562 125.609375 258.195312 123.8125 256.539062 122.6875 C 256.804688 123.097656 257.042969 123.527344 257.335938 123.914062 C 260.535156 128.113281 263.992188 132.085938 267.746094 135.808594 C 268.226562 136.285156 269.183594 136.609375 268.660156 137.714844 C 268.476562 138.109375 269.09375 138.484375 269.417969 138.796875 C 270.761719 140.09375 272.132812 141.367188 273.488281 142.652344 C 273.859375 143.007812 274.386719 143.261719 274.386719 143.894531 Z M 281.21875 127.421875 C 281.261719 126.660156 280.765625 126.394531 280.152344 126.25 C 280.550781 126.589844 280.457031 127.429688 281.257812 127.382812 C 281.445312 128.324219 282.09375 128.921875 282.824219 129.453125 C 282.933594 129.6875 282.996094 129.964844 283.15625 130.152344 C 286.980469 134.496094 291.035156 138.628906 295.132812 142.707031 C 298.5 146.058594 302.296875 148.941406 306.15625 151.71875 C 312.210938 156.074219 318.855469 159.285156 325.789062 161.941406 C 331.269531 164.042969 336.972656 165.347656 342.703125 166.527344 C 343.847656 166.761719 344.980469 167.230469 346.484375 166.976562 C 345.867188 166.746094 345.507812 166.589844 345.140625 166.476562 C 341.503906 165.355469 337.820312 164.359375 334.238281 163.089844 C 330.816406 161.871094 327.023438 161.5625 324.179688 158.800781 C 323.40625 158.050781 322.097656 157.660156 321.027344 157.117188 C 316.621094 154.882812 312.230469 152.585938 308.265625 149.625 C 302.269531 145.152344 296.402344 140.507812 290.742188 135.605469 C 288.21875 133.421875 285.914062 130.984375 283.195312 129.027344 C 282.664062 128.332031 282.15625 127.609375 281.21875 127.421875 Z M 361.472656 167.128906 C 358.066406 166.933594 354.660156 166.738281 351.253906 166.542969 C 354.589844 167.632812 357.96875 167.941406 361.472656 167.128906 Z M 349.019531 167.738281 C 349.761719 168.0625 350.457031 168.414062 351.308594 168.160156 C 350.542969 167.96875 349.902344 167.351562 349.019531 167.738281 Z M 259.773438 124.648438 C 259.472656 124.152344 259.339844 123.484375 258.597656 123.421875 C 258.929688 123.894531 259.007812 124.558594 259.773438 124.648438 Z M 147.964844 114.722656 C 147.460938 115.140625 147.054688 115.644531 146.628906 116.140625 C 145.742188 117.167969 144.941406 118.308594 143.699219 118.976562 C 145.699219 118.140625 147 116.601562 147.964844 114.722656 Z M 150.777344 111.507812 C 149.742188 112.394531 148.914062 113.464844 148.125 114.566406 C 149.410156 113.898438 150.289062 112.871094 150.777344 111.507812 Z M 158.09375 104.640625 C 158.191406 104.6875 159.171875 104.054688 158.382812 103.40625 C 158.335938 103.507812 158.269531 103.574219 158.183594 103.601562 C 157.960938 103.949219 157.417969 104.316406 158.09375 104.640625 Z M 274.421875 143.851562 C 274.601562 144.660156 275.367188 144.773438 275.925781 145.132812 C 275.460938 144.664062 275.261719 143.859375 274.386719 143.894531 C 274.386719 143.894531 274.421875 143.855469 274.421875 143.851562 Z M 277.34375 146.203125 C 277.375 146.675781 277.800781 146.726562 278.15625 146.863281 C 277.976562 146.546875 277.75 146.253906 277.34375 146.203125 Z M 228.429688 286.007812 C 228.222656 286.40625 228.046875 286.742188 227.871094 287.082031 C 228.269531 286.898438 228.679688 286.589844 228.429688 286.007812 Z M 164.527344 30.183594 C 164.46875 30.609375 164.425781 30.914062 164.382812 31.222656 C 164.671875 30.976562 164.808594 30.648438 164.527344 30.183594 Z M 219.636719 367.703125 C 219.617188 367.824219 219.574219 367.941406 219.578125 368.058594 C 219.585938 368.261719 219.675781 368.425781 219.910156 368.359375 C 219.964844 368.34375 219.972656 368.167969 220.007812 368.039062 C 219.890625 367.933594 219.761719 367.820312 219.636719 367.703125 Z M 90.519531 158.851562 C 90.402344 158.847656 90.285156 158.878906 90.167969 158.890625 C 90.269531 158.921875 90.367188 158.96875 90.46875 158.976562 C 90.578125 158.980469 90.691406 158.953125 90.835938 158.933594 C 90.710938 158.898438 90.617188 158.855469 90.519531 158.851562 Z M 166.070312 83.8125 C 166.890625 82.679688 167.097656 81.773438 167.269531 80.847656 C 166.785156 81.640625 166.277344 82.417969 166.070312 83.8125 Z M 166.070312 83.8125"/></g></svg>