<svg xmlns="http://www.w3.org/2000/svg" width="375" viewBox="0 0 375 225" height="225" version="1.0"><path fill="#170B28" d="M 104.933594 171.050781 C 103.644531 162.859375 103.164062 154.503906 102.359375 146.3125 C 102.199219 143.101562 102.039062 143.261719 101.394531 138.761719 C 101.394531 138.601562 101.394531 138.28125 101.234375 138.121094 C 101.074219 137.316406 100.75 136.355469 100.109375 135.871094 C 98.5 134.265625 95.445312 134.90625 94.480469 136.996094 C 93.03125 144.867188 93.675781 159.964844 94.640625 173.460938 C 92.230469 168.640625 92.230469 168.480469 89.335938 162.054688 C 78.5625 136.515625 67.144531 111.132812 55.730469 85.914062 C 50.101562 73.707031 44.472656 61.339844 39.972656 48.648438 C 38.363281 44.152344 36.753906 39.652344 35.308594 35.316406 C 34.984375 34.351562 34.34375 33.550781 33.378906 33.066406 C 30.484375 31.460938 26.785156 34.515625 27.910156 37.726562 C 34.019531 55.878906 41.578125 73.546875 49.78125 90.894531 C 56.210938 105.351562 62.644531 119.96875 69.074219 134.585938 C 73.898438 145.832031 78.402344 157.394531 83.386719 168.480469 C 81.296875 166.875 79.042969 165.265625 76.953125 163.660156 C 74.703125 161.574219 72.289062 159.484375 70.039062 157.394531 C 66.984375 154.664062 61.515625 149.042969 58.140625 154.503906 C 56.210938 158.679688 61.515625 161.734375 64.089844 164.304688 C 66.179688 166.070312 68.269531 167.675781 70.359375 169.28125 C 71.808594 170.730469 73.417969 172.335938 74.863281 173.78125 C 79.6875 178.277344 84.351562 182.9375 89.175781 187.59375 C 92.230469 190.164062 95.125 194.019531 99.304688 194.5 C 109.917969 193.539062 105.574219 177.957031 104.933594 171.050781 Z M 104.933594 171.050781"/><path fill="#170B28" d="M 188.382812 163.019531 C 188.382812 163.019531 188.222656 163.179688 188.222656 163.179688 C 188.382812 163.019531 188.546875 162.859375 188.382812 163.019531 Z M 188.382812 163.019531"/><path fill="#170B28" d="M 185.488281 149.847656 C 184.363281 150.328125 183.238281 150.972656 182.59375 152.09375 C 182.113281 152.738281 179.863281 155.789062 179.21875 156.433594 C 176.808594 159.484375 174.554688 162.695312 172.144531 165.75 C 172.144531 154.988281 173.109375 139.40625 173.589844 132.980469 C 175.679688 111.296875 178.574219 89.769531 180.828125 68.246094 C 183.078125 49.453125 185.652344 30.660156 189.671875 12.1875 C 190.152344 9.457031 191.4375 6.5625 189.832031 4.15625 C 187.417969 0.300781 181.148438 1.425781 180.34375 5.921875 C 174.554688 33.871094 171.660156 62.304688 169.089844 90.734375 C 166.675781 114.507812 164.265625 132.980469 164.105469 155.789062 C 164.105469 158.519531 164.105469 161.894531 164.105469 165.105469 C 161.851562 159.003906 159.441406 151.773438 157.351562 145.832031 C 155.902344 141.816406 154.617188 137.800781 153.007812 133.785156 C 151.882812 131.375 150.917969 128.320312 148.023438 127.839844 C 143.683594 127.035156 141.59375 131.214844 142.558594 134.90625 C 142.558594 135.390625 142.71875 136.355469 142.878906 136.835938 L 142.878906 136.675781 C 142.878906 137.15625 143.039062 137.800781 143.039062 138.28125 C 143.683594 140.851562 144.328125 143.582031 145.128906 146.152344 C 148.507812 157.394531 151.5625 168.960938 156.546875 179.882812 C 166.515625 198.519531 181.953125 172.496094 188.222656 163.339844 C 188.222656 163.339844 188.222656 163.339844 188.222656 163.5 C 188.382812 163.339844 188.546875 163.019531 188.707031 162.859375 C 189.992188 160.449219 192.242188 158.359375 192.402344 155.628906 C 192.886719 151.773438 188.867188 148.722656 185.488281 149.847656 Z M 185.488281 149.847656"/><path fill="#170B28" d="M 337.441406 85.433594 C 321.363281 103.425781 306.40625 122.539062 290.808594 141.171875 C 275.535156 159.644531 260.097656 177.796875 245.304688 196.589844 C 245.628906 194.339844 246.109375 192.253906 246.429688 190.003906 C 247.394531 183.898438 247.558594 182.9375 248.199219 176.671875 C 248.519531 174.101562 248.359375 175.386719 248.199219 173.296875 C 248.199219 172.335938 248.199219 171.371094 247.71875 170.566406 C 246.269531 168.320312 242.734375 168.960938 242.089844 171.53125 C 240.480469 177.152344 239.195312 182.777344 237.910156 188.558594 C 237.105469 191.769531 236.300781 195.144531 235.496094 198.519531 C 234.691406 201.890625 233.890625 205.105469 233.246094 208.476562 C 232.761719 210.082031 232.441406 211.527344 231.960938 213.136719 C 231.636719 213.9375 230.03125 217.472656 232.925781 218.917969 C 233.40625 219.882812 233.890625 220.683594 234.855469 221.328125 C 239.355469 224.699219 245.464844 222.613281 250.289062 221.328125 C 253.667969 219.882812 258.328125 220.042969 260.257812 216.507812 C 261.867188 213.457031 259.9375 209.441406 256.5625 208.796875 C 254.308594 208.316406 252.21875 209.601562 250.128906 210.082031 C 247.074219 210.886719 244.664062 211.6875 242.734375 212.171875 C 242.734375 211.851562 242.734375 211.527344 242.894531 211.207031 C 246.109375 207.511719 249.324219 203.820312 252.378906 200.125 C 271.996094 177.636719 291.773438 155.46875 310.425781 132.175781 C 321.523438 118.523438 332.617188 104.710938 344.355469 91.539062 C 348.535156 87.039062 341.78125 80.9375 337.441406 85.433594 Z M 337.441406 85.433594"/></svg>