<svg xmlns="http://www.w3.org/2000/svg" xmlns:xlink="http://www.w3.org/1999/xlink" width="500" zoomAndPan="magnify" viewBox="0 0 375 374.999991" height="500" preserveAspectRatio="xMidYMid meet" version="1.0"><defs><clipPath id="id1"><path d="M 45.335938 0 L 314.585938 0 L 314.585938 374 L 45.335938 374 Z M 45.335938 0 " clip-rule="nonzero"/></clipPath></defs><g clip-path="url(#id1)"><path fill="rgb(75.689697%, 15.289307%, 17.649841%)" d="M 150 138.085938 C 149.570312 131.558594 152.109375 124.96875 153.570312 118.1875 C 153.679688 117.679688 153.902344 117.160156 154.195312 116.726562 C 155.125 115.363281 156.460938 115.324219 157.238281 116.78125 C 159.132812 120.316406 161.183594 123.707031 161.203125 128.050781 C 161.230469 133.28125 161.5 138.527344 162.007812 143.753906 C 162.4375 148.21875 164.328125 151.960938 167.105469 155.316406 C 169.96875 158.773438 173.664062 159.1875 177.324219 156.488281 C 181.308594 153.546875 183.925781 149.535156 185.933594 145.085938 C 186.859375 143.039062 187.742188 140.972656 188.679688 138.933594 C 189.035156 138.15625 189.460938 137.40625 190.183594 136.886719 C 190.550781 136.621094 191.171875 136.414062 191.3125 136.789062 C 191.847656 138.222656 193.585938 138.378906 194.203125 139.671875 C 194.78125 140.886719 194.796875 142.171875 194.53125 143.445312 C 194.1875 145.117188 193.882812 146.820312 193.320312 148.421875 C 191.316406 154.101562 188.726562 159.566406 185.191406 164.398438 C 181.527344 169.40625 176.441406 172.570312 169.988281 172.722656 C 165.199219 172.832031 161.269531 170.839844 158.226562 167.160156 C 157.480469 166.257812 156.808594 165.269531 156.253906 164.238281 C 153.421875 158.984375 149.035156 146.757812 150 138.085938 Z M 149.847656 248.125 C 148.363281 251.570312 146.71875 254.9375 144.601562 258.046875 C 143.011719 260.386719 141.066406 262.316406 138.382812 263.429688 C 134.503906 265.039062 131.53125 264.136719 129.335938 260.515625 C 128.730469 259.515625 128.257812 258.421875 127.820312 257.332031 C 126.097656 253.042969 124.878906 248.628906 124.160156 244.046875 C 123.335938 238.761719 122.296875 233.503906 121.300781 228.246094 C 120.941406 226.339844 120.367188 224.484375 118.9375 223.0625 C 117.464844 221.597656 115.921875 221.515625 114.402344 222.910156 C 113.707031 223.554688 113.128906 224.355469 112.617188 225.164062 C 110.269531 228.859375 109.664062 232.929688 110.257812 237.199219 C 111.085938 243.140625 112.0625 249.058594 113.445312 254.898438 C 114.136719 257.816406 114.894531 260.726562 116.09375 263.484375 C 118.734375 269.542969 122.847656 274.128906 129.289062 276.25 C 136.785156 278.722656 142.78125 276.664062 147.1875 270.160156 C 147.785156 269.277344 148.386719 268.371094 148.824219 267.402344 C 152.289062 259.699219 154.136719 251.632812 154.324219 242.644531 C 151.015625 245.390625 151.023438 245.394531 149.847656 248.125 Z M 189.851562 348.796875 C 190.917969 353.1875 192.554688 357.359375 194.75 361.320312 C 197.632812 366.519531 202.066406 370.003906 207.394531 372.238281 C 213.09375 374.628906 218.511719 374.101562 223 369.324219 C 224.464844 367.765625 225.914062 366.183594 227.40625 364.652344 C 230.265625 361.71875 231.96875 358.171875 232.683594 354.199219 C 233.289062 350.832031 233.65625 347.421875 234.039062 344.019531 C 234.210938 342.523438 234.296875 340.636719 232.617188 340.148438 C 230.914062 339.65625 230.074219 341.300781 229.4375 342.699219 C 228.289062 345.230469 227.15625 347.773438 226.023438 350.316406 C 224.570312 353.570312 222.625 356.523438 220.28125 359.179688 C 216.464844 363.5 211.6875 363.421875 207.890625 359.035156 C 206.203125 357.082031 204.933594 354.839844 203.902344 352.472656 C 202.53125 349.320312 201.464844 346.070312 200.675781 342.726562 C 199.566406 338.035156 198.769531 333.285156 198.175781 328.5 C 197.753906 325.085938 197.03125 321.734375 195.761719 318.539062 C 194.753906 316.007812 193.125 315.867188 191.589844 318.117188 C 190.371094 319.898438 189.609375 321.910156 189.078125 323.996094 C 188.25 327.226562 187.832031 330.511719 187.890625 334.207031 C 188.167969 338.882812 188.65625 343.886719 189.851562 348.796875 Z M 45.804688 107.804688 C 46.839844 116.355469 49.882812 123.949219 56.503906 129.8125 C 59.371094 132.351562 62.628906 133.523438 66.460938 133.570312 C 71.574219 133.632812 75.371094 130.957031 79.105469 128.011719 C 80.75 126.710938 81.96875 125.109375 82.585938 123.109375 C 84.378906 117.324219 85.320312 111.441406 84.410156 105.375 C 84.300781 104.644531 84.191406 103.875 83.878906 103.21875 C 83.398438 102.210938 82.53125 102.101562 81.851562 102.964844 C 81.269531 103.703125 80.796875 104.59375 80.507812 105.492188 C 79.722656 107.9375 79.074219 110.425781 78.339844 112.886719 C 78.070312 113.800781 77.992188 114.804688 77.328125 115.566406 C 75.496094 117.65625 73.644531 119.730469 71.808594 121.820312 C 70.597656 123.203125 69.109375 123.441406 67.433594 122.910156 C 64.085938 121.859375 61.660156 119.722656 60.101562 116.601562 C 57.976562 112.34375 56.691406 107.835938 56.089844 103.117188 C 55.507812 98.550781 54.96875 93.976562 54.226562 89.4375 C 53.722656 86.367188 52.171875 84.847656 50.101562 84.882812 C 48.042969 84.917969 46.667969 86.441406 46.054688 89.550781 C 45.386719 92.929688 45.363281 96.359375 45.335938 100.492188 C 45.453125 102.464844 45.480469 105.152344 45.804688 107.804688 Z M 313.835938 109.867188 C 313.375 110.9375 312.902344 112 312.449219 113.070312 C 311.355469 115.636719 310.136719 118.148438 308.523438 120.421875 C 305.199219 125.109375 297.726562 126.480469 294.035156 122.832031 C 289.667969 118.507812 285.847656 113.742188 285.460938 107.15625 C 285.347656 105.238281 285.039062 103.328125 284.925781 101.40625 C 284.730469 98.085938 284.285156 94.804688 283.714844 91.53125 C 283.339844 89.402344 282.601562 87.390625 281.527344 85.523438 C 280.527344 83.78125 279.546875 83.769531 278.488281 85.519531 C 277.140625 87.742188 276.390625 90.222656 275.992188 92.769531 C 274.503906 102.34375 275.203125 111.761719 278.171875 121 C 279.378906 124.757812 281.542969 127.917969 284.355469 130.632812 C 290.851562 136.894531 304.894531 138.621094 311.988281 126.667969 C 313.242188 124.550781 314.484375 122.265625 314.492188 119.789062 C 314.5 116.519531 314.1875 113.242188 314.625 109.953125 C 314.363281 109.925781 314.101562 109.898438 313.835938 109.867188 Z M 138.441406 25.257812 C 136.84375 29.941406 134.84375 34.394531 131.730469 38.316406 C 128.410156 42.507812 125.289062 43.3125 120.511719 40.929688 C 119.464844 40.410156 118.464844 39.757812 117.519531 39.0625 C 113.929688 36.417969 111.828125 32.703125 110.375 28.613281 C 109.046875 24.882812 108.050781 21.03125 106.660156 17.324219 C 105.09375 13.152344 104.355469 8.875 104.277344 4.449219 C 104.265625 3.703125 104.246094 2.941406 104.105469 2.210938 C 103.902344 1.136719 103.140625 0.558594 102.089844 0.453125 C 101.132812 0.355469 100.378906 0.855469 100.019531 1.6875 C 99.640625 2.558594 99.449219 3.519531 99.222656 4.449219 C 98.21875 8.558594 98.496094 12.738281 98.472656 16.914062 C 98.4375 23.292969 99.40625 29.507812 101.042969 35.632812 C 102.042969 39.386719 103.597656 42.898438 106.128906 45.921875 C 108.648438 48.933594 111.832031 50.761719 115.730469 51.214844 C 118.941406 51.589844 122.117188 51.3125 125.289062 50.582031 C 131.480469 49.160156 135.015625 44.921875 137.019531 39.320312 C 138.492188 35.207031 139.457031 30.902344 140.582031 26.667969 C 141.035156 24.960938 141.238281 23.207031 140.695312 21.171875 C 139.117188 22.371094 138.90625 23.90625 138.441406 25.257812 Z M 277.238281 258.371094 C 279.453125 254.617188 280.484375 250.253906 281.335938 245.9375 C 281.566406 244.769531 281.515625 243.585938 281.109375 242.453125 C 280.84375 241.699219 278.84375 240.773438 277.9375 240.976562 C 276.832031 241.226562 277.253906 242.152344 277.203125 242.816406 C 277.089844 244.316406 277.007812 245.804688 276.246094 247.160156 C 274.992188 249.398438 273.769531 251.65625 272.515625 253.894531 C 271.308594 256.042969 269.394531 257.097656 266.992188 257.183594 C 263.902344 257.292969 261.761719 255.691406 260.113281 253.210938 C 255.078125 245.644531 251.382812 237.535156 250.011719 228.472656 C 249.65625 226.121094 248.359375 224.082031 247.785156 221.796875 C 247.570312 220.9375 246.90625 220.285156 245.949219 220.234375 C 245.074219 220.191406 244.648438 220.796875 244.363281 221.5625 C 242.988281 225.28125 241.769531 229.007812 241.667969 233.050781 C 241.460938 241.132812 243.277344 248.75 246.558594 256.074219 C 249.339844 262.28125 254.84375 265.019531 260.769531 267.183594 C 261.550781 267.46875 262.460938 267.390625 263.886719 267.542969 C 269.503906 266.789062 274.183594 263.539062 277.238281 258.371094 Z M 225.132812 44.390625 C 223.925781 47.71875 222.625 51 220.5 53.863281 C 216.3125 59.5 212.640625 59.703125 208.019531 54.402344 C 204.253906 50.078125 201.472656 45.171875 199.953125 39.585938 C 198.746094 35.148438 197.460938 30.730469 196.199219 26.308594 C 195.992188 25.589844 195.765625 24.875 195.484375 24.183594 C 195.234375 23.566406 194.816406 23.054688 194.082031 23.046875 C 193.335938 23.039062 192.929688 23.585938 192.6875 24.1875 C 191.972656 25.992188 191.601562 27.871094 191.472656 29.808594 C 191.152344 34.664062 191.792969 39.453125 192.898438 44.132812 C 194.195312 49.613281 194.796875 55.285156 197.722656 60.347656 C 201.890625 67.5625 209.011719 70.046875 216.421875 66.535156 C 216.808594 66.351562 217.203125 66.183594 217.585938 65.996094 C 221.839844 63.894531 224.761719 60.59375 226.109375 56.0625 C 227.589844 51.09375 227.628906 45.941406 227.683594 40.808594 C 227.683594 40.660156 227.460938 40.511719 227.21875 40.207031 C 225.957031 41.351562 225.65625 42.941406 225.132812 44.390625 Z M 225.132812 44.390625 " fill-opacity="1" fill-rule="nonzero"/><path fill="rgb(75.689697%, 15.289307%, 17.649841%)" d="M 150 138.085938 C 149.570312 131.558594 152.109375 124.96875 153.570312 118.1875 C 153.679688 117.679688 153.902344 117.160156 154.195312 116.726562 C 155.125 115.363281 156.460938 115.324219 157.238281 116.78125 C 159.132812 120.316406 161.183594 123.707031 161.203125 128.050781 C 161.230469 133.28125 161.5 138.527344 162.007812 143.753906 C 162.4375 148.21875 164.328125 151.960938 167.105469 155.316406 C 169.96875 158.773438 173.664062 159.1875 177.324219 156.488281 C 181.308594 153.546875 183.925781 149.535156 185.933594 145.085938 C 186.859375 143.039062 187.742188 140.972656 188.679688 138.933594 C 189.035156 138.15625 189.460938 137.40625 190.183594 136.886719 C 190.550781 136.621094 191.171875 136.414062 191.3125 136.789062 C 191.847656 138.222656 193.585938 138.378906 194.203125 139.671875 C 194.78125 140.886719 194.796875 142.171875 194.53125 143.445312 C 194.1875 145.117188 193.882812 146.820312 193.320312 148.421875 C 191.316406 154.101562 188.726562 159.566406 185.191406 164.398438 C 181.527344 169.40625 176.441406 172.570312 169.988281 172.722656 C 165.199219 172.832031 161.269531 170.839844 158.226562 167.160156 C 157.480469 166.257812 156.808594 165.269531 156.253906 164.238281 C 153.421875 158.984375 149.035156 146.757812 150 138.085938 Z M 149.847656 248.125 C 148.363281 251.570312 146.71875 254.9375 144.601562 258.046875 C 143.011719 260.386719 141.066406 262.316406 138.382812 263.429688 C 134.503906 265.039062 131.53125 264.136719 129.335938 260.515625 C 128.730469 259.515625 128.257812 258.421875 127.820312 257.332031 C 126.097656 253.042969 124.878906 248.628906 124.160156 244.046875 C 123.335938 238.761719 122.296875 233.503906 121.300781 228.246094 C 120.941406 226.339844 120.367188 224.484375 118.9375 223.0625 C 117.464844 221.597656 115.921875 221.515625 114.402344 222.910156 C 113.707031 223.554688 113.128906 224.355469 112.617188 225.164062 C 110.269531 228.859375 109.664062 232.929688 110.257812 237.199219 C 111.085938 243.140625 112.0625 249.058594 113.445312 254.898438 C 114.136719 257.816406 114.894531 260.726562 116.09375 263.484375 C 118.734375 269.542969 122.847656 274.128906 129.289062 276.25 C 136.785156 278.722656 142.78125 276.664062 147.1875 270.160156 C 147.785156 269.277344 148.386719 268.371094 148.824219 267.402344 C 152.289062 259.699219 154.136719 251.632812 154.324219 242.644531 C 151.015625 245.390625 151.023438 245.394531 149.847656 248.125 Z M 189.851562 348.796875 C 190.917969 353.1875 192.554688 357.359375 194.75 361.320312 C 197.632812 366.519531 202.066406 370.003906 207.394531 372.238281 C 213.09375 374.628906 218.511719 374.101562 223 369.324219 C 224.464844 367.765625 225.914062 366.183594 227.40625 364.652344 C 230.265625 361.71875 231.96875 358.171875 232.683594 354.199219 C 233.289062 350.832031 233.65625 347.421875 234.039062 344.019531 C 234.210938 342.523438 234.296875 340.636719 232.617188 340.148438 C 230.914062 339.65625 230.074219 341.300781 229.4375 342.699219 C 228.289062 345.230469 227.15625 347.773438 226.023438 350.316406 C 224.570312 353.570312 222.625 356.523438 220.28125 359.179688 C 216.464844 363.5 211.6875 363.421875 207.890625 359.035156 C 206.203125 357.082031 204.933594 354.839844 203.902344 352.472656 C 202.53125 349.320312 201.464844 346.070312 200.675781 342.726562 C 199.566406 338.035156 198.769531 333.285156 198.175781 328.5 C 197.753906 325.085938 197.03125 321.734375 195.761719 318.539062 C 194.753906 316.007812 193.125 315.867188 191.589844 318.117188 C 190.371094 319.898438 189.609375 321.910156 189.078125 323.996094 C 188.25 327.226562 187.832031 330.511719 187.890625 334.207031 C 188.167969 338.882812 188.65625 343.886719 189.851562 348.796875 Z M 45.804688 107.804688 C 46.839844 116.355469 49.882812 123.949219 56.503906 129.8125 C 59.371094 132.351562 62.628906 133.523438 66.460938 133.570312 C 71.574219 133.632812 75.371094 130.957031 79.105469 128.011719 C 80.75 126.710938 81.96875 125.109375 82.585938 123.109375 C 84.378906 117.324219 85.320312 111.441406 84.410156 105.375 C 84.300781 104.644531 84.191406 103.875 83.878906 103.21875 C 83.398438 102.210938 82.53125 102.101562 81.851562 102.964844 C 81.269531 103.703125 80.796875 104.59375 80.507812 105.492188 C 79.722656 107.9375 79.074219 110.425781 78.339844 112.886719 C 78.070312 113.800781 77.992188 114.804688 77.328125 115.566406 C 75.496094 117.65625 73.644531 119.730469 71.808594 121.820312 C 70.597656 123.203125 69.109375 123.441406 67.433594 122.910156 C 64.085938 121.859375 61.660156 119.722656 60.101562 116.601562 C 57.976562 112.34375 56.691406 107.835938 56.089844 103.117188 C 55.507812 98.550781 54.96875 93.976562 54.226562 89.4375 C 53.722656 86.367188 52.171875 84.847656 50.101562 84.882812 C 48.042969 84.917969 46.667969 86.441406 46.054688 89.550781 C 45.386719 92.929688 45.363281 96.359375 45.335938 100.492188 C 45.453125 102.464844 45.480469 105.152344 45.804688 107.804688 Z M 313.835938 109.867188 C 313.375 110.9375 312.902344 112 312.449219 113.070312 C 311.355469 115.636719 310.136719 118.148438 308.523438 120.421875 C 305.199219 125.109375 297.726562 126.480469 294.035156 122.832031 C 289.667969 118.507812 285.847656 113.742188 285.460938 107.15625 C 285.347656 105.238281 285.039062 103.328125 284.925781 101.40625 C 284.730469 98.085938 284.285156 94.804688 283.714844 91.53125 C 283.339844 89.402344 282.601562 87.390625 281.527344 85.523438 C 280.527344 83.78125 279.546875 83.769531 278.488281 85.519531 C 277.140625 87.742188 276.390625 90.222656 275.992188 92.769531 C 274.503906 102.34375 275.203125 111.761719 278.171875 121 C 279.378906 124.757812 281.542969 127.917969 284.355469 130.632812 C 290.851562 136.894531 304.894531 138.621094 311.988281 126.667969 C 313.242188 124.550781 314.484375 122.265625 314.492188 119.789062 C 314.5 116.519531 314.1875 113.242188 314.625 109.953125 C 314.363281 109.925781 314.101562 109.898438 313.835938 109.867188 Z M 138.441406 25.257812 C 136.84375 29.941406 134.84375 34.394531 131.730469 38.316406 C 128.410156 42.507812 125.289062 43.3125 120.511719 40.929688 C 119.464844 40.410156 118.464844 39.757812 117.519531 39.0625 C 113.929688 36.417969 111.828125 32.703125 110.375 28.613281 C 109.046875 24.882812 108.050781 21.03125 106.660156 17.324219 C 105.09375 13.152344 104.355469 8.875 104.277344 4.449219 C 104.265625 3.703125 104.246094 2.941406 104.105469 2.210938 C 103.902344 1.136719 103.140625 0.558594 102.089844 0.453125 C 101.132812 0.355469 100.378906 0.855469 100.019531 1.6875 C 99.640625 2.558594 99.449219 3.519531 99.222656 4.449219 C 98.21875 8.558594 98.496094 12.738281 98.472656 16.914062 C 98.4375 23.292969 99.40625 29.507812 101.042969 35.632812 C 102.042969 39.386719 103.597656 42.898438 106.128906 45.921875 C 108.648438 48.933594 111.832031 50.761719 115.730469 51.214844 C 118.941406 51.589844 122.117188 51.3125 125.289062 50.582031 C 131.480469 49.160156 135.015625 44.921875 137.019531 39.320312 C 138.492188 35.207031 139.457031 30.902344 140.582031 26.667969 C 141.035156 24.960938 141.238281 23.207031 140.695312 21.171875 C 139.117188 22.371094 138.90625 23.90625 138.441406 25.257812 Z M 277.238281 258.371094 C 279.453125 254.617188 280.484375 250.253906 281.335938 245.9375 C 281.566406 244.769531 281.515625 243.585938 281.109375 242.453125 C 280.84375 241.699219 278.84375 240.773438 277.9375 240.976562 C 276.832031 241.226562 277.253906 242.152344 277.203125 242.816406 C 277.089844 244.316406 277.007812 245.804688 276.246094 247.160156 C 274.992188 249.398438 273.769531 251.65625 272.515625 253.894531 C 271.308594 256.042969 269.394531 257.097656 266.992188 257.183594 C 263.902344 257.292969 261.761719 255.691406 260.113281 253.210938 C 255.078125 245.644531 251.382812 237.535156 250.011719 228.472656 C 249.65625 226.121094 248.359375 224.082031 247.785156 221.796875 C 247.570312 220.9375 246.90625 220.285156 245.949219 220.234375 C 245.074219 220.191406 244.648438 220.796875 244.363281 221.5625 C 242.988281 225.28125 241.769531 229.007812 241.667969 233.050781 C 241.460938 241.132812 243.277344 248.75 246.558594 256.074219 C 249.339844 262.28125 254.84375 265.019531 260.769531 267.183594 C 261.550781 267.46875 262.460938 267.390625 263.886719 267.542969 C 269.503906 266.789062 274.183594 263.539062 277.238281 258.371094 Z M 225.132812 44.390625 C 223.925781 47.71875 222.625 51 220.5 53.863281 C 216.3125 59.5 212.640625 59.703125 208.019531 54.402344 C 204.253906 50.078125 201.472656 45.171875 199.953125 39.585938 C 198.746094 35.148438 197.460938 30.730469 196.199219 26.308594 C 195.992188 25.589844 195.765625 24.875 195.484375 24.183594 C 195.234375 23.566406 194.816406 23.054688 194.082031 23.046875 C 193.335938 23.039062 192.929688 23.585938 192.6875 24.1875 C 191.972656 25.992188 191.601562 27.871094 191.472656 29.808594 C 191.152344 34.664062 191.792969 39.453125 192.898438 44.132812 C 194.195312 49.613281 194.796875 55.285156 197.722656 60.347656 C 201.890625 67.5625 209.011719 70.046875 216.421875 66.535156 C 216.808594 66.351562 217.203125 66.183594 217.585938 65.996094 C 221.839844 63.894531 224.761719 60.59375 226.109375 56.0625 C 227.589844 51.09375 227.628906 45.941406 227.683594 40.808594 C 227.683594 40.660156 227.460938 40.511719 227.21875 40.207031 C 225.957031 41.351562 225.65625 42.941406 225.132812 44.390625 Z M 225.132812 44.390625 " fill-opacity="1" fill-rule="nonzero"/></g></svg>