<svg xmlns="http://www.w3.org/2000/svg" width="375" viewBox="0 0 375 225" height="225" version="1.0"><path d="M 284.984375 36.285156 C 251.140625 27.988281 215.910156 24.894531 181.144531 26.078125 C 146.972656 27.261719 112.667969 32.792969 80.667969 44.976562 C 58.9375 53.273438 36.550781 63.609375 19.300781 79.609375 C 11.398438 86.917969 4.289062 96.203125 2.378906 107 C 0.269531 118.917969 5.078125 130.242188 12.320312 139.460938 C 30.363281 162.441406 62.035156 169.683594 89.492188 173.699219 C 129.984375 179.691406 171.269531 181.800781 212.160156 179.363281 C 230.726562 178.246094 249.296875 176.003906 267.730469 173.304688 C 284.652344 170.804688 301.640625 167.445312 317.773438 161.453125 C 333.3125 155.660156 348.65625 147.363281 360.175781 135.246094 C 369.132812 125.832031 374.730469 112.664062 369.789062 99.890625 C 365.511719 88.828125 355.503906 80.992188 345.691406 75.066406 C 335.75 69.074219 325.015625 64.597656 314.152344 60.582031 C 277.277344 47.082031 237.441406 41.816406 198.332031 45.632812 C 188.914062 46.554688 179.699219 48.003906 170.546875 50.242188 C 168.242188 50.835938 169.292969 54.0625 171.46875 53.667969 C 190.496094 50.636719 209.589844 48.726562 228.949219 49.320312 C 248.175781 49.914062 267.269531 52.414062 285.90625 57.089844 C 299.730469 60.582031 313.363281 65.058594 326.398438 70.785156 C 337.066406 75.460938 347.863281 81.058594 356.359375 89.222656 C 364.257812 96.859375 368.933594 106.804688 365.378906 117.734375 C 360.507812 132.8125 344.242188 143.347656 330.808594 150.195312 C 301.707031 165.074219 267.46875 168.828125 235.402344 172.1875 C 195.300781 176.464844 154.742188 175.808594 114.707031 171.527344 C 86.394531 168.566406 54.921875 165.273438 30.625 149.007812 C 20.15625 141.964844 10.476562 131.363281 7.710938 118.785156 C 5.472656 108.777344 9.292969 99.035156 15.414062 91.132812 C 22.59375 81.847656 32.402344 74.671875 42.347656 68.613281 C 52.15625 62.621094 62.496094 57.550781 73.03125 53.074219 C 131.695312 27.988281 199.320312 24.300781 262.070312 34.902344 C 269.445312 36.152344 276.816406 37.667969 284.125 39.378906 C 286.101562 39.839844 286.957031 36.808594 284.984375 36.285156 Z M 284.984375 36.285156"/></svg>