<svg xmlns="http://www.w3.org/2000/svg" xmlns:xlink="http://www.w3.org/1999/xlink" width="500" zoomAndPan="magnify" viewBox="0 0 375 374.999991" height="500" preserveAspectRatio="xMidYMid meet" version="1.0"><defs><clipPath id="id1"><path d="M 0 13.296875 L 374 13.296875 L 374 361 L 0 361 Z M 0 13.296875 " clip-rule="nonzero"/></clipPath><clipPath id="id2"><path d="M 37.5 86.0625 L 234.75 86.0625 L 234.75 158 L 37.5 158 Z M 37.5 86.0625 " clip-rule="nonzero"/></clipPath></defs><g clip-path="url(#id1)"><path fill="rgb(21.179199%, 27.059937%, 30.979919%)" d="M 372.667969 260.855469 C 370.925781 258.492188 369.144531 256.15625 367.371094 253.8125 C 367.238281 248.832031 367.175781 243.847656 367.28125 238.832031 C 367.574219 225.5 368.222656 212.167969 367.972656 198.832031 C 367.734375 185.992188 366.679688 173.191406 366.21875 160.363281 C 366.214844 160.253906 366.214844 160.148438 366.210938 160.039062 C 367.910156 159.042969 368.953125 156.960938 367.652344 154.777344 C 367.132812 153.910156 366.589844 153.058594 366.058594 152.195312 C 366.023438 146.8125 366.140625 141.429688 366.351562 136.050781 C 368.59375 135.382812 370.332031 132.96875 368.722656 130.417969 C 368.09375 129.417969 367.421875 128.457031 366.769531 127.476562 C 366.839844 126.234375 366.898438 124.988281 366.976562 123.746094 C 367.304688 118.699219 367.707031 113.65625 368.085938 108.609375 C 368.34375 105.144531 369.136719 101.867188 366.992188 98.914062 C 362.300781 92.449219 356.773438 86.523438 351.480469 80.554688 C 332.84375 59.539062 314.175781 38.328125 294.398438 18.375 C 293.699219 17.671875 292.921875 17.324219 292.152344 17.238281 C 291.902344 17.136719 291.652344 17.039062 291.375 16.964844 C 283.132812 14.777344 273.789062 14.847656 265.339844 14.375 C 250.421875 13.539062 235.539062 13.402344 220.605469 13.707031 C 204.890625 14.023438 189.191406 13.921875 173.484375 14.664062 C 156.800781 15.453125 140.3125 15.476562 123.625 14.78125 C 107.246094 14.101562 90.851562 14.535156 74.460938 14.585938 C 58.75 14.632812 43.285156 15.570312 27.710938 17.667969 C 22 18.4375 16.292969 19.230469 10.570312 19.882812 C 9.355469 19.46875 7.890625 19.640625 6.753906 20.367188 C 3.148438 21.066406 2.4375 25.789062 4.695312 27.542969 C 3.707031 42.59375 3.359375 57.671875 2.703125 72.742188 C 1.992188 89.171875 0.84375 105.585938 0.519531 122.035156 C 0.195312 138.480469 0.703125 154.929688 1.007812 171.375 C 1.316406 187.820312 1.167969 204.277344 1.761719 220.714844 C 2.4375 239.253906 4.484375 257.691406 5.9375 276.175781 C 6.089844 278.074219 7.292969 279.695312 9.148438 280.046875 C 23.152344 292.355469 36.707031 305.164062 50.582031 317.617188 C 61.199219 327.144531 71.742188 337.296875 83.53125 345.390625 C 86.089844 347.144531 88.523438 348.503906 91.636719 348.796875 C 96.097656 349.210938 100.628906 349.171875 105.101562 349.273438 C 122.746094 349.671875 140.300781 350.027344 157.898438 351.507812 C 168.277344 352.386719 178.636719 352.695312 189.039062 353.121094 C 199.128906 353.53125 209.207031 354.210938 219.300781 354.539062 C 239.308594 355.183594 259.152344 352.023438 279.152344 352.925781 C 278.914062 353.316406 278.664062 353.703125 278.421875 354.097656 C 276.101562 357.871094 281.566406 362.226562 284.617188 358.882812 C 286.21875 357.125 287.785156 355.339844 289.363281 353.566406 C 295.785156 354.054688 302.203125 354.625 308.636719 354.964844 C 317.773438 355.445312 326.964844 355.253906 336.105469 354.917969 C 337.511719 354.867188 338.917969 354.78125 340.320312 354.71875 C 341.433594 355.136719 342.777344 355.085938 343.898438 354.546875 C 347.5625 354.339844 351.222656 354.085938 354.871094 353.710938 C 356.105469 353.582031 357.65625 353.542969 359.160156 353.320312 C 361.382812 354.128906 364.632812 352.949219 364.980469 349.804688 C 366.191406 338.894531 367.777344 328.035156 368.707031 317.097656 C 369.792969 304.273438 369.714844 291.636719 368.722656 278.8125 C 368.410156 274.742188 368.144531 270.6875 367.910156 266.632812 C 370.945312 268 374.800781 263.742188 372.667969 260.855469 Z M 199.703125 345.734375 C 200.171875 345.539062 200.640625 345.234375 201.085938 344.792969 C 205.058594 340.859375 208.984375 336.863281 212.761719 332.738281 C 211.585938 334.433594 210.394531 336.117188 209.269531 337.851562 C 206.789062 341.675781 212.3125 345.714844 215.464844 342.632812 C 219.675781 338.519531 223.585938 334.128906 227.1875 329.511719 C 225.894531 331.785156 224.613281 334.066406 223.371094 336.371094 C 222.871094 337.296875 222.851562 338.371094 223.148438 339.359375 C 221.960938 341.792969 220.796875 344.230469 219.644531 346.671875 C 212.992188 346.472656 206.34375 346.082031 199.703125 345.734375 Z M 84.113281 291.039062 C 79.910156 296.097656 74.609375 299.976562 68.613281 302.460938 C 73.464844 299.558594 77.648438 295.804688 81.097656 291.003906 C 82.816406 288.609375 80.882812 285.910156 78.46875 285.28125 C 77.179688 283.496094 74.574219 282.648438 72.566406 284.6875 C 71.460938 285.804688 70.300781 286.867188 69.167969 287.960938 C 68.328125 288.386719 67.535156 288.875 66.742188 289.371094 C 65.816406 287.269531 63.328125 285.742188 61.171875 287.371094 C 60.902344 287.574219 60.652344 287.792969 60.386719 288 C 60.382812 287.996094 60.378906 287.992188 60.375 287.988281 C 60.320312 288.03125 60.277344 288.085938 60.222656 288.128906 C 58.449219 289.519531 56.722656 290.964844 55.015625 292.4375 C 55.546875 291.28125 56.15625 290.167969 56.875 289.125 C 58.992188 286.066406 56.023438 283.253906 53.101562 283.453125 C 53.386719 282.238281 53.003906 281.027344 52.253906 280.097656 C 67.535156 280.234375 82.679688 281.835938 97.933594 282.523438 C 98.824219 282.5625 99.71875 282.570312 100.613281 282.601562 C 100.566406 282.652344 100.515625 282.6875 100.46875 282.742188 C 98.464844 285.078125 96.523438 287.453125 94.613281 289.851562 C 96.828125 285.566406 90.523438 282.292969 87.648438 286.183594 C 86.457031 287.792969 85.292969 289.421875 84.113281 291.039062 Z M 41.042969 286.339844 C 40.53125 285.488281 39.753906 284.820312 38.789062 284.664062 C 34.777344 284.007812 30.753906 283.449219 26.734375 282.835938 C 26.765625 282.757812 26.804688 282.703125 26.851562 282.671875 C 27.84375 281.980469 28.359375 281.058594 28.535156 280.101562 C 34.417969 280.074219 40.304688 280.074219 46.191406 280.082031 C 44.492188 282.148438 42.808594 284.28125 41.042969 286.339844 Z M 41.839844 298.671875 C 43.003906 298.535156 44.109375 298.261719 45.183594 297.929688 C 44.96875 299.148438 44.800781 300.367188 44.671875 301.578125 C 43.609375 300.605469 42.546875 299.628906 41.480469 298.65625 C 41.605469 298.652344 41.710938 298.6875 41.839844 298.671875 Z M 53.394531 307.730469 C 53.34375 307.929688 53.261719 308.109375 53.214844 308.3125 C 53.144531 308.621094 53.121094 308.941406 53.128906 309.261719 C 52.464844 308.664062 51.800781 308.066406 51.140625 307.464844 C 51.832031 307.753906 52.597656 307.875 53.394531 307.730469 Z M 117.117188 282.9375 C 117.703125 282.941406 118.289062 282.949219 118.875 282.953125 C 118.171875 283.8125 117.460938 284.671875 116.777344 285.542969 C 117.207031 284.65625 117.28125 283.761719 117.117188 282.9375 Z M 106.945312 284.570312 C 106.734375 283.886719 106.351562 283.265625 105.855469 282.757812 C 106.773438 282.78125 107.6875 282.824219 108.601562 282.839844 C 108.046875 283.414062 107.492188 283.988281 106.945312 284.570312 Z M 73.308594 321.761719 C 73.015625 322.296875 72.710938 322.828125 72.421875 323.367188 C 71.957031 324.238281 71.878906 325.183594 72.074219 326.066406 C 71.230469 325.339844 70.375 324.632812 69.539062 323.902344 C 70.824219 323.234375 72.058594 322.488281 73.308594 321.761719 Z M 77.816406 328.769531 C 78.382812 328.398438 78.917969 327.988281 79.480469 327.609375 C 79.21875 328.253906 78.925781 328.882812 78.675781 329.535156 C 78.390625 330.265625 78.351562 330.941406 78.492188 331.546875 C 77.640625 330.839844 76.808594 330.101562 75.960938 329.386719 C 76.566406 329.363281 77.195312 329.175781 77.816406 328.769531 Z M 127.417969 284.828125 C 127.855469 284.21875 128.035156 283.585938 128.042969 282.964844 C 130.359375 282.957031 132.675781 282.957031 134.988281 282.949219 C 127.460938 291.734375 119.394531 300.039062 111.929688 308.875 C 110.15625 310.980469 108.390625 313.09375 106.617188 315.199219 C 109.449219 310.046875 112.507812 305.023438 115.804688 300.164062 C 119.804688 295.152344 123.683594 290.042969 127.417969 284.828125 Z M 142.53125 286.183594 C 143.285156 285.109375 143.296875 283.957031 142.875 282.949219 C 143.757812 282.949219 144.644531 282.945312 145.527344 282.949219 C 144.527344 284.046875 143.511719 285.132812 142.503906 286.226562 C 142.511719 286.210938 142.523438 286.199219 142.53125 286.183594 Z M 288.136719 23.035156 C 288.140625 23.082031 288.15625 23.136719 288.167969 23.1875 C 288.140625 23.125 288.132812 23.066406 288.125 23.007812 C 288.128906 23.015625 288.132812 23.027344 288.136719 23.035156 Z M 355.863281 176.464844 C 338.976562 151.394531 320.804688 127.066406 301.199219 104.042969 C 300.769531 97.046875 300.277344 90.050781 299.832031 83.050781 C 307.558594 93.183594 316.953125 102.125 325.46875 111.539062 C 337.554688 124.910156 348.636719 139.152344 358.179688 154.445312 C 358.367188 166.71875 359.394531 178.964844 359.863281 191.226562 C 360.039062 195.820312 360.078125 200.414062 360.074219 205.007812 C 359.960938 204.984375 359.847656 204.980469 359.734375 204.96875 C 341.210938 184.457031 323.824219 162.886719 307.699219 140.449219 C 306.371094 138.605469 304.25 138.402344 302.59375 139.109375 C 302.433594 131.773438 302.226562 124.441406 301.90625 117.113281 C 318.683594 137.398438 334.351562 158.628906 349.050781 180.449219 C 351.875 184.640625 358.710938 180.691406 355.863281 176.464844 Z M 359.535156 256.4375 C 359.640625 260.980469 359.808594 265.523438 360.152344 270.0625 C 360.921875 280.277344 361.601562 290.363281 361.570312 300.515625 C 351.355469 290.632812 341.449219 280.402344 332.636719 269.234375 C 323.1875 257.265625 314.925781 244.378906 307.289062 231.195312 C 306.859375 230.453125 306.304688 229.964844 305.695312 229.664062 C 305.644531 224.675781 305.546875 219.695312 305.320312 214.722656 C 305.296875 214.214844 305.269531 213.707031 305.242188 213.199219 C 320.707031 235.269531 336.074219 257.410156 351.578125 279.457031 C 354.480469 283.578125 361.324219 279.636719 358.390625 275.46875 C 341.160156 250.972656 324.109375 226.34375 306.894531 201.832031 C 306.265625 200.933594 305.441406 200.4375 304.578125 200.222656 C 304.292969 195.058594 304.023438 189.894531 303.773438 184.730469 C 313.785156 197.191406 323.421875 209.949219 333.214844 222.578125 C 341.976562 233.875 350.886719 245.058594 359.535156 256.4375 Z M 325.324219 300.773438 C 330.371094 307.253906 335.421875 313.734375 340.617188 320.097656 C 343.695312 323.871094 351.539062 335.519531 356.589844 327.402344 C 357.335938 326.203125 357.277344 324.621094 356.589844 323.417969 C 356.484375 323.230469 356.378906 323.042969 356.269531 322.859375 C 355.191406 320.96875 353.324219 320.625 351.742188 321.1875 C 351.289062 320.558594 350.710938 319.976562 350.21875 319.386719 C 349.136719 318.09375 348.0625 316.796875 346.992188 315.492188 C 344.722656 312.726562 342.484375 309.933594 340.257812 307.128906 C 335.9375 301.683594 331.683594 296.1875 327.40625 290.703125 C 319.917969 281.09375 312.472656 271.449219 305.292969 261.605469 C 305.332031 260.402344 305.375 259.199219 305.40625 258 C 305.527344 253.296875 305.613281 248.585938 305.675781 243.871094 C 312.019531 254.226562 318.824219 264.28125 326.308594 273.863281 C 334.144531 283.894531 342.863281 293.167969 351.910156 302.105469 C 351.914062 302.140625 351.910156 302.171875 351.917969 302.207031 C 352.742188 306.578125 356.742188 308.875 360.863281 309.292969 C 361.035156 309.308594 361.179688 309.261719 361.34375 309.253906 C 361.285156 310.472656 361.230469 311.691406 361.144531 312.910156 C 360.523438 321.664062 359.433594 330.359375 358.363281 339.058594 C 355.191406 335.714844 351.910156 332.472656 348.617188 329.246094 C 348.453125 329.050781 348.269531 328.875 348.070312 328.710938 C 345.945312 326.628906 343.820312 324.542969 341.726562 322.433594 C 334.296875 314.945312 327.015625 307.285156 319.867188 299.53125 C 313.871094 293.03125 308.191406 286.261719 303.667969 278.675781 C 304.34375 277.285156 304.566406 275.589844 304.664062 273.949219 C 311.445312 282.972656 318.390625 291.867188 325.324219 300.773438 Z M 228.632812 312.394531 C 229.101562 311.652344 229.5625 310.898438 230.015625 310.144531 C 230.800781 309.152344 231.601562 308.171875 232.382812 307.179688 C 231.929688 308.003906 231.488281 308.835938 231.019531 309.652344 C 230.214844 310.558594 229.425781 311.480469 228.632812 312.394531 Z M 299.015625 291.699219 C 298.605469 292.136719 298.203125 292.582031 297.792969 293.023438 C 298.464844 291.058594 299.101562 289.082031 299.695312 287.085938 C 300.457031 288.226562 301.214844 289.375 302.023438 290.484375 C 301.019531 290.371094 299.953125 290.699219 299.015625 291.699219 Z M 263.660156 282.492188 C 263.605469 282.429688 263.574219 282.347656 263.519531 282.289062 C 263.632812 282.289062 263.75 282.289062 263.867188 282.289062 C 263.796875 282.355469 263.730469 282.425781 263.660156 282.492188 Z M 248.640625 290.367188 C 249.539062 287.890625 250.394531 285.398438 251.164062 282.878906 C 251.21875 282.710938 251.242188 282.542969 251.265625 282.378906 C 253.332031 282.351562 255.398438 282.332031 257.464844 282.320312 C 254.367188 284.847656 251.453125 287.554688 248.640625 290.367188 Z M 230.882812 284.320312 C 230.707031 283.820312 230.4375 283.351562 230.113281 282.933594 C 230.816406 282.910156 231.519531 282.890625 232.21875 282.867188 C 231.773438 283.351562 231.328125 283.835938 230.882812 284.320312 Z M 187.324219 335.019531 C 192.203125 327.945312 196.871094 320.722656 201.847656 313.714844 C 202.558594 312.714844 203.277344 311.714844 203.992188 310.714844 C 206.746094 307.804688 209.652344 305.050781 212.652344 302.398438 C 211.136719 304.757812 209.582031 307.089844 207.992188 309.402344 C 200.785156 317.679688 194.332031 326.574219 187.324219 335.019531 Z M 222.472656 284.300781 C 222.730469 283.914062 222.992188 283.535156 223.246094 283.148438 C 223.496094 283.140625 223.75 283.132812 224 283.125 C 223.492188 283.515625 222.984375 283.910156 222.472656 284.300781 Z M 211.058594 283.816406 C 211.039062 283.691406 211.019531 283.574219 210.992188 283.453125 C 211.140625 283.449219 211.292969 283.445312 211.445312 283.441406 C 211.316406 283.570312 211.183594 283.691406 211.058594 283.816406 Z M 198.480469 285.148438 C 198.304688 284.550781 198.003906 284.007812 197.617188 283.550781 C 198.675781 283.558594 199.734375 283.542969 200.792969 283.542969 C 200.011719 284.0625 199.246094 284.609375 198.480469 285.148438 Z M 154.976562 302.722656 C 156.246094 301.550781 157.53125 300.398438 158.828125 299.257812 C 156.949219 301.257812 155.082031 303.269531 153.214844 305.277344 C 153.804688 304.429688 154.394531 303.578125 154.976562 302.722656 Z M 168.480469 300.597656 C 168.6875 300.382812 168.894531 300.164062 169.105469 299.949219 C 168.96875 300.175781 168.832031 300.40625 168.695312 300.636719 C 168.445312 300.851562 168.207031 301.078125 167.957031 301.296875 C 168.132812 301.066406 168.304688 300.832031 168.480469 300.597656 Z M 184.476562 288.417969 C 185.347656 286.753906 186.222656 285.09375 187.097656 283.4375 C 188.753906 283.460938 190.40625 283.484375 192.058594 283.503906 C 189.492188 285.082031 186.957031 286.710938 184.476562 288.417969 Z M 124.863281 339.863281 C 124.808594 340.542969 124.964844 341.191406 125.285156 341.777344 C 124.511719 341.761719 123.738281 341.746094 122.960938 341.734375 C 123.59375 341.105469 124.242188 340.496094 124.863281 339.863281 Z M 182.261719 342.101562 C 182.15625 343.203125 182.558594 344.269531 183.242188 345.09375 C 182.210938 345.058594 181.179688 345.015625 180.148438 344.980469 C 180.871094 344.035156 181.554688 343.058594 182.261719 342.101562 Z M 231.632812 346.273438 C 231.839844 346.441406 232.058594 346.585938 232.289062 346.714844 C 231.910156 346.722656 231.527344 346.734375 231.148438 346.742188 C 231.308594 346.582031 231.472656 346.433594 231.632812 346.273438 Z M 236.699219 345.96875 C 236.816406 345.835938 236.925781 345.691406 237.042969 345.558594 C 237.214844 345.902344 237.433594 346.222656 237.691406 346.507812 C 237.121094 346.539062 236.550781 346.582031 235.976562 346.609375 C 236.226562 346.433594 236.472656 346.230469 236.699219 345.96875 Z M 247.121094 342.847656 C 246.773438 343.898438 246.914062 344.96875 247.371094 345.886719 C 246.246094 345.96875 245.121094 346.050781 244 346.128906 C 245.054688 345.050781 246.082031 343.945312 247.121094 342.847656 Z M 276.835938 342.386719 C 276.335938 343.234375 275.839844 344.082031 275.339844 344.929688 C 275.183594 344.925781 275.027344 344.921875 274.871094 344.917969 C 275.527344 344.074219 276.1875 343.234375 276.835938 342.386719 Z M 331.984375 332.757812 C 332.15625 332.570312 332.308594 332.546875 332.449219 332.609375 C 332.230469 332.65625 332.035156 332.703125 331.984375 332.757812 Z M 333.410156 332.402344 C 333.394531 332.410156 333.359375 332.414062 333.335938 332.421875 C 332.832031 331.492188 331.945312 330.898438 330.890625 330.703125 C 330.859375 330.1875 330.824219 329.671875 330.773438 329.15625 C 330.582031 327.296875 329.171875 325.765625 327.53125 325.328125 C 327.671875 325.054688 327.820312 324.785156 327.960938 324.515625 C 330.089844 320.5 325.125 316.746094 321.765625 319.734375 C 320.210938 321.117188 318.679688 322.523438 317.148438 323.933594 C 318.140625 322.101562 319.128906 320.269531 320.171875 318.46875 C 322.378906 314.667969 317.0625 310.304688 313.980469 313.683594 C 312.855469 314.914062 311.761719 316.167969 310.648438 317.410156 C 312.074219 315.125 313.519531 312.851562 314.933594 310.558594 C 317.328125 306.660156 311.949219 302.75 308.738281 305.773438 C 307.730469 306.722656 306.792969 307.742188 305.804688 308.710938 C 306.589844 307.378906 307.371094 306.050781 308.15625 304.71875 C 309.964844 301.640625 306.925781 298.355469 304.023438 298.828125 C 304.414062 298.046875 304.824219 297.269531 305.207031 296.480469 C 305.421875 296.046875 305.535156 295.605469 305.585938 295.167969 C 312.394531 303.667969 320.222656 311.429688 327.652344 319.269531 C 330.972656 322.769531 334.355469 326.203125 337.761719 329.617188 C 337.285156 329.800781 336.828125 330.050781 336.4375 330.4375 C 335.574219 331.300781 334.5625 331.976562 333.410156 332.402344 Z M 349.15625 340.921875 C 350.816406 342.566406 352.492188 344.25 353.980469 345.875 C 351.859375 346.085938 349.734375 346.289062 347.609375 346.433594 C 348.105469 344.589844 348.613281 342.75 349.15625 340.921875 Z M 339.578125 218.007812 C 328.453125 203.683594 317.582031 189.164062 306.117188 175.109375 C 305.285156 174.085938 304.289062 173.71875 303.332031 173.789062 C 303.253906 171.425781 303.160156 169.066406 303.113281 166.703125 C 302.984375 160.125 302.878906 153.542969 302.757812 146.960938 C 319.875 170.582031 338.25 193.359375 357.976562 214.847656 C 358.582031 215.507812 359.269531 215.863281 359.964844 216 C 359.792969 225.152344 359.523438 234.304688 359.445312 243.453125 C 352.851562 234.949219 346.179688 226.503906 339.578125 218.007812 Z M 332.636719 107.730469 C 321.027344 94.726562 307.40625 82.886719 298.972656 67.449219 C 298.859375 65.023438 298.746094 62.59375 298.640625 60.164062 C 315.679688 85.605469 341.261719 104.445312 358.753906 129.675781 C 358.5625 133.203125 358.417969 136.734375 358.3125 140.265625 C 350.484375 128.871094 341.84375 118.039062 332.636719 107.730469 Z M 358.125 100.300781 C 358.859375 101.195312 359.628906 102.140625 360.183594 102.902344 C 360.269531 103.023438 360.378906 103.226562 360.5 103.421875 C 360.4375 103.898438 360.484375 104.671875 360.460938 104.980469 C 360.171875 109.136719 359.835938 113.289062 359.53125 117.441406 C 351.226562 106.800781 341.804688 97.050781 332.355469 87.398438 C 319.671875 74.441406 307.15625 61.171875 298.75 44.929688 C 298.503906 44.457031 298.203125 44.097656 297.875 43.800781 C 297.679688 40.078125 297.457031 36.355469 297.191406 32.636719 C 311.554688 47.648438 325.367188 63.234375 339.242188 78.679688 C 345.632812 85.792969 352.070312 92.894531 358.125 100.300781 Z M 50.535156 23.101562 C 65.886719 22.089844 81.304688 22.609375 96.675781 22.394531 C 112.761719 22.171875 128.757812 23.230469 144.828125 23.398438 C 160.550781 23.5625 176.222656 22.113281 191.933594 21.898438 C 220.375 21.507812 248.863281 20.691406 277.246094 23.09375 C 280.769531 23.390625 284.347656 23.671875 287.703125 24.265625 C 287.964844 24.3125 288.226562 24.363281 288.492188 24.417969 C 290.160156 32.320312 289.902344 42.542969 290.304688 51.109375 C 290.507812 55.460938 290.734375 59.8125 290.972656 64.160156 C 290.136719 65.273438 289.804688 66.777344 290.574219 68.355469 C 290.789062 68.800781 291.050781 69.207031 291.273438 69.644531 C 291.808594 79.179688 292.371094 88.710938 292.902344 98.246094 C 290.765625 99.300781 289.394531 102.363281 291.457031 104.742188 C 292.101562 105.484375 292.730469 106.242188 293.371094 106.984375 C 293.996094 118.96875 294.515625 130.960938 294.769531 142.964844 C 295.109375 158.992188 295.175781 175.03125 296.070312 191.042969 C 296.898438 205.882812 297.78125 220.648438 297.777344 235.519531 C 297.777344 242.234375 297.757812 248.964844 297.609375 255.6875 C 295.285156 256.332031 293.523438 258.734375 295.300781 261.222656 C 295.96875 262.15625 296.660156 263.074219 297.335938 264.007812 C 297.238281 266.207031 297.140625 268.410156 296.992188 270.605469 C 296.929688 271.539062 296.839844 272.46875 296.75 273.402344 C 296.4375 273.550781 296.140625 273.726562 295.871094 273.9375 C 294.769531 274.011719 293.671875 274.085938 292.570312 274.128906 C 280.667969 274.558594 268.734375 274.40625 256.824219 274.460938 C 242.1875 274.523438 227.582031 275.34375 212.953125 275.628906 C 203.167969 275.816406 193.375 275.699219 183.585938 275.53125 C 182.515625 273.691406 180.132812 272.527344 178.183594 273.960938 C 177.527344 274.441406 176.878906 274.925781 176.222656 275.410156 C 172.867188 275.351562 169.507812 275.289062 166.152344 275.246094 C 149.921875 275.019531 133.691406 275.035156 117.464844 274.953125 C 102.136719 274.875 86.984375 273.863281 71.703125 272.839844 C 57.09375 271.863281 42.421875 272.128906 27.785156 272.199219 C 23.019531 272.222656 18.257812 272.230469 13.492188 272.222656 C 12.246094 257.21875 10.6875 242.238281 9.929688 227.199219 C 9.101562 210.769531 9.234375 194.308594 9.003906 177.863281 C 8.777344 161.417969 8.203125 144.976562 8.324219 128.527344 C 8.445312 112.074219 9.484375 95.652344 10.289062 79.226562 C 11.132812 62.019531 11.457031 44.785156 12.582031 27.589844 C 25.238281 26.101562 37.804688 23.941406 50.535156 23.101562 Z M 57.527344 313.246094 C 61.910156 312.777344 66.121094 311.78125 70.101562 310.296875 C 68.109375 313.035156 66.136719 315.789062 64.121094 318.511719 C 64.023438 318.644531 63.957031 318.773438 63.878906 318.90625 C 62.222656 317.433594 60.558594 315.972656 58.90625 314.492188 C 58.441406 314.082031 57.988281 313.660156 57.527344 313.246094 Z M 81.828125 334.304688 C 83.039062 334.503906 84.328125 334.25 85.265625 333.375 C 87.597656 331.203125 89.878906 328.976562 92.132812 326.726562 C 90.398438 330.5625 88.746094 334.4375 87.214844 338.367188 C 85.359375 337.101562 83.574219 335.722656 81.828125 334.304688 Z M 100.683594 341.261719 C 100.691406 341.253906 100.699219 341.25 100.703125 341.242188 C 104.121094 337.460938 107.734375 333.875 111.378906 330.316406 C 110.988281 330.875 110.574219 331.417969 110.1875 331.980469 C 108.210938 334.824219 111.410156 338.289062 114.234375 337.980469 C 113.398438 339.164062 112.535156 340.328125 111.71875 341.523438 C 108.039062 341.449219 104.363281 341.363281 100.683594 341.261719 Z M 132.628906 341.953125 C 135.46875 338.984375 138.292969 336 141.105469 333.003906 C 140.511719 333.867188 139.917969 334.734375 139.328125 335.601562 C 136.761719 339.355469 142.414062 343.5 145.523438 340.382812 C 148.054688 337.84375 150.570312 335.289062 153.058594 332.714844 C 152.84375 333.085938 152.609375 333.441406 152.402344 333.816406 C 150.328125 337.570312 155.683594 342.222656 158.597656 338.601562 C 165.035156 330.601562 171.375 322.519531 177.710938 314.441406 C 178.898438 313.210938 180.089844 311.984375 181.28125 310.757812 C 183.808594 308.160156 186.390625 305.609375 189.035156 303.128906 C 186.273438 306.753906 183.480469 310.359375 180.691406 313.960938 C 176.363281 319.554688 172.265625 325.332031 167.972656 330.953125 C 164.414062 335.125 160.882812 339.328125 157.375 343.554688 C 152.167969 343.109375 146.960938 342.652344 141.742188 342.335938 C 138.707031 342.152344 135.667969 342.042969 132.628906 341.953125 Z M 167.296875 344.335938 C 169.519531 341.722656 171.652344 339.042969 173.734375 336.320312 C 176.269531 333.347656 178.832031 330.398438 181.417969 327.46875 C 178.464844 332.089844 175.660156 336.808594 172.929688 341.550781 C 172.273438 342.6875 172.1875 343.75 172.46875 344.640625 C 171.300781 344.578125 170.128906 344.53125 168.960938 344.457031 C 168.40625 344.421875 167.851562 344.375 167.296875 344.335938 Z M 188.976562 345.285156 C 198.292969 335.71875 206.742188 325.121094 214.402344 314 C 214.550781 313.832031 214.6875 313.652344 214.835938 313.488281 C 218.492188 309.386719 222.234375 305.367188 225.964844 301.335938 C 225.125 302.875 224.261719 304.398438 223.363281 305.902344 C 222.476562 307.011719 221.601562 308.128906 220.703125 309.226562 C 212.445312 319.339844 203.792969 329.121094 195.507812 339.210938 C 193.554688 341.585938 194.734375 344.535156 196.785156 345.597656 C 194.183594 345.472656 191.578125 345.371094 188.976562 345.285156 Z M 255.015625 345.347656 C 258.636719 341.144531 262.253906 336.933594 265.792969 332.660156 C 264.492188 334.554688 263.214844 336.460938 261.960938 338.390625 C 260.179688 341.132812 262.6875 344.164062 265.359375 344.320312 C 265.308594 344.390625 265.253906 344.457031 265.203125 344.53125 C 265.125 344.644531 265.078125 344.757812 265.015625 344.875 C 262.488281 344.929688 259.960938 345.023438 257.425781 345.179688 C 256.621094 345.230469 255.820312 345.292969 255.015625 345.347656 Z M 297.035156 344.875 C 296.804688 345.324219 296.675781 345.78125 296.644531 346.234375 C 296.394531 346.214844 296.148438 346.195312 295.902344 346.175781 C 296.277344 345.742188 296.65625 345.308594 297.035156 344.875 Z M 313.011719 347.253906 C 310.535156 347.179688 308.058594 347.050781 305.585938 346.894531 C 306.980469 345.304688 308.378906 343.722656 309.824219 342.1875 C 309.121094 345.679688 313.515625 348.945312 316.394531 345.882812 C 318.15625 344.007812 319.933594 342.144531 321.707031 340.285156 C 321.492188 340.746094 321.253906 341.207031 320.980469 341.660156 C 319.328125 344.371094 321.226562 346.820312 323.585938 347.332031 C 320.058594 347.363281 316.53125 347.355469 313.011719 347.253906 Z M 325.378906 347.320312 C 326.273438 347.113281 327.132812 346.59375 327.789062 345.644531 C 328.917969 344.011719 329.835938 342.261719 330.773438 340.523438 C 331.257812 340.605469 331.757812 340.65625 332.273438 340.636719 C 333.792969 340.578125 335.3125 340.179688 336.753906 339.566406 C 336.960938 340.394531 337.167969 341.226562 337.378906 342.054688 C 337.609375 342.945312 338.164062 343.625 338.863281 344.113281 C 338.765625 345.046875 338.671875 345.984375 338.582031 346.921875 C 334.191406 347.113281 329.785156 347.257812 325.378906 347.320312 Z M 356.28125 348.535156 C 356.402344 348.699219 356.511719 348.902344 356.632812 349.089844 C 356.121094 349.242188 356.078125 348.984375 356.28125 348.535156 Z M 356.65625 349.128906 C 356.707031 349.203125 356.75 349.289062 356.804688 349.34375 C 357.285156 349.796875 356.386719 349.347656 356.65625 349.128906 Z M 356.65625 349.128906 " fill-opacity="1" fill-rule="nonzero"/></g><g clip-path="url(#id2)"><path fill="rgb(21.179199%, 27.059937%, 30.979919%)" d="M 162.011719 113.238281 C 160.632812 113.535156 159.363281 114.136719 158.046875 114.617188 C 157.0625 114.980469 156.105469 115.421875 155.132812 115.8125 C 154.839844 115.929688 154.570312 116.148438 154.222656 116.070312 C 154.222656 116.070312 154.195312 116.039062 154.195312 116.039062 C 155.257812 115.292969 156.445312 114.773438 157.625 114.253906 C 163.441406 111.695312 169.4375 109.628906 175.5625 107.933594 C 178.890625 107.011719 182.179688 105.949219 185.519531 105.078125 C 188.359375 104.339844 191.292969 104.160156 194.222656 104.089844 C 195.507812 104.0625 196.734375 104.398438 197.855469 105.070312 C 200.105469 106.425781 202.332031 107.824219 204.410156 109.429688 C 205.1875 110.027344 206.011719 110.523438 206.894531 110.945312 C 210.351562 112.59375 213.261719 114.976562 215.933594 117.667969 C 216.640625 118.378906 217.226562 119.195312 217.785156 120.027344 C 217.890625 120.183594 218.09375 120.316406 217.976562 120.609375 C 217.558594 120.460938 217.324219 120.121094 217.074219 119.816406 C 215.105469 117.449219 212.792969 115.449219 210.347656 113.585938 C 209.605469 113.019531 208.824219 112.503906 207.871094 111.976562 C 207.992188 112.378906 208.234375 112.496094 208.417969 112.644531 C 209.5625 113.574219 210.726562 114.484375 211.859375 115.425781 C 212.96875 116.351562 213.984375 117.382812 214.976562 118.433594 C 216.433594 119.976562 217.941406 121.46875 219.515625 122.894531 C 220.503906 123.785156 221.316406 124.832031 222.046875 125.945312 C 222.648438 126.855469 222.65625 127.765625 222.199219 128.695312 C 222.070312 128.957031 221.992188 129.132812 222.160156 129.40625 C 222.484375 129.945312 222.402344 130.507812 222.003906 130.957031 C 221.59375 131.417969 221.039062 131.636719 220.402344 131.519531 C 219.925781 131.4375 219.515625 131.195312 219.144531 130.898438 C 218.246094 130.183594 217.363281 129.449219 216.464844 128.730469 C 215.726562 128.140625 214.972656 127.570312 214.242188 126.976562 C 213.816406 126.628906 213.417969 126.328125 212.828125 126.65625 C 212.570312 126.800781 212.328125 126.632812 212.101562 126.46875 C 207.441406 123.136719 202.527344 120.210938 197.441406 117.566406 C 195.976562 116.804688 194.480469 116.101562 192.992188 115.386719 C 190.429688 114.164062 187.789062 113.980469 185.050781 114.726562 C 180.910156 115.847656 176.890625 117.3125 172.875 118.796875 C 168.355469 120.472656 164.019531 122.554688 159.777344 124.828125 C 157.871094 125.847656 156.105469 127.078125 154.421875 128.425781 C 154.03125 128.742188 153.636719 129.054688 153.214844 129.320312 C 152.945312 129.488281 152.558594 129.886719 152.453125 129.136719 C 152.421875 128.910156 151.890625 129.128906 151.933594 128.675781 C 151.945312 128.550781 151.746094 128.667969 151.664062 128.734375 C 151.390625 128.960938 151.117188 129.1875 150.855469 129.421875 C 150.417969 129.804688 149.925781 129.882812 149.367188 129.757812 C 147.828125 129.417969 146.609375 127.996094 146.566406 126.417969 C 146.546875 125.589844 146.660156 124.777344 147.121094 124.050781 C 147.195312 123.929688 147.304688 123.785156 147.292969 123.660156 C 147.144531 121.839844 148.34375 120.9375 149.703125 120.171875 C 150.214844 119.882812 150.773438 119.667969 151.332031 119.484375 C 151.914062 119.289062 152.367188 118.957031 152.886719 118.3125 C 151.804688 118.714844 150.910156 119.046875 149.941406 119.410156 C 150.082031 119.035156 150.394531 118.996094 150.621094 118.890625 C 153.289062 117.636719 155.996094 116.460938 158.632812 115.128906 C 159.785156 114.546875 160.894531 113.886719 162 113.226562 C 162.351562 113.234375 162.644531 113.082031 162.929688 112.902344 C 163.121094 112.789062 163.441406 112.945312 163.535156 112.609375 C 163.28125 112.621094 163.105469 112.757812 162.941406 112.917969 C 162.578125 112.875 162.285156 113.023438 162.011719 113.238281 Z M 166.914062 111.621094 C 167.445312 111.574219 167.761719 111.398438 168.253906 111.164062 C 167.707031 111.234375 167.363281 111.324219 166.914062 111.621094 Z M 150.367188 121.460938 C 150.421875 121.320312 150.742188 121.433594 150.714844 121.132812 C 150.710938 121.09375 150.574219 121.035156 150.503906 121.039062 C 150.320312 121.046875 150.164062 121.140625 150.121094 121.324219 C 150.097656 121.414062 150.210938 121.445312 150.367188 121.460938 Z M 76.566406 105.535156 C 74.148438 106.554688 71.824219 107.78125 69.339844 108.644531 C 66.835938 109.511719 64.351562 110.429688 61.855469 111.320312 C 60.539062 111.789062 59.40625 112.601562 58.1875 113.253906 C 55.769531 114.550781 53.328125 115.800781 50.757812 116.78125 C 49.96875 117.082031 49.199219 117.554688 48.886719 118.320312 C 48.542969 119.15625 47.941406 119.609375 47.242188 120.050781 C 46.425781 120.566406 46.085938 121.367188 46.019531 122.285156 C 45.957031 123.125 46.320312 123.429688 47.136719 123.285156 C 47.222656 123.269531 47.308594 123.242188 47.390625 123.207031 C 47.796875 123.046875 47.984375 123.167969 48.019531 123.613281 C 48.058594 124.132812 48.339844 124.414062 48.902344 124.34375 C 48.980469 124.332031 49.113281 124.34375 49.136719 124.386719 C 49.460938 124.933594 49.871094 124.640625 50.210938 124.46875 C 51.207031 123.960938 52.207031 123.449219 53.15625 122.859375 C 54.390625 122.089844 55.667969 121.449219 57.082031 121.070312 C 58.050781 120.8125 59 120.484375 59.957031 120.183594 C 62.964844 119.238281 65.960938 118.265625 69.015625 117.472656 C 70.097656 117.191406 71.222656 116.941406 72.199219 116.429688 C 73.191406 115.910156 74.222656 115.632812 75.28125 115.390625 C 76.984375 115.003906 78.722656 114.859375 80.445312 114.617188 C 82.835938 114.277344 85.21875 114.371094 87.582031 114.789062 C 90.96875 115.382812 94.203125 116.496094 97.402344 117.726562 C 102.25 119.59375 106.996094 121.710938 111.789062 123.699219 C 114.433594 124.796875 117.042969 125.96875 119.671875 127.101562 C 120.105469 127.285156 120.535156 127.484375 121.007812 127.566406 C 121.75 127.695312 121.902344 127.632812 122.261719 126.960938 C 122.355469 126.785156 122.421875 126.65625 122.648438 126.734375 C 123.164062 126.917969 123.164062 126.550781 123.394531 126.21875 C 123.910156 125.472656 123.988281 124.792969 123.953125 123.898438 C 123.917969 123.109375 123.824219 122.40625 123.460938 121.738281 C 122.941406 120.769531 122.238281 119.9375 121.457031 119.171875 C 118.910156 116.675781 116.023438 114.648438 112.855469 113.011719 C 110.761719 111.929688 108.636719 110.90625 106.453125 109.996094 C 105.414062 109.5625 104.347656 109.199219 103.320312 108.75 C 102.480469 108.378906 101.792969 107.648438 100.773438 107.71875 C 100.695312 107.722656 100.609375 107.652344 100.53125 107.613281 C 98.964844 106.890625 97.386719 106.1875 95.832031 105.441406 C 94.320312 104.714844 92.773438 104.070312 91.167969 103.578125 C 90.308594 103.316406 89.476562 102.929688 88.570312 102.851562 C 87.238281 102.742188 85.917969 102.855469 84.601562 103.09375 C 83.324219 103.328125 82.082031 103.703125 80.792969 103.90625 C 77.167969 104.476562 73.628906 105.398438 70.195312 106.695312 C 69.765625 106.859375 69.316406 106.992188 68.972656 107.339844 C 71.554688 106.75 74.039062 105.808594 76.777344 105.316406 C 76.648438 105.453125 76.613281 105.511719 76.566406 105.535156 Z M 213.515625 100.207031 C 213.320312 99.769531 213.019531 99.40625 212.664062 99.089844 C 212.160156 98.640625 211.660156 98.183594 211.125 97.765625 C 209.074219 96.175781 206.9375 94.703125 204.699219 93.382812 C 203.730469 92.816406 202.804688 92.191406 201.902344 91.523438 C 196.617188 87.636719 190.738281 86.066406 184.203125 87.039062 C 178.625 87.867188 173.25 89.441406 167.953125 91.316406 C 167.761719 91.386719 167.570312 91.46875 167.390625 91.570312 C 167.230469 91.664062 167.136719 91.828125 167.164062 92.015625 C 167.195312 92.246094 167.359375 92.382812 167.578125 92.414062 C 167.78125 92.441406 167.992188 92.441406 168.195312 92.417969 C 168.8125 92.347656 169.429688 92.28125 170.039062 92.179688 C 174.207031 91.480469 178.304688 90.4375 182.464844 89.722656 C 184.855469 89.3125 187.234375 88.863281 189.679688 89.117188 C 193.777344 89.539062 197.511719 90.824219 200.667969 93.542969 C 201.359375 94.140625 202.105469 94.671875 202.882812 95.15625 C 204.011719 95.855469 205.09375 96.621094 206.160156 97.414062 C 207.582031 98.46875 209.078125 99.410156 210.578125 100.347656 C 211.625 101 212.722656 101.4375 214.066406 101.472656 C 213.863281 101.007812 213.695312 100.605469 213.515625 100.207031 Z M 57.660156 101.351562 C 59.257812 100.976562 60.683594 100.195312 62.125 99.449219 C 63.722656 98.621094 65.25 97.652344 66.921875 96.972656 C 69.40625 95.957031 71.886719 94.90625 74.460938 94.132812 C 78.558594 92.898438 82.613281 91.476562 86.929688 91.136719 C 89.5 90.933594 92.0625 90.929688 94.597656 91.53125 C 97.300781 92.171875 100.011719 92.777344 102.71875 93.394531 C 102.945312 93.445312 103.179688 93.488281 103.414062 93.511719 C 103.628906 93.535156 103.835938 93.496094 103.949219 93.285156 C 104.078125 93.035156 103.96875 92.828125 103.804688 92.644531 C 103.542969 92.351562 103.191406 92.1875 102.84375 92.03125 C 101.789062 91.558594 100.683594 91.226562 99.582031 90.890625 C 97.460938 90.25 95.339844 89.59375 93.125 89.371094 C 89.621094 89.015625 86.144531 89.371094 82.722656 90.074219 C 79.625 90.707031 76.597656 91.632812 73.636719 92.75 C 71.121094 93.699219 68.636719 94.71875 66.203125 95.859375 C 63.929688 96.917969 61.699219 98.070312 59.496094 99.269531 C 58.574219 99.773438 57.882812 100.496094 57.28125 101.335938 C 57.4375 101.449219 57.546875 101.378906 57.660156 101.351562 Z M 218.730469 141.769531 C 218.855469 143.351562 218.710938 144.882812 217.648438 146.183594 C 216.949219 147.042969 216.070312 147.367188 214.976562 147.132812 C 214.390625 147.007812 213.867188 146.742188 213.34375 146.46875 C 212.976562 146.273438 212.601562 146.105469 212.171875 146.117188 C 211.527344 146.132812 211.339844 146.421875 211.695312 146.941406 C 212.195312 147.671875 212.777344 148.335938 213.554688 148.800781 C 215.09375 149.730469 217.421875 149.910156 219.015625 147.851562 C 219.433594 147.308594 219.75 146.714844 219.957031 146.066406 C 220.359375 144.800781 220.308594 143.519531 220.097656 142.234375 C 219.9375 141.25 219.378906 140.53125 218.5 140.015625 C 218.617188 140.609375 218.683594 141.191406 218.730469 141.769531 Z M 46.722656 137.730469 C 46.277344 137.875 45.8125 137.992188 45.34375 138.035156 C 44.460938 138.121094 44.15625 137.730469 44.398438 136.878906 C 44.699219 135.835938 45.039062 134.800781 45.523438 133.828125 C 45.96875 132.9375 46.320312 131.992188 46.972656 131.21875 C 47.128906 131.027344 47.304688 130.875 47.117188 130.613281 C 46.917969 130.339844 46.648438 130.246094 46.339844 130.359375 C 45.882812 130.53125 45.574219 130.898438 45.296875 131.28125 C 44.417969 132.5 43.613281 133.761719 43.035156 135.152344 C 42.800781 135.722656 42.550781 136.289062 42.386719 136.878906 C 42 138.296875 42.648438 139.367188 44.070312 139.777344 C 44.816406 139.992188 45.527344 139.855469 46.242188 139.644531 C 48.15625 139.09375 49.578125 137.828125 50.929688 136.433594 C 49.578125 137.050781 48.117188 137.277344 46.722656 137.730469 Z M 46.253906 153.667969 C 46.050781 153.765625 45.839844 153.859375 45.640625 153.96875 C 44.328125 154.6875 42.882812 155.003906 41.453125 155.359375 C 40.601562 155.570312 40.226562 155.199219 40.3125 154.324219 C 40.335938 154.09375 40.390625 153.859375 40.464844 153.640625 C 40.675781 153 40.914062 152.363281 41.132812 151.726562 C 41.28125 151.28125 41.4375 150.835938 41.554688 150.382812 C 41.640625 150.054688 41.585938 149.726562 41.25 149.542969 C 40.875 149.335938 40.566406 149.5 40.304688 149.773438 C 40.222656 149.855469 40.148438 149.953125 40.082031 150.046875 C 39.332031 151.109375 38.695312 152.230469 38.214844 153.4375 C 38.003906 153.964844 37.925781 154.511719 37.964844 155.078125 C 38.085938 156.933594 39.71875 158.082031 41.527344 157.585938 C 42.195312 157.402344 42.785156 157.066406 43.296875 156.613281 C 44.335938 155.703125 45.265625 154.679688 46.355469 153.816406 C 46.320312 153.765625 46.289062 153.714844 46.253906 153.667969 Z M 232.03125 142.019531 C 232.855469 144.023438 232.820312 146.082031 232.421875 148.164062 C 232.367188 148.453125 232.285156 148.738281 232.179688 149.011719 C 231.941406 149.617188 231.660156 149.765625 231.003906 149.628906 C 230.445312 149.515625 229.945312 149.273438 229.519531 148.882812 C 229.414062 148.78125 229.292969 148.671875 229.132812 148.753906 C 228.960938 148.839844 228.894531 149.011719 228.90625 149.195312 C 228.917969 149.3125 228.949219 149.425781 228.992188 149.535156 C 229.363281 150.472656 230.734375 151.316406 231.859375 151.304688 C 232.796875 151.296875 233.511719 150.683594 233.917969 149.527344 C 234.015625 149.253906 234.085938 148.964844 234.144531 148.679688 C 234.34375 147.65625 234.246094 146.632812 234.195312 145.605469 C 234.113281 143.957031 233.234375 142.761719 231.941406 141.574219 C 231.996094 141.855469 232 141.941406 232.03125 142.019531 Z M 62.5 140.46875 C 62.296875 140.585938 62.078125 140.679688 61.855469 140.761719 C 61.128906 141.027344 60.8125 140.828125 60.730469 140.046875 C 60.683594 139.605469 60.738281 139.171875 60.851562 138.742188 C 61.027344 138.089844 61.183594 137.433594 61.339844 136.773438 C 61.386719 136.578125 61.417969 136.371094 61.425781 136.167969 C 61.429688 135.945312 61.324219 135.769531 61.097656 135.695312 C 60.90625 135.636719 60.746094 135.722656 60.625 135.859375 C 60.527344 135.964844 60.4375 136.085938 60.367188 136.214844 C 59.929688 137.015625 59.511719 137.824219 59.195312 138.679688 C 58.910156 139.4375 58.828125 140.21875 59.058594 141.015625 C 59.429688 142.300781 60.636719 142.929688 61.902344 142.464844 C 62.285156 142.324219 62.644531 142.101562 62.996094 141.886719 C 64.332031 141.074219 65.238281 139.839844 66.136719 138.601562 C 64.960938 139.320312 63.667969 139.78125 62.5 140.46875 Z M 152.96875 116.589844 C 152.507812 116.617188 152.128906 116.808594 151.824219 117.140625 C 152.21875 116.984375 152.675781 116.949219 152.957031 116.574219 Z M 152.957031 116.574219 C 153.457031 116.601562 153.859375 116.386719 154.222656 116.070312 C 154.222656 116.070312 154.195312 116.039062 154.195312 116.039062 C 153.726562 116.089844 153.324219 116.285156 152.96875 116.589844 C 152.96875 116.589844 152.957031 116.574219 152.957031 116.574219 Z M 152.957031 116.574219 " fill-opacity="1" fill-rule="nonzero"/><path fill="rgb(21.179199%, 27.059937%, 30.979919%)" d="M 162.011719 113.238281 C 160.632812 113.535156 159.363281 114.136719 158.046875 114.617188 C 157.0625 114.980469 156.105469 115.421875 155.132812 115.8125 C 154.839844 115.929688 154.570312 116.148438 154.222656 116.070312 C 154.222656 116.070312 154.195312 116.039062 154.195312 116.039062 C 155.257812 115.292969 156.445312 114.773438 157.625 114.253906 C 163.441406 111.695312 169.4375 109.628906 175.5625 107.933594 C 178.890625 107.011719 182.179688 105.949219 185.519531 105.078125 C 188.359375 104.339844 191.292969 104.160156 194.222656 104.089844 C 195.507812 104.0625 196.734375 104.398438 197.855469 105.070312 C 200.105469 106.425781 202.332031 107.824219 204.410156 109.429688 C 205.1875 110.027344 206.011719 110.523438 206.894531 110.945312 C 210.351562 112.59375 213.261719 114.976562 215.933594 117.667969 C 216.640625 118.378906 217.226562 119.195312 217.785156 120.027344 C 217.890625 120.183594 218.09375 120.316406 217.976562 120.609375 C 217.558594 120.460938 217.324219 120.121094 217.074219 119.816406 C 215.105469 117.449219 212.792969 115.449219 210.347656 113.585938 C 209.605469 113.019531 208.824219 112.503906 207.871094 111.976562 C 207.992188 112.378906 208.234375 112.496094 208.417969 112.644531 C 209.5625 113.574219 210.726562 114.484375 211.859375 115.425781 C 212.96875 116.351562 213.984375 117.382812 214.976562 118.433594 C 216.433594 119.976562 217.941406 121.46875 219.515625 122.894531 C 220.503906 123.785156 221.316406 124.832031 222.046875 125.945312 C 222.648438 126.855469 222.65625 127.765625 222.199219 128.695312 C 222.070312 128.957031 221.992188 129.132812 222.160156 129.40625 C 222.484375 129.945312 222.402344 130.507812 222.003906 130.957031 C 221.59375 131.417969 221.039062 131.636719 220.402344 131.519531 C 219.925781 131.4375 219.515625 131.195312 219.144531 130.898438 C 218.246094 130.183594 217.363281 129.449219 216.464844 128.730469 C 215.726562 128.140625 214.972656 127.570312 214.242188 126.976562 C 213.816406 126.628906 213.417969 126.328125 212.828125 126.65625 C 212.570312 126.800781 212.328125 126.632812 212.101562 126.46875 C 207.441406 123.136719 202.527344 120.210938 197.441406 117.566406 C 195.976562 116.804688 194.480469 116.101562 192.992188 115.386719 C 190.429688 114.164062 187.789062 113.980469 185.050781 114.726562 C 180.910156 115.847656 176.890625 117.3125 172.875 118.796875 C 168.355469 120.472656 164.019531 122.554688 159.777344 124.828125 C 157.871094 125.847656 156.105469 127.078125 154.421875 128.425781 C 154.03125 128.742188 153.636719 129.054688 153.214844 129.320312 C 152.945312 129.488281 152.558594 129.886719 152.453125 129.136719 C 152.421875 128.910156 151.890625 129.128906 151.933594 128.675781 C 151.945312 128.550781 151.746094 128.667969 151.664062 128.734375 C 151.390625 128.960938 151.117188 129.1875 150.855469 129.421875 C 150.417969 129.804688 149.925781 129.882812 149.367188 129.757812 C 147.828125 129.417969 146.609375 127.996094 146.566406 126.417969 C 146.546875 125.589844 146.660156 124.777344 147.121094 124.050781 C 147.195312 123.929688 147.304688 123.785156 147.292969 123.660156 C 147.144531 121.839844 148.34375 120.9375 149.703125 120.171875 C 150.214844 119.882812 150.773438 119.667969 151.332031 119.484375 C 151.914062 119.289062 152.367188 118.957031 152.886719 118.3125 C 151.804688 118.714844 150.910156 119.046875 149.941406 119.410156 C 150.082031 119.035156 150.394531 118.996094 150.621094 118.890625 C 153.289062 117.636719 155.996094 116.460938 158.632812 115.128906 C 159.785156 114.546875 160.894531 113.886719 162 113.226562 C 162.351562 113.234375 162.644531 113.082031 162.929688 112.902344 C 163.121094 112.789062 163.441406 112.945312 163.535156 112.609375 C 163.28125 112.621094 163.105469 112.757812 162.941406 112.917969 C 162.578125 112.875 162.285156 113.023438 162.011719 113.238281 Z M 166.914062 111.621094 C 167.445312 111.574219 167.761719 111.398438 168.253906 111.164062 C 167.707031 111.234375 167.363281 111.324219 166.914062 111.621094 Z M 150.367188 121.460938 C 150.421875 121.320312 150.742188 121.433594 150.714844 121.132812 C 150.710938 121.09375 150.574219 121.035156 150.503906 121.039062 C 150.320312 121.046875 150.164062 121.140625 150.121094 121.324219 C 150.097656 121.414062 150.210938 121.445312 150.367188 121.460938 Z M 76.566406 105.535156 C 74.148438 106.554688 71.824219 107.78125 69.339844 108.644531 C 66.835938 109.511719 64.351562 110.429688 61.855469 111.320312 C 60.539062 111.789062 59.40625 112.601562 58.1875 113.253906 C 55.769531 114.550781 53.328125 115.800781 50.757812 116.78125 C 49.96875 117.082031 49.199219 117.554688 48.886719 118.320312 C 48.542969 119.15625 47.941406 119.609375 47.242188 120.050781 C 46.425781 120.566406 46.085938 121.367188 46.019531 122.285156 C 45.957031 123.125 46.320312 123.429688 47.136719 123.285156 C 47.222656 123.269531 47.308594 123.242188 47.390625 123.207031 C 47.796875 123.046875 47.984375 123.167969 48.019531 123.613281 C 48.058594 124.132812 48.339844 124.414062 48.902344 124.34375 C 48.980469 124.332031 49.113281 124.34375 49.136719 124.386719 C 49.460938 124.933594 49.871094 124.640625 50.210938 124.46875 C 51.207031 123.960938 52.207031 123.449219 53.15625 122.859375 C 54.390625 122.089844 55.667969 121.449219 57.082031 121.070312 C 58.050781 120.8125 59 120.484375 59.957031 120.183594 C 62.964844 119.238281 65.960938 118.265625 69.015625 117.472656 C 70.097656 117.191406 71.222656 116.941406 72.199219 116.429688 C 73.191406 115.910156 74.222656 115.632812 75.28125 115.390625 C 76.984375 115.003906 78.722656 114.859375 80.445312 114.617188 C 82.835938 114.277344 85.21875 114.371094 87.582031 114.789062 C 90.96875 115.382812 94.203125 116.496094 97.402344 117.726562 C 102.25 119.59375 106.996094 121.710938 111.789062 123.699219 C 114.433594 124.796875 117.042969 125.96875 119.671875 127.101562 C 120.105469 127.285156 120.535156 127.484375 121.007812 127.566406 C 121.75 127.695312 121.902344 127.632812 122.261719 126.960938 C 122.355469 126.785156 122.421875 126.65625 122.648438 126.734375 C 123.164062 126.917969 123.164062 126.550781 123.394531 126.21875 C 123.910156 125.472656 123.988281 124.792969 123.953125 123.898438 C 123.917969 123.109375 123.824219 122.40625 123.460938 121.738281 C 122.941406 120.769531 122.238281 119.9375 121.457031 119.171875 C 118.910156 116.675781 116.023438 114.648438 112.855469 113.011719 C 110.761719 111.929688 108.636719 110.90625 106.453125 109.996094 C 105.414062 109.5625 104.347656 109.199219 103.320312 108.75 C 102.480469 108.378906 101.792969 107.648438 100.773438 107.71875 C 100.695312 107.722656 100.609375 107.652344 100.53125 107.613281 C 98.964844 106.890625 97.386719 106.1875 95.832031 105.441406 C 94.320312 104.714844 92.773438 104.070312 91.167969 103.578125 C 90.308594 103.316406 89.476562 102.929688 88.570312 102.851562 C 87.238281 102.742188 85.917969 102.855469 84.601562 103.09375 C 83.324219 103.328125 82.082031 103.703125 80.792969 103.90625 C 77.167969 104.476562 73.628906 105.398438 70.195312 106.695312 C 69.765625 106.859375 69.316406 106.992188 68.972656 107.339844 C 71.554688 106.75 74.039062 105.808594 76.777344 105.316406 C 76.648438 105.453125 76.613281 105.511719 76.566406 105.535156 Z M 213.515625 100.207031 C 213.320312 99.769531 213.019531 99.40625 212.664062 99.089844 C 212.160156 98.640625 211.660156 98.183594 211.125 97.765625 C 209.074219 96.175781 206.9375 94.703125 204.699219 93.382812 C 203.730469 92.816406 202.804688 92.191406 201.902344 91.523438 C 196.617188 87.636719 190.738281 86.066406 184.203125 87.039062 C 178.625 87.867188 173.25 89.441406 167.953125 91.316406 C 167.761719 91.386719 167.570312 91.46875 167.390625 91.570312 C 167.230469 91.664062 167.136719 91.828125 167.164062 92.015625 C 167.195312 92.246094 167.359375 92.382812 167.578125 92.414062 C 167.78125 92.441406 167.992188 92.441406 168.195312 92.417969 C 168.8125 92.347656 169.429688 92.28125 170.039062 92.179688 C 174.207031 91.480469 178.304688 90.4375 182.464844 89.722656 C 184.855469 89.3125 187.234375 88.863281 189.679688 89.117188 C 193.777344 89.539062 197.511719 90.824219 200.667969 93.542969 C 201.359375 94.140625 202.105469 94.671875 202.882812 95.15625 C 204.011719 95.855469 205.09375 96.621094 206.160156 97.414062 C 207.582031 98.46875 209.078125 99.410156 210.578125 100.347656 C 211.625 101 212.722656 101.4375 214.066406 101.472656 C 213.863281 101.007812 213.695312 100.605469 213.515625 100.207031 Z M 57.660156 101.351562 C 59.257812 100.976562 60.683594 100.195312 62.125 99.449219 C 63.722656 98.621094 65.25 97.652344 66.921875 96.972656 C 69.40625 95.957031 71.886719 94.90625 74.460938 94.132812 C 78.558594 92.898438 82.613281 91.476562 86.929688 91.136719 C 89.5 90.933594 92.0625 90.929688 94.597656 91.53125 C 97.300781 92.171875 100.011719 92.777344 102.71875 93.394531 C 102.945312 93.445312 103.179688 93.488281 103.414062 93.511719 C 103.628906 93.535156 103.835938 93.496094 103.949219 93.285156 C 104.078125 93.035156 103.96875 92.828125 103.804688 92.644531 C 103.542969 92.351562 103.191406 92.1875 102.84375 92.03125 C 101.789062 91.558594 100.683594 91.226562 99.582031 90.890625 C 97.460938 90.25 95.339844 89.59375 93.125 89.371094 C 89.621094 89.015625 86.144531 89.371094 82.722656 90.074219 C 79.625 90.707031 76.597656 91.632812 73.636719 92.75 C 71.121094 93.699219 68.636719 94.71875 66.203125 95.859375 C 63.929688 96.917969 61.699219 98.070312 59.496094 99.269531 C 58.574219 99.773438 57.882812 100.496094 57.28125 101.335938 C 57.4375 101.449219 57.546875 101.378906 57.660156 101.351562 Z M 218.730469 141.769531 C 218.855469 143.351562 218.710938 144.882812 217.648438 146.183594 C 216.949219 147.042969 216.070312 147.367188 214.976562 147.132812 C 214.390625 147.007812 213.867188 146.742188 213.34375 146.46875 C 212.976562 146.273438 212.601562 146.105469 212.171875 146.117188 C 211.527344 146.132812 211.339844 146.421875 211.695312 146.941406 C 212.195312 147.671875 212.777344 148.335938 213.554688 148.800781 C 215.09375 149.730469 217.421875 149.910156 219.015625 147.851562 C 219.433594 147.308594 219.75 146.714844 219.957031 146.066406 C 220.359375 144.800781 220.308594 143.519531 220.097656 142.234375 C 219.9375 141.25 219.378906 140.53125 218.5 140.015625 C 218.617188 140.609375 218.683594 141.191406 218.730469 141.769531 Z M 46.722656 137.730469 C 46.277344 137.875 45.8125 137.992188 45.34375 138.035156 C 44.460938 138.121094 44.15625 137.730469 44.398438 136.878906 C 44.699219 135.835938 45.039062 134.800781 45.523438 133.828125 C 45.96875 132.9375 46.320312 131.992188 46.972656 131.21875 C 47.128906 131.027344 47.304688 130.875 47.117188 130.613281 C 46.917969 130.339844 46.648438 130.246094 46.339844 130.359375 C 45.882812 130.53125 45.574219 130.898438 45.296875 131.28125 C 44.417969 132.5 43.613281 133.761719 43.035156 135.152344 C 42.800781 135.722656 42.550781 136.289062 42.386719 136.878906 C 42 138.296875 42.648438 139.367188 44.070312 139.777344 C 44.816406 139.992188 45.527344 139.855469 46.242188 139.644531 C 48.15625 139.09375 49.578125 137.828125 50.929688 136.433594 C 49.578125 137.050781 48.117188 137.277344 46.722656 137.730469 Z M 46.253906 153.667969 C 46.050781 153.765625 45.839844 153.859375 45.640625 153.96875 C 44.328125 154.6875 42.882812 155.003906 41.453125 155.359375 C 40.601562 155.570312 40.226562 155.199219 40.3125 154.324219 C 40.335938 154.09375 40.390625 153.859375 40.464844 153.640625 C 40.675781 153 40.914062 152.363281 41.132812 151.726562 C 41.28125 151.28125 41.4375 150.835938 41.554688 150.382812 C 41.640625 150.054688 41.585938 149.726562 41.25 149.542969 C 40.875 149.335938 40.566406 149.5 40.304688 149.773438 C 40.222656 149.855469 40.148438 149.953125 40.082031 150.046875 C 39.332031 151.109375 38.695312 152.230469 38.214844 153.4375 C 38.003906 153.964844 37.925781 154.511719 37.964844 155.078125 C 38.085938 156.933594 39.71875 158.082031 41.527344 157.585938 C 42.195312 157.402344 42.785156 157.066406 43.296875 156.613281 C 44.335938 155.703125 45.265625 154.679688 46.355469 153.816406 C 46.320312 153.765625 46.289062 153.714844 46.253906 153.667969 Z M 232.03125 142.019531 C 232.855469 144.023438 232.820312 146.082031 232.421875 148.164062 C 232.367188 148.453125 232.285156 148.738281 232.179688 149.011719 C 231.941406 149.617188 231.660156 149.765625 231.003906 149.628906 C 230.445312 149.515625 229.945312 149.273438 229.519531 148.882812 C 229.414062 148.78125 229.292969 148.671875 229.132812 148.753906 C 228.960938 148.839844 228.894531 149.011719 228.90625 149.195312 C 228.917969 149.3125 228.949219 149.425781 228.992188 149.535156 C 229.363281 150.472656 230.734375 151.316406 231.859375 151.304688 C 232.796875 151.296875 233.511719 150.683594 233.917969 149.527344 C 234.015625 149.253906 234.085938 148.964844 234.144531 148.679688 C 234.34375 147.65625 234.246094 146.632812 234.195312 145.605469 C 234.113281 143.957031 233.234375 142.761719 231.941406 141.574219 C 231.996094 141.855469 232 141.941406 232.03125 142.019531 Z M 62.5 140.46875 C 62.296875 140.585938 62.078125 140.679688 61.855469 140.761719 C 61.128906 141.027344 60.8125 140.828125 60.730469 140.046875 C 60.683594 139.605469 60.738281 139.171875 60.851562 138.742188 C 61.027344 138.089844 61.183594 137.433594 61.339844 136.773438 C 61.386719 136.578125 61.417969 136.371094 61.425781 136.167969 C 61.429688 135.945312 61.324219 135.769531 61.097656 135.695312 C 60.90625 135.636719 60.746094 135.722656 60.625 135.859375 C 60.527344 135.964844 60.4375 136.085938 60.367188 136.214844 C 59.929688 137.015625 59.511719 137.824219 59.195312 138.679688 C 58.910156 139.4375 58.828125 140.21875 59.058594 141.015625 C 59.429688 142.300781 60.636719 142.929688 61.902344 142.464844 C 62.285156 142.324219 62.644531 142.101562 62.996094 141.886719 C 64.332031 141.074219 65.238281 139.839844 66.136719 138.601562 C 64.960938 139.320312 63.667969 139.78125 62.5 140.46875 Z M 152.96875 116.589844 C 152.507812 116.617188 152.128906 116.808594 151.824219 117.140625 C 152.21875 116.984375 152.675781 116.949219 152.957031 116.574219 Z M 152.957031 116.574219 C 153.457031 116.601562 153.859375 116.386719 154.222656 116.070312 C 154.222656 116.070312 154.195312 116.039062 154.195312 116.039062 C 153.726562 116.089844 153.324219 116.285156 152.96875 116.589844 C 152.96875 116.589844 152.957031 116.574219 152.957031 116.574219 Z M 152.957031 116.574219 " fill-opacity="1" fill-rule="nonzero"/></g></svg>