<svg xmlns="http://www.w3.org/2000/svg" xmlns:xlink="http://www.w3.org/1999/xlink" width="500" zoomAndPan="magnify" viewBox="0 0 375 374.999991" height="500" preserveAspectRatio="xMidYMid meet" version="1.0"><defs><clipPath id="id1"><path d="M 93.628906 83.449219 L 136.265625 83.449219 L 136.265625 126.199219 L 93.628906 126.199219 Z M 93.628906 83.449219 " clip-rule="nonzero"/></clipPath><clipPath id="id2"><path d="M 177.34375 83.449219 L 220.160156 83.449219 L 220.160156 126.199219 L 177.34375 126.199219 Z M 177.34375 83.449219 " clip-rule="nonzero"/></clipPath></defs><path fill="rgb(21.179199%, 27.059937%, 30.979919%)" d="M 353.058594 207.097656 C 351.597656 205.121094 350.105469 203.167969 348.621094 201.207031 C 348.507812 197.042969 348.453125 192.871094 348.546875 188.671875 C 348.789062 177.519531 349.332031 166.367188 349.125 155.210938 C 348.925781 144.472656 348.039062 133.761719 347.652344 123.03125 C 347.648438 122.941406 347.652344 122.851562 347.648438 122.757812 C 349.070312 121.925781 349.945312 120.1875 348.851562 118.359375 C 348.417969 117.632812 347.964844 116.921875 347.519531 116.199219 C 347.488281 111.695312 347.585938 107.191406 347.765625 102.691406 C 349.644531 102.132812 351.097656 100.113281 349.75 97.976562 C 349.226562 97.144531 348.660156 96.339844 348.113281 95.519531 C 348.175781 94.480469 348.222656 93.4375 348.289062 92.398438 C 348.5625 88.175781 348.898438 83.957031 349.21875 79.738281 C 349.433594 76.839844 350.097656 74.09375 348.304688 71.625 C 344.371094 66.21875 339.738281 61.257812 335.304688 56.265625 C 319.683594 38.683594 304.039062 20.941406 287.464844 4.25 C 286.875 3.660156 286.226562 3.371094 285.582031 3.296875 C 285.375 3.214844 285.164062 3.132812 284.933594 3.070312 C 278.023438 1.238281 270.191406 1.300781 263.113281 0.902344 C 250.609375 0.203125 238.140625 0.0898438 225.625 0.34375 C 212.453125 0.609375 199.292969 0.523438 186.132812 1.144531 C 172.152344 1.804688 158.332031 1.824219 144.347656 1.246094 C 130.621094 0.675781 116.882812 1.035156 103.144531 1.078125 C 89.980469 1.117188 77.019531 1.902344 63.964844 3.660156 C 59.179688 4.300781 54.398438 4.964844 49.601562 5.511719 C 48.582031 5.164062 47.355469 5.308594 46.40625 5.917969 C 43.382812 6.5 42.789062 10.453125 44.679688 11.917969 C 43.851562 24.507812 43.558594 37.125 43.011719 49.730469 C 42.414062 63.476562 41.453125 77.207031 41.179688 90.964844 C 40.910156 104.726562 41.332031 118.484375 41.589844 132.242188 C 41.847656 146 41.722656 159.765625 42.222656 173.519531 C 42.785156 189.027344 44.5 204.453125 45.722656 219.914062 C 45.847656 221.5 46.855469 222.859375 48.410156 223.152344 C 60.148438 233.449219 71.507812 244.164062 83.136719 254.582031 C 92.03125 262.554688 100.867188 271.046875 110.75 277.816406 C 112.890625 279.285156 114.933594 280.421875 117.539062 280.664062 C 121.277344 281.015625 125.074219 280.980469 128.824219 281.066406 C 143.613281 281.398438 158.324219 281.695312 173.070312 282.9375 C 181.769531 283.667969 190.449219 283.929688 199.167969 284.28125 C 207.625 284.628906 216.070312 285.195312 224.53125 285.46875 C 241.296875 286.011719 257.929688 283.367188 274.6875 284.121094 C 274.488281 284.449219 274.277344 284.773438 274.074219 285.101562 C 272.132812 288.257812 276.710938 291.902344 279.265625 289.101562 C 280.609375 287.632812 281.921875 286.140625 283.246094 284.65625 C 288.628906 285.066406 294.003906 285.542969 299.394531 285.828125 C 307.054688 286.230469 314.757812 286.070312 322.417969 285.789062 C 323.59375 285.746094 324.773438 285.671875 325.949219 285.621094 C 326.882812 285.96875 328.007812 285.925781 328.949219 285.476562 C 332.019531 285.304688 335.085938 285.089844 338.144531 284.777344 C 339.179688 284.671875 340.476562 284.640625 341.738281 284.453125 C 343.601562 285.128906 346.324219 284.140625 346.617188 281.507812 C 347.632812 272.382812 348.960938 263.296875 349.738281 254.148438 C 350.648438 243.417969 350.582031 232.847656 349.753906 222.121094 C 349.488281 218.71875 349.265625 215.324219 349.070312 211.933594 C 351.617188 213.074219 354.84375 209.515625 353.058594 207.097656 Z M 208.105469 278.105469 C 208.5 277.941406 208.890625 277.6875 209.261719 277.316406 C 212.59375 274.027344 215.882812 270.683594 219.050781 267.230469 C 218.0625 268.648438 217.0625 270.058594 216.121094 271.507812 C 214.042969 274.707031 218.671875 278.085938 221.3125 275.511719 C 224.84375 272.070312 228.121094 268.398438 231.136719 264.53125 C 230.054688 266.433594 228.980469 268.34375 227.941406 270.269531 C 227.519531 271.046875 227.503906 271.945312 227.753906 272.773438 C 226.757812 274.808594 225.78125 276.847656 224.816406 278.890625 C 219.242188 278.722656 213.667969 278.398438 208.105469 278.105469 Z M 111.234375 232.351562 C 107.710938 236.578125 103.269531 239.828125 98.246094 241.902344 C 102.308594 239.476562 105.816406 236.335938 108.710938 232.320312 C 110.148438 230.316406 108.527344 228.058594 106.503906 227.535156 C 105.425781 226.039062 103.242188 225.328125 101.558594 227.035156 C 100.632812 227.96875 99.660156 228.859375 98.710938 229.773438 C 98.007812 230.132812 97.339844 230.539062 96.675781 230.953125 C 95.902344 229.195312 93.816406 227.917969 92.011719 229.28125 C 91.785156 229.449219 91.574219 229.636719 91.351562 229.808594 C 91.347656 229.804688 91.34375 229.800781 91.339844 229.796875 C 91.296875 229.835938 91.257812 229.878906 91.214844 229.914062 C 89.726562 231.078125 88.28125 232.289062 86.851562 233.519531 C 87.296875 232.550781 87.808594 231.621094 88.410156 230.75 C 90.183594 228.1875 87.695312 225.835938 85.246094 226.003906 C 85.484375 224.988281 85.164062 223.976562 84.535156 223.195312 C 97.339844 223.308594 110.035156 224.648438 122.816406 225.226562 C 123.5625 225.257812 124.316406 225.261719 125.0625 225.292969 C 125.023438 225.332031 124.980469 225.363281 124.941406 225.410156 C 123.261719 227.363281 121.636719 229.351562 120.035156 231.355469 C 121.890625 227.773438 116.609375 225.03125 114.195312 228.285156 C 113.199219 229.632812 112.222656 230.996094 111.234375 232.351562 Z M 75.140625 228.417969 C 74.714844 227.707031 74.058594 227.148438 73.253906 227.015625 C 69.890625 226.46875 66.515625 226 63.148438 225.488281 C 63.175781 225.421875 63.210938 225.375 63.246094 225.347656 C 64.078125 224.769531 64.511719 224 64.65625 223.199219 C 69.589844 223.179688 74.523438 223.175781 79.457031 223.183594 C 78.03125 224.910156 76.621094 226.695312 75.140625 228.417969 Z M 75.808594 238.734375 C 76.78125 238.621094 77.710938 238.390625 78.613281 238.113281 C 78.429688 239.132812 78.289062 240.152344 78.179688 241.164062 C 77.289062 240.351562 76.398438 239.535156 75.507812 238.71875 C 75.609375 238.71875 75.703125 238.746094 75.808594 238.734375 Z M 85.492188 246.3125 C 85.449219 246.476562 85.382812 246.628906 85.34375 246.800781 C 85.28125 247.054688 85.261719 247.324219 85.269531 247.59375 C 84.710938 247.09375 84.15625 246.59375 83.601562 246.089844 C 84.179688 246.332031 84.824219 246.433594 85.492188 246.3125 Z M 138.894531 225.570312 C 139.382812 225.574219 139.875 225.582031 140.367188 225.582031 C 139.777344 226.304688 139.183594 227.019531 138.609375 227.753906 C 138.972656 227.007812 139.03125 226.257812 138.894531 225.570312 Z M 130.367188 226.9375 C 130.191406 226.367188 129.871094 225.847656 129.457031 225.421875 C 130.226562 225.441406 130.992188 225.476562 131.757812 225.488281 C 131.292969 225.96875 130.828125 226.449219 130.367188 226.9375 Z M 102.179688 258.050781 C 101.933594 258.5 101.679688 258.941406 101.4375 259.394531 C 101.046875 260.125 100.984375 260.914062 101.144531 261.652344 C 100.441406 261.042969 99.722656 260.453125 99.019531 259.839844 C 100.097656 259.28125 101.132812 258.660156 102.179688 258.050781 Z M 105.960938 263.910156 C 106.433594 263.601562 106.882812 263.257812 107.351562 262.941406 C 107.132812 263.480469 106.886719 264.007812 106.675781 264.554688 C 106.441406 265.164062 106.40625 265.730469 106.523438 266.234375 C 105.808594 265.644531 105.113281 265.027344 104.40625 264.429688 C 104.910156 264.410156 105.4375 264.253906 105.960938 263.910156 Z M 147.527344 227.152344 C 147.890625 226.644531 148.042969 226.113281 148.050781 225.59375 C 149.992188 225.589844 151.933594 225.585938 153.871094 225.582031 C 147.5625 232.929688 140.804688 239.875 134.546875 247.269531 C 133.058594 249.03125 131.582031 250.796875 130.09375 252.558594 C 132.46875 248.25 135.03125 244.046875 137.796875 239.980469 C 141.144531 235.789062 144.398438 231.515625 147.527344 227.152344 Z M 160.191406 228.289062 C 160.824219 227.390625 160.832031 226.425781 160.480469 225.582031 C 161.222656 225.582031 161.964844 225.578125 162.703125 225.582031 C 161.863281 226.5 161.015625 227.40625 160.167969 228.320312 C 160.175781 228.308594 160.183594 228.300781 160.191406 228.289062 Z M 282.21875 8.148438 C 282.21875 8.1875 282.234375 8.230469 282.242188 8.277344 C 282.21875 8.222656 282.210938 8.175781 282.207031 8.125 C 282.210938 8.132812 282.214844 8.140625 282.21875 8.148438 Z M 338.972656 136.5 C 324.820312 115.527344 309.59375 95.175781 293.164062 75.917969 C 292.804688 70.0625 292.390625 64.210938 292.019531 58.355469 C 298.492188 66.832031 306.367188 74.3125 313.5 82.1875 C 323.632812 93.371094 332.917969 105.285156 340.914062 118.082031 C 341.074219 128.347656 341.933594 138.589844 342.328125 148.851562 C 342.476562 152.695312 342.507812 156.535156 342.503906 160.378906 C 342.410156 160.359375 342.3125 160.355469 342.21875 160.347656 C 326.695312 143.1875 312.125 125.140625 298.609375 106.371094 C 297.496094 104.828125 295.722656 104.660156 294.332031 105.253906 C 294.199219 99.113281 294.027344 92.980469 293.753906 86.847656 C 307.816406 103.816406 320.949219 121.582031 333.265625 139.835938 C 335.632812 143.339844 341.359375 140.039062 338.972656 136.5 Z M 342.054688 203.402344 C 342.140625 207.203125 342.28125 211.003906 342.566406 214.800781 C 343.210938 223.347656 343.78125 231.785156 343.757812 240.277344 C 335.199219 232.007812 326.898438 223.449219 319.507812 214.109375 C 311.589844 204.097656 304.667969 193.316406 298.269531 182.285156 C 297.90625 181.664062 297.441406 181.257812 296.933594 181.003906 C 296.890625 176.832031 296.808594 172.664062 296.617188 168.507812 C 296.597656 168.082031 296.574219 167.65625 296.554688 167.230469 C 309.511719 185.695312 322.390625 204.21875 335.386719 222.660156 C 337.816406 226.109375 343.550781 222.8125 341.09375 219.324219 C 326.652344 198.828125 312.363281 178.226562 297.9375 157.722656 C 297.410156 156.96875 296.71875 156.554688 295.996094 156.375 C 295.757812 152.054688 295.53125 147.734375 295.320312 143.414062 C 303.710938 153.839844 311.785156 164.511719 319.996094 175.078125 C 327.335938 184.527344 334.804688 193.882812 342.054688 203.402344 Z M 313.382812 240.492188 C 317.609375 245.914062 321.84375 251.335938 326.199219 256.660156 C 328.777344 259.816406 335.351562 269.558594 339.582031 262.769531 C 340.207031 261.765625 340.160156 260.441406 339.582031 259.433594 C 339.496094 259.277344 339.40625 259.125 339.316406 258.96875 C 338.414062 257.386719 336.847656 257.097656 335.519531 257.570312 C 335.140625 257.042969 334.65625 256.558594 334.242188 256.0625 C 333.335938 254.984375 332.4375 253.898438 331.542969 252.808594 C 329.640625 250.492188 327.761719 248.15625 325.898438 245.808594 C 322.277344 241.253906 318.710938 236.65625 315.128906 232.066406 C 308.851562 224.03125 302.609375 215.960938 296.59375 207.726562 C 296.625 206.71875 296.664062 205.714844 296.691406 204.707031 C 296.792969 200.773438 296.863281 196.832031 296.914062 192.890625 C 302.230469 201.554688 307.9375 209.964844 314.207031 217.980469 C 320.773438 226.371094 328.082031 234.128906 335.660156 241.605469 C 335.667969 241.636719 335.664062 241.664062 335.667969 241.691406 C 336.359375 245.351562 339.710938 247.269531 343.164062 247.621094 C 343.308594 247.632812 343.429688 247.59375 343.566406 247.585938 C 343.515625 248.605469 343.472656 249.625 343.398438 250.648438 C 342.878906 257.96875 341.964844 265.242188 341.070312 272.519531 C 338.414062 269.722656 335.664062 267.011719 332.902344 264.308594 C 332.765625 264.148438 332.609375 264 332.445312 263.863281 C 330.664062 262.121094 328.882812 260.378906 327.128906 258.613281 C 320.902344 252.347656 314.796875 245.9375 308.808594 239.453125 C 303.785156 234.015625 299.023438 228.351562 295.230469 222.003906 C 295.800781 220.84375 295.984375 219.425781 296.070312 218.050781 C 301.75 225.597656 307.570312 233.042969 313.382812 240.492188 Z M 232.347656 250.214844 C 232.742188 249.59375 233.128906 248.964844 233.507812 248.332031 C 234.167969 247.503906 234.835938 246.683594 235.492188 245.851562 C 235.113281 246.542969 234.742188 247.238281 234.347656 247.921875 C 233.675781 248.679688 233.011719 249.449219 232.347656 250.214844 Z M 291.332031 232.898438 C 290.988281 233.265625 290.652344 233.640625 290.3125 234.007812 C 290.875 232.367188 291.40625 230.710938 291.902344 229.042969 C 292.542969 229.996094 293.175781 230.957031 293.851562 231.882812 C 293.011719 231.789062 292.117188 232.0625 291.332031 232.898438 Z M 261.703125 225.199219 C 261.660156 225.148438 261.632812 225.078125 261.585938 225.03125 C 261.683594 225.03125 261.78125 225.03125 261.875 225.03125 C 261.816406 225.085938 261.761719 225.144531 261.703125 225.199219 Z M 249.117188 231.785156 C 249.871094 229.714844 250.585938 227.628906 251.234375 225.523438 C 251.277344 225.382812 251.296875 225.242188 251.316406 225.105469 C 253.050781 225.082031 254.78125 225.066406 256.511719 225.054688 C 253.917969 227.167969 251.472656 229.433594 249.117188 231.785156 Z M 234.234375 226.730469 C 234.085938 226.308594 233.863281 225.917969 233.589844 225.566406 C 234.179688 225.550781 234.769531 225.53125 235.355469 225.511719 C 234.984375 225.917969 234.609375 226.324219 234.234375 226.730469 Z M 197.730469 269.140625 C 201.820312 263.222656 205.734375 257.179688 209.902344 251.320312 C 210.5 250.480469 211.101562 249.648438 211.699219 248.8125 C 214.007812 246.375 216.445312 244.070312 218.957031 241.851562 C 217.6875 243.824219 216.386719 245.777344 215.054688 247.710938 C 209.011719 254.636719 203.605469 262.078125 197.730469 269.140625 Z M 227.1875 226.710938 C 227.402344 226.390625 227.621094 226.070312 227.835938 225.746094 C 228.046875 225.742188 228.257812 225.734375 228.46875 225.726562 C 228.042969 226.054688 227.613281 226.382812 227.1875 226.710938 Z M 217.621094 226.308594 C 217.605469 226.203125 217.589844 226.105469 217.566406 226 C 217.691406 226 217.816406 225.996094 217.945312 225.992188 C 217.839844 226.101562 217.726562 226.203125 217.621094 226.308594 Z M 207.082031 227.421875 C 206.933594 226.921875 206.683594 226.46875 206.355469 226.085938 C 207.242188 226.089844 208.132812 226.078125 209.019531 226.078125 C 208.363281 226.511719 207.722656 226.96875 207.082031 227.421875 Z M 170.621094 242.125 C 171.683594 241.144531 172.761719 240.179688 173.851562 239.222656 C 172.277344 240.898438 170.710938 242.578125 169.144531 244.257812 C 169.640625 243.550781 170.132812 242.839844 170.621094 242.125 Z M 181.9375 240.34375 C 182.113281 240.164062 182.289062 239.984375 182.460938 239.804688 C 182.347656 239.992188 182.234375 240.1875 182.117188 240.375 C 181.910156 240.558594 181.710938 240.75 181.5 240.929688 C 181.648438 240.734375 181.792969 240.539062 181.9375 240.34375 Z M 195.34375 230.15625 C 196.074219 228.765625 196.808594 227.375 197.542969 225.988281 C 198.929688 226.007812 200.3125 226.03125 201.699219 226.046875 C 199.546875 227.363281 197.425781 228.730469 195.34375 230.15625 Z M 145.386719 273.195312 C 145.339844 273.761719 145.472656 274.304688 145.738281 274.792969 C 145.089844 274.78125 144.441406 274.769531 143.792969 274.757812 C 144.320312 274.234375 144.863281 273.722656 145.386719 273.195312 Z M 193.488281 275.066406 C 193.398438 275.988281 193.738281 276.878906 194.308594 277.566406 C 193.445312 277.539062 192.582031 277.503906 191.71875 277.472656 C 192.324219 276.683594 192.894531 275.867188 193.488281 275.066406 Z M 234.863281 278.554688 C 235.035156 278.695312 235.222656 278.816406 235.414062 278.921875 C 235.09375 278.933594 234.777344 278.941406 234.457031 278.945312 C 234.589844 278.816406 234.730469 278.6875 234.863281 278.554688 Z M 239.109375 278.300781 C 239.207031 278.1875 239.300781 278.070312 239.398438 277.957031 C 239.539062 278.246094 239.722656 278.511719 239.941406 278.753906 C 239.460938 278.777344 238.984375 278.8125 238.503906 278.835938 C 238.714844 278.691406 238.917969 278.519531 239.109375 278.300781 Z M 247.84375 275.691406 C 247.554688 276.570312 247.671875 277.464844 248.050781 278.230469 C 247.109375 278.300781 246.167969 278.371094 245.226562 278.4375 C 246.109375 277.53125 246.972656 276.605469 247.84375 275.691406 Z M 272.746094 275.304688 C 272.328125 276.011719 271.910156 276.722656 271.492188 277.429688 C 271.363281 277.425781 271.230469 277.421875 271.101562 277.421875 C 271.648438 276.714844 272.203125 276.015625 272.746094 275.304688 Z M 318.964844 267.25 C 319.105469 267.09375 319.234375 267.070312 319.355469 267.125 C 319.167969 267.164062 319.003906 267.203125 318.964844 267.25 Z M 320.160156 266.953125 C 320.144531 266.957031 320.113281 266.960938 320.097656 266.96875 C 319.675781 266.191406 318.929688 265.691406 318.046875 265.527344 C 318.019531 265.097656 317.992188 264.667969 317.949219 264.234375 C 317.789062 262.679688 316.605469 261.398438 315.230469 261.03125 C 315.351562 260.808594 315.472656 260.582031 315.59375 260.355469 C 317.375 256.992188 313.214844 253.855469 310.402344 256.351562 C 309.097656 257.511719 307.8125 258.6875 306.527344 259.867188 C 307.359375 258.335938 308.1875 256.800781 309.066406 255.292969 C 310.914062 252.117188 306.457031 248.464844 303.875 251.292969 C 302.933594 252.320312 302.015625 253.371094 301.085938 254.410156 C 302.277344 252.496094 303.488281 250.597656 304.671875 248.675781 C 306.679688 245.417969 302.171875 242.144531 299.480469 244.675781 C 298.636719 245.46875 297.851562 246.324219 297.023438 247.132812 C 297.679688 246.019531 298.335938 244.90625 298.992188 243.792969 C 300.511719 241.21875 297.960938 238.46875 295.53125 238.867188 C 295.859375 238.210938 296.203125 237.5625 296.523438 236.902344 C 296.699219 236.539062 296.796875 236.167969 296.839844 235.804688 C 302.546875 242.914062 309.105469 249.40625 315.335938 255.964844 C 318.113281 258.894531 320.949219 261.765625 323.804688 264.621094 C 323.40625 264.773438 323.023438 264.984375 322.695312 265.308594 C 321.972656 266.03125 321.125 266.59375 320.160156 266.953125 Z M 333.355469 274.078125 C 334.746094 275.457031 336.148438 276.863281 337.398438 278.222656 C 335.617188 278.398438 333.839844 278.566406 332.058594 278.6875 C 332.476562 277.148438 332.898438 275.609375 333.355469 274.078125 Z M 325.328125 171.253906 C 316.003906 159.273438 306.894531 147.125 297.285156 135.367188 C 296.585938 134.511719 295.753906 134.203125 294.953125 134.261719 C 294.886719 132.285156 294.804688 130.3125 294.765625 128.332031 C 294.660156 122.828125 294.570312 117.324219 294.46875 111.820312 C 308.8125 131.582031 324.214844 150.632812 340.746094 168.609375 C 341.253906 169.160156 341.828125 169.460938 342.410156 169.574219 C 342.269531 177.230469 342.042969 184.886719 341.976562 192.542969 C 336.449219 185.425781 330.859375 178.363281 325.328125 171.253906 Z M 319.507812 79 C 309.78125 68.125 298.363281 58.21875 291.296875 45.304688 C 291.203125 43.273438 291.105469 41.242188 291.019531 39.210938 C 305.300781 60.492188 326.738281 76.253906 341.394531 97.359375 C 341.234375 100.3125 341.117188 103.265625 341.027344 106.21875 C 334.46875 96.6875 327.226562 87.625 319.507812 79 Z M 340.871094 72.785156 C 341.484375 73.535156 342.128906 74.324219 342.59375 74.960938 C 342.667969 75.0625 342.761719 75.230469 342.859375 75.394531 C 342.808594 75.792969 342.847656 76.441406 342.828125 76.699219 C 342.585938 80.175781 342.304688 83.648438 342.046875 87.125 C 335.089844 78.222656 327.191406 70.066406 319.273438 61.992188 C 308.644531 51.152344 298.15625 40.050781 291.113281 26.464844 C 290.90625 26.070312 290.652344 25.769531 290.378906 25.519531 C 290.214844 22.40625 290.027344 19.292969 289.804688 16.179688 C 301.84375 28.738281 313.417969 41.777344 325.042969 54.695312 C 330.398438 60.648438 335.796875 66.589844 340.871094 72.785156 Z M 83.09375 8.203125 C 95.960938 7.355469 108.882812 7.792969 121.765625 7.613281 C 135.242188 7.425781 148.648438 8.3125 162.117188 8.453125 C 175.292969 8.589844 188.429688 7.378906 201.59375 7.195312 C 225.429688 6.871094 249.304688 6.1875 273.089844 8.195312 C 276.042969 8.445312 279.042969 8.679688 281.855469 9.175781 C 282.074219 9.214844 282.292969 9.261719 282.511719 9.304688 C 283.910156 15.914062 283.695312 24.464844 284.035156 31.632812 C 284.207031 35.273438 284.394531 38.914062 284.59375 42.550781 C 283.894531 43.480469 283.617188 44.738281 284.257812 46.0625 C 284.4375 46.433594 284.660156 46.773438 284.847656 47.140625 C 285.292969 55.117188 285.765625 63.089844 286.210938 71.066406 C 284.421875 71.945312 283.269531 74.511719 285 76.5 C 285.539062 77.121094 286.066406 77.753906 286.601562 78.378906 C 287.125 88.402344 287.5625 98.433594 287.777344 108.476562 C 288.058594 121.882812 288.117188 135.300781 288.867188 148.695312 C 289.5625 161.113281 290.300781 173.460938 290.296875 185.902344 C 290.296875 191.519531 290.28125 197.148438 290.15625 202.777344 C 288.207031 203.3125 286.730469 205.324219 288.222656 207.40625 C 288.78125 208.1875 289.359375 208.957031 289.925781 209.734375 C 289.84375 211.574219 289.761719 213.417969 289.636719 215.253906 C 289.585938 216.035156 289.507812 216.816406 289.433594 217.59375 C 289.175781 217.71875 288.925781 217.863281 288.699219 218.042969 C 287.777344 218.101562 286.855469 218.167969 285.933594 218.203125 C 275.957031 218.5625 265.957031 218.4375 255.976562 218.480469 C 243.710938 218.53125 231.46875 219.21875 219.207031 219.457031 C 211.007812 219.617188 202.800781 219.515625 194.597656 219.375 C 193.703125 217.835938 191.703125 216.863281 190.070312 218.0625 C 189.523438 218.464844 188.976562 218.871094 188.429688 219.273438 C 185.613281 219.226562 182.800781 219.175781 179.988281 219.136719 C 166.386719 218.945312 152.785156 218.960938 139.183594 218.890625 C 126.339844 218.824219 113.644531 217.980469 100.835938 217.125 C 88.589844 216.308594 76.292969 216.53125 64.027344 216.589844 C 60.035156 216.609375 56.042969 216.613281 52.050781 216.605469 C 51.003906 204.054688 49.699219 191.523438 49.066406 178.945312 C 48.375 165.199219 48.484375 151.429688 48.292969 137.671875 C 48.097656 123.914062 47.621094 110.15625 47.71875 96.398438 C 47.820312 82.632812 48.695312 68.898438 49.367188 55.15625 C 50.074219 40.757812 50.34375 26.339844 51.289062 11.957031 C 61.894531 10.710938 72.425781 8.90625 83.09375 8.203125 Z M 88.953125 250.925781 C 92.625 250.53125 96.15625 249.699219 99.492188 248.457031 C 97.824219 250.75 96.167969 253.050781 94.480469 255.332031 C 94.398438 255.441406 94.34375 255.550781 94.277344 255.664062 C 92.890625 254.429688 91.492188 253.207031 90.109375 251.96875 C 89.722656 251.625 89.339844 251.273438 88.953125 250.925781 Z M 109.320312 268.542969 C 110.335938 268.710938 111.414062 268.496094 112.203125 267.765625 C 114.15625 265.949219 116.066406 264.085938 117.957031 262.207031 C 116.503906 265.414062 115.117188 268.65625 113.832031 271.941406 C 112.28125 270.882812 110.785156 269.730469 109.320312 268.542969 Z M 125.125 274.363281 C 125.128906 274.355469 125.132812 274.351562 125.140625 274.347656 C 128 271.183594 131.03125 268.183594 134.085938 265.207031 C 133.757812 265.675781 133.410156 266.128906 133.085938 266.597656 C 131.429688 268.976562 134.113281 271.875 136.476562 271.617188 C 135.777344 272.605469 135.054688 273.582031 134.371094 274.582031 C 131.289062 274.519531 128.207031 274.445312 125.125 274.363281 Z M 151.894531 274.941406 C 154.273438 272.457031 156.640625 269.960938 158.996094 267.453125 C 158.5 268.179688 158.003906 268.902344 157.507812 269.625 C 155.355469 272.769531 160.09375 276.234375 162.699219 273.628906 C 164.820312 271.503906 166.929688 269.367188 169.015625 267.214844 C 168.835938 267.523438 168.640625 267.820312 168.464844 268.136719 C 166.726562 271.273438 171.214844 275.167969 173.65625 272.136719 C 179.050781 265.445312 184.363281 258.6875 189.675781 251.925781 C 190.671875 250.898438 191.667969 249.871094 192.667969 248.84375 C 194.785156 246.671875 196.949219 244.539062 199.167969 242.464844 C 196.847656 245.496094 194.511719 248.511719 192.171875 251.527344 C 188.546875 256.207031 185.109375 261.039062 181.515625 265.738281 C 178.53125 269.230469 175.570312 272.746094 172.632812 276.28125 C 168.265625 275.910156 163.902344 275.527344 159.53125 275.261719 C 156.988281 275.109375 154.441406 275.015625 151.894531 274.941406 Z M 180.945312 276.933594 C 182.808594 274.75 184.597656 272.507812 186.34375 270.226562 C 188.46875 267.742188 190.613281 265.273438 192.78125 262.824219 C 190.304688 266.691406 187.957031 270.636719 185.667969 274.605469 C 185.117188 275.554688 185.042969 276.445312 185.28125 277.191406 C 184.300781 277.140625 183.320312 277.101562 182.34375 277.035156 C 181.878906 277.007812 181.410156 276.96875 180.945312 276.933594 Z M 199.113281 277.726562 C 206.925781 269.726562 214.003906 260.863281 220.421875 251.558594 C 220.546875 251.417969 220.660156 251.269531 220.785156 251.128906 C 223.851562 247.699219 226.988281 244.332031 230.113281 240.960938 C 229.410156 242.25 228.683594 243.523438 227.933594 244.785156 C 227.1875 245.710938 226.457031 246.644531 225.703125 247.5625 C 218.785156 256.023438 211.535156 264.207031 204.589844 272.648438 C 202.953125 274.636719 203.941406 277.101562 205.660156 277.988281 C 203.480469 277.886719 201.296875 277.800781 199.113281 277.726562 Z M 254.457031 277.78125 C 257.492188 274.265625 260.527344 270.742188 263.488281 267.167969 C 262.402344 268.753906 261.328125 270.347656 260.28125 271.960938 C 258.789062 274.253906 260.890625 276.792969 263.128906 276.921875 C 263.085938 276.980469 263.039062 277.039062 263 277.097656 C 262.933594 277.191406 262.890625 277.289062 262.839844 277.386719 C 260.722656 277.429688 258.601562 277.511719 256.480469 277.640625 C 255.804688 277.683594 255.132812 277.738281 254.457031 277.78125 Z M 289.671875 277.386719 C 289.480469 277.761719 289.375 278.144531 289.34375 278.523438 C 289.136719 278.507812 288.929688 278.492188 288.722656 278.472656 C 289.039062 278.113281 289.355469 277.75 289.671875 277.386719 Z M 303.0625 279.375 C 300.988281 279.316406 298.914062 279.207031 296.839844 279.074219 C 298.007812 277.746094 299.183594 276.421875 300.394531 275.136719 C 299.804688 278.058594 303.484375 280.792969 305.898438 278.226562 C 307.375 276.660156 308.863281 275.101562 310.351562 273.542969 C 310.171875 273.933594 309.972656 274.316406 309.742188 274.695312 C 308.359375 276.964844 309.945312 279.011719 311.925781 279.441406 C 308.96875 279.46875 306.011719 279.460938 303.0625 279.375 Z M 313.425781 279.433594 C 314.179688 279.257812 314.898438 278.824219 315.449219 278.03125 C 316.394531 276.664062 317.164062 275.199219 317.949219 273.746094 C 318.355469 273.816406 318.773438 273.855469 319.203125 273.839844 C 320.476562 273.789062 321.75 273.457031 322.960938 272.945312 C 323.132812 273.640625 323.308594 274.332031 323.484375 275.023438 C 323.675781 275.773438 324.144531 276.339844 324.726562 276.746094 C 324.644531 277.53125 324.566406 278.3125 324.492188 279.097656 C 320.8125 279.257812 317.121094 279.378906 313.425781 279.433594 Z M 339.324219 280.449219 C 339.425781 280.585938 339.519531 280.753906 339.617188 280.914062 C 339.191406 281.039062 339.15625 280.824219 339.324219 280.449219 Z M 339.640625 280.945312 C 339.679688 281.007812 339.714844 281.078125 339.765625 281.121094 C 340.164062 281.503906 339.414062 281.128906 339.640625 280.945312 Z M 339.640625 280.945312 " fill-opacity="1" fill-rule="nonzero"/><g clip-path="url(#id1)"><path fill="rgb(21.179199%, 27.059937%, 30.979919%)" d="M 136.25 104.828125 C 136.25 116.636719 126.710938 126.210938 114.941406 126.210938 C 103.171875 126.210938 93.628906 116.636719 93.628906 104.828125 C 93.628906 93.023438 103.171875 83.449219 114.941406 83.449219 C 126.710938 83.449219 136.25 93.023438 136.25 104.828125 " fill-opacity="1" fill-rule="nonzero"/></g><path fill="rgb(100%, 100%, 100%)" d="M 119.824219 101.710938 C 119.824219 106.632812 115.847656 110.621094 110.945312 110.621094 C 106.042969 110.621094 102.066406 106.632812 102.066406 101.710938 C 102.066406 96.792969 106.042969 92.804688 110.945312 92.804688 C 115.847656 92.804688 119.824219 96.792969 119.824219 101.710938 " fill-opacity="1" fill-rule="nonzero"/><path fill="rgb(100%, 100%, 100%)" d="M 126.484375 115.074219 C 126.484375 117.535156 124.496094 119.527344 122.042969 119.527344 C 119.59375 119.527344 117.605469 117.535156 117.605469 115.074219 C 117.605469 112.613281 119.59375 110.621094 122.042969 110.621094 C 124.496094 110.621094 126.484375 112.613281 126.484375 115.074219 " fill-opacity="1" fill-rule="nonzero"/><g clip-path="url(#id2)"><path fill="rgb(21.179199%, 27.059937%, 30.979919%)" d="M 220.160156 104.828125 C 220.160156 116.636719 210.617188 126.210938 198.847656 126.210938 C 187.082031 126.210938 177.539062 116.636719 177.539062 104.828125 C 177.539062 93.023438 187.082031 83.449219 198.847656 83.449219 C 210.617188 83.449219 220.160156 93.023438 220.160156 104.828125 " fill-opacity="1" fill-rule="nonzero"/></g><path fill="rgb(100%, 100%, 100%)" d="M 203.734375 101.710938 C 203.734375 106.632812 199.757812 110.621094 194.855469 110.621094 C 189.949219 110.621094 185.972656 106.632812 185.972656 101.710938 C 185.972656 96.792969 189.949219 92.804688 194.855469 92.804688 C 199.757812 92.804688 203.734375 96.792969 203.734375 101.710938 " fill-opacity="1" fill-rule="nonzero"/><path fill="rgb(100%, 100%, 100%)" d="M 210.394531 115.074219 C 210.394531 117.535156 208.40625 119.527344 205.953125 119.527344 C 203.5 119.527344 201.511719 117.535156 201.511719 115.074219 C 201.511719 112.613281 203.5 110.621094 205.953125 110.621094 C 208.40625 110.621094 210.394531 112.613281 210.394531 115.074219 " fill-opacity="1" fill-rule="nonzero"/></svg>