<svg xmlns="http://www.w3.org/2000/svg" xmlns:xlink="http://www.w3.org/1999/xlink" width="500" zoomAndPan="magnify" viewBox="0 0 375 374.999991" height="500" preserveAspectRatio="xMidYMid meet" version="1.0"><defs><clipPath id="id1"><path d="M 0 13.296875 L 374 13.296875 L 374 361 L 0 361 Z M 0 13.296875 " clip-rule="nonzero"/></clipPath><clipPath id="id2"><path d="M 37.5 76.707031 L 229.5 76.707031 L 229.5 148.707031 L 37.5 148.707031 Z M 37.5 76.707031 " clip-rule="nonzero"/></clipPath></defs><g clip-path="url(#id1)"><path fill="rgb(21.179199%, 27.059937%, 30.979919%)" d="M 372.667969 260.855469 C 370.925781 258.492188 369.144531 256.15625 367.371094 253.8125 C 367.238281 248.832031 367.175781 243.847656 367.28125 238.832031 C 367.574219 225.5 368.222656 212.167969 367.972656 198.832031 C 367.734375 185.992188 366.679688 173.191406 366.21875 160.363281 C 366.214844 160.253906 366.214844 160.148438 366.210938 160.039062 C 367.910156 159.042969 368.953125 156.960938 367.652344 154.777344 C 367.132812 153.910156 366.589844 153.058594 366.058594 152.195312 C 366.023438 146.8125 366.140625 141.429688 366.351562 136.050781 C 368.59375 135.382812 370.332031 132.96875 368.722656 130.417969 C 368.09375 129.417969 367.421875 128.457031 366.769531 127.476562 C 366.839844 126.234375 366.898438 124.988281 366.976562 123.746094 C 367.304688 118.699219 367.707031 113.65625 368.085938 108.609375 C 368.34375 105.144531 369.136719 101.867188 366.992188 98.914062 C 362.300781 92.449219 356.773438 86.523438 351.480469 80.554688 C 332.84375 59.539062 314.175781 38.328125 294.398438 18.375 C 293.699219 17.671875 292.921875 17.324219 292.152344 17.238281 C 291.902344 17.136719 291.652344 17.039062 291.375 16.964844 C 283.132812 14.777344 273.789062 14.847656 265.339844 14.375 C 250.421875 13.539062 235.539062 13.402344 220.605469 13.707031 C 204.890625 14.023438 189.191406 13.921875 173.484375 14.664062 C 156.800781 15.453125 140.3125 15.476562 123.625 14.78125 C 107.246094 14.101562 90.851562 14.535156 74.460938 14.585938 C 58.75 14.632812 43.285156 15.570312 27.710938 17.667969 C 22 18.4375 16.292969 19.230469 10.570312 19.882812 C 9.355469 19.46875 7.890625 19.640625 6.753906 20.367188 C 3.148438 21.066406 2.4375 25.789062 4.695312 27.542969 C 3.707031 42.59375 3.359375 57.671875 2.703125 72.742188 C 1.992188 89.171875 0.84375 105.585938 0.519531 122.035156 C 0.195312 138.480469 0.703125 154.929688 1.007812 171.375 C 1.316406 187.820312 1.167969 204.277344 1.761719 220.714844 C 2.4375 239.253906 4.484375 257.691406 5.9375 276.175781 C 6.089844 278.074219 7.292969 279.695312 9.148438 280.046875 C 23.152344 292.355469 36.707031 305.164062 50.582031 317.617188 C 61.199219 327.144531 71.742188 337.296875 83.53125 345.390625 C 86.089844 347.144531 88.523438 348.503906 91.636719 348.796875 C 96.097656 349.210938 100.628906 349.171875 105.101562 349.273438 C 122.746094 349.671875 140.300781 350.027344 157.898438 351.507812 C 168.277344 352.386719 178.636719 352.695312 189.039062 353.121094 C 199.128906 353.53125 209.207031 354.210938 219.300781 354.539062 C 239.308594 355.183594 259.152344 352.023438 279.152344 352.925781 C 278.914062 353.316406 278.664062 353.703125 278.421875 354.097656 C 276.101562 357.871094 281.566406 362.226562 284.617188 358.882812 C 286.21875 357.125 287.785156 355.339844 289.363281 353.566406 C 295.785156 354.054688 302.203125 354.625 308.636719 354.964844 C 317.773438 355.445312 326.964844 355.253906 336.105469 354.917969 C 337.511719 354.867188 338.917969 354.78125 340.320312 354.71875 C 341.433594 355.136719 342.777344 355.085938 343.898438 354.546875 C 347.5625 354.339844 351.222656 354.085938 354.871094 353.710938 C 356.105469 353.582031 357.65625 353.542969 359.160156 353.320312 C 361.382812 354.128906 364.632812 352.949219 364.980469 349.804688 C 366.191406 338.894531 367.777344 328.035156 368.707031 317.097656 C 369.792969 304.273438 369.714844 291.636719 368.722656 278.8125 C 368.410156 274.742188 368.144531 270.6875 367.910156 266.632812 C 370.945312 268 374.800781 263.742188 372.667969 260.855469 Z M 199.703125 345.734375 C 200.171875 345.539062 200.640625 345.234375 201.085938 344.792969 C 205.058594 340.859375 208.984375 336.863281 212.761719 332.738281 C 211.585938 334.433594 210.394531 336.117188 209.269531 337.851562 C 206.789062 341.675781 212.3125 345.714844 215.464844 342.632812 C 219.675781 338.519531 223.585938 334.128906 227.1875 329.511719 C 225.894531 331.785156 224.613281 334.066406 223.371094 336.371094 C 222.871094 337.296875 222.851562 338.371094 223.148438 339.359375 C 221.960938 341.792969 220.796875 344.230469 219.644531 346.671875 C 212.992188 346.472656 206.34375 346.082031 199.703125 345.734375 Z M 84.113281 291.039062 C 79.910156 296.097656 74.609375 299.976562 68.613281 302.460938 C 73.464844 299.558594 77.648438 295.804688 81.097656 291.003906 C 82.816406 288.609375 80.882812 285.910156 78.46875 285.28125 C 77.179688 283.496094 74.574219 282.648438 72.566406 284.6875 C 71.460938 285.804688 70.300781 286.867188 69.167969 287.960938 C 68.328125 288.386719 67.535156 288.875 66.742188 289.371094 C 65.816406 287.269531 63.328125 285.742188 61.171875 287.371094 C 60.902344 287.574219 60.652344 287.792969 60.386719 288 C 60.382812 287.996094 60.378906 287.992188 60.375 287.988281 C 60.320312 288.03125 60.277344 288.085938 60.222656 288.128906 C 58.449219 289.519531 56.722656 290.964844 55.015625 292.4375 C 55.546875 291.28125 56.15625 290.167969 56.875 289.125 C 58.992188 286.066406 56.023438 283.253906 53.101562 283.453125 C 53.386719 282.238281 53.003906 281.027344 52.253906 280.097656 C 67.535156 280.234375 82.679688 281.835938 97.933594 282.523438 C 98.824219 282.5625 99.71875 282.570312 100.613281 282.601562 C 100.566406 282.652344 100.515625 282.6875 100.46875 282.742188 C 98.464844 285.078125 96.523438 287.453125 94.613281 289.851562 C 96.828125 285.566406 90.523438 282.292969 87.648438 286.183594 C 86.457031 287.792969 85.292969 289.421875 84.113281 291.039062 Z M 41.042969 286.339844 C 40.53125 285.488281 39.753906 284.820312 38.789062 284.664062 C 34.777344 284.007812 30.753906 283.449219 26.734375 282.835938 C 26.765625 282.757812 26.804688 282.703125 26.851562 282.671875 C 27.84375 281.980469 28.359375 281.058594 28.535156 280.101562 C 34.417969 280.074219 40.304688 280.074219 46.191406 280.082031 C 44.492188 282.148438 42.808594 284.28125 41.042969 286.339844 Z M 41.839844 298.671875 C 43.003906 298.535156 44.109375 298.261719 45.183594 297.929688 C 44.96875 299.148438 44.800781 300.367188 44.671875 301.578125 C 43.609375 300.605469 42.546875 299.628906 41.480469 298.65625 C 41.605469 298.652344 41.710938 298.6875 41.839844 298.671875 Z M 53.394531 307.730469 C 53.34375 307.929688 53.261719 308.109375 53.214844 308.3125 C 53.144531 308.621094 53.121094 308.941406 53.128906 309.261719 C 52.464844 308.664062 51.800781 308.066406 51.140625 307.464844 C 51.832031 307.753906 52.597656 307.875 53.394531 307.730469 Z M 117.117188 282.9375 C 117.703125 282.941406 118.289062 282.949219 118.875 282.953125 C 118.171875 283.8125 117.460938 284.671875 116.777344 285.542969 C 117.207031 284.65625 117.28125 283.761719 117.117188 282.9375 Z M 106.945312 284.570312 C 106.734375 283.886719 106.351562 283.265625 105.855469 282.757812 C 106.773438 282.78125 107.6875 282.824219 108.601562 282.839844 C 108.046875 283.414062 107.492188 283.988281 106.945312 284.570312 Z M 73.308594 321.761719 C 73.015625 322.296875 72.710938 322.828125 72.421875 323.367188 C 71.957031 324.238281 71.878906 325.183594 72.074219 326.066406 C 71.230469 325.339844 70.375 324.632812 69.539062 323.902344 C 70.824219 323.234375 72.058594 322.488281 73.308594 321.761719 Z M 77.816406 328.769531 C 78.382812 328.398438 78.917969 327.988281 79.480469 327.609375 C 79.21875 328.253906 78.925781 328.882812 78.675781 329.535156 C 78.390625 330.265625 78.351562 330.941406 78.492188 331.546875 C 77.640625 330.839844 76.808594 330.101562 75.960938 329.386719 C 76.566406 329.363281 77.195312 329.175781 77.816406 328.769531 Z M 127.417969 284.828125 C 127.855469 284.21875 128.035156 283.585938 128.042969 282.964844 C 130.359375 282.957031 132.675781 282.957031 134.988281 282.949219 C 127.460938 291.734375 119.394531 300.039062 111.929688 308.875 C 110.15625 310.980469 108.390625 313.09375 106.617188 315.199219 C 109.449219 310.046875 112.507812 305.023438 115.804688 300.164062 C 119.804688 295.152344 123.683594 290.042969 127.417969 284.828125 Z M 142.53125 286.183594 C 143.285156 285.109375 143.296875 283.957031 142.875 282.949219 C 143.757812 282.949219 144.644531 282.945312 145.527344 282.949219 C 144.527344 284.046875 143.511719 285.132812 142.503906 286.226562 C 142.511719 286.210938 142.523438 286.199219 142.53125 286.183594 Z M 288.136719 23.035156 C 288.140625 23.082031 288.15625 23.136719 288.167969 23.1875 C 288.140625 23.125 288.132812 23.066406 288.125 23.007812 C 288.128906 23.015625 288.132812 23.027344 288.136719 23.035156 Z M 355.863281 176.464844 C 338.976562 151.394531 320.804688 127.066406 301.199219 104.042969 C 300.769531 97.046875 300.277344 90.050781 299.832031 83.050781 C 307.558594 93.183594 316.953125 102.125 325.46875 111.539062 C 337.554688 124.910156 348.636719 139.152344 358.179688 154.445312 C 358.367188 166.71875 359.394531 178.964844 359.863281 191.226562 C 360.039062 195.820312 360.078125 200.414062 360.074219 205.007812 C 359.960938 204.984375 359.847656 204.980469 359.734375 204.96875 C 341.210938 184.457031 323.824219 162.886719 307.699219 140.449219 C 306.371094 138.605469 304.25 138.402344 302.59375 139.109375 C 302.433594 131.773438 302.226562 124.441406 301.90625 117.113281 C 318.683594 137.398438 334.351562 158.628906 349.050781 180.449219 C 351.875 184.640625 358.710938 180.691406 355.863281 176.464844 Z M 359.535156 256.4375 C 359.640625 260.980469 359.808594 265.523438 360.152344 270.0625 C 360.921875 280.277344 361.601562 290.363281 361.570312 300.515625 C 351.355469 290.632812 341.449219 280.402344 332.636719 269.234375 C 323.1875 257.265625 314.925781 244.378906 307.289062 231.195312 C 306.859375 230.453125 306.304688 229.964844 305.695312 229.664062 C 305.644531 224.675781 305.546875 219.695312 305.320312 214.722656 C 305.296875 214.214844 305.269531 213.707031 305.242188 213.199219 C 320.707031 235.269531 336.074219 257.410156 351.578125 279.457031 C 354.480469 283.578125 361.324219 279.636719 358.390625 275.46875 C 341.160156 250.972656 324.109375 226.34375 306.894531 201.832031 C 306.265625 200.933594 305.441406 200.4375 304.578125 200.222656 C 304.292969 195.058594 304.023438 189.894531 303.773438 184.730469 C 313.785156 197.191406 323.421875 209.949219 333.214844 222.578125 C 341.976562 233.875 350.886719 245.058594 359.535156 256.4375 Z M 325.324219 300.773438 C 330.371094 307.253906 335.421875 313.734375 340.617188 320.097656 C 343.695312 323.871094 351.539062 335.519531 356.589844 327.402344 C 357.335938 326.203125 357.277344 324.621094 356.589844 323.417969 C 356.484375 323.230469 356.378906 323.042969 356.269531 322.859375 C 355.191406 320.96875 353.324219 320.625 351.742188 321.1875 C 351.289062 320.558594 350.710938 319.976562 350.21875 319.386719 C 349.136719 318.09375 348.0625 316.796875 346.992188 315.492188 C 344.722656 312.726562 342.484375 309.933594 340.257812 307.128906 C 335.9375 301.683594 331.683594 296.1875 327.40625 290.703125 C 319.917969 281.09375 312.472656 271.449219 305.292969 261.605469 C 305.332031 260.402344 305.375 259.199219 305.40625 258 C 305.527344 253.296875 305.613281 248.585938 305.675781 243.871094 C 312.019531 254.226562 318.824219 264.28125 326.308594 273.863281 C 334.144531 283.894531 342.863281 293.167969 351.910156 302.105469 C 351.914062 302.140625 351.910156 302.171875 351.917969 302.207031 C 352.742188 306.578125 356.742188 308.875 360.863281 309.292969 C 361.035156 309.308594 361.179688 309.261719 361.34375 309.253906 C 361.285156 310.472656 361.230469 311.691406 361.144531 312.910156 C 360.523438 321.664062 359.433594 330.359375 358.363281 339.058594 C 355.191406 335.714844 351.910156 332.472656 348.617188 329.246094 C 348.453125 329.050781 348.269531 328.875 348.070312 328.710938 C 345.945312 326.628906 343.820312 324.542969 341.726562 322.433594 C 334.296875 314.945312 327.015625 307.285156 319.867188 299.53125 C 313.871094 293.03125 308.191406 286.261719 303.667969 278.675781 C 304.34375 277.285156 304.566406 275.589844 304.664062 273.949219 C 311.445312 282.972656 318.390625 291.867188 325.324219 300.773438 Z M 228.632812 312.394531 C 229.101562 311.652344 229.5625 310.898438 230.015625 310.144531 C 230.800781 309.152344 231.601562 308.171875 232.382812 307.179688 C 231.929688 308.003906 231.488281 308.835938 231.019531 309.652344 C 230.214844 310.558594 229.425781 311.480469 228.632812 312.394531 Z M 299.015625 291.699219 C 298.605469 292.136719 298.203125 292.582031 297.792969 293.023438 C 298.464844 291.058594 299.101562 289.082031 299.695312 287.085938 C 300.457031 288.226562 301.214844 289.375 302.023438 290.484375 C 301.019531 290.371094 299.953125 290.699219 299.015625 291.699219 Z M 263.660156 282.492188 C 263.605469 282.429688 263.574219 282.347656 263.519531 282.289062 C 263.632812 282.289062 263.75 282.289062 263.867188 282.289062 C 263.796875 282.355469 263.730469 282.425781 263.660156 282.492188 Z M 248.640625 290.367188 C 249.539062 287.890625 250.394531 285.398438 251.164062 282.878906 C 251.21875 282.710938 251.242188 282.542969 251.265625 282.378906 C 253.332031 282.351562 255.398438 282.332031 257.464844 282.320312 C 254.367188 284.847656 251.453125 287.554688 248.640625 290.367188 Z M 230.882812 284.320312 C 230.707031 283.820312 230.4375 283.351562 230.113281 282.933594 C 230.816406 282.910156 231.519531 282.890625 232.21875 282.867188 C 231.773438 283.351562 231.328125 283.835938 230.882812 284.320312 Z M 187.324219 335.019531 C 192.203125 327.945312 196.871094 320.722656 201.847656 313.714844 C 202.558594 312.714844 203.277344 311.714844 203.992188 310.714844 C 206.746094 307.804688 209.652344 305.050781 212.652344 302.398438 C 211.136719 304.757812 209.582031 307.089844 207.992188 309.402344 C 200.785156 317.679688 194.332031 326.574219 187.324219 335.019531 Z M 222.472656 284.300781 C 222.730469 283.914062 222.992188 283.535156 223.246094 283.148438 C 223.496094 283.140625 223.75 283.132812 224 283.125 C 223.492188 283.515625 222.984375 283.910156 222.472656 284.300781 Z M 211.058594 283.816406 C 211.039062 283.691406 211.019531 283.574219 210.992188 283.453125 C 211.140625 283.449219 211.292969 283.445312 211.445312 283.441406 C 211.316406 283.570312 211.183594 283.691406 211.058594 283.816406 Z M 198.480469 285.148438 C 198.304688 284.550781 198.003906 284.007812 197.617188 283.550781 C 198.675781 283.558594 199.734375 283.542969 200.792969 283.542969 C 200.011719 284.0625 199.246094 284.609375 198.480469 285.148438 Z M 154.976562 302.722656 C 156.246094 301.550781 157.53125 300.398438 158.828125 299.257812 C 156.949219 301.257812 155.082031 303.269531 153.214844 305.277344 C 153.804688 304.429688 154.394531 303.578125 154.976562 302.722656 Z M 168.480469 300.597656 C 168.6875 300.382812 168.894531 300.164062 169.105469 299.949219 C 168.96875 300.175781 168.832031 300.40625 168.695312 300.636719 C 168.445312 300.851562 168.207031 301.078125 167.957031 301.296875 C 168.132812 301.066406 168.304688 300.832031 168.480469 300.597656 Z M 184.476562 288.417969 C 185.347656 286.753906 186.222656 285.09375 187.097656 283.4375 C 188.753906 283.460938 190.40625 283.484375 192.058594 283.503906 C 189.492188 285.082031 186.957031 286.710938 184.476562 288.417969 Z M 124.863281 339.863281 C 124.808594 340.542969 124.964844 341.191406 125.285156 341.777344 C 124.511719 341.761719 123.738281 341.746094 122.960938 341.734375 C 123.59375 341.105469 124.242188 340.496094 124.863281 339.863281 Z M 182.261719 342.101562 C 182.15625 343.203125 182.558594 344.269531 183.242188 345.09375 C 182.210938 345.058594 181.179688 345.015625 180.148438 344.980469 C 180.871094 344.035156 181.554688 343.058594 182.261719 342.101562 Z M 231.632812 346.273438 C 231.839844 346.441406 232.058594 346.585938 232.289062 346.714844 C 231.910156 346.722656 231.527344 346.734375 231.148438 346.742188 C 231.308594 346.582031 231.472656 346.433594 231.632812 346.273438 Z M 236.699219 345.96875 C 236.816406 345.835938 236.925781 345.691406 237.042969 345.558594 C 237.214844 345.902344 237.433594 346.222656 237.691406 346.507812 C 237.121094 346.539062 236.550781 346.582031 235.976562 346.609375 C 236.226562 346.433594 236.472656 346.230469 236.699219 345.96875 Z M 247.121094 342.847656 C 246.773438 343.898438 246.914062 344.96875 247.371094 345.886719 C 246.246094 345.96875 245.121094 346.050781 244 346.128906 C 245.054688 345.050781 246.082031 343.945312 247.121094 342.847656 Z M 276.835938 342.386719 C 276.335938 343.234375 275.839844 344.082031 275.339844 344.929688 C 275.183594 344.925781 275.027344 344.921875 274.871094 344.917969 C 275.527344 344.074219 276.1875 343.234375 276.835938 342.386719 Z M 331.984375 332.757812 C 332.15625 332.570312 332.308594 332.546875 332.449219 332.609375 C 332.230469 332.65625 332.035156 332.703125 331.984375 332.757812 Z M 333.410156 332.402344 C 333.394531 332.410156 333.359375 332.414062 333.335938 332.421875 C 332.832031 331.492188 331.945312 330.898438 330.890625 330.703125 C 330.859375 330.1875 330.824219 329.671875 330.773438 329.15625 C 330.582031 327.296875 329.171875 325.765625 327.53125 325.328125 C 327.671875 325.054688 327.820312 324.785156 327.960938 324.515625 C 330.089844 320.5 325.125 316.746094 321.765625 319.734375 C 320.210938 321.117188 318.679688 322.523438 317.148438 323.933594 C 318.140625 322.101562 319.128906 320.269531 320.171875 318.46875 C 322.378906 314.667969 317.0625 310.304688 313.980469 313.683594 C 312.855469 314.914062 311.761719 316.167969 310.648438 317.410156 C 312.074219 315.125 313.519531 312.851562 314.933594 310.558594 C 317.328125 306.660156 311.949219 302.75 308.738281 305.773438 C 307.730469 306.722656 306.792969 307.742188 305.804688 308.710938 C 306.589844 307.378906 307.371094 306.050781 308.15625 304.71875 C 309.964844 301.640625 306.925781 298.355469 304.023438 298.828125 C 304.414062 298.046875 304.824219 297.269531 305.207031 296.480469 C 305.421875 296.046875 305.535156 295.605469 305.585938 295.167969 C 312.394531 303.667969 320.222656 311.429688 327.652344 319.269531 C 330.972656 322.769531 334.355469 326.203125 337.761719 329.617188 C 337.285156 329.800781 336.828125 330.050781 336.4375 330.4375 C 335.574219 331.300781 334.5625 331.976562 333.410156 332.402344 Z M 349.15625 340.921875 C 350.816406 342.566406 352.492188 344.25 353.980469 345.875 C 351.859375 346.085938 349.734375 346.289062 347.609375 346.433594 C 348.105469 344.589844 348.613281 342.75 349.15625 340.921875 Z M 339.578125 218.007812 C 328.453125 203.683594 317.582031 189.164062 306.117188 175.109375 C 305.285156 174.085938 304.289062 173.71875 303.332031 173.789062 C 303.253906 171.425781 303.160156 169.066406 303.113281 166.703125 C 302.984375 160.125 302.878906 153.542969 302.757812 146.960938 C 319.875 170.582031 338.25 193.359375 357.976562 214.847656 C 358.582031 215.507812 359.269531 215.863281 359.964844 216 C 359.792969 225.152344 359.523438 234.304688 359.445312 243.453125 C 352.851562 234.949219 346.179688 226.503906 339.578125 218.007812 Z M 332.636719 107.730469 C 321.027344 94.726562 307.40625 82.886719 298.972656 67.449219 C 298.859375 65.023438 298.746094 62.59375 298.640625 60.164062 C 315.679688 85.605469 341.261719 104.445312 358.753906 129.675781 C 358.5625 133.203125 358.417969 136.734375 358.3125 140.265625 C 350.484375 128.871094 341.84375 118.039062 332.636719 107.730469 Z M 358.125 100.300781 C 358.859375 101.195312 359.628906 102.140625 360.183594 102.902344 C 360.269531 103.023438 360.378906 103.226562 360.5 103.421875 C 360.4375 103.898438 360.484375 104.671875 360.460938 104.980469 C 360.171875 109.136719 359.835938 113.289062 359.53125 117.441406 C 351.226562 106.800781 341.804688 97.050781 332.355469 87.398438 C 319.671875 74.441406 307.15625 61.171875 298.75 44.929688 C 298.503906 44.457031 298.203125 44.097656 297.875 43.800781 C 297.679688 40.078125 297.457031 36.355469 297.191406 32.636719 C 311.554688 47.648438 325.367188 63.234375 339.242188 78.679688 C 345.632812 85.792969 352.070312 92.894531 358.125 100.300781 Z M 50.535156 23.101562 C 65.886719 22.089844 81.304688 22.609375 96.675781 22.394531 C 112.761719 22.171875 128.757812 23.230469 144.828125 23.398438 C 160.550781 23.5625 176.222656 22.113281 191.933594 21.898438 C 220.375 21.507812 248.863281 20.691406 277.246094 23.09375 C 280.769531 23.390625 284.347656 23.671875 287.703125 24.265625 C 287.964844 24.3125 288.226562 24.363281 288.492188 24.417969 C 290.160156 32.320312 289.902344 42.542969 290.304688 51.109375 C 290.507812 55.460938 290.734375 59.8125 290.972656 64.160156 C 290.136719 65.273438 289.804688 66.777344 290.574219 68.355469 C 290.789062 68.800781 291.050781 69.207031 291.273438 69.644531 C 291.808594 79.179688 292.371094 88.710938 292.902344 98.246094 C 290.765625 99.300781 289.394531 102.363281 291.457031 104.742188 C 292.101562 105.484375 292.730469 106.242188 293.371094 106.984375 C 293.996094 118.96875 294.515625 130.960938 294.769531 142.964844 C 295.109375 158.992188 295.175781 175.03125 296.070312 191.042969 C 296.898438 205.882812 297.78125 220.648438 297.777344 235.519531 C 297.777344 242.234375 297.757812 248.964844 297.609375 255.6875 C 295.285156 256.332031 293.523438 258.734375 295.300781 261.222656 C 295.96875 262.15625 296.660156 263.074219 297.335938 264.007812 C 297.238281 266.207031 297.140625 268.410156 296.992188 270.605469 C 296.929688 271.539062 296.839844 272.46875 296.75 273.402344 C 296.4375 273.550781 296.140625 273.726562 295.871094 273.9375 C 294.769531 274.011719 293.671875 274.085938 292.570312 274.128906 C 280.667969 274.558594 268.734375 274.40625 256.824219 274.460938 C 242.1875 274.523438 227.582031 275.34375 212.953125 275.628906 C 203.167969 275.816406 193.375 275.699219 183.585938 275.53125 C 182.515625 273.691406 180.132812 272.527344 178.183594 273.960938 C 177.527344 274.441406 176.878906 274.925781 176.222656 275.410156 C 172.867188 275.351562 169.507812 275.289062 166.152344 275.246094 C 149.921875 275.019531 133.691406 275.035156 117.464844 274.953125 C 102.136719 274.875 86.984375 273.863281 71.703125 272.839844 C 57.09375 271.863281 42.421875 272.128906 27.785156 272.199219 C 23.019531 272.222656 18.257812 272.230469 13.492188 272.222656 C 12.246094 257.21875 10.6875 242.238281 9.929688 227.199219 C 9.101562 210.769531 9.234375 194.308594 9.003906 177.863281 C 8.777344 161.417969 8.203125 144.976562 8.324219 128.527344 C 8.445312 112.074219 9.484375 95.652344 10.289062 79.226562 C 11.132812 62.019531 11.457031 44.785156 12.582031 27.589844 C 25.238281 26.101562 37.804688 23.941406 50.535156 23.101562 Z M 57.527344 313.246094 C 61.910156 312.777344 66.121094 311.78125 70.101562 310.296875 C 68.109375 313.035156 66.136719 315.789062 64.121094 318.511719 C 64.023438 318.644531 63.957031 318.773438 63.878906 318.90625 C 62.222656 317.433594 60.558594 315.972656 58.90625 314.492188 C 58.441406 314.082031 57.988281 313.660156 57.527344 313.246094 Z M 81.828125 334.304688 C 83.039062 334.503906 84.328125 334.25 85.265625 333.375 C 87.597656 331.203125 89.878906 328.976562 92.132812 326.726562 C 90.398438 330.5625 88.746094 334.4375 87.214844 338.367188 C 85.359375 337.101562 83.574219 335.722656 81.828125 334.304688 Z M 100.683594 341.261719 C 100.691406 341.253906 100.699219 341.25 100.703125 341.242188 C 104.121094 337.460938 107.734375 333.875 111.378906 330.316406 C 110.988281 330.875 110.574219 331.417969 110.1875 331.980469 C 108.210938 334.824219 111.410156 338.289062 114.234375 337.980469 C 113.398438 339.164062 112.535156 340.328125 111.71875 341.523438 C 108.039062 341.449219 104.363281 341.363281 100.683594 341.261719 Z M 132.628906 341.953125 C 135.46875 338.984375 138.292969 336 141.105469 333.003906 C 140.511719 333.867188 139.917969 334.734375 139.328125 335.601562 C 136.761719 339.355469 142.414062 343.5 145.523438 340.382812 C 148.054688 337.84375 150.570312 335.289062 153.058594 332.714844 C 152.84375 333.085938 152.609375 333.441406 152.402344 333.816406 C 150.328125 337.570312 155.683594 342.222656 158.597656 338.601562 C 165.035156 330.601562 171.375 322.519531 177.710938 314.441406 C 178.898438 313.210938 180.089844 311.984375 181.28125 310.757812 C 183.808594 308.160156 186.390625 305.609375 189.035156 303.128906 C 186.273438 306.753906 183.480469 310.359375 180.691406 313.960938 C 176.363281 319.554688 172.265625 325.332031 167.972656 330.953125 C 164.414062 335.125 160.882812 339.328125 157.375 343.554688 C 152.167969 343.109375 146.960938 342.652344 141.742188 342.335938 C 138.707031 342.152344 135.667969 342.042969 132.628906 341.953125 Z M 167.296875 344.335938 C 169.519531 341.722656 171.652344 339.042969 173.734375 336.320312 C 176.269531 333.347656 178.832031 330.398438 181.417969 327.46875 C 178.464844 332.089844 175.660156 336.808594 172.929688 341.550781 C 172.273438 342.6875 172.1875 343.75 172.46875 344.640625 C 171.300781 344.578125 170.128906 344.53125 168.960938 344.457031 C 168.40625 344.421875 167.851562 344.375 167.296875 344.335938 Z M 188.976562 345.285156 C 198.292969 335.71875 206.742188 325.121094 214.402344 314 C 214.550781 313.832031 214.6875 313.652344 214.835938 313.488281 C 218.492188 309.386719 222.234375 305.367188 225.964844 301.335938 C 225.125 302.875 224.261719 304.398438 223.363281 305.902344 C 222.476562 307.011719 221.601562 308.128906 220.703125 309.226562 C 212.445312 319.339844 203.792969 329.121094 195.507812 339.210938 C 193.554688 341.585938 194.734375 344.535156 196.785156 345.597656 C 194.183594 345.472656 191.578125 345.371094 188.976562 345.285156 Z M 255.015625 345.347656 C 258.636719 341.144531 262.253906 336.933594 265.792969 332.660156 C 264.492188 334.554688 263.214844 336.460938 261.960938 338.390625 C 260.179688 341.132812 262.6875 344.164062 265.359375 344.320312 C 265.308594 344.390625 265.253906 344.457031 265.203125 344.53125 C 265.125 344.644531 265.078125 344.757812 265.015625 344.875 C 262.488281 344.929688 259.960938 345.023438 257.425781 345.179688 C 256.621094 345.230469 255.820312 345.292969 255.015625 345.347656 Z M 297.035156 344.875 C 296.804688 345.324219 296.675781 345.78125 296.644531 346.234375 C 296.394531 346.214844 296.148438 346.195312 295.902344 346.175781 C 296.277344 345.742188 296.65625 345.308594 297.035156 344.875 Z M 313.011719 347.253906 C 310.535156 347.179688 308.058594 347.050781 305.585938 346.894531 C 306.980469 345.304688 308.378906 343.722656 309.824219 342.1875 C 309.121094 345.679688 313.515625 348.945312 316.394531 345.882812 C 318.15625 344.007812 319.933594 342.144531 321.707031 340.285156 C 321.492188 340.746094 321.253906 341.207031 320.980469 341.660156 C 319.328125 344.371094 321.226562 346.820312 323.585938 347.332031 C 320.058594 347.363281 316.53125 347.355469 313.011719 347.253906 Z M 325.378906 347.320312 C 326.273438 347.113281 327.132812 346.59375 327.789062 345.644531 C 328.917969 344.011719 329.835938 342.261719 330.773438 340.523438 C 331.257812 340.605469 331.757812 340.65625 332.273438 340.636719 C 333.792969 340.578125 335.3125 340.179688 336.753906 339.566406 C 336.960938 340.394531 337.167969 341.226562 337.378906 342.054688 C 337.609375 342.945312 338.164062 343.625 338.863281 344.113281 C 338.765625 345.046875 338.671875 345.984375 338.582031 346.921875 C 334.191406 347.113281 329.785156 347.257812 325.378906 347.320312 Z M 356.28125 348.535156 C 356.402344 348.699219 356.511719 348.902344 356.632812 349.089844 C 356.121094 349.242188 356.078125 348.984375 356.28125 348.535156 Z M 356.65625 349.128906 C 356.707031 349.203125 356.75 349.289062 356.804688 349.34375 C 357.285156 349.796875 356.386719 349.347656 356.65625 349.128906 Z M 356.65625 349.128906 " fill-opacity="1" fill-rule="nonzero"/></g><g clip-path="url(#id2)"><path fill="rgb(21.179199%, 27.059937%, 30.979919%)" d="M 64.582031 121.09375 C 66.660156 119.558594 68.230469 117.488281 70.148438 115.785156 C 70.570312 115.410156 70.5 115.109375 70.082031 114.785156 C 68.84375 113.804688 67.628906 112.796875 66.386719 111.828125 C 60.679688 107.386719 55.203125 102.667969 49.769531 97.902344 C 48.734375 97 47.898438 95.933594 47.011719 94.898438 C 45.511719 93.15625 43.613281 91.886719 41.738281 90.601562 C 41.167969 90.210938 40.617188 89.878906 40.503906 89.023438 C 40.421875 88.402344 39.78125 87.933594 39.292969 87.484375 C 38.832031 87.058594 38.433594 86.582031 38.09375 86.0625 C 37.632812 85.351562 37.734375 85.09375 38.484375 84.703125 C 38.792969 84.546875 39.105469 84.488281 39.441406 84.480469 C 39.691406 84.476562 39.9375 84.476562 40.101562 84.226562 C 40.546875 83.546875 41.160156 83.710938 41.769531 83.914062 C 42.765625 84.246094 43.660156 84.78125 44.492188 85.402344 C 45.652344 86.273438 46.804688 87.167969 47.925781 88.089844 C 52.636719 91.972656 57.347656 95.863281 62.042969 99.769531 C 65.9375 103.011719 69.707031 106.398438 73.476562 109.785156 C 73.722656 110.007812 73.960938 110.242188 74.210938 110.460938 C 74.875 111.035156 74.894531 111.050781 75.507812 110.425781 C 77.484375 108.410156 79.507812 106.445312 81.53125 104.472656 C 89.289062 96.902344 96.96875 89.238281 105.359375 82.359375 C 107.492188 80.609375 109.816406 79.054688 112.054688 77.417969 C 112.125 77.371094 112.191406 77.292969 112.261719 77.285156 C 112.539062 77.25 112.957031 76.945312 112.890625 77.621094 C 112.863281 77.910156 113.117188 77.792969 113.242188 77.734375 C 113.917969 77.417969 114.578125 77.382812 115.28125 77.695312 C 115.746094 77.902344 116.195312 77.277344 116.703125 77.570312 C 116.707031 77.65625 116.75 77.78125 116.710938 77.808594 C 115.644531 78.664062 115.070312 79.960938 113.992188 80.808594 C 113.011719 81.578125 112.082031 82.40625 111.109375 83.1875 C 109.390625 84.574219 107.753906 86.035156 106.441406 87.832031 C 105.824219 88.667969 105.070312 89.390625 104.296875 90.085938 C 103.371094 90.921875 102.472656 91.785156 101.519531 92.589844 C 96.40625 96.910156 91.679688 101.632812 87.03125 106.4375 C 84.632812 108.917969 82.164062 111.328125 79.738281 113.777344 C 78.964844 114.554688 78.949219 114.605469 79.8125 115.300781 C 83.105469 117.964844 86.421875 120.601562 89.726562 123.25 C 96.757812 128.894531 103.785156 134.539062 110.808594 140.1875 C 111.457031 140.707031 112.082031 141.257812 112.703125 141.808594 C 112.9375 142.015625 113.230469 142.207031 113.269531 142.589844 C 111.816406 142.675781 110.988281 141.519531 109.824219 141.050781 C 110.785156 142.164062 112.015625 142.964844 113.09375 143.9375 C 113.710938 144.492188 114.339844 145.035156 114.992188 145.546875 C 115.464844 145.914062 115.40625 146.320312 115.160156 146.742188 C 114.910156 147.179688 114.503906 147.496094 114.074219 147.742188 C 113.625 148.003906 113.238281 147.8125 112.839844 147.5 C 111.472656 146.417969 110.09375 145.351562 108.6875 144.320312 C 97.757812 136.324219 87.066406 128.015625 76.363281 119.71875 C 74.792969 118.5 75.125 118.402344 73.738281 119.914062 C 68.003906 126.160156 62.300781 132.429688 56.992188 139.046875 C 56.570312 139.574219 56.203125 140.191406 55.496094 140.429688 C 55.089844 139.789062 55.808594 139.464844 55.714844 138.867188 C 55.371094 138.910156 55.179688 139.164062 54.976562 139.382812 C 53.480469 140.996094 51.839844 142.464844 50.191406 143.914062 C 49.507812 144.515625 48.316406 144.429688 47.886719 143.640625 C 47.625 143.160156 47.4375 143.023438 46.957031 143.234375 C 46.769531 143.320312 46.539062 143.316406 46.421875 143.089844 C 46.332031 142.921875 46.429688 142.75 46.550781 142.644531 C 46.945312 142.300781 46.964844 142.039062 46.539062 141.667969 C 46.191406 141.363281 46.585938 140.890625 46.480469 140.507812 C 46.136719 140.382812 46.054688 140.714844 45.851562 140.820312 C 45.65625 140.917969 45.449219 140.988281 45.304688 140.765625 C 45.171875 140.558594 45.253906 140.371094 45.4375 140.226562 C 45.863281 139.898438 46.332031 139.652344 46.734375 139.273438 C 50.117188 136.074219 53.234375 132.613281 56.464844 129.269531 C 58.601562 127.054688 60.71875 124.828125 62.851562 122.613281 C 63.050781 122.40625 63.296875 122.242188 63.519531 122.058594 C 63.546875 122.238281 63.570312 122.421875 63.59375 122.605469 C 63.519531 122.636719 63.421875 122.644531 63.371094 122.695312 C 58.464844 127.816406 53.558594 132.9375 48.660156 138.0625 C 47.925781 138.828125 47.941406 138.839844 48.523438 139.90625 C 49.238281 139.402344 49.792969 138.757812 50.332031 138.144531 C 50.140625 137.777344 49.910156 138.195312 49.753906 137.96875 C 49.980469 137.566406 50.359375 137.304688 50.6875 136.996094 C 53.992188 133.914062 57.019531 130.558594 60.136719 127.292969 C 61.335938 126.039062 62.503906 124.75 63.683594 123.476562 C 63.878906 123.265625 64.121094 123.074219 64.257812 122.828125 C 64.453125 122.472656 64.132812 122.441406 63.894531 122.390625 C 64.164062 121.980469 64.734375 121.730469 64.582031 121.09375 Z M 110.867188 79.34375 C 108.929688 80.253906 107.390625 81.566406 107.246094 82.359375 C 108.578125 81.449219 109.777344 80.460938 110.867188 79.34375 Z M 111.632812 78.835938 C 111.792969 78.714844 111.925781 78.628906 112.03125 78.519531 C 112.070312 78.484375 112.046875 78.316406 112.039062 78.316406 C 111.851562 78.289062 111.75 78.429688 111.648438 78.550781 C 111.613281 78.59375 111.636719 78.691406 111.632812 78.835938 Z M 208.269531 90.601562 C 208.9375 90.523438 209.175781 89.921875 209.53125 89.5 C 211.5625 87.085938 213.550781 84.636719 215.570312 82.210938 C 215.941406 81.765625 216.203125 81.128906 217.039062 81.347656 C 217.351562 81.429688 217.554688 80.980469 217.769531 80.738281 C 218.820312 79.5625 219.859375 78.375 220.910156 77.195312 C 221.070312 77.015625 221.257812 76.863281 221.425781 76.707031 C 221.804688 77.046875 221.476562 77.203125 221.34375 77.34375 C 220.214844 78.558594 219.0625 79.753906 217.929688 80.96875 C 217.59375 81.328125 217.175781 81.636719 217.054688 82.15625 C 217.902344 82.757812 217.910156 82.765625 218.507812 82.082031 C 219.25 81.238281 219.921875 80.339844 220.476562 79.359375 C 220.601562 79.140625 220.707031 78.914062 220.847656 78.710938 C 221.023438 78.460938 221.257812 78.273438 221.585938 78.386719 C 221.917969 78.5 221.964844 78.792969 221.953125 79.101562 C 221.929688 79.570312 221.738281 79.988281 221.554688 80.40625 C 220.917969 81.828125 219.972656 83.046875 218.914062 84.164062 C 216.511719 86.695312 214.1875 89.289062 211.886719 91.910156 C 210.679688 93.285156 209.484375 94.660156 208.476562 96.1875 C 207.398438 97.820312 206.167969 99.335938 204.960938 100.871094 C 201.679688 105.054688 198.398438 109.238281 195.121094 113.429688 C 194.332031 114.441406 194.324219 114.46875 195.308594 115.320312 C 201.082031 120.316406 206.867188 125.308594 212.652344 130.292969 C 217.589844 134.550781 222.539062 138.800781 227.480469 143.058594 C 228.015625 143.519531 228.523438 144.007812 229.03125 144.5 C 229.175781 144.636719 229.40625 144.859375 229.371094 144.984375 C 229.1875 145.710938 228.613281 146.125 228.039062 146.539062 C 227.546875 146.894531 227.230469 146.667969 226.847656 146.34375 C 219.957031 140.476562 212.785156 134.945312 206.003906 128.945312 C 202.496094 125.839844 198.910156 122.820312 195.292969 119.839844 C 194.359375 119.066406 193.441406 118.210938 192.34375 117.621094 C 192.160156 117.960938 192.464844 118.066406 192.46875 118.265625 C 191.535156 118.039062 191.527344 118.03125 190.890625 118.859375 C 187.050781 123.871094 183.238281 128.910156 179.363281 133.890625 C 176.09375 138.09375 172.648438 142.140625 168.816406 145.847656 C 167.886719 146.746094 166.9375 147.644531 165.660156 147.988281 C 164.785156 148.222656 163.84375 148.695312 163 147.828125 C 162.753906 147.578125 162.460938 147.796875 162.183594 147.859375 C 161.382812 148.046875 161.085938 147.726562 161.359375 146.957031 C 161.578125 146.324219 161.96875 145.777344 162.339844 145.226562 C 163.578125 143.398438 164.953125 141.679688 166.359375 139.984375 C 167.953125 138.0625 169.398438 136.042969 170.765625 133.953125 C 173.742188 129.386719 177.113281 125.113281 180.457031 120.820312 C 182.09375 118.71875 183.777344 116.660156 185.425781 114.578125 C 186.074219 113.761719 186.078125 113.726562 185.292969 113.101562 C 177.03125 106.515625 169.511719 99.097656 161.703125 92.003906 C 160.785156 91.167969 159.933594 90.253906 159.066406 89.355469 C 158.78125 89.058594 158.527344 88.722656 158.300781 88.375 C 158.148438 88.144531 157.910156 87.84375 158.121094 87.582031 C 158.371094 87.269531 158.777344 87.242188 159.140625 87.386719 C 159.359375 87.476562 159.546875 87.667969 159.734375 87.824219 C 162.3125 89.96875 164.886719 92.121094 167.46875 94.261719 C 167.742188 94.488281 168.058594 94.660156 168.421875 94.78125 C 167.574219 93.730469 166.519531 92.902344 165.496094 92.050781 C 164.003906 90.808594 162.523438 89.558594 161.1875 88.140625 C 160.882812 87.816406 160.386719 87.476562 160.707031 86.996094 C 161.046875 86.488281 161.609375 86.746094 162.078125 86.894531 C 162.886719 87.148438 163.539062 87.679688 164.203125 88.171875 C 169.019531 91.722656 173.710938 95.425781 178.195312 99.398438 C 181.613281 102.429688 184.953125 105.542969 188.285156 108.671875 C 189.402344 109.722656 189.433594 109.726562 190.371094 108.578125 C 194.3125 103.746094 198.480469 99.113281 202.65625 94.488281 C 205.082031 91.808594 207.621094 89.234375 210.183594 86.6875 C 210.5 86.375 210.777344 85.988281 211.34375 85.820312 C 211.320312 86.265625 211.050781 86.53125 210.863281 86.816406 C 210.015625 88.09375 209.152344 89.355469 208.292969 90.625 C 208.03125 90.804688 207.671875 90.925781 207.816406 91.386719 C 208.152344 91.210938 208.296875 90.957031 208.269531 90.601562 Z M 180.222656 105.933594 C 180.367188 106.914062 180.648438 107.242188 181.945312 107.894531 C 181.535156 107.046875 180.519531 106.808594 180.222656 105.945312 C 179.914062 105.894531 179.71875 105.667969 179.507812 105.472656 C 177.703125 103.828125 175.898438 102.183594 174.097656 100.53125 C 173.695312 100.164062 173.296875 99.792969 172.726562 99.691406 C 174.886719 101.8125 177.113281 103.839844 179.335938 105.875 C 179.628906 106.140625 179.910156 106.164062 180.222656 105.933594 Z M 200.359375 100.285156 C 200.285156 100.238281 200.214844 100.195312 200.140625 100.148438 C 197.1875 103.394531 194.421875 106.800781 191.601562 110.160156 C 191.390625 110.414062 190.84375 110.695312 191.277344 111.035156 C 191.664062 111.335938 191.90625 110.773438 192.113281 110.519531 C 193.789062 108.464844 195.4375 106.390625 197.097656 104.324219 C 198.179688 102.976562 199.269531 101.632812 200.359375 100.285156 Z M 205.523438 93.917969 C 205.15625 94.117188 204.851562 94.386719 204.648438 95.070312 C 205.175781 94.65625 205.386719 94.328125 205.523438 93.917969 Z M 206.359375 93.148438 C 206.480469 93.058594 206.625 92.941406 206.597656 92.722656 C 206.597656 92.71875 206.4375 92.703125 206.40625 92.738281 C 206.304688 92.851562 206.207031 92.976562 206.160156 93.113281 C 206.132812 93.183594 206.242188 93.222656 206.359375 93.148438 Z M 203.519531 96.167969 C 203.523438 96.292969 203.589844 96.359375 203.660156 96.3125 C 203.746094 96.25 203.8125 96.144531 203.851562 96.046875 C 203.886719 95.96875 203.800781 95.898438 203.722656 95.945312 C 203.636719 96 203.574219 96.105469 203.519531 96.167969 Z M 171.371094 98.332031 C 171.273438 98.308594 171.207031 98.351562 171.234375 98.445312 C 171.253906 98.511719 171.335938 98.558594 171.394531 98.605469 C 171.476562 98.664062 171.574219 98.65625 171.585938 98.574219 C 171.605469 98.433594 171.480469 98.382812 171.371094 98.332031 Z M 201.09375 99.261719 C 201.144531 99.21875 201.203125 99.179688 201.25 99.128906 C 201.273438 99.105469 201.289062 99.042969 201.273438 99.023438 C 201.214844 98.945312 201.148438 98.960938 201.113281 99.0625 C 201.09375 99.125 201.097656 99.195312 201.09375 99.261719 Z M 201.09375 99.261719 " fill-opacity="1" fill-rule="nonzero"/></g></svg>