<svg xmlns="http://www.w3.org/2000/svg" xmlns:xlink="http://www.w3.org/1999/xlink" width="500" zoomAndPan="magnify" viewBox="0 0 375 225" height="300" preserveAspectRatio="xMidYMid meet" version="1.0"><path fill="rgb(89.7995%, 89.7995%, 89.7995%)" d="M 48.816406 169.742188 C 81.75 174.972656 115.886719 188.492188 141.429688 210.882812 C 161.699219 196.332031 175.285156 169.699219 175.285156 139.242188 C 175.285156 93.195312 144.257812 55.863281 105.984375 55.863281 C 67.714844 55.863281 36.691406 93.195312 36.691406 139.242188 C 36.691406 149.796875 38.335938 159.886719 41.3125 169.179688 C 43.789062 169.171875 46.300781 169.339844 48.816406 169.742188 " fill-opacity="1" fill-rule="nonzero"/><path fill="rgb(21.179199%, 27.059937%, 30.979919%)" d="M 44.671875 169.289062 C 41.566406 160 39.839844 149.863281 39.839844 139.242188 C 39.839844 95.003906 69.515625 59.015625 105.984375 59.015625 C 142.460938 59.015625 172.132812 95.003906 172.132812 139.242188 C 172.132812 168.925781 158.757812 194.878906 138.941406 208.753906 C 140.597656 210.132812 142.226562 211.542969 143.816406 213.003906 C 164.5625 197.765625 178.433594 170.40625 178.433594 139.242188 C 178.433594 91.527344 145.933594 52.707031 105.984375 52.707031 C 66.039062 52.707031 33.535156 91.527344 33.535156 139.242188 C 33.535156 149.8125 35.140625 159.941406 38.058594 169.316406 C 40.230469 169.144531 42.441406 169.136719 44.671875 169.289062 " fill-opacity="1" fill-rule="nonzero"/><path fill="rgb(21.179199%, 27.059937%, 30.979919%)" d="M 129.863281 139.242188 C 129.863281 155.105469 119.175781 167.964844 105.984375 167.964844 C 92.800781 167.964844 82.109375 155.105469 82.109375 139.242188 C 82.109375 123.375 92.800781 110.511719 105.984375 110.511719 C 119.175781 110.511719 129.863281 123.375 129.863281 139.242188 " fill-opacity="1" fill-rule="nonzero"/><path fill="rgb(89.7995%, 89.7995%, 89.7995%)" d="M 101.472656 129.835938 C 99.113281 135.347656 93.484375 138.226562 88.902344 136.257812 C 84.320312 134.289062 82.519531 128.230469 84.878906 122.714844 C 87.242188 117.207031 92.867188 114.332031 97.453125 116.296875 C 102.03125 118.257812 103.832031 124.320312 101.472656 129.835938 " fill-opacity="1" fill-rule="nonzero"/><path fill="rgb(89.7995%, 89.7995%, 89.7995%)" d="M 236.253906 208.285156 C 240.070312 204.6875 244.757812 201.769531 249.957031 199.695312 C 249.195312 200 248.671875 200.171875 248.273438 200.285156 L 248.105469 200.429688 L 248.269531 200.289062 C 244.933594 201.210938 253.019531 196.238281 248.269531 200.289062 L 248.273438 200.285156 C 249.734375 199.054688 251.195312 197.824219 252.648438 196.585938 C 256.945312 193.0625 261.367188 188.738281 266.355469 186.15625 C 277.5625 180.347656 288.125 178.082031 300.210938 176.523438 C 308.195312 174.53125 316.164062 173.066406 324.140625 172.128906 C 325.957031 171.804688 327.777344 171.484375 329.617188 171.226562 C 332.949219 170.75 336.183594 170.410156 339.371094 170.207031 C 342.558594 160.628906 344.335938 150.1875 344.335938 139.242188 C 344.335938 93.195312 313.308594 55.863281 275.039062 55.863281 C 236.765625 55.863281 205.742188 93.195312 205.742188 139.242188 C 205.742188 167.988281 217.855469 193.296875 236.253906 208.285156 " fill-opacity="1" fill-rule="nonzero"/><path fill="rgb(21.179199%, 27.059937%, 30.979919%)" d="M 234.070312 210.53125 C 235.464844 208.96875 237.007812 207.507812 238.691406 206.171875 C 220.765625 191.804688 208.890625 167.1875 208.890625 139.242188 C 208.890625 95.003906 238.566406 59.015625 275.039062 59.015625 C 311.507812 59.015625 341.183594 95.003906 341.183594 139.242188 C 341.183594 150.324219 339.300781 160.882812 335.933594 170.5 C 338.210938 170.28125 340.464844 170.140625 342.699219 170.0625 C 345.769531 160.480469 347.488281 150.097656 347.488281 139.242188 C 347.488281 91.527344 314.988281 52.707031 275.039062 52.707031 C 235.089844 52.707031 202.589844 91.527344 202.589844 139.242188 C 202.589844 168.800781 215.082031 194.914062 234.070312 210.53125 " fill-opacity="1" fill-rule="nonzero"/><path fill="rgb(21.179199%, 27.059937%, 30.979919%)" d="M 298.914062 139.242188 C 298.914062 155.105469 288.222656 167.964844 275.039062 167.964844 C 261.855469 167.964844 251.160156 155.105469 251.160156 139.242188 C 251.160156 123.375 261.855469 110.511719 275.039062 110.511719 C 288.222656 110.511719 298.914062 123.375 298.914062 139.242188 " fill-opacity="1" fill-rule="nonzero"/><path fill="rgb(89.7995%, 89.7995%, 89.7995%)" d="M 270.523438 129.835938 C 268.164062 135.347656 262.535156 138.226562 257.953125 136.257812 C 253.371094 134.289062 251.570312 128.230469 253.929688 122.714844 C 256.289062 117.207031 261.917969 114.332031 266.503906 116.296875 C 271.082031 118.257812 272.882812 124.320312 270.523438 129.835938 " fill-opacity="1" fill-rule="nonzero"/><path fill="rgb(21.179199%, 27.059937%, 30.979919%)" d="M 0.628906 168.871094 C 14.511719 165.292969 28.976562 164.472656 43.347656 165.046875 C 57.726562 165.734375 72.121094 168.175781 85.976562 172.648438 C 99.8125 177.109375 113.113281 183.6875 124.746094 192.523438 C 136.339844 201.359375 146.273438 212.445312 152.820312 225.1875 C 142.722656 215.078125 131.910156 206.367188 120.109375 199.367188 C 108.351562 192.316406 95.765625 186.886719 82.742188 182.652344 C 69.707031 178.4375 56.226562 175.417969 42.515625 173.25 C 28.785156 171.058594 14.867188 169.667969 0.628906 168.871094 " fill-opacity="1" fill-rule="nonzero"/><path fill="rgb(21.179199%, 27.059937%, 30.979919%)" d="M 374.371094 168.871094 C 360.136719 169.667969 346.214844 171.058594 332.488281 173.25 C 318.777344 175.417969 305.292969 178.4375 292.257812 182.652344 C 279.230469 186.886719 266.648438 192.316406 254.894531 199.367188 C 243.089844 206.367188 232.28125 215.078125 222.179688 225.1875 C 228.730469 212.445312 238.664062 201.359375 250.257812 192.523438 C 261.886719 183.6875 275.191406 177.109375 289.027344 172.648438 C 302.878906 168.175781 317.277344 165.734375 331.65625 165.046875 C 346.023438 164.472656 360.492188 165.292969 374.371094 168.871094 " fill-opacity="1" fill-rule="nonzero"/><path fill="rgb(21.179199%, 27.059937%, 30.979919%)" d="M 20.304688 168.484375 C 20.140625 164.324219 20.355469 160.570312 20.667969 156.683594 C 20.996094 152.835938 21.492188 149.027344 22.128906 145.25 C 23.398438 137.707031 25.238281 130.308594 27.585938 123.125 C 26.476562 130.597656 25.917969 138.109375 25.925781 145.570312 C 25.933594 149.300781 26.078125 153.015625 26.386719 156.699219 C 26.699219 160.339844 27.148438 164.128906 27.863281 167.449219 L 20.304688 168.484375 " fill-opacity="1" fill-rule="nonzero"/><path fill="rgb(21.179199%, 27.059937%, 30.979919%)" d="M 350.847656 167.449219 C 351.5625 164.128906 352.019531 160.339844 352.328125 156.699219 C 352.632812 153.015625 352.78125 149.300781 352.785156 145.570312 C 352.796875 138.109375 352.238281 130.597656 351.128906 123.125 C 353.476562 130.308594 355.316406 137.707031 356.585938 145.25 C 357.21875 149.027344 357.71875 152.835938 358.046875 156.683594 C 358.359375 160.570312 358.574219 164.324219 358.40625 168.484375 L 350.847656 167.449219 " fill-opacity="1" fill-rule="nonzero"/><path fill="rgb(21.179199%, 27.059937%, 30.979919%)" d="M 65.136719 47.03125 C 66.566406 42.824219 68.964844 39.078125 71.691406 35.605469 C 74.453125 32.15625 77.707031 29.058594 81.339844 26.367188 C 88.59375 21.019531 97.601562 17.421875 107.042969 16.734375 C 116.472656 15.984375 126.015625 18.265625 133.933594 22.636719 C 141.863281 27.039062 148.4375 33.195312 152.871094 40.800781 C 144.570312 37.914062 137.109375 34.996094 129.691406 33.242188 C 122.316406 31.425781 115.175781 30.703125 108.113281 31.21875 C 101.058594 31.730469 94.027344 33.5 86.925781 36.289062 C 79.796875 39.054688 72.730469 42.726562 65.136719 47.03125 " fill-opacity="1" fill-rule="nonzero"/><path fill="rgb(21.179199%, 27.059937%, 30.979919%)" d="M 231.195312 42.832031 C 236.179688 35.960938 243.246094 30.847656 251.085938 27.28125 C 258.957031 23.769531 267.945312 22.023438 276.917969 22.882812 C 285.882812 23.6875 294.582031 27.226562 301.488281 32.585938 C 308.40625 37.953125 313.710938 44.894531 316.863281 52.707031 C 309.839844 48.066406 303.3125 43.742188 296.515625 40.632812 C 289.757812 37.472656 282.867188 35.523438 275.785156 34.847656 C 268.703125 34.164062 261.417969 34.75 254.003906 36.242188 C 246.570312 37.730469 239.082031 40.015625 231.195312 42.832031 " fill-opacity="1" fill-rule="nonzero"/></svg>