<svg xmlns="http://www.w3.org/2000/svg" xmlns:xlink="http://www.w3.org/1999/xlink" width="500" zoomAndPan="magnify" viewBox="0 0 375 374.999991" height="500" preserveAspectRatio="xMidYMid meet" version="1.0"><defs><clipPath id="id1"><path d="M 92.386719 0 L 282.886719 0 L 282.886719 375 L 92.386719 375 Z M 92.386719 0 " clip-rule="nonzero"/></clipPath></defs><g clip-path="url(#id1)"><path fill="rgb(75.689697%, 15.289307%, 17.649841%)" d="M 92.898438 282.367188 C 93.027344 280.230469 92.402344 277.703125 92.402344 275.128906 C 92.40625 267.492188 93.046875 259.917969 94.082031 252.347656 C 94.957031 245.9375 96.199219 239.613281 97.949219 233.40625 C 100.617188 223.960938 104.410156 214.933594 108.699219 206.113281 C 109.820312 203.804688 111.019531 201.53125 112.222656 199.265625 C 114.929688 194.179688 116.765625 188.6875 119.441406 183.605469 C 121.519531 179.652344 122.792969 175.449219 124.34375 171.316406 C 126.476562 165.644531 128.988281 160.109375 131.445312 154.5625 C 133.6875 149.511719 135.347656 144.230469 137.660156 139.207031 C 139.089844 136.101562 140.359375 132.921875 141.617188 129.738281 C 146.132812 118.304688 151.511719 107.253906 156.714844 96.128906 C 159.332031 90.539062 160.902344 84.582031 162.90625 78.78125 C 164.53125 74.078125 165.734375 69.210938 167.65625 64.640625 C 169.660156 59.878906 170.699219 54.863281 172.292969 50 C 173.71875 45.636719 175.621094 41.410156 176.820312 37.019531 C 178.65625 30.289062 181.101562 23.699219 182.246094 16.800781 C 182.957031 12.515625 183.203125 8.15625 183.636719 3.828125 C 183.726562 2.925781 183.476562 1.890625 185.011719 2.019531 C 185.292969 2.042969 185.703125 1.429688 185.929688 1.039062 C 186.535156 0 187.371094 0.128906 188.203125 0.578125 C 192.257812 2.757812 192.066406 1.898438 191.46875 6.957031 C 191.179688 9.410156 191.519531 11.628906 192.550781 13.707031 C 193.628906 15.882812 193.875 18.175781 194.050781 20.480469 C 194.34375 24.363281 194.792969 28.21875 195.890625 31.953125 C 196.742188 34.855469 198.027344 37.617188 198.792969 40.558594 C 200.785156 48.226562 203.703125 55.632812 205.285156 63.425781 C 205.902344 66.460938 206.894531 69.425781 207.796875 72.398438 C 208.585938 75.007812 209.292969 77.632812 209.855469 80.296875 C 210.601562 83.820312 212.503906 86.914062 213.644531 90.289062 C 214.972656 94.214844 217.074219 97.867188 217.925781 101.953125 C 218.417969 104.292969 219.578125 106.308594 220.65625 108.363281 C 221.203125 109.40625 221.695312 110.421875 222.007812 111.5625 C 222.457031 113.207031 223.015625 114.808594 224.066406 116.222656 C 224.855469 117.289062 225.3125 118.582031 225.574219 119.871094 C 226.765625 125.703125 229.707031 130.886719 231.675781 136.429688 C 232.351562 138.328125 233.640625 139.960938 234.683594 141.671875 C 236.9375 145.351562 238.363281 149.378906 240.125 153.265625 C 240.253906 153.546875 240.199219 153.953125 240.386719 154.152344 C 242.257812 156.121094 242.804688 158.738281 243.949219 161.066406 C 245.207031 163.617188 246.332031 166.257812 247.851562 168.707031 C 250.546875 173.0625 252.519531 177.8125 254.890625 182.351562 C 255.574219 183.664062 256.15625 185.011719 256.460938 186.480469 C 256.601562 187.148438 256.671875 187.894531 257.199219 188.414062 C 259.101562 190.292969 259.808594 192.804688 260.789062 195.164062 C 263.03125 200.542969 265.296875 205.914062 267.453125 211.324219 C 268.835938 214.789062 270.046875 218.304688 270.910156 221.957031 C 271.597656 224.894531 272.640625 227.769531 273.765625 230.578125 C 275.570312 235.089844 276.285156 239.867188 277.441406 244.539062 C 278.9375 250.578125 280.304688 256.65625 280.988281 262.835938 C 281.738281 269.617188 282.875 276.410156 281.828125 283.285156 C 281.679688 284.253906 281.9375 285.289062 282.039062 286.289062 C 282.308594 288.957031 281.4375 291.53125 281.382812 294.167969 C 281.265625 299.789062 280.1875 305.285156 279.148438 310.777344 C 278.6875 313.210938 277.730469 315.546875 277.203125 317.972656 C 275.703125 324.871094 271.621094 330.386719 267.644531 335.949219 C 264.929688 339.75 261.582031 342.976562 258.28125 346.289062 C 254.914062 349.667969 250.675781 351.957031 247.589844 355.582031 C 246.074219 357.359375 243.734375 357.878906 242.019531 359.355469 C 241.210938 360.050781 240.167969 360.441406 239.660156 361.519531 C 239.453125 361.960938 238.878906 362.265625 238.417969 362.546875 C 232.15625 366.402344 225.667969 369.722656 218.332031 371.066406 C 216.417969 371.417969 214.628906 372.234375 212.6875 372.523438 C 202.753906 374.003906 192.777344 374.96875 182.722656 374.847656 C 180.394531 374.820312 178.074219 374.394531 175.742188 374.289062 C 166.570312 373.886719 157.789062 371.738281 149.152344 368.730469 C 141.515625 366.070312 135.003906 361.621094 128.804688 356.617188 C 125.914062 354.28125 123.144531 351.792969 120.257812 349.453125 C 117.984375 347.613281 116.804688 344.914062 114.863281 342.816406 C 114.445312 342.363281 114.109375 341.878906 113.546875 341.558594 C 111.761719 340.539062 110.71875 338.929688 110.160156 337.007812 C 109.957031 336.3125 109.621094 335.726562 109.199219 335.164062 C 104.722656 329.210938 101.234375 322.695312 98.632812 315.757812 C 97.085938 311.628906 95.902344 307.34375 95.304688 302.933594 C 94.601562 297.777344 93.457031 292.683594 93.082031 287.472656 C 92.96875 285.917969 92.878906 284.367188 92.898438 282.367188 Z M 188.394531 30.058594 C 187.730469 30.515625 187.53125 30.871094 187.570312 31.269531 C 187.71875 32.816406 187.117188 34.15625 186.519531 35.515625 C 186.179688 36.296875 185.890625 37.109375 185.671875 37.929688 C 184.5 42.359375 183.351562 46.796875 182.207031 51.230469 C 181.953125 52.207031 181.476562 53.214844 181.554688 54.171875 C 181.777344 56.894531 181.035156 59.429688 180.285156 61.957031 C 178.621094 67.546875 177.25 73.210938 175.871094 78.875 C 174.34375 85.164062 171.527344 91.011719 169.238281 97.039062 C 167.609375 101.324219 165.832031 105.542969 163.980469 109.734375 C 161.9375 114.355469 160.007812 119.027344 157.871094 123.605469 C 156.589844 126.347656 155.125 128.984375 154.09375 131.855469 C 151.757812 138.363281 149.015625 144.710938 146.242188 151.046875 C 142.875 158.742188 139.367188 166.375 135.679688 173.917969 C 134.449219 176.433594 133.761719 179.179688 132.234375 181.550781 C 131.644531 182.464844 130.960938 183.351562 130.566406 184.347656 C 129.183594 187.8125 127.824219 191.289062 126.613281 194.820312 C 123.941406 202.609375 121.429688 210.453125 118.726562 218.230469 C 116.703125 224.054688 115.214844 230.003906 114.15625 236.0625 C 113.273438 241.113281 112.582031 246.199219 111.757812 251.261719 C 110.746094 257.453125 108.636719 263.476562 108.894531 269.863281 C 108.898438 270.015625 108.863281 270.175781 108.828125 270.324219 C 108.339844 272.445312 107.976562 274.578125 107.832031 276.761719 C 107.527344 281.414062 107.15625 286.0625 107.132812 290.734375 C 107.121094 292.835938 107.84375 294.90625 107.382812 297.003906 C 107.160156 298.035156 107.257812 299 107.558594 299.984375 C 107.832031 300.878906 108.003906 301.78125 108.015625 302.734375 C 108.027344 303.742188 108.296875 304.746094 108.820312 305.621094 C 110.117188 307.796875 110.847656 310.167969 111.246094 312.636719 C 111.964844 317.09375 113.835938 321.191406 116.234375 324.835938 C 119.34375 329.558594 122.550781 334.25 126.105469 338.707031 C 129.824219 343.367188 133.796875 347.605469 138.640625 351.125 C 144.082031 355.082031 150.199219 357.519531 156.460938 359.660156 C 161.773438 361.472656 167.28125 362.539062 172.835938 363.308594 C 176.070312 363.757812 179.304688 364.242188 182.601562 363.917969 C 186.472656 363.535156 190.359375 363.328125 194.226562 362.953125 C 197.554688 362.632812 200.886719 362.316406 204.179688 361.765625 C 212.046875 360.457031 219.523438 357.832031 226.875 354.808594 C 227.882812 354.394531 228.894531 353.960938 229.945312 353.699219 C 234.117188 352.667969 237.566406 350.140625 241.117188 347.992188 C 244.191406 346.128906 246.75 343.398438 249.46875 340.972656 C 252.003906 338.714844 254.65625 336.585938 256.933594 334.042969 C 258.433594 332.371094 260.402344 331.003906 261.523438 329.121094 C 263.265625 326.199219 264.566406 323 265.863281 319.839844 C 268.171875 314.203125 269.007812 308.144531 270.675781 302.316406 C 271.835938 298.265625 271.847656 294.039062 272.175781 289.847656 C 272.792969 281.988281 272.460938 274.167969 272.042969 266.332031 C 271.996094 265.492188 271.808594 264.621094 271.496094 263.835938 C 270.109375 260.347656 269.621094 256.632812 268.738281 253.015625 C 267.808594 249.21875 268.210938 245.082031 265.808594 241.660156 C 265.722656 241.539062 265.660156 241.375 265.648438 241.226562 C 265.386719 238.011719 263.949219 235.109375 263.207031 232.015625 C 262.101562 227.40625 260.707031 222.875 259.113281 218.40625 C 258.125 215.621094 257.054688 212.863281 256.101562 210.070312 C 255.027344 206.902344 253.511719 203.902344 251.875 201.054688 C 249.742188 197.339844 247.800781 193.546875 245.921875 189.710938 C 243.148438 184.058594 240.476562 178.355469 237.699219 172.703125 C 235.207031 167.628906 232.832031 162.5 229.980469 157.609375 C 229.667969 157.074219 229.4375 156.488281 229.183594 155.921875 C 227.996094 153.21875 226.824219 150.503906 225.644531 147.800781 C 222.160156 139.820312 219.132812 131.664062 215.863281 123.601562 C 215.394531 122.449219 214.738281 121.332031 214.640625 120.09375 C 214.5 118.320312 213.679688 116.839844 213.003906 115.269531 C 211.542969 111.867188 209.636719 108.59375 209.78125 104.6875 C 209.796875 104.183594 209.484375 103.648438 209.261719 103.15625 C 208.269531 100.960938 207.140625 98.820312 206.265625 96.582031 C 202.878906 87.878906 200.878906 78.75 198.191406 69.832031 C 196.984375 65.820312 196.417969 61.617188 195.234375 57.597656 C 193.429688 51.480469 191.820312 45.3125 190.171875 39.152344 C 189.390625 36.234375 188.859375 33.261719 188.394531 30.058594 Z M 143.496094 337.597656 C 142.746094 338.441406 142.917969 339.316406 143.304688 340.359375 C 144.523438 343.625 146.398438 346.242188 149.644531 347.734375 C 149.988281 347.890625 150.296875 348.132812 150.609375 348.351562 C 154.105469 350.839844 157.777344 352.910156 161.898438 354.289062 C 163.679688 354.882812 165.554688 354.90625 167.253906 355.660156 C 170.769531 357.222656 174.269531 356.726562 177.679688 355.40625 C 178.929688 354.925781 180.175781 354.46875 181.472656 354.378906 C 183.195312 354.253906 184.566406 353.402344 185.964844 352.597656 C 187.140625 351.917969 187.164062 350.191406 186.054688 349.371094 C 185.621094 349.050781 185.136719 348.75 184.625 348.597656 C 182.171875 347.863281 179.703125 347.246094 177.113281 347.042969 C 174.492188 346.84375 171.855469 346.625 169.300781 345.839844 C 166.035156 344.835938 162.785156 343.648438 159.4375 343.050781 C 155.894531 342.414062 153.089844 340.671875 150.570312 338.359375 C 148.601562 336.550781 146.4375 335.539062 143.710938 335.5625 C 143.742188 336.324219 144.046875 336.980469 143.496094 337.597656 Z M 128.074219 322.214844 C 127.648438 323.992188 128.347656 325.40625 129.34375 326.75 C 130.175781 327.867188 131.148438 328.898438 131.847656 330.09375 C 132.628906 331.429688 133.488281 330.695312 134.417969 330.484375 C 135.472656 330.246094 136.09375 329.765625 135.976562 328.597656 C 135.8125 326.933594 135.230469 325.464844 134.179688 324.128906 C 132.652344 322.195312 130.742188 320.878906 128.101562 319.976562 C 128.101562 320.839844 128.230469 321.5625 128.074219 322.214844 Z M 128.074219 322.214844 " fill-opacity="1" fill-rule="nonzero"/><path fill="rgb(75.689697%, 15.289307%, 17.649841%)" d="M 92.898438 282.367188 C 93.027344 280.230469 92.402344 277.703125 92.402344 275.128906 C 92.40625 267.492188 93.046875 259.917969 94.082031 252.347656 C 94.957031 245.9375 96.199219 239.613281 97.949219 233.40625 C 100.617188 223.960938 104.410156 214.933594 108.699219 206.113281 C 109.820312 203.804688 111.019531 201.53125 112.222656 199.265625 C 114.929688 194.179688 116.765625 188.6875 119.441406 183.605469 C 121.519531 179.652344 122.792969 175.449219 124.34375 171.316406 C 126.476562 165.644531 128.988281 160.109375 131.445312 154.5625 C 133.6875 149.511719 135.347656 144.230469 137.660156 139.207031 C 139.089844 136.101562 140.359375 132.921875 141.617188 129.738281 C 146.132812 118.304688 151.511719 107.253906 156.714844 96.128906 C 159.332031 90.539062 160.902344 84.582031 162.90625 78.78125 C 164.53125 74.078125 165.734375 69.210938 167.65625 64.640625 C 169.660156 59.878906 170.699219 54.863281 172.292969 50 C 173.71875 45.636719 175.621094 41.410156 176.820312 37.019531 C 178.65625 30.289062 181.101562 23.699219 182.246094 16.800781 C 182.957031 12.515625 183.203125 8.15625 183.636719 3.828125 C 183.726562 2.925781 183.476562 1.890625 185.011719 2.019531 C 185.292969 2.042969 185.703125 1.429688 185.929688 1.039062 C 186.535156 0 187.371094 0.128906 188.203125 0.578125 C 192.257812 2.757812 192.066406 1.898438 191.46875 6.957031 C 191.179688 9.410156 191.519531 11.628906 192.550781 13.707031 C 193.628906 15.882812 193.875 18.175781 194.050781 20.480469 C 194.34375 24.363281 194.792969 28.21875 195.890625 31.953125 C 196.742188 34.855469 198.027344 37.617188 198.792969 40.558594 C 200.785156 48.226562 203.703125 55.632812 205.285156 63.425781 C 205.902344 66.460938 206.894531 69.425781 207.796875 72.398438 C 208.585938 75.007812 209.292969 77.632812 209.855469 80.296875 C 210.601562 83.820312 212.503906 86.914062 213.644531 90.289062 C 214.972656 94.214844 217.074219 97.867188 217.925781 101.953125 C 218.417969 104.292969 219.578125 106.308594 220.65625 108.363281 C 221.203125 109.40625 221.695312 110.421875 222.007812 111.5625 C 222.457031 113.207031 223.015625 114.808594 224.066406 116.222656 C 224.855469 117.289062 225.3125 118.582031 225.574219 119.871094 C 226.765625 125.703125 229.707031 130.886719 231.675781 136.429688 C 232.351562 138.328125 233.640625 139.960938 234.683594 141.671875 C 236.9375 145.351562 238.363281 149.378906 240.125 153.265625 C 240.253906 153.546875 240.199219 153.953125 240.386719 154.152344 C 242.257812 156.121094 242.804688 158.738281 243.949219 161.066406 C 245.207031 163.617188 246.332031 166.257812 247.851562 168.707031 C 250.546875 173.0625 252.519531 177.8125 254.890625 182.351562 C 255.574219 183.664062 256.15625 185.011719 256.460938 186.480469 C 256.601562 187.148438 256.671875 187.894531 257.199219 188.414062 C 259.101562 190.292969 259.808594 192.804688 260.789062 195.164062 C 263.03125 200.542969 265.296875 205.914062 267.453125 211.324219 C 268.835938 214.789062 270.046875 218.304688 270.910156 221.957031 C 271.597656 224.894531 272.640625 227.769531 273.765625 230.578125 C 275.570312 235.089844 276.285156 239.867188 277.441406 244.539062 C 278.9375 250.578125 280.304688 256.65625 280.988281 262.835938 C 281.738281 269.617188 282.875 276.410156 281.828125 283.285156 C 281.679688 284.253906 281.9375 285.289062 282.039062 286.289062 C 282.308594 288.957031 281.4375 291.53125 281.382812 294.167969 C 281.265625 299.789062 280.1875 305.285156 279.148438 310.777344 C 278.6875 313.210938 277.730469 315.546875 277.203125 317.972656 C 275.703125 324.871094 271.621094 330.386719 267.644531 335.949219 C 264.929688 339.75 261.582031 342.976562 258.28125 346.289062 C 254.914062 349.667969 250.675781 351.957031 247.589844 355.582031 C 246.074219 357.359375 243.734375 357.878906 242.019531 359.355469 C 241.210938 360.050781 240.167969 360.441406 239.660156 361.519531 C 239.453125 361.960938 238.878906 362.265625 238.417969 362.546875 C 232.15625 366.402344 225.667969 369.722656 218.332031 371.066406 C 216.417969 371.417969 214.628906 372.234375 212.6875 372.523438 C 202.753906 374.003906 192.777344 374.96875 182.722656 374.847656 C 180.394531 374.820312 178.074219 374.394531 175.742188 374.289062 C 166.570312 373.886719 157.789062 371.738281 149.152344 368.730469 C 141.515625 366.070312 135.003906 361.621094 128.804688 356.617188 C 125.914062 354.28125 123.144531 351.792969 120.257812 349.453125 C 117.984375 347.613281 116.804688 344.914062 114.863281 342.816406 C 114.445312 342.363281 114.109375 341.878906 113.546875 341.558594 C 111.761719 340.539062 110.71875 338.929688 110.160156 337.007812 C 109.957031 336.3125 109.621094 335.726562 109.199219 335.164062 C 104.722656 329.210938 101.234375 322.695312 98.632812 315.757812 C 97.085938 311.628906 95.902344 307.34375 95.304688 302.933594 C 94.601562 297.777344 93.457031 292.683594 93.082031 287.472656 C 92.96875 285.917969 92.878906 284.367188 92.898438 282.367188 Z M 188.394531 30.058594 C 187.730469 30.515625 187.53125 30.871094 187.570312 31.269531 C 187.71875 32.816406 187.117188 34.15625 186.519531 35.515625 C 186.179688 36.296875 185.890625 37.109375 185.671875 37.929688 C 184.5 42.359375 183.351562 46.796875 182.207031 51.230469 C 181.953125 52.207031 181.476562 53.214844 181.554688 54.171875 C 181.777344 56.894531 181.035156 59.429688 180.285156 61.957031 C 178.621094 67.546875 177.25 73.210938 175.871094 78.875 C 174.34375 85.164062 171.527344 91.011719 169.238281 97.039062 C 167.609375 101.324219 165.832031 105.542969 163.980469 109.734375 C 161.9375 114.355469 160.007812 119.027344 157.871094 123.605469 C 156.589844 126.347656 155.125 128.984375 154.09375 131.855469 C 151.757812 138.363281 149.015625 144.710938 146.242188 151.046875 C 142.875 158.742188 139.367188 166.375 135.679688 173.917969 C 134.449219 176.433594 133.761719 179.179688 132.234375 181.550781 C 131.644531 182.464844 130.960938 183.351562 130.566406 184.347656 C 129.183594 187.8125 127.824219 191.289062 126.613281 194.820312 C 123.941406 202.609375 121.429688 210.453125 118.726562 218.230469 C 116.703125 224.054688 115.214844 230.003906 114.15625 236.0625 C 113.273438 241.113281 112.582031 246.199219 111.757812 251.261719 C 110.746094 257.453125 108.636719 263.476562 108.894531 269.863281 C 108.898438 270.015625 108.863281 270.175781 108.828125 270.324219 C 108.339844 272.445312 107.976562 274.578125 107.832031 276.761719 C 107.527344 281.414062 107.15625 286.0625 107.132812 290.734375 C 107.121094 292.835938 107.84375 294.90625 107.382812 297.003906 C 107.160156 298.035156 107.257812 299 107.558594 299.984375 C 107.832031 300.878906 108.003906 301.78125 108.015625 302.734375 C 108.027344 303.742188 108.296875 304.746094 108.820312 305.621094 C 110.117188 307.796875 110.847656 310.167969 111.246094 312.636719 C 111.964844 317.09375 113.835938 321.191406 116.234375 324.835938 C 119.34375 329.558594 122.550781 334.25 126.105469 338.707031 C 129.824219 343.367188 133.796875 347.605469 138.640625 351.125 C 144.082031 355.082031 150.199219 357.519531 156.460938 359.660156 C 161.773438 361.472656 167.28125 362.539062 172.835938 363.308594 C 176.070312 363.757812 179.304688 364.242188 182.601562 363.917969 C 186.472656 363.535156 190.359375 363.328125 194.226562 362.953125 C 197.554688 362.632812 200.886719 362.316406 204.179688 361.765625 C 212.046875 360.457031 219.523438 357.832031 226.875 354.808594 C 227.882812 354.394531 228.894531 353.960938 229.945312 353.699219 C 234.117188 352.667969 237.566406 350.140625 241.117188 347.992188 C 244.191406 346.128906 246.75 343.398438 249.46875 340.972656 C 252.003906 338.714844 254.65625 336.585938 256.933594 334.042969 C 258.433594 332.371094 260.402344 331.003906 261.523438 329.121094 C 263.265625 326.199219 264.566406 323 265.863281 319.839844 C 268.171875 314.203125 269.007812 308.144531 270.675781 302.316406 C 271.835938 298.265625 271.847656 294.039062 272.175781 289.847656 C 272.792969 281.988281 272.460938 274.167969 272.042969 266.332031 C 271.996094 265.492188 271.808594 264.621094 271.496094 263.835938 C 270.109375 260.347656 269.621094 256.632812 268.738281 253.015625 C 267.808594 249.21875 268.210938 245.082031 265.808594 241.660156 C 265.722656 241.539062 265.660156 241.375 265.648438 241.226562 C 265.386719 238.011719 263.949219 235.109375 263.207031 232.015625 C 262.101562 227.40625 260.707031 222.875 259.113281 218.40625 C 258.125 215.621094 257.054688 212.863281 256.101562 210.070312 C 255.027344 206.902344 253.511719 203.902344 251.875 201.054688 C 249.742188 197.339844 247.800781 193.546875 245.921875 189.710938 C 243.148438 184.058594 240.476562 178.355469 237.699219 172.703125 C 235.207031 167.628906 232.832031 162.5 229.980469 157.609375 C 229.667969 157.074219 229.4375 156.488281 229.183594 155.921875 C 227.996094 153.21875 226.824219 150.503906 225.644531 147.800781 C 222.160156 139.820312 219.132812 131.664062 215.863281 123.601562 C 215.394531 122.449219 214.738281 121.332031 214.640625 120.09375 C 214.5 118.320312 213.679688 116.839844 213.003906 115.269531 C 211.542969 111.867188 209.636719 108.59375 209.78125 104.6875 C 209.796875 104.183594 209.484375 103.648438 209.261719 103.15625 C 208.269531 100.960938 207.140625 98.820312 206.265625 96.582031 C 202.878906 87.878906 200.878906 78.75 198.191406 69.832031 C 196.984375 65.820312 196.417969 61.617188 195.234375 57.597656 C 193.429688 51.480469 191.820312 45.3125 190.171875 39.152344 C 189.390625 36.234375 188.859375 33.261719 188.394531 30.058594 Z M 143.496094 337.597656 C 142.746094 338.441406 142.917969 339.316406 143.304688 340.359375 C 144.523438 343.625 146.398438 346.242188 149.644531 347.734375 C 149.988281 347.890625 150.296875 348.132812 150.609375 348.351562 C 154.105469 350.839844 157.777344 352.910156 161.898438 354.289062 C 163.679688 354.882812 165.554688 354.90625 167.253906 355.660156 C 170.769531 357.222656 174.269531 356.726562 177.679688 355.40625 C 178.929688 354.925781 180.175781 354.46875 181.472656 354.378906 C 183.195312 354.253906 184.566406 353.402344 185.964844 352.597656 C 187.140625 351.917969 187.164062 350.191406 186.054688 349.371094 C 185.621094 349.050781 185.136719 348.75 184.625 348.597656 C 182.171875 347.863281 179.703125 347.246094 177.113281 347.042969 C 174.492188 346.84375 171.855469 346.625 169.300781 345.839844 C 166.035156 344.835938 162.785156 343.648438 159.4375 343.050781 C 155.894531 342.414062 153.089844 340.671875 150.570312 338.359375 C 148.601562 336.550781 146.4375 335.539062 143.710938 335.5625 C 143.742188 336.324219 144.046875 336.980469 143.496094 337.597656 Z M 128.074219 322.214844 C 127.648438 323.992188 128.347656 325.40625 129.34375 326.75 C 130.175781 327.867188 131.148438 328.898438 131.847656 330.09375 C 132.628906 331.429688 133.488281 330.695312 134.417969 330.484375 C 135.472656 330.246094 136.09375 329.765625 135.976562 328.597656 C 135.8125 326.933594 135.230469 325.464844 134.179688 324.128906 C 132.652344 322.195312 130.742188 320.878906 128.101562 319.976562 C 128.101562 320.839844 128.230469 321.5625 128.074219 322.214844 Z M 128.074219 322.214844 " fill-opacity="1" fill-rule="nonzero"/></g></svg>