<svg xmlns="http://www.w3.org/2000/svg" width="375" viewBox="0 0 375 375" height="375" version="1.0"><defs><clipPath id="a"><path d="M 45.167969 120.734375 L 330 120.734375 L 330 187.484375 L 45.167969 187.484375 Z M 45.167969 120.734375"/></clipPath></defs><g clip-path="url(#a)" fill="#36454F"><path d="M 145.347656 156.394531 C 144.699219 156.132812 144.050781 155.871094 143.398438 155.613281 C 137.128906 153.15625 130.960938 150.4375 124.691406 147.984375 C 117.710938 145.257812 110.644531 142.742188 103.617188 140.128906 C 98.5 138.222656 93.5 136 88.296875 134.316406 C 79.269531 131.390625 70.246094 128.457031 61.078125 125.988281 C 58.742188 125.359375 56.367188 124.890625 53.917969 125.089844 C 53.371094 125.136719 52.828125 125.242188 52.28125 125.304688 C 52.074219 125.332031 51.847656 125.324219 51.738281 125.089844 C 51.632812 124.863281 51.765625 124.691406 51.894531 124.519531 C 52.195312 124.117188 52.660156 123.992188 53.09375 123.84375 C 54.753906 123.28125 56.46875 123.03125 58.246094 123.03125 C 58.132812 122.734375 57.882812 122.832031 57.722656 122.746094 C 57.441406 122.597656 56.976562 122.664062 56.964844 122.203125 C 56.953125 121.714844 57.285156 121.4375 57.710938 121.285156 C 58.269531 121.085938 58.832031 120.921875 59.449219 121.011719 C 60.203125 121.121094 60.964844 121.167969 61.722656 121.261719 C 62.320312 121.335938 62.878906 121.363281 63.417969 120.984375 C 63.8125 120.707031 64.300781 120.796875 64.777344 120.832031 C 66.910156 120.976562 68.941406 121.582031 70.980469 122.144531 C 77.273438 123.882812 83.507812 125.808594 89.734375 127.757812 C 93.9375 129.078125 98.226562 130.105469 102.417969 131.476562 C 108.542969 133.476562 114.546875 135.785156 120.488281 138.285156 C 125.914062 140.570312 131.28125 142.980469 136.703125 145.269531 C 138.65625 146.09375 140.460938 147.199219 142.351562 148.144531 C 142.460938 148.199219 142.554688 148.273438 142.730469 148.386719 C 142.085938 148.652344 141.625 148.15625 141.058594 148.34375 C 141.328125 148.703125 141.71875 148.789062 142.070312 148.941406 C 147.875 151.421875 153.8125 153.574219 159.601562 156.09375 C 160.917969 156.664062 162.175781 157.394531 163.625 157.621094 C 163.945312 157.671875 164.117188 157.871094 164.28125 158.140625 C 164.46875 158.449219 164.554688 158.820312 164.941406 159.03125 C 165.285156 159.214844 165.214844 159.613281 165.074219 159.945312 C 164.6875 160.847656 164.226562 161.679688 163.335938 162.214844 C 162.484375 162.730469 161.597656 163.171875 160.863281 163.902344 C 160.292969 164.46875 159.433594 164.652344 158.617188 164.671875 C 155.707031 164.75 152.953125 165.683594 150.132812 166.234375 C 146.894531 166.863281 143.652344 167.417969 140.386719 167.871094 C 137.167969 168.320312 133.9375 168.695312 130.699219 168.925781 C 129.457031 169.015625 128.226562 169.277344 126.957031 169.230469 C 124.84375 169.144531 122.777344 169.664062 120.707031 170 C 117.605469 170.5 114.535156 171.199219 111.460938 171.871094 C 107.332031 172.777344 103.21875 173.753906 99.089844 174.671875 C 89.945312 176.710938 80.761719 178.589844 71.660156 180.816406 C 65.945312 182.214844 60.179688 183.417969 54.609375 185.355469 C 54.289062 185.464844 53.980469 185.605469 53.652344 185.695312 C 53.210938 185.816406 52.847656 186.210938 52.34375 186.101562 C 51.886719 186 51.921875 185.304688 51.335938 185.265625 C 51.097656 185.25 51.101562 184.839844 51.097656 184.597656 C 51.089844 184.050781 51.128906 183.5 51.148438 182.949219 C 51.175781 182.09375 51.027344 181.988281 50.203125 182.292969 C 49.332031 182.617188 48.445312 182.914062 47.601562 183.304688 C 47.058594 183.554688 46.738281 183.414062 46.46875 182.953125 C 46.367188 182.773438 46.273438 182.589844 46.160156 182.417969 C 45.640625 181.648438 45.683594 181.410156 46.460938 181.035156 C 50.355469 179.148438 54.398438 177.628906 58.488281 176.226562 C 63.941406 174.363281 69.5 172.847656 75.027344 171.226562 C 82.019531 169.175781 88.925781 166.847656 95.996094 165.0625 C 105.328125 162.703125 114.679688 160.433594 124.167969 158.789062 C 129.597656 157.847656 135.042969 156.960938 140.554688 156.632812 C 142.117188 156.542969 143.6875 156.621094 145.253906 156.621094 C 145.285156 156.546875 145.316406 156.46875 145.347656 156.394531 Z M 310.125 173.949219 C 309.835938 173.851562 309.328125 174.105469 309.347656 173.484375 C 308.992188 173.539062 308.660156 173.699219 308.277344 173.527344 C 306.972656 172.929688 305.511719 172.871094 304.171875 172.367188 C 302.363281 171.691406 300.53125 171.078125 298.714844 170.429688 C 298.40625 170.320312 298.019531 170.363281 297.695312 169.835938 C 300.109375 170.398438 302.375 170.921875 304.636719 171.457031 C 306.929688 172 309.179688 172.703125 311.625 173.152344 C 309.8125 171.699219 302.53125 169.1875 295.296875 167.472656 C 295.308594 167.359375 295.320312 167.242188 295.335938 167.125 C 295.480469 166.238281 295.480469 166.238281 294.652344 166.015625 C 294.53125 165.980469 294.40625 165.960938 294.28125 165.929688 C 282.710938 163.222656 271.015625 161.242188 259.207031 159.921875 C 252.972656 159.222656 246.734375 158.574219 240.46875 158.222656 C 237.84375 158.074219 235.242188 157.617188 232.605469 157.589844 C 231.914062 157.582031 231.226562 157.496094 230.515625 157.445312 C 230.605469 157.054688 230.828125 157 231.007812 156.90625 C 232.621094 156.0625 234.230469 155.199219 235.855469 154.382812 C 239.222656 152.691406 242.425781 150.664062 245.914062 149.222656 C 251.476562 146.929688 257.148438 144.910156 262.777344 142.78125 C 271.863281 139.34375 281.09375 136.355469 290.488281 133.902344 C 297.339844 132.109375 304.285156 130.722656 311.359375 130.085938 C 312.199219 130.007812 313.035156 129.871094 313.875 129.765625 C 314.109375 129.734375 314.292969 129.632812 314.292969 129.382812 C 314.289062 129.167969 314.1875 128.957031 313.949219 128.90625 C 313.789062 128.875 313.613281 128.925781 313.445312 128.910156 C 311.28125 128.710938 309.128906 128.953125 306.980469 129.128906 C 305.699219 129.234375 304.425781 129.4375 303.113281 129.597656 C 303.507812 127.945312 303.222656 128.097656 304.890625 127.890625 C 306.027344 127.753906 307.164062 127.628906 308.300781 127.496094 C 309.898438 127.308594 311.492188 127.105469 313.089844 126.9375 C 313.859375 126.855469 313.976562 126.167969 314.269531 125.691406 C 314.453125 125.394531 314.164062 125.019531 313.785156 124.949219 C 313.371094 124.867188 312.941406 124.855469 312.519531 124.851562 C 308.816406 124.808594 305.160156 125.285156 301.507812 125.828125 C 294.460938 126.875 287.449219 128.109375 280.527344 129.8125 C 269.519531 132.527344 258.828125 136.148438 248.417969 140.644531 C 241.570312 143.597656 234.714844 146.519531 228.171875 150.121094 C 225.976562 151.332031 224.007812 152.886719 221.851562 154.140625 C 217.527344 156.664062 213.328125 159.363281 209.257812 162.273438 C 207.523438 163.519531 207.269531 164.140625 208.746094 166.046875 C 210.183594 167.894531 210.1875 167.871094 212.644531 167.820312 C 214.210938 167.785156 215.769531 167.613281 217.34375 167.671875 C 222.46875 167.859375 227.605469 167.75 232.734375 167.996094 C 240.445312 168.363281 248.113281 169.167969 255.777344 170.070312 C 262.617188 170.875 269.394531 172.050781 276.167969 173.261719 C 281.324219 174.179688 286.449219 175.269531 291.59375 176.257812 C 296.296875 177.164062 300.980469 178.175781 305.519531 179.6875 C 309.660156 181.0625 313.800781 182.433594 317.945312 183.78125 C 321.128906 184.820312 324.292969 185.914062 327.429688 187.089844 C 327.722656 187.199219 328.007812 187.445312 328.382812 187.222656 C 329.285156 186.695312 329.664062 184.484375 328.894531 183.816406 C 328.523438 183.492188 328.015625 183.324219 327.554688 183.113281 C 327.289062 182.988281 326.8125 182.882812 326.832031 182.683594 C 326.898438 181.851562 326.203125 181.855469 325.773438 181.65625 C 322.273438 180.050781 318.707031 178.601562 315.078125 177.292969 C 314.097656 176.941406 313.066406 176.691406 312.136719 176.121094 C 312.328125 175.953125 312.5 175.964844 312.660156 176.007812 C 316.023438 176.867188 319.410156 177.652344 322.65625 178.914062 C 324.460938 179.613281 326.371094 180.125 327.921875 181.375 C 328.355469 181.726562 328.644531 181.519531 328.835938 181.144531 C 329.097656 180.644531 329.019531 180.15625 328.574219 179.765625 C 328.027344 179.289062 327.398438 178.933594 326.734375 178.648438 C 322.015625 176.613281 317.167969 174.980469 312.128906 173.9375 C 311.691406 173.84375 311.1875 173.527344 310.769531 174.125 C 310.660156 174.285156 310.308594 174.046875 310.089844 173.917969 Z M 284.871094 131.382812 C 275.015625 134.117188 265.191406 136.957031 255.4375 140.015625 C 264.972656 136.195312 274.734375 133.148438 284.871094 131.382812 Z M 283.398438 132.621094 C 286.285156 131.640625 289.242188 130.921875 292.265625 130.628906 C 294.285156 130.433594 296.289062 130.132812 298.3125 129.980469 C 298.550781 129.960938 298.804688 129.90625 299.097656 130.082031 C 293.261719 131.773438 287.347656 132.851562 281.425781 133.898438 C 281.882812 133.160156 282.625 132.882812 283.398438 132.621094 Z M 298.277344 171.023438 C 298.980469 170.730469 299.410156 171.078125 299.824219 171.261719 C 299.269531 171.410156 298.855469 171.191406 298.277344 171.023438 Z M 312.394531 174.558594 C 311.980469 174.753906 311.765625 174.238281 311.460938 174.265625 C 311.839844 174.226562 312.140625 174.320312 312.394531 174.558594 Z M 294.644531 169.960938 C 294.601562 169.980469 294.558594 170.011719 294.515625 170.011719 C 294.34375 170.011719 294.488281 170.148438 294.390625 170.011719 C 294.4375 169.992188 294.480469 169.976562 294.523438 169.960938 C 294.5625 169.960938 294.605469 169.960938 294.644531 169.960938 Z M 294.644531 169.960938"/><path d="M 145.347656 156.394531 C 144.699219 156.132812 144.050781 155.871094 143.398438 155.613281 C 137.128906 153.15625 130.960938 150.4375 124.691406 147.984375 C 117.710938 145.257812 110.644531 142.742188 103.617188 140.128906 C 98.5 138.222656 93.5 136 88.296875 134.316406 C 79.269531 131.390625 70.246094 128.457031 61.078125 125.988281 C 58.742188 125.359375 56.367188 124.890625 53.917969 125.089844 C 53.371094 125.136719 52.828125 125.242188 52.28125 125.304688 C 52.074219 125.332031 51.847656 125.324219 51.738281 125.089844 C 51.632812 124.863281 51.765625 124.691406 51.894531 124.519531 C 52.195312 124.117188 52.660156 123.992188 53.09375 123.84375 C 54.753906 123.28125 56.46875 123.03125 58.246094 123.03125 C 58.132812 122.734375 57.882812 122.832031 57.722656 122.746094 C 57.441406 122.597656 56.976562 122.664062 56.964844 122.203125 C 56.953125 121.714844 57.285156 121.4375 57.710938 121.285156 C 58.269531 121.085938 58.832031 120.921875 59.449219 121.011719 C 60.203125 121.121094 60.964844 121.167969 61.722656 121.261719 C 62.320312 121.335938 62.878906 121.363281 63.417969 120.984375 C 63.8125 120.707031 64.300781 120.796875 64.777344 120.832031 C 66.910156 120.976562 68.941406 121.582031 70.980469 122.144531 C 77.273438 123.882812 83.507812 125.808594 89.734375 127.757812 C 93.9375 129.078125 98.226562 130.105469 102.417969 131.476562 C 108.542969 133.476562 114.546875 135.785156 120.488281 138.285156 C 125.914062 140.570312 131.28125 142.980469 136.703125 145.269531 C 138.65625 146.09375 140.460938 147.199219 142.351562 148.144531 C 142.460938 148.199219 142.554688 148.273438 142.730469 148.386719 C 142.085938 148.652344 141.625 148.15625 141.058594 148.34375 C 141.328125 148.703125 141.71875 148.789062 142.070312 148.941406 C 147.875 151.421875 153.8125 153.574219 159.601562 156.09375 C 160.917969 156.664062 162.175781 157.394531 163.625 157.621094 C 163.945312 157.671875 164.117188 157.871094 164.28125 158.140625 C 164.46875 158.449219 164.554688 158.820312 164.941406 159.03125 C 165.285156 159.214844 165.214844 159.613281 165.074219 159.945312 C 164.6875 160.847656 164.226562 161.679688 163.335938 162.214844 C 162.484375 162.730469 161.597656 163.171875 160.863281 163.902344 C 160.292969 164.46875 159.433594 164.652344 158.617188 164.671875 C 155.707031 164.75 152.953125 165.683594 150.132812 166.234375 C 146.894531 166.863281 143.652344 167.417969 140.386719 167.871094 C 137.167969 168.320312 133.9375 168.695312 130.699219 168.925781 C 129.457031 169.015625 128.226562 169.277344 126.957031 169.230469 C 124.84375 169.144531 122.777344 169.664062 120.707031 170 C 117.605469 170.5 114.535156 171.199219 111.460938 171.871094 C 107.332031 172.777344 103.21875 173.753906 99.089844 174.671875 C 89.945312 176.710938 80.761719 178.589844 71.660156 180.816406 C 65.945312 182.214844 60.179688 183.417969 54.609375 185.355469 C 54.289062 185.464844 53.980469 185.605469 53.652344 185.695312 C 53.210938 185.816406 52.847656 186.210938 52.34375 186.101562 C 51.886719 186 51.921875 185.304688 51.335938 185.265625 C 51.097656 185.25 51.101562 184.839844 51.097656 184.597656 C 51.089844 184.050781 51.128906 183.5 51.148438 182.949219 C 51.175781 182.09375 51.027344 181.988281 50.203125 182.292969 C 49.332031 182.617188 48.445312 182.914062 47.601562 183.304688 C 47.058594 183.554688 46.738281 183.414062 46.46875 182.953125 C 46.367188 182.773438 46.273438 182.589844 46.160156 182.417969 C 45.640625 181.648438 45.683594 181.410156 46.460938 181.035156 C 50.355469 179.148438 54.398438 177.628906 58.488281 176.226562 C 63.941406 174.363281 69.5 172.847656 75.027344 171.226562 C 82.019531 169.175781 88.925781 166.847656 95.996094 165.0625 C 105.328125 162.703125 114.679688 160.433594 124.167969 158.789062 C 129.597656 157.847656 135.042969 156.960938 140.554688 156.632812 C 142.117188 156.542969 143.6875 156.621094 145.253906 156.621094 C 145.285156 156.546875 145.316406 156.46875 145.347656 156.394531 Z M 310.125 173.949219 C 309.835938 173.851562 309.328125 174.105469 309.347656 173.484375 C 308.992188 173.539062 308.660156 173.699219 308.277344 173.527344 C 306.972656 172.929688 305.511719 172.871094 304.171875 172.367188 C 302.363281 171.691406 300.53125 171.078125 298.714844 170.429688 C 298.40625 170.320312 298.019531 170.363281 297.695312 169.835938 C 300.109375 170.398438 302.375 170.921875 304.636719 171.457031 C 306.929688 172 309.179688 172.703125 311.625 173.152344 C 309.8125 171.699219 302.53125 169.1875 295.296875 167.472656 C 295.308594 167.359375 295.320312 167.242188 295.335938 167.125 C 295.480469 166.238281 295.480469 166.238281 294.652344 166.015625 C 294.53125 165.980469 294.40625 165.960938 294.28125 165.929688 C 282.710938 163.222656 271.015625 161.242188 259.207031 159.921875 C 252.972656 159.222656 246.734375 158.574219 240.46875 158.222656 C 237.84375 158.074219 235.242188 157.617188 232.605469 157.589844 C 231.914062 157.582031 231.226562 157.496094 230.515625 157.445312 C 230.605469 157.054688 230.828125 157 231.007812 156.90625 C 232.621094 156.0625 234.230469 155.199219 235.855469 154.382812 C 239.222656 152.691406 242.425781 150.664062 245.914062 149.222656 C 251.476562 146.929688 257.148438 144.910156 262.777344 142.78125 C 271.863281 139.34375 281.09375 136.355469 290.488281 133.902344 C 297.339844 132.109375 304.285156 130.722656 311.359375 130.085938 C 312.199219 130.007812 313.035156 129.871094 313.875 129.765625 C 314.109375 129.734375 314.292969 129.632812 314.292969 129.382812 C 314.289062 129.167969 314.1875 128.957031 313.949219 128.90625 C 313.789062 128.875 313.613281 128.925781 313.445312 128.910156 C 311.28125 128.710938 309.128906 128.953125 306.980469 129.128906 C 305.699219 129.234375 304.425781 129.4375 303.113281 129.597656 C 303.507812 127.945312 303.222656 128.097656 304.890625 127.890625 C 306.027344 127.753906 307.164062 127.628906 308.300781 127.496094 C 309.898438 127.308594 311.492188 127.105469 313.089844 126.9375 C 313.859375 126.855469 313.976562 126.167969 314.269531 125.691406 C 314.453125 125.394531 314.164062 125.019531 313.785156 124.949219 C 313.371094 124.867188 312.941406 124.855469 312.519531 124.851562 C 308.816406 124.808594 305.160156 125.285156 301.507812 125.828125 C 294.460938 126.875 287.449219 128.109375 280.527344 129.8125 C 269.519531 132.527344 258.828125 136.148438 248.417969 140.644531 C 241.570312 143.597656 234.714844 146.519531 228.171875 150.121094 C 225.976562 151.332031 224.007812 152.886719 221.851562 154.140625 C 217.527344 156.664062 213.328125 159.363281 209.257812 162.273438 C 207.523438 163.519531 207.269531 164.140625 208.746094 166.046875 C 210.183594 167.894531 210.1875 167.871094 212.644531 167.820312 C 214.210938 167.785156 215.769531 167.613281 217.34375 167.671875 C 222.46875 167.859375 227.605469 167.75 232.734375 167.996094 C 240.445312 168.363281 248.113281 169.167969 255.777344 170.070312 C 262.617188 170.875 269.394531 172.050781 276.167969 173.261719 C 281.324219 174.179688 286.449219 175.269531 291.59375 176.257812 C 296.296875 177.164062 300.980469 178.175781 305.519531 179.6875 C 309.660156 181.0625 313.800781 182.433594 317.945312 183.78125 C 321.128906 184.820312 324.292969 185.914062 327.429688 187.089844 C 327.722656 187.199219 328.007812 187.445312 328.382812 187.222656 C 329.285156 186.695312 329.664062 184.484375 328.894531 183.816406 C 328.523438 183.492188 328.015625 183.324219 327.554688 183.113281 C 327.289062 182.988281 326.8125 182.882812 326.832031 182.683594 C 326.898438 181.851562 326.203125 181.855469 325.773438 181.65625 C 322.273438 180.050781 318.707031 178.601562 315.078125 177.292969 C 314.097656 176.941406 313.066406 176.691406 312.136719 176.121094 C 312.328125 175.953125 312.5 175.964844 312.660156 176.007812 C 316.023438 176.867188 319.410156 177.652344 322.65625 178.914062 C 324.460938 179.613281 326.371094 180.125 327.921875 181.375 C 328.355469 181.726562 328.644531 181.519531 328.835938 181.144531 C 329.097656 180.644531 329.019531 180.15625 328.574219 179.765625 C 328.027344 179.289062 327.398438 178.933594 326.734375 178.648438 C 322.015625 176.613281 317.167969 174.980469 312.128906 173.9375 C 311.691406 173.84375 311.1875 173.527344 310.769531 174.125 C 310.660156 174.285156 310.308594 174.046875 310.089844 173.917969 Z M 284.871094 131.382812 C 275.015625 134.117188 265.191406 136.957031 255.4375 140.015625 C 264.972656 136.195312 274.734375 133.148438 284.871094 131.382812 Z M 283.398438 132.621094 C 286.285156 131.640625 289.242188 130.921875 292.265625 130.628906 C 294.285156 130.433594 296.289062 130.132812 298.3125 129.980469 C 298.550781 129.960938 298.804688 129.90625 299.097656 130.082031 C 293.261719 131.773438 287.347656 132.851562 281.425781 133.898438 C 281.882812 133.160156 282.625 132.882812 283.398438 132.621094 Z M 298.277344 171.023438 C 298.980469 170.730469 299.410156 171.078125 299.824219 171.261719 C 299.269531 171.410156 298.855469 171.191406 298.277344 171.023438 Z M 312.394531 174.558594 C 311.980469 174.753906 311.765625 174.238281 311.460938 174.265625 C 311.839844 174.226562 312.140625 174.320312 312.394531 174.558594 Z M 294.644531 169.960938 C 294.601562 169.980469 294.558594 170.011719 294.515625 170.011719 C 294.34375 170.011719 294.488281 170.148438 294.390625 170.011719 C 294.4375 169.992188 294.480469 169.976562 294.523438 169.960938 C 294.5625 169.960938 294.605469 169.960938 294.644531 169.960938 Z M 294.644531 169.960938"/></g></svg>