<svg xmlns="http://www.w3.org/2000/svg" width="375" viewBox="0 0 375 375" height="375" version="1.0"><defs><clipPath id="a"><path d="M 227 120 L 246 120 L 246 138 L 227 138 Z M 227 120"/></clipPath><clipPath id="b"><path d="M 80.390625 98.519531 L 298.421875 108.300781 L 294.863281 187.71875 L 76.832031 177.941406 Z M 80.390625 98.519531"/></clipPath><clipPath id="c"><path d="M 80.390625 98.519531 L 298.421875 108.300781 L 294.863281 187.71875 L 76.832031 177.941406 Z M 80.390625 98.519531"/></clipPath><clipPath id="d"><path d="M 134 123 L 152 123 L 152 139 L 134 139 Z M 134 123"/></clipPath><clipPath id="e"><path d="M 80.390625 98.519531 L 298.421875 108.300781 L 294.863281 187.71875 L 76.832031 177.941406 Z M 80.390625 98.519531"/></clipPath><clipPath id="f"><path d="M 80.390625 98.519531 L 298.421875 108.300781 L 294.863281 187.71875 L 76.832031 177.941406 Z M 80.390625 98.519531"/></clipPath><clipPath id="g"><path d="M 78 106 L 297 106 L 297 181 L 78 181 Z M 78 106"/></clipPath><clipPath id="h"><path d="M 80.390625 98.519531 L 298.421875 108.300781 L 294.863281 187.71875 L 76.832031 177.941406 Z M 80.390625 98.519531"/></clipPath><clipPath id="i"><path d="M 80.390625 98.519531 L 298.421875 108.300781 L 294.863281 187.71875 L 76.832031 177.941406 Z M 80.390625 98.519531"/></clipPath><clipPath id="j"><path d="M 80.496094 98.527344 L 298.320312 108.292969 L 294.757812 187.746094 L 76.929688 177.976562 Z M 80.496094 98.527344"/></clipPath><clipPath id="k"><path d="M 80.496094 98.527344 L 298.316406 108.292969 L 294.757812 187.710938 L 76.933594 177.945312 Z M 80.496094 98.527344"/></clipPath></defs><g clip-path="url(#a)"><g clip-path="url(#b)"><g clip-path="url(#c)"><path fill="#36454F" d="M 237.234375 124.507812 C 232.410156 123.304688 229.535156 126.449219 230.414062 129.851562 C 231.691406 134.792969 240.25 135.109375 241.628906 131.296875 C 243.109375 127.199219 240.21875 125.253906 237.234375 124.507812 Z M 245.296875 133.34375 C 241.808594 139.867188 229.886719 138.863281 227.492188 132.074219 C 226.191406 128.371094 227.890625 125.046875 230.324219 121.375 C 238.277344 117.960938 247.394531 122.390625 245.296875 133.34375" fill-rule="evenodd"/></g></g></g><g clip-path="url(#d)"><g clip-path="url(#e)"><g clip-path="url(#f)"><path fill="#36454F" d="M 147.082031 133.171875 C 148.261719 125.84375 138.390625 125.917969 138.257812 130.894531 C 138.164062 134.402344 144.523438 137.171875 147.082031 133.171875 Z M 151.410156 131.015625 C 152.058594 142.53125 133.804688 140.875 134.996094 130.277344 C 135.4375 126.332031 138.417969 122.414062 145.136719 124.144531 C 149.253906 125.207031 151.234375 127.910156 151.410156 131.015625" fill-rule="evenodd"/></g></g></g><g clip-path="url(#g)"><g clip-path="url(#h)"><g clip-path="url(#i)"><g clip-path="url(#j)"><g clip-path="url(#k)"><path fill="#36454F" d="M 93.457031 113.355469 C 88.78125 135.175781 102.292969 146.980469 117.484375 153.964844 C 122.761719 156.390625 129.746094 158.550781 135.117188 158.992188 C 147.554688 160.015625 165 156.613281 173.589844 149.894531 C 185.804688 140.335938 186.402344 126.699219 192.628906 113.097656 C 177.167969 110.179688 157.398438 114.609375 139.953125 114.027344 C 124.039062 113.5 108.820312 111.945312 93.457031 113.355469 Z M 195.890625 113.714844 C 198.730469 128.082031 207.109375 137.371094 216.054688 146.148438 C 229.390625 152.03125 246.160156 160.199219 261.335938 152.886719 C 271.214844 148.128906 278.886719 136.296875 279.570312 123.585938 C 279.675781 121.570312 278.980469 116.925781 278.074219 115.046875 C 251.246094 112.269531 224.367188 115.75 195.890625 113.714844 Z M 139.644531 173.3125 C 149.160156 168.835938 159.949219 166.265625 166.582031 159.460938 C 166.113281 159.4375 166.007812 159.816406 165.625 159.886719 C 160.964844 161.136719 157.089844 162.621094 152.300781 163.527344 C 147.648438 164.40625 142.753906 163.917969 137.679688 164.753906 C 132.828125 165.550781 128.957031 167.210938 122.566406 166.429688 C 111.941406 165.128906 100.328125 162.503906 91.4375 158.445312 C 86.027344 155.976562 79.238281 154.023438 78.253906 148.441406 C 83.410156 147.167969 88.355469 150.941406 93.5625 152.890625 C 98.820312 154.859375 104.332031 157.25 110.789062 156.488281 C 96.953125 148.8125 84.035156 136.265625 88.214844 115.003906 C 86.171875 113.34375 86.121094 109.371094 88.082031 107.46875 C 118.070312 107.617188 146.402344 107.410156 176.488281 106.253906 C 185.097656 105.925781 194.046875 107.996094 202.710938 108.371094 C 217.917969 109.03125 233.21875 109.75 247.347656 108.488281 C 254.308594 107.871094 263.605469 108.890625 271.332031 108.15625 C 275.84375 107.726562 278.507812 106.191406 282.097656 109.109375 C 287.777344 125.910156 278.203125 145.796875 269.777344 153.265625 C 278.59375 152.660156 288.527344 148.289062 296.253906 149.746094 C 297.253906 153.429688 293.164062 153.886719 290.867188 154.679688 C 276.722656 159.550781 258.851562 161.71875 240.75 161.375 C 248.59375 164.703125 256.804688 167.695312 263.777344 171.820312 C 265.085938 174.386719 269.472656 171.914062 269.21875 176.300781 C 266.21875 179.566406 264.703125 174.578125 260.324219 175.429688 C 250.078125 170.507812 238.425781 166.820312 228.980469 161.789062 C 213.941406 153.773438 201.710938 141.542969 193.40625 127.25 C 188.070312 141.296875 181.585938 155.285156 171.507812 164.859375 C 166.988281 169.15625 159.945312 172.300781 153.671875 174.882812 C 147.433594 177.453125 140 182.207031 132.761719 180.066406 C 132.40625 175.867188 136.90625 174.601562 139.644531 173.3125" fill-rule="evenodd"/></g></g></g></g></g></svg>