<svg xmlns="http://www.w3.org/2000/svg" width="375" viewBox="0 0 375 375" height="375" version="1.0"><path fill="#170B28" d="M 208.875 89.515625 C 208.9375 89.371094 209.023438 89.242188 209.136719 89.132812 C 209.25 89.019531 209.378906 88.9375 209.523438 88.875 C 209.667969 88.816406 209.820312 88.785156 209.980469 88.785156 C 210.136719 88.78125 210.289062 88.8125 210.433594 88.871094 C 210.582031 88.929688 210.710938 89.011719 210.824219 89.121094 C 210.9375 89.230469 211.027344 89.359375 211.089844 89.503906 C 211.152344 89.648438 211.1875 89.800781 211.191406 89.957031 C 211.195312 90.113281 211.171875 90.265625 211.117188 90.414062 L 210.757812 91.300781 C 210.703125 91.453125 210.617188 91.589844 210.507812 91.707031 C 210.394531 91.824219 210.265625 91.917969 210.117188 91.980469 C 209.96875 92.046875 209.8125 92.082031 209.648438 92.085938 C 209.488281 92.085938 209.332031 92.058594 209.179688 91.996094 C 209.03125 91.9375 208.898438 91.851562 208.78125 91.734375 C 208.664062 91.621094 208.578125 91.488281 208.515625 91.339844 C 208.453125 91.1875 208.421875 91.03125 208.421875 90.871094 C 208.421875 90.707031 208.457031 90.550781 208.519531 90.402344 Z M 220.003906 43.710938 C 220.015625 43.550781 220.054688 43.398438 220.125 43.253906 C 220.195312 43.109375 220.292969 42.984375 220.414062 42.878906 C 220.53125 42.773438 220.667969 42.695312 220.820312 42.640625 C 220.972656 42.589844 221.128906 42.570312 221.289062 42.578125 C 221.449219 42.589844 221.601562 42.628906 221.742188 42.699219 C 221.886719 42.769531 222.011719 42.867188 222.117188 42.988281 C 222.226562 43.105469 222.304688 43.242188 222.355469 43.394531 C 222.40625 43.546875 222.429688 43.703125 222.417969 43.863281 C 221.941406 50.910156 220.902344 57.871094 219.304688 64.753906 C 218.023438 70.261719 216.453125 75.6875 214.597656 81.027344 C 214.542969 81.175781 214.460938 81.308594 214.355469 81.425781 C 214.246094 81.542969 214.125 81.636719 213.980469 81.703125 C 213.839844 81.769531 213.6875 81.808594 213.53125 81.820312 C 213.371094 81.828125 213.21875 81.804688 213.070312 81.753906 C 212.917969 81.703125 212.785156 81.625 212.667969 81.523438 C 212.546875 81.417969 212.453125 81.296875 212.382812 81.15625 C 212.308594 81.011719 212.269531 80.863281 212.257812 80.707031 C 212.242188 80.546875 212.261719 80.394531 212.308594 80.242188 C 214.140625 74.984375 215.6875 69.640625 216.953125 64.214844 C 218.519531 57.460938 219.535156 50.628906 220.003906 43.710938 Z M 152.402344 43.863281 C 152.394531 43.703125 152.414062 43.546875 152.464844 43.394531 C 152.519531 43.246094 152.597656 43.109375 152.703125 42.988281 C 152.808594 42.867188 152.933594 42.773438 153.078125 42.703125 C 153.21875 42.632812 153.371094 42.589844 153.53125 42.582031 C 153.691406 42.570312 153.847656 42.59375 154 42.644531 C 154.148438 42.695312 154.285156 42.773438 154.40625 42.882812 C 154.527344 42.988281 154.621094 43.113281 154.691406 43.253906 C 154.761719 43.398438 154.800781 43.550781 154.8125 43.710938 C 155.28125 50.628906 156.300781 57.460938 157.867188 64.214844 C 159.132812 69.640625 160.679688 74.980469 162.511719 80.242188 C 162.5625 80.394531 162.585938 80.550781 162.574219 80.710938 C 162.566406 80.871094 162.523438 81.023438 162.453125 81.167969 C 162.382812 81.3125 162.289062 81.4375 162.167969 81.542969 C 162.046875 81.648438 161.914062 81.726562 161.761719 81.78125 C 161.609375 81.832031 161.453125 81.851562 161.292969 81.84375 C 161.132812 81.832031 160.980469 81.792969 160.835938 81.722656 C 160.695312 81.652344 160.570312 81.558594 160.460938 81.4375 C 160.355469 81.316406 160.277344 81.179688 160.226562 81.027344 C 158.367188 75.6875 156.796875 70.261719 155.515625 64.753906 C 153.917969 57.871094 152.882812 50.910156 152.402344 43.863281 Z M 233.871094 18.75 C 233.882812 18.316406 233.910156 17.871094 233.910156 17.441406 C 233.910156 12.390625 228.53125 7.941406 219.839844 4.824219 C 211.519531 1.84375 200.054688 0 187.40625 0 C 174.757812 0 163.292969 1.84375 154.972656 4.828125 C 146.28125 7.945312 140.902344 12.394531 140.902344 17.445312 C 140.902344 17.828125 140.925781 18.21875 140.9375 18.601562 C 141.121094 26.003906 141.128906 33.765625 140.800781 41.328125 C 140.542969 48.855469 139.777344 56.332031 138.507812 63.753906 C 138.085938 66.367188 137.3125 68.875 136.1875 71.269531 C 135.0625 73.664062 133.625 75.859375 131.878906 77.847656 C 130.210938 79.710938 128.300781 81.28125 126.152344 82.5625 C 124.003906 83.847656 121.710938 84.78125 119.28125 85.367188 C 118.925781 85.308594 118.570312 85.261719 118.214844 85.230469 C 117.164062 85.101562 116.121094 85.148438 115.089844 85.371094 C 114.054688 85.59375 113.085938 85.980469 112.183594 86.53125 C 110.710938 87.46875 109.15625 88.238281 107.519531 88.84375 C 105.449219 89.675781 103.335938 90.382812 101.183594 90.960938 C 100.871094 90.867188 100.558594 90.78125 100.238281 90.699219 C 98.265625 90.179688 96.261719 89.96875 94.222656 90.070312 C 91.609375 90.078125 89.003906 89.90625 86.414062 89.554688 C 83.550781 89.238281 80.714844 88.769531 77.902344 88.144531 C 77.144531 87.964844 76.375 87.847656 75.597656 87.792969 C 74.84375 87.742188 74.09375 87.757812 73.339844 87.839844 C 64.042969 88.882812 55.90625 87.808594 50.507812 87.097656 L 49.085938 86.914062 C 47.476562 86.609375 45.945312 86.832031 44.488281 87.582031 C 43.605469 88.085938 43.019531 88.828125 42.730469 89.800781 C 42.46875 90.746094 42.488281 91.6875 42.789062 92.621094 C 43.113281 93.65625 43.613281 94.59375 44.289062 95.441406 C 42.945312 95.328125 41.660156 95.195312 40.445312 95.054688 C 36.324219 94.617188 32.257812 93.875 28.25 92.835938 C 27.5625 92.582031 26.851562 92.484375 26.121094 92.542969 C 25.390625 92.601562 24.703125 92.808594 24.0625 93.167969 C 23.242188 93.714844 22.75 94.476562 22.589844 95.453125 C 22.433594 96.421875 22.507812 97.371094 22.8125 98.300781 C 23.378906 100.015625 24.273438 101.542969 25.496094 102.875 C 25.089844 102.878906 24.691406 102.945312 24.304688 103.0625 C 23.652344 103.265625 23.089844 103.617188 22.621094 104.117188 C 22.183594 104.578125 21.859375 105.113281 21.652344 105.714844 C 21.269531 106.808594 21.25 107.910156 21.589844 109.015625 C 21.882812 109.863281 22.269531 110.660156 22.753906 111.414062 C 7.058594 126.582031 15.988281 179.144531 19.03125 197.035156 C 19.1875 197.949219 19.328125 198.78125 19.445312 199.507812 C 20.265625 204.417969 20.253906 211.722656 20.242188 220.738281 C 20.222656 238.648438 20.1875 263.25 26.566406 289.808594 C 30.351562 305.640625 36.328125 320.59375 44.496094 334.667969 C 52.34375 348.273438 62.101562 360.320312 73.78125 370.816406 C 74.066406 371.070312 74.347656 371.304688 74.621094 371.515625 C 76.164062 372.699219 77.871094 373.554688 79.742188 374.085938 C 81.609375 374.617188 83.511719 374.78125 85.445312 374.585938 C 87.367188 374.398438 89.1875 373.867188 90.910156 372.996094 C 92.632812 372.125 94.136719 370.96875 95.425781 369.535156 L 95.492188 369.46875 C 95.722656 369.207031 95.957031 368.921875 96.195312 368.613281 C 102.585938 360.289062 112.328125 349.691406 124.199219 336.773438 C 126.574219 334.191406 129.039062 331.511719 131.625 328.683594 C 147.597656 327.761719 159.65625 321.738281 168.472656 314.089844 C 172.882812 310.242188 176.699219 305.867188 179.914062 300.972656 C 183.128906 296.074219 185.625 290.835938 187.40625 285.257812 C 189.1875 290.839844 191.683594 296.078125 194.898438 300.972656 C 198.113281 305.871094 201.925781 310.246094 206.339844 314.097656 C 215.152344 321.742188 227.210938 327.765625 243.183594 328.6875 C 245.777344 331.519531 248.246094 334.207031 250.628906 336.796875 C 262.492188 349.703125 272.226562 360.296875 278.613281 368.613281 C 278.832031 368.898438 279.066406 369.183594 279.320312 369.46875 C 280.613281 370.925781 282.125 372.09375 283.859375 372.976562 C 285.59375 373.863281 287.429688 374.398438 289.363281 374.589844 C 291.296875 374.789062 293.199219 374.621094 295.070312 374.089844 C 296.941406 373.5625 298.648438 372.703125 300.191406 371.519531 C 300.46875 371.308594 300.746094 371.078125 301.03125 370.824219 C 312.707031 360.328125 322.46875 348.277344 330.3125 334.671875 C 338.484375 320.597656 344.460938 305.644531 348.242188 289.8125 C 354.625 263.253906 354.589844 238.648438 354.566406 220.738281 C 354.554688 211.722656 354.546875 204.417969 355.367188 199.507812 C 355.484375 198.78125 355.628906 197.953125 355.78125 197.03125 C 358.824219 179.140625 367.753906 126.582031 352.058594 111.414062 C 352.542969 110.660156 352.929688 109.863281 353.222656 109.015625 C 353.5625 107.910156 353.539062 106.808594 353.160156 105.714844 C 352.949219 105.113281 352.628906 104.582031 352.191406 104.117188 C 351.722656 103.617188 351.164062 103.269531 350.511719 103.0625 C 350.121094 102.945312 349.722656 102.878906 349.316406 102.875 C 350.539062 101.542969 351.433594 100.019531 352 98.300781 C 352.304688 97.371094 352.378906 96.421875 352.222656 95.457031 C 352.0625 94.480469 351.574219 93.71875 350.75 93.167969 C 350.109375 92.8125 349.425781 92.601562 348.695312 92.542969 C 347.960938 92.488281 347.253906 92.582031 346.566406 92.835938 C 342.554688 93.878906 338.492188 94.617188 334.371094 95.054688 C 333.152344 95.195312 331.871094 95.324219 330.523438 95.441406 C 331.199219 94.597656 331.699219 93.65625 332.023438 92.621094 C 332.320312 91.6875 332.339844 90.75 332.082031 89.804688 C 331.789062 88.828125 331.207031 88.089844 330.324219 87.582031 C 328.867188 86.832031 327.335938 86.613281 325.726562 86.914062 L 324.304688 87.101562 C 318.902344 87.8125 310.765625 88.882812 301.46875 87.839844 C 300.71875 87.757812 299.964844 87.742188 299.210938 87.796875 C 298.433594 87.847656 297.667969 87.964844 296.910156 88.148438 C 294.097656 88.769531 291.261719 89.242188 288.398438 89.558594 C 285.804688 89.90625 283.203125 90.078125 280.585938 90.074219 C 278.550781 89.96875 276.542969 90.179688 274.574219 90.699219 C 274.253906 90.78125 273.9375 90.867188 273.628906 90.960938 C 271.472656 90.382812 269.363281 89.675781 267.292969 88.84375 C 265.65625 88.238281 264.101562 87.464844 262.632812 86.527344 C 261.726562 85.980469 260.757812 85.59375 259.726562 85.371094 C 258.691406 85.148438 257.652344 85.101562 256.601562 85.230469 C 256.246094 85.257812 255.886719 85.304688 255.535156 85.367188 C 253.101562 84.78125 250.8125 83.84375 248.664062 82.5625 C 246.515625 81.28125 244.605469 79.707031 242.933594 77.847656 C 241.1875 75.855469 239.753906 73.664062 238.628906 71.269531 C 237.5 68.871094 236.726562 66.367188 236.308594 63.753906 C 235.035156 56.332031 234.269531 48.855469 234.011719 41.328125 C 233.6875 33.816406 233.691406 26.105469 233.871094 18.75 Z M 251.757812 86.738281 C 247.636719 85.160156 244.097656 82.734375 241.136719 79.460938 C 239.242188 77.304688 237.683594 74.929688 236.460938 72.332031 C 235.234375 69.734375 234.394531 67.019531 233.933594 64.1875 C 232.644531 56.652344 231.867188 49.070312 231.605469 41.429688 C 231.34375 35.410156 231.296875 29.261719 231.378906 23.261719 C 228.984375 25.894531 224.996094 28.210938 219.84375 30.054688 C 211.519531 33.039062 200.054688 34.886719 187.40625 34.886719 C 174.761719 34.886719 163.292969 33.042969 154.972656 30.054688 C 149.820312 28.210938 145.832031 25.894531 143.441406 23.261719 C 143.523438 29.261719 143.472656 35.410156 143.210938 41.429688 C 142.949219 49.070312 142.175781 56.652344 140.882812 64.1875 C 140.425781 67.019531 139.582031 69.734375 138.359375 72.332031 C 137.136719 74.929688 135.574219 77.304688 133.679688 79.460938 C 130.71875 82.730469 127.179688 85.160156 123.0625 86.738281 C 123.414062 86.957031 123.746094 87.203125 124.058594 87.476562 C 126.066406 88.984375 128.214844 90.246094 130.507812 91.265625 C 133.449219 92.707031 136.476562 93.9375 139.585938 94.949219 C 141.464844 95.523438 143.261719 97.03125 144.949219 99.445312 C 146.699219 102.097656 148.105469 104.921875 149.171875 107.917969 C 150.207031 107.933594 151.226562 107.976562 152.222656 108.046875 C 153.464844 108.128906 154.667969 108.261719 155.828125 108.421875 C 155.988281 108.445312 156.132812 108.496094 156.273438 108.578125 C 156.410156 108.660156 156.527344 108.765625 156.621094 108.890625 C 156.71875 109.019531 156.789062 109.160156 156.828125 109.316406 C 156.867188 109.46875 156.875 109.625 156.855469 109.785156 C 156.832031 109.941406 156.78125 110.089844 156.699219 110.230469 C 156.621094 110.367188 156.515625 110.484375 156.386719 110.582031 C 156.261719 110.675781 156.121094 110.746094 155.964844 110.785156 C 155.808594 110.828125 155.652344 110.835938 155.496094 110.816406 C 154.402344 110.660156 153.257812 110.542969 152.058594 110.457031 C 151.421875 110.414062 150.765625 110.382812 150.089844 110.359375 C 151.492188 113.828125 153.074219 117.214844 154.832031 120.515625 C 156.78125 124.230469 158.734375 127.582031 160.039062 129.785156 C 162.769531 134.398438 168.023438 141.71875 176.304688 151.507812 C 179.539062 155.332031 183.242188 159.523438 187.410156 164.082031 C 194.007812 156.894531 199.382812 150.605469 203.65625 145.273438 C 207.707031 140.359375 211.417969 135.195312 214.785156 129.789062 C 216.089844 127.582031 218.042969 124.234375 219.992188 120.519531 C 221.746094 117.214844 223.328125 113.828125 224.734375 110.359375 C 215.03125 110.671875 208.332031 113.519531 202.421875 116.035156 C 197.335938 118.199219 192.808594 120.125 187.410156 120.125 C 182.007812 120.125 177.480469 118.199219 172.394531 116.035156 L 172.289062 115.988281 C 172.144531 115.925781 172.019531 115.835938 171.910156 115.71875 C 171.800781 115.605469 171.71875 115.476562 171.660156 115.328125 C 171.601562 115.179688 171.574219 115.027344 171.578125 114.871094 C 171.578125 114.710938 171.613281 114.5625 171.671875 114.414062 C 171.734375 114.269531 171.820312 114.140625 171.933594 114.03125 C 172.046875 113.917969 172.175781 113.835938 172.320312 113.773438 C 172.464844 113.714844 172.617188 113.683594 172.777344 113.679688 C 172.933594 113.679688 173.085938 113.710938 173.234375 113.769531 L 173.339844 113.8125 C 178.179688 115.871094 182.484375 117.703125 187.410156 117.703125 C 192.332031 117.703125 196.640625 115.871094 201.480469 113.8125 C 207.792969 111.128906 214.976562 108.066406 225.652344 107.917969 C 226.71875 104.921875 228.125 102.097656 229.875 99.445312 C 231.5625 97.03125 233.359375 95.523438 235.238281 94.949219 C 238.347656 93.9375 241.375 92.707031 244.3125 91.265625 C 246.609375 90.25 248.757812 88.984375 250.765625 87.476562 C 251.074219 87.203125 251.40625 86.957031 251.757812 86.738281 Z M 219.027344 7.101562 C 226.726562 9.863281 231.492188 13.527344 231.492188 17.441406 C 231.492188 21.355469 226.726562 25.019531 219.027344 27.78125 C 210.957031 30.671875 199.777344 32.460938 187.40625 32.460938 C 175.035156 32.460938 163.855469 30.671875 155.785156 27.78125 C 148.085938 25.019531 143.320312 21.355469 143.320312 17.441406 C 143.320312 13.527344 148.085938 9.863281 155.785156 7.101562 C 163.855469 4.210938 175.035156 2.421875 187.40625 2.421875 C 199.777344 2.421875 210.957031 4.210938 219.027344 7.101562 Z M 163.699219 90.414062 C 163.636719 90.265625 163.601562 90.109375 163.601562 89.945312 C 163.601562 89.785156 163.632812 89.628906 163.695312 89.476562 C 163.753906 89.328125 163.84375 89.195312 163.960938 89.082031 C 164.074219 88.96875 164.207031 88.878906 164.359375 88.820312 C 164.511719 88.757812 164.667969 88.730469 164.828125 88.734375 C 164.992188 88.734375 165.148438 88.769531 165.296875 88.835938 C 165.445312 88.902344 165.574219 88.992188 165.683594 89.109375 C 165.796875 89.230469 165.882812 89.363281 165.9375 89.515625 L 166.292969 90.402344 C 166.355469 90.550781 166.382812 90.707031 166.382812 90.867188 C 166.378906 91.027344 166.347656 91.179688 166.285156 91.328125 C 166.222656 91.476562 166.132812 91.605469 166.019531 91.71875 C 165.90625 91.828125 165.773438 91.914062 165.625 91.976562 C 165.476562 92.035156 165.320312 92.0625 165.160156 92.0625 C 165 92.058594 164.847656 92.027344 164.699219 91.964844 C 164.554688 91.902344 164.425781 91.8125 164.3125 91.695312 C 164.199219 91.582031 164.113281 91.449219 164.054688 91.300781 Z M 165.007812 110.570312 C 165.160156 110.617188 165.296875 110.695312 165.417969 110.800781 C 165.539062 110.902344 165.636719 111.027344 165.710938 111.171875 C 165.78125 111.3125 165.824219 111.464844 165.835938 111.625 C 165.847656 111.785156 165.832031 111.941406 165.78125 112.09375 C 165.730469 112.246094 165.65625 112.382812 165.550781 112.503906 C 165.445312 112.625 165.324219 112.722656 165.179688 112.792969 C 165.039062 112.867188 164.886719 112.910156 164.726562 112.921875 C 164.566406 112.933594 164.410156 112.917969 164.257812 112.867188 L 163.9375 112.761719 L 163.867188 112.734375 L 163.617188 112.65625 C 163.464844 112.609375 163.328125 112.535156 163.203125 112.429688 C 163.082031 112.328125 162.984375 112.207031 162.910156 112.0625 C 162.835938 111.921875 162.792969 111.769531 162.78125 111.613281 C 162.765625 111.453125 162.785156 111.296875 162.832031 111.144531 C 162.878906 110.992188 162.957031 110.855469 163.058594 110.734375 C 163.160156 110.609375 163.285156 110.511719 163.425781 110.4375 C 163.566406 110.367188 163.71875 110.320312 163.875 110.308594 C 164.035156 110.292969 164.191406 110.3125 164.34375 110.359375 L 164.59375 110.4375 L 164.675781 110.464844 Z M 188.617188 278.640625 L 188.617188 255.328125 L 191.082031 258.992188 C 207.488281 283.316406 223.320312 306.792969 235 319.703125 C 237.011719 321.921875 238.949219 324.050781 240.808594 326.09375 C 237.789062 325.84375 234.808594 325.363281 231.867188 324.640625 C 228.925781 323.921875 226.058594 322.976562 223.265625 321.800781 C 220.472656 320.628906 217.789062 319.242188 215.214844 317.644531 C 212.640625 316.046875 210.210938 314.257812 207.917969 312.277344 C 194.109375 300.292969 188.617188 284.28125 188.617188 278.640625 Z M 134.003906 326.089844 C 135.867188 324.042969 137.804688 321.914062 139.8125 319.695312 C 151.492188 306.792969 167.324219 283.3125 183.726562 258.988281 L 186.195312 255.328125 L 186.195312 278.640625 C 186.195312 284.277344 180.703125 300.285156 166.890625 312.269531 C 164.601562 314.25 162.167969 316.039062 159.59375 317.640625 C 157.019531 319.238281 154.335938 320.621094 151.546875 321.796875 C 148.753906 322.96875 145.886719 323.917969 142.945312 324.636719 C 140 325.355469 137.019531 325.839844 134.003906 326.089844 Z M 304.472656 350.203125 C 304.582031 350.316406 304.667969 350.453125 304.722656 350.601562 C 304.78125 350.753906 304.804688 350.90625 304.800781 351.070312 C 304.792969 351.230469 304.757812 351.382812 304.691406 351.527344 C 304.625 351.675781 304.535156 351.804688 304.417969 351.914062 C 304.296875 352.023438 304.164062 352.105469 304.015625 352.160156 C 303.863281 352.214844 303.707031 352.242188 303.546875 352.234375 C 303.386719 352.230469 303.234375 352.191406 303.089844 352.125 C 302.941406 352.058594 302.816406 351.964844 302.707031 351.847656 C 299.097656 347.957031 289.511719 348.828125 289.484375 348.828125 C 289.320312 348.84375 289.164062 348.828125 289.011719 348.78125 C 288.855469 348.730469 288.71875 348.65625 288.59375 348.550781 C 288.46875 348.449219 288.371094 348.324219 288.296875 348.179688 C 288.222656 348.039062 288.179688 347.886719 288.164062 347.722656 C 288.152344 347.5625 288.171875 347.40625 288.21875 347.253906 C 288.269531 347.097656 288.347656 346.960938 288.453125 346.839844 C 288.558594 346.714844 288.683594 346.617188 288.828125 346.546875 C 288.96875 346.472656 289.125 346.429688 289.285156 346.417969 C 289.316406 346.417969 300.050781 345.4375 304.472656 350.203125 Z M 72.105469 351.847656 C 71.996094 351.964844 71.871094 352.0625 71.722656 352.128906 C 71.578125 352.199219 71.425781 352.238281 71.261719 352.246094 C 71.101562 352.25 70.945312 352.226562 70.792969 352.171875 C 70.640625 352.117188 70.503906 352.03125 70.386719 351.921875 C 70.269531 351.8125 70.175781 351.683594 70.109375 351.535156 C 70.042969 351.386719 70.007812 351.234375 70.003906 351.070312 C 70 350.910156 70.027344 350.753906 70.085938 350.601562 C 70.144531 350.453125 70.226562 350.316406 70.339844 350.203125 C 74.761719 345.4375 85.5 346.417969 85.527344 346.417969 C 85.691406 346.429688 85.84375 346.472656 85.984375 346.546875 C 86.128906 346.621094 86.253906 346.71875 86.359375 346.839844 C 86.464844 346.960938 86.539062 347.101562 86.589844 347.253906 C 86.640625 347.40625 86.65625 347.5625 86.644531 347.726562 C 86.632812 347.886719 86.585938 348.039062 86.511719 348.179688 C 86.441406 348.324219 86.339844 348.449219 86.21875 348.550781 C 86.09375 348.65625 85.957031 348.730469 85.800781 348.777344 C 85.648438 348.828125 85.492188 348.84375 85.328125 348.828125 C 85.300781 348.828125 75.714844 347.957031 72.105469 351.847656 Z M 69.667969 127.738281 C 69.734375 127.59375 69.828125 127.464844 69.945312 127.355469 C 70.0625 127.25 70.199219 127.167969 70.347656 127.113281 C 70.496094 127.054688 70.652344 127.03125 70.8125 127.039062 C 70.972656 127.042969 71.125 127.082031 71.269531 127.148438 C 71.414062 127.214844 71.542969 127.308594 71.648438 127.425781 C 71.757812 127.542969 71.839844 127.675781 71.894531 127.828125 C 71.953125 127.976562 71.976562 128.132812 71.96875 128.292969 C 71.964844 128.449219 71.925781 128.605469 71.859375 128.75 C 71.695312 129.117188 71.554688 129.492188 71.4375 129.878906 C 71.300781 130.324219 71.1875 130.773438 71.097656 131.230469 C 71.070312 131.390625 71.011719 131.539062 70.925781 131.671875 C 70.835938 131.808594 70.726562 131.921875 70.59375 132.015625 C 70.457031 132.105469 70.3125 132.167969 70.15625 132.199219 C 69.996094 132.230469 69.835938 132.234375 69.679688 132.203125 C 69.519531 132.171875 69.375 132.109375 69.238281 132.019531 C 69.105469 131.929688 68.992188 131.820312 68.902344 131.683594 C 68.8125 131.550781 68.753906 131.402344 68.722656 131.242188 C 68.691406 131.085938 68.695312 130.925781 68.726562 130.769531 C 68.835938 130.226562 68.96875 129.695312 69.132812 129.167969 C 69.28125 128.679688 69.460938 128.203125 69.667969 127.738281 Z M 76.402344 110.425781 C 76.492188 110.292969 76.609375 110.1875 76.742188 110.101562 C 76.878906 110.015625 77.027344 109.960938 77.183594 109.933594 C 77.339844 109.90625 77.5 109.914062 77.652344 109.949219 C 77.808594 109.984375 77.953125 110.046875 78.082031 110.140625 C 78.214844 110.234375 78.320312 110.347656 78.40625 110.484375 C 78.492188 110.621094 78.546875 110.765625 78.574219 110.925781 C 78.601562 111.082031 78.59375 111.238281 78.558594 111.394531 C 78.523438 111.550781 78.457031 111.695312 78.367188 111.824219 C 78.117188 112.183594 77.890625 112.558594 77.6875 112.949219 C 77.46875 113.359375 77.289062 113.746094 77.144531 114.074219 C 77.078125 114.222656 76.988281 114.351562 76.871094 114.460938 C 76.757812 114.570312 76.625 114.65625 76.476562 114.714844 C 76.328125 114.773438 76.171875 114.800781 76.011719 114.796875 C 75.851562 114.792969 75.699219 114.757812 75.550781 114.695312 C 75.40625 114.628906 75.277344 114.539062 75.164062 114.421875 C 75.054688 114.308594 74.96875 114.175781 74.910156 114.027344 C 74.855469 113.875 74.828125 113.722656 74.832031 113.5625 C 74.832031 113.402344 74.867188 113.246094 74.933594 113.101562 C 75.105469 112.710938 75.316406 112.261719 75.550781 111.816406 C 75.804688 111.332031 76.089844 110.871094 76.402344 110.425781 Z M 271.453125 234.550781 C 268.199219 232.199219 264.84375 229.800781 261.429688 227.363281 C 249.730469 219.007812 237.335938 210.15625 225.230469 200.292969 C 228.164062 196.609375 231 193.21875 233.71875 190.199219 C 236.289062 187.296875 239.027344 184.558594 241.929688 181.988281 C 247.390625 177.257812 263.988281 173.621094 277.882812 170.582031 C 279.105469 170.316406 280.300781 170.054688 281.46875 169.792969 C 280.828125 181.378906 279.601562 192.902344 277.792969 204.359375 C 276.273438 214.550781 274.160156 224.613281 271.453125 234.550781 Z M 283.90625 169.25 C 283.28125 181.140625 282.035156 192.964844 280.175781 204.726562 C 278.601562 215.308594 276.390625 225.753906 273.535156 236.058594 C 274.523438 236.78125 275.507812 237.5 276.476562 238.214844 C 276.605469 238.308594 276.714844 238.421875 276.800781 238.558594 C 276.886719 238.695312 276.941406 238.84375 276.964844 239.003906 C 276.992188 239.164062 276.984375 239.320312 276.949219 239.480469 C 276.910156 239.636719 276.84375 239.78125 276.75 239.910156 C 276.652344 240.039062 276.535156 240.148438 276.398438 240.230469 C 276.261719 240.3125 276.109375 240.367188 275.953125 240.390625 C 275.792969 240.414062 275.632812 240.40625 275.476562 240.367188 C 275.320312 240.328125 275.179688 240.257812 275.050781 240.160156 C 270.195312 236.585938 265.179688 233.007812 260.03125 229.332031 C 240.527344 215.402344 219.109375 200.105469 200.214844 181 C 189.554688 170.222656 181.050781 160.871094 174.457031 153.070312 C 166.078125 143.164062 160.742188 135.726562 157.953125 131.019531 C 156.660156 128.832031 154.707031 125.488281 152.691406 121.636719 C 150.59375 117.722656 148.757812 113.6875 147.183594 109.53125 C 146.148438 106.453125 144.738281 103.546875 142.964844 100.824219 C 141.59375 98.863281 140.222656 97.667969 138.878906 97.257812 C 135.644531 96.207031 132.503906 94.9375 129.449219 93.441406 C 126.953125 92.328125 124.617188 90.941406 122.441406 89.28125 C 121.140625 88.265625 119.664062 87.71875 118.011719 87.640625 C 116.4375 87.421875 114.960938 87.707031 113.582031 88.492188 C 111.953125 89.542969 110.230469 90.40625 108.414062 91.085938 C 107.265625 91.546875 106.0625 91.980469 104.914062 92.359375 L 105.21875 92.496094 C 105.714844 92.726562 106.269531 93.015625 106.960938 93.375 C 111.703125 95.976562 116.695312 97.96875 121.925781 99.351562 C 122.082031 99.390625 122.222656 99.457031 122.351562 99.550781 C 122.480469 99.644531 122.585938 99.761719 122.671875 99.898438 C 122.753906 100.03125 122.808594 100.179688 122.832031 100.335938 C 122.855469 100.496094 122.851562 100.652344 122.8125 100.808594 C 122.773438 100.960938 122.710938 101.105469 122.613281 101.234375 C 122.519531 101.363281 122.40625 101.46875 122.269531 101.550781 C 122.132812 101.636719 121.988281 101.691406 121.828125 101.714844 C 121.671875 101.738281 121.515625 101.734375 121.359375 101.695312 C 115.933594 100.273438 110.761719 98.214844 105.84375 95.519531 C 105.109375 95.136719 104.523438 94.832031 104.214844 94.6875 C 102.738281 94 101.214844 93.449219 99.636719 93.039062 C 97.90625 92.578125 96.148438 92.394531 94.359375 92.480469 C 91.605469 92.496094 88.863281 92.320312 86.136719 91.953125 C 83.175781 91.628906 80.246094 91.140625 77.339844 90.496094 C 76.710938 90.34375 76.078125 90.246094 75.433594 90.203125 C 74.820312 90.160156 74.210938 90.171875 73.601562 90.238281 C 64.03125 91.308594 55.710938 90.214844 50.191406 89.488281 L 48.777344 89.304688 C 47.71875 89.082031 46.699219 89.195312 45.714844 89.648438 C 45.378906 89.839844 45.152344 90.121094 45.035156 90.492188 C 44.917969 90.984375 44.941406 91.472656 45.105469 91.949219 C 45.667969 93.492188 46.613281 94.746094 47.941406 95.707031 C 50.21875 95.84375 52.65625 95.9375 55.246094 95.96875 C 56.34375 95.984375 57.433594 96.109375 58.507812 96.347656 C 59.574219 96.585938 60.605469 96.933594 61.601562 97.390625 C 64.015625 98.5 67.640625 100.105469 70.761719 101.429688 C 73.199219 102.464844 75.277344 103.308594 76.117188 103.566406 C 77.25 103.789062 78.390625 103.824219 79.535156 103.671875 C 81.652344 103.535156 83.980469 103.382812 86.355469 104.496094 C 86.5 104.5625 86.625 104.65625 86.730469 104.773438 C 86.839844 104.890625 86.921875 105.027344 86.976562 105.175781 C 87.03125 105.328125 87.054688 105.480469 87.046875 105.640625 C 87.039062 105.800781 87.003906 105.953125 86.933594 106.097656 C 86.867188 106.242188 86.773438 106.367188 86.65625 106.476562 C 86.539062 106.585938 86.40625 106.664062 86.253906 106.71875 C 86.105469 106.773438 85.949219 106.796875 85.789062 106.789062 C 85.628906 106.785156 85.476562 106.746094 85.332031 106.679688 C 83.527344 105.832031 81.515625 105.964844 79.6875 106.085938 C 78.25 106.269531 76.828125 106.199219 75.417969 105.871094 C 74.464844 105.582031 72.304688 104.707031 69.816406 103.652344 C 66.746094 102.347656 63.085938 100.726562 60.597656 99.585938 C 59.761719 99.199219 58.890625 98.90625 57.988281 98.703125 C 57.074219 98.5 56.152344 98.390625 55.214844 98.378906 C 50.1875 98.328125 45.171875 98.023438 40.171875 97.457031 C 35.929688 97.003906 31.746094 96.242188 27.617188 95.164062 C 26.871094 94.855469 26.125 94.863281 25.386719 95.183594 C 25.140625 95.367188 25 95.609375 24.960938 95.914062 C 24.882812 96.492188 24.9375 97.058594 25.128906 97.613281 C 25.773438 99.777344 27.828125 102.472656 31.238281 104.492188 C 31.859375 104.695312 32.550781 104.921875 33.300781 105.164062 C 33.453125 105.210938 33.585938 105.289062 33.707031 105.394531 C 33.828125 105.496094 33.921875 105.621094 33.996094 105.761719 C 34.066406 105.902344 34.109375 106.054688 34.121094 106.210938 C 34.132812 106.371094 34.117188 106.523438 34.066406 106.675781 C 34.019531 106.828125 33.941406 106.960938 33.839844 107.082031 C 33.738281 107.207031 33.617188 107.300781 33.476562 107.375 C 33.335938 107.449219 33.1875 107.492188 33.027344 107.507812 C 32.871094 107.523438 32.714844 107.507812 32.5625 107.460938 C 31.441406 107.097656 30.28125 106.714844 29.171875 106.347656 C 28.0625 105.976562 27.222656 105.691406 26.722656 105.515625 C 26.171875 105.28125 25.605469 105.234375 25.023438 105.375 C 24.769531 105.453125 24.550781 105.589844 24.367188 105.785156 C 24.167969 106 24.023438 106.246094 23.929688 106.523438 C 23.722656 107.113281 23.710938 107.707031 23.894531 108.304688 C 24.34375 109.738281 26.125 112.585938 29.171875 115.101562 C 31.511719 117.058594 34.167969 118.402344 37.128906 119.132812 L 37.21875 119.160156 C 41.28125 120.460938 46.621094 123.773438 51.117188 126.570312 C 53.582031 128.097656 55.789062 129.46875 57.359375 130.234375 C 59.566406 131.3125 61.65625 132.585938 63.628906 134.050781 C 65.523438 135.464844 67.308594 137.015625 68.976562 138.695312 C 69.167969 138.890625 69.28125 139.125 69.316406 139.398438 C 69.351562 139.671875 69.296875 139.925781 69.15625 140.164062 C 69.015625 140.402344 68.816406 140.570312 68.558594 140.667969 C 68.304688 140.769531 68.042969 140.78125 67.78125 140.703125 C 65.3125 139.976562 62.632812 139.058594 60.125 138.128906 C 57.164062 137.03125 54.421875 135.910156 52.53125 135.054688 C 51.902344 134.769531 51.253906 134.539062 50.585938 134.363281 C 49.949219 134.195312 49.300781 134.089844 48.640625 134.039062 C 45.90625 133.839844 42.726562 133.398438 39.605469 132.875 C 35.210938 132.132812 30.925781 131.21875 28.183594 130.589844 C 27.613281 130.421875 27.035156 130.410156 26.453125 130.546875 C 26.195312 130.617188 25.992188 130.765625 25.847656 130.992188 C 25.695312 131.269531 25.632812 131.566406 25.660156 131.882812 C 25.707031 132.515625 25.914062 133.09375 26.273438 133.617188 C 27.125 134.910156 29.253906 136.710938 32.210938 138.160156 C 34.765625 139.417969 37.457031 140.15625 40.292969 140.371094 C 40.417969 140.382812 40.535156 140.410156 40.652344 140.457031 C 44.933594 141.976562 50.386719 144.953125 55.152344 147.554688 C 57.988281 149.210938 60.914062 150.683594 63.933594 151.964844 C 64.15625 152.042969 64.34375 152.171875 64.488281 152.355469 C 67.773438 155.792969 71.476562 158.699219 75.597656 161.070312 C 79.660156 163.433594 83.972656 165.160156 88.542969 166.242188 C 91.226562 166.871094 94.261719 167.535156 97.4375 168.230469 C 111.601562 171.332031 128.523438 175.039062 134.457031 180.179688 C 149.800781 193.472656 171.917969 226.265625 193.085938 257.652344 C 209.457031 281.925781 225.257812 305.359375 236.785156 318.097656 C 242.054688 323.925781 247.414062 329.753906 252.402344 335.179688 C 264.277344 348.097656 274.015625 358.695312 280.523438 367.167969 C 280.726562 367.425781 280.925781 367.667969 281.125 367.890625 C 282.214844 369.117188 283.492188 370.105469 284.953125 370.847656 C 286.417969 371.59375 287.964844 372.046875 289.601562 372.207031 C 291.230469 372.375 292.832031 372.238281 294.40625 371.789062 C 295.984375 371.34375 297.421875 370.625 298.71875 369.625 C 298.976562 369.429688 299.214844 369.234375 299.433594 369.035156 C 310.917969 358.714844 320.515625 346.863281 328.226562 333.484375 C 336.28125 319.613281 342.171875 304.878906 345.902344 289.277344 C 352.214844 262.996094 352.183594 238.554688 352.160156 220.761719 C 352.148438 211.621094 352.140625 204.21875 352.984375 199.132812 C 353.105469 198.40625 353.25 197.582031 353.402344 196.660156 C 356.371094 179.1875 365.070312 128.027344 350.65625 113.433594 C 349.621094 114.738281 348.460938 115.921875 347.175781 116.980469 C 344.566406 119.15625 341.609375 120.65625 338.3125 121.476562 C 334.53125 122.695312 329.339844 125.917969 324.964844 128.632812 C 322.414062 130.214844 320.128906 131.628906 318.515625 132.417969 C 316.441406 133.429688 314.476562 134.621094 312.625 136 C 312.355469 136.199219 312.089844 136.398438 311.824219 136.605469 C 312.507812 136.363281 313.1875 136.117188 313.855469 135.871094 C 316.761719 134.792969 319.449219 133.695312 321.289062 132.863281 C 322.042969 132.519531 322.820312 132.246094 323.621094 132.035156 C 324.402344 131.832031 325.195312 131.699219 326 131.636719 C 328.660156 131.445312 331.761719 131.011719 334.808594 130.496094 C 339.152344 129.761719 343.378906 128.863281 346.089844 128.238281 C 347.082031 127.972656 348.074219 127.976562 349.066406 128.246094 C 349.910156 128.492188 350.5625 128.992188 351.023438 129.742188 C 351.433594 130.433594 351.613281 131.183594 351.5625 131.988281 C 351.492188 133.066406 351.152344 134.050781 350.550781 134.941406 C 349.5 136.535156 347.011719 138.695312 343.65625 140.335938 C 340.875 141.703125 337.941406 142.515625 334.855469 142.773438 C 330.742188 144.253906 325.441406 147.144531 320.808594 149.671875 C 317.9375 151.335938 314.980469 152.832031 311.9375 154.152344 C 308.523438 157.699219 304.683594 160.699219 300.421875 163.160156 C 296.15625 165.644531 291.621094 167.457031 286.816406 168.597656 C 285.871094 168.808594 284.902344 169.023438 283.90625 169.25 Z M 74.113281 119.699219 C 74.265625 119.753906 74.402344 119.835938 74.523438 119.945312 C 74.644531 120.054688 74.738281 120.183594 74.804688 120.332031 C 74.875 120.480469 74.910156 120.636719 74.914062 120.796875 C 74.921875 120.960938 74.894531 121.117188 74.835938 121.269531 C 74.777344 121.421875 74.691406 121.558594 74.578125 121.675781 C 74.464844 121.792969 74.332031 121.882812 74.183594 121.945312 C 74.03125 122.007812 73.875 122.042969 73.714844 122.042969 C 73.550781 122.042969 73.394531 122.011719 73.246094 121.949219 C 70.996094 121.078125 68.449219 119.898438 65.996094 118.65625 C 62.835938 117.054688 59.816406 115.363281 57.757812 114.117188 C 57.09375 113.714844 56.390625 113.386719 55.65625 113.128906 C 54.925781 112.875 54.171875 112.703125 53.402344 112.613281 C 52.023438 112.445312 50.699219 112.261719 49.347656 112.046875 C 48.027344 111.835938 46.785156 111.609375 45.574219 111.34375 C 45.175781 111.261719 44.648438 111.125 44.023438 110.953125 C 43.453125 110.800781 42.683594 110.578125 41.765625 110.3125 C 41.609375 110.269531 41.46875 110.199219 41.339844 110.097656 C 41.210938 110 41.109375 109.878906 41.027344 109.738281 C 40.949219 109.597656 40.898438 109.445312 40.882812 109.285156 C 40.863281 109.125 40.875 108.964844 40.921875 108.8125 C 40.964844 108.65625 41.039062 108.515625 41.140625 108.390625 C 41.242188 108.261719 41.363281 108.160156 41.507812 108.085938 C 41.648438 108.007812 41.800781 107.960938 41.964844 107.945312 C 42.125 107.929688 42.28125 107.949219 42.4375 107.996094 C 43.179688 108.214844 43.921875 108.421875 44.644531 108.621094 C 45.226562 108.777344 45.714844 108.898438 46.082031 108.980469 C 47.320312 109.25 48.511719 109.472656 49.726562 109.664062 C 50.90625 109.851562 52.222656 110.03125 53.695312 110.210938 C 55.59375 110.449219 57.363281 111.0625 59.003906 112.046875 C 61.046875 113.277344 64.007812 114.945312 67.085938 116.5 C 69.488281 117.71875 71.957031 118.867188 74.113281 119.699219 Z M 185.949219 251.378906 L 181.722656 257.636719 C 165.355469 281.910156 149.554688 305.34375 138.027344 318.082031 C 132.761719 323.902344 127.410156 329.722656 122.425781 335.148438 C 110.546875 348.070312 100.800781 358.671875 94.289062 367.148438 C 94.105469 367.382812 93.90625 367.625 93.6875 367.871094 L 93.636719 367.933594 C 92.546875 369.144531 91.277344 370.117188 89.824219 370.851562 C 88.371094 371.585938 86.832031 372.035156 85.210938 372.191406 C 83.582031 372.359375 81.980469 372.222656 80.40625 371.777344 C 78.828125 371.332031 77.390625 370.609375 76.09375 369.613281 C 75.835938 369.414062 75.597656 369.21875 75.378906 369.023438 C 63.894531 358.699219 54.296875 346.847656 46.585938 333.472656 C 38.53125 319.597656 32.640625 304.863281 28.910156 289.261719 C 22.597656 262.976562 22.628906 238.539062 22.652344 220.746094 C 22.664062 211.605469 22.671875 204.199219 21.828125 199.113281 C 21.707031 198.390625 21.566406 197.5625 21.410156 196.644531 C 18.441406 179.171875 9.742188 128.011719 24.15625 113.417969 C 25.191406 114.71875 26.351562 115.902344 27.636719 116.960938 C 30.246094 119.140625 33.203125 120.636719 36.5 121.457031 C 40.28125 122.679688 45.472656 125.898438 49.851562 128.617188 C 52.402344 130.199219 54.683594 131.617188 56.296875 132.402344 C 58.371094 133.414062 60.335938 134.609375 62.1875 135.984375 C 62.457031 136.183594 62.722656 136.386719 62.988281 136.589844 C 62.304688 136.351562 61.625 136.101562 60.953125 135.855469 C 58.050781 134.777344 55.363281 133.683594 53.523438 132.847656 C 52.769531 132.507812 51.992188 132.230469 51.191406 132.023438 C 50.410156 131.816406 49.617188 131.683594 48.8125 131.625 C 46.152344 131.429688 43.050781 130.996094 40.003906 130.484375 C 35.660156 129.75 31.433594 128.847656 28.722656 128.226562 C 27.730469 127.960938 26.738281 127.960938 25.746094 128.234375 C 24.902344 128.480469 24.25 128.976562 23.789062 129.726562 C 23.378906 130.421875 23.199219 131.167969 23.25 131.972656 C 23.320312 133.050781 23.660156 134.035156 24.261719 134.929688 C 25.3125 136.523438 27.800781 138.683594 31.15625 140.320312 C 33.933594 141.691406 36.871094 142.5 39.957031 142.757812 C 44.070312 144.238281 49.371094 147.128906 54.003906 149.65625 C 56.875 151.324219 59.832031 152.816406 62.875 154.136719 C 66.289062 157.683594 70.128906 160.6875 74.390625 163.144531 C 78.65625 165.628906 83.191406 167.441406 87.996094 168.582031 C 88.957031 168.804688 89.941406 169.03125 90.957031 169.261719 C 91.574219 181.167969 92.8125 193.015625 94.664062 204.792969 C 96.222656 215.351562 98.429688 225.777344 101.277344 236.0625 C 85.410156 247.613281 71.632812 258.542969 62.730469 270.414062 C 62.628906 270.542969 62.558594 270.683594 62.515625 270.84375 C 62.46875 271 62.460938 271.15625 62.480469 271.320312 C 62.5 271.480469 62.550781 271.632812 62.632812 271.769531 C 62.714844 271.910156 62.820312 272.03125 62.953125 272.128906 C 63.082031 272.226562 63.226562 272.292969 63.382812 272.332031 C 63.542969 272.375 63.699219 272.378906 63.859375 272.355469 C 64.023438 272.328125 64.171875 272.273438 64.308594 272.1875 C 64.449219 272.101562 64.5625 271.996094 64.65625 271.863281 C 75.53125 257.359375 94.066406 244.121094 114.773438 229.335938 C 126.496094 220.964844 138.90625 212.101562 151.074219 202.195312 C 161.839844 215.945312 173.945312 233.613281 185.949219 251.378906 Z M 149.582031 200.296875 C 137.492188 210.148438 125.089844 219.003906 113.378906 227.367188 C 109.972656 229.800781 106.632812 232.195312 103.359375 234.554688 C 100.660156 224.636719 98.554688 214.59375 97.046875 204.425781 C 95.246094 192.945312 94.027344 181.40625 93.390625 169.804688 C 94.546875 170.058594 95.726562 170.316406 96.929688 170.578125 C 110.824219 173.621094 127.421875 177.257812 132.882812 181.988281 C 137.800781 186.25 143.457031 192.597656 149.582031 200.296875 Z M 130.109375 100.5 C 130.269531 100.503906 130.421875 100.539062 130.570312 100.601562 C 130.714844 100.667969 130.84375 100.757812 130.957031 100.875 C 131.066406 100.988281 131.148438 101.121094 131.207031 101.273438 C 131.265625 101.421875 131.292969 101.574219 131.289062 101.734375 C 131.285156 101.894531 131.25 102.050781 131.183594 102.195312 C 131.121094 102.34375 131.03125 102.46875 130.914062 102.582031 C 130.796875 102.691406 130.667969 102.777344 130.515625 102.832031 C 130.367188 102.890625 130.214844 102.917969 130.054688 102.914062 L 129.304688 102.886719 C 129.144531 102.878906 128.992188 102.839844 128.847656 102.773438 C 128.703125 102.707031 128.574219 102.613281 128.46875 102.492188 C 128.359375 102.375 128.277344 102.238281 128.222656 102.089844 C 128.167969 101.9375 128.144531 101.78125 128.152344 101.621094 C 128.160156 101.464844 128.199219 101.308594 128.265625 101.164062 C 128.335938 101.019531 128.429688 100.894531 128.546875 100.785156 C 128.664062 100.679688 128.800781 100.597656 128.949219 100.542969 C 129.101562 100.488281 129.257812 100.464844 129.417969 100.472656 Z M 318.519531 280.988281 C 318.585938 281.132812 318.625 281.285156 318.628906 281.445312 C 318.636719 281.605469 318.613281 281.761719 318.558594 281.910156 C 318.503906 282.0625 318.425781 282.195312 318.316406 282.3125 C 318.207031 282.429688 318.082031 282.523438 317.9375 282.589844 C 317.792969 282.660156 317.640625 282.695312 317.480469 282.703125 C 317.320312 282.710938 317.167969 282.6875 317.015625 282.632812 C 316.867188 282.578125 316.730469 282.496094 316.613281 282.390625 C 316.496094 282.28125 316.402344 282.15625 316.335938 282.011719 C 313.671875 276.527344 310.296875 271.527344 306.203125 267.011719 C 301.53125 261.820312 296.492188 257.011719 291.082031 252.589844 C 290.960938 252.488281 290.859375 252.367188 290.785156 252.226562 C 290.710938 252.082031 290.667969 251.933594 290.652344 251.773438 C 290.636719 251.613281 290.65625 251.460938 290.703125 251.308594 C 290.75 251.152344 290.824219 251.015625 290.925781 250.894531 C 291.027344 250.769531 291.148438 250.671875 291.292969 250.597656 C 291.433594 250.523438 291.582031 250.480469 291.742188 250.464844 C 291.902344 250.449219 292.058594 250.464844 292.210938 250.511719 C 292.363281 250.5625 292.5 250.636719 292.621094 250.738281 C 298.128906 255.234375 303.261719 260.128906 308.015625 265.414062 C 312.261719 270.105469 315.761719 275.296875 318.515625 280.988281 Z M 285.785156 245.242188 C 285.914062 245.339844 286.015625 245.457031 286.09375 245.59375 C 286.175781 245.734375 286.222656 245.882812 286.246094 246.042969 C 286.265625 246.199219 286.253906 246.355469 286.210938 246.511719 C 286.171875 246.664062 286.101562 246.804688 286.003906 246.933594 C 285.90625 247.058594 285.789062 247.164062 285.648438 247.242188 C 285.507812 247.320312 285.359375 247.371094 285.203125 247.390625 C 285.042969 247.414062 284.886719 247.402344 284.734375 247.359375 C 284.578125 247.316406 284.4375 247.25 284.3125 247.148438 L 283.0625 246.1875 C 282.933594 246.089844 282.832031 245.972656 282.75 245.835938 C 282.667969 245.695312 282.617188 245.546875 282.597656 245.386719 C 282.574219 245.230469 282.585938 245.070312 282.625 244.917969 C 282.667969 244.761719 282.734375 244.621094 282.832031 244.492188 C 282.929688 244.367188 283.046875 244.261719 283.1875 244.179688 C 283.324219 244.101562 283.476562 244.050781 283.632812 244.027344 C 283.792969 244.007812 283.949219 244.019531 284.105469 244.058594 C 284.257812 244.101562 284.402344 244.171875 284.527344 244.269531 Z M 189.050781 165.867188 C 192.933594 170.058594 197.226562 174.535156 201.925781 179.300781 C 208.746094 186.148438 215.894531 192.636719 223.367188 198.765625 C 226.355469 195.011719 229.21875 191.589844 231.929688 188.582031 C 234.566406 185.605469 237.375 182.800781 240.355469 180.164062 C 246.289062 175.023438 263.210938 171.320312 277.378906 168.214844 C 280.550781 167.523438 283.585938 166.855469 286.265625 166.226562 C 290.835938 165.144531 295.152344 163.417969 299.210938 161.054688 C 303.332031 158.683594 307.039062 155.777344 310.324219 152.339844 C 310.472656 152.15625 310.65625 152.027344 310.878906 151.949219 C 313.898438 150.667969 316.824219 149.195312 319.65625 147.539062 C 324.417969 144.941406 329.878906 141.960938 334.160156 140.441406 C 334.273438 140.394531 334.394531 140.367188 334.515625 140.355469 C 337.355469 140.140625 340.046875 139.402344 342.597656 138.144531 C 345.558594 136.699219 347.683594 134.894531 348.535156 133.601562 C 348.898438 133.078125 349.101562 132.5 349.152344 131.867188 C 349.179688 131.550781 349.117188 131.253906 348.964844 130.976562 C 348.820312 130.75 348.617188 130.601562 348.359375 130.53125 C 347.777344 130.394531 347.199219 130.40625 346.625 130.570312 C 343.878906 131.203125 339.597656 132.113281 335.203125 132.859375 C 332.085938 133.382812 328.90625 133.828125 326.171875 134.023438 C 325.511719 134.070312 324.863281 134.179688 324.222656 134.347656 C 323.554688 134.523438 322.90625 134.753906 322.277344 135.039062 C 320.390625 135.894531 317.644531 137.015625 314.6875 138.113281 C 312.207031 139.027344 309.5625 139.9375 307.113281 140.664062 C 306.847656 140.761719 306.578125 140.769531 306.308594 140.679688 C 306.039062 140.589844 305.824219 140.425781 305.671875 140.1875 C 305.515625 139.945312 305.457031 139.683594 305.484375 139.402344 C 305.515625 139.117188 305.632812 138.875 305.832031 138.675781 C 307.5 136.996094 309.285156 135.449219 311.183594 134.035156 C 313.15625 132.570312 315.246094 131.296875 317.453125 130.214844 C 319.015625 129.453125 321.226562 128.085938 323.695312 126.554688 C 328.191406 123.761719 333.53125 120.449219 337.589844 119.144531 L 337.679688 119.117188 C 340.644531 118.386719 343.296875 117.042969 345.640625 115.085938 C 348.6875 112.570312 350.464844 109.722656 350.917969 108.289062 C 351.097656 107.691406 351.085938 107.097656 350.882812 106.507812 C 350.789062 106.230469 350.640625 105.984375 350.441406 105.769531 C 350.261719 105.574219 350.042969 105.4375 349.789062 105.359375 C 349.207031 105.21875 348.640625 105.265625 348.089844 105.5 C 346.058594 106.21875 341.324219 107.765625 337.007812 109.105469 C 333.695312 110.128906 330.636719 111.03125 329.238281 111.335938 C 328.027344 111.597656 326.785156 111.828125 325.464844 112.039062 C 324.109375 112.253906 322.789062 112.433594 321.40625 112.601562 C 319.847656 112.789062 318.394531 113.292969 317.054688 114.109375 C 316.085938 114.691406 314.820312 115.421875 313.332031 116.25 C 312.0625 116.949219 310.703125 117.679688 309.335938 118.378906 C 309.195312 118.449219 309.042969 118.492188 308.882812 118.507812 C 308.726562 118.519531 308.570312 118.5 308.417969 118.453125 C 308.265625 118.402344 308.128906 118.324219 308.007812 118.222656 C 307.886719 118.117188 307.789062 117.996094 307.714844 117.855469 C 307.644531 117.710938 307.601562 117.558594 307.585938 117.402344 C 307.574219 117.242188 307.59375 117.085938 307.640625 116.933594 C 307.691406 116.78125 307.769531 116.644531 307.871094 116.523438 C 307.976562 116.402344 308.097656 116.304688 308.238281 116.234375 C 309.628906 115.519531 310.960938 114.808594 312.167969 114.140625 C 313.464844 113.421875 314.71875 112.695312 315.804688 112.039062 C 316.617188 111.550781 317.472656 111.152344 318.371094 110.839844 C 319.265625 110.53125 320.179688 110.316406 321.117188 110.203125 C 322.589844 110.019531 323.90625 109.84375 325.089844 109.65625 C 326.300781 109.460938 327.492188 109.238281 328.730469 108.972656 C 330.09375 108.675781 333.074219 107.796875 336.304688 106.796875 C 338.78125 106.03125 341.410156 105.1875 343.578125 104.476562 C 346.992188 102.457031 349.042969 99.761719 349.6875 97.601562 C 349.878906 97.046875 349.933594 96.480469 349.855469 95.898438 C 349.816406 95.59375 349.675781 95.351562 349.429688 95.171875 C 348.691406 94.847656 347.945312 94.839844 347.199219 95.152344 C 343.074219 96.226562 338.886719 96.992188 334.648438 97.445312 C 329.648438 98.011719 324.636719 98.316406 319.605469 98.367188 C 318.667969 98.378906 317.746094 98.488281 316.832031 98.691406 C 315.929688 98.894531 315.0625 99.1875 314.222656 99.574219 C 311.734375 100.714844 308.078125 102.335938 305.003906 103.640625 C 302.515625 104.699219 300.355469 105.570312 299.402344 105.859375 C 297.992188 106.191406 296.570312 106.261719 295.132812 106.074219 C 293.304688 105.953125 291.292969 105.824219 289.488281 106.667969 C 289.34375 106.734375 289.191406 106.773438 289.03125 106.78125 C 288.871094 106.785156 288.71875 106.761719 288.566406 106.707031 C 288.417969 106.65625 288.28125 106.574219 288.164062 106.464844 C 288.046875 106.359375 287.953125 106.230469 287.886719 106.085938 C 287.820312 105.941406 287.78125 105.789062 287.773438 105.628906 C 287.765625 105.46875 287.789062 105.316406 287.84375 105.164062 C 287.898438 105.015625 287.980469 104.882812 288.089844 104.761719 C 288.195312 104.644531 288.324219 104.550781 288.46875 104.484375 C 290.84375 103.375 293.167969 103.523438 295.285156 103.664062 C 296.429688 103.816406 297.570312 103.777344 298.703125 103.554688 C 299.542969 103.300781 301.617188 102.453125 304.058594 101.417969 C 307.179688 100.09375 310.808594 98.488281 313.21875 97.382812 C 314.214844 96.925781 315.246094 96.578125 316.3125 96.339844 C 317.386719 96.097656 318.476562 95.972656 319.578125 95.957031 C 322.164062 95.925781 324.601562 95.832031 326.878906 95.695312 C 328.207031 94.734375 329.152344 93.480469 329.710938 91.9375 C 329.871094 91.460938 329.890625 90.976562 329.769531 90.484375 C 329.65625 90.113281 329.429688 89.832031 329.089844 89.640625 C 328.109375 89.1875 327.085938 89.070312 326.03125 89.292969 L 324.613281 89.480469 C 319.09375 90.207031 310.773438 91.304688 301.203125 90.230469 C 300.59375 90.160156 299.984375 90.148438 299.375 90.191406 C 298.730469 90.238281 298.09375 90.335938 297.46875 90.488281 C 294.5625 91.132812 291.628906 91.617188 288.671875 91.945312 C 285.941406 92.3125 283.199219 92.488281 280.445312 92.46875 C 278.65625 92.382812 276.898438 92.570312 275.167969 93.03125 C 273.59375 93.441406 272.066406 93.992188 270.589844 94.679688 C 270.285156 94.820312 269.699219 95.125 268.964844 95.507812 C 263.898438 98.285156 258.566406 100.382812 252.964844 101.800781 C 252.804688 101.839844 252.648438 101.847656 252.488281 101.824219 C 252.324219 101.800781 252.175781 101.746094 252.039062 101.660156 C 251.898438 101.574219 251.78125 101.46875 251.6875 101.335938 C 251.589844 101.203125 251.527344 101.058594 251.488281 100.898438 C 251.453125 100.742188 251.449219 100.582031 251.476562 100.421875 C 251.503906 100.261719 251.5625 100.113281 251.652344 99.976562 C 251.738281 99.839844 251.851562 99.722656 251.984375 99.632812 C 252.121094 99.542969 252.265625 99.480469 252.425781 99.445312 C 257.824219 98.074219 262.96875 96.042969 267.851562 93.359375 C 268.539062 93 269.089844 92.714844 269.589844 92.484375 L 269.890625 92.347656 C 268.746094 91.96875 267.542969 91.535156 266.390625 91.074219 C 264.578125 90.394531 262.855469 89.53125 261.226562 88.480469 C 259.847656 87.695312 258.367188 87.410156 256.792969 87.625 C 255.144531 87.703125 253.667969 88.253906 252.363281 89.269531 C 250.191406 90.929688 247.855469 92.316406 245.355469 93.429688 C 242.304688 94.921875 239.160156 96.195312 235.929688 97.246094 C 234.585938 97.65625 233.214844 98.851562 231.84375 100.8125 C 230.066406 103.535156 228.660156 106.4375 227.621094 109.519531 C 226.050781 113.675781 224.214844 117.707031 222.117188 121.625 C 220.097656 125.476562 218.148438 128.820312 216.851562 131.003906 C 213.425781 136.515625 209.652344 141.769531 205.527344 146.777344 C 201.191406 152.207031 195.738281 158.585938 189.050781 165.867188 Z M 302.644531 128.210938 C 302.535156 128.09375 302.453125 127.960938 302.394531 127.8125 C 302.339844 127.660156 302.316406 127.507812 302.320312 127.347656 C 302.324219 127.1875 302.363281 127.035156 302.429688 126.886719 C 302.496094 126.742188 302.585938 126.617188 302.703125 126.507812 C 302.820312 126.398438 302.953125 126.316406 303.105469 126.257812 C 303.253906 126.203125 303.410156 126.175781 303.570312 126.183594 C 303.730469 126.1875 303.882812 126.226562 304.027344 126.292969 C 304.171875 126.359375 304.300781 126.449219 304.410156 126.566406 C 304.851562 127.113281 305.183594 127.71875 305.410156 128.382812 C 305.703125 129.175781 305.929688 129.984375 306.089844 130.8125 C 306.117188 130.96875 306.113281 131.125 306.078125 131.28125 C 306.046875 131.433594 305.984375 131.578125 305.894531 131.707031 C 305.804688 131.839844 305.691406 131.945312 305.558594 132.035156 C 305.425781 132.121094 305.28125 132.179688 305.125 132.207031 C 304.972656 132.238281 304.816406 132.238281 304.660156 132.207031 C 304.503906 132.175781 304.359375 132.113281 304.230469 132.027344 C 304.097656 131.9375 303.988281 131.828125 303.898438 131.695312 C 303.808594 131.566406 303.75 131.421875 303.71875 131.265625 C 303.585938 130.574219 303.394531 129.894531 303.152344 129.234375 C 303.035156 128.867188 302.863281 128.527344 302.644531 128.210938 Z M 296.691406 112.195312 C 296.605469 112.058594 296.546875 111.914062 296.519531 111.753906 C 296.492188 111.597656 296.492188 111.4375 296.527344 111.28125 C 296.5625 111.125 296.625 110.980469 296.714844 110.847656 C 296.804688 110.71875 296.917969 110.609375 297.054688 110.523438 C 297.191406 110.433594 297.335938 110.378906 297.492188 110.347656 C 297.652344 110.320312 297.808594 110.324219 297.964844 110.359375 C 298.121094 110.394531 298.265625 110.457031 298.398438 110.546875 C 298.53125 110.640625 298.636719 110.753906 298.722656 110.890625 C 298.980469 111.296875 299.21875 111.714844 299.433594 112.148438 C 299.640625 112.558594 299.816406 112.949219 299.957031 113.277344 C 300.015625 113.421875 300.046875 113.574219 300.046875 113.734375 C 300.046875 113.894531 300.015625 114.046875 299.957031 114.191406 C 299.894531 114.339844 299.808594 114.46875 299.699219 114.582031 C 299.585938 114.695312 299.457031 114.785156 299.3125 114.847656 C 299.167969 114.90625 299.015625 114.941406 298.855469 114.941406 C 298.695312 114.945312 298.542969 114.917969 298.394531 114.859375 C 298.25 114.800781 298.117188 114.714844 298.003906 114.605469 C 297.890625 114.496094 297.800781 114.367188 297.734375 114.222656 C 297.613281 113.929688 297.457031 113.589844 297.28125 113.234375 C 297.105469 112.875 296.910156 112.53125 296.691406 112.195312 Z M 301.570312 121.949219 C 301.425781 122.003906 301.273438 122.023438 301.113281 122.019531 C 300.957031 122.011719 300.808594 121.976562 300.664062 121.910156 C 300.523438 121.847656 300.398438 121.757812 300.289062 121.640625 C 300.179688 121.527344 300.097656 121.398438 300.042969 121.25 C 299.984375 121.105469 299.957031 120.953125 299.960938 120.796875 C 299.960938 120.640625 299.992188 120.488281 300.054688 120.34375 C 300.113281 120.199219 300.199219 120.070312 300.3125 119.960938 C 300.421875 119.847656 300.550781 119.761719 300.695312 119.699219 L 301.195312 119.507812 C 301.339844 119.457031 301.492188 119.4375 301.648438 119.445312 C 301.800781 119.453125 301.949219 119.488281 302.089844 119.554688 C 302.234375 119.621094 302.355469 119.710938 302.464844 119.824219 C 302.570312 119.9375 302.652344 120.066406 302.707031 120.210938 C 302.765625 120.355469 302.792969 120.503906 302.789062 120.660156 C 302.789062 120.816406 302.757812 120.964844 302.699219 121.109375 C 302.640625 121.253906 302.558594 121.382812 302.449219 121.492188 C 302.339844 121.605469 302.214844 121.691406 302.070312 121.753906 Z M 244.761719 102.910156 C 244.601562 102.914062 244.449219 102.886719 244.296875 102.828125 C 244.148438 102.769531 244.015625 102.6875 243.902344 102.574219 C 243.785156 102.464844 243.695312 102.335938 243.628906 102.191406 C 243.566406 102.042969 243.53125 101.890625 243.527344 101.730469 C 243.523438 101.570312 243.550781 101.414062 243.609375 101.265625 C 243.664062 101.117188 243.75 100.984375 243.859375 100.867188 C 243.96875 100.753906 244.097656 100.660156 244.246094 100.597656 C 244.390625 100.53125 244.542969 100.496094 244.703125 100.492188 L 245.253906 100.472656 C 245.414062 100.46875 245.566406 100.492188 245.71875 100.546875 C 245.867188 100.601562 246.003906 100.683594 246.121094 100.792969 C 246.238281 100.902344 246.332031 101.027344 246.398438 101.175781 C 246.464844 101.320312 246.5 101.472656 246.507812 101.632812 C 246.511719 101.792969 246.488281 101.949219 246.433594 102.097656 C 246.378906 102.25 246.296875 102.382812 246.1875 102.5 C 246.078125 102.617188 245.953125 102.710938 245.804688 102.777344 C 245.660156 102.84375 245.507812 102.882812 245.347656 102.886719 Z M 58.480469 282.011719 C 58.414062 282.160156 58.320312 282.289062 58.203125 282.398438 C 58.085938 282.511719 57.953125 282.59375 57.800781 282.652344 C 57.648438 282.707031 57.492188 282.734375 57.328125 282.726562 C 57.167969 282.71875 57.011719 282.683594 56.867188 282.613281 C 56.71875 282.546875 56.59375 282.453125 56.484375 282.332031 C 56.375 282.210938 56.292969 282.074219 56.238281 281.921875 C 56.1875 281.769531 56.164062 281.613281 56.175781 281.449219 C 56.183594 281.289062 56.222656 281.132812 56.296875 280.988281 L 56.605469 280.332031 L 56.933594 279.679688 C 57.003906 279.535156 57.101562 279.410156 57.21875 279.304688 C 57.339844 279.203125 57.476562 279.125 57.628906 279.074219 C 57.78125 279.023438 57.9375 279.003906 58.09375 279.015625 C 58.253906 279.027344 58.40625 279.066406 58.546875 279.140625 C 58.691406 279.210938 58.816406 279.304688 58.917969 279.425781 C 59.023438 279.546875 59.101562 279.683594 59.152344 279.835938 C 59.203125 279.988281 59.222656 280.144531 59.210938 280.300781 C 59.199219 280.460938 59.160156 280.613281 59.085938 280.753906 L 58.78125 281.382812 Z M 58.480469 282.011719" fill-rule="evenodd"/></svg>