<svg xmlns="http://www.w3.org/2000/svg" xmlns:xlink="http://www.w3.org/1999/xlink" width="500" zoomAndPan="magnify" viewBox="0 0 375 225" height="300" preserveAspectRatio="xMidYMid meet" version="1.0"><defs><clipPath id="id1"><path d="M 3 81.816406 L 373 81.816406 L 373 143 L 3 143 Z M 3 81.816406 " clip-rule="nonzero"/></clipPath></defs><g clip-path="url(#id1)"><path fill="rgb(21.179199%, 27.059937%, 30.979919%)" d="M 327.5 125.210938 C 333.035156 123.496094 338.574219 121.996094 344.242188 121.035156 C 343.511719 120.277344 342.59375 120.355469 341.695312 120.53125 C 334.398438 121.957031 327.058594 123.148438 319.667969 123.933594 C 316.671875 124.25 313.726562 124.855469 310.734375 125.167969 C 307.667969 125.484375 304.59375 125.753906 301.542969 126.195312 C 300.300781 126.375 298.984375 126.484375 297.390625 127.277344 C 299.472656 127.882812 301.144531 127.066406 302.804688 127.667969 C 301.734375 127.832031 300.667969 128.046875 299.589844 128.152344 C 298.144531 128.300781 297.960938 128.335938 298.097656 129.921875 C 298.316406 132.46875 297.765625 134.878906 296.59375 137.140625 C 294.214844 141.738281 290.476562 143.375 285.539062 141.835938 C 281.457031 140.5625 278.472656 137.890625 276.417969 134.15625 C 276.046875 133.484375 275.761719 132.757812 275.773438 131.984375 C 275.789062 130.808594 275.152344 130.6875 274.167969 130.714844 C 272.597656 130.757812 271.042969 131.355469 269.457031 130.851562 C 267.296875 131.9375 265.046875 130.648438 262.808594 131.125 C 260.53125 131.605469 258.15625 131.65625 255.816406 131.792969 C 253.472656 131.929688 251.125 131.917969 248.78125 132.007812 C 243.125 132.222656 237.472656 132.488281 231.816406 132.675781 C 226.570312 132.847656 221.335938 132.789062 216.171875 131.636719 C 215.445312 131.472656 214.691406 131.390625 214.0625 130.921875 C 214.242188 130.609375 214.542969 130.6875 214.757812 130.742188 C 219.703125 132.011719 224.742188 131.78125 229.769531 131.644531 C 232.59375 131.566406 235.410156 131.511719 238.230469 131.820312 C 239.660156 131.976562 241.136719 131.945312 242.570312 131.78125 C 246.144531 131.378906 249.746094 131.773438 253.3125 131.316406 C 253.703125 131.265625 254.160156 131.40625 254.507812 130.910156 C 251.023438 130.695312 247.597656 130.515625 244.175781 130.257812 C 237.21875 129.734375 230.238281 130.261719 223.28125 129.777344 C 220.261719 129.570312 217.21875 129.6875 214.21875 129.136719 C 213.515625 129.007812 212.902344 128.984375 212.804688 128.019531 C 212.734375 127.324219 211.933594 127.488281 211.460938 127.269531 C 210.730469 126.933594 209.808594 126.816406 210.105469 125.59375 C 210.339844 124.613281 208.898438 125.050781 208.851562 124.070312 C 210.121094 123.480469 211.917969 123.941406 212.867188 122.472656 C 212.21875 121.636719 210.941406 122.390625 210.214844 121.398438 C 210.617188 120.9375 211.109375 121.109375 211.511719 121.203125 C 213.070312 121.558594 214.65625 121.605469 216.242188 121.675781 C 217.152344 121.714844 218.058594 121.609375 218.84375 121.148438 C 219.964844 120.488281 221.179688 120.410156 222.425781 120.304688 C 231.285156 119.558594 240.167969 119.128906 249 118.015625 C 260.089844 116.621094 271.199219 115.390625 282.296875 114.03125 C 296.75 112.265625 311.253906 110.984375 325.75 109.667969 C 335.3125 108.796875 344.816406 107.582031 354.308594 106.214844 C 355.332031 106.066406 356.398438 105.988281 357.347656 105.625 C 359.832031 104.671875 362.484375 104.664062 365.03125 104.085938 C 365.425781 103.996094 365.941406 103.871094 366.242188 104.039062 C 367.464844 104.726562 368.628906 104.355469 369.84375 104.085938 C 371.179688 103.792969 371.367188 103.957031 371.601562 105.316406 C 371.828125 106.605469 372.191406 107.867188 372.214844 109.199219 C 372.246094 110.742188 371.648438 111.863281 370.328125 112.617188 C 369.253906 113.234375 368.164062 113.824219 367.402344 114.859375 C 367.25 115.070312 366.992188 115.257812 366.746094 115.34375 C 363.386719 116.472656 360.777344 119.0625 357.382812 120.136719 C 353.101562 121.492188 348.738281 122.5 344.308594 123.199219 C 339.746094 123.921875 335.167969 124.570312 330.585938 125.191406 C 329.574219 125.328125 328.53125 125.210938 327.5 125.210938 Z M 221.78125 120.957031 C 221.78125 120.96875 221.78125 120.976562 221.78125 120.988281 C 222.628906 120.988281 223.472656 120.988281 224.320312 120.988281 C 224.320312 120.976562 224.320312 120.96875 224.320312 120.957031 C 223.472656 120.957031 222.625 120.957031 221.78125 120.957031 Z M 215.847656 122.566406 C 215.453125 122.300781 215.074219 122.433594 214.703125 122.613281 C 214.773438 122.722656 214.820312 122.867188 214.921875 122.9375 C 215.398438 123.273438 215.652344 122.992188 215.847656 122.566406 Z M 80.558594 131.199219 C 84.707031 133.234375 88.960938 133.730469 93.160156 131.027344 C 96.074219 129.152344 97.789062 126.578125 98.453125 123.203125 C 98.761719 121.625 98.910156 121.582031 100.371094 121.832031 C 104.582031 122.554688 108.789062 123.289062 113 124 C 121.363281 125.417969 129.746094 126.746094 138.160156 127.804688 C 143.214844 128.441406 148.195312 129.519531 153.265625 130.046875 C 154.613281 130.183594 155.707031 130.488281 156.347656 128.957031 C 156.445312 128.722656 156.695312 128.429688 156.910156 128.390625 C 158.417969 128.128906 158.292969 126.886719 158.519531 125.835938 C 158.675781 125.09375 158.449219 124.671875 157.679688 124.472656 C 156.960938 124.285156 156.09375 124.320312 155.59375 123.703125 C 154.875 122.824219 153.890625 122.539062 152.898438 122.296875 C 150.023438 121.582031 147.144531 120.855469 144.238281 120.277344 C 129.839844 117.40625 115.4375 114.523438 101.253906 110.683594 C 94.875 108.953125 88.394531 107.589844 82.105469 105.503906 C 64.300781 99.601562 46.484375 93.722656 28.207031 89.4375 C 24.003906 88.449219 19.980469 86.566406 15.53125 86.703125 C 15.28125 86.710938 15.03125 86.472656 14.769531 86.410156 C 12.644531 85.894531 10.605469 85.046875 8.355469 85.082031 C 6.863281 85.105469 5.46875 85.316406 4.257812 86.242188 C 2.78125 87.367188 2.65625 88.546875 4.074219 89.789062 C 4.816406 90.4375 4.828125 90.9375 4.402344 91.6875 C 3.914062 92.546875 4.085938 93.261719 4.761719 94.050781 C 5.414062 94.816406 6.128906 95.402344 7.007812 95.820312 C 11.691406 98.027344 16.355469 100.289062 21.234375 102.023438 C 38.199219 108.054688 55.214844 113.914062 73.011719 117.097656 C 74.964844 117.449219 74.960938 117.722656 74.621094 119.21875 C 74.503906 119.75 74.539062 120.320312 74.527344 120.496094 C 74.464844 125.371094 76.550781 129.234375 80.558594 131.199219 Z M 135.515625 106.132812 C 127.898438 103.878906 120.082031 102.414062 112.460938 100.179688 C 103.511719 97.558594 94.738281 94.402344 85.902344 91.449219 C 78.554688 88.996094 71.113281 86.914062 63.398438 85.980469 C 58.597656 85.398438 53.820312 84.71875 49.09375 83.679688 C 46.332031 83.070312 43.527344 82.644531 40.734375 82.199219 C 39.480469 82 38.199219 81.847656 37.050781 82.109375 C 36.839844 82.5625 36.992188 82.765625 37.15625 82.835938 C 38.976562 83.628906 40.582031 84.871094 42.558594 85.347656 C 48.261719 86.714844 53.84375 88.5625 59.644531 89.53125 C 61.203125 89.789062 62.738281 90.242188 64.257812 90.703125 C 71.585938 92.933594 78.945312 95.050781 86.351562 97.015625 C 100.359375 100.726562 114.410156 104.273438 128.527344 107.542969 C 133.054688 108.589844 137.664062 108.570312 142.222656 109.140625 C 142.351562 109.15625 142.488281 109.085938 143.121094 108.945312 C 140.289062 107.867188 137.964844 106.855469 135.515625 106.132812 Z M 332.050781 93.433594 C 324.121094 93.777344 316.191406 94.171875 308.328125 95.253906 C 296.980469 96.808594 285.8125 99.421875 274.46875 101.015625 C 268.113281 101.910156 261.878906 103.496094 255.515625 104.34375 C 251.34375 104.898438 247.160156 105.363281 243.035156 106.199219 C 241.789062 106.449219 240.550781 106.761719 239.257812 107.390625 C 239.828125 108.039062 240.367188 108.089844 240.898438 108.070312 C 246.203125 107.851562 251.515625 107.792969 256.8125 107.300781 C 261.632812 106.855469 266.347656 105.789062 271.105469 104.992188 C 279.542969 103.578125 288.035156 102.515625 296.421875 100.808594 C 302.167969 99.640625 307.929688 98.542969 313.789062 98.089844 C 317.984375 97.765625 322.183594 97.488281 326.375 97.09375 C 330.355469 96.722656 334.304688 96.136719 338.378906 94.210938 C 336.015625 93.75 334.046875 93.347656 332.050781 93.433594 Z M 305.925781 127.191406 C 305.546875 126.996094 305.152344 126.996094 304.535156 127.15625 C 305.09375 127.441406 305.511719 127.441406 305.925781 127.191406 Z M 264.582031 131.734375 C 264.457031 131.699219 264.328125 131.640625 264.199219 131.636719 C 264.074219 131.632812 263.949219 131.691406 263.824219 131.722656 C 263.921875 131.78125 264.019531 131.84375 264.140625 131.917969 C 264.277344 131.863281 264.429688 131.796875 264.582031 131.734375 Z M 264.582031 131.734375 " fill-opacity="1" fill-rule="nonzero"/><path fill="rgb(21.179199%, 27.059937%, 30.979919%)" d="M 327.5 125.210938 C 333.035156 123.496094 338.574219 121.996094 344.242188 121.035156 C 343.511719 120.277344 342.59375 120.355469 341.695312 120.53125 C 334.398438 121.957031 327.058594 123.148438 319.667969 123.933594 C 316.671875 124.25 313.726562 124.855469 310.734375 125.167969 C 307.667969 125.484375 304.59375 125.753906 301.542969 126.195312 C 300.300781 126.375 298.984375 126.484375 297.390625 127.277344 C 299.472656 127.882812 301.144531 127.066406 302.804688 127.667969 C 301.734375 127.832031 300.667969 128.046875 299.589844 128.152344 C 298.144531 128.300781 297.960938 128.335938 298.097656 129.921875 C 298.316406 132.46875 297.765625 134.878906 296.59375 137.140625 C 294.214844 141.738281 290.476562 143.375 285.539062 141.835938 C 281.457031 140.5625 278.472656 137.890625 276.417969 134.15625 C 276.046875 133.484375 275.761719 132.757812 275.773438 131.984375 C 275.789062 130.808594 275.152344 130.6875 274.167969 130.714844 C 272.597656 130.757812 271.042969 131.355469 269.457031 130.851562 C 267.296875 131.9375 265.046875 130.648438 262.808594 131.125 C 260.53125 131.605469 258.15625 131.65625 255.816406 131.792969 C 253.472656 131.929688 251.125 131.917969 248.78125 132.007812 C 243.125 132.222656 237.472656 132.488281 231.816406 132.675781 C 226.570312 132.847656 221.335938 132.789062 216.171875 131.636719 C 215.445312 131.472656 214.691406 131.390625 214.0625 130.921875 C 214.242188 130.609375 214.542969 130.6875 214.757812 130.742188 C 219.703125 132.011719 224.742188 131.78125 229.769531 131.644531 C 232.59375 131.566406 235.410156 131.511719 238.230469 131.820312 C 239.660156 131.976562 241.136719 131.945312 242.570312 131.78125 C 246.144531 131.378906 249.746094 131.773438 253.3125 131.316406 C 253.703125 131.265625 254.160156 131.40625 254.507812 130.910156 C 251.023438 130.695312 247.597656 130.515625 244.175781 130.257812 C 237.21875 129.734375 230.238281 130.261719 223.28125 129.777344 C 220.261719 129.570312 217.21875 129.6875 214.21875 129.136719 C 213.515625 129.007812 212.902344 128.984375 212.804688 128.019531 C 212.734375 127.324219 211.933594 127.488281 211.460938 127.269531 C 210.730469 126.933594 209.808594 126.816406 210.105469 125.59375 C 210.339844 124.613281 208.898438 125.050781 208.851562 124.070312 C 210.121094 123.480469 211.917969 123.941406 212.867188 122.472656 C 212.21875 121.636719 210.941406 122.390625 210.214844 121.398438 C 210.617188 120.9375 211.109375 121.109375 211.511719 121.203125 C 213.070312 121.558594 214.65625 121.605469 216.242188 121.675781 C 217.152344 121.714844 218.058594 121.609375 218.84375 121.148438 C 219.964844 120.488281 221.179688 120.410156 222.425781 120.304688 C 231.285156 119.558594 240.167969 119.128906 249 118.015625 C 260.089844 116.621094 271.199219 115.390625 282.296875 114.03125 C 296.75 112.265625 311.253906 110.984375 325.75 109.667969 C 335.3125 108.796875 344.816406 107.582031 354.308594 106.214844 C 355.332031 106.066406 356.398438 105.988281 357.347656 105.625 C 359.832031 104.671875 362.484375 104.664062 365.03125 104.085938 C 365.425781 103.996094 365.941406 103.871094 366.242188 104.039062 C 367.464844 104.726562 368.628906 104.355469 369.84375 104.085938 C 371.179688 103.792969 371.367188 103.957031 371.601562 105.316406 C 371.828125 106.605469 372.191406 107.867188 372.214844 109.199219 C 372.246094 110.742188 371.648438 111.863281 370.328125 112.617188 C 369.253906 113.234375 368.164062 113.824219 367.402344 114.859375 C 367.25 115.070312 366.992188 115.257812 366.746094 115.34375 C 363.386719 116.472656 360.777344 119.0625 357.382812 120.136719 C 353.101562 121.492188 348.738281 122.5 344.308594 123.199219 C 339.746094 123.921875 335.167969 124.570312 330.585938 125.191406 C 329.574219 125.328125 328.53125 125.210938 327.5 125.210938 Z M 221.78125 120.957031 C 221.78125 120.96875 221.78125 120.976562 221.78125 120.988281 C 222.628906 120.988281 223.472656 120.988281 224.320312 120.988281 C 224.320312 120.976562 224.320312 120.96875 224.320312 120.957031 C 223.472656 120.957031 222.625 120.957031 221.78125 120.957031 Z M 215.847656 122.566406 C 215.453125 122.300781 215.074219 122.433594 214.703125 122.613281 C 214.773438 122.722656 214.820312 122.867188 214.921875 122.9375 C 215.398438 123.273438 215.652344 122.992188 215.847656 122.566406 Z M 80.558594 131.199219 C 84.707031 133.234375 88.960938 133.730469 93.160156 131.027344 C 96.074219 129.152344 97.789062 126.578125 98.453125 123.203125 C 98.761719 121.625 98.910156 121.582031 100.371094 121.832031 C 104.582031 122.554688 108.789062 123.289062 113 124 C 121.363281 125.417969 129.746094 126.746094 138.160156 127.804688 C 143.214844 128.441406 148.195312 129.519531 153.265625 130.046875 C 154.613281 130.183594 155.707031 130.488281 156.347656 128.957031 C 156.445312 128.722656 156.695312 128.429688 156.910156 128.390625 C 158.417969 128.128906 158.292969 126.886719 158.519531 125.835938 C 158.675781 125.09375 158.449219 124.671875 157.679688 124.472656 C 156.960938 124.285156 156.09375 124.320312 155.59375 123.703125 C 154.875 122.824219 153.890625 122.539062 152.898438 122.296875 C 150.023438 121.582031 147.144531 120.855469 144.238281 120.277344 C 129.839844 117.40625 115.4375 114.523438 101.253906 110.683594 C 94.875 108.953125 88.394531 107.589844 82.105469 105.503906 C 64.300781 99.601562 46.484375 93.722656 28.207031 89.4375 C 24.003906 88.449219 19.980469 86.566406 15.53125 86.703125 C 15.28125 86.710938 15.03125 86.472656 14.769531 86.410156 C 12.644531 85.894531 10.605469 85.046875 8.355469 85.082031 C 6.863281 85.105469 5.46875 85.316406 4.257812 86.242188 C 2.78125 87.367188 2.65625 88.546875 4.074219 89.789062 C 4.816406 90.4375 4.828125 90.9375 4.402344 91.6875 C 3.914062 92.546875 4.085938 93.261719 4.761719 94.050781 C 5.414062 94.816406 6.128906 95.402344 7.007812 95.820312 C 11.691406 98.027344 16.355469 100.289062 21.234375 102.023438 C 38.199219 108.054688 55.214844 113.914062 73.011719 117.097656 C 74.964844 117.449219 74.960938 117.722656 74.621094 119.21875 C 74.503906 119.75 74.539062 120.320312 74.527344 120.496094 C 74.464844 125.371094 76.550781 129.234375 80.558594 131.199219 Z M 135.515625 106.132812 C 127.898438 103.878906 120.082031 102.414062 112.460938 100.179688 C 103.511719 97.558594 94.738281 94.402344 85.902344 91.449219 C 78.554688 88.996094 71.113281 86.914062 63.398438 85.980469 C 58.597656 85.398438 53.820312 84.71875 49.09375 83.679688 C 46.332031 83.070312 43.527344 82.644531 40.734375 82.199219 C 39.480469 82 38.199219 81.847656 37.050781 82.109375 C 36.839844 82.5625 36.992188 82.765625 37.15625 82.835938 C 38.976562 83.628906 40.582031 84.871094 42.558594 85.347656 C 48.261719 86.714844 53.84375 88.5625 59.644531 89.53125 C 61.203125 89.789062 62.738281 90.242188 64.257812 90.703125 C 71.585938 92.933594 78.945312 95.050781 86.351562 97.015625 C 100.359375 100.726562 114.410156 104.273438 128.527344 107.542969 C 133.054688 108.589844 137.664062 108.570312 142.222656 109.140625 C 142.351562 109.15625 142.488281 109.085938 143.121094 108.945312 C 140.289062 107.867188 137.964844 106.855469 135.515625 106.132812 Z M 332.050781 93.433594 C 324.121094 93.777344 316.191406 94.171875 308.328125 95.253906 C 296.980469 96.808594 285.8125 99.421875 274.46875 101.015625 C 268.113281 101.910156 261.878906 103.496094 255.515625 104.34375 C 251.34375 104.898438 247.160156 105.363281 243.035156 106.199219 C 241.789062 106.449219 240.550781 106.761719 239.257812 107.390625 C 239.828125 108.039062 240.367188 108.089844 240.898438 108.070312 C 246.203125 107.851562 251.515625 107.792969 256.8125 107.300781 C 261.632812 106.855469 266.347656 105.789062 271.105469 104.992188 C 279.542969 103.578125 288.035156 102.515625 296.421875 100.808594 C 302.167969 99.640625 307.929688 98.542969 313.789062 98.089844 C 317.984375 97.765625 322.183594 97.488281 326.375 97.09375 C 330.355469 96.722656 334.304688 96.136719 338.378906 94.210938 C 336.015625 93.75 334.046875 93.347656 332.050781 93.433594 Z M 305.925781 127.191406 C 305.546875 126.996094 305.152344 126.996094 304.535156 127.15625 C 305.09375 127.441406 305.511719 127.441406 305.925781 127.191406 Z M 264.582031 131.734375 C 264.457031 131.699219 264.328125 131.640625 264.199219 131.636719 C 264.074219 131.632812 263.949219 131.691406 263.824219 131.722656 C 263.921875 131.78125 264.019531 131.84375 264.140625 131.917969 C 264.277344 131.863281 264.429688 131.796875 264.582031 131.734375 Z M 264.582031 131.734375 " fill-opacity="1" fill-rule="nonzero"/></g></svg>