<svg xmlns="http://www.w3.org/2000/svg" width="224.88" viewBox="0 0 224.88 375" height="375" version="1.0"><defs><clipPath id="a"><path d="M 58 0.101562 L 167 0.101562 L 167 374.898438 L 58 374.898438 Z M 58 0.101562"/></clipPath></defs><g clip-path="url(#a)"><path fill="#36454F" d="M 149.425781 374.023438 C 144.488281 373.074219 140.730469 371.789062 140.242188 370.875 C 139.980469 370.390625 140.019531 370.066406 140.425781 369.3125 C 140.921875 368.386719 140.917969 368.296875 140.171875 365.660156 C 138.394531 359.351562 136.660156 350.226562 131.019531 317.445312 C 126.851562 293.242188 126.148438 288.824219 123.867188 272.242188 C 123.144531 266.972656 122.476562 262.589844 122.386719 262.503906 C 122.296875 262.414062 122.3125 263.914062 122.417969 265.832031 C 123.0625 277.675781 123.210938 283.339844 123.351562 301.886719 C 123.527344 324.164062 123.464844 326.359375 121.933594 352.890625 C 120.878906 371.34375 121.113281 370.066406 118.480469 371.398438 C 111.894531 374.746094 96.515625 374.9375 95.699219 371.695312 C 95.4375 370.644531 96.03125 369.386719 97.34375 368.199219 C 99.847656 365.929688 102.8125 365.019531 107.625 365.046875 C 111.648438 365.078125 114.605469 365.613281 117.191406 366.828125 L 118.976562 367.664062 L 119.335938 360.949219 C 119.527344 357.25 119.941406 349.914062 120.253906 344.632812 C 121.570312 322.203125 121.710938 299.902344 120.6875 274.265625 C 119.84375 253.144531 118.964844 242.507812 116.933594 229.054688 C 113.65625 207.351562 112.515625 188.253906 113.253906 167.554688 C 113.558594 159.039062 114.542969 143.273438 114.878906 141.53125 C 114.957031 141.128906 115.34375 136.550781 115.753906 131.351562 C 116.152344 126.15625 116.550781 121.378906 116.636719 120.742188 C 116.785156 119.609375 116.773438 119.597656 116.371094 120.300781 C 115.707031 121.476562 105.597656 145.21875 103.121094 151.425781 C 99.15625 161.367188 95.839844 170.351562 91.410156 183.164062 C 88.441406 191.753906 88.082031 192.390625 86.246094 192.410156 C 85.238281 192.410156 81.726562 176.054688 79.476562 160.832031 C 78.929688 157.132812 78.03125 151.835938 77.484375 149.058594 C 76.101562 142.035156 76.003906 141.113281 76.597656 140.519531 C 76.871094 140.246094 77.191406 140.144531 77.335938 140.292969 C 77.929688 140.886719 80.382812 152.167969 81.492188 159.414062 C 83.007812 169.285156 85.871094 183.914062 87.121094 188.195312 L 87.375 189.070312 L 87.664062 188.34375 C 87.820312 187.949219 88.808594 185.132812 89.863281 182.09375 C 94.953125 167.355469 100.652344 152.363281 104.738281 142.960938 C 106.625 138.625 110.390625 130.171875 112.589844 125.34375 C 116.875 115.933594 117.191406 114.960938 118.066406 108.820312 C 118.492188 105.78125 119.226562 101.171875 119.691406 98.578125 C 120.164062 95.980469 120.546875 93.660156 120.546875 93.414062 C 120.546875 93.074219 120.195312 92.972656 119.054688 92.972656 C 114.714844 92.972656 107.792969 91.25 102.6875 88.898438 C 99.511719 87.4375 96.160156 85.4375 96.171875 85.015625 C 96.179688 84.832031 96.484375 84.316406 96.847656 83.867188 L 97.515625 83.042969 L 99.089844 83.984375 C 101.785156 85.589844 105.785156 87.488281 108.347656 88.382812 C 112.949219 89.984375 115.542969 90.40625 121.847656 90.558594 C 127.238281 90.691406 127.90625 90.648438 131.152344 89.972656 C 139.519531 88.226562 147.273438 84.007812 152.15625 78.53125 C 157.140625 72.941406 161.21875 64.65625 162.007812 58.511719 C 162.109375 57.714844 162.1875 54.707031 162.179688 51.828125 C 162.160156 46.890625 162.109375 46.394531 161.230469 43.105469 C 159.769531 37.609375 158.265625 34.1875 155.425781 29.875 C 150.101562 21.785156 139.246094 14.222656 130.144531 12.246094 C 124.011719 10.917969 116 11.054688 110.488281 12.566406 L 109.078125 12.957031 L 110.386719 12.996094 C 111.097656 12.996094 111.882812 13.148438 112.121094 13.300781 C 113.023438 13.871094 111.851562 14.285156 108.722656 14.5 C 98.808594 15.183594 90.804688 21.417969 85.417969 32.640625 C 83.871094 35.871094 82.460938 39.972656 81.796875 43.203125 C 81.160156 46.261719 80.683594 53.4375 80.90625 56.464844 C 81.5 64.535156 83.785156 69.949219 89.238281 76.121094 L 91.511719 78.714844 L 91.027344 79.742188 C 90.753906 80.304688 90.371094 80.765625 90.171875 80.765625 C 89.703125 80.765625 85.929688 76.59375 84.308594 74.285156 C 82.089844 71.109375 80.472656 67.375 79.394531 62.9375 C 78.59375 59.617188 78.6875 48.882812 79.5625 44.5 C 82.109375 31.695312 89.652344 20.351562 98.625 15.816406 C 100.671875 14.78125 108.816406 11.808594 113.140625 10.503906 C 114.421875 10.121094 115.632812 9.75 115.835938 9.675781 C 116.117188 9.574219 116.070312 9.277344 115.644531 8.441406 C 114.910156 7.019531 113.417969 5.601562 112.0625 5.03125 C 109.601562 4.011719 105.484375 4.859375 103.550781 6.796875 C 103.011719 7.339844 102.488281 7.785156 102.394531 7.785156 C 102.296875 7.785156 102.578125 7.128906 103.011719 6.328125 C 104.667969 3.277344 108.796875 1.847656 112.941406 2.894531 C 114.828125 3.367188 117.371094 5.90625 117.914062 7.855469 L 118.296875 9.234375 L 122.394531 9.273438 C 126.804688 9.3125 128.320312 9.398438 130.503906 9.839844 C 132.476562 10.242188 132.445312 10.261719 132.441406 8.742188 C 132.421875 6.015625 130.445312 3.269531 127.992188 2.582031 C 127.15625 2.34375 125.632812 2.25 123.886719 2.324219 C 120.679688 2.464844 120.476562 2.199219 123.03125 1.164062 C 125.25 0.269531 128.570312 0.175781 130.214844 0.960938 C 131.730469 1.6875 132.980469 3.003906 133.804688 4.746094 C 134.363281 5.933594 134.480469 6.621094 134.441406 8.488281 L 134.390625 10.773438 L 136.429688 11.570312 C 139.09375 12.613281 143.695312 15.078125 146.148438 16.78125 C 154.066406 22.285156 159.492188 29.367188 162.453125 38.070312 C 164.207031 43.207031 164.730469 46.273438 164.738281 51.417969 C 164.742188 58.199219 163.851562 62.242188 161 68.261719 C 157.867188 74.898438 152.804688 81.1875 147.550781 84.972656 C 141.0625 89.652344 131.558594 92.996094 124.734375 92.996094 C 123.40625 92.996094 122.539062 93.132812 122.363281 93.363281 C 121.796875 94.097656 119.238281 111.800781 119.632812 112.304688 C 119.769531 112.484375 119.964844 113.160156 120.066406 113.820312 C 120.164062 114.476562 120.710938 116.707031 121.277344 118.769531 C 124.753906 131.417969 127.339844 151 131.132812 193.316406 C 133.582031 220.570312 133.835938 223.300781 134.917969 233.050781 C 136.109375 243.785156 137.238281 251.28125 139.011719 260.195312 C 140.714844 268.75 141.082031 270.078125 141.753906 270.078125 C 142.664062 270.078125 146.628906 275.542969 148.675781 279.628906 C 150.542969 283.351562 151.070312 285.453125 151.097656 289.269531 C 151.121094 293.242188 150.664062 294.609375 149.082031 295.273438 C 148.261719 295.617188 147.980469 295.617188 147.132812 295.273438 C 145.15625 294.449219 142.433594 291.046875 141.121094 287.769531 C 139.449219 283.621094 138.71875 277.867188 139.375 274.085938 C 139.679688 272.351562 139.65625 271.960938 139.121094 270.371094 C 138.367188 268.144531 137.054688 262.453125 135.945312 256.667969 C 133.859375 245.746094 132.40625 233.210938 129.832031 203.9375 C 129.183594 196.582031 128.265625 186.117188 127.78125 180.675781 C 125.867188 158.933594 123.847656 141.332031 122.144531 131.683594 C 121.101562 125.746094 119.125 117.011719 118.882812 117.253906 C 118.761719 117.382812 117.542969 132.285156 116.351562 148.253906 C 115.523438 159.40625 115.253906 168.953125 115.402344 182.285156 C 115.59375 200.320312 116.671875 213.300781 119.246094 228.652344 C 120.769531 237.75 122.363281 247.941406 124.753906 263.910156 C 128.011719 285.617188 129.105469 292.648438 130.265625 299.3125 C 130.796875 302.351562 132.292969 310.984375 133.59375 318.5 C 139.15625 350.597656 140.980469 360.085938 142.734375 366.09375 L 143.210938 367.742188 L 144.429688 367.203125 C 147.171875 366.003906 154.421875 365.027344 159.121094 365.230469 C 164.117188 365.449219 166.699219 366.96875 166.699219 369.6875 C 166.699219 371.324219 165.578125 372.671875 163.4375 373.628906 C 162.039062 374.253906 161.449219 374.316406 156.679688 374.382812 C 153.238281 374.425781 150.765625 374.316406 149.425781 374.0625 Z M 163.570312 371.679688 C 164.921875 371.003906 165.195312 370.25 164.460938 369.261719 C 163.683594 368.21875 162.148438 367.492188 159.980469 367.128906 C 157.019531 366.636719 149.917969 367.261719 145.710938 368.378906 C 143.726562 368.910156 143.453125 369.0625 143.53125 369.59375 C 143.632812 370.289062 145.371094 370.921875 149.714844 371.832031 C 153.378906 372.601562 161.933594 372.511719 163.570312 371.679688 Z M 114.28125 370.984375 C 116.1875 370.492188 117.863281 369.964844 118.015625 369.816406 C 118.410156 369.421875 115.703125 368.113281 113.105469 367.449219 C 107.3125 365.964844 100.84375 366.71875 98.203125 369.191406 C 97.140625 370.1875 97.109375 370.503906 98.007812 371.09375 C 99.207031 371.878906 101.097656 372.089844 106.027344 371.980469 C 110.21875 371.890625 111.246094 371.761719 114.28125 370.984375 Z M 149.09375 292.40625 C 149.675781 289.527344 148.9375 285.523438 147.136719 281.800781 C 145.527344 278.449219 141.949219 272.957031 141.390625 272.957031 C 140.988281 272.957031 141.128906 279.496094 141.574219 281.621094 C 142.484375 285.949219 144.609375 290.132812 146.984375 292.285156 C 148.382812 293.546875 148.867188 293.574219 149.09375 292.398438 Z M 82.371094 200.359375 C 81.089844 199.683594 80.492188 199.109375 79.566406 197.667969 C 78.65625 196.234375 78.4375 194.449219 79.171875 194.449219 C 79.414062 194.449219 79.949219 195.003906 80.371094 195.6875 C 80.792969 196.363281 81.414062 197.230469 81.753906 197.613281 C 82.652344 198.625 85.082031 199.675781 86.507812 199.675781 C 88.199219 199.675781 88.058594 200.058594 86.210938 200.488281 C 84.21875 200.953125 83.4375 200.921875 82.371094 200.359375 Z M 69.609375 138.839844 C 69.070312 137.117188 68.839844 136.011719 68.417969 133.242188 C 68.15625 131.480469 67.898438 129.890625 67.84375 129.699219 C 67.789062 129.511719 67.117188 129.078125 66.355469 128.742188 C 64.539062 127.9375 63.773438 127.183594 63.179688 125.632812 C 62.28125 123.269531 63.1875 118.035156 64.976562 115.289062 L 65.683594 114.203125 L 65.109375 110.199219 C 64.796875 108.003906 64.199219 103.917969 63.785156 101.121094 C 63.257812 97.539062 63.117188 95.859375 63.3125 95.425781 C 63.714844 94.542969 65.136719 94.429688 75.460938 94.429688 C 82.003906 94.421875 84.285156 94.332031 84.457031 94.070312 C 84.589844 93.871094 86.71875 89.785156 89.191406 84.984375 C 93.214844 77.175781 93.769531 76.242188 94.417969 76.210938 C 95.175781 76.167969 101.355469 73.371094 107.421875 70.320312 C 109.386719 69.335938 111.113281 68.601562 111.273438 68.695312 C 112.183594 69.265625 112.984375 72.890625 112.316406 73.449219 C 112.121094 73.613281 110.195312 74.679688 108.046875 75.816406 C 103.589844 78.171875 99.5625 80.597656 96.941406 82.5 C 95.203125 83.765625 95.0625 83.96875 92.613281 88.753906 C 91.226562 91.472656 90.085938 93.859375 90.078125 94.058594 C 90.066406 94.300781 90.542969 94.421875 91.53125 94.421875 L 93.003906 94.421875 L 92.820312 96.527344 C 92.542969 99.585938 91.25 111.246094 91.039062 112.503906 C 90.867188 113.5625 90.875 113.578125 92.128906 113.910156 C 93.78125 114.355469 95.71875 116.328125 96.179688 118.039062 C 96.363281 118.742188 96.457031 120.421875 96.386719 121.902344 C 96.28125 124.265625 96.160156 124.726562 95.125 126.691406 C 93.792969 129.214844 93.226562 129.597656 90.761719 129.601562 L 88.988281 129.601562 L 88.796875 131.824219 C 88.695312 133.050781 88.613281 134.597656 88.613281 135.261719 C 88.613281 136.632812 87.707031 138.746094 87 139.015625 C 86.746094 139.117188 82.746094 139.199219 78.125 139.199219 C 71.664062 139.199219 69.699219 139.117188 69.609375 138.835938 Z M 86.679688 132.9375 L 86.871094 128.703125 L 86.035156 127.992188 C 84.78125 126.933594 84.257812 125.574219 84.257812 123.378906 C 84.257812 120.21875 85.871094 116.234375 87.910156 114.34375 L 88.855469 113.46875 L 89.9375 105.105469 C 90.535156 100.507812 90.964844 96.683594 90.886719 96.605469 C 90.726562 96.445312 65.367188 96.382812 65.214844 96.535156 C 65.15625 96.59375 65.691406 100.167969 66.40625 104.472656 C 67.117188 108.78125 67.707031 112.59375 67.707031 112.945312 C 67.710938 113.417969 68.042969 113.730469 68.980469 114.144531 C 71.320312 115.1875 72.613281 117.617188 72.632812 121.046875 C 72.652344 123.542969 72.101562 125.492188 70.859375 127.425781 C 70.335938 128.222656 69.957031 129.007812 70.007812 129.167969 C 70.050781 129.328125 70.34375 131.03125 70.648438 132.949219 C 70.957031 134.871094 71.261719 136.601562 71.339844 136.804688 C 71.433594 137.078125 73.230469 137.164062 78.980469 137.164062 L 86.488281 137.164062 L 86.679688 132.929688 Z M 74.015625 133.34375 C 73.359375 132.972656 73.382812 132.167969 74.109375 130.738281 C 74.640625 129.699219 74.8125 129.582031 75.632812 129.660156 C 77.535156 129.851562 77.324219 132.476562 75.339844 133.285156 C 74.792969 133.511719 74.347656 133.535156 74.015625 133.34375 Z M 75.789062 131.824219 C 75.921875 130.683594 75.355469 130.152344 74.804688 130.898438 C 74.578125 131.207031 74.386719 131.773438 74.386719 132.15625 C 74.386719 132.707031 74.519531 132.828125 75.042969 132.75 C 75.519531 132.6875 75.71875 132.429688 75.789062 131.824219 Z M 82.25 133.269531 C 81.824219 132.75 82.109375 131.542969 82.8125 130.90625 C 83.578125 130.214844 84.074219 130.625 83.511719 131.488281 C 82.996094 132.273438 83.429688 132.789062 84.125 132.214844 C 84.703125 131.730469 84.660156 130.566406 84.042969 130.222656 C 83.386719 129.859375 83.75 129.496094 84.527344 129.742188 C 86.019531 130.222656 85.984375 132.175781 84.46875 133.101562 C 83.359375 133.777344 82.710938 133.828125 82.25 133.269531 Z M 72.390625 127.566406 C 72.652344 127.417969 73.019531 126.910156 73.21875 126.4375 C 73.417969 125.945312 73.730469 125.636719 73.9375 125.714844 C 74.339844 125.867188 74.679688 125.132812 75.390625 122.558594 C 75.769531 121.195312 79.859375 111.675781 80.734375 110.121094 C 80.867188 109.886719 81.382812 109.648438 81.882812 109.597656 L 82.785156 109.507812 L 81.53125 112.363281 C 76.183594 124.507812 74.269531 127.871094 72.695312 127.851562 C 72.070312 127.851562 72.015625 127.789062 72.390625 127.566406 Z M 80.109375 124.195312 C 79.714844 123.792969 79.90625 122.734375 80.496094 122.101562 C 81.257812 121.285156 82.390625 121.277344 82.824219 122.0625 C 83.09375 122.566406 83.046875 122.828125 82.589844 123.449219 C 82.039062 124.1875 80.5625 124.621094 80.109375 124.175781 Z M 82.046875 123.332031 C 82.339844 122.578125 82.257812 122.335938 81.703125 122.335938 C 81.089844 122.335938 80.484375 122.875 80.484375 123.414062 C 80.484375 123.953125 81.835938 123.882812 82.046875 123.332031 Z M 74.003906 118.652344 C 73.488281 118.140625 73.953125 116.375 75.390625 113.398438 C 76.667969 110.753906 77.085938 110.121094 77.585938 110.121094 C 78.34375 110.121094 78.300781 110.28125 76.417969 114.46875 C 75.660156 116.15625 74.953125 117.835938 74.84375 118.191406 C 74.640625 118.855469 74.351562 119.011719 74.003906 118.652344 Z M 83.582031 115.167969 C 83.285156 114.871094 83.351562 113.351562 83.683594 112.722656 C 84.304688 111.570312 86.292969 112.242188 86.292969 113.609375 C 86.292969 114.546875 84.175781 115.761719 83.582031 115.167969 Z M 85.125 113.589844 C 85.125 112.878906 84.449219 112.984375 84.308594 113.710938 C 84.253906 113.996094 84.398438 114.195312 84.671875 114.195312 C 84.941406 114.195312 85.125 113.945312 85.125 113.589844 Z M 71.359375 114.515625 C 71.269531 114.367188 71.269531 114.054688 71.359375 113.8125 C 71.605469 113.175781 70.949219 112.914062 70.152344 113.339844 C 69.285156 113.800781 69.011719 113.570312 69.457031 112.738281 C 69.746094 112.199219 69.949219 112.132812 70.855469 112.304688 C 72.207031 112.5625 72.359375 112.664062 72.359375 113.316406 C 72.359375 114.46875 71.765625 115.171875 71.359375 114.515625 Z M 69.527344 108.144531 C 68.347656 108.058594 67.863281 107.515625 68.570312 107.078125 C 68.71875 106.988281 71.171875 106.777344 74.007812 106.625 C 87.273438 105.882812 88.03125 105.890625 88.03125 106.757812 C 88.03125 107.199219 87.210938 107.300781 79.464844 107.792969 C 73.492188 108.167969 71.050781 108.257812 69.527344 108.148438 Z M 79.03125 105.492188 C 79.03125 105.328125 79.847656 103.550781 80.84375 101.546875 C 82.503906 98.207031 82.714844 97.914062 83.457031 97.914062 C 83.894531 97.914062 84.253906 98.011719 84.238281 98.132812 C 84.234375 98.253906 83.40625 99.984375 82.402344 101.980469 C 80.816406 105.15625 80.484375 105.632812 79.808594 105.710938 C 79.382812 105.761719 79.03125 105.664062 79.03125 105.492188 Z M 82.804688 105.371094 C 82.804688 105.316406 83.589844 103.617188 84.550781 101.59375 C 86.203125 98.097656 86.335938 97.914062 87.152344 97.914062 C 88.171875 97.914062 88.230469 97.671875 86.03125 102.34375 C 84.640625 105.308594 84.511719 105.472656 83.683594 105.472656 C 83.199219 105.472656 82.804688 105.429688 82.804688 105.371094 Z M 93.359375 127.324219 C 94.257812 126.332031 95 123.640625 94.992188 121.398438 C 94.984375 118.863281 94.386719 117.355469 92.855469 116.007812 C 91.957031 115.222656 91.550781 115.070312 90.363281 115.070312 C 88.785156 115.070312 88.324219 115.390625 87.472656 117.070312 C 86.484375 119.003906 85.929688 121.441406 86.054688 123.257812 C 86.164062 124.71875 86.324219 125.109375 87.171875 125.988281 C 88.796875 127.660156 92.359375 128.433594 93.359375 127.324219 Z M 70.324219 125.683594 C 70.878906 124.570312 71.070312 123.660156 71.152344 121.820312 C 71.242188 119.6875 71.167969 119.238281 70.484375 117.828125 C 69.242188 115.289062 67.65625 114.433594 66.308594 115.574219 C 65.5625 116.214844 64.570312 119.167969 64.328125 121.46875 C 63.976562 124.851562 65.710938 127.367188 68.292969 127.214844 C 69.546875 127.136719 69.628906 127.074219 70.324219 125.683594 Z M 90.886719 89.207031 C 92.378906 86.339844 93.972656 83.394531 94.4375 82.667969 C 95.296875 81.300781 95.867188 80.96875 95.867188 81.824219 C 95.867188 82.226562 95.992188 82.195312 96.59375 81.632812 C 97.546875 80.734375 97.511719 80.546875 96.3125 80.214844 C 95.757812 80.0625 94.914062 79.667969 94.445312 79.328125 C 93.972656 78.988281 93.527344 78.816406 93.457031 78.9375 C 93.378906 79.058594 92.371094 81.257812 91.21875 83.808594 C 90.066406 86.371094 88.484375 89.742188 87.707031 91.292969 C 86.929688 92.851562 86.292969 94.191406 86.292969 94.273438 C 86.292969 94.359375 86.710938 94.421875 87.234375 94.421875 C 88.160156 94.421875 88.222656 94.320312 90.886719 89.207031 Z M 100.882812 78.59375 C 102.515625 77.566406 105.421875 75.886719 107.332031 74.871094 C 110.0625 73.421875 110.839844 72.871094 110.914062 72.347656 C 111.035156 71.519531 110.742188 70.292969 110.417969 70.292969 C 110.289062 70.292969 108.882812 70.996094 107.300781 71.859375 C 105.71875 72.71875 102.730469 74.183594 100.652344 75.109375 C 98.582031 76.039062 96.828125 76.84375 96.757812 76.894531 C 96.679688 76.953125 96.847656 77.375 97.113281 77.832031 C 97.769531 78.9375 97.769531 79.71875 97.121094 79.46875 C 96.6875 79.300781 96.695312 79.351562 97.164062 79.871094 C 97.460938 80.203125 97.746094 80.464844 97.804688 80.464844 C 97.859375 80.464844 99.242188 79.621094 100.882812 78.59375 Z M 58.136719 95.953125 C 58.144531 93.960938 58.914062 92.066406 60.011719 91.351562 C 61.183594 90.578125 61.515625 91.230469 60.464844 92.238281 C 59.796875 92.875 59.476562 93.585938 59.085938 95.347656 C 58.800781 96.597656 58.476562 97.621094 58.355469 97.621094 C 58.234375 97.621094 58.136719 96.875 58.136719 95.953125 Z M 114.597656 74.429688 C 115.925781 71.257812 116.070312 69.414062 115.140625 67.613281 C 114.433594 66.238281 113.539062 65.832031 110.84375 65.65625 C 110.703125 65.65625 110.820312 65.375 111.105469 65.058594 C 111.738281 64.363281 113.417969 64.277344 114.847656 64.878906 C 116.378906 65.515625 117.175781 66.902344 117.300781 69.132812 C 117.421875 71.265625 117.035156 72.496094 115.773438 73.996094 C 114.910156 75.019531 114.25 75.261719 114.597656 74.429688 Z M 119.507812 69.929688 C 119.773438 69.265625 119.824219 68.453125 119.671875 67.214844 C 119.425781 65.199219 119.042969 64.335938 118.195312 63.882812 C 117.710938 63.621094 117.664062 63.480469 117.957031 63.128906 C 118.542969 62.425781 119.730469 62.773438 120.464844 63.863281 C 121.367188 65.21875 121.347656 67.324219 120.40625 69.347656 C 119.632812 71.007812 118.863281 71.5 119.507812 69.929688 Z M 102.445312 48.777344 C 101.054688 47.550781 100.15625 45.308594 100.003906 42.664062 C 99.835938 40.003906 100.289062 38.195312 101.386719 37.097656 C 102.339844 36.132812 103.660156 36 104.375 36.785156 C 105.019531 37.5 106.304688 40.378906 106.785156 42.1875 C 107.300781 44.128906 107.289062 45.128906 106.738281 46.988281 C 106.402344 48.132812 106.058594 48.648438 105.363281 49.078125 C 104.101562 49.847656 103.605469 49.796875 102.445312 48.777344 Z M 120.878906 45.128906 C 120.398438 44.726562 119.71875 43.796875 119.367188 43.066406 C 118.785156 41.867188 118.734375 41.441406 118.886719 38.785156 C 119.097656 35.09375 119.476562 33.804688 120.640625 32.730469 C 123.078125 30.496094 124.503906 31.640625 125.914062 36.964844 C 126.804688 40.355469 126.804688 42.53125 125.894531 44.070312 C 124.804688 45.929688 122.417969 46.433594 120.878906 45.128906 Z M 94.324219 35.496094 C 93.832031 35.011719 94.171875 33.113281 94.972656 31.851562 C 96.867188 28.863281 102.074219 26.773438 103.550781 28.414062 C 104.175781 29.097656 104.082031 29.148438 101.488281 29.550781 C 98.269531 30.054688 96.09375 31.675781 95.699219 33.878906 C 95.433594 35.367188 94.859375 36.03125 94.324219 35.496094 Z M 116.039062 28.996094 C 115.476562 28.089844 117.902344 25.613281 120.710938 24.21875 C 122.0625 23.554688 122.9375 23.34375 124.824219 23.242188 C 127.703125 23.082031 128.691406 23.429688 129.34375 24.800781 C 129.609375 25.351562 129.75 25.804688 129.667969 25.804688 C 129.578125 25.804688 128.578125 25.59375 127.441406 25.332031 C 123.675781 24.476562 120.859375 25.222656 118.117188 27.820312 C 116.472656 29.378906 116.328125 29.460938 116.039062 28.996094 Z M 116.039062 28.996094"/></g></svg>