<svg xmlns="http://www.w3.org/2000/svg" xmlns:xlink="http://www.w3.org/1999/xlink" width="500" zoomAndPan="magnify" viewBox="0 0 375 374.999991" height="500" preserveAspectRatio="xMidYMid meet" version="1.0"><defs><clipPath id="id1"><path d="M 1 13.628906 L 374 13.628906 L 374 361.628906 L 1 361.628906 Z M 1 13.628906 " clip-rule="nonzero"/></clipPath></defs><g clip-path="url(#id1)"><path fill="rgb(75.689697%, 15.289307%, 17.649841%)" d="M 272.839844 40.765625 C 275.203125 42.871094 275.378906 43.25 274.269531 45.851562 C 273.4375 47.796875 272.425781 49.675781 271.378906 51.519531 C 267.484375 58.371094 263.554688 65.199219 259.609375 72.023438 C 258.148438 74.554688 256.667969 77.074219 255.117188 79.550781 C 229 121.289062 202.503906 162.796875 178.167969 205.628906 C 173.039062 214.648438 168.472656 223.941406 164.121094 233.347656 C 158.050781 246.457031 151.472656 259.296875 144.265625 271.820312 C 143.078125 273.886719 142.128906 276.09375 141.015625 278.207031 C 138.414062 283.140625 135.949219 288.15625 133.085938 292.929688 C 131.652344 295.3125 129.488281 297.261719 127.601562 299.359375 C 126.859375 300.183594 125.910156 300.460938 124.726562 300.332031 C 117.613281 299.554688 110.480469 298.960938 103.378906 298.089844 C 99.703125 297.640625 96.082031 296.734375 92.433594 296.050781 C 88.433594 295.296875 87.285156 290.84375 88.394531 287.925781 C 89.425781 285.210938 90.242188 282.390625 90.871094 279.558594 C 95.070312 260.664062 100.921875 242.300781 107.757812 224.203125 C 112.765625 210.953125 117.441406 197.5625 121.847656 184.101562 C 126.789062 169.003906 133.007812 154.429688 139.152344 139.8125 C 144.882812 126.179688 150.464844 112.476562 157.195312 99.285156 C 159.226562 95.296875 160.265625 90.984375 161.28125 86.679688 C 163.160156 78.730469 165.375 70.917969 169.058594 63.566406 C 170.359375 60.972656 171.160156 58.121094 172.125 55.363281 C 173.609375 51.101562 175.003906 46.808594 176.507812 42.550781 C 177.15625 40.722656 177.960938 38.945312 178.746094 37.164062 C 180.492188 33.199219 182.355469 29.28125 184 25.273438 C 184.824219 23.265625 186.253906 22.558594 188.234375 22.222656 C 192.46875 21.5 196.707031 21.859375 200.910156 22.191406 C 210.171875 22.921875 219.4375 23.683594 228.648438 24.855469 C 242.847656 26.664062 256.585938 30.339844 269.761719 36.011719 C 269.925781 36.082031 270.082031 36.160156 270.242188 36.234375 C 272.980469 37.523438 272.980469 37.523438 272.839844 40.765625 Z M 192.347656 30.164062 C 191.003906 36.433594 188.179688 42.265625 185.800781 48.261719 C 184.855469 50.648438 183.992188 53.070312 183.105469 55.480469 C 179.234375 66.039062 175.363281 76.601562 171.5 87.164062 C 169.671875 92.148438 168.085938 97.242188 165.992188 102.113281 C 159.769531 116.597656 153.34375 130.988281 147.007812 145.425781 C 140.597656 160.027344 134.546875 174.761719 129.5625 189.933594 C 125.828125 201.289062 121.617188 212.488281 117.433594 223.6875 C 112.757812 236.214844 107.863281 248.664062 103.097656 261.160156 C 102.566406 262.558594 102.066406 264.019531 101.890625 265.492188 C 101.070312 272.199219 99.550781 278.738281 97.558594 285.183594 C 97.332031 285.917969 97.164062 286.675781 96.914062 287.632812 C 106.214844 289.085938 115.121094 291.71875 124.414062 292.289062 C 125.332031 290.464844 126.164062 288.804688 126.992188 287.144531 C 130.113281 280.886719 133.261719 274.640625 136.339844 268.359375 C 138.597656 263.753906 140.976562 259.1875 142.933594 254.449219 C 156.800781 220.875 173.429688 188.734375 193.058594 158.191406 C 203.269531 142.304688 212.878906 126.09375 221.664062 109.382812 C 225.628906 101.847656 230.074219 94.605469 235.121094 87.742188 C 238.585938 83.035156 241.894531 78.203125 245.546875 73.648438 C 252.160156 65.394531 257.707031 56.449219 263.101562 47.390625 C 263.542969 46.65625 263.917969 45.882812 264.429688 44.925781 C 263.546875 44.671875 262.898438 44.460938 262.238281 44.300781 C 246.5 40.488281 230.761719 36.667969 215.011719 32.890625 C 213.039062 32.417969 211.023438 32.0625 209.007812 31.835938 C 203.574219 31.234375 198.128906 30.734375 192.347656 30.164062 Z M 174.546875 52.207031 C 177.507812 48.460938 180.238281 40.839844 179.78125 38.011719 C 178.035156 42.746094 176.292969 47.476562 174.546875 52.207031 Z M 94.363281 285.195312 C 94.519531 285.242188 94.679688 285.292969 94.835938 285.339844 C 95.210938 284.195312 95.609375 283.058594 95.960938 281.90625 C 96.285156 280.851562 96.558594 279.78125 96.859375 278.71875 C 96.695312 278.675781 96.53125 278.632812 96.367188 278.59375 C 95.699219 280.792969 95.03125 282.992188 94.363281 285.195312 Z M 369.953125 89.332031 C 372.667969 88.890625 373.59375 89.667969 373.152344 92.734375 C 372.90625 94.445312 372.496094 96.289062 371.601562 97.726562 C 367.582031 104.1875 363.515625 110.632812 359.175781 116.882812 C 354.78125 123.203125 350.238281 129.441406 345.425781 135.449219 C 334.960938 148.507812 324.425781 161.511719 312.917969 173.699219 C 309.402344 177.417969 306.289062 181.542969 303.195312 185.636719 C 297.265625 193.476562 291.585938 201.503906 285.609375 209.308594 C 280.335938 216.195312 274.996094 223.046875 269.34375 229.621094 C 256.8125 244.195312 244.710938 259.101562 233 274.347656 C 225.835938 283.679688 218.011719 292.507812 210.382812 301.480469 C 206.539062 305.996094 202.472656 310.320312 198.511719 314.738281 C 198.15625 315.132812 197.738281 315.507812 197.511719 315.972656 C 196.246094 318.558594 194.046875 318.828125 191.644531 318.242188 C 189.9375 317.824219 188.25 317.207031 186.65625 316.457031 C 182.46875 314.496094 178.085938 313.152344 173.660156 311.863281 C 169.679688 310.699219 165.777344 309.238281 161.929688 307.691406 C 160.503906 307.113281 159.164062 306.066406 158.066406 304.957031 C 155.878906 302.738281 155.492188 299.621094 157.40625 297.199219 C 159.71875 294.28125 160.871094 290.855469 162.453125 287.605469 C 165.042969 282.273438 167.5 276.859375 170.367188 271.675781 C 181.636719 251.300781 192.886719 230.910156 204.433594 210.691406 C 219.414062 184.449219 235.851562 159.125 253.421875 134.539062 C 255.273438 131.945312 256.902344 129.195312 258.753906 126.601562 C 265.125 117.671875 271.492188 108.734375 277.96875 99.878906 C 286.171875 88.65625 294.5 77.519531 302.714844 66.308594 C 303.636719 65.050781 304.328125 63.574219 304.890625 62.105469 C 305.996094 59.230469 307.878906 57.851562 310.953125 58 C 311.742188 58.039062 312.546875 58.152344 313.3125 58.347656 C 320.8125 60.21875 328.050781 62.71875 334.765625 66.679688 C 342.539062 71.265625 350.445312 75.621094 358.261719 80.132812 C 360.558594 81.457031 362.863281 82.824219 364.957031 84.433594 C 366.675781 85.757812 368.09375 87.476562 369.953125 89.332031 Z M 309.273438 68.175781 C 307.234375 70.183594 305.382812 72.148438 304.164062 74.6875 C 303.242188 76.597656 302.070312 78.386719 300.976562 80.207031 C 295.914062 88.632812 290.921875 97.105469 285.734375 105.453125 C 282.609375 110.488281 279.410156 115.507812 275.820312 120.214844 C 269.351562 128.703125 263.695312 137.675781 258.824219 147.144531 C 254.835938 154.898438 250.085938 162.113281 244.796875 169.03125 C 241.46875 173.386719 238.296875 177.90625 235.519531 182.625 C 222.3125 205.0625 209.191406 227.554688 196.1875 250.109375 C 188.316406 263.765625 180.691406 277.566406 173.011719 291.332031 C 171.605469 293.855469 170.464844 296.535156 169.09375 299.363281 C 170.292969 299.898438 171.164062 300.28125 172.027344 300.675781 C 176.84375 302.898438 181.664062 305.117188 186.476562 307.355469 C 187.355469 307.765625 188.1875 308.289062 189.058594 308.722656 C 190.992188 309.683594 190.996094 309.621094 192.34375 308.023438 C 199.828125 299.164062 207.109375 290.113281 214.898438 281.527344 C 224.914062 270.488281 234.097656 258.8125 243.09375 246.953125 C 249.035156 239.125 255.332031 231.570312 261.445312 223.875 C 267.113281 216.730469 272.78125 209.585938 278.398438 202.398438 C 287.667969 190.539062 296.757812 178.535156 306.191406 166.804688 C 313.070312 158.25 320.519531 150.152344 327.464844 141.648438 C 339.285156 127.175781 350.910156 112.542969 362.609375 97.96875 C 363.027344 97.445312 363.363281 96.855469 363.789062 96.21875 C 346.789062 84.496094 328.457031 75.773438 309.273438 68.175781 Z M 176.566406 280.816406 C 176.402344 280.710938 176.234375 280.605469 176.070312 280.503906 C 175.445312 281.675781 174.824219 282.851562 174.203125 284.023438 C 174.371094 284.117188 174.535156 284.207031 174.703125 284.300781 C 175.324219 283.140625 175.945312 281.976562 176.566406 280.816406 Z M 6.753906 281.386719 C 5.703125 280.019531 5.59375 278.242188 5.710938 276.472656 C 6.078125 270.90625 6.335938 265.324219 6.980469 259.785156 C 8.433594 247.292969 10.191406 234.835938 11.628906 222.34375 C 12.308594 216.457031 12.621094 210.519531 12.949219 204.597656 C 13.84375 188.597656 17.015625 173.015625 21.0625 157.550781 C 27.503906 132.945312 35.082031 108.691406 43.34375 84.652344 C 47.574219 72.34375 52.394531 60.238281 56.683594 47.949219 C 59.863281 38.839844 62.628906 29.585938 65.5625 20.394531 C 66.359375 17.898438 67.492188 15.699219 70.121094 14.703125 C 70.675781 14.496094 71.394531 14.191406 71.863281 14.375 C 73.472656 15.007812 75 14.492188 76.570312 14.34375 C 79.738281 14.046875 82.914062 13.628906 86.085938 13.628906 C 100.625 13.644531 115.105469 14.425781 129.410156 17.3125 C 130.945312 17.621094 132.59375 17.371094 134.136719 17.664062 C 136.828125 18.171875 139.503906 18.800781 142.132812 19.558594 C 145.882812 20.632812 146.5625 21.632812 145.601562 25.3125 C 144.308594 30.269531 143.140625 35.261719 141.027344 39.992188 C 136.589844 49.941406 132.308594 59.957031 128.050781 69.984375 C 126.671875 73.242188 125.425781 76.570312 124.382812 79.949219 C 122.316406 86.652344 119.820312 93.164062 116.890625 99.539062 C 106.640625 121.84375 97.359375 144.558594 89.300781 167.75 C 84.242188 182.304688 79.78125 197.066406 74.816406 211.65625 C 70.996094 222.894531 66.785156 233.996094 62.800781 245.175781 C 61.109375 249.929688 59.53125 254.730469 57.960938 259.527344 C 57.582031 260.695312 57.4375 261.941406 57.183594 263.152344 C 55.976562 268.867188 54.929688 274.625 53.511719 280.285156 C 52.351562 284.921875 49.796875 286.257812 45.019531 285.84375 C 39.472656 285.367188 33.898438 285.222656 28.339844 284.851562 C 25.875 284.6875 23.40625 284.449219 20.972656 284.039062 C 16.273438 283.242188 11.597656 282.296875 6.753906 281.386719 Z M 73.769531 20.238281 C 72.566406 25.273438 71.515625 29.75 70.433594 34.214844 C 66.335938 51.105469 61.675781 67.820312 55.003906 83.902344 C 51.261719 92.914062 48.167969 102.140625 45.449219 111.503906 C 41.867188 123.835938 38.296875 136.171875 34.648438 148.480469 C 32.230469 156.632812 29.707031 164.75 27.1875 172.867188 C 22.136719 189.15625 18.789062 205.808594 16.582031 222.695312 C 15.300781 232.53125 14.289062 242.402344 13.109375 252.253906 C 12.34375 258.671875 11.457031 265.074219 10.714844 271.496094 C 10.527344 273.117188 10.6875 274.777344 10.6875 276.289062 C 14.289062 276.824219 17.671875 277.417969 21.082031 277.808594 C 23.707031 278.109375 26.375 278.402344 28.996094 278.253906 C 33.808594 277.980469 38.542969 278.207031 43.246094 279.253906 C 44.085938 279.441406 44.949219 279.523438 45.722656 279.644531 C 46.019531 279.253906 46.238281 279.070312 46.324219 278.835938 C 48.214844 273.496094 50.105469 268.15625 51.960938 262.804688 C 52.191406 262.144531 52.285156 261.421875 52.339844 260.71875 C 52.933594 253.25 54.71875 246.050781 57.121094 238.976562 C 57.773438 237.054688 58.355469 235.089844 58.773438 233.105469 C 61.0625 222.160156 64.289062 211.488281 67.871094 200.90625 C 71.019531 191.59375 74.144531 182.269531 77 172.863281 C 79.941406 163.179688 83.523438 153.773438 87.582031 144.507812 C 92.023438 134.371094 96.109375 124.078125 100.25 113.816406 C 104.226562 103.960938 107.914062 93.988281 112.023438 84.191406 C 120.046875 65.089844 128.273438 46.070312 136.410156 27.015625 C 136.609375 26.550781 136.726562 26.050781 136.960938 25.316406 C 116.058594 20.28125 94.929688 20.554688 73.769531 20.238281 Z M 33.960938 127.484375 C 33.789062 127.398438 33.621094 127.308594 33.449219 127.21875 C 33.222656 127.882812 32.960938 128.539062 32.773438 129.210938 C 30.089844 138.839844 27.261719 148.433594 24.785156 158.113281 C 22.375 167.539062 20.292969 177.050781 18.152344 186.542969 C 17.691406 188.59375 17.59375 190.726562 17.328125 192.824219 C 17.566406 192.863281 17.804688 192.902344 18.039062 192.945312 C 21.917969 170.773438 27.523438 149.027344 33.960938 127.484375 Z M 43.25 298.214844 C 44.34375 299.316406 44.253906 300.808594 44.0625 302.164062 C 43.496094 306.101562 42.90625 310.046875 42.054688 313.929688 C 41.054688 318.511719 39.773438 323.03125 38.601562 327.574219 C 37.78125 330.773438 35.820312 332.105469 32.578125 332.996094 C 25.398438 334.964844 18.246094 334.695312 11.109375 333.351562 C 10.410156 334.527344 9.800781 335.550781 9.195312 336.574219 C 7.671875 336.164062 6.972656 335.210938 6.679688 334.101562 C 6.246094 332.464844 5.292969 331.503906 3.703125 331.09375 C 3.617188 331.074219 3.539062 331.027344 3.460938 330.984375 C 2.332031 330.363281 1.28125 329.621094 1.507812 328.140625 C 1.714844 326.78125 2.800781 326.351562 4.015625 326.15625 C 4.265625 326.117188 4.507812 325.988281 4.960938 325.828125 C 5.015625 325.125 5.070312 324.355469 5.132812 323.589844 C 5.636719 317.503906 6.144531 311.417969 6.648438 305.332031 C 6.703125 304.628906 6.859375 303.910156 6.785156 303.21875 C 6.5625 301.097656 7.644531 299.769531 9.457031 299.136719 C 11.359375 298.472656 13.355469 297.761719 15.332031 297.6875 C 23.652344 297.375 31.964844 297.585938 40.246094 298.542969 C 41.121094 298.640625 42.039062 298.355469 43.25 298.214844 Z M 13.101562 303.589844 C 12.511719 311.398438 11.953125 318.753906 11.390625 326.152344 C 11.878906 326.3125 12.199219 326.492188 12.53125 326.515625 C 18.347656 326.878906 24.171875 327.160156 29.964844 326.195312 C 32.273438 325.8125 32.265625 325.753906 32.773438 323.40625 C 34.039062 317.535156 35.339844 311.671875 36.617188 305.804688 C 36.738281 305.25 36.769531 304.671875 36.84375 304.082031 C 36.402344 303.988281 36.152344 303.894531 35.898438 303.886719 C 29.902344 303.710938 23.90625 303.523438 17.910156 303.394531 C 16.34375 303.359375 14.777344 303.515625 13.101562 303.589844 Z M 161.738281 361.652344 C 159.433594 361.078125 157.03125 360.742188 154.839844 359.875 C 148.601562 357.398438 142.441406 354.71875 136.261719 352.085938 C 135.542969 351.777344 134.832031 351.351562 134.25 350.832031 C 132.339844 349.117188 132.898438 346.34375 135.421875 346.03125 C 137.71875 345.746094 138.460938 344.421875 139.261719 342.679688 C 141.511719 337.78125 143.847656 332.917969 146.1875 328.058594 C 146.761719 326.867188 147.554688 325.777344 148.097656 324.574219 C 148.429688 323.828125 148.628906 322.949219 148.621094 322.132812 C 148.605469 320.101562 149.386719 319.148438 151.46875 319.3125 C 152.859375 319.417969 154.332031 319.65625 155.578125 320.242188 C 160.605469 322.613281 165.601562 325.058594 170.515625 327.65625 C 172.851562 328.894531 174.972656 330.449219 177.652344 331.039062 C 179.8125 331.515625 180.558594 333.101562 180.085938 335.300781 C 179.996094 335.734375 179.878906 336.167969 179.703125 336.570312 C 176.257812 344.449219 172.429688 352.105469 167.003906 358.859375 C 165.648438 360.546875 164.074219 361.667969 161.738281 361.652344 Z M 143.382812 347.28125 C 149.242188 349.8125 154.535156 352.8125 160.347656 354.699219 C 161.679688 355.128906 162.566406 354.796875 163.210938 353.609375 C 163.503906 353.066406 163.820312 352.535156 164.117188 351.992188 C 166.71875 347.171875 169.324219 342.355469 171.917969 337.527344 C 172.230469 336.945312 172.460938 336.3125 172.667969 335.84375 C 166.476562 333.050781 160.488281 330.347656 154.425781 327.617188 C 154.070312 328.289062 153.761719 328.816406 153.511719 329.371094 C 151.375 334.140625 149.046875 338.785156 145.730469 342.890625 C 144.765625 344.085938 144.242188 345.636719 143.382812 347.28125 Z M 98.714844 343.910156 C 96.515625 343.472656 92.691406 342.789062 88.910156 341.9375 C 86.066406 341.296875 83.277344 340.414062 80.457031 339.683594 C 78.859375 339.269531 77.34375 338.578125 75.554688 339.0625 C 74.371094 339.382812 73.417969 338.554688 73.234375 337.085938 C 73.027344 335.4375 72.902344 333.695312 73.210938 332.085938 C 74.414062 325.792969 76.59375 319.816406 79.390625 314.054688 C 80.078125 312.636719 80.460938 311.0625 81.234375 309.699219 C 82.410156 307.632812 84.207031 306.152344 86.644531 305.96875 C 88.203125 305.855469 89.832031 306.066406 91.371094 306.390625 C 98.546875 307.917969 105.703125 309.53125 112.863281 311.121094 C 116.371094 311.898438 117.378906 313.960938 116.011719 317.453125 C 113.238281 324.539062 110.433594 331.617188 107.730469 338.726562 C 105.980469 343.320312 105.246094 343.917969 98.714844 343.910156 Z M 85.796875 313.011719 C 83.632812 319.296875 81.570312 325.285156 79.410156 331.570312 C 86.882812 334.464844 94.308594 336.4375 101.964844 338.15625 C 102.972656 334.488281 103.816406 331.15625 104.816406 327.867188 C 105.804688 324.617188 106.953125 321.410156 107.96875 318.359375 C 103.046875 316.949219 98.410156 315.511719 93.71875 314.3125 C 91.257812 313.683594 88.695312 313.472656 85.796875 313.011719 Z M 192.347656 30.164062 C 198.128906 30.734375 203.574219 31.234375 209.007812 31.835938 C 211.023438 32.0625 213.039062 32.417969 215.011719 32.890625 C 230.761719 36.667969 246.5 40.488281 262.238281 44.300781 C 262.898438 44.460938 263.546875 44.671875 264.429688 44.925781 C 263.917969 45.882812 263.542969 46.65625 263.101562 47.390625 C 257.707031 56.449219 252.160156 65.394531 245.546875 73.648438 C 241.894531 78.203125 238.585938 83.035156 235.121094 87.742188 C 230.074219 94.605469 225.628906 101.847656 221.664062 109.382812 C 212.878906 126.09375 203.269531 142.304688 193.058594 158.1875 C 173.429688 188.734375 156.800781 220.875 142.933594 254.449219 C 140.976562 259.1875 138.597656 263.753906 136.339844 268.359375 C 133.261719 274.640625 130.113281 280.886719 126.992188 287.144531 C 126.164062 288.804688 125.332031 290.464844 124.414062 292.289062 C 115.121094 291.71875 106.214844 289.085938 96.914062 287.632812 C 97.164062 286.675781 97.332031 285.917969 97.558594 285.183594 C 99.550781 278.738281 101.070312 272.199219 101.890625 265.492188 C 102.066406 264.019531 102.566406 262.558594 103.097656 261.160156 C 107.863281 248.664062 112.757812 236.214844 117.433594 223.6875 C 121.617188 212.488281 125.828125 201.289062 129.5625 189.933594 C 134.546875 174.761719 140.597656 160.027344 147.007812 145.425781 C 153.34375 130.988281 159.769531 116.597656 165.992188 102.113281 C 168.085938 97.242188 169.671875 92.148438 171.5 87.164062 C 175.363281 76.601562 179.234375 66.039062 183.105469 55.480469 C 183.992188 53.070312 184.855469 50.648438 185.800781 48.261719 C 188.179688 42.265625 191.003906 36.433594 192.347656 30.164062 Z M 179.78125 38.011719 C 178.035156 42.746094 176.292969 47.476562 174.546875 52.207031 C 177.507812 48.460938 180.238281 40.839844 179.78125 38.011719 Z M 94.835938 285.339844 C 95.210938 284.195312 95.609375 283.058594 95.960938 281.90625 C 96.285156 280.851562 96.558594 279.78125 96.859375 278.71875 C 96.695312 278.675781 96.53125 278.632812 96.367188 278.59375 C 95.699219 280.792969 95.03125 282.992188 94.363281 285.195312 C 94.519531 285.242188 94.679688 285.292969 94.835938 285.339844 Z M 304.164062 74.6875 C 303.242188 76.597656 302.070312 78.386719 300.976562 80.207031 C 295.914062 88.632812 290.921875 97.105469 285.734375 105.453125 C 282.609375 110.488281 279.410156 115.507812 275.820312 120.214844 C 269.351562 128.703125 263.695312 137.675781 258.824219 147.144531 C 254.835938 154.898438 250.085938 162.113281 244.796875 169.03125 C 241.46875 173.386719 238.296875 177.90625 235.519531 182.625 C 222.3125 205.0625 209.191406 227.554688 196.1875 250.109375 C 188.316406 263.765625 180.691406 277.566406 173.011719 291.332031 C 171.605469 293.855469 170.464844 296.535156 169.09375 299.363281 C 170.292969 299.898438 171.164062 300.28125 172.027344 300.675781 C 176.84375 302.898438 181.664062 305.117188 186.476562 307.355469 C 187.355469 307.765625 188.1875 308.289062 189.058594 308.722656 C 190.992188 309.683594 190.996094 309.621094 192.34375 308.023438 C 199.828125 299.164062 207.109375 290.113281 214.898438 281.527344 C 224.914062 270.488281 234.097656 258.8125 243.09375 246.953125 C 249.035156 239.125 255.332031 231.570312 261.445312 223.875 C 267.113281 216.730469 272.78125 209.585938 278.398438 202.398438 C 287.667969 190.539062 296.757812 178.535156 306.191406 166.804688 C 313.070312 158.25 320.519531 150.152344 327.464844 141.648438 C 339.285156 127.175781 350.910156 112.542969 362.609375 97.96875 C 363.027344 97.445312 363.363281 96.855469 363.789062 96.21875 C 346.789062 84.496094 328.457031 75.773438 309.273438 68.175781 C 307.234375 70.183594 305.382812 72.148438 304.164062 74.6875 Z M 176.070312 280.503906 C 175.445312 281.675781 174.824219 282.851562 174.203125 284.023438 C 174.371094 284.117188 174.535156 284.207031 174.703125 284.300781 C 175.324219 283.140625 175.945312 281.976562 176.566406 280.816406 C 176.402344 280.710938 176.234375 280.605469 176.070312 280.503906 Z M 70.433594 34.214844 C 66.335938 51.105469 61.675781 67.820312 55.003906 83.902344 C 51.261719 92.914062 48.167969 102.140625 45.449219 111.503906 C 41.867188 123.835938 38.296875 136.171875 34.648438 148.480469 C 32.230469 156.632812 29.707031 164.75 27.1875 172.867188 C 22.136719 189.15625 18.789062 205.808594 16.582031 222.695312 C 15.300781 232.53125 14.289062 242.402344 13.109375 252.253906 C 12.34375 258.671875 11.457031 265.074219 10.714844 271.496094 C 10.527344 273.117188 10.6875 274.777344 10.6875 276.289062 C 14.289062 276.824219 17.671875 277.417969 21.082031 277.808594 C 23.707031 278.109375 26.375 278.402344 28.996094 278.253906 C 33.808594 277.980469 38.542969 278.207031 43.246094 279.253906 C 44.085938 279.441406 44.949219 279.523438 45.722656 279.644531 C 46.019531 279.253906 46.238281 279.070312 46.324219 278.835938 C 48.214844 273.496094 50.105469 268.15625 51.960938 262.804688 C 52.191406 262.144531 52.285156 261.421875 52.339844 260.71875 C 52.933594 253.25 54.71875 246.050781 57.121094 238.976562 C 57.773438 237.054688 58.355469 235.089844 58.773438 233.105469 C 61.0625 222.160156 64.289062 211.488281 67.871094 200.90625 C 71.019531 191.59375 74.144531 182.269531 77 172.863281 C 79.941406 163.179688 83.523438 153.773438 87.582031 144.507812 C 92.023438 134.371094 96.109375 124.078125 100.25 113.816406 C 104.226562 103.960938 107.914062 93.988281 112.023438 84.191406 C 120.046875 65.089844 128.273438 46.070312 136.410156 27.015625 C 136.609375 26.550781 136.726562 26.050781 136.960938 25.316406 C 116.058594 20.28125 94.929688 20.554688 73.769531 20.238281 C 72.566406 25.273438 71.515625 29.75 70.433594 34.214844 Z M 33.449219 127.21875 C 33.222656 127.882812 32.960938 128.539062 32.773438 129.210938 C 30.089844 138.839844 27.261719 148.433594 24.785156 158.113281 C 22.375 167.539062 20.292969 177.050781 18.152344 186.542969 C 17.691406 188.59375 17.59375 190.726562 17.328125 192.824219 C 17.566406 192.863281 17.804688 192.902344 18.039062 192.945312 C 21.917969 170.773438 27.523438 149.027344 33.960938 127.484375 C 33.789062 127.398438 33.621094 127.308594 33.449219 127.21875 Z M 11.390625 326.152344 C 11.878906 326.3125 12.199219 326.492188 12.53125 326.515625 C 18.347656 326.878906 24.171875 327.160156 29.964844 326.195312 C 32.273438 325.8125 32.265625 325.753906 32.773438 323.40625 C 34.039062 317.535156 35.339844 311.671875 36.617188 305.804688 C 36.738281 305.25 36.769531 304.671875 36.84375 304.082031 C 36.402344 303.988281 36.152344 303.894531 35.898438 303.886719 C 29.902344 303.710938 23.90625 303.523438 17.910156 303.394531 C 16.34375 303.359375 14.777344 303.515625 13.101562 303.589844 C 12.511719 311.398438 11.953125 318.753906 11.390625 326.152344 Z M 160.347656 354.699219 C 161.679688 355.128906 162.566406 354.796875 163.210938 353.609375 C 163.503906 353.066406 163.820312 352.535156 164.117188 351.992188 C 166.71875 347.171875 169.324219 342.355469 171.917969 337.527344 C 172.230469 336.945312 172.460938 336.3125 172.667969 335.84375 C 166.476562 333.050781 160.488281 330.347656 154.425781 327.617188 C 154.070312 328.289062 153.761719 328.816406 153.511719 329.371094 C 151.375 334.140625 149.046875 338.785156 145.730469 342.890625 C 144.765625 344.085938 144.242188 345.636719 143.382812 347.28125 C 149.242188 349.8125 154.535156 352.8125 160.347656 354.699219 Z M 79.410156 331.570312 C 86.882812 334.464844 94.308594 336.4375 101.964844 338.15625 C 102.972656 334.488281 103.816406 331.15625 104.816406 327.867188 C 105.804688 324.617188 106.953125 321.410156 107.96875 318.359375 C 103.046875 316.949219 98.410156 315.511719 93.71875 314.3125 C 91.257812 313.683594 88.695312 313.472656 85.796875 313.011719 C 83.632812 319.296875 81.570312 325.285156 79.410156 331.570312 Z M 79.410156 331.570312 " fill-opacity="1" fill-rule="nonzero"/><path fill="rgb(75.689697%, 15.289307%, 17.649841%)" d="M 272.839844 40.765625 C 275.203125 42.871094 275.378906 43.25 274.269531 45.851562 C 273.4375 47.796875 272.425781 49.675781 271.378906 51.519531 C 267.484375 58.371094 263.554688 65.199219 259.609375 72.023438 C 258.148438 74.554688 256.667969 77.074219 255.117188 79.550781 C 229 121.289062 202.503906 162.796875 178.167969 205.628906 C 173.039062 214.648438 168.472656 223.941406 164.121094 233.347656 C 158.050781 246.457031 151.472656 259.296875 144.265625 271.820312 C 143.078125 273.886719 142.128906 276.09375 141.015625 278.207031 C 138.414062 283.140625 135.949219 288.15625 133.085938 292.929688 C 131.652344 295.3125 129.488281 297.261719 127.601562 299.359375 C 126.859375 300.183594 125.910156 300.460938 124.726562 300.332031 C 117.613281 299.554688 110.480469 298.960938 103.378906 298.089844 C 99.703125 297.640625 96.082031 296.734375 92.433594 296.050781 C 88.433594 295.296875 87.285156 290.84375 88.394531 287.925781 C 89.425781 285.210938 90.242188 282.390625 90.871094 279.558594 C 95.070312 260.664062 100.921875 242.300781 107.757812 224.203125 C 112.765625 210.953125 117.441406 197.5625 121.847656 184.101562 C 126.789062 169.003906 133.007812 154.429688 139.152344 139.8125 C 144.882812 126.179688 150.464844 112.476562 157.195312 99.285156 C 159.226562 95.296875 160.265625 90.984375 161.28125 86.679688 C 163.160156 78.730469 165.375 70.917969 169.058594 63.566406 C 170.359375 60.972656 171.160156 58.121094 172.125 55.363281 C 173.609375 51.101562 175.003906 46.808594 176.507812 42.550781 C 177.15625 40.722656 177.960938 38.945312 178.746094 37.164062 C 180.492188 33.199219 182.355469 29.28125 184 25.273438 C 184.824219 23.265625 186.253906 22.558594 188.234375 22.222656 C 192.46875 21.5 196.707031 21.859375 200.910156 22.191406 C 210.171875 22.921875 219.4375 23.683594 228.648438 24.855469 C 242.847656 26.664062 256.585938 30.339844 269.761719 36.011719 C 269.925781 36.082031 270.082031 36.160156 270.242188 36.234375 C 272.980469 37.523438 272.980469 37.523438 272.839844 40.765625 Z M 192.347656 30.164062 C 191.003906 36.433594 188.179688 42.265625 185.800781 48.261719 C 184.855469 50.648438 183.992188 53.070312 183.105469 55.480469 C 179.234375 66.039062 175.363281 76.601562 171.5 87.164062 C 169.671875 92.148438 168.085938 97.242188 165.992188 102.113281 C 159.769531 116.597656 153.34375 130.988281 147.007812 145.425781 C 140.597656 160.027344 134.546875 174.761719 129.5625 189.933594 C 125.828125 201.289062 121.617188 212.488281 117.433594 223.6875 C 112.757812 236.214844 107.863281 248.664062 103.097656 261.160156 C 102.566406 262.558594 102.066406 264.019531 101.890625 265.492188 C 101.070312 272.199219 99.550781 278.738281 97.558594 285.183594 C 97.332031 285.917969 97.164062 286.675781 96.914062 287.632812 C 106.214844 289.085938 115.121094 291.71875 124.414062 292.289062 C 125.332031 290.464844 126.164062 288.804688 126.992188 287.144531 C 130.113281 280.886719 133.261719 274.640625 136.339844 268.359375 C 138.597656 263.753906 140.976562 259.1875 142.933594 254.449219 C 156.800781 220.875 173.429688 188.734375 193.058594 158.191406 C 203.269531 142.304688 212.878906 126.09375 221.664062 109.382812 C 225.628906 101.847656 230.074219 94.605469 235.121094 87.742188 C 238.585938 83.035156 241.894531 78.203125 245.546875 73.648438 C 252.160156 65.394531 257.707031 56.449219 263.101562 47.390625 C 263.542969 46.65625 263.917969 45.882812 264.429688 44.925781 C 263.546875 44.671875 262.898438 44.460938 262.238281 44.300781 C 246.5 40.488281 230.761719 36.667969 215.011719 32.890625 C 213.039062 32.417969 211.023438 32.0625 209.007812 31.835938 C 203.574219 31.234375 198.128906 30.734375 192.347656 30.164062 Z M 174.546875 52.207031 C 177.507812 48.460938 180.238281 40.839844 179.78125 38.011719 C 178.035156 42.746094 176.292969 47.476562 174.546875 52.207031 Z M 94.363281 285.195312 C 94.519531 285.242188 94.679688 285.292969 94.835938 285.339844 C 95.210938 284.195312 95.609375 283.058594 95.960938 281.90625 C 96.285156 280.851562 96.558594 279.78125 96.859375 278.71875 C 96.695312 278.675781 96.53125 278.632812 96.367188 278.59375 C 95.699219 280.792969 95.03125 282.992188 94.363281 285.195312 Z M 369.953125 89.332031 C 372.667969 88.890625 373.59375 89.667969 373.152344 92.734375 C 372.90625 94.445312 372.496094 96.289062 371.601562 97.726562 C 367.582031 104.1875 363.515625 110.632812 359.175781 116.882812 C 354.78125 123.203125 350.238281 129.441406 345.425781 135.449219 C 334.960938 148.507812 324.425781 161.511719 312.917969 173.699219 C 309.402344 177.417969 306.289062 181.542969 303.195312 185.636719 C 297.265625 193.476562 291.585938 201.503906 285.609375 209.308594 C 280.335938 216.195312 274.996094 223.046875 269.34375 229.621094 C 256.8125 244.195312 244.710938 259.101562 233 274.347656 C 225.835938 283.679688 218.011719 292.507812 210.382812 301.480469 C 206.539062 305.996094 202.472656 310.320312 198.511719 314.738281 C 198.15625 315.132812 197.738281 315.507812 197.511719 315.972656 C 196.246094 318.558594 194.046875 318.828125 191.644531 318.242188 C 189.9375 317.824219 188.25 317.207031 186.65625 316.457031 C 182.46875 314.496094 178.085938 313.152344 173.660156 311.863281 C 169.679688 310.699219 165.777344 309.238281 161.929688 307.691406 C 160.503906 307.113281 159.164062 306.066406 158.066406 304.957031 C 155.878906 302.738281 155.492188 299.621094 157.40625 297.199219 C 159.71875 294.28125 160.871094 290.855469 162.453125 287.605469 C 165.042969 282.273438 167.5 276.859375 170.367188 271.675781 C 181.636719 251.300781 192.886719 230.910156 204.433594 210.691406 C 219.414062 184.449219 235.851562 159.125 253.421875 134.539062 C 255.273438 131.945312 256.902344 129.195312 258.753906 126.601562 C 265.125 117.671875 271.492188 108.734375 277.96875 99.878906 C 286.171875 88.65625 294.5 77.519531 302.714844 66.308594 C 303.636719 65.050781 304.328125 63.574219 304.890625 62.105469 C 305.996094 59.230469 307.878906 57.851562 310.953125 58 C 311.742188 58.039062 312.546875 58.152344 313.3125 58.347656 C 320.8125 60.21875 328.050781 62.71875 334.765625 66.679688 C 342.539062 71.265625 350.445312 75.621094 358.261719 80.132812 C 360.558594 81.457031 362.863281 82.824219 364.957031 84.433594 C 366.675781 85.757812 368.09375 87.476562 369.953125 89.332031 Z M 309.273438 68.175781 C 307.234375 70.183594 305.382812 72.148438 304.164062 74.6875 C 303.242188 76.597656 302.070312 78.386719 300.976562 80.207031 C 295.914062 88.632812 290.921875 97.105469 285.734375 105.453125 C 282.609375 110.488281 279.410156 115.507812 275.820312 120.214844 C 269.351562 128.703125 263.695312 137.675781 258.824219 147.144531 C 254.835938 154.898438 250.085938 162.113281 244.796875 169.03125 C 241.46875 173.386719 238.296875 177.90625 235.519531 182.625 C 222.3125 205.0625 209.191406 227.554688 196.1875 250.109375 C 188.316406 263.765625 180.691406 277.566406 173.011719 291.332031 C 171.605469 293.855469 170.464844 296.535156 169.09375 299.363281 C 170.292969 299.898438 171.164062 300.28125 172.027344 300.675781 C 176.84375 302.898438 181.664062 305.117188 186.476562 307.355469 C 187.355469 307.765625 188.1875 308.289062 189.058594 308.722656 C 190.992188 309.683594 190.996094 309.621094 192.34375 308.023438 C 199.828125 299.164062 207.109375 290.113281 214.898438 281.527344 C 224.914062 270.488281 234.097656 258.8125 243.09375 246.953125 C 249.035156 239.125 255.332031 231.570312 261.445312 223.875 C 267.113281 216.730469 272.78125 209.585938 278.398438 202.398438 C 287.667969 190.539062 296.757812 178.535156 306.191406 166.804688 C 313.070312 158.25 320.519531 150.152344 327.464844 141.648438 C 339.285156 127.175781 350.910156 112.542969 362.609375 97.96875 C 363.027344 97.445312 363.363281 96.855469 363.789062 96.21875 C 346.789062 84.496094 328.457031 75.773438 309.273438 68.175781 Z M 176.566406 280.816406 C 176.402344 280.710938 176.234375 280.605469 176.070312 280.503906 C 175.445312 281.675781 174.824219 282.851562 174.203125 284.023438 C 174.371094 284.117188 174.535156 284.207031 174.703125 284.300781 C 175.324219 283.140625 175.945312 281.976562 176.566406 280.816406 Z M 6.753906 281.386719 C 5.703125 280.019531 5.59375 278.242188 5.710938 276.472656 C 6.078125 270.90625 6.335938 265.324219 6.980469 259.785156 C 8.433594 247.292969 10.191406 234.835938 11.628906 222.34375 C 12.308594 216.457031 12.621094 210.519531 12.949219 204.597656 C 13.84375 188.597656 17.015625 173.015625 21.0625 157.550781 C 27.503906 132.945312 35.082031 108.691406 43.34375 84.652344 C 47.574219 72.34375 52.394531 60.238281 56.683594 47.949219 C 59.863281 38.839844 62.628906 29.585938 65.5625 20.394531 C 66.359375 17.898438 67.492188 15.699219 70.121094 14.703125 C 70.675781 14.496094 71.394531 14.191406 71.863281 14.375 C 73.472656 15.007812 75 14.492188 76.570312 14.34375 C 79.738281 14.046875 82.914062 13.628906 86.085938 13.628906 C 100.625 13.644531 115.105469 14.425781 129.410156 17.3125 C 130.945312 17.621094 132.59375 17.371094 134.136719 17.664062 C 136.828125 18.171875 139.503906 18.800781 142.132812 19.558594 C 145.882812 20.632812 146.5625 21.632812 145.601562 25.3125 C 144.308594 30.269531 143.140625 35.261719 141.027344 39.992188 C 136.589844 49.941406 132.308594 59.957031 128.050781 69.984375 C 126.671875 73.242188 125.425781 76.570312 124.382812 79.949219 C 122.316406 86.652344 119.820312 93.164062 116.890625 99.539062 C 106.640625 121.84375 97.359375 144.558594 89.300781 167.75 C 84.242188 182.304688 79.78125 197.066406 74.816406 211.65625 C 70.996094 222.894531 66.785156 233.996094 62.800781 245.175781 C 61.109375 249.929688 59.53125 254.730469 57.960938 259.527344 C 57.582031 260.695312 57.4375 261.941406 57.183594 263.152344 C 55.976562 268.867188 54.929688 274.625 53.511719 280.285156 C 52.351562 284.921875 49.796875 286.257812 45.019531 285.84375 C 39.472656 285.367188 33.898438 285.222656 28.339844 284.851562 C 25.875 284.6875 23.40625 284.449219 20.972656 284.039062 C 16.273438 283.242188 11.597656 282.296875 6.753906 281.386719 Z M 73.769531 20.238281 C 72.566406 25.273438 71.515625 29.75 70.433594 34.214844 C 66.335938 51.105469 61.675781 67.820312 55.003906 83.902344 C 51.261719 92.914062 48.167969 102.140625 45.449219 111.503906 C 41.867188 123.835938 38.296875 136.171875 34.648438 148.480469 C 32.230469 156.632812 29.707031 164.75 27.1875 172.867188 C 22.136719 189.15625 18.789062 205.808594 16.582031 222.695312 C 15.300781 232.53125 14.289062 242.402344 13.109375 252.253906 C 12.34375 258.671875 11.457031 265.074219 10.714844 271.496094 C 10.527344 273.117188 10.6875 274.777344 10.6875 276.289062 C 14.289062 276.824219 17.671875 277.417969 21.082031 277.808594 C 23.707031 278.109375 26.375 278.402344 28.996094 278.253906 C 33.808594 277.980469 38.542969 278.207031 43.246094 279.253906 C 44.085938 279.441406 44.949219 279.523438 45.722656 279.644531 C 46.019531 279.253906 46.238281 279.070312 46.324219 278.835938 C 48.214844 273.496094 50.105469 268.15625 51.960938 262.804688 C 52.191406 262.144531 52.285156 261.421875 52.339844 260.71875 C 52.933594 253.25 54.71875 246.050781 57.121094 238.976562 C 57.773438 237.054688 58.355469 235.089844 58.773438 233.105469 C 61.0625 222.160156 64.289062 211.488281 67.871094 200.90625 C 71.019531 191.59375 74.144531 182.269531 77 172.863281 C 79.941406 163.179688 83.523438 153.773438 87.582031 144.507812 C 92.023438 134.371094 96.109375 124.078125 100.25 113.816406 C 104.226562 103.960938 107.914062 93.988281 112.023438 84.191406 C 120.046875 65.089844 128.273438 46.070312 136.410156 27.015625 C 136.609375 26.550781 136.726562 26.050781 136.960938 25.316406 C 116.058594 20.28125 94.929688 20.554688 73.769531 20.238281 Z M 33.960938 127.484375 C 33.789062 127.398438 33.621094 127.308594 33.449219 127.21875 C 33.222656 127.882812 32.960938 128.539062 32.773438 129.210938 C 30.089844 138.839844 27.261719 148.433594 24.785156 158.113281 C 22.375 167.539062 20.292969 177.050781 18.152344 186.542969 C 17.691406 188.59375 17.59375 190.726562 17.328125 192.824219 C 17.566406 192.863281 17.804688 192.902344 18.039062 192.945312 C 21.917969 170.773438 27.523438 149.027344 33.960938 127.484375 Z M 43.25 298.214844 C 44.34375 299.316406 44.253906 300.808594 44.0625 302.164062 C 43.496094 306.101562 42.90625 310.046875 42.054688 313.929688 C 41.054688 318.511719 39.773438 323.03125 38.601562 327.574219 C 37.78125 330.773438 35.820312 332.105469 32.578125 332.996094 C 25.398438 334.964844 18.246094 334.695312 11.109375 333.351562 C 10.410156 334.527344 9.800781 335.550781 9.195312 336.574219 C 7.671875 336.164062 6.972656 335.210938 6.679688 334.101562 C 6.246094 332.464844 5.292969 331.503906 3.703125 331.09375 C 3.617188 331.074219 3.539062 331.027344 3.460938 330.984375 C 2.332031 330.363281 1.28125 329.621094 1.507812 328.140625 C 1.714844 326.78125 2.800781 326.351562 4.015625 326.15625 C 4.265625 326.117188 4.507812 325.988281 4.960938 325.828125 C 5.015625 325.125 5.070312 324.355469 5.132812 323.589844 C 5.636719 317.503906 6.144531 311.417969 6.648438 305.332031 C 6.703125 304.628906 6.859375 303.910156 6.785156 303.21875 C 6.5625 301.097656 7.644531 299.769531 9.457031 299.136719 C 11.359375 298.472656 13.355469 297.761719 15.332031 297.6875 C 23.652344 297.375 31.964844 297.585938 40.246094 298.542969 C 41.121094 298.640625 42.039062 298.355469 43.25 298.214844 Z M 13.101562 303.589844 C 12.511719 311.398438 11.953125 318.753906 11.390625 326.152344 C 11.878906 326.3125 12.199219 326.492188 12.53125 326.515625 C 18.347656 326.878906 24.171875 327.160156 29.964844 326.195312 C 32.273438 325.8125 32.265625 325.753906 32.773438 323.40625 C 34.039062 317.535156 35.339844 311.671875 36.617188 305.804688 C 36.738281 305.25 36.769531 304.671875 36.84375 304.082031 C 36.402344 303.988281 36.152344 303.894531 35.898438 303.886719 C 29.902344 303.710938 23.90625 303.523438 17.910156 303.394531 C 16.34375 303.359375 14.777344 303.515625 13.101562 303.589844 Z M 161.738281 361.652344 C 159.433594 361.078125 157.03125 360.742188 154.839844 359.875 C 148.601562 357.398438 142.441406 354.71875 136.261719 352.085938 C 135.542969 351.777344 134.832031 351.351562 134.25 350.832031 C 132.339844 349.117188 132.898438 346.34375 135.421875 346.03125 C 137.71875 345.746094 138.460938 344.421875 139.261719 342.679688 C 141.511719 337.78125 143.847656 332.917969 146.1875 328.058594 C 146.761719 326.867188 147.554688 325.777344 148.097656 324.574219 C 148.429688 323.828125 148.628906 322.949219 148.621094 322.132812 C 148.605469 320.101562 149.386719 319.148438 151.46875 319.3125 C 152.859375 319.417969 154.332031 319.65625 155.578125 320.242188 C 160.605469 322.613281 165.601562 325.058594 170.515625 327.65625 C 172.851562 328.894531 174.972656 330.449219 177.652344 331.039062 C 179.8125 331.515625 180.558594 333.101562 180.085938 335.300781 C 179.996094 335.734375 179.878906 336.167969 179.703125 336.570312 C 176.257812 344.449219 172.429688 352.105469 167.003906 358.859375 C 165.648438 360.546875 164.074219 361.667969 161.738281 361.652344 Z M 143.382812 347.28125 C 149.242188 349.8125 154.535156 352.8125 160.347656 354.699219 C 161.679688 355.128906 162.566406 354.796875 163.210938 353.609375 C 163.503906 353.066406 163.820312 352.535156 164.117188 351.992188 C 166.71875 347.171875 169.324219 342.355469 171.917969 337.527344 C 172.230469 336.945312 172.460938 336.3125 172.667969 335.84375 C 166.476562 333.050781 160.488281 330.347656 154.425781 327.617188 C 154.070312 328.289062 153.761719 328.816406 153.511719 329.371094 C 151.375 334.140625 149.046875 338.785156 145.730469 342.890625 C 144.765625 344.085938 144.242188 345.636719 143.382812 347.28125 Z M 98.714844 343.910156 C 96.515625 343.472656 92.691406 342.789062 88.910156 341.9375 C 86.066406 341.296875 83.277344 340.414062 80.457031 339.683594 C 78.859375 339.269531 77.34375 338.578125 75.554688 339.0625 C 74.371094 339.382812 73.417969 338.554688 73.234375 337.085938 C 73.027344 335.4375 72.902344 333.695312 73.210938 332.085938 C 74.414062 325.792969 76.59375 319.816406 79.390625 314.054688 C 80.078125 312.636719 80.460938 311.0625 81.234375 309.699219 C 82.410156 307.632812 84.207031 306.152344 86.644531 305.96875 C 88.203125 305.855469 89.832031 306.066406 91.371094 306.390625 C 98.546875 307.917969 105.703125 309.53125 112.863281 311.121094 C 116.371094 311.898438 117.378906 313.960938 116.011719 317.453125 C 113.238281 324.539062 110.433594 331.617188 107.730469 338.726562 C 105.980469 343.320312 105.246094 343.917969 98.714844 343.910156 Z M 85.796875 313.011719 C 83.632812 319.296875 81.570312 325.285156 79.410156 331.570312 C 86.882812 334.464844 94.308594 336.4375 101.964844 338.15625 C 102.972656 334.488281 103.816406 331.15625 104.816406 327.867188 C 105.804688 324.617188 106.953125 321.410156 107.96875 318.359375 C 103.046875 316.949219 98.410156 315.511719 93.71875 314.3125 C 91.257812 313.683594 88.695312 313.472656 85.796875 313.011719 Z M 85.796875 313.011719 " fill-opacity="1" fill-rule="nonzero"/></g><path fill="rgb(89.7995%, 89.7995%, 89.7995%)" d="M 192.347656 30.164062 C 198.128906 30.734375 203.574219 31.234375 209.007812 31.835938 C 211.023438 32.0625 213.039062 32.417969 215.011719 32.890625 C 230.761719 36.667969 246.5 40.488281 262.238281 44.300781 C 262.898438 44.460938 263.546875 44.671875 264.429688 44.925781 C 263.917969 45.882812 263.542969 46.65625 263.101562 47.390625 C 257.707031 56.449219 252.160156 65.394531 245.546875 73.648438 C 241.894531 78.203125 238.585938 83.035156 235.121094 87.742188 C 230.074219 94.605469 225.628906 101.847656 221.664062 109.382812 C 212.878906 126.09375 203.269531 142.304688 193.058594 158.1875 C 173.429688 188.734375 156.800781 220.875 142.933594 254.449219 C 140.976562 259.1875 138.597656 263.753906 136.339844 268.359375 C 133.261719 274.640625 130.113281 280.886719 126.992188 287.144531 C 126.164062 288.804688 125.332031 290.464844 124.414062 292.289062 C 115.121094 291.71875 106.214844 289.085938 96.914062 287.632812 C 97.164062 286.675781 97.332031 285.917969 97.558594 285.183594 C 99.550781 278.738281 101.070312 272.199219 101.890625 265.492188 C 102.066406 264.019531 102.566406 262.558594 103.097656 261.160156 C 107.863281 248.664062 112.757812 236.214844 117.433594 223.6875 C 121.617188 212.488281 125.828125 201.289062 129.5625 189.933594 C 134.546875 174.761719 140.597656 160.027344 147.007812 145.425781 C 153.34375 130.988281 159.769531 116.597656 165.992188 102.113281 C 168.085938 97.242188 169.671875 92.148438 171.5 87.164062 C 175.363281 76.601562 179.234375 66.039062 183.105469 55.480469 C 183.992188 53.070312 184.855469 50.648438 185.800781 48.261719 C 188.179688 42.265625 191.003906 36.433594 192.347656 30.164062 Z M 179.78125 38.011719 C 178.035156 42.746094 176.292969 47.476562 174.546875 52.207031 C 177.507812 48.460938 180.238281 40.839844 179.78125 38.011719 Z M 94.835938 285.339844 C 95.210938 284.195312 95.609375 283.058594 95.960938 281.90625 C 96.285156 280.851562 96.558594 279.78125 96.859375 278.71875 C 96.695312 278.675781 96.53125 278.632812 96.367188 278.59375 C 95.699219 280.792969 95.03125 282.992188 94.363281 285.195312 C 94.519531 285.242188 94.679688 285.292969 94.835938 285.339844 Z M 304.164062 74.6875 C 303.242188 76.597656 302.070312 78.386719 300.976562 80.207031 C 295.914062 88.632812 290.921875 97.105469 285.734375 105.453125 C 282.609375 110.488281 279.410156 115.507812 275.820312 120.214844 C 269.351562 128.703125 263.695312 137.675781 258.824219 147.144531 C 254.835938 154.898438 250.085938 162.113281 244.796875 169.03125 C 241.46875 173.386719 238.296875 177.90625 235.519531 182.625 C 222.3125 205.0625 209.191406 227.554688 196.1875 250.109375 C 188.316406 263.765625 180.691406 277.566406 173.011719 291.332031 C 171.605469 293.855469 170.464844 296.535156 169.09375 299.363281 C 170.292969 299.898438 171.164062 300.28125 172.027344 300.675781 C 176.84375 302.898438 181.664062 305.117188 186.476562 307.355469 C 187.355469 307.765625 188.1875 308.289062 189.058594 308.722656 C 190.992188 309.683594 190.996094 309.621094 192.34375 308.023438 C 199.828125 299.164062 207.109375 290.113281 214.898438 281.527344 C 224.914062 270.488281 234.097656 258.8125 243.09375 246.953125 C 249.035156 239.125 255.332031 231.570312 261.445312 223.875 C 267.113281 216.730469 272.78125 209.585938 278.398438 202.398438 C 287.667969 190.539062 296.757812 178.535156 306.191406 166.804688 C 313.070312 158.25 320.519531 150.152344 327.464844 141.648438 C 339.285156 127.175781 350.910156 112.542969 362.609375 97.96875 C 363.027344 97.445312 363.363281 96.855469 363.789062 96.21875 C 346.789062 84.496094 328.457031 75.773438 309.273438 68.175781 C 307.234375 70.183594 305.382812 72.148438 304.164062 74.6875 Z M 176.070312 280.503906 C 175.445312 281.675781 174.824219 282.851562 174.203125 284.023438 C 174.371094 284.117188 174.535156 284.207031 174.703125 284.300781 C 175.324219 283.140625 175.945312 281.976562 176.566406 280.816406 C 176.402344 280.710938 176.234375 280.605469 176.070312 280.503906 Z M 70.433594 34.214844 C 66.335938 51.105469 61.675781 67.820312 55.003906 83.902344 C 51.261719 92.914062 48.167969 102.140625 45.449219 111.503906 C 41.867188 123.835938 38.296875 136.171875 34.648438 148.480469 C 32.230469 156.632812 29.707031 164.75 27.1875 172.867188 C 22.136719 189.15625 18.789062 205.808594 16.582031 222.695312 C 15.300781 232.53125 14.289062 242.402344 13.109375 252.253906 C 12.34375 258.671875 11.457031 265.074219 10.714844 271.496094 C 10.527344 273.117188 10.6875 274.777344 10.6875 276.289062 C 14.289062 276.824219 17.671875 277.417969 21.082031 277.808594 C 23.707031 278.109375 26.375 278.402344 28.996094 278.253906 C 33.808594 277.980469 38.542969 278.207031 43.246094 279.253906 C 44.085938 279.441406 44.949219 279.523438 45.722656 279.644531 C 46.019531 279.253906 46.238281 279.070312 46.324219 278.835938 C 48.214844 273.496094 50.105469 268.15625 51.960938 262.804688 C 52.191406 262.144531 52.285156 261.421875 52.339844 260.71875 C 52.933594 253.25 54.71875 246.050781 57.121094 238.976562 C 57.773438 237.054688 58.355469 235.089844 58.773438 233.105469 C 61.0625 222.160156 64.289062 211.488281 67.871094 200.90625 C 71.019531 191.59375 74.144531 182.269531 77 172.863281 C 79.941406 163.179688 83.523438 153.773438 87.582031 144.507812 C 92.023438 134.371094 96.109375 124.078125 100.25 113.816406 C 104.226562 103.960938 107.914062 93.988281 112.023438 84.191406 C 120.046875 65.089844 128.273438 46.070312 136.410156 27.015625 C 136.609375 26.550781 136.726562 26.050781 136.960938 25.316406 C 116.058594 20.28125 94.929688 20.554688 73.769531 20.238281 C 72.566406 25.273438 71.515625 29.75 70.433594 34.214844 Z M 33.449219 127.21875 C 33.222656 127.882812 32.960938 128.539062 32.773438 129.210938 C 30.089844 138.839844 27.261719 148.433594 24.785156 158.113281 C 22.375 167.539062 20.292969 177.050781 18.152344 186.542969 C 17.691406 188.59375 17.59375 190.726562 17.328125 192.824219 C 17.566406 192.863281 17.804688 192.902344 18.039062 192.945312 C 21.917969 170.773438 27.523438 149.027344 33.960938 127.484375 C 33.789062 127.398438 33.621094 127.308594 33.449219 127.21875 Z M 11.390625 326.152344 C 11.878906 326.3125 12.199219 326.492188 12.53125 326.515625 C 18.347656 326.878906 24.171875 327.160156 29.964844 326.195312 C 32.273438 325.8125 32.265625 325.753906 32.773438 323.40625 C 34.039062 317.535156 35.339844 311.671875 36.617188 305.804688 C 36.738281 305.25 36.769531 304.671875 36.84375 304.082031 C 36.402344 303.988281 36.152344 303.894531 35.898438 303.886719 C 29.902344 303.710938 23.90625 303.523438 17.910156 303.394531 C 16.34375 303.359375 14.777344 303.515625 13.101562 303.589844 C 12.511719 311.398438 11.953125 318.753906 11.390625 326.152344 Z M 160.347656 354.699219 C 161.679688 355.128906 162.566406 354.796875 163.210938 353.609375 C 163.503906 353.066406 163.820312 352.535156 164.117188 351.992188 C 166.71875 347.171875 169.324219 342.355469 171.917969 337.527344 C 172.230469 336.945312 172.460938 336.3125 172.667969 335.84375 C 166.476562 333.050781 160.488281 330.347656 154.425781 327.617188 C 154.070312 328.289062 153.761719 328.816406 153.511719 329.371094 C 151.375 334.140625 149.046875 338.785156 145.730469 342.890625 C 144.765625 344.085938 144.242188 345.636719 143.382812 347.28125 C 149.242188 349.8125 154.535156 352.8125 160.347656 354.699219 Z M 79.410156 331.570312 C 86.882812 334.464844 94.308594 336.4375 101.964844 338.15625 C 102.972656 334.488281 103.816406 331.15625 104.816406 327.867188 C 105.804688 324.617188 106.953125 321.410156 107.96875 318.359375 C 103.046875 316.949219 98.410156 315.511719 93.71875 314.3125 C 91.257812 313.683594 88.695312 313.472656 85.796875 313.011719 C 83.632812 319.296875 81.570312 325.285156 79.410156 331.570312 Z M 79.410156 331.570312 " fill-opacity="1" fill-rule="nonzero"/></svg>