<svg xmlns="http://www.w3.org/2000/svg" width="1440" viewBox="0 0 1440 810" height="810" version="1.0"><g fill="#36454F"><g><g><path d="M 130.09375 -201.296875 L 136.59375 -201.171875 L 133.203125 -194.734375 C 137.523438 -193.921875 139.648438 -191.648438 139.578125 -187.921875 C 139.015625 -159.765625 141.617188 -124.617188 147.390625 -82.484375 C 145.140625 -78.316406 143.992188 -75.085938 143.953125 -72.796875 C 145.742188 -54.097656 146.539062 -39.816406 146.34375 -29.953125 L 143.09375 -30.015625 L 136.484375 -33.390625 L 136.421875 -30.140625 C 138.585938 -30.097656 139.648438 -28.992188 139.609375 -26.828125 L 129.859375 -27.03125 C 129.992188 -33.644531 129.0625 -41.304688 127.0625 -50.015625 L 130.578125 -63.140625 C 125.015625 -116.578125 122.488281 -156.113281 123 -181.75 C 123.03125 -183.070312 125.394531 -189.585938 130.09375 -201.296875 Z M 28.015625 -200.078125 L 31.265625 -200.015625 L 31.078125 -190.09375 L 34 -173.609375 L 27.5625 -176.984375 C 27.363281 -167.117188 26.148438 -160.582031 23.921875 -157.375 L 27.171875 -157.3125 C 27.972656 -161.75 30.179688 -163.929688 33.796875 -163.859375 L 36.90625 -147.359375 L 36.25 -114.328125 L 39.15625 -97.828125 L 35.921875 -97.90625 C 37.992188 -93.882812 40.753906 -69.6875 44.203125 -25.3125 L 37.640625 -22.1875 L 27.71875 -22.390625 L 14.703125 -193.84375 C 18.078125 -193.78125 22.515625 -195.859375 28.015625 -200.078125 Z M 129.234375 -158.53125 L 129.171875 -155.28125 C 132.929688 -126.539062 134.679688 -105.675781 134.421875 -92.6875 L 137.671875 -92.609375 L 137.9375 -105.796875 C 138.082031 -113.003906 136.265625 -130.5625 132.484375 -158.46875 Z M 118.84375 -135.796875 L 121.953125 -129.03125 L 121.890625 -125.78125 C 121.804688 -121.445312 119.597656 -119.328125 115.265625 -119.421875 L 108.59375 -119.546875 C 103.65625 -119.648438 99.285156 -120.820312 95.484375 -123.0625 C 83.109375 -118.976562 65.546875 -117.160156 42.796875 -117.609375 L 43.125 -134.046875 C 45.289062 -134.003906 46.351562 -132.835938 46.3125 -130.546875 C 68.789062 -134.554688 92.96875 -136.304688 118.84375 -135.796875 Z M 137.609375 -89.359375 L 137.140625 -66.25 L 140.390625 -66.1875 L 140.859375 -89.296875 Z M 137.609375 -89.359375" transform="translate(55.315 452.657)"/></g></g></g><g fill="#36454F"><g><g><path d="M 87.046875 -188.984375 L 93.546875 -188.84375 L 93.21875 -172.421875 L 86.78125 -175.8125 L 86.71875 -172.5625 L 93.15625 -169.171875 L 99.890625 -172.296875 L 103 -165.734375 C 107.269531 -167.804688 110.609375 -168.820312 113.015625 -168.78125 C 141.140625 -154.601562 154.921875 -133.5 154.359375 -105.46875 L 153.703125 -72.59375 L 147.265625 -75.984375 C 146.828125 -54.078125 137.710938 -37.820312 119.921875 -27.21875 C 123.773438 -27.144531 133.796875 -34.59375 149.984375 -49.5625 L 149.921875 -46.3125 C 139.085938 -22.445312 115.863281 -10.875 80.25 -11.59375 L 80.171875 -8.15625 L 86.671875 -8.015625 C 86.585938 -3.679688 83.234375 -1.582031 76.609375 -1.71875 C 51.929688 -2.207031 34.882812 -25.601562 25.46875 -71.90625 L 25.53125 -75.15625 L 28.78125 -75.09375 C 41.75 -37.519531 56.71875 -18.5625 73.6875 -18.21875 C 79.34375 -18.101562 91.507812 -21.171875 110.1875 -27.421875 C 110.132812 -25.140625 111.1875 -23.976562 113.34375 -23.9375 C 129.050781 -44.070312 136.921875 -54.925781 136.953125 -56.5 C 138.710938 -78.382812 141.15625 -89.296875 144.28125 -89.234375 L 147.53125 -89.171875 C 137.007812 -135.378906 127.597656 -158.566406 119.296875 -158.734375 C 119.335938 -161.015625 116.070312 -163.300781 109.5 -165.59375 L 109.4375 -162.34375 C 112.4375 -162.289062 117.800781 -156.703125 125.53125 -145.578125 L 125.46875 -142.15625 C 101.226562 -152.269531 85 -162.46875 76.78125 -172.75 C 60.625 -172.351562 42.914062 -162.832031 23.65625 -144.1875 L 23.71875 -147.609375 C 41.851562 -175.671875 62.960938 -189.460938 87.046875 -188.984375 Z M 53.640625 -163.46875 L 53.578125 -160.046875 C 33.484375 -142.003906 23.003906 -111.503906 22.140625 -68.546875 C 22.078125 -65.296875 24.046875 -55.378906 28.046875 -38.796875 C 17.335938 -51.535156 12.144531 -65.910156 12.46875 -81.921875 L 12.671875 -91.859375 C 13.359375 -126.273438 27.015625 -150.144531 53.640625 -163.46875 Z M 53.640625 -163.46875" transform="translate(267.217 456.893)"/></g></g></g><g fill="#36454F"><g><g><path d="M 17.828125 -187.109375 L 27.765625 -186.90625 L 30.6875 -170.421875 L 27.296875 -163.984375 C 45.460938 -90.773438 61.144531 -53.132812 74.34375 -51.0625 C 87.40625 -53.6875 103.035156 -67.644531 121.234375 -92.9375 L 124.484375 -92.875 L 114.40625 -76.640625 L 117.65625 -76.578125 C 118.457031 -80.890625 120.664062 -83.007812 124.28125 -82.9375 L 124.21875 -79.6875 C 114.65625 -58.570312 102.335938 -44.546875 87.265625 -37.609375 L 64.140625 -38.078125 C 49.703125 -38.367188 36.1875 -72.65625 23.59375 -140.9375 C 21.300781 -140.988281 20.175781 -142.097656 20.21875 -144.265625 C 22.582031 -148.066406 23.816406 -152.4375 23.921875 -157.375 L 17.171875 -154.25 L 13.921875 -154.3125 L 13.984375 -157.578125 C 14.023438 -159.617188 16.363281 -168.359375 21 -183.796875 C 18.832031 -183.835938 17.773438 -184.941406 17.828125 -187.109375 Z M 287.34375 -171.796875 L 297.28125 -171.59375 C 285.8125 -110.175781 270.804688 -73.210938 252.265625 -60.703125 L 255.515625 -60.640625 C 255.554688 -62.804688 256.65625 -63.867188 258.8125 -63.828125 L 258.75 -60.578125 C 236.613281 -37.054688 222.113281 -25.304688 215.25 -25.328125 C 176.46875 -54.867188 157.425781 -87.03125 158.125 -121.8125 L 151.375 -118.703125 C 151.414062 -120.867188 150.351562 -121.972656 148.1875 -122.015625 C 144.019531 -106.691406 139.472656 -99.082031 134.546875 -99.1875 L 134.625 -102.625 L 138.125 -115.703125 L 138.203125 -118.953125 L 134.953125 -119.03125 C 134.773438 -110.257812 132.519531 -105.914062 128.1875 -106 L 128.25 -109.234375 C 134.800781 -141.984375 141.6875 -158.285156 148.90625 -158.140625 C 153.125 -157.929688 164.660156 -132.472656 183.515625 -81.765625 C 203.566406 -55.109375 215.394531 -41.742188 219 -41.671875 C 219.082031 -46.003906 229.175781 -56.757812 249.28125 -73.9375 C 252.707031 -82.664062 256.039062 -87 259.28125 -86.9375 C 259.238281 -84.769531 260.300781 -83.664062 262.46875 -83.625 C 269.488281 -104.1875 273.015625 -115.066406 273.046875 -116.265625 L 266.46875 -113.140625 L 266.546875 -116.390625 C 268.796875 -120.566406 269.941406 -123.796875 269.984375 -126.078125 L 273.234375 -126.015625 L 273.109375 -119.515625 L 276.359375 -119.453125 L 276.546875 -129.390625 C 274.472656 -133.640625 273.457031 -136.910156 273.5 -139.203125 L 280.125 -135.8125 L 283.828125 -158.859375 L 283.890625 -162.109375 L 280.78125 -168.671875 Z M 131.171875 -92.75 L 131.109375 -89.5 C 131.015625 -85.039062 128.738281 -82.851562 124.28125 -82.9375 L 124.359375 -86.375 C 125.160156 -90.695312 127.429688 -92.820312 131.171875 -92.75 Z M 131.171875 -92.75" transform="translate(485.619 461.26)"/></g></g></g><g fill="#36454F"><g><g><path d="M 58.015625 -219.171875 C 123.359375 -199.078125 155.671875 -171.039062 154.953125 -135.0625 C 157.242188 -135.019531 158.320312 -131.6875 158.1875 -125.0625 L 157.921875 -111.890625 C 150.890625 -61.578125 138.285156 -36.597656 120.109375 -36.953125 L 120.25 -43.640625 C 128.675781 -43.472656 135.476562 -55.378906 140.65625 -79.359375 C 136.320312 -79.453125 134.203125 -81.726562 134.296875 -86.1875 C 138.785156 -94.039062 141.125 -102.71875 141.3125 -112.21875 C 141.914062 -142.3125 132.566406 -165.554688 113.265625 -181.953125 L 106.578125 -182.078125 L 109.96875 -188.515625 L 103.40625 -185.40625 C 91.65625 -194.414062 66.570312 -201.472656 28.15625 -206.578125 L 27.765625 -186.90625 L 30.6875 -170.421875 L 27.4375 -170.484375 C 29.332031 -157.316406 31.363281 -150.710938 33.53125 -150.671875 C 33.488281 -148.265625 32.34375 -144.976562 30.09375 -140.8125 C 31.644531 -109.957031 32.203125 -83.640625 31.765625 -61.859375 L 31.625 -55.171875 L 34.734375 -38.671875 L 31.296875 -38.734375 C 33.515625 -34.859375 34.570312 -30.453125 34.46875 -25.515625 L 40.953125 -25.375 L 60.5625 -21.734375 C 81.988281 -26.835938 106.457031 -42.84375 133.96875 -69.75 L 133.890625 -66.328125 C 133.710938 -57.535156 127 -50.019531 113.75 -43.78125 C 97.738281 -19.90625 78.835938 -8.179688 57.046875 -8.609375 L 24.203125 -9.265625 C 24.253906 -11.671875 23.238281 -15.003906 21.15625 -19.265625 C 23.320312 -19.222656 24.425781 -20.285156 24.46875 -22.453125 L 17.71875 -19.34375 L 14.46875 -19.40625 C 15.28125 -23.726562 17.550781 -25.847656 21.28125 -25.765625 L 17.984375 -32.515625 L 18.046875 -35.765625 C 18.085938 -37.921875 19.253906 -38.972656 21.546875 -38.921875 L 15.59375 -75.359375 L 18.96875 -81.796875 C 16.882812 -86.054688 15.867188 -89.390625 15.921875 -91.796875 C 15.960938 -94.078125 17.109375 -97.304688 19.359375 -101.484375 L 16.515625 -121.390625 L 16.578125 -124.640625 C 16.617188 -126.804688 17.722656 -127.867188 19.890625 -127.828125 C 15.773438 -138.984375 14.003906 -158.765625 14.578125 -187.171875 L 14.96875 -206.84375 C 36.320312 -215.21875 50.671875 -219.328125 58.015625 -219.171875 Z M 34.34375 -19.015625 L 34.28125 -15.765625 L 47.265625 -15.5 L 47.328125 -18.75 Z M 34.34375 -19.015625" transform="translate(845.563 468.456)"/></g></g></g><g fill="#36454F"><g><g><path d="M 16.140625 -266.0625 L 26.078125 -265.859375 L 22.515625 -259.4375 L 22.453125 -256.1875 L 39.078125 -255.859375 C 52.265625 -235.367188 77.941406 -204.15625 116.109375 -162.21875 L 115.984375 -155.546875 L 119.234375 -155.484375 L 139.25 -171.5 L 142.5 -171.4375 L 139.109375 -165 L 142.359375 -164.9375 C 176.128906 -204.113281 193.160156 -231.164062 193.453125 -246.09375 L 203.203125 -245.90625 L 206.3125 -229.40625 C 203.363281 -226.8125 197.632812 -217.046875 189.125 -200.109375 L 128.90625 -142.09375 L 131.765625 -122.34375 C 131.722656 -120.175781 130.617188 -119.113281 128.453125 -119.15625 L 131.5625 -112.421875 L 131.5 -109.171875 C 130.988281 -83.660156 133.664062 -55.070312 139.53125 -23.40625 C 137.28125 -19.226562 136.132812 -16 136.09375 -13.71875 L 126.34375 -13.921875 L 126.53125 -23.671875 L 119.78125 -20.546875 L 119.984375 -30.46875 L 126.609375 -27.09375 L 126.796875 -36.828125 L 120.046875 -33.71875 L 120.109375 -36.953125 C 122.359375 -40.765625 123.53125 -45.140625 123.625 -50.078125 C 119.289062 -50.171875 117.144531 -51.300781 117.1875 -53.46875 L 121.03125 -83 C 118.863281 -83.050781 117.804688 -84.222656 117.859375 -86.515625 C 120.023438 -86.460938 121.128906 -87.519531 121.171875 -89.6875 L 114.734375 -93.078125 L 118.109375 -99.515625 L 118.3125 -109.4375 L 115.0625 -109.5 L 114.796875 -96.328125 L 111.5625 -96.390625 L 111.953125 -116.234375 C 112.265625 -131.765625 115.753906 -143.734375 122.421875 -152.140625 L 115.84375 -149.03125 L 109.171875 -149.15625 C 78.492188 -174.457031 47.460938 -212.34375 16.078125 -262.8125 Z M 149.359375 -181.234375 L 152.609375 -181.171875 C 152.546875 -178.046875 149.175781 -174.800781 142.5 -171.4375 L 142.5625 -174.6875 C 143.363281 -179.125 145.628906 -181.304688 149.359375 -181.234375 Z M 115.125 -112.75 C 119.457031 -112.65625 122.863281 -120.289062 125.34375 -135.65625 C 121.007812 -135.75 117.601562 -128.113281 115.125 -112.75 Z M 115.125 -112.75" transform="translate(1067.395 472.89)"/></g></g></g><g fill="#36454F"><g><g><path d="M 22.78125 -272.625 L 62.25 -268.578125 L 78.6875 -268.25 L 85.296875 -264.6875 C 85.347656 -266.976562 86.457031 -268.101562 88.625 -268.0625 C 88.5625 -264.8125 92.863281 -260.328125 101.53125 -254.609375 L 101.46875 -251.1875 C 84.820312 -111.238281 72.40625 -41.347656 64.21875 -41.515625 L 60.96875 -41.578125 L 61.03125 -44.828125 L 64.40625 -51.265625 L 61.15625 -51.328125 C 59.300781 -42.566406 57.046875 -38.210938 54.390625 -38.265625 C 47.265625 -42.867188 40.757812 -45.234375 34.875 -45.359375 C 34.832031 -43.191406 33.664062 -42.128906 31.375 -42.171875 C 27.144531 -47.546875 25.0625 -51.921875 25.125 -55.296875 L 28.515625 -61.921875 C 24.617188 -84.023438 20.015625 -128 14.703125 -193.84375 C 16.953125 -198.019531 18.101562 -201.25 18.15625 -203.53125 C 18.195312 -205.695312 17.132812 -206.800781 14.96875 -206.84375 C 15.019531 -209.613281 18.75 -230.429688 26.15625 -269.296875 C 23.863281 -269.347656 22.738281 -270.457031 22.78125 -272.625 Z M 81.40625 -241.828125 C 81.269531 -235.210938 80.035156 -227.53125 77.703125 -218.78125 C 82.160156 -218.695312 84.453125 -221.96875 84.578125 -228.59375 L 84.84375 -241.765625 Z M 35.171875 -232.828125 L 34.921875 -219.640625 L 38.359375 -219.578125 L 38.609375 -232.765625 Z M 61.515625 -232.296875 C 52.273438 -209.472656 47.625 -196.4375 47.5625 -193.1875 L 50.8125 -193.125 L 64.765625 -232.234375 Z M 67.828125 -222.234375 C 67.734375 -217.421875 66.5625 -213.109375 64.3125 -209.296875 L 71 -209.171875 L 71.265625 -222.171875 Z M 87.640625 -218.59375 L 84.0625 -202.21875 L 90.5625 -202.078125 L 90.890625 -218.515625 Z M 57.15625 -176.390625 L 53.578125 -160.046875 C 57.910156 -159.953125 60.117188 -162.128906 60.203125 -166.578125 L 60.40625 -176.328125 Z M 55.1875 -77.8125 L 48.578125 -81.203125 L 48.453125 -74.703125 L 51.875 -74.640625 C 56.695312 -74.535156 60.1875 -86.503906 62.34375 -110.546875 C 58.007812 -110.628906 55.625 -99.71875 55.1875 -77.8125 Z M 17.515625 -9.40625 L 24.203125 -9.265625 L 23.8125 10.421875 L 33.75 10.609375 C 29.4375 3.296875 27.335938 -3.304688 27.453125 -9.203125 C 34.460938 -4.734375 39.894531 -2.457031 43.75 -2.375 L 63.484375 -5.234375 L 69.984375 4.65625 C 68.117188 13.40625 65.800781 17.753906 63.03125 17.703125 L 69.25 40.9375 C 66.257812 51.832031 62.835938 57.242188 58.984375 57.171875 L 59.1875 47.234375 L 55.9375 47.171875 C 55.757812 55.960938 53.503906 60.3125 49.171875 60.21875 L 39.25 60.03125 L 16.203125 56.3125 L 19.78125 49.890625 C 19.820312 47.472656 18.738281 44.132812 16.53125 39.875 C 16.582031 37.59375 17.796875 34.3125 20.171875 30.03125 C 18.179688 15.050781 17.273438 2.988281 17.453125 -6.15625 Z M 40.234375 10.75 C 40.140625 15.675781 38.96875 20.046875 36.71875 23.859375 L 39.96875 23.921875 L 46.671875 14.125 Z M 43.21875 23.984375 C 43.09375 30.242188 39.738281 35.648438 33.15625 40.203125 C 35.25 43.867188 36.21875 49.375 36.0625 56.71875 C 40.394531 56.800781 42.609375 54.675781 42.703125 50.34375 L 43.03125 33.734375 L 46.28125 33.796875 L 46.46875 24.046875 Z M 43.21875 23.984375" transform="translate(1335.264 478.246)"/></g></g></g><path fill="#36454F" d="M 58.261719 623.265625 C 79.972656 616.550781 153.183594 602.574219 175.441406 600.855469 C 153.375 606.84375 83.1875 620.648438 58.261719 623.265625 Z M 1205.390625 604.402344 C 1153.449219 591.890625 1101.070312 582.898438 1048.4375 576.539062 C 1084.363281 576.292969 1120.273438 575.703125 1156.136719 574.605469 C 1165 574.339844 1165.367188 557.664062 1156.578125 556.703125 C 976.265625 537.175781 795.332031 523.4375 614.15625 524.972656 C 525.644531 525.734375 437.222656 532.628906 348.871094 538.414062 C 305.925781 541.222656 263.121094 545.097656 220.472656 551.621094 C 199.757812 554.792969 179.148438 558.792969 158.707031 563.738281 C 150.097656 565.820312 155.117188 572 171.695312 570.632812 C 192.628906 568.914062 213.1875 563.800781 234.089844 561.378906 C 274.785156 556.648438 315.714844 554.171875 356.554688 551.960938 C 442.902344 547.296875 529.164062 542.664062 615.605469 541.875 C 741.792969 540.699219 867.871094 547.757812 993.683594 558.730469 C 664.46875 558.355469 333.742188 536.078125 9.597656 616.964844 C 0.820312 619.152344 0.125 632.542969 9.132812 635.09375 C 47.277344 645.863281 88.53125 636.863281 126.328125 628.539062 C 173.144531 618.226562 219.476562 609.953125 266.976562 604.730469 C 373.867188 593 481.085938 591.289062 588.316406 587.117188 C 693.875 582.996094 780.746094 580.464844 908.398438 583.433594 C 890.632812 583.015625 397.648438 599.480469 145.203125 631.773438 C 135 633.074219 134.464844 650.65625 144.691406 652.503906 C 179.988281 658.921875 215.675781 652.257812 250.460938 644.828125 C 292.542969 635.839844 336.050781 634.941406 378.738281 631.910156 C 466.945312 625.644531 555.042969 623.507812 643.394531 625.195312 C 823.269531 628.632812 1003.238281 644.851562 1181.996094 667.109375 C 1191.835938 668.335938 1194.3125 650.957031 1184.402344 649.484375 C 1023.574219 625.527344 889.164062 611.9375 726.992188 606.664062 C 894.777344 601.230469 1035.425781 604.558594 1202.773438 623.550781 C 1213.503906 624.769531 1216.003906 606.953125 1205.390625 604.402344"/></svg>