<svg xmlns="http://www.w3.org/2000/svg" xmlns:xlink="http://www.w3.org/1999/xlink" width="500" zoomAndPan="magnify" viewBox="0 0 375 374.999991" height="500" preserveAspectRatio="xMidYMid meet" version="1.0"><defs><clipPath id="id1"><path d="M 0 5.113281 L 375 5.113281 L 375 369.613281 L 0 369.613281 Z M 0 5.113281 " clip-rule="nonzero"/></clipPath></defs><g clip-path="url(#id1)"><path fill="rgb(75.689697%, 15.289307%, 17.649841%)" d="M 152.164062 190.902344 C 152.386719 191.632812 153.035156 191.75 153.644531 191.929688 C 154.910156 192.304688 156.171875 192.691406 157.804688 193.183594 C 156.433594 193.742188 155.425781 193.441406 154.441406 193.257812 C 147.785156 192.003906 141.261719 190.175781 134.660156 188.683594 C 120.367188 185.449219 106.125 181.980469 91.679688 179.425781 C 87.238281 178.640625 82.824219 177.71875 78.347656 177.132812 C 74.179688 176.585938 74.863281 177.164062 74.753906 180.011719 C 74.269531 192.832031 73.789062 205.652344 73.304688 218.472656 C 72.816406 231.4375 72.695312 244.40625 72.710938 257.378906 C 72.714844 262.601562 72.429688 267.804688 72.050781 273.007812 C 71.898438 275.046875 71.863281 277.09375 71.808594 279.136719 C 71.789062 279.921875 71.816406 280.695312 70.855469 281.222656 C 69.859375 274.847656 70.929688 268.410156 69.476562 262.0625 C 69.40625 262.964844 69.316406 263.863281 69.273438 264.765625 C 69.222656 265.75 69.246094 266.742188 69.175781 267.726562 C 68.703125 274.410156 68.660156 281.113281 68.449219 287.808594 C 68.386719 289.859375 68.214844 293.144531 67.976562 297.292969 C 67.523438 305.164062 67.003906 311.65625 66.601562 316.242188 C 66.242188 316.917969 65.625 317.824219 64.578125 318.457031 C 63.925781 318.847656 63.335938 318.945312 63.089844 319.050781 C 61.304688 319.789062 59.546875 320.59375 57.683594 321.132812 C 54.640625 322.019531 51.617188 322.980469 48.585938 323.910156 C 47.4375 324.261719 46.261719 324.46875 45.082031 324.695312 C 43.078125 325.082031 41.75 323.851562 40.335938 322.855469 C 40.335938 322.855469 40.132812 322.59375 39.96875 322.304688 C 37.488281 317.808594 36.339844 295.152344 36.339844 295.152344 C 35.808594 284.71875 33.746094 283.703125 32.480469 266.679688 C 32.339844 264.804688 31.980469 262.925781 32.160156 261.015625 C 32.800781 261.066406 32.339844 261.800781 32.957031 261.914062 C 33.167969 259.375 32.707031 256.886719 32.503906 254.402344 C 32.296875 251.871094 31.957031 249.355469 31.703125 246.828125 C 31.453125 244.34375 31.421875 242.449219 31.367188 240.9375 C 30.839844 226.386719 31 216.449219 29.628906 204.511719 C 29.378906 202.34375 28.933594 198.855469 28.175781 194.53125 C 27.546875 192.847656 27.199219 191.410156 26.992188 190.34375 C 26.722656 188.949219 26.476562 187.054688 26.496094 187.058594 C 26.496094 187.058594 26.5 187.0625 26.5 187.070312 C 28.660156 206.941406 30.820312 226.8125 32.984375 246.683594 C 27.023438 196.832031 24.316406 175.394531 23 165.6875 C 22.773438 164.027344 21.773438 156.65625 20.410156 146.425781 C 19.601562 140.351562 18.847656 134.269531 18.007812 128.199219 C 16.832031 119.683594 15.582031 111.179688 14.40625 102.664062 C 13.308594 94.707031 12.242188 86.746094 11.207031 78.78125 C 10.097656 70.253906 8.949219 61.738281 7.679688 53.234375 C 5.964844 41.742188 4.421875 30.21875 2.207031 18.804688 C 1.832031 16.871094 1.523438 14.921875 0.773438 13.074219 C 0.609375 12.664062 0.628906 12.335938 0.792969 12.121094 C 1.0625 11.777344 1.707031 11.875 1.828125 11.886719 C 4.296875 12.171875 25.007812 5.125 33.375 6.894531 C 33.820312 6.988281 35.878906 6.257812 37.855469 7.515625 C 39.183594 8.363281 40.582031 7.394531 42 7.464844 C 41.671875 6.722656 41.027344 7.152344 40.433594 6.8125 C 43.578125 6.160156 46.636719 6.074219 49.667969 5.898438 C 55.933594 5.53125 62.207031 5.175781 68.480469 5.117188 C 72.085938 5.082031 75.714844 5.546875 77.917969 9.132812 C 78.519531 10.113281 79.066406 11.066406 79.035156 12.257812 C 79.007812 13.429688 79.3125 14.605469 80.125 15.375 C 81.414062 16.589844 81.566406 18.082031 81.5625 19.632812 C 81.542969 27.457031 81.871094 35.28125 81.628906 43.101562 C 81.332031 52.753906 81.035156 62.410156 80.238281 72.035156 C 79.71875 78.28125 79.101562 84.542969 78.054688 90.714844 C 76.207031 101.613281 76.023438 112.59375 75.734375 123.582031 C 75.535156 131.191406 75.460938 138.808594 75.332031 146.417969 C 75.320312 147.195312 75.292969 147.972656 75.320312 148.746094 C 75.382812 150.480469 75.644531 150.722656 77.363281 150.4375 C 86.144531 148.980469 95.027344 148.648438 103.878906 147.925781 C 106.316406 147.726562 108.410156 147.796875 110.15625 147.792969 C 116.664062 147.769531 117.039062 148.136719 121.8125 148.125 C 126.773438 148.113281 131.078125 148.050781 136.945312 147.847656 C 139.316406 147.761719 139.28125 147.746094 140.636719 147.710938 C 145.921875 147.574219 150.175781 147.738281 152.960938 147.902344 C 149.714844 147.226562 146.390625 147.894531 143.140625 147.351562 C 146.148438 147.070312 149.164062 147.050781 152.167969 146.910156 C 157.449219 146.660156 162.726562 146.175781 168.023438 146.324219 C 171.777344 146.433594 172.332031 147.074219 171.613281 150.839844 C 171.296875 152.5 170.839844 154.132812 170.472656 155.78125 C 170.347656 156.355469 169.992188 157.011719 171.113281 157.109375 C 171.816406 157.171875 171.796875 157.886719 171.785156 158.46875 C 171.765625 159.46875 171.441406 160.410156 171.171875 161.355469 C 169.929688 165.6875 168.652344 170.015625 167.398438 174.34375 C 167.183594 175.089844 166.878906 175.84375 166.855469 176.601562 C 166.714844 181.164062 164.320312 185.019531 162.917969 189.175781 C 162.011719 191.867188 161.054688 192.167969 158.1875 191.609375 C 156.261719 191.234375 154.398438 190.464844 152.382812 190.648438 C 152.308594 190.734375 152.234375 190.820312 152.164062 190.902344 Z M 30.011719 188.546875 C 30.074219 187.960938 30.058594 187.386719 29.835938 186.691406 C 29.679688 187.421875 29.664062 187.996094 30.039062 188.527344 C 30.015625 194.035156 30.8125 199.46875 31.503906 204.914062 C 31.65625 206.113281 31.679688 207.378906 32.25 208.808594 C 32.335938 208.554688 32.449219 208.183594 32.554688 207.726562 C 33.183594 205.023438 32.589844 203.402344 31.917969 199.429688 C 31.277344 195.609375 31.21875 195.21875 30.738281 191.59375 C 30.605469 190.574219 30.691406 189.457031 30.011719 188.546875 Z M 81.949219 152.21875 C 82.886719 152.617188 83.839844 152.617188 84.808594 152.429688 C 86.605469 152.078125 88.5 151.875 90.242188 152.175781 C 92.34375 152.539062 94.421875 152.273438 96.492188 152.539062 C 96.695312 152.566406 96.945312 152.511719 97.011719 152.28125 C 97.109375 151.941406 96.90625 151.765625 96.585938 151.734375 C 95.746094 151.65625 94.765625 151.742188 94.191406 151.132812 C 93.734375 150.644531 93.460938 150.566406 92.835938 150.664062 C 89.214844 151.226562 85.582031 151.710938 81.949219 152.21875 Z M 51.46875 296.953125 C 51.765625 294.78125 51.613281 292.632812 51.136719 290.5 C 50.824219 292.671875 51.101562 294.816406 51.46875 296.953125 Z M 137.960938 150.726562 C 139.539062 151.835938 141.046875 150.492188 142.613281 150.652344 C 141.0625 150.621094 139.519531 150.085938 137.960938 150.726562 Z M 169.898438 148.402344 C 168.796875 147.769531 167.714844 147.796875 166.597656 148.125 C 167.683594 148.066406 168.550781 150.042969 169.898438 148.402344 Z M 33.492188 256.285156 C 33.871094 255.320312 33.976562 254.359375 33.191406 253.515625 C 33.292969 254.441406 33.394531 255.363281 33.492188 256.285156 Z M 147.171875 150.773438 C 147.265625 150.863281 147.34375 151.003906 147.453125 151.035156 C 147.675781 151.097656 147.875 151.015625 147.828125 150.738281 C 147.816406 150.667969 147.605469 150.582031 147.484375 150.585938 C 147.378906 150.585938 147.277344 150.703125 147.171875 150.773438 Z M 133.175781 150.660156 C 132.84375 150.328125 132.503906 150.378906 132.148438 150.625 C 132.484375 150.945312 132.820312 150.90625 133.175781 150.660156 Z M 135.523438 150.203125 C 135.441406 150.296875 135.359375 150.394531 135.28125 150.492188 C 135.390625 150.539062 135.519531 150.648438 135.609375 150.621094 C 135.710938 150.589844 135.777344 150.441406 135.859375 150.34375 C 135.746094 150.296875 135.636719 150.25 135.523438 150.203125 Z M 60.5 283.835938 C 60.476562 283.738281 60.492188 283.550781 60.410156 283.488281 C 60.296875 283.402344 60.199219 283.527344 60.230469 283.714844 C 60.25 283.851562 60.242188 284.035156 60.324219 284.101562 C 60.425781 284.183594 60.523438 284.0625 60.5 283.835938 Z M 47.003906 320.203125 C 46.355469 320.03125 45.949219 320.300781 45.488281 320.679688 C 46.128906 320.882812 46.609375 320.859375 47.003906 320.203125 Z M 76.554688 157.261719 C 76.832031 157.210938 77.085938 157.222656 77.109375 156.984375 C 77.117188 156.921875 76.796875 156.761719 76.621094 156.75 C 76.398438 156.738281 76.027344 156.664062 76.101562 157.082031 C 76.117188 157.175781 76.441406 157.21875 76.554688 157.261719 Z M 76.96875 153.125 C 76.84375 153.101562 76.714844 153.046875 76.59375 153.058594 C 76.503906 153.070312 76.425781 153.167969 76.34375 153.230469 C 76.46875 153.257812 76.59375 153.292969 76.722656 153.308594 C 76.898438 153.332031 76.984375 153.261719 76.96875 153.125 Z M 112.941406 148.417969 C 112.695312 148.414062 112.558594 148.554688 112.570312 148.777344 C 112.578125 148.875 112.710938 149.046875 112.789062 149.046875 C 113.011719 149.046875 113.128906 148.867188 113.167969 148.660156 C 113.195312 148.503906 113.097656 148.417969 112.941406 148.417969 Z M 163.726562 148.101562 C 163.605469 148.0625 163.484375 148.007812 163.363281 147.980469 C 163.300781 147.96875 163.195312 147.988281 163.171875 148.027344 C 163.089844 148.160156 163.171875 148.246094 163.367188 148.222656 C 163.488281 148.207031 163.605469 148.144531 163.726562 148.101562 Z M 26.097656 184.511719 C 26.082031 184.460938 26.0625 184.40625 26.046875 184.355469 C 26.019531 184.398438 25.976562 184.441406 25.972656 184.488281 C 25.96875 184.539062 26.003906 184.59375 26.019531 184.644531 C 26.046875 184.601562 26.074219 184.554688 26.097656 184.511719 Z M 78.265625 154.59375 C 78.34375 154.527344 78.421875 154.460938 78.5 154.398438 C 78.398438 154.347656 78.289062 154.257812 78.1875 154.265625 C 78.105469 154.269531 78.027344 154.386719 77.949219 154.453125 C 78.054688 154.5 78.160156 154.546875 78.265625 154.59375 Z M 60.855469 303.730469 C 60.800781 303.570312 60.695312 303.527344 60.550781 303.625 C 60.503906 303.65625 60.433594 303.753906 60.445312 303.769531 C 60.507812 303.863281 60.59375 303.9375 60.675781 304.019531 C 60.734375 303.921875 60.796875 303.828125 60.855469 303.730469 Z M 292.71875 201.875 C 294.84375 200.253906 295.539062 198.042969 296.882812 196.339844 C 298.320312 194.523438 299.554688 192.546875 300.847656 190.621094 C 302.105469 188.75 303.367188 186.878906 304.550781 184.960938 C 305.722656 183.054688 306.800781 181.09375 308.089844 179.234375 C 308.1875 180.105469 307.722656 180.777344 307.414062 181.496094 C 303.519531 190.457031 298.265625 198.636719 292.808594 206.6875 C 280.9375 224.191406 269.105469 241.726562 256.867188 258.976562 C 256.011719 260.183594 255.199219 261.417969 254.390625 262.65625 C 253.566406 263.914062 253.691406 264.261719 255.21875 264.636719 C 256.65625 264.988281 258.113281 265.261719 259.570312 265.527344 C 271.449219 267.710938 283.003906 271.082031 294.40625 275.023438 C 295.605469 275.4375 296.78125 275.933594 298.054688 276.082031 C 299.371094 276.238281 300.234375 277.289062 301.429688 277.742188 C 304.984375 279.09375 308.492188 280.578125 311.996094 282.0625 C 314.945312 283.308594 315.289062 284.832031 313.242188 287.363281 C 312.253906 288.578125 311 289.503906 309.769531 290.445312 C 305.851562 293.449219 301.910156 296.425781 298.003906 299.441406 C 295.882812 301.074219 293.878906 302.875 291.683594 304.402344 C 289.421875 305.980469 286.957031 306.722656 284.195312 305.417969 C 277.675781 302.34375 271.535156 298.59375 265.332031 294.957031 C 258.335938 290.859375 251.171875 287.058594 244.0625 283.15625 C 242.105469 282.078125 242.03125 282.125 240.707031 284.0625 C 238.261719 287.652344 236.007812 291.339844 234.011719 295.214844 C 231.019531 301.023438 227.402344 306.476562 223.84375 311.953125 C 219.277344 318.984375 214.714844 326.015625 210.125 333.03125 C 209.230469 334.394531 208.527344 335.828125 207.863281 337.3125 C 206.597656 340.152344 204.71875 342.65625 202.960938 345.203125 C 199.511719 350.191406 196.171875 355.242188 193.121094 360.488281 C 191.953125 362.496094 190.507812 364.339844 189.34375 366.351562 C 188.148438 368.425781 186.429688 369.292969 184.105469 369.21875 C 181.488281 369.136719 178.921875 368.65625 176.335938 368.371094 C 175.285156 368.253906 174.367188 368.144531 173.316406 368.75 C 171.8125 369.613281 169.992188 368.179688 169.28125 366.660156 C 168.183594 364.320312 169.242188 362.796875 170.355469 360.9375 C 172.75 356.9375 174.195312 352.476562 176.011719 348.199219 C 176.203125 347.753906 176.453125 347.171875 176.066406 346.796875 C 175.039062 345.800781 175.691406 344.808594 176 343.859375 C 178.234375 336.945312 181.027344 330.242188 183.886719 323.570312 C 189.550781 310.355469 194.695312 296.925781 200.300781 283.6875 C 203.460938 276.226562 206.890625 268.875 210.089844 261.433594 C 216.945312 245.5 223.125 229.300781 229.125 213.035156 C 234.421875 198.683594 239.972656 184.429688 246.917969 170.773438 C 248.835938 167.003906 250.882812 163.300781 252.859375 159.5625 C 253.289062 158.753906 253.71875 157.941406 254.066406 157.09375 C 254.792969 155.320312 255.632812 153.636719 257.144531 152.367188 C 257.792969 151.820312 258.238281 151.230469 258.074219 150.195312 C 257.890625 149.039062 258.445312 148.671875 259.566406 148.9375 C 259.976562 149.035156 260.367188 149.210938 260.757812 149.375 C 270.539062 153.578125 280.421875 157.554688 289.917969 162.390625 C 292.046875 163.472656 294.175781 164.5 295.953125 166.210938 C 297.148438 167.355469 298.605469 168.277344 300.140625 169.03125 C 302.105469 169.992188 303.941406 171.183594 305.726562 172.445312 C 306.480469 172.976562 307.132812 173 307.769531 172.273438 C 308.046875 171.957031 308.363281 171.675781 308.6875 171.402344 C 309.132812 171.019531 309.605469 170.699219 310.1875 171.171875 C 310.757812 171.632812 310.917969 172.210938 310.558594 172.859375 C 309.675781 174.460938 308.84375 176.101562 307.851562 177.636719 C 303.289062 184.675781 298.675781 191.679688 294.089844 198.703125 C 293.535156 199.554688 292.851562 200.371094 292.71875 201.875 Z M 260.371094 289.015625 C 260.28125 289.128906 260.191406 289.246094 260.105469 289.359375 C 260.230469 289.511719 260.332031 289.707031 260.492188 289.808594 C 264.292969 292.203125 268.175781 294.453125 272.136719 296.570312 C 272.382812 296.699219 272.644531 296.824219 272.910156 296.886719 C 273.207031 296.957031 273.464844 296.824219 273.59375 296.535156 C 273.75 296.167969 273.535156 296.003906 273.210938 295.988281 C 272.785156 295.964844 272.355469 295.921875 272.007812 295.667969 C 269.269531 293.6875 266.050781 292.558594 263.226562 290.722656 C 262.296875 290.117188 261.324219 289.582031 260.371094 289.015625 Z M 281.335938 301.652344 C 282.941406 302.621094 284.527344 303.628906 286.164062 304.542969 C 287.449219 305.265625 287.859375 305.113281 289.410156 303.53125 C 287.8125 304.570312 286.585938 303.664062 285.289062 302.96875 C 284.070312 302.320312 282.917969 301.488281 281.335938 301.652344 Z M 277.183594 275.929688 C 276.414062 275.730469 275.640625 275.53125 274.640625 275.277344 C 275.4375 276.226562 276.351562 276.003906 277.183594 275.929688 Z M 304.113281 290.867188 C 304.179688 290.714844 304.144531 290.582031 303.988281 290.558594 C 303.605469 290.503906 303.378906 290.773438 303.183594 291.035156 C 303.0625 291.199219 303.082031 291.445312 303.351562 291.429688 C 303.699219 291.410156 303.933594 291.160156 304.113281 290.867188 Z M 245.222656 277.980469 C 245.164062 278.125 245.054688 278.300781 245.03125 278.488281 C 245.011719 278.65625 245.195312 278.757812 245.3125 278.648438 C 245.445312 278.523438 245.542969 278.320312 245.574219 278.140625 C 245.601562 277.980469 245.449219 277.910156 245.222656 277.980469 Z M 292.816406 165.03125 C 292.75 164.9375 292.699219 164.8125 292.605469 164.761719 C 292.445312 164.667969 292.339844 164.742188 292.351562 164.910156 C 292.351562 164.960938 292.417969 165.050781 292.460938 165.054688 C 292.578125 165.066406 292.699219 165.042969 292.816406 165.03125 Z M 170.445312 116.039062 C 170.9375 116.535156 171.839844 116.023438 171.847656 116.9375 C 171.855469 117.6875 171.429688 118.085938 170.71875 118.242188 C 167.636719 118.914062 164.585938 119.925781 161.371094 118.910156 C 160.785156 118.726562 160.117188 118.777344 159.484375 118.769531 C 156.921875 118.726562 156.535156 118.402344 156.320312 115.914062 C 155.953125 111.703125 155.664062 107.484375 155.242188 103.277344 C 154.628906 97.179688 153.988281 91.082031 153.253906 85 C 152.230469 76.519531 151.933594 68.003906 151.898438 59.472656 C 151.882812 54.964844 152.019531 50.449219 152.113281 45.9375 C 152.128906 45.027344 152.277344 44.117188 152.359375 43.207031 C 152.398438 42.785156 152.425781 42.363281 152.457031 41.941406 C 152.507812 41.253906 151.476562 40.789062 152.023438 40.007812 C 152.546875 39.257812 153.46875 39.113281 154.230469 38.839844 C 156.496094 38.03125 158.898438 37.78125 161.285156 37.625 C 167.066406 37.238281 172.847656 37.496094 178.628906 37.742188 C 180.738281 37.828125 182.855469 37.75 184.964844 37.652344 C 187.78125 37.519531 189.5625 39.183594 189.539062 42.058594 C 189.535156 42.476562 189.480469 42.910156 189.363281 43.3125 C 187.117188 51.039062 185.949219 59.007812 184.058594 66.8125 C 181.105469 79.003906 178.199219 91.207031 175.101562 103.363281 C 174.265625 106.628906 173.304688 109.863281 172.683594 113.183594 C 172.441406 114.46875 171.242188 115.035156 170.445312 116.039062 Z M 161.242188 115.890625 C 161.394531 115.21875 161.570312 114.554688 161.691406 113.878906 C 161.742188 113.597656 161.613281 113.300781 161.296875 113.230469 C 160.878906 113.132812 160.589844 113.410156 160.507812 113.753906 C 160.335938 114.46875 160.628906 115.128906 161.242188 115.890625 Z M 159.046875 94.371094 C 158.996094 95.050781 158.621094 95.746094 159.046875 96.648438 C 159.046875 95.726562 159.046875 95.050781 159.046875 94.371094 Z M 159.28125 99.570312 C 159.117188 99.539062 159 99.609375 159.011719 99.777344 C 159.019531 99.902344 159.078125 100.074219 159.167969 100.128906 C 159.308594 100.207031 159.445312 100.101562 159.429688 99.929688 C 159.417969 99.808594 159.332031 99.691406 159.28125 99.570312 Z M 159.574219 102.960938 C 159.519531 102.773438 159.492188 102.546875 159.445312 102.542969 C 159.144531 102.519531 159.242188 102.78125 159.222656 102.9375 C 159.199219 103.117188 159.1875 103.320312 159.40625 103.425781 C 159.46875 103.253906 159.53125 103.082031 159.574219 102.960938 Z M 199.921875 121.921875 C 201.332031 119.730469 202.796875 117.570312 204.140625 115.335938 C 207.589844 109.597656 211.226562 103.984375 215.046875 98.480469 C 219.511719 92.058594 224.164062 85.765625 228.28125 79.105469 C 229.875 76.527344 231.472656 73.953125 233.007812 71.339844 C 233.527344 70.453125 234.367188 69.367188 233.632812 68.410156 C 232.414062 66.824219 231.71875 64.910156 230.011719 63.601562 C 224.613281 59.46875 218.445312 56.59375 212.785156 52.898438 C 211.050781 51.769531 210.242188 52.101562 209.261719 54 C 207.511719 57.390625 206.152344 60.949219 205.003906 64.578125 C 202.925781 71.164062 200.878906 77.757812 198.890625 84.367188 C 196.023438 93.878906 193.214844 103.40625 190.402344 112.929688 C 189.945312 114.480469 189.738281 116.113281 189.191406 117.628906 C 188.441406 119.703125 188.910156 121.351562 190.902344 121.945312 C 192.984375 122.570312 195.148438 122.917969 197.277344 123.386719 C 198.535156 123.53125 199.308594 122.875 199.921875 121.921875 Z M 356.324219 233.273438 C 352.539062 230.699219 348.730469 228.152344 344.859375 225.714844 C 342.675781 224.339844 339.972656 224.972656 338.332031 227.007812 C 338.023438 227.390625 337.734375 227.789062 337.457031 228.199219 C 331.429688 237.132812 325.648438 246.222656 320.035156 255.417969 C 319.632812 256.078125 319.152344 256.730469 319.089844 257.515625 C 319.03125 258.28125 318.738281 258.425781 318.011719 258.332031 C 317.101562 258.214844 317.105469 258.769531 317.46875 259.386719 C 317.609375 259.625 317.777344 259.886719 318.003906 260.03125 C 319.691406 261.117188 320.828125 262.773438 322.289062 264.085938 C 322.96875 264.695312 323.71875 265.226562 324.457031 265.765625 C 325.175781 266.285156 325.851562 266.222656 326.5625 265.644531 C 327.820312 264.625 329.179688 263.730469 330.410156 262.675781 C 337.84375 256.296875 345.652344 250.394531 353.582031 244.648438 C 355.179688 243.492188 356.730469 242.269531 358.136719 240.882812 C 358.753906 240.269531 359.21875 239.585938 359.226562 238.769531 C 359.023438 236.460938 358.1875 234.539062 356.324219 233.273438 Z M 330.808594 275.601562 C 330.742188 274.890625 331.105469 274.371094 331.597656 273.945312 C 332.34375 273.304688 333.078125 272.628906 333.894531 272.089844 C 337.71875 269.5625 341.285156 266.691406 344.957031 263.960938 C 345.800781 263.332031 346.597656 262.660156 347.738281 262.570312 C 348.527344 262.511719 349.152344 261.964844 349.78125 261.515625 C 352.703125 259.429688 355.621094 257.335938 358.539062 255.242188 C 358.652344 255.160156 358.800781 255.105469 358.882812 255 C 360.753906 252.550781 363.539062 251.648438 366.226562 250.523438 C 366.910156 250.238281 367.292969 250.332031 367.691406 250.761719 C 369.566406 252.777344 371.285156 254.914062 372.773438 257.234375 C 373.003906 257.59375 373.210938 257.980469 373.113281 258.421875 C 372.910156 259.320312 373.285156 260.046875 373.679688 260.816406 C 374.496094 262.402344 374.242188 263.589844 372.796875 264.703125 C 371.855469 265.429688 370.8125 266.042969 369.769531 266.628906 C 364.542969 269.566406 359.042969 271.949219 353.648438 274.542969 C 347.617188 277.441406 341.578125 280.320312 335.753906 283.632812 C 333.78125 284.753906 333.746094 284.675781 333.191406 282.554688 C 332.875 281.339844 332.265625 280.203125 331.777344 279.039062 C 331.3125 277.929688 330.929688 276.800781 330.808594 275.601562 Z M 363.554688 263.691406 C 361.621094 264.445312 359.828125 265.449219 358.261719 266.839844 C 360.226562 266.113281 362.03125 265.089844 363.765625 263.929688 C 364.816406 263.496094 365.855469 263.042969 366.660156 262.195312 C 365.484375 262.417969 364.441406 262.898438 363.554688 263.691406 Z M 371.320312 256.859375 C 370.554688 255.304688 369.484375 253.96875 368.324219 252.707031 C 368.136719 252.507812 367.910156 252.328125 367.671875 252.195312 C 367.414062 252.050781 367.101562 252.070312 366.960938 252.359375 C 366.890625 252.496094 366.945312 252.828125 367.058594 252.90625 C 368.671875 254.007812 369.640625 255.769531 371.320312 256.859375 Z M 369.40625 261.015625 C 370.082031 261.050781 370.820312 261.304688 371.179688 260.496094 C 371.199219 260.457031 371.148438 260.351562 371.101562 260.324219 C 370.304688 259.90625 369.925781 260.679688 369.40625 261.015625 Z M 353.109375 269.410156 C 353.808594 269.324219 354.285156 269.339844 354.417969 268.730469 C 353.9375 268.691406 353.613281 268.886719 353.109375 269.410156 Z M 30.882812 232.761719 C 30.9375 233.640625 30.976562 234.253906 31.015625 234.871094 C 31.023438 234.1875 31.597656 233.535156 30.882812 232.761719 Z M 31.941406 256.472656 C 31.765625 257.175781 31.765625 257.78125 31.957031 258.40625 C 32.171875 257.800781 32.175781 257.1875 31.941406 256.472656 Z M 31.539062 252.917969 C 31.492188 253.027344 31.441406 253.136719 31.410156 253.25 C 31.398438 253.308594 31.410156 253.402344 31.449219 253.433594 C 31.570312 253.539062 31.640625 253.480469 31.636719 253.28125 C 31.601562 253.160156 31.570312 253.039062 31.539062 252.917969 Z M 31.023438 249.621094 C 31.054688 249.851562 31.132812 249.863281 31.210938 249.652344 C 31.234375 249.59375 31.21875 249.511719 31.191406 249.453125 C 31.179688 249.429688 31.101562 249.433594 31.050781 249.421875 C 31.039062 249.488281 31.011719 249.554688 31.023438 249.621094 Z M 93.480469 151.835938 C 93.417969 151.820312 93.320312 151.824219 93.285156 151.863281 C 93.160156 151.996094 93.222656 152.074219 93.433594 152.050781 C 93.496094 152.042969 93.546875 151.988281 93.613281 151.949219 C 93.566406 151.90625 93.53125 151.84375 93.480469 151.835938 Z M 93.480469 151.835938 " fill-opacity="1" fill-rule="nonzero"/><path fill="rgb(75.689697%, 15.289307%, 17.649841%)" d="M 152.164062 190.902344 C 152.386719 191.632812 153.035156 191.75 153.644531 191.929688 C 154.910156 192.304688 156.171875 192.691406 157.804688 193.183594 C 156.433594 193.742188 155.425781 193.441406 154.441406 193.257812 C 147.785156 192.003906 141.261719 190.175781 134.660156 188.683594 C 120.367188 185.449219 106.125 181.980469 91.679688 179.425781 C 87.238281 178.640625 82.824219 177.71875 78.347656 177.132812 C 74.179688 176.585938 74.863281 177.164062 74.753906 180.011719 C 74.269531 192.832031 73.789062 205.652344 73.304688 218.472656 C 72.816406 231.4375 72.695312 244.40625 72.710938 257.378906 C 72.714844 262.601562 72.429688 267.804688 72.050781 273.007812 C 71.898438 275.046875 71.863281 277.09375 71.808594 279.136719 C 71.789062 279.921875 71.816406 280.695312 70.855469 281.222656 C 69.859375 274.847656 70.929688 268.410156 69.476562 262.0625 C 69.40625 262.964844 69.316406 263.863281 69.273438 264.765625 C 69.222656 265.75 69.246094 266.742188 69.175781 267.726562 C 68.703125 274.410156 68.660156 281.113281 68.449219 287.808594 C 68.386719 289.859375 68.214844 293.144531 67.976562 297.292969 C 67.523438 305.164062 67.003906 311.65625 66.601562 316.242188 C 66.242188 316.917969 65.625 317.824219 64.578125 318.457031 C 63.925781 318.847656 63.335938 318.945312 63.089844 319.050781 C 61.304688 319.789062 59.546875 320.59375 57.683594 321.132812 C 54.640625 322.019531 51.617188 322.980469 48.585938 323.910156 C 47.4375 324.261719 46.261719 324.46875 45.082031 324.695312 C 43.078125 325.082031 41.75 323.851562 40.335938 322.855469 C 40.335938 322.855469 40.132812 322.59375 39.96875 322.304688 C 37.488281 317.808594 36.339844 295.152344 36.339844 295.152344 C 35.808594 284.71875 33.746094 283.703125 32.480469 266.679688 C 32.339844 264.804688 31.980469 262.925781 32.160156 261.015625 C 32.800781 261.066406 32.339844 261.800781 32.957031 261.914062 C 33.167969 259.375 32.707031 256.886719 32.503906 254.402344 C 32.296875 251.871094 31.957031 249.355469 31.703125 246.828125 C 31.453125 244.34375 31.421875 242.449219 31.367188 240.9375 C 30.839844 226.386719 31 216.449219 29.628906 204.511719 C 29.378906 202.34375 28.933594 198.855469 28.175781 194.53125 C 27.546875 192.847656 27.199219 191.410156 26.992188 190.34375 C 26.722656 188.949219 26.476562 187.054688 26.496094 187.058594 C 26.496094 187.058594 26.5 187.0625 26.5 187.070312 C 28.660156 206.941406 30.820312 226.8125 32.984375 246.683594 C 27.023438 196.832031 24.316406 175.394531 23 165.6875 C 22.773438 164.027344 21.773438 156.65625 20.410156 146.425781 C 19.601562 140.351562 18.847656 134.269531 18.007812 128.199219 C 16.832031 119.683594 15.582031 111.179688 14.40625 102.664062 C 13.308594 94.707031 12.242188 86.746094 11.207031 78.78125 C 10.097656 70.253906 8.949219 61.738281 7.679688 53.234375 C 5.964844 41.742188 4.421875 30.21875 2.207031 18.804688 C 1.832031 16.871094 1.523438 14.921875 0.773438 13.074219 C 0.609375 12.664062 0.628906 12.335938 0.792969 12.121094 C 1.0625 11.777344 1.707031 11.875 1.828125 11.886719 C 4.296875 12.171875 25.007812 5.125 33.375 6.894531 C 33.820312 6.988281 35.878906 6.257812 37.855469 7.515625 C 39.183594 8.363281 40.582031 7.394531 42 7.464844 C 41.671875 6.722656 41.027344 7.152344 40.433594 6.8125 C 43.578125 6.160156 46.636719 6.074219 49.667969 5.898438 C 55.933594 5.53125 62.207031 5.175781 68.480469 5.117188 C 72.085938 5.082031 75.714844 5.546875 77.917969 9.132812 C 78.519531 10.113281 79.066406 11.066406 79.035156 12.257812 C 79.007812 13.429688 79.3125 14.605469 80.125 15.375 C 81.414062 16.589844 81.566406 18.082031 81.5625 19.632812 C 81.542969 27.457031 81.871094 35.28125 81.628906 43.101562 C 81.332031 52.753906 81.035156 62.410156 80.238281 72.035156 C 79.71875 78.28125 79.101562 84.542969 78.054688 90.714844 C 76.207031 101.613281 76.023438 112.59375 75.734375 123.582031 C 75.535156 131.191406 75.460938 138.808594 75.332031 146.417969 C 75.320312 147.195312 75.292969 147.972656 75.320312 148.746094 C 75.382812 150.480469 75.644531 150.722656 77.363281 150.4375 C 86.144531 148.980469 95.027344 148.648438 103.878906 147.925781 C 106.316406 147.726562 108.410156 147.796875 110.15625 147.792969 C 116.664062 147.769531 117.039062 148.136719 121.8125 148.125 C 126.773438 148.113281 131.078125 148.050781 136.945312 147.847656 C 139.316406 147.761719 139.28125 147.746094 140.636719 147.710938 C 145.921875 147.574219 150.175781 147.738281 152.960938 147.902344 C 149.714844 147.226562 146.390625 147.894531 143.140625 147.351562 C 146.148438 147.070312 149.164062 147.050781 152.167969 146.910156 C 157.449219 146.660156 162.726562 146.175781 168.023438 146.324219 C 171.777344 146.433594 172.332031 147.074219 171.613281 150.839844 C 171.296875 152.5 170.839844 154.132812 170.472656 155.78125 C 170.347656 156.355469 169.992188 157.011719 171.113281 157.109375 C 171.816406 157.171875 171.796875 157.886719 171.785156 158.46875 C 171.765625 159.46875 171.441406 160.410156 171.171875 161.355469 C 169.929688 165.6875 168.652344 170.015625 167.398438 174.34375 C 167.183594 175.089844 166.878906 175.84375 166.855469 176.601562 C 166.714844 181.164062 164.320312 185.019531 162.917969 189.175781 C 162.011719 191.867188 161.054688 192.167969 158.1875 191.609375 C 156.261719 191.234375 154.398438 190.464844 152.382812 190.648438 C 152.308594 190.734375 152.234375 190.820312 152.164062 190.902344 Z M 30.011719 188.546875 C 30.074219 187.960938 30.058594 187.386719 29.835938 186.691406 C 29.679688 187.421875 29.664062 187.996094 30.039062 188.527344 C 30.015625 194.035156 30.8125 199.46875 31.503906 204.914062 C 31.65625 206.113281 31.679688 207.378906 32.25 208.808594 C 32.335938 208.554688 32.449219 208.183594 32.554688 207.726562 C 33.183594 205.023438 32.589844 203.402344 31.917969 199.429688 C 31.277344 195.609375 31.21875 195.21875 30.738281 191.59375 C 30.605469 190.574219 30.691406 189.457031 30.011719 188.546875 Z M 81.949219 152.21875 C 82.886719 152.617188 83.839844 152.617188 84.808594 152.429688 C 86.605469 152.078125 88.5 151.875 90.242188 152.175781 C 92.34375 152.539062 94.421875 152.273438 96.492188 152.539062 C 96.695312 152.566406 96.945312 152.511719 97.011719 152.28125 C 97.109375 151.941406 96.90625 151.765625 96.585938 151.734375 C 95.746094 151.65625 94.765625 151.742188 94.191406 151.132812 C 93.734375 150.644531 93.460938 150.566406 92.835938 150.664062 C 89.214844 151.226562 85.582031 151.710938 81.949219 152.21875 Z M 51.46875 296.953125 C 51.765625 294.78125 51.613281 292.632812 51.136719 290.5 C 50.824219 292.671875 51.101562 294.816406 51.46875 296.953125 Z M 137.960938 150.726562 C 139.539062 151.835938 141.046875 150.492188 142.613281 150.652344 C 141.0625 150.621094 139.519531 150.085938 137.960938 150.726562 Z M 169.898438 148.402344 C 168.796875 147.769531 167.714844 147.796875 166.597656 148.125 C 167.683594 148.066406 168.550781 150.042969 169.898438 148.402344 Z M 33.492188 256.285156 C 33.871094 255.320312 33.976562 254.359375 33.191406 253.515625 C 33.292969 254.441406 33.394531 255.363281 33.492188 256.285156 Z M 147.171875 150.773438 C 147.265625 150.863281 147.34375 151.003906 147.453125 151.035156 C 147.675781 151.097656 147.875 151.015625 147.828125 150.738281 C 147.816406 150.667969 147.605469 150.582031 147.484375 150.585938 C 147.378906 150.585938 147.277344 150.703125 147.171875 150.773438 Z M 133.175781 150.660156 C 132.84375 150.328125 132.503906 150.378906 132.148438 150.625 C 132.484375 150.945312 132.820312 150.90625 133.175781 150.660156 Z M 135.523438 150.203125 C 135.441406 150.296875 135.359375 150.394531 135.28125 150.492188 C 135.390625 150.539062 135.519531 150.648438 135.609375 150.621094 C 135.710938 150.589844 135.777344 150.441406 135.859375 150.34375 C 135.746094 150.296875 135.636719 150.25 135.523438 150.203125 Z M 60.5 283.835938 C 60.476562 283.738281 60.492188 283.550781 60.410156 283.488281 C 60.296875 283.402344 60.199219 283.527344 60.230469 283.714844 C 60.25 283.851562 60.242188 284.035156 60.324219 284.101562 C 60.425781 284.183594 60.523438 284.0625 60.5 283.835938 Z M 47.003906 320.203125 C 46.355469 320.03125 45.949219 320.300781 45.488281 320.679688 C 46.128906 320.882812 46.609375 320.859375 47.003906 320.203125 Z M 76.554688 157.261719 C 76.832031 157.210938 77.085938 157.222656 77.109375 156.984375 C 77.117188 156.921875 76.796875 156.761719 76.621094 156.75 C 76.398438 156.738281 76.027344 156.664062 76.101562 157.082031 C 76.117188 157.175781 76.441406 157.21875 76.554688 157.261719 Z M 76.96875 153.125 C 76.84375 153.101562 76.714844 153.046875 76.59375 153.058594 C 76.503906 153.070312 76.425781 153.167969 76.34375 153.230469 C 76.46875 153.257812 76.59375 153.292969 76.722656 153.308594 C 76.898438 153.332031 76.984375 153.261719 76.96875 153.125 Z M 112.941406 148.417969 C 112.695312 148.414062 112.558594 148.554688 112.570312 148.777344 C 112.578125 148.875 112.710938 149.046875 112.789062 149.046875 C 113.011719 149.046875 113.128906 148.867188 113.167969 148.660156 C 113.195312 148.503906 113.097656 148.417969 112.941406 148.417969 Z M 163.726562 148.101562 C 163.605469 148.0625 163.484375 148.007812 163.363281 147.980469 C 163.300781 147.96875 163.195312 147.988281 163.171875 148.027344 C 163.089844 148.160156 163.171875 148.246094 163.367188 148.222656 C 163.488281 148.207031 163.605469 148.144531 163.726562 148.101562 Z M 26.097656 184.511719 C 26.082031 184.460938 26.0625 184.40625 26.046875 184.355469 C 26.019531 184.398438 25.976562 184.441406 25.972656 184.488281 C 25.96875 184.539062 26.003906 184.59375 26.019531 184.644531 C 26.046875 184.601562 26.074219 184.554688 26.097656 184.511719 Z M 78.265625 154.59375 C 78.34375 154.527344 78.421875 154.460938 78.5 154.398438 C 78.398438 154.347656 78.289062 154.257812 78.1875 154.265625 C 78.105469 154.269531 78.027344 154.386719 77.949219 154.453125 C 78.054688 154.5 78.160156 154.546875 78.265625 154.59375 Z M 60.855469 303.730469 C 60.800781 303.570312 60.695312 303.527344 60.550781 303.625 C 60.503906 303.65625 60.433594 303.753906 60.445312 303.769531 C 60.507812 303.863281 60.59375 303.9375 60.675781 304.019531 C 60.734375 303.921875 60.796875 303.828125 60.855469 303.730469 Z M 292.71875 201.875 C 294.84375 200.253906 295.539062 198.042969 296.882812 196.339844 C 298.320312 194.523438 299.554688 192.546875 300.847656 190.621094 C 302.105469 188.75 303.367188 186.878906 304.550781 184.960938 C 305.722656 183.054688 306.800781 181.09375 308.089844 179.234375 C 308.1875 180.105469 307.722656 180.777344 307.414062 181.496094 C 303.519531 190.457031 298.265625 198.636719 292.808594 206.6875 C 280.9375 224.191406 269.105469 241.726562 256.867188 258.976562 C 256.011719 260.183594 255.199219 261.417969 254.390625 262.65625 C 253.566406 263.914062 253.691406 264.261719 255.21875 264.636719 C 256.65625 264.988281 258.113281 265.261719 259.570312 265.527344 C 271.449219 267.710938 283.003906 271.082031 294.40625 275.023438 C 295.605469 275.4375 296.78125 275.933594 298.054688 276.082031 C 299.371094 276.238281 300.234375 277.289062 301.429688 277.742188 C 304.984375 279.09375 308.492188 280.578125 311.996094 282.0625 C 314.945312 283.308594 315.289062 284.832031 313.242188 287.363281 C 312.253906 288.578125 311 289.503906 309.769531 290.445312 C 305.851562 293.449219 301.910156 296.425781 298.003906 299.441406 C 295.882812 301.074219 293.878906 302.875 291.683594 304.402344 C 289.421875 305.980469 286.957031 306.722656 284.195312 305.417969 C 277.675781 302.34375 271.535156 298.59375 265.332031 294.957031 C 258.335938 290.859375 251.171875 287.058594 244.0625 283.15625 C 242.105469 282.078125 242.03125 282.125 240.707031 284.0625 C 238.261719 287.652344 236.007812 291.339844 234.011719 295.214844 C 231.019531 301.023438 227.402344 306.476562 223.84375 311.953125 C 219.277344 318.984375 214.714844 326.015625 210.125 333.03125 C 209.230469 334.394531 208.527344 335.828125 207.863281 337.3125 C 206.597656 340.152344 204.71875 342.65625 202.960938 345.203125 C 199.511719 350.191406 196.171875 355.242188 193.121094 360.488281 C 191.953125 362.496094 190.507812 364.339844 189.34375 366.351562 C 188.148438 368.425781 186.429688 369.292969 184.105469 369.21875 C 181.488281 369.136719 178.921875 368.65625 176.335938 368.371094 C 175.285156 368.253906 174.367188 368.144531 173.316406 368.75 C 171.8125 369.613281 169.992188 368.179688 169.28125 366.660156 C 168.183594 364.320312 169.242188 362.796875 170.355469 360.9375 C 172.75 356.9375 174.195312 352.476562 176.011719 348.199219 C 176.203125 347.753906 176.453125 347.171875 176.066406 346.796875 C 175.039062 345.800781 175.691406 344.808594 176 343.859375 C 178.234375 336.945312 181.027344 330.242188 183.886719 323.570312 C 189.550781 310.355469 194.695312 296.925781 200.300781 283.6875 C 203.460938 276.226562 206.890625 268.875 210.089844 261.433594 C 216.945312 245.5 223.125 229.300781 229.125 213.035156 C 234.421875 198.683594 239.972656 184.429688 246.917969 170.773438 C 248.835938 167.003906 250.882812 163.300781 252.859375 159.5625 C 253.289062 158.753906 253.71875 157.941406 254.066406 157.09375 C 254.792969 155.320312 255.632812 153.636719 257.144531 152.367188 C 257.792969 151.820312 258.238281 151.230469 258.074219 150.195312 C 257.890625 149.039062 258.445312 148.671875 259.566406 148.9375 C 259.976562 149.035156 260.367188 149.210938 260.757812 149.375 C 270.539062 153.578125 280.421875 157.554688 289.917969 162.390625 C 292.046875 163.472656 294.175781 164.5 295.953125 166.210938 C 297.148438 167.355469 298.605469 168.277344 300.140625 169.03125 C 302.105469 169.992188 303.941406 171.183594 305.726562 172.445312 C 306.480469 172.976562 307.132812 173 307.769531 172.273438 C 308.046875 171.957031 308.363281 171.675781 308.6875 171.402344 C 309.132812 171.019531 309.605469 170.699219 310.1875 171.171875 C 310.757812 171.632812 310.917969 172.210938 310.558594 172.859375 C 309.675781 174.460938 308.84375 176.101562 307.851562 177.636719 C 303.289062 184.675781 298.675781 191.679688 294.089844 198.703125 C 293.535156 199.554688 292.851562 200.371094 292.71875 201.875 Z M 260.371094 289.015625 C 260.28125 289.128906 260.191406 289.246094 260.105469 289.359375 C 260.230469 289.511719 260.332031 289.707031 260.492188 289.808594 C 264.292969 292.203125 268.175781 294.453125 272.136719 296.570312 C 272.382812 296.699219 272.644531 296.824219 272.910156 296.886719 C 273.207031 296.957031 273.464844 296.824219 273.59375 296.535156 C 273.75 296.167969 273.535156 296.003906 273.210938 295.988281 C 272.785156 295.964844 272.355469 295.921875 272.007812 295.667969 C 269.269531 293.6875 266.050781 292.558594 263.226562 290.722656 C 262.296875 290.117188 261.324219 289.582031 260.371094 289.015625 Z M 281.335938 301.652344 C 282.941406 302.621094 284.527344 303.628906 286.164062 304.542969 C 287.449219 305.265625 287.859375 305.113281 289.410156 303.53125 C 287.8125 304.570312 286.585938 303.664062 285.289062 302.96875 C 284.070312 302.320312 282.917969 301.488281 281.335938 301.652344 Z M 277.183594 275.929688 C 276.414062 275.730469 275.640625 275.53125 274.640625 275.277344 C 275.4375 276.226562 276.351562 276.003906 277.183594 275.929688 Z M 304.113281 290.867188 C 304.179688 290.714844 304.144531 290.582031 303.988281 290.558594 C 303.605469 290.503906 303.378906 290.773438 303.183594 291.035156 C 303.0625 291.199219 303.082031 291.445312 303.351562 291.429688 C 303.699219 291.410156 303.933594 291.160156 304.113281 290.867188 Z M 245.222656 277.980469 C 245.164062 278.125 245.054688 278.300781 245.03125 278.488281 C 245.011719 278.65625 245.195312 278.757812 245.3125 278.648438 C 245.445312 278.523438 245.542969 278.320312 245.574219 278.140625 C 245.601562 277.980469 245.449219 277.910156 245.222656 277.980469 Z M 292.816406 165.03125 C 292.75 164.9375 292.699219 164.8125 292.605469 164.761719 C 292.445312 164.667969 292.339844 164.742188 292.351562 164.910156 C 292.351562 164.960938 292.417969 165.050781 292.460938 165.054688 C 292.578125 165.066406 292.699219 165.042969 292.816406 165.03125 Z M 170.445312 116.039062 C 170.9375 116.535156 171.839844 116.023438 171.847656 116.9375 C 171.855469 117.6875 171.429688 118.085938 170.71875 118.242188 C 167.636719 118.914062 164.585938 119.925781 161.371094 118.910156 C 160.785156 118.726562 160.117188 118.777344 159.484375 118.769531 C 156.921875 118.726562 156.535156 118.402344 156.320312 115.914062 C 155.953125 111.703125 155.664062 107.484375 155.242188 103.277344 C 154.628906 97.179688 153.988281 91.082031 153.253906 85 C 152.230469 76.519531 151.933594 68.003906 151.898438 59.472656 C 151.882812 54.964844 152.019531 50.449219 152.113281 45.9375 C 152.128906 45.027344 152.277344 44.117188 152.359375 43.207031 C 152.398438 42.785156 152.425781 42.363281 152.457031 41.941406 C 152.507812 41.253906 151.476562 40.789062 152.023438 40.007812 C 152.546875 39.257812 153.46875 39.113281 154.230469 38.839844 C 156.496094 38.03125 158.898438 37.78125 161.285156 37.625 C 167.066406 37.238281 172.847656 37.496094 178.628906 37.742188 C 180.738281 37.828125 182.855469 37.75 184.964844 37.652344 C 187.78125 37.519531 189.5625 39.183594 189.539062 42.058594 C 189.535156 42.476562 189.480469 42.910156 189.363281 43.3125 C 187.117188 51.039062 185.949219 59.007812 184.058594 66.8125 C 181.105469 79.003906 178.199219 91.207031 175.101562 103.363281 C 174.265625 106.628906 173.304688 109.863281 172.683594 113.183594 C 172.441406 114.46875 171.242188 115.035156 170.445312 116.039062 Z M 161.242188 115.890625 C 161.394531 115.21875 161.570312 114.554688 161.691406 113.878906 C 161.742188 113.597656 161.613281 113.300781 161.296875 113.230469 C 160.878906 113.132812 160.589844 113.410156 160.507812 113.753906 C 160.335938 114.46875 160.628906 115.128906 161.242188 115.890625 Z M 159.046875 94.371094 C 158.996094 95.050781 158.621094 95.746094 159.046875 96.648438 C 159.046875 95.726562 159.046875 95.050781 159.046875 94.371094 Z M 159.28125 99.570312 C 159.117188 99.539062 159 99.609375 159.011719 99.777344 C 159.019531 99.902344 159.078125 100.074219 159.167969 100.128906 C 159.308594 100.207031 159.445312 100.101562 159.429688 99.929688 C 159.417969 99.808594 159.332031 99.691406 159.28125 99.570312 Z M 159.574219 102.960938 C 159.519531 102.773438 159.492188 102.546875 159.445312 102.542969 C 159.144531 102.519531 159.242188 102.78125 159.222656 102.9375 C 159.199219 103.117188 159.1875 103.320312 159.40625 103.425781 C 159.46875 103.253906 159.53125 103.082031 159.574219 102.960938 Z M 199.921875 121.921875 C 201.332031 119.730469 202.796875 117.570312 204.140625 115.335938 C 207.589844 109.597656 211.226562 103.984375 215.046875 98.480469 C 219.511719 92.058594 224.164062 85.765625 228.28125 79.105469 C 229.875 76.527344 231.472656 73.953125 233.007812 71.339844 C 233.527344 70.453125 234.367188 69.367188 233.632812 68.410156 C 232.414062 66.824219 231.71875 64.910156 230.011719 63.601562 C 224.613281 59.46875 218.445312 56.59375 212.785156 52.898438 C 211.050781 51.769531 210.242188 52.101562 209.261719 54 C 207.511719 57.390625 206.152344 60.949219 205.003906 64.578125 C 202.925781 71.164062 200.878906 77.757812 198.890625 84.367188 C 196.023438 93.878906 193.214844 103.40625 190.402344 112.929688 C 189.945312 114.480469 189.738281 116.113281 189.191406 117.628906 C 188.441406 119.703125 188.910156 121.351562 190.902344 121.945312 C 192.984375 122.570312 195.148438 122.917969 197.277344 123.386719 C 198.535156 123.53125 199.308594 122.875 199.921875 121.921875 Z M 356.324219 233.273438 C 352.539062 230.699219 348.730469 228.152344 344.859375 225.714844 C 342.675781 224.339844 339.972656 224.972656 338.332031 227.007812 C 338.023438 227.390625 337.734375 227.789062 337.457031 228.199219 C 331.429688 237.132812 325.648438 246.222656 320.035156 255.417969 C 319.632812 256.078125 319.152344 256.730469 319.089844 257.515625 C 319.03125 258.28125 318.738281 258.425781 318.011719 258.332031 C 317.101562 258.214844 317.105469 258.769531 317.46875 259.386719 C 317.609375 259.625 317.777344 259.886719 318.003906 260.03125 C 319.691406 261.117188 320.828125 262.773438 322.289062 264.085938 C 322.96875 264.695312 323.71875 265.226562 324.457031 265.765625 C 325.175781 266.285156 325.851562 266.222656 326.5625 265.644531 C 327.820312 264.625 329.179688 263.730469 330.410156 262.675781 C 337.84375 256.296875 345.652344 250.394531 353.582031 244.648438 C 355.179688 243.492188 356.730469 242.269531 358.136719 240.882812 C 358.753906 240.269531 359.21875 239.585938 359.226562 238.769531 C 359.023438 236.460938 358.1875 234.539062 356.324219 233.273438 Z M 330.808594 275.601562 C 330.742188 274.890625 331.105469 274.371094 331.597656 273.945312 C 332.34375 273.304688 333.078125 272.628906 333.894531 272.089844 C 337.71875 269.5625 341.285156 266.691406 344.957031 263.960938 C 345.800781 263.332031 346.597656 262.660156 347.738281 262.570312 C 348.527344 262.511719 349.152344 261.964844 349.78125 261.515625 C 352.703125 259.429688 355.621094 257.335938 358.539062 255.242188 C 358.652344 255.160156 358.800781 255.105469 358.882812 255 C 360.753906 252.550781 363.539062 251.648438 366.226562 250.523438 C 366.910156 250.238281 367.292969 250.332031 367.691406 250.761719 C 369.566406 252.777344 371.285156 254.914062 372.773438 257.234375 C 373.003906 257.59375 373.210938 257.980469 373.113281 258.421875 C 372.910156 259.320312 373.285156 260.046875 373.679688 260.816406 C 374.496094 262.402344 374.242188 263.589844 372.796875 264.703125 C 371.855469 265.429688 370.8125 266.042969 369.769531 266.628906 C 364.542969 269.566406 359.042969 271.949219 353.648438 274.542969 C 347.617188 277.441406 341.578125 280.320312 335.753906 283.632812 C 333.78125 284.753906 333.746094 284.675781 333.191406 282.554688 C 332.875 281.339844 332.265625 280.203125 331.777344 279.039062 C 331.3125 277.929688 330.929688 276.800781 330.808594 275.601562 Z M 363.554688 263.691406 C 361.621094 264.445312 359.828125 265.449219 358.261719 266.839844 C 360.226562 266.113281 362.03125 265.089844 363.765625 263.929688 C 364.816406 263.496094 365.855469 263.042969 366.660156 262.195312 C 365.484375 262.417969 364.441406 262.898438 363.554688 263.691406 Z M 371.320312 256.859375 C 370.554688 255.304688 369.484375 253.96875 368.324219 252.707031 C 368.136719 252.507812 367.910156 252.328125 367.671875 252.195312 C 367.414062 252.050781 367.101562 252.070312 366.960938 252.359375 C 366.890625 252.496094 366.945312 252.828125 367.058594 252.90625 C 368.671875 254.007812 369.640625 255.769531 371.320312 256.859375 Z M 369.40625 261.015625 C 370.082031 261.050781 370.820312 261.304688 371.179688 260.496094 C 371.199219 260.457031 371.148438 260.351562 371.101562 260.324219 C 370.304688 259.90625 369.925781 260.679688 369.40625 261.015625 Z M 353.109375 269.410156 C 353.808594 269.324219 354.285156 269.339844 354.417969 268.730469 C 353.9375 268.691406 353.613281 268.886719 353.109375 269.410156 Z M 30.882812 232.761719 C 30.9375 233.640625 30.976562 234.253906 31.015625 234.871094 C 31.023438 234.1875 31.597656 233.535156 30.882812 232.761719 Z M 31.941406 256.472656 C 31.765625 257.175781 31.765625 257.78125 31.957031 258.40625 C 32.171875 257.800781 32.175781 257.1875 31.941406 256.472656 Z M 31.539062 252.917969 C 31.492188 253.027344 31.441406 253.136719 31.410156 253.25 C 31.398438 253.308594 31.410156 253.402344 31.449219 253.433594 C 31.570312 253.539062 31.640625 253.480469 31.636719 253.28125 C 31.601562 253.160156 31.570312 253.039062 31.539062 252.917969 Z M 31.023438 249.621094 C 31.054688 249.851562 31.132812 249.863281 31.210938 249.652344 C 31.234375 249.59375 31.21875 249.511719 31.191406 249.453125 C 31.179688 249.429688 31.101562 249.433594 31.050781 249.421875 C 31.039062 249.488281 31.011719 249.554688 31.023438 249.621094 Z M 93.480469 151.835938 C 93.417969 151.820312 93.320312 151.824219 93.285156 151.863281 C 93.160156 151.996094 93.222656 152.074219 93.433594 152.050781 C 93.496094 152.042969 93.546875 151.988281 93.613281 151.949219 C 93.566406 151.90625 93.53125 151.84375 93.480469 151.835938 Z M 93.480469 151.835938 " fill-opacity="1" fill-rule="nonzero"/></g></svg>