<svg xmlns="http://www.w3.org/2000/svg" xmlns:xlink="http://www.w3.org/1999/xlink" width="500" zoomAndPan="magnify" viewBox="0 0 375 225" height="300" preserveAspectRatio="xMidYMid meet" version="1.0"><defs><clipPath id="id1"><path d="M 1 83.183594 L 375 83.183594 L 375 224.933594 L 1 224.933594 Z M 1 83.183594 " clip-rule="nonzero"/></clipPath></defs><g clip-path="url(#id1)"><path fill="rgb(21.179199%, 27.059937%, 30.979919%)" d="M 271.472656 121.40625 C 275.988281 121.34375 280.425781 121.90625 284.644531 123.550781 C 289.457031 125.425781 294.402344 126.953125 298.828125 129.804688 C 302.027344 131.863281 304.550781 134.382812 306.308594 137.710938 C 309.246094 143.277344 310.847656 149.253906 311.496094 155.46875 C 312.472656 164.84375 310.300781 173.398438 304.476562 180.925781 C 301.835938 184.335938 298.628906 187.039062 294.71875 188.90625 C 287.679688 192.269531 280.363281 194.527344 272.472656 194.054688 C 259.542969 193.285156 248.214844 188.675781 240.445312 178.066406 C 235.613281 171.46875 232.828125 164.53125 232.246094 157.328125 C 231.878906 152.820312 231.125 144.808594 236.117188 137.371094 C 238.441406 133.90625 241.238281 131.710938 243.207031 130.421875 C 243.210938 130.988281 243.417969 142.28125 250.453125 145.222656 C 251.039062 145.46875 252.324219 145.96875 253.980469 145.835938 C 261.507812 145.226562 270.59375 136.226562 265.960938 126.601562 C 265.441406 125.527344 264.972656 124.441406 263.535156 124.324219 C 262.996094 124.28125 262.777344 124.035156 262.746094 123.910156 C 262.617188 123.378906 265.484375 121.773438 268.882812 121.421875 C 270.152344 121.292969 271.125 121.410156 271.472656 121.40625 Z M 286.925781 144.054688 C 289.804688 144.144531 291.960938 142.09375 291.773438 139.371094 C 291.675781 137.980469 291.363281 136.5625 290.898438 135.246094 C 290.140625 133.117188 287.824219 132 285.75 132.554688 C 283.386719 133.191406 282.003906 135.332031 282.097656 138.207031 C 282.195312 141.113281 283.839844 143.472656 286.109375 143.941406 C 286.417969 144.003906 286.734375 144.027344 286.925781 144.054688 Z M 309.558594 161.863281 C 309.59375 161.863281 309.625 161.863281 309.660156 161.863281 C 309.660156 160.25 309.660156 158.640625 309.660156 157.027344 C 309.625 157.027344 309.59375 157.03125 309.558594 157.03125 C 309.558594 158.640625 309.558594 160.253906 309.558594 161.863281 Z M 80.171875 180.074219 C 76.167969 180.058594 72.550781 179.449219 68.929688 178.082031 C 66.367188 177.117188 64.179688 175.605469 61.746094 174.488281 C 60.566406 173.945312 60.214844 172.5625 59.304688 171.695312 C 56.621094 169.140625 54.261719 166.320312 52.472656 163.042969 C 51.375 161.035156 50.699219 158.855469 49.777344 156.78125 C 47.597656 151.867188 47.960938 146.742188 48.257812 141.609375 C 48.355469 139.890625 48.683594 138.195312 48.191406 136.472656 C 47.832031 135.207031 48.289062 133.957031 48.652344 132.773438 C 50.28125 127.453125 52.601562 123.257812 54.285156 120.917969 C 54.585938 120.503906 54.835938 120.171875 54.988281 119.972656 C 53.859375 124.546875 55.425781 129.222656 58.898438 131.75 C 63.644531 135.203125 69.339844 132.753906 70.183594 132.390625 C 74.734375 130.433594 77.867188 125.851562 77.902344 121.867188 C 77.90625 121.179688 77.570312 116.597656 76.242188 114.179688 C 75.34375 112.542969 75.410156 112.550781 77.195312 112.09375 C 77.566406 112 77.933594 111.933594 78.300781 111.890625 C 79.871094 111.703125 81.394531 112.066406 81.394531 112.066406 C 85.242188 112.921875 92.46875 111.648438 99.710938 115.066406 C 107.402344 118.695312 111.316406 125.828125 112.808594 128.542969 C 114.21875 131.113281 114.945312 133.21875 115.140625 133.914062 C 116.222656 137.714844 116.574219 141.625 116.441406 145.574219 C 116.226562 151.773438 114.484375 157.519531 110.804688 162.515625 C 108.300781 165.921875 105.148438 168.796875 101.835938 171.421875 C 96.929688 175.3125 91.589844 178.394531 85.355469 179.683594 C 83.566406 180.054688 81.761719 179.957031 80.171875 180.074219 Z M 100.898438 130.65625 C 100.902344 129.832031 100.621094 128.769531 100.324219 127.71875 C 99.773438 125.796875 98.457031 124.65625 96.492188 124.410156 C 94.511719 124.164062 92.984375 125.007812 91.960938 126.703125 C 91.089844 128.148438 90.730469 129.765625 90.800781 131.421875 C 90.921875 134.324219 93.128906 136.433594 95.75 136.296875 C 98.609375 136.152344 100.933594 133.730469 100.898438 130.65625 Z M 243.980469 97.46875 C 243.9375 96.839844 244.730469 96.828125 244.886719 96.378906 C 240.585938 97.109375 237.296875 98.503906 235.136719 99.617188 C 228.289062 103.152344 225.613281 107.589844 224.179688 108.523438 C 224.066406 108.597656 223.621094 108.886719 223.457031 109.394531 C 223.40625 109.566406 223.390625 109.765625 223.441406 110.011719 C 226.746094 109.136719 233.164062 107.445312 241.988281 105.160156 C 248.65625 103.429688 255.226562 101.425781 262.066406 101.542969 C 263.5625 101.570312 265.664062 101.429688 268.425781 101.652344 C 271.402344 101.894531 276.582031 102.585938 284.917969 105.847656 C 291.710938 108.507812 292.3125 109.605469 307.421875 116.902344 C 309.765625 118.035156 311.109375 118.519531 312.953125 119.523438 C 320.464844 123.617188 328.496094 126.210938 336.808594 128.050781 C 339.878906 128.730469 343.703125 128.164062 351.242188 127.625 C 353.574219 127.457031 361.160156 126.863281 365.953125 124.1875 C 367.367188 123.394531 368.050781 122.933594 368.050781 122.933594 C 369.925781 121.589844 371.246094 119.472656 373.675781 118.820312 C 374.503906 118.597656 374.011719 117.570312 374.054688 116.90625 C 374.070312 116.660156 374.027344 116.453125 373.9375 116.285156 C 373.9375 116.285156 373.695312 115.8125 372.945312 115.597656 C 371.238281 115.109375 358.957031 118.691406 358.957031 118.691406 C 354.871094 119.882812 351.554688 119.738281 344.949219 119.203125 C 342.964844 119.042969 337.921875 118.589844 330.894531 116.53125 C 324.304688 114.601562 318.128906 111.445312 306.039062 105.210938 C 302.699219 103.488281 296.535156 100.019531 289.597656 97.265625 C 284.003906 95.046875 280.039062 93.652344 274.308594 92.636719 C 270.324219 91.933594 266.285156 91.742188 262.15625 92.269531 C 256.460938 93 250.769531 93.421875 245.660156 96.378906 C 245.101562 96.742188 244.542969 97.105469 243.980469 97.46875 Z M 4.554688 89.289062 C 5.792969 89.203125 6.59375 89.527344 7.355469 89.941406 C 8.480469 90.546875 9.648438 90.796875 10.9375 90.90625 C 13.371094 91.113281 15.664062 92.019531 17.960938 92.804688 C 18.410156 92.957031 22.128906 93.886719 23.894531 94.261719 C 26.058594 94.71875 28.671875 95.003906 43.210938 93.277344 C 49.558594 92.523438 50.761719 92.289062 52.027344 91.925781 C 55.203125 91.015625 58.332031 89.972656 61.253906 88.492188 C 64.402344 86.902344 67.746094 86.128906 71.136719 85.59375 C 75.148438 84.960938 79.210938 84.589844 83.222656 84.007812 C 89.070312 83.164062 94.8125 83.863281 100.59375 84.25 C 102.859375 84.402344 105.132812 84.511719 107.371094 84.976562 C 109.140625 85.34375 110.871094 85.742188 112.53125 86.523438 C 113.714844 87.082031 115.128906 87.140625 116.339844 87.65625 C 119.230469 88.886719 121.996094 90.355469 124.722656 91.929688 C 129.765625 94.835938 134.234375 98.484375 138.6875 102.171875 C 139.894531 103.167969 141.007812 104.277344 142.15625 105.34375 C 142.386719 105.554688 142.605469 105.789062 142.789062 106.042969 C 143.171875 106.566406 143.480469 107.136719 142.992188 107.753906 C 142.511719 108.371094 141.828125 108.320312 141.296875 107.953125 C 139.019531 106.398438 136.347656 105.574219 134.082031 104.007812 C 132.328125 102.796875 130.441406 101.886719 128.421875 101.160156 C 126.433594 100.445312 124.480469 99.574219 122.625 98.5625 C 117.980469 96.03125 112.964844 94.441406 107.972656 92.863281 C 103.9375 91.589844 99.769531 90.863281 95.4375 91.511719 C 92.886719 91.890625 90.265625 91.769531 87.679688 91.9375 C 83.097656 92.238281 78.792969 93.855469 74.347656 94.796875 C 65.582031 96.652344 57.167969 99.796875 48.464844 101.863281 C 44.246094 102.867188 39.945312 103.011719 35.640625 103.335938 C 27.386719 103.957031 19.625 101.882812 11.832031 99.683594 C 8.246094 98.671875 5.515625 96.316406 2.589844 94.242188 C 2.277344 94.019531 2.015625 93.699219 1.792969 93.378906 C 0.460938 91.472656 1.027344 90.039062 3.277344 89.578125 C 3.816406 89.46875 4.347656 89.339844 4.554688 89.289062 Z M 76.027344 85.660156 C 75.730469 85.691406 75.390625 85.695312 75.394531 86.113281 C 75.398438 86.191406 75.613281 86.328125 75.734375 86.332031 C 76.042969 86.339844 76.394531 86.234375 76.476562 85.933594 C 76.558594 85.648438 76.222656 85.699219 76.027344 85.660156 Z M 297.429688 223.941406 C 297.9375 223.058594 298.433594 222.164062 298.875 221.246094 C 302.269531 214.253906 305.632812 207.246094 309.25 200.363281 C 309.980469 198.976562 310.605469 197.53125 311.238281 196.097656 C 311.488281 195.527344 311.71875 194.917969 311.804688 194.308594 C 311.964844 193.195312 311.242188 192.546875 310.335938 192.148438 C 309.429688 191.753906 308.832031 192.292969 308.429688 193.046875 C 307.722656 194.359375 306.996094 195.664062 306.382812 197.023438 C 303.859375 202.597656 301.367188 208.191406 298.875 213.78125 C 297.535156 216.792969 296.199219 219.808594 294.910156 222.839844 C 294.390625 224.058594 294.988281 224.941406 296.125 224.867188 C 296.820312 224.871094 297.15625 224.417969 297.429688 223.941406 Z M 20.507812 200.457031 C 25.773438 193.242188 31.042969 186.03125 35.152344 178.058594 C 35.328125 177.710938 35.484375 177.320312 35.761719 177.070312 C 36.148438 176.714844 36.769531 176.589844 36.46875 175.820312 C 36.242188 175.238281 36.207031 174.472656 35.691406 174.140625 C 34.628906 173.457031 34.175781 174.449219 33.660156 175.105469 C 33.320312 175.535156 33.027344 176.003906 32.722656 176.460938 C 28.769531 182.417969 24.828125 188.382812 20.867188 194.335938 C 19.605469 196.230469 18.300781 198.097656 17.015625 199.980469 C 16.699219 200.445312 16.417969 200.925781 16.78125 201.496094 C 17.136719 202.050781 17.613281 202.421875 18.359375 202.480469 C 19.363281 202.15625 19.914062 201.269531 20.507812 200.457031 Z M 26.546875 204.003906 C 27.5625 203.324219 28.351562 202.21875 28.46875 201.960938 C 29.171875 200.402344 29.886719 200.757812 38.316406 191.4375 C 44.492188 184.617188 44.792969 183.964844 45.546875 183.144531 C 45.96875 182.683594 46.421875 182.230469 46.746094 181.703125 C 47.242188 180.894531 47.238281 180.058594 46.519531 179.34375 C 45.832031 178.660156 45.128906 178.855469 44.382812 179.285156 C 43.214844 179.960938 42.210938 180.78125 41.371094 181.859375 C 36.28125 188.425781 31.164062 194.96875 26.042969 201.507812 C 25.59375 202.082031 25.28125 202.683594 25.160156 203.371094 C 25.175781 204.058594 25.917969 204.421875 26.546875 204.003906 Z M 305.0625 222.773438 C 309.828125 214.308594 314.632812 205.863281 319.085938 197.226562 C 319.308594 196.796875 319.445312 196.367188 319.496094 195.890625 C 319.554688 195.28125 319.371094 194.796875 318.777344 194.5625 C 318.242188 194.351562 317.859375 194.671875 317.59375 195.074219 C 317.035156 195.921875 316.464844 196.773438 315.988281 197.671875 C 311.703125 205.777344 307.433594 213.894531 303.160156 222.011719 C 302.945312 222.425781 302.699219 222.839844 302.578125 223.289062 C 302.382812 223.992188 302.808594 224.285156 303.457031 224.359375 C 304.359375 224.207031 304.683594 223.441406 305.0625 222.773438 Z M 290.457031 220.09375 C 291.507812 217.996094 292.449219 215.839844 293.578125 213.789062 C 295.078125 211.070312 295.992188 208.023438 298.1875 205.6875 C 298.640625 205.203125 298.851562 204.449219 299.042969 203.78125 C 299.289062 202.914062 298.511719 201.511719 297.714844 201.332031 C 296.816406 201.128906 296.527344 201.890625 296.140625 202.460938 C 296.054688 202.589844 295.984375 202.734375 295.902344 202.867188 C 292.914062 207.855469 290.804688 213.253906 288.546875 218.585938 C 288.394531 218.945312 288.253906 219.324219 288.21875 219.707031 C 288.152344 220.449219 288.597656 220.851562 289.203125 221.023438 C 289.992188 221.132812 290.222656 220.566406 290.457031 220.09375 Z M 17.058594 187.972656 C 20.851562 183.675781 24.359375 179.140625 27.816406 174.574219 C 28.003906 174.324219 28.1875 174.058594 28.3125 173.777344 C 28.5625 173.222656 28.515625 172.679688 27.996094 172.304688 C 27.484375 171.933594 26.957031 171.984375 26.515625 172.457031 C 26.304688 172.6875 26.117188 172.941406 25.925781 173.191406 C 22.566406 177.542969 19.3125 181.96875 16.195312 186.496094 C 15.535156 187.449219 14.972656 188.472656 14.226562 189.683594 C 15.867188 189.6875 16.433594 188.679688 17.058594 187.972656 Z M 37.902344 203.253906 C 39.648438 201.4375 41.046875 199.339844 42.597656 197.367188 C 44.828125 194.535156 47.011719 191.660156 49.535156 189.070312 C 49.871094 188.726562 50.21875 188.332031 49.878906 187.847656 C 49.46875 187.265625 48.898438 187.394531 48.445312 187.78125 C 47.851562 188.289062 47.292969 188.847656 46.777344 189.433594 C 43.011719 193.753906 39.839844 198.554688 36.003906 202.820312 C 35.851562 202.992188 35.695312 203.203125 35.652344 203.417969 C 35.539062 204.003906 35.890625 204.261719 36.546875 204.363281 C 37.070312 204.1875 37.476562 203.695312 37.902344 203.253906 Z M 324.757812 197.566406 C 324.480469 197.394531 324.128906 197.453125 323.925781 197.730469 C 323.605469 198.167969 323.285156 198.617188 323.046875 199.101562 C 320.671875 203.851562 318.3125 208.609375 315.949219 213.363281 C 315.878906 213.503906 315.804688 213.640625 315.753906 213.789062 C 315.671875 214.023438 315.667969 214.285156 315.90625 214.398438 C 316.09375 214.484375 316.371094 214.519531 316.554688 214.445312 C 317.261719 214.164062 317.570312 213.496094 317.90625 212.886719 C 320.285156 208.578125 322.5 204.1875 324.546875 199.710938 C 324.773438 199.21875 324.921875 198.691406 325.109375 198.171875 C 324.984375 197.945312 324.925781 197.667969 324.757812 197.566406 Z M 324.757812 197.566406 " fill-opacity="1" fill-rule="nonzero"/><path fill="rgb(21.179199%, 27.059937%, 30.979919%)" d="M 271.472656 121.40625 C 275.988281 121.34375 280.425781 121.90625 284.644531 123.550781 C 289.457031 125.425781 294.402344 126.953125 298.828125 129.804688 C 302.027344 131.863281 304.550781 134.382812 306.308594 137.710938 C 309.246094 143.277344 310.847656 149.253906 311.496094 155.46875 C 312.472656 164.84375 310.300781 173.398438 304.476562 180.925781 C 301.835938 184.335938 298.628906 187.039062 294.71875 188.90625 C 287.679688 192.269531 280.363281 194.527344 272.472656 194.054688 C 259.542969 193.285156 248.214844 188.675781 240.445312 178.066406 C 235.613281 171.46875 232.828125 164.53125 232.246094 157.328125 C 231.878906 152.820312 231.125 144.808594 236.117188 137.371094 C 238.441406 133.90625 241.238281 131.710938 243.207031 130.421875 C 243.210938 130.988281 243.417969 142.28125 250.453125 145.222656 C 251.039062 145.46875 252.324219 145.96875 253.980469 145.835938 C 261.507812 145.226562 270.59375 136.226562 265.960938 126.601562 C 265.441406 125.527344 264.972656 124.441406 263.535156 124.324219 C 262.996094 124.28125 262.777344 124.035156 262.746094 123.910156 C 262.617188 123.378906 265.484375 121.773438 268.882812 121.421875 C 270.152344 121.292969 271.125 121.410156 271.472656 121.40625 Z M 286.925781 144.054688 C 289.804688 144.144531 291.960938 142.09375 291.773438 139.371094 C 291.675781 137.980469 291.363281 136.5625 290.898438 135.246094 C 290.140625 133.117188 287.824219 132 285.75 132.554688 C 283.386719 133.191406 282.003906 135.332031 282.097656 138.207031 C 282.195312 141.113281 283.839844 143.472656 286.109375 143.941406 C 286.417969 144.003906 286.734375 144.027344 286.925781 144.054688 Z M 309.558594 161.863281 C 309.59375 161.863281 309.625 161.863281 309.660156 161.863281 C 309.660156 160.25 309.660156 158.640625 309.660156 157.027344 C 309.625 157.027344 309.59375 157.03125 309.558594 157.03125 C 309.558594 158.640625 309.558594 160.253906 309.558594 161.863281 Z M 80.171875 180.074219 C 76.167969 180.058594 72.550781 179.449219 68.929688 178.082031 C 66.367188 177.117188 64.179688 175.605469 61.746094 174.488281 C 60.566406 173.945312 60.214844 172.5625 59.304688 171.695312 C 56.621094 169.140625 54.261719 166.320312 52.472656 163.042969 C 51.375 161.035156 50.699219 158.855469 49.777344 156.78125 C 47.597656 151.867188 47.960938 146.742188 48.257812 141.609375 C 48.355469 139.890625 48.683594 138.195312 48.191406 136.472656 C 47.832031 135.207031 48.289062 133.957031 48.652344 132.773438 C 50.28125 127.453125 52.601562 123.257812 54.285156 120.917969 C 54.585938 120.503906 54.835938 120.171875 54.988281 119.972656 C 53.859375 124.546875 55.425781 129.222656 58.898438 131.75 C 63.644531 135.203125 69.339844 132.753906 70.183594 132.390625 C 74.734375 130.433594 77.867188 125.851562 77.902344 121.867188 C 77.90625 121.179688 77.570312 116.597656 76.242188 114.179688 C 75.34375 112.542969 75.410156 112.550781 77.195312 112.09375 C 77.566406 112 77.933594 111.933594 78.300781 111.890625 C 79.871094 111.703125 81.394531 112.066406 81.394531 112.066406 C 85.242188 112.921875 92.46875 111.648438 99.710938 115.066406 C 107.402344 118.695312 111.316406 125.828125 112.808594 128.542969 C 114.21875 131.113281 114.945312 133.21875 115.140625 133.914062 C 116.222656 137.714844 116.574219 141.625 116.441406 145.574219 C 116.226562 151.773438 114.484375 157.519531 110.804688 162.515625 C 108.300781 165.921875 105.148438 168.796875 101.835938 171.421875 C 96.929688 175.3125 91.589844 178.394531 85.355469 179.683594 C 83.566406 180.054688 81.761719 179.957031 80.171875 180.074219 Z M 100.898438 130.65625 C 100.902344 129.832031 100.621094 128.769531 100.324219 127.71875 C 99.773438 125.796875 98.457031 124.65625 96.492188 124.410156 C 94.511719 124.164062 92.984375 125.007812 91.960938 126.703125 C 91.089844 128.148438 90.730469 129.765625 90.800781 131.421875 C 90.921875 134.324219 93.128906 136.433594 95.75 136.296875 C 98.609375 136.152344 100.933594 133.730469 100.898438 130.65625 Z M 243.980469 97.46875 C 243.9375 96.839844 244.730469 96.828125 244.886719 96.378906 C 240.585938 97.109375 237.296875 98.503906 235.136719 99.617188 C 228.289062 103.152344 225.613281 107.589844 224.179688 108.523438 C 224.066406 108.597656 223.621094 108.886719 223.457031 109.394531 C 223.40625 109.566406 223.390625 109.765625 223.441406 110.011719 C 226.746094 109.136719 233.164062 107.445312 241.988281 105.160156 C 248.65625 103.429688 255.226562 101.425781 262.066406 101.542969 C 263.5625 101.570312 265.664062 101.429688 268.425781 101.652344 C 271.402344 101.894531 276.582031 102.585938 284.917969 105.847656 C 291.710938 108.507812 292.3125 109.605469 307.421875 116.902344 C 309.765625 118.035156 311.109375 118.519531 312.953125 119.523438 C 320.464844 123.617188 328.496094 126.210938 336.808594 128.050781 C 339.878906 128.730469 343.703125 128.164062 351.242188 127.625 C 353.574219 127.457031 361.160156 126.863281 365.953125 124.1875 C 367.367188 123.394531 368.050781 122.933594 368.050781 122.933594 C 369.925781 121.589844 371.246094 119.472656 373.675781 118.820312 C 374.503906 118.597656 374.011719 117.570312 374.054688 116.90625 C 374.070312 116.660156 374.027344 116.453125 373.9375 116.285156 C 373.9375 116.285156 373.695312 115.8125 372.945312 115.597656 C 371.238281 115.109375 358.957031 118.691406 358.957031 118.691406 C 354.871094 119.882812 351.554688 119.738281 344.949219 119.203125 C 342.964844 119.042969 337.921875 118.589844 330.894531 116.53125 C 324.304688 114.601562 318.128906 111.445312 306.039062 105.210938 C 302.699219 103.488281 296.535156 100.019531 289.597656 97.265625 C 284.003906 95.046875 280.039062 93.652344 274.308594 92.636719 C 270.324219 91.933594 266.285156 91.742188 262.15625 92.269531 C 256.460938 93 250.769531 93.421875 245.660156 96.378906 C 245.101562 96.742188 244.542969 97.105469 243.980469 97.46875 Z M 4.554688 89.289062 C 5.792969 89.203125 6.59375 89.527344 7.355469 89.941406 C 8.480469 90.546875 9.648438 90.796875 10.9375 90.90625 C 13.371094 91.113281 15.664062 92.019531 17.960938 92.804688 C 18.410156 92.957031 22.128906 93.886719 23.894531 94.261719 C 26.058594 94.71875 28.671875 95.003906 43.210938 93.277344 C 49.558594 92.523438 50.761719 92.289062 52.027344 91.925781 C 55.203125 91.015625 58.332031 89.972656 61.253906 88.492188 C 64.402344 86.902344 67.746094 86.128906 71.136719 85.59375 C 75.148438 84.960938 79.210938 84.589844 83.222656 84.007812 C 89.070312 83.164062 94.8125 83.863281 100.59375 84.25 C 102.859375 84.402344 105.132812 84.511719 107.371094 84.976562 C 109.140625 85.34375 110.871094 85.742188 112.53125 86.523438 C 113.714844 87.082031 115.128906 87.140625 116.339844 87.65625 C 119.230469 88.886719 121.996094 90.355469 124.722656 91.929688 C 129.765625 94.835938 134.234375 98.484375 138.6875 102.171875 C 139.894531 103.167969 141.007812 104.277344 142.15625 105.34375 C 142.386719 105.554688 142.605469 105.789062 142.789062 106.042969 C 143.171875 106.566406 143.480469 107.136719 142.992188 107.753906 C 142.511719 108.371094 141.828125 108.320312 141.296875 107.953125 C 139.019531 106.398438 136.347656 105.574219 134.082031 104.007812 C 132.328125 102.796875 130.441406 101.886719 128.421875 101.160156 C 126.433594 100.445312 124.480469 99.574219 122.625 98.5625 C 117.980469 96.03125 112.964844 94.441406 107.972656 92.863281 C 103.9375 91.589844 99.769531 90.863281 95.4375 91.511719 C 92.886719 91.890625 90.265625 91.769531 87.679688 91.9375 C 83.097656 92.238281 78.792969 93.855469 74.347656 94.796875 C 65.582031 96.652344 57.167969 99.796875 48.464844 101.863281 C 44.246094 102.867188 39.945312 103.011719 35.640625 103.335938 C 27.386719 103.957031 19.625 101.882812 11.832031 99.683594 C 8.246094 98.671875 5.515625 96.316406 2.589844 94.242188 C 2.277344 94.019531 2.015625 93.699219 1.792969 93.378906 C 0.460938 91.472656 1.027344 90.039062 3.277344 89.578125 C 3.816406 89.46875 4.347656 89.339844 4.554688 89.289062 Z M 76.027344 85.660156 C 75.730469 85.691406 75.390625 85.695312 75.394531 86.113281 C 75.398438 86.191406 75.613281 86.328125 75.734375 86.332031 C 76.042969 86.339844 76.394531 86.234375 76.476562 85.933594 C 76.558594 85.648438 76.222656 85.699219 76.027344 85.660156 Z M 297.429688 223.941406 C 297.9375 223.058594 298.433594 222.164062 298.875 221.246094 C 302.269531 214.253906 305.632812 207.246094 309.25 200.363281 C 309.980469 198.976562 310.605469 197.53125 311.238281 196.097656 C 311.488281 195.527344 311.71875 194.917969 311.804688 194.308594 C 311.964844 193.195312 311.242188 192.546875 310.335938 192.148438 C 309.429688 191.753906 308.832031 192.292969 308.429688 193.046875 C 307.722656 194.359375 306.996094 195.664062 306.382812 197.023438 C 303.859375 202.597656 301.367188 208.191406 298.875 213.78125 C 297.535156 216.792969 296.199219 219.808594 294.910156 222.839844 C 294.390625 224.058594 294.988281 224.941406 296.125 224.867188 C 296.820312 224.871094 297.15625 224.417969 297.429688 223.941406 Z M 20.507812 200.457031 C 25.773438 193.242188 31.042969 186.03125 35.152344 178.058594 C 35.328125 177.710938 35.484375 177.320312 35.761719 177.070312 C 36.148438 176.714844 36.769531 176.589844 36.46875 175.820312 C 36.242188 175.238281 36.207031 174.472656 35.691406 174.140625 C 34.628906 173.457031 34.175781 174.449219 33.660156 175.105469 C 33.320312 175.535156 33.027344 176.003906 32.722656 176.460938 C 28.769531 182.417969 24.828125 188.382812 20.867188 194.335938 C 19.605469 196.230469 18.300781 198.097656 17.015625 199.980469 C 16.699219 200.445312 16.417969 200.925781 16.78125 201.496094 C 17.136719 202.050781 17.613281 202.421875 18.359375 202.480469 C 19.363281 202.15625 19.914062 201.269531 20.507812 200.457031 Z M 26.546875 204.003906 C 27.5625 203.324219 28.351562 202.21875 28.46875 201.960938 C 29.171875 200.402344 29.886719 200.757812 38.316406 191.4375 C 44.492188 184.617188 44.792969 183.964844 45.546875 183.144531 C 45.96875 182.683594 46.421875 182.230469 46.746094 181.703125 C 47.242188 180.894531 47.238281 180.058594 46.519531 179.34375 C 45.832031 178.660156 45.128906 178.855469 44.382812 179.285156 C 43.214844 179.960938 42.210938 180.78125 41.371094 181.859375 C 36.28125 188.425781 31.164062 194.96875 26.042969 201.507812 C 25.59375 202.082031 25.28125 202.683594 25.160156 203.371094 C 25.175781 204.058594 25.917969 204.421875 26.546875 204.003906 Z M 305.0625 222.773438 C 309.828125 214.308594 314.632812 205.863281 319.085938 197.226562 C 319.308594 196.796875 319.445312 196.367188 319.496094 195.890625 C 319.554688 195.28125 319.371094 194.796875 318.777344 194.5625 C 318.242188 194.351562 317.859375 194.671875 317.59375 195.074219 C 317.035156 195.921875 316.464844 196.773438 315.988281 197.671875 C 311.703125 205.777344 307.433594 213.894531 303.160156 222.011719 C 302.945312 222.425781 302.699219 222.839844 302.578125 223.289062 C 302.382812 223.992188 302.808594 224.285156 303.457031 224.359375 C 304.359375 224.207031 304.683594 223.441406 305.0625 222.773438 Z M 290.457031 220.09375 C 291.507812 217.996094 292.449219 215.839844 293.578125 213.789062 C 295.078125 211.070312 295.992188 208.023438 298.1875 205.6875 C 298.640625 205.203125 298.851562 204.449219 299.042969 203.78125 C 299.289062 202.914062 298.511719 201.511719 297.714844 201.332031 C 296.816406 201.128906 296.527344 201.890625 296.140625 202.460938 C 296.054688 202.589844 295.984375 202.734375 295.902344 202.867188 C 292.914062 207.855469 290.804688 213.253906 288.546875 218.585938 C 288.394531 218.945312 288.253906 219.324219 288.21875 219.707031 C 288.152344 220.449219 288.597656 220.851562 289.203125 221.023438 C 289.992188 221.132812 290.222656 220.566406 290.457031 220.09375 Z M 17.058594 187.972656 C 20.851562 183.675781 24.359375 179.140625 27.816406 174.574219 C 28.003906 174.324219 28.1875 174.058594 28.3125 173.777344 C 28.5625 173.222656 28.515625 172.679688 27.996094 172.304688 C 27.484375 171.933594 26.957031 171.984375 26.515625 172.457031 C 26.304688 172.6875 26.117188 172.941406 25.925781 173.191406 C 22.566406 177.542969 19.3125 181.96875 16.195312 186.496094 C 15.535156 187.449219 14.972656 188.472656 14.226562 189.683594 C 15.867188 189.6875 16.433594 188.679688 17.058594 187.972656 Z M 37.902344 203.253906 C 39.648438 201.4375 41.046875 199.339844 42.597656 197.367188 C 44.828125 194.535156 47.011719 191.660156 49.535156 189.070312 C 49.871094 188.726562 50.21875 188.332031 49.878906 187.847656 C 49.46875 187.265625 48.898438 187.394531 48.445312 187.78125 C 47.851562 188.289062 47.292969 188.847656 46.777344 189.433594 C 43.011719 193.753906 39.839844 198.554688 36.003906 202.820312 C 35.851562 202.992188 35.695312 203.203125 35.652344 203.417969 C 35.539062 204.003906 35.890625 204.261719 36.546875 204.363281 C 37.070312 204.1875 37.476562 203.695312 37.902344 203.253906 Z M 324.757812 197.566406 C 324.480469 197.394531 324.128906 197.453125 323.925781 197.730469 C 323.605469 198.167969 323.285156 198.617188 323.046875 199.101562 C 320.671875 203.851562 318.3125 208.609375 315.949219 213.363281 C 315.878906 213.503906 315.804688 213.640625 315.753906 213.789062 C 315.671875 214.023438 315.667969 214.285156 315.90625 214.398438 C 316.09375 214.484375 316.371094 214.519531 316.554688 214.445312 C 317.261719 214.164062 317.570312 213.496094 317.90625 212.886719 C 320.285156 208.578125 322.5 204.1875 324.546875 199.710938 C 324.773438 199.21875 324.921875 198.691406 325.109375 198.171875 C 324.984375 197.945312 324.925781 197.667969 324.757812 197.566406 Z M 324.757812 197.566406 " fill-opacity="1" fill-rule="nonzero"/></g></svg>