<svg xmlns="http://www.w3.org/2000/svg" xmlns:xlink="http://www.w3.org/1999/xlink" width="500" zoomAndPan="magnify" viewBox="0 0 375 225" height="300" preserveAspectRatio="xMidYMid meet" version="1.0"><defs><clipPath id="id1"><path d="M 222 55.34375 L 374.761719 55.34375 L 374.761719 172.34375 L 222 172.34375 Z M 222 55.34375 " clip-rule="nonzero"/></clipPath><clipPath id="id2"><path d="M 0.238281 55.34375 L 153 55.34375 L 153 172.34375 L 0.238281 172.34375 Z M 0.238281 55.34375 " clip-rule="nonzero"/></clipPath></defs><g clip-path="url(#id1)"><path fill="rgb(21.179199%, 27.059937%, 30.979919%)" d="M 366.261719 162.808594 C 359.527344 160.449219 366.6875 155.941406 364.664062 146.921875 C 322.957031 145.285156 270.257812 150.785156 234.058594 151.695312 C 231.621094 162.59375 239.632812 163.074219 238.835938 172.347656 C 233.511719 172.347656 233.394531 167.175781 227.679688 167.578125 C 210.132812 116.796875 235.625 73.441406 273.882812 59.546875 C 344.769531 36.242188 395.695312 115.371094 366.261719 162.808594 M 323.253906 67.484375 C 271.734375 52.34375 226.644531 89.949219 229.277344 140.570312 C 242.058594 144.824219 247.953125 142.902344 259.542969 142.160156 C 261.695312 93.902344 321.785156 101.207031 331.214844 137.394531 C 338.992188 139.425781 352.433594 134.507812 364.664062 135.804688 C 365.863281 101.964844 347.75 74.691406 323.253906 67.484375 M 269.097656 138.984375 C 288.230469 142.597656 306.734375 139.527344 316.882812 138.984375 C 317.429688 108.796875 268.417969 108.386719 269.097656 138.984375 " fill-opacity="1" fill-rule="evenodd"/></g><path fill="rgb(89.7995%, 89.7995%, 89.7995%)" d="M 364.664062 135.804688 C 352.429688 134.507812 338.992188 139.425781 331.214844 137.394531 C 321.785156 101.207031 261.691406 93.902344 259.542969 142.160156 C 247.953125 142.90625 242.058594 144.824219 229.277344 140.570312 C 226.644531 89.949219 271.734375 52.34375 323.25 67.484375 C 347.746094 74.691406 365.863281 101.964844 364.664062 135.804688 " fill-opacity="1" fill-rule="evenodd"/><path fill="rgb(21.179199%, 27.059937%, 30.979919%)" d="M 316.882812 138.984375 C 306.734375 139.527344 288.230469 142.597656 269.097656 138.984375 C 268.417969 108.386719 317.429688 108.796875 316.882812 138.984375 " fill-opacity="1" fill-rule="evenodd"/><g clip-path="url(#id2)"><path fill="rgb(21.179199%, 27.059937%, 30.979919%)" d="M 101.121094 59.546875 C 139.375 73.441406 164.867188 116.796875 147.320312 167.578125 C 141.605469 167.175781 141.484375 172.347656 136.167969 172.347656 C 135.367188 163.074219 143.382812 162.59375 140.941406 151.695312 C 104.742188 150.785156 52.042969 145.285156 10.335938 146.921875 C 8.3125 155.941406 15.472656 160.449219 8.738281 162.808594 C -20.695312 115.371094 30.230469 36.242188 101.121094 59.546875 M 10.335938 135.804688 C 22.566406 134.507812 36.007812 139.425781 43.78125 137.394531 C 53.214844 101.207031 113.304688 93.902344 115.457031 142.160156 C 127.046875 142.902344 132.941406 144.824219 145.722656 140.570312 C 148.355469 89.949219 103.265625 52.34375 51.75 67.484375 C 27.253906 74.691406 9.136719 101.964844 10.335938 135.804688 M 58.117188 138.984375 C 68.265625 139.527344 86.769531 142.597656 105.90625 138.984375 C 106.582031 108.386719 57.570312 108.796875 58.117188 138.984375 " fill-opacity="1" fill-rule="evenodd"/></g><path fill="rgb(89.7995%, 89.7995%, 89.7995%)" d="M 10.335938 135.804688 C 22.566406 134.507812 36.007812 139.425781 43.78125 137.394531 C 53.214844 101.207031 113.304688 93.902344 115.457031 142.160156 C 127.046875 142.902344 132.941406 144.824219 145.722656 140.570312 C 148.355469 89.949219 103.265625 52.34375 51.75 67.484375 C 27.253906 74.691406 9.136719 101.964844 10.335938 135.804688 " fill-opacity="1" fill-rule="evenodd"/><path fill="rgb(21.179199%, 27.059937%, 30.979919%)" d="M 58.117188 138.984375 C 68.265625 139.527344 86.769531 142.597656 105.90625 138.984375 C 106.582031 108.386719 57.570312 108.796875 58.117188 138.984375 " fill-opacity="1" fill-rule="evenodd"/></svg>