<svg xmlns="http://www.w3.org/2000/svg" xmlns:xlink="http://www.w3.org/1999/xlink" width="500" zoomAndPan="magnify" viewBox="0 0 375 374.999991" height="500" preserveAspectRatio="xMidYMid meet" version="1.0"><path fill="rgb(75.689697%, 15.289307%, 17.649841%)" d="M 170.242188 40.726562 C 169.980469 37.132812 169.496094 33.542969 169.511719 29.953125 C 169.535156 23.996094 170.222656 18.109375 173.339844 12.824219 C 174.390625 11.042969 175.570312 9.285156 177.515625 8.382812 C 179.222656 7.589844 180.683594 6.386719 182.828125 6.351562 C 186.148438 6.292969 189.449219 5.246094 192.796875 5.738281 C 194.753906 6.027344 196.6875 6.453125 198.664062 6.222656 C 199.535156 6.121094 200.996094 6.792969 201.152344 5.765625 C 201.335938 4.570312 199.769531 4.878906 198.945312 4.605469 C 195.574219 3.5 192.148438 3.234375 188.570312 3.296875 C 186.097656 3.335938 183.671875 3.421875 181.21875 3.882812 C 182.570312 2.582031 184.285156 2.113281 185.972656 1.757812 C 192.648438 0.351562 199.332031 0.632812 205.90625 2.3125 C 211.992188 3.867188 216.882812 7.515625 221.300781 11.84375 C 223.394531 13.890625 225.289062 16.117188 227.046875 18.460938 C 227.457031 19.003906 227.980469 19.496094 227.929688 20.265625 C 227.8125 20.378906 227.691406 20.488281 227.570312 20.601562 C 225.796875 18.507812 224 16.4375 222.253906 14.324219 C 217.933594 9.09375 212.304688 5.785156 206.136719 3.253906 C 205.898438 3.15625 205.648438 3.078125 205.308594 3.460938 C 206.28125 4.125 207.21875 4.816406 208.199219 5.4375 C 211.953125 7.8125 214.742188 11.253906 217.984375 14.191406 C 228.726562 23.914062 235.726562 36.210938 241.910156 49.058594 C 247.207031 60.070312 251.449219 71.519531 255.691406 82.964844 C 259.429688 93.039062 263.070312 103.152344 266.78125 113.238281 C 270.882812 124.386719 274.167969 135.773438 276.960938 147.316406 C 279.972656 159.757812 282.820312 172.230469 285.101562 184.828125 C 285.269531 185.753906 285.324219 186.664062 286.371094 187.1875 C 291.597656 189.804688 296.757812 192.609375 302.644531 193.476562 C 304.261719 193.714844 306.070312 194.417969 307.414062 192.660156 C 307.648438 192.355469 308.070312 192.4375 308.324219 192.703125 C 308.996094 193.40625 309.5625 193.019531 310.121094 192.578125 C 315.15625 188.570312 319.1875 183.878906 320.394531 177.304688 C 321.011719 173.933594 320.5 170.613281 319.8125 167.316406 C 318.226562 159.691406 315.765625 152.375 312.039062 145.515625 C 311.175781 143.929688 310.808594 142.242188 310.660156 140.457031 C 317.171875 148.800781 319.929688 158.730469 322.667969 169.222656 C 323.394531 167.570312 323.496094 166.3125 323.402344 164.972656 C 322.832031 156.78125 320.730469 149.085938 316.140625 142.171875 C 315.445312 141.121094 314.875 139.984375 314.226562 138.84375 C 315.453125 138.523438 316.496094 138.628906 317.441406 137.535156 C 318.355469 136.46875 320.011719 136.976562 321.316406 137.566406 C 321.691406 137.738281 322.324219 138.085938 322.382812 137.582031 C 322.675781 135.140625 324.027344 136.714844 324.714844 137.039062 C 327.070312 138.160156 328.464844 140.285156 329.675781 142.480469 C 331.96875 146.648438 333.589844 151.089844 334.765625 155.691406 C 335.746094 159.53125 336.417969 163.433594 336.789062 167.378906 C 337.320312 173.023438 335.878906 177.957031 331.488281 181.796875 C 330.96875 182.25 330.457031 182.710938 329.945312 183.171875 C 327.457031 185.410156 325.238281 187.820312 323.304688 190.632812 C 318.148438 198.128906 310.757812 202.449219 301.949219 204.476562 C 295.183594 206.035156 288.488281 206.070312 281.820312 203.964844 C 279.925781 203.367188 279.816406 203.433594 279.523438 205.371094 C 278.664062 211.070312 277.695312 216.75 276.066406 222.28125 C 271.132812 239.046875 261.988281 253.011719 248.125 263.738281 C 243.605469 267.234375 238.640625 270.054688 232.953125 271.164062 C 227.539062 272.222656 222.164062 271.761719 216.992188 269.792969 C 210.984375 267.511719 205.28125 264.59375 199.757812 261.320312 C 198.203125 260.398438 197.808594 260.5 197.210938 262.335938 C 193.867188 272.550781 187.496094 280.871094 180.640625 288.875 C 173.917969 296.726562 165.269531 301.191406 155.152344 302.800781 C 149.398438 303.714844 143.675781 303.054688 138 301.855469 C 134.566406 301.128906 131.335938 299.855469 128.117188 298.511719 C 127.800781 298.378906 127.460938 298.304688 127.128906 298.207031 C 124.863281 297.53125 124.714844 297.601562 123.953125 299.769531 C 123.609375 300.742188 123.308594 301.730469 122.941406 302.695312 C 118.730469 313.738281 110.675781 321.050781 100.0625 325.589844 C 92.753906 328.714844 85.101562 330.671875 77 330.1875 C 73.449219 329.976562 70.03125 329.3125 66.707031 328.0625 C 64.628906 327.277344 64.449219 327.371094 63.988281 329.59375 C 62.007812 339.109375 58.148438 347.902344 53.820312 356.539062 C 52.898438 358.375 51.292969 359.535156 50.175781 361.167969 C 47.410156 365.210938 44.558594 369.207031 40.890625 372.519531 C 40.199219 373.144531 39.492188 373.757812 38.578125 374.566406 C 38.386719 373.308594 39.164062 372.792969 39.632812 372.230469 C 42.394531 368.929688 44.878906 365.433594 47.171875 361.789062 C 53.75 351.335938 57.289062 339.832031 59.117188 327.714844 C 59.414062 325.738281 58.90625 324.402344 57.148438 323.179688 C 48.96875 317.503906 43.128906 309.867188 38.925781 300.894531 C 37.320312 297.472656 35.671875 294.078125 34.394531 290.519531 C 34.222656 290.039062 34.125 289.402344 33.769531 289.144531 C 32.644531 288.328125 32.820312 287.191406 32.871094 286.105469 C 32.96875 284.125 32.992188 282.144531 32.417969 280.234375 C 32.171875 279.40625 32.65625 279.117188 32.984375 278.539062 C 34.21875 276.363281 36.132812 275.472656 38.453125 275.140625 C 42.820312 274.519531 47.035156 275.1875 51.097656 276.78125 C 53.390625 277.679688 55.148438 279.347656 56.644531 281.285156 C 59.203125 284.601562 60.953125 288.316406 62.152344 292.308594 C 64.246094 299.273438 65.445312 306.390625 65.40625 313.667969 C 65.394531 315.53125 66.035156 316.65625 67.5625 317.652344 C 72.625 320.949219 78.074219 323.128906 84.097656 323.777344 C 85.898438 323.972656 87.691406 323.976562 89.492188 323.625 C 100.324219 321.53125 107.789062 315.378906 111.976562 305.167969 C 113.421875 301.640625 114.28125 297.980469 115.058594 294.269531 C 115.410156 292.609375 114.878906 291.746094 113.515625 290.941406 C 108.476562 287.960938 103.558594 284.785156 98.832031 281.335938 C 90.828125 275.5 83.308594 269.074219 76.003906 262.386719 C 74.898438 261.375 74.113281 259.6875 72.109375 259.898438 C 71.808594 259.929688 71.410156 259.210938 71.085938 258.816406 C 68.484375 255.609375 65.878906 252.402344 63.289062 249.183594 C 60.042969 245.148438 57.171875 240.855469 54.921875 236.183594 C 49.980469 225.910156 45.90625 215.3125 44.03125 204.019531 C 42.617188 195.496094 42.035156 186.914062 44.238281 178.390625 C 44.996094 175.457031 46.082031 172.667969 47.726562 170.101562 C 49.382812 167.511719 51.652344 165.6875 54.59375 164.96875 C 60.792969 163.453125 66.878906 163.117188 72.921875 166.105469 C 78.691406 168.957031 83.496094 172.832031 87.414062 177.871094 C 93.507812 185.714844 98.539062 194.238281 103.101562 203.035156 C 113.519531 223.109375 120.535156 244.355469 124.609375 266.582031 C 125.382812 270.808594 125.886719 275.074219 125.949219 279.382812 C 125.953125 279.640625 125.960938 279.898438 125.964844 280.15625 C 126.015625 282.84375 126.964844 284.65625 129.683594 285.902344 C 137.320312 289.402344 145.121094 292.179688 153.503906 293.175781 C 157.132812 293.605469 160.722656 293.363281 164.304688 292.835938 C 167.160156 292.414062 169.394531 290.816406 171.359375 288.820312 C 176.472656 283.613281 180.625 277.722656 183.648438 271.082031 C 185.894531 266.140625 187.503906 260.964844 188.6875 255.65625 C 189.027344 254.117188 188.855469 252.957031 187.476562 251.824219 C 175.527344 241.980469 165.40625 230.394531 155.851562 218.28125 C 151.171875 212.347656 146.585938 206.335938 141.945312 200.367188 C 141.640625 199.972656 141.40625 199.460938 140.625 199.347656 C 139.976562 200.300781 140.324219 201.171875 140.953125 202.015625 C 142.285156 203.8125 143.601562 205.621094 144.972656 207.386719 C 145.710938 208.339844 146.449219 209.277344 146.890625 210.734375 C 145.816406 210.40625 145.265625 209.691406 144.628906 209.105469 C 139.304688 204.179688 134.753906 198.585938 130.40625 192.804688 C 122.230469 181.921875 114.53125 170.726562 108.078125 158.714844 C 104.9375 152.867188 102.183594 146.847656 99.910156 140.609375 C 98.996094 138.101562 97.9375 135.660156 96.824219 133.230469 C 91.277344 121.109375 87.808594 108.46875 88.269531 95.039062 C 88.632812 84.457031 91.582031 74.707031 98.78125 66.558594 C 101.847656 63.085938 105.316406 60.484375 110.121094 60.09375 C 111.597656 59.976562 113.023438 59.894531 114.425781 60.511719 C 116.011719 61.210938 117.726562 61.421875 119.429688 61.679688 C 127.585938 62.902344 134.550781 66.699219 140.816406 71.867188 C 146.304688 76.394531 150.808594 81.816406 154.671875 87.777344 C 160.765625 97.179688 165.953125 107.09375 170.90625 117.128906 C 180.789062 137.128906 189.714844 157.53125 196.667969 178.757812 C 199.804688 188.34375 202.296875 198.089844 203.515625 208.121094 C 204.875 219.304688 204.621094 230.464844 202.539062 241.542969 C 202.195312 243.382812 202.617188 244.375 204.09375 245.382812 C 211.96875 250.742188 220.21875 255.292969 229.570312 257.535156 C 233.355469 258.441406 237.183594 258.804688 241.089844 258.433594 C 243.21875 258.230469 245.074219 257.542969 246.769531 256.25 C 255.046875 249.949219 260.273438 241.648438 262.730469 231.617188 C 264.84375 222.996094 266.132812 214.234375 266.601562 205.363281 C 266.726562 203.046875 266.636719 200.71875 266.710938 198.398438 C 266.746094 197.21875 266.246094 196.5 265.25 195.914062 C 256.191406 190.609375 248.621094 183.449219 241.09375 176.265625 C 236.933594 172.292969 233.070312 168.007812 229.089844 163.847656 C 228.390625 163.117188 227.652344 162.421875 227.769531 161.203125 C 227.84375 160.390625 227.089844 159.867188 226.605469 159.265625 C 218.835938 149.632812 211.105469 139.964844 204.085938 129.761719 C 202.296875 127.160156 200.222656 124.734375 199.28125 121.535156 C 200.511719 123.152344 201.746094 124.769531 202.980469 126.382812 C 202.980469 124.519531 202.117188 123.039062 201.167969 121.628906 C 198.007812 116.921875 195.042969 112.097656 192.417969 107.074219 C 187.839844 98.3125 183.46875 89.460938 179.984375 80.183594 C 177.53125 73.664062 174.722656 67.277344 172.78125 60.574219 C 172.441406 59.386719 171.636719 58.273438 172.539062 56.773438 C 172.964844 56.066406 172.214844 54.648438 172 53.554688 C 171.339844 50.1875 170.421875 46.863281 170.230469 43.414062 L 170.183594 43.417969 C 170.871094 42.519531 170.640625 41.617188 170.1875 40.71875 Z M 174.277344 13.304688 C 175.035156 13.148438 175.175781 12.632812 175.277344 11.855469 C 174.429688 12.230469 174.308594 12.757812 174.332031 13.359375 C 173.46875 13.816406 173.242188 14.582031 173.328125 15.488281 C 171.929688 16.953125 171.78125 18.785156 171.804688 20.664062 C 172.433594 18.96875 173.417969 17.367188 173.277344 15.449219 C 174.042969 14.9375 174.316406 14.191406 174.277344 13.304688 Z M 225.4375 44.472656 C 224.644531 42.703125 223.378906 41.230469 222.503906 39.484375 C 220.027344 34.546875 217.941406 29.40625 214.566406 24.921875 C 209.5 18.183594 203.359375 12.890625 195.597656 9.515625 C 193.695312 8.6875 191.828125 8.535156 189.824219 9.046875 C 186.691406 9.847656 184.503906 11.746094 183.035156 14.558594 C 181.5 17.503906 180.832031 20.691406 180.445312 23.957031 C 179.492188 31.992188 181.027344 39.761719 183.210938 47.394531 C 188.042969 64.273438 195.394531 80.101562 204.058594 95.296875 C 214.859375 114.242188 227.085938 132.226562 241.464844 148.691406 C 248.429688 156.664062 255.457031 164.566406 263.484375 171.503906 C 264.027344 171.976562 264.4375 172.792969 265.394531 172.480469 C 265.644531 172.054688 265.507812 171.625 265.484375 171.203125 C 265.082031 164.925781 264.058594 158.726562 263.078125 152.523438 C 259.914062 132.421875 253.351562 113.335938 245.613281 94.613281 C 244.167969 91.117188 242.371094 87.75 241.15625 84.179688 C 239.128906 78.238281 236.820312 72.410156 234.660156 66.523438 C 232.410156 60.402344 229.269531 54.644531 227.207031 48.441406 C 227.015625 47.863281 226.828125 47.300781 226.316406 46.914062 C 226.40625 45.964844 226.324219 45.074219 225.4375 44.472656 Z M 164.914062 129.171875 C 165.191406 128.179688 164.738281 127.335938 164.402344 126.449219 C 162.164062 120.589844 159.191406 115.054688 156.742188 109.289062 C 153.277344 101.121094 149.234375 93.246094 144.550781 85.710938 C 141.863281 81.390625 138.820312 77.339844 134.96875 73.945312 C 131.300781 70.714844 127.148438 68.347656 122.507812 66.847656 C 120.082031 66.0625 118.863281 66.59375 117.660156 68.828125 C 115.527344 72.777344 113.777344 76.875 112.78125 81.277344 C 110.714844 90.425781 110.960938 99.539062 113.03125 108.648438 C 115.433594 119.222656 119.691406 129.074219 124.734375 138.597656 C 133.59375 155.332031 143.730469 171.324219 153.484375 187.535156 C 154.410156 189.078125 155.503906 190.53125 156.601562 191.960938 C 161.253906 198.035156 165.964844 204.058594 170.601562 210.144531 C 176.492188 217.867188 182.566406 225.433594 189.3125 232.4375 C 189.921875 233.066406 190.417969 234.363281 191.460938 233.90625 C 192.441406 233.476562 191.960938 232.210938 191.945312 231.320312 C 191.773438 220.570312 190.222656 210.007812 187.679688 199.574219 C 185.546875 190.816406 183.207031 182.117188 180.597656 173.484375 C 177.707031 163.9375 174.59375 154.476562 170.820312 145.238281 C 168.964844 140.707031 167.128906 136.167969 165.3125 131.621094 C 165.003906 130.851562 164.445312 130.085938 164.914062 129.171875 Z M 115.640625 275.996094 C 116.066406 275.210938 115.996094 274.59375 115.921875 274.007812 C 115.152344 267.777344 114.15625 261.585938 112.648438 255.484375 C 110.5625 247.015625 107.765625 238.773438 104.925781 230.527344 C 102.210938 222.652344 99.007812 214.988281 95.53125 207.445312 C 93.0625 202.085938 90.140625 196.929688 87.335938 191.730469 C 86.953125 191.015625 86.554688 189.953125 85.265625 190.054688 C 85.203125 191.183594 86.226562 191.957031 85.992188 193.105469 C 84.988281 192.617188 84.695312 191.664062 84.21875 190.886719 C 81.382812 186.265625 78.570312 181.628906 75.046875 177.480469 C 72.695312 174.714844 70.125 172.179688 67.050781 170.214844 C 65.261719 169.070312 64.976562 169.136719 63.714844 170.886719 C 62.21875 172.964844 61.558594 175.363281 61.144531 177.84375 C 60.195312 183.511719 60.382812 189.171875 61.433594 194.796875 C 64.109375 209.144531 69.992188 222.191406 78.070312 234.222656 C 87.753906 248.636719 98.871094 261.855469 112.007812 273.285156 C 113.101562 274.234375 114.140625 275.261719 115.640625 275.996094 Z M 58.585938 309.304688 C 59.09375 308.675781 58.851562 307.976562 58.75 307.335938 C 58.410156 305.214844 58.078125 303.089844 57.613281 300.996094 C 56.378906 295.425781 54.671875 290.046875 51.230469 285.363281 C 49.976562 283.652344 48.367188 282.398438 46.589844 281.34375 C 45.25 280.550781 44.699219 280.90625 44.808594 282.496094 C 44.882812 283.605469 45.074219 284.726562 45.382812 285.796875 C 47.765625 294.097656 51.875 301.5 57.269531 308.207031 C 57.605469 308.628906 57.859375 309.277344 58.585938 309.304688 Z M 51.074219 204.867188 C 51.824219 210.808594 54.140625 216.292969 56.167969 221.90625 C 58.203125 227.523438 60.960938 232.765625 63.839844 237.898438 C 68.09375 245.472656 72.8125 250.847656 75.292969 251.933594 C 64.5 237.34375 56.085938 222.003906 51.074219 204.867188 Z M 202.101562 8.742188 C 204.65625 10.308594 207.210938 11.875 209.765625 13.441406 C 207.976562 10.71875 205.304688 9.398438 202.101562 8.742188 Z M 217.1875 19.664062 C 217.328125 20.402344 217.585938 20.804688 218.25 20.992188 C 218.167969 20.355469 217.785156 20.046875 217.1875 19.664062 Z M 83.964844 186.601562 C 83.957031 186.316406 83.832031 186.078125 83.546875 186.058594 C 83.246094 186.035156 83.070312 186.273438 83.167969 186.546875 C 83.246094 186.773438 83.433594 187.074219 83.621094 187.113281 C 83.960938 187.191406 83.921875 186.828125 83.964844 186.601562 Z M 170.878906 27.613281 C 171.09375 27.644531 171.199219 27.546875 171.179688 27.332031 C 171.160156 27.105469 171.101562 26.878906 171.058594 26.65625 C 170.96875 26.746094 170.8125 26.832031 170.804688 26.929688 C 170.792969 27.160156 170.851562 27.390625 170.878906 27.613281 Z M 229.070312 29.476562 C 228.707031 29.472656 228.570312 29.679688 228.652344 29.921875 C 228.71875 30.121094 228.902344 30.328125 229.089844 30.421875 C 229.335938 30.554688 229.550781 30.40625 229.554688 30.117188 C 229.5625 29.765625 229.378906 29.53125 229.070312 29.476562 Z M 231.1875 32.828125 C 231.046875 32.886719 230.820312 32.910156 230.785156 33.003906 C 230.65625 33.378906 230.878906 33.667969 231.167969 33.859375 C 231.441406 34.042969 231.664062 33.878906 231.714844 33.589844 C 231.789062 33.1875 231.523438 32.976562 231.1875 32.828125 Z M 81.347656 182.722656 C 81.414062 182.71875 81.480469 182.714844 81.546875 182.710938 C 81.472656 182.597656 81.40625 182.472656 81.320312 182.371094 C 81.292969 182.34375 81.199219 182.371094 81.136719 182.371094 C 81.207031 182.488281 81.277344 182.605469 81.347656 182.722656 Z M 171.324219 24.507812 C 171.507812 24.566406 171.644531 24.496094 171.640625 24.296875 C 171.636719 24.070312 171.578125 23.84375 171.546875 23.617188 C 171.441406 23.699219 171.296875 23.761719 171.246094 23.867188 C 171.144531 24.082031 171.128906 24.316406 171.324219 24.507812 Z M 232.914062 36.109375 C 233.03125 35.820312 232.855469 35.636719 232.644531 35.527344 C 232.546875 35.472656 232.292969 35.519531 232.253906 35.59375 C 232.132812 35.839844 232.242188 36.078125 232.484375 36.179688 C 232.601562 36.226562 232.769531 36.136719 232.914062 36.109375 Z M 235.0625 40.03125 C 234.863281 40.039062 234.738281 40.160156 234.800781 40.355469 C 234.847656 40.492188 234.976562 40.664062 235.105469 40.699219 C 235.296875 40.75 235.441406 40.585938 235.378906 40.402344 C 235.328125 40.257812 235.171875 40.152344 235.0625 40.03125 Z M 51.820312 171.433594 C 51.917969 171.246094 51.875 171.046875 51.679688 171.039062 C 51.308594 171.015625 51.089844 171.289062 50.984375 171.605469 C 50.945312 171.722656 51.058594 172.015625 51.101562 172.015625 C 51.480469 172.011719 51.628906 171.691406 51.820312 171.433594 Z M 25.757812 282.527344 C 24.160156 285.527344 23.828125 288.714844 24.402344 292.042969 C 24.933594 295.113281 26.035156 297.992188 27.269531 300.835938 C 30.089844 307.339844 34.449219 312.703125 39.621094 317.453125 C 40.945312 318.671875 40.992188 318.625 42.808594 318.308594 C 42.277344 317.804688 41.789062 317.324219 41.289062 316.859375 C 33.96875 310.046875 29.597656 301.496094 26.84375 292.042969 C 25.5 287.429688 26.0625 283.15625 29.867188 279.726562 C 28.136719 279.710938 26.789062 280.597656 25.757812 282.527344 Z M 220.144531 153.949219 C 219.773438 152.671875 218.855469 151.738281 218.082031 150.726562 C 213.191406 144.300781 208.199219 137.964844 203.6875 131.246094 C 195.734375 119.394531 187.871094 107.5 181.289062 94.804688 C 181.070312 94.390625 180.984375 93.699219 180.03125 93.550781 C 180.300781 94.125 180.445312 94.425781 180.585938 94.730469 C 184.230469 102.535156 188.90625 109.761719 193.148438 117.226562 C 199.113281 127.726562 206.0625 137.5625 213.644531 146.945312 C 215.582031 149.34375 217.328125 151.921875 219.710938 153.941406 C 219.855469 153.941406 220 153.945312 220.144531 153.949219 Z M 230.53125 24.285156 C 229.980469 22.292969 229.214844 21.109375 227.929688 20.265625 C 227.8125 20.378906 227.691406 20.488281 227.570312 20.601562 C 228.175781 21.90625 228.902344 23.113281 230.53125 24.285156 Z M 222.65625 156.960938 C 221.917969 155.390625 221.058594 154.644531 220.144531 153.949219 C 220 153.945312 219.855469 153.941406 219.710938 153.941406 C 220.3125 155.070312 220.980469 156.128906 222.65625 156.960938 Z M 231.503906 26.679688 C 231.636719 26.863281 231.800781 27.132812 231.976562 27.152344 C 232.257812 27.183594 232.371094 26.878906 232.246094 26.660156 C 232.144531 26.488281 231.886719 26.40625 231.75 26.316406 C 231.464844 26.382812 231.386719 26.515625 231.503906 26.679688 Z M 73.96875 261.609375 C 73.902344 261.523438 73.695312 261.550781 73.550781 261.53125 C 73.625 261.742188 73.671875 261.980469 73.796875 262.160156 C 73.855469 262.242188 74.070312 262.21875 74.289062 262.257812 C 74.175781 262.011719 74.109375 261.777344 73.96875 261.609375 Z M 76.757812 265.339844 C 76.816406 265.492188 76.835938 265.679688 76.9375 265.789062 C 77.089844 265.960938 77.273438 265.898438 77.242188 265.710938 C 77.21875 265.570312 77.058594 265.449219 76.957031 265.320312 C 76.890625 265.328125 76.824219 265.332031 76.757812 265.339844 Z M 170.183594 43.417969 C 170.183594 42.519531 170.1875 41.617188 170.1875 40.71875 C 170.1875 40.71875 170.242188 40.726562 170.242188 40.726562 C 169.710938 41.621094 170.050781 42.519531 170.230469 43.414062 Z M 170.183594 43.417969 " fill-opacity="1" fill-rule="nonzero"/><path fill="rgb(75.689697%, 15.289307%, 17.649841%)" d="M 170.242188 40.726562 C 169.980469 37.132812 169.496094 33.542969 169.511719 29.953125 C 169.535156 23.996094 170.222656 18.109375 173.339844 12.824219 C 174.390625 11.042969 175.570312 9.285156 177.515625 8.382812 C 179.222656 7.589844 180.683594 6.386719 182.828125 6.351562 C 186.148438 6.292969 189.449219 5.246094 192.796875 5.738281 C 194.753906 6.027344 196.6875 6.453125 198.664062 6.222656 C 199.535156 6.121094 200.996094 6.792969 201.152344 5.765625 C 201.335938 4.570312 199.769531 4.878906 198.945312 4.605469 C 195.574219 3.5 192.148438 3.234375 188.570312 3.296875 C 186.097656 3.335938 183.671875 3.421875 181.21875 3.882812 C 182.570312 2.582031 184.285156 2.113281 185.972656 1.757812 C 192.648438 0.351562 199.332031 0.632812 205.90625 2.3125 C 211.992188 3.867188 216.882812 7.515625 221.300781 11.84375 C 223.394531 13.890625 225.289062 16.117188 227.046875 18.460938 C 227.457031 19.003906 227.980469 19.496094 227.929688 20.265625 C 227.8125 20.378906 227.691406 20.488281 227.570312 20.601562 C 225.796875 18.507812 224 16.4375 222.253906 14.324219 C 217.933594 9.09375 212.304688 5.785156 206.136719 3.253906 C 205.898438 3.15625 205.648438 3.078125 205.308594 3.460938 C 206.28125 4.125 207.21875 4.816406 208.199219 5.4375 C 211.953125 7.8125 214.742188 11.253906 217.984375 14.191406 C 228.726562 23.914062 235.726562 36.210938 241.910156 49.058594 C 247.207031 60.070312 251.449219 71.519531 255.691406 82.964844 C 259.429688 93.039062 263.070312 103.152344 266.78125 113.238281 C 270.882812 124.386719 274.167969 135.773438 276.960938 147.316406 C 279.972656 159.757812 282.820312 172.230469 285.101562 184.828125 C 285.269531 185.753906 285.324219 186.664062 286.371094 187.1875 C 291.597656 189.804688 296.757812 192.609375 302.644531 193.476562 C 304.261719 193.714844 306.070312 194.417969 307.414062 192.660156 C 307.648438 192.355469 308.070312 192.4375 308.324219 192.703125 C 308.996094 193.40625 309.5625 193.019531 310.121094 192.578125 C 315.15625 188.570312 319.1875 183.878906 320.394531 177.304688 C 321.011719 173.933594 320.5 170.613281 319.8125 167.316406 C 318.226562 159.691406 315.765625 152.375 312.039062 145.515625 C 311.175781 143.929688 310.808594 142.242188 310.660156 140.457031 C 317.171875 148.800781 319.929688 158.730469 322.667969 169.222656 C 323.394531 167.570312 323.496094 166.3125 323.402344 164.972656 C 322.832031 156.78125 320.730469 149.085938 316.140625 142.171875 C 315.445312 141.121094 314.875 139.984375 314.226562 138.84375 C 315.453125 138.523438 316.496094 138.628906 317.441406 137.535156 C 318.355469 136.46875 320.011719 136.976562 321.316406 137.566406 C 321.691406 137.738281 322.324219 138.085938 322.382812 137.582031 C 322.675781 135.140625 324.027344 136.714844 324.714844 137.039062 C 327.070312 138.160156 328.464844 140.285156 329.675781 142.480469 C 331.96875 146.648438 333.589844 151.089844 334.765625 155.691406 C 335.746094 159.53125 336.417969 163.433594 336.789062 167.378906 C 337.320312 173.023438 335.878906 177.957031 331.488281 181.796875 C 330.96875 182.25 330.457031 182.710938 329.945312 183.171875 C 327.457031 185.410156 325.238281 187.820312 323.304688 190.632812 C 318.148438 198.128906 310.757812 202.449219 301.949219 204.476562 C 295.183594 206.035156 288.488281 206.070312 281.820312 203.964844 C 279.925781 203.367188 279.816406 203.433594 279.523438 205.371094 C 278.664062 211.070312 277.695312 216.75 276.066406 222.28125 C 271.132812 239.046875 261.988281 253.011719 248.125 263.738281 C 243.605469 267.234375 238.640625 270.054688 232.953125 271.164062 C 227.539062 272.222656 222.164062 271.761719 216.992188 269.792969 C 210.984375 267.511719 205.28125 264.59375 199.757812 261.320312 C 198.203125 260.398438 197.808594 260.5 197.210938 262.335938 C 193.867188 272.550781 187.496094 280.871094 180.640625 288.875 C 173.917969 296.726562 165.269531 301.191406 155.152344 302.800781 C 149.398438 303.714844 143.675781 303.054688 138 301.855469 C 134.566406 301.128906 131.335938 299.855469 128.117188 298.511719 C 127.800781 298.378906 127.460938 298.304688 127.128906 298.207031 C 124.863281 297.53125 124.714844 297.601562 123.953125 299.769531 C 123.609375 300.742188 123.308594 301.730469 122.941406 302.695312 C 118.730469 313.738281 110.675781 321.050781 100.0625 325.589844 C 92.753906 328.714844 85.101562 330.671875 77 330.1875 C 73.449219 329.976562 70.03125 329.3125 66.707031 328.0625 C 64.628906 327.277344 64.449219 327.371094 63.988281 329.59375 C 62.007812 339.109375 58.148438 347.902344 53.820312 356.539062 C 52.898438 358.375 51.292969 359.535156 50.175781 361.167969 C 47.410156 365.210938 44.558594 369.207031 40.890625 372.519531 C 40.199219 373.144531 39.492188 373.757812 38.578125 374.566406 C 38.386719 373.308594 39.164062 372.792969 39.632812 372.230469 C 42.394531 368.929688 44.878906 365.433594 47.171875 361.789062 C 53.75 351.335938 57.289062 339.832031 59.117188 327.714844 C 59.414062 325.738281 58.90625 324.402344 57.148438 323.179688 C 48.96875 317.503906 43.128906 309.867188 38.925781 300.894531 C 37.320312 297.472656 35.671875 294.078125 34.394531 290.519531 C 34.222656 290.039062 34.125 289.402344 33.769531 289.144531 C 32.644531 288.328125 32.820312 287.191406 32.871094 286.105469 C 32.96875 284.125 32.992188 282.144531 32.417969 280.234375 C 32.171875 279.40625 32.65625 279.117188 32.984375 278.539062 C 34.21875 276.363281 36.132812 275.472656 38.453125 275.140625 C 42.820312 274.519531 47.035156 275.1875 51.097656 276.78125 C 53.390625 277.679688 55.148438 279.347656 56.644531 281.285156 C 59.203125 284.601562 60.953125 288.316406 62.152344 292.308594 C 64.246094 299.273438 65.445312 306.390625 65.40625 313.667969 C 65.394531 315.53125 66.035156 316.65625 67.5625 317.652344 C 72.625 320.949219 78.074219 323.128906 84.097656 323.777344 C 85.898438 323.972656 87.691406 323.976562 89.492188 323.625 C 100.324219 321.53125 107.789062 315.378906 111.976562 305.167969 C 113.421875 301.640625 114.28125 297.980469 115.058594 294.269531 C 115.410156 292.609375 114.878906 291.746094 113.515625 290.941406 C 108.476562 287.960938 103.558594 284.785156 98.832031 281.335938 C 90.828125 275.5 83.308594 269.074219 76.003906 262.386719 C 74.898438 261.375 74.113281 259.6875 72.109375 259.898438 C 71.808594 259.929688 71.410156 259.210938 71.085938 258.816406 C 68.484375 255.609375 65.878906 252.402344 63.289062 249.183594 C 60.042969 245.148438 57.171875 240.855469 54.921875 236.183594 C 49.980469 225.910156 45.90625 215.3125 44.03125 204.019531 C 42.617188 195.496094 42.035156 186.914062 44.238281 178.390625 C 44.996094 175.457031 46.082031 172.667969 47.726562 170.101562 C 49.382812 167.511719 51.652344 165.6875 54.59375 164.96875 C 60.792969 163.453125 66.878906 163.117188 72.921875 166.105469 C 78.691406 168.957031 83.496094 172.832031 87.414062 177.871094 C 93.507812 185.714844 98.539062 194.238281 103.101562 203.035156 C 113.519531 223.109375 120.535156 244.355469 124.609375 266.582031 C 125.382812 270.808594 125.886719 275.074219 125.949219 279.382812 C 125.953125 279.640625 125.960938 279.898438 125.964844 280.15625 C 126.015625 282.84375 126.964844 284.65625 129.683594 285.902344 C 137.320312 289.402344 145.121094 292.179688 153.503906 293.175781 C 157.132812 293.605469 160.722656 293.363281 164.304688 292.835938 C 167.160156 292.414062 169.394531 290.816406 171.359375 288.820312 C 176.472656 283.613281 180.625 277.722656 183.648438 271.082031 C 185.894531 266.140625 187.503906 260.964844 188.6875 255.65625 C 189.027344 254.117188 188.855469 252.957031 187.476562 251.824219 C 175.527344 241.980469 165.40625 230.394531 155.851562 218.28125 C 151.171875 212.347656 146.585938 206.335938 141.945312 200.367188 C 141.640625 199.972656 141.40625 199.460938 140.625 199.347656 C 139.976562 200.300781 140.324219 201.171875 140.953125 202.015625 C 142.285156 203.8125 143.601562 205.621094 144.972656 207.386719 C 145.710938 208.339844 146.449219 209.277344 146.890625 210.734375 C 145.816406 210.40625 145.265625 209.691406 144.628906 209.105469 C 139.304688 204.179688 134.753906 198.585938 130.40625 192.804688 C 122.230469 181.921875 114.53125 170.726562 108.078125 158.714844 C 104.9375 152.867188 102.183594 146.847656 99.910156 140.609375 C 98.996094 138.101562 97.9375 135.660156 96.824219 133.230469 C 91.277344 121.109375 87.808594 108.46875 88.269531 95.039062 C 88.632812 84.457031 91.582031 74.707031 98.78125 66.558594 C 101.847656 63.085938 105.316406 60.484375 110.121094 60.09375 C 111.597656 59.976562 113.023438 59.894531 114.425781 60.511719 C 116.011719 61.210938 117.726562 61.421875 119.429688 61.679688 C 127.585938 62.902344 134.550781 66.699219 140.816406 71.867188 C 146.304688 76.394531 150.808594 81.816406 154.671875 87.777344 C 160.765625 97.179688 165.953125 107.09375 170.90625 117.128906 C 180.789062 137.128906 189.714844 157.53125 196.667969 178.757812 C 199.804688 188.34375 202.296875 198.089844 203.515625 208.121094 C 204.875 219.304688 204.621094 230.464844 202.539062 241.542969 C 202.195312 243.382812 202.617188 244.375 204.09375 245.382812 C 211.96875 250.742188 220.21875 255.292969 229.570312 257.535156 C 233.355469 258.441406 237.183594 258.804688 241.089844 258.433594 C 243.21875 258.230469 245.074219 257.542969 246.769531 256.25 C 255.046875 249.949219 260.273438 241.648438 262.730469 231.617188 C 264.84375 222.996094 266.132812 214.234375 266.601562 205.363281 C 266.726562 203.046875 266.636719 200.71875 266.710938 198.398438 C 266.746094 197.21875 266.246094 196.5 265.25 195.914062 C 256.191406 190.609375 248.621094 183.449219 241.09375 176.265625 C 236.933594 172.292969 233.070312 168.007812 229.089844 163.847656 C 228.390625 163.117188 227.652344 162.421875 227.769531 161.203125 C 227.84375 160.390625 227.089844 159.867188 226.605469 159.265625 C 218.835938 149.632812 211.105469 139.964844 204.085938 129.761719 C 202.296875 127.160156 200.222656 124.734375 199.28125 121.535156 C 200.511719 123.152344 201.746094 124.769531 202.980469 126.382812 C 202.980469 124.519531 202.117188 123.039062 201.167969 121.628906 C 198.007812 116.921875 195.042969 112.097656 192.417969 107.074219 C 187.839844 98.3125 183.46875 89.460938 179.984375 80.183594 C 177.53125 73.664062 174.722656 67.277344 172.78125 60.574219 C 172.441406 59.386719 171.636719 58.273438 172.539062 56.773438 C 172.964844 56.066406 172.214844 54.648438 172 53.554688 C 171.339844 50.1875 170.421875 46.863281 170.230469 43.414062 L 170.183594 43.417969 C 170.871094 42.519531 170.640625 41.617188 170.1875 40.71875 Z M 174.277344 13.304688 C 175.035156 13.148438 175.175781 12.632812 175.277344 11.855469 C 174.429688 12.230469 174.308594 12.757812 174.332031 13.359375 C 173.46875 13.816406 173.242188 14.582031 173.328125 15.488281 C 171.929688 16.953125 171.78125 18.785156 171.804688 20.664062 C 172.433594 18.96875 173.417969 17.367188 173.277344 15.449219 C 174.042969 14.9375 174.316406 14.191406 174.277344 13.304688 Z M 225.4375 44.472656 C 224.644531 42.703125 223.378906 41.230469 222.503906 39.484375 C 220.027344 34.546875 217.941406 29.40625 214.566406 24.921875 C 209.5 18.183594 203.359375 12.890625 195.597656 9.515625 C 193.695312 8.6875 191.828125 8.535156 189.824219 9.046875 C 186.691406 9.847656 184.503906 11.746094 183.035156 14.558594 C 181.5 17.503906 180.832031 20.691406 180.445312 23.957031 C 179.492188 31.992188 181.027344 39.761719 183.210938 47.394531 C 188.042969 64.273438 195.394531 80.101562 204.058594 95.296875 C 214.859375 114.242188 227.085938 132.226562 241.464844 148.691406 C 248.429688 156.664062 255.457031 164.566406 263.484375 171.503906 C 264.027344 171.976562 264.4375 172.792969 265.394531 172.480469 C 265.644531 172.054688 265.507812 171.625 265.484375 171.203125 C 265.082031 164.925781 264.058594 158.726562 263.078125 152.523438 C 259.914062 132.421875 253.351562 113.335938 245.613281 94.613281 C 244.167969 91.117188 242.371094 87.75 241.15625 84.179688 C 239.128906 78.238281 236.820312 72.410156 234.660156 66.523438 C 232.410156 60.402344 229.269531 54.644531 227.207031 48.441406 C 227.015625 47.863281 226.828125 47.300781 226.316406 46.914062 C 226.40625 45.964844 226.324219 45.074219 225.4375 44.472656 Z M 164.914062 129.171875 C 165.191406 128.179688 164.738281 127.335938 164.402344 126.449219 C 162.164062 120.589844 159.191406 115.054688 156.742188 109.289062 C 153.277344 101.121094 149.234375 93.246094 144.550781 85.710938 C 141.863281 81.390625 138.820312 77.339844 134.96875 73.945312 C 131.300781 70.714844 127.148438 68.347656 122.507812 66.847656 C 120.082031 66.0625 118.863281 66.59375 117.660156 68.828125 C 115.527344 72.777344 113.777344 76.875 112.78125 81.277344 C 110.714844 90.425781 110.960938 99.539062 113.03125 108.648438 C 115.433594 119.222656 119.691406 129.074219 124.734375 138.597656 C 133.59375 155.332031 143.730469 171.324219 153.484375 187.535156 C 154.410156 189.078125 155.503906 190.53125 156.601562 191.960938 C 161.253906 198.035156 165.964844 204.058594 170.601562 210.144531 C 176.492188 217.867188 182.566406 225.433594 189.3125 232.4375 C 189.921875 233.066406 190.417969 234.363281 191.460938 233.90625 C 192.441406 233.476562 191.960938 232.210938 191.945312 231.320312 C 191.773438 220.570312 190.222656 210.007812 187.679688 199.574219 C 185.546875 190.816406 183.207031 182.117188 180.597656 173.484375 C 177.707031 163.9375 174.59375 154.476562 170.820312 145.238281 C 168.964844 140.707031 167.128906 136.167969 165.3125 131.621094 C 165.003906 130.851562 164.445312 130.085938 164.914062 129.171875 Z M 115.640625 275.996094 C 116.066406 275.210938 115.996094 274.59375 115.921875 274.007812 C 115.152344 267.777344 114.15625 261.585938 112.648438 255.484375 C 110.5625 247.015625 107.765625 238.773438 104.925781 230.527344 C 102.210938 222.652344 99.007812 214.988281 95.53125 207.445312 C 93.0625 202.085938 90.140625 196.929688 87.335938 191.730469 C 86.953125 191.015625 86.554688 189.953125 85.265625 190.054688 C 85.203125 191.183594 86.226562 191.957031 85.992188 193.105469 C 84.988281 192.617188 84.695312 191.664062 84.21875 190.886719 C 81.382812 186.265625 78.570312 181.628906 75.046875 177.480469 C 72.695312 174.714844 70.125 172.179688 67.050781 170.214844 C 65.261719 169.070312 64.976562 169.136719 63.714844 170.886719 C 62.21875 172.964844 61.558594 175.363281 61.144531 177.84375 C 60.195312 183.511719 60.382812 189.171875 61.433594 194.796875 C 64.109375 209.144531 69.992188 222.191406 78.070312 234.222656 C 87.753906 248.636719 98.871094 261.855469 112.007812 273.285156 C 113.101562 274.234375 114.140625 275.261719 115.640625 275.996094 Z M 58.585938 309.304688 C 59.09375 308.675781 58.851562 307.976562 58.75 307.335938 C 58.410156 305.214844 58.078125 303.089844 57.613281 300.996094 C 56.378906 295.425781 54.671875 290.046875 51.230469 285.363281 C 49.976562 283.652344 48.367188 282.398438 46.589844 281.34375 C 45.25 280.550781 44.699219 280.90625 44.808594 282.496094 C 44.882812 283.605469 45.074219 284.726562 45.382812 285.796875 C 47.765625 294.097656 51.875 301.5 57.269531 308.207031 C 57.605469 308.628906 57.859375 309.277344 58.585938 309.304688 Z M 51.074219 204.867188 C 51.824219 210.808594 54.140625 216.292969 56.167969 221.90625 C 58.203125 227.523438 60.960938 232.765625 63.839844 237.898438 C 68.09375 245.472656 72.8125 250.847656 75.292969 251.933594 C 64.5 237.34375 56.085938 222.003906 51.074219 204.867188 Z M 202.101562 8.742188 C 204.65625 10.308594 207.210938 11.875 209.765625 13.441406 C 207.976562 10.71875 205.304688 9.398438 202.101562 8.742188 Z M 217.1875 19.664062 C 217.328125 20.402344 217.585938 20.804688 218.25 20.992188 C 218.167969 20.355469 217.785156 20.046875 217.1875 19.664062 Z M 83.964844 186.601562 C 83.957031 186.316406 83.832031 186.078125 83.546875 186.058594 C 83.246094 186.035156 83.070312 186.273438 83.167969 186.546875 C 83.246094 186.773438 83.433594 187.074219 83.621094 187.113281 C 83.960938 187.191406 83.921875 186.828125 83.964844 186.601562 Z M 170.878906 27.613281 C 171.09375 27.644531 171.199219 27.546875 171.179688 27.332031 C 171.160156 27.105469 171.101562 26.878906 171.058594 26.65625 C 170.96875 26.746094 170.8125 26.832031 170.804688 26.929688 C 170.792969 27.160156 170.851562 27.390625 170.878906 27.613281 Z M 229.070312 29.476562 C 228.707031 29.472656 228.570312 29.679688 228.652344 29.921875 C 228.71875 30.121094 228.902344 30.328125 229.089844 30.421875 C 229.335938 30.554688 229.550781 30.40625 229.554688 30.117188 C 229.5625 29.765625 229.378906 29.53125 229.070312 29.476562 Z M 231.1875 32.828125 C 231.046875 32.886719 230.820312 32.910156 230.785156 33.003906 C 230.65625 33.378906 230.878906 33.667969 231.167969 33.859375 C 231.441406 34.042969 231.664062 33.878906 231.714844 33.589844 C 231.789062 33.1875 231.523438 32.976562 231.1875 32.828125 Z M 81.347656 182.722656 C 81.414062 182.71875 81.480469 182.714844 81.546875 182.710938 C 81.472656 182.597656 81.40625 182.472656 81.320312 182.371094 C 81.292969 182.34375 81.199219 182.371094 81.136719 182.371094 C 81.207031 182.488281 81.277344 182.605469 81.347656 182.722656 Z M 171.324219 24.507812 C 171.507812 24.566406 171.644531 24.496094 171.640625 24.296875 C 171.636719 24.070312 171.578125 23.84375 171.546875 23.617188 C 171.441406 23.699219 171.296875 23.761719 171.246094 23.867188 C 171.144531 24.082031 171.128906 24.316406 171.324219 24.507812 Z M 232.914062 36.109375 C 233.03125 35.820312 232.855469 35.636719 232.644531 35.527344 C 232.546875 35.472656 232.292969 35.519531 232.253906 35.59375 C 232.132812 35.839844 232.242188 36.078125 232.484375 36.179688 C 232.601562 36.226562 232.769531 36.136719 232.914062 36.109375 Z M 235.0625 40.03125 C 234.863281 40.039062 234.738281 40.160156 234.800781 40.355469 C 234.847656 40.492188 234.976562 40.664062 235.105469 40.699219 C 235.296875 40.75 235.441406 40.585938 235.378906 40.402344 C 235.328125 40.257812 235.171875 40.152344 235.0625 40.03125 Z M 51.820312 171.433594 C 51.917969 171.246094 51.875 171.046875 51.679688 171.039062 C 51.308594 171.015625 51.089844 171.289062 50.984375 171.605469 C 50.945312 171.722656 51.058594 172.015625 51.101562 172.015625 C 51.480469 172.011719 51.628906 171.691406 51.820312 171.433594 Z M 25.757812 282.527344 C 24.160156 285.527344 23.828125 288.714844 24.402344 292.042969 C 24.933594 295.113281 26.035156 297.992188 27.269531 300.835938 C 30.089844 307.339844 34.449219 312.703125 39.621094 317.453125 C 40.945312 318.671875 40.992188 318.625 42.808594 318.308594 C 42.277344 317.804688 41.789062 317.324219 41.289062 316.859375 C 33.96875 310.046875 29.597656 301.496094 26.84375 292.042969 C 25.5 287.429688 26.0625 283.15625 29.867188 279.726562 C 28.136719 279.710938 26.789062 280.597656 25.757812 282.527344 Z M 220.144531 153.949219 C 219.773438 152.671875 218.855469 151.738281 218.082031 150.726562 C 213.191406 144.300781 208.199219 137.964844 203.6875 131.246094 C 195.734375 119.394531 187.871094 107.5 181.289062 94.804688 C 181.070312 94.390625 180.984375 93.699219 180.03125 93.550781 C 180.300781 94.125 180.445312 94.425781 180.585938 94.730469 C 184.230469 102.535156 188.90625 109.761719 193.148438 117.226562 C 199.113281 127.726562 206.0625 137.5625 213.644531 146.945312 C 215.582031 149.34375 217.328125 151.921875 219.710938 153.941406 C 219.855469 153.941406 220 153.945312 220.144531 153.949219 Z M 230.53125 24.285156 C 229.980469 22.292969 229.214844 21.109375 227.929688 20.265625 C 227.8125 20.378906 227.691406 20.488281 227.570312 20.601562 C 228.175781 21.90625 228.902344 23.113281 230.53125 24.285156 Z M 222.65625 156.960938 C 221.917969 155.390625 221.058594 154.644531 220.144531 153.949219 C 220 153.945312 219.855469 153.941406 219.710938 153.941406 C 220.3125 155.070312 220.980469 156.128906 222.65625 156.960938 Z M 231.503906 26.679688 C 231.636719 26.863281 231.800781 27.132812 231.976562 27.152344 C 232.257812 27.183594 232.371094 26.878906 232.246094 26.660156 C 232.144531 26.488281 231.886719 26.40625 231.75 26.316406 C 231.464844 26.382812 231.386719 26.515625 231.503906 26.679688 Z M 73.96875 261.609375 C 73.902344 261.523438 73.695312 261.550781 73.550781 261.53125 C 73.625 261.742188 73.671875 261.980469 73.796875 262.160156 C 73.855469 262.242188 74.070312 262.21875 74.289062 262.257812 C 74.175781 262.011719 74.109375 261.777344 73.96875 261.609375 Z M 76.757812 265.339844 C 76.816406 265.492188 76.835938 265.679688 76.9375 265.789062 C 77.089844 265.960938 77.273438 265.898438 77.242188 265.710938 C 77.21875 265.570312 77.058594 265.449219 76.957031 265.320312 C 76.890625 265.328125 76.824219 265.332031 76.757812 265.339844 Z M 170.183594 43.417969 C 170.183594 42.519531 170.1875 41.617188 170.1875 40.71875 C 170.1875 40.71875 170.242188 40.726562 170.242188 40.726562 C 169.710938 41.621094 170.050781 42.519531 170.230469 43.414062 Z M 170.183594 43.417969 " fill-opacity="1" fill-rule="nonzero"/></svg>