<svg xmlns="http://www.w3.org/2000/svg" xmlns:xlink="http://www.w3.org/1999/xlink" width="500" zoomAndPan="magnify" viewBox="0 0 375 374.999991" height="500" preserveAspectRatio="xMidYMid meet" version="1.0"><defs><clipPath id="id1"><path d="M 51.234375 92 L 220.734375 92 L 220.734375 187.140625 L 51.234375 187.140625 Z M 51.234375 92 " clip-rule="nonzero"/></clipPath></defs><path fill="rgb(21.179199%, 27.059937%, 30.979919%)" d="M 372.667969 264.296875 C 370.925781 261.9375 369.144531 259.601562 367.371094 257.257812 C 367.238281 252.277344 367.175781 247.289062 367.28125 242.273438 C 367.574219 228.941406 368.222656 215.613281 367.972656 202.273438 C 367.734375 189.4375 366.679688 176.636719 366.21875 163.808594 C 366.214844 163.699219 366.214844 163.589844 366.210938 163.484375 C 367.910156 162.484375 368.953125 160.40625 367.652344 158.222656 C 367.132812 157.355469 366.589844 156.503906 366.058594 155.640625 C 366.023438 150.257812 366.140625 144.875 366.351562 139.496094 C 368.59375 138.824219 370.332031 136.414062 368.722656 133.859375 C 368.09375 132.863281 367.421875 131.902344 366.769531 130.921875 C 366.839844 129.679688 366.898438 128.433594 366.976562 127.191406 C 367.304688 122.144531 367.707031 117.101562 368.085938 112.054688 C 368.34375 108.589844 369.136719 105.308594 366.992188 102.359375 C 362.300781 95.894531 356.773438 89.96875 351.480469 84 C 332.84375 62.984375 314.175781 41.773438 294.398438 21.820312 C 293.699219 21.113281 292.921875 20.769531 292.152344 20.683594 C 291.902344 20.582031 291.652344 20.484375 291.375 20.410156 C 283.132812 18.222656 273.789062 18.292969 265.339844 17.820312 C 250.421875 16.980469 235.539062 16.847656 220.605469 17.148438 C 204.890625 17.46875 189.191406 17.363281 173.484375 18.105469 C 156.800781 18.898438 140.3125 18.921875 123.625 18.226562 C 107.246094 17.546875 90.851562 17.976562 74.460938 18.027344 C 58.75 18.078125 43.285156 19.011719 27.710938 21.113281 C 22 21.882812 16.292969 22.675781 10.570312 23.324219 C 9.355469 22.914062 7.890625 23.082031 6.753906 23.8125 C 3.148438 24.511719 2.4375 29.234375 4.695312 30.988281 C 3.707031 46.039062 3.359375 61.117188 2.703125 76.183594 C 1.992188 92.617188 0.84375 109.03125 0.519531 125.480469 C 0.195312 141.925781 0.703125 158.375 1.007812 174.816406 C 1.316406 191.261719 1.167969 207.71875 1.761719 224.160156 C 2.4375 242.699219 4.484375 261.136719 5.9375 279.621094 C 6.089844 281.515625 7.292969 283.136719 9.148438 283.488281 C 23.152344 295.800781 36.707031 308.605469 50.582031 321.0625 C 61.199219 330.589844 71.742188 340.738281 83.53125 348.835938 C 86.089844 350.589844 88.523438 351.949219 91.636719 352.238281 C 96.097656 352.65625 100.628906 352.613281 105.101562 352.714844 C 122.746094 353.117188 140.300781 353.46875 157.898438 354.953125 C 168.277344 355.828125 178.636719 356.140625 189.039062 356.5625 C 199.128906 356.976562 209.207031 357.65625 219.300781 357.980469 C 239.308594 358.628906 259.152344 355.46875 279.152344 356.371094 C 278.914062 356.761719 278.664062 357.148438 278.421875 357.539062 C 276.101562 361.3125 281.566406 365.671875 284.617188 362.324219 C 286.21875 360.570312 287.785156 358.785156 289.363281 357.011719 C 295.785156 357.5 302.203125 358.070312 308.636719 358.410156 C 317.773438 358.890625 326.964844 358.699219 336.105469 358.363281 C 337.511719 358.3125 338.917969 358.226562 340.320312 358.160156 C 341.433594 358.582031 342.777344 358.527344 343.898438 357.988281 C 347.5625 357.785156 351.222656 357.53125 354.871094 357.15625 C 356.105469 357.027344 357.65625 356.988281 359.160156 356.765625 C 361.382812 357.574219 364.632812 356.394531 364.980469 353.246094 C 366.191406 342.339844 367.777344 331.480469 368.707031 320.539062 C 369.792969 307.71875 369.714844 295.082031 368.722656 282.257812 C 368.410156 278.1875 368.144531 274.132812 367.910156 270.078125 C 370.945312 271.441406 374.800781 267.1875 372.667969 264.296875 Z M 199.703125 349.179688 C 200.171875 348.984375 200.640625 348.679688 201.085938 348.238281 C 205.058594 344.304688 208.984375 340.308594 212.761719 336.179688 C 211.585938 337.875 210.394531 339.5625 209.269531 341.292969 C 206.789062 345.117188 212.3125 349.15625 215.464844 346.078125 C 219.675781 341.964844 223.585938 337.574219 227.1875 332.953125 C 225.894531 335.230469 224.613281 337.507812 223.371094 339.8125 C 222.871094 340.742188 222.851562 341.816406 223.148438 342.804688 C 221.960938 345.234375 220.796875 347.675781 219.644531 350.117188 C 212.992188 349.917969 206.34375 349.527344 199.703125 349.179688 Z M 84.113281 294.484375 C 79.910156 299.539062 74.609375 303.421875 68.613281 305.90625 C 73.464844 303.003906 77.648438 299.25 81.097656 294.445312 C 82.816406 292.054688 80.882812 289.355469 78.46875 288.726562 C 77.179688 286.941406 74.574219 286.09375 72.566406 288.128906 C 71.460938 289.25 70.300781 290.3125 69.167969 291.402344 C 68.328125 291.832031 67.535156 292.316406 66.742188 292.816406 C 65.816406 290.714844 63.328125 289.183594 61.171875 290.8125 C 60.902344 291.015625 60.652344 291.238281 60.386719 291.445312 C 60.382812 291.441406 60.378906 291.4375 60.375 291.429688 C 60.320312 291.476562 60.277344 291.527344 60.222656 291.574219 C 58.449219 292.960938 56.722656 294.410156 55.015625 295.882812 C 55.546875 294.726562 56.15625 293.613281 56.875 292.570312 C 58.992188 289.511719 56.023438 286.699219 53.101562 286.898438 C 53.386719 285.683594 53.003906 284.472656 52.253906 283.539062 C 67.535156 283.679688 82.679688 285.28125 97.933594 285.96875 C 98.824219 286.007812 99.71875 286.011719 100.613281 286.046875 C 100.566406 286.097656 100.515625 286.132812 100.46875 286.1875 C 98.464844 288.523438 96.523438 290.898438 94.613281 293.296875 C 96.828125 289.011719 90.523438 285.734375 87.648438 289.625 C 86.457031 291.238281 85.292969 292.867188 84.113281 294.484375 Z M 41.042969 289.785156 C 40.53125 288.933594 39.753906 288.265625 38.789062 288.109375 C 34.777344 287.453125 30.753906 286.894531 26.734375 286.28125 C 26.765625 286.203125 26.804688 286.144531 26.851562 286.113281 C 27.84375 285.425781 28.359375 284.503906 28.535156 283.546875 C 34.417969 283.519531 40.304688 283.519531 46.191406 283.527344 C 44.492188 285.589844 42.808594 287.726562 41.042969 289.785156 Z M 41.839844 302.117188 C 43.003906 301.980469 44.109375 301.707031 45.183594 301.371094 C 44.96875 302.589844 44.800781 303.808594 44.671875 305.023438 C 43.609375 304.046875 42.546875 303.074219 41.480469 302.097656 C 41.605469 302.097656 41.710938 302.132812 41.839844 302.117188 Z M 53.394531 311.171875 C 53.34375 311.371094 53.261719 311.554688 53.214844 311.757812 C 53.144531 312.0625 53.121094 312.382812 53.128906 312.707031 C 52.464844 312.105469 51.800781 311.507812 51.140625 310.90625 C 51.832031 311.199219 52.597656 311.316406 53.394531 311.171875 Z M 117.117188 286.382812 C 117.703125 286.386719 118.289062 286.394531 118.875 286.394531 C 118.171875 287.257812 117.460938 288.113281 116.777344 288.988281 C 117.207031 288.101562 117.28125 287.203125 117.117188 286.382812 Z M 106.945312 288.011719 C 106.734375 287.332031 106.351562 286.710938 105.855469 286.203125 C 106.773438 286.226562 107.6875 286.265625 108.601562 286.285156 C 108.046875 286.855469 107.492188 287.429688 106.945312 288.011719 Z M 73.308594 325.207031 C 73.015625 325.742188 72.710938 326.269531 72.421875 326.8125 C 71.957031 327.683594 71.878906 328.628906 72.074219 329.511719 C 71.230469 328.785156 70.375 328.078125 69.539062 327.34375 C 70.824219 326.675781 72.058594 325.933594 73.308594 325.207031 Z M 77.816406 332.210938 C 78.382812 331.839844 78.917969 331.429688 79.480469 331.050781 C 79.21875 331.699219 78.925781 332.328125 78.675781 332.980469 C 78.390625 333.710938 78.351562 334.386719 78.492188 334.992188 C 77.640625 334.28125 76.808594 333.546875 75.960938 332.832031 C 76.566406 332.808594 77.195312 332.621094 77.816406 332.210938 Z M 127.417969 288.269531 C 127.855469 287.664062 128.035156 287.027344 128.042969 286.40625 C 130.359375 286.402344 132.675781 286.398438 134.988281 286.390625 C 127.460938 295.175781 119.394531 303.480469 111.929688 312.320312 C 110.15625 314.421875 108.390625 316.535156 106.617188 318.640625 C 109.449219 313.492188 112.507812 308.464844 115.804688 303.605469 C 119.804688 298.59375 123.683594 293.484375 127.417969 288.269531 Z M 142.53125 289.628906 C 143.285156 288.554688 143.296875 287.402344 142.875 286.394531 C 143.757812 286.394531 144.644531 286.390625 145.527344 286.394531 C 144.527344 287.492188 143.511719 288.578125 142.503906 289.667969 C 142.511719 289.65625 142.523438 289.640625 142.53125 289.628906 Z M 288.136719 26.480469 C 288.140625 26.523438 288.15625 26.578125 288.167969 26.632812 C 288.140625 26.570312 288.132812 26.511719 288.125 26.453125 C 288.128906 26.460938 288.132812 26.46875 288.136719 26.480469 Z M 355.863281 179.90625 C 338.976562 154.839844 320.804688 130.511719 301.199219 107.488281 C 300.769531 100.488281 300.277344 93.492188 299.832031 86.496094 C 307.558594 96.628906 316.953125 105.570312 325.46875 114.984375 C 337.554688 128.355469 348.636719 142.59375 358.179688 157.890625 C 358.367188 170.164062 359.394531 182.40625 359.863281 194.671875 C 360.039062 199.265625 360.078125 203.859375 360.074219 208.453125 C 359.960938 208.429688 359.847656 208.425781 359.734375 208.414062 C 341.210938 187.902344 323.824219 166.328125 307.699219 143.894531 C 306.371094 142.046875 304.25 141.847656 302.59375 142.554688 C 302.433594 135.21875 302.226562 127.882812 301.90625 120.554688 C 318.683594 140.839844 334.351562 162.074219 349.050781 183.894531 C 351.875 188.085938 358.710938 184.136719 355.863281 179.90625 Z M 359.535156 259.882812 C 359.640625 264.425781 359.808594 268.964844 360.152344 273.507812 C 360.921875 283.722656 361.601562 293.808594 361.570312 303.960938 C 351.355469 294.078125 341.449219 283.847656 332.636719 272.679688 C 323.1875 260.710938 314.925781 247.824219 307.289062 234.636719 C 306.859375 233.894531 306.304688 233.410156 305.695312 233.105469 C 305.644531 228.121094 305.546875 223.140625 305.320312 218.167969 C 305.296875 217.660156 305.269531 217.152344 305.242188 216.640625 C 320.707031 238.714844 336.074219 260.855469 351.578125 282.898438 C 354.480469 287.023438 361.324219 283.082031 358.390625 278.914062 C 341.160156 254.414062 324.109375 229.785156 306.894531 205.277344 C 306.265625 204.378906 305.441406 203.878906 304.578125 203.667969 C 304.292969 198.503906 304.023438 193.339844 303.773438 188.175781 C 313.785156 200.636719 323.421875 213.390625 333.214844 226.023438 C 341.976562 237.320312 350.886719 248.503906 359.535156 259.882812 Z M 325.324219 304.21875 C 330.371094 310.699219 335.421875 317.179688 340.617188 323.542969 C 343.695312 327.316406 351.539062 338.960938 356.589844 330.84375 C 357.335938 329.648438 357.277344 328.0625 356.589844 326.859375 C 356.484375 326.675781 356.378906 326.488281 356.269531 326.300781 C 355.191406 324.410156 353.324219 324.066406 351.742188 324.632812 C 351.289062 324.003906 350.710938 323.421875 350.21875 322.832031 C 349.136719 321.539062 348.0625 320.242188 346.992188 318.9375 C 344.722656 316.167969 342.484375 313.378906 340.257812 310.570312 C 335.9375 305.125 331.683594 299.628906 327.40625 294.148438 C 319.917969 284.539062 312.472656 274.894531 305.292969 265.050781 C 305.332031 263.847656 305.375 262.644531 305.40625 261.441406 C 305.527344 256.738281 305.613281 252.027344 305.675781 247.316406 C 312.019531 257.671875 318.824219 267.726562 326.308594 277.308594 C 334.144531 287.339844 342.863281 296.609375 351.910156 305.550781 C 351.914062 305.585938 351.910156 305.617188 351.917969 305.652344 C 352.742188 310.023438 356.742188 312.320312 360.863281 312.738281 C 361.035156 312.753906 361.179688 312.707031 361.34375 312.699219 C 361.285156 313.917969 361.230469 315.132812 361.144531 316.355469 C 360.523438 325.105469 359.433594 333.800781 358.363281 342.503906 C 355.191406 339.160156 351.910156 335.917969 348.617188 332.6875 C 348.453125 332.496094 348.269531 332.316406 348.070312 332.152344 C 345.945312 330.070312 343.820312 327.988281 341.726562 325.878906 C 334.296875 318.390625 327.015625 310.726562 319.867188 302.972656 C 313.871094 296.476562 308.191406 289.703125 303.667969 282.117188 C 304.34375 280.730469 304.566406 279.035156 304.664062 277.390625 C 311.445312 286.414062 318.390625 295.3125 325.324219 304.21875 Z M 228.632812 315.839844 C 229.101562 315.09375 229.5625 314.34375 230.015625 313.585938 C 230.800781 312.597656 231.601562 311.617188 232.382812 310.625 C 231.929688 311.449219 231.488281 312.28125 231.019531 313.097656 C 230.214844 314.003906 229.425781 314.921875 228.632812 315.839844 Z M 299.015625 295.140625 C 298.605469 295.578125 298.203125 296.027344 297.792969 296.464844 C 298.464844 294.503906 299.101562 292.527344 299.695312 290.53125 C 300.457031 291.671875 301.214844 292.816406 302.023438 293.929688 C 301.019531 293.816406 299.953125 294.140625 299.015625 295.140625 Z M 263.660156 285.9375 C 263.605469 285.875 263.574219 285.792969 263.519531 285.734375 C 263.632812 285.734375 263.75 285.734375 263.867188 285.734375 C 263.796875 285.800781 263.730469 285.871094 263.660156 285.9375 Z M 248.640625 293.8125 C 249.539062 291.335938 250.394531 288.84375 251.164062 286.324219 C 251.21875 286.15625 251.242188 285.988281 251.265625 285.824219 C 253.332031 285.796875 255.398438 285.777344 257.464844 285.765625 C 254.367188 288.292969 251.453125 291 248.640625 293.8125 Z M 230.882812 287.765625 C 230.707031 287.261719 230.4375 286.792969 230.113281 286.378906 C 230.816406 286.355469 231.519531 286.335938 232.21875 286.3125 C 231.773438 286.796875 231.328125 287.28125 230.882812 287.765625 Z M 187.324219 338.464844 C 192.203125 331.386719 196.871094 324.167969 201.847656 317.160156 C 202.558594 316.15625 203.277344 315.160156 203.992188 314.160156 C 206.746094 311.246094 209.652344 308.496094 212.652344 305.84375 C 211.136719 308.199219 209.582031 310.535156 207.992188 312.847656 C 200.785156 321.125 194.332031 330.019531 187.324219 338.464844 Z M 222.472656 287.746094 C 222.730469 287.359375 222.992188 286.980469 223.246094 286.59375 C 223.496094 286.585938 223.75 286.578125 224 286.570312 C 223.492188 286.960938 222.984375 287.351562 222.472656 287.746094 Z M 211.058594 287.261719 C 211.039062 287.136719 211.019531 287.019531 210.992188 286.894531 C 211.140625 286.894531 211.292969 286.890625 211.445312 286.886719 C 211.316406 287.011719 211.183594 287.132812 211.058594 287.261719 Z M 198.480469 288.59375 C 198.304688 287.996094 198.003906 287.453125 197.617188 286.996094 C 198.675781 287.003906 199.734375 286.988281 200.792969 286.988281 C 200.011719 287.507812 199.246094 288.050781 198.480469 288.59375 Z M 154.976562 306.167969 C 156.246094 304.996094 157.53125 303.84375 158.828125 302.703125 C 156.949219 304.703125 155.082031 306.714844 153.214844 308.71875 C 153.804688 307.871094 154.394531 307.023438 154.976562 306.167969 Z M 168.480469 304.042969 C 168.6875 303.824219 168.894531 303.609375 169.105469 303.394531 C 168.96875 303.621094 168.832031 303.851562 168.695312 304.078125 C 168.445312 304.296875 168.207031 304.523438 167.957031 304.742188 C 168.132812 304.507812 168.304688 304.273438 168.480469 304.042969 Z M 184.476562 291.859375 C 185.347656 290.199219 186.222656 288.539062 187.097656 286.882812 C 188.753906 286.902344 190.40625 286.929688 192.058594 286.949219 C 189.492188 288.523438 186.957031 290.15625 184.476562 291.859375 Z M 124.863281 343.308594 C 124.808594 343.984375 124.964844 344.636719 125.285156 345.222656 C 124.511719 345.207031 123.738281 345.191406 122.960938 345.179688 C 123.59375 344.550781 124.242188 343.941406 124.863281 343.308594 Z M 182.261719 345.542969 C 182.15625 346.648438 182.558594 347.714844 183.242188 348.535156 C 182.210938 348.503906 181.179688 348.460938 180.148438 348.421875 C 180.871094 347.476562 181.554688 346.503906 182.261719 345.542969 Z M 231.632812 349.71875 C 231.839844 349.886719 232.058594 350.03125 232.289062 350.15625 C 231.910156 350.167969 231.527344 350.175781 231.148438 350.183594 C 231.308594 350.027344 231.472656 349.875 231.632812 349.71875 Z M 236.699219 349.414062 C 236.816406 349.277344 236.925781 349.136719 237.042969 349.003906 C 237.214844 349.347656 237.433594 349.667969 237.691406 349.953125 C 237.121094 349.984375 236.550781 350.027344 235.976562 350.050781 C 236.226562 349.878906 236.472656 349.675781 236.699219 349.414062 Z M 247.121094 346.292969 C 246.773438 347.34375 246.914062 348.414062 247.371094 349.332031 C 246.246094 349.414062 245.121094 349.496094 244 349.574219 C 245.054688 348.496094 246.082031 347.386719 247.121094 346.292969 Z M 276.835938 345.832031 C 276.335938 346.679688 275.839844 347.527344 275.339844 348.375 C 275.183594 348.367188 275.027344 348.363281 274.871094 348.359375 C 275.527344 347.519531 276.1875 346.679688 276.835938 345.832031 Z M 331.984375 336.203125 C 332.15625 336.015625 332.308594 335.988281 332.449219 336.054688 C 332.230469 336.101562 332.035156 336.148438 331.984375 336.203125 Z M 333.410156 335.847656 C 333.394531 335.851562 333.359375 335.859375 333.335938 335.867188 C 332.832031 334.9375 331.945312 334.339844 330.890625 334.144531 C 330.859375 333.628906 330.824219 333.113281 330.773438 332.597656 C 330.582031 330.738281 329.171875 329.207031 327.53125 328.769531 C 327.671875 328.5 327.820312 328.230469 327.960938 327.960938 C 330.089844 323.941406 325.125 320.191406 321.765625 323.175781 C 320.210938 324.558594 318.679688 325.96875 317.148438 327.375 C 318.140625 325.546875 319.128906 323.710938 320.171875 321.910156 C 322.378906 318.113281 317.0625 313.746094 313.980469 317.128906 C 312.855469 318.359375 311.761719 319.613281 310.648438 320.855469 C 312.074219 318.566406 313.519531 316.296875 314.933594 314 C 317.328125 310.105469 311.949219 306.191406 308.738281 309.21875 C 307.730469 310.167969 306.792969 311.1875 305.804688 312.15625 C 306.589844 310.824219 307.371094 309.492188 308.15625 308.160156 C 309.964844 305.085938 306.925781 301.800781 304.023438 302.273438 C 304.414062 301.488281 304.824219 300.714844 305.207031 299.925781 C 305.421875 299.492188 305.535156 299.050781 305.585938 298.613281 C 312.394531 307.109375 320.222656 314.875 327.652344 322.714844 C 330.972656 326.214844 334.355469 329.648438 337.761719 333.058594 C 337.285156 333.246094 336.828125 333.496094 336.4375 333.882812 C 335.574219 334.746094 334.5625 335.421875 333.410156 335.847656 Z M 349.15625 344.367188 C 350.816406 346.011719 352.492188 347.695312 353.980469 349.316406 C 351.859375 349.527344 349.734375 349.730469 347.609375 349.878906 C 348.105469 348.035156 348.613281 346.195312 349.15625 344.367188 Z M 339.578125 221.449219 C 328.453125 207.128906 317.582031 192.609375 306.117188 178.554688 C 305.285156 177.527344 304.289062 177.160156 303.332031 177.230469 C 303.253906 174.871094 303.160156 172.511719 303.113281 170.144531 C 302.984375 163.566406 302.878906 156.984375 302.757812 150.40625 C 319.875 174.027344 338.25 196.804688 357.976562 218.292969 C 358.582031 218.949219 359.269531 219.308594 359.964844 219.441406 C 359.792969 228.597656 359.523438 237.746094 359.445312 246.898438 C 352.851562 238.394531 346.179688 229.949219 339.578125 221.449219 Z M 332.636719 111.171875 C 321.027344 98.171875 307.40625 86.332031 298.972656 70.894531 C 298.859375 68.464844 298.746094 66.039062 298.640625 63.609375 C 315.679688 89.050781 341.261719 107.890625 358.753906 133.121094 C 358.5625 136.648438 358.417969 140.179688 358.3125 143.710938 C 350.484375 132.316406 341.84375 121.484375 332.636719 111.171875 Z M 358.125 103.742188 C 358.859375 104.640625 359.628906 105.582031 360.183594 106.34375 C 360.269531 106.464844 360.378906 106.667969 360.5 106.867188 C 360.4375 107.339844 360.484375 108.113281 360.460938 108.425781 C 360.171875 112.582031 359.835938 116.734375 359.53125 120.886719 C 351.226562 110.242188 341.804688 100.492188 332.355469 90.84375 C 319.671875 77.886719 307.15625 64.617188 298.75 48.375 C 298.503906 47.902344 298.203125 47.542969 297.875 47.246094 C 297.679688 43.523438 297.457031 39.800781 297.191406 36.082031 C 311.554688 51.09375 325.367188 66.679688 339.242188 82.121094 C 345.632812 89.238281 352.070312 96.339844 358.125 103.742188 Z M 50.535156 26.546875 C 65.886719 25.53125 81.304688 26.054688 96.675781 25.839844 C 112.761719 25.617188 128.757812 26.675781 144.828125 26.84375 C 160.550781 27.007812 176.222656 25.558594 191.933594 25.34375 C 220.375 24.953125 248.863281 24.136719 277.246094 26.535156 C 280.769531 26.835938 284.347656 27.117188 287.703125 27.710938 C 287.964844 27.757812 288.226562 27.808594 288.492188 27.863281 C 290.160156 35.761719 289.902344 45.984375 290.304688 54.554688 C 290.507812 58.90625 290.734375 63.257812 290.972656 67.605469 C 290.136719 68.71875 289.804688 70.21875 290.574219 71.800781 C 290.789062 72.242188 291.050781 72.652344 291.273438 73.089844 C 291.808594 82.625 292.371094 92.15625 292.902344 101.6875 C 290.765625 102.742188 289.394531 105.808594 291.457031 108.183594 C 292.101562 108.929688 292.730469 109.683594 293.371094 110.429688 C 293.996094 122.414062 294.515625 134.40625 294.769531 146.410156 C 295.109375 162.4375 295.175781 178.476562 296.070312 194.484375 C 296.898438 209.328125 297.78125 224.089844 297.777344 238.964844 C 297.777344 245.675781 297.757812 252.40625 297.609375 259.132812 C 295.285156 259.777344 293.523438 262.175781 295.300781 264.667969 C 295.96875 265.601562 296.660156 266.519531 297.335938 267.449219 C 297.238281 269.652344 297.140625 271.851562 296.992188 274.050781 C 296.929688 274.980469 296.839844 275.914062 296.75 276.847656 C 296.4375 276.992188 296.140625 277.167969 295.871094 277.382812 C 294.769531 277.453125 293.671875 277.53125 292.570312 277.570312 C 280.667969 278.003906 268.734375 277.851562 256.824219 277.902344 C 242.1875 277.964844 227.582031 278.789062 212.953125 279.070312 C 203.167969 279.261719 193.375 279.140625 183.585938 278.976562 C 182.515625 277.136719 180.132812 275.972656 178.183594 277.402344 C 177.527344 277.882812 176.878906 278.371094 176.222656 278.855469 C 172.867188 278.796875 169.507812 278.734375 166.152344 278.6875 C 149.921875 278.464844 133.691406 278.480469 117.464844 278.394531 C 102.136719 278.316406 86.984375 277.304688 71.703125 276.285156 C 57.09375 275.308594 42.421875 275.574219 27.785156 275.644531 C 23.019531 275.667969 18.257812 275.675781 13.492188 275.664062 C 12.246094 260.664062 10.6875 245.683594 9.929688 230.644531 C 9.101562 214.210938 9.234375 197.753906 9.003906 181.308594 C 8.777344 164.863281 8.203125 148.417969 8.324219 131.96875 C 8.445312 115.515625 9.484375 99.097656 10.289062 82.671875 C 11.132812 65.460938 11.457031 48.226562 12.582031 31.035156 C 25.238281 29.542969 37.804688 27.386719 50.535156 26.546875 Z M 57.527344 316.691406 C 61.910156 316.21875 66.121094 315.222656 70.101562 313.738281 C 68.109375 316.480469 66.136719 319.230469 64.121094 321.957031 C 64.023438 322.085938 63.957031 322.21875 63.878906 322.351562 C 62.222656 320.878906 60.558594 319.414062 58.90625 317.9375 C 58.441406 317.523438 57.988281 317.105469 57.527344 316.691406 Z M 81.828125 337.75 C 83.039062 337.949219 84.328125 337.695312 85.265625 336.820312 C 87.597656 334.648438 89.878906 332.421875 92.132812 330.171875 C 90.398438 334.007812 88.746094 337.882812 87.214844 341.8125 C 85.359375 340.542969 83.574219 339.167969 81.828125 337.75 Z M 100.683594 344.703125 C 100.691406 344.699219 100.699219 344.695312 100.703125 344.6875 C 104.121094 340.90625 107.734375 337.320312 111.378906 333.761719 C 110.988281 334.320312 110.574219 334.863281 110.1875 335.421875 C 108.210938 338.269531 111.410156 341.734375 114.234375 341.425781 C 113.398438 342.605469 112.535156 343.769531 111.71875 344.964844 C 108.039062 344.890625 104.363281 344.804688 100.683594 344.703125 Z M 132.628906 345.398438 C 135.46875 342.425781 138.292969 339.445312 141.105469 336.445312 C 140.511719 337.3125 139.917969 338.179688 139.328125 339.042969 C 136.761719 342.800781 142.414062 346.945312 145.523438 343.828125 C 148.054688 341.289062 150.570312 338.734375 153.058594 336.160156 C 152.84375 336.53125 152.609375 336.886719 152.402344 337.261719 C 150.328125 341.011719 155.683594 345.667969 158.597656 342.046875 C 165.035156 334.042969 171.375 325.964844 177.710938 317.886719 C 178.898438 316.65625 180.089844 315.429688 181.28125 314.203125 C 183.808594 311.605469 186.390625 309.054688 189.035156 306.574219 C 186.273438 310.199219 183.480469 313.804688 180.691406 317.40625 C 176.363281 323 172.265625 328.777344 167.972656 334.394531 C 164.414062 338.570312 160.882812 342.769531 157.375 347 C 152.167969 346.554688 146.960938 346.097656 141.742188 345.78125 C 138.707031 345.597656 135.667969 345.488281 132.628906 345.398438 Z M 167.296875 347.78125 C 169.519531 345.167969 171.652344 342.488281 173.734375 339.761719 C 176.269531 336.789062 178.832031 333.839844 181.417969 330.914062 C 178.464844 335.53125 175.660156 340.25 172.929688 344.992188 C 172.273438 346.132812 172.1875 347.191406 172.46875 348.085938 C 171.300781 348.023438 170.128906 347.976562 168.960938 347.902344 C 168.40625 347.867188 167.851562 347.816406 167.296875 347.78125 Z M 188.976562 348.726562 C 198.292969 339.160156 206.742188 328.566406 214.402344 317.445312 C 214.550781 317.277344 214.6875 317.097656 214.835938 316.929688 C 218.492188 312.832031 222.234375 308.808594 225.964844 304.78125 C 225.125 306.320312 224.261719 307.84375 223.363281 309.347656 C 222.476562 310.453125 221.601562 311.570312 220.703125 312.671875 C 212.445312 322.785156 203.792969 332.566406 195.507812 342.65625 C 193.554688 345.03125 194.734375 347.976562 196.785156 349.039062 C 194.183594 348.917969 191.578125 348.816406 188.976562 348.726562 Z M 255.015625 348.792969 C 258.636719 344.589844 262.253906 340.378906 265.792969 336.101562 C 264.492188 338 263.214844 339.90625 261.960938 341.832031 C 260.179688 344.574219 262.6875 347.609375 265.359375 347.761719 C 265.308594 347.835938 265.253906 347.902344 265.203125 347.972656 C 265.125 348.085938 265.078125 348.203125 265.015625 348.316406 C 262.488281 348.371094 259.960938 348.46875 257.425781 348.625 C 256.621094 348.675781 255.820312 348.738281 255.015625 348.792969 Z M 297.035156 348.320312 C 296.804688 348.769531 296.675781 349.226562 296.644531 349.679688 C 296.394531 349.660156 296.148438 349.640625 295.902344 349.621094 C 296.277344 349.1875 296.65625 348.753906 297.035156 348.320312 Z M 313.011719 350.699219 C 310.535156 350.625 308.058594 350.492188 305.585938 350.339844 C 306.980469 348.75 308.378906 347.167969 309.824219 345.632812 C 309.121094 349.125 313.515625 352.390625 316.394531 349.324219 C 318.15625 347.449219 319.933594 345.589844 321.707031 343.726562 C 321.492188 344.191406 321.253906 344.652344 320.980469 345.105469 C 319.328125 347.816406 321.226562 350.265625 323.585938 350.777344 C 320.058594 350.808594 316.53125 350.800781 313.011719 350.699219 Z M 325.378906 350.765625 C 326.273438 350.558594 327.132812 350.039062 327.789062 349.089844 C 328.917969 347.457031 329.835938 345.707031 330.773438 343.96875 C 331.257812 344.050781 331.757812 344.097656 332.273438 344.078125 C 333.792969 344.019531 335.3125 343.625 336.753906 343.011719 C 336.960938 343.839844 337.167969 344.667969 337.378906 345.496094 C 337.609375 346.390625 338.164062 347.070312 338.863281 347.554688 C 338.765625 348.492188 338.671875 349.429688 338.582031 350.367188 C 334.191406 350.558594 329.785156 350.699219 325.378906 350.765625 Z M 356.28125 351.980469 C 356.402344 352.144531 356.511719 352.347656 356.632812 352.535156 C 356.121094 352.6875 356.078125 352.425781 356.28125 351.980469 Z M 356.65625 352.574219 C 356.707031 352.648438 356.75 352.730469 356.804688 352.785156 C 357.285156 353.238281 356.386719 352.792969 356.65625 352.574219 Z M 356.65625 352.574219 " fill-opacity="1" fill-rule="nonzero"/><g clip-path="url(#id1)"><path fill="rgb(21.179199%, 27.059937%, 30.979919%)" d="M 189.679688 156.421875 C 188.824219 156.421875 188.058594 156.363281 187.304688 156.433594 C 185.648438 156.589844 184.273438 155.976562 183.003906 155.007812 C 182.84375 154.886719 182.65625 154.792969 182.441406 154.664062 C 182.335938 154.777344 182.222656 154.871094 182.144531 154.984375 C 178.667969 160.183594 175.140625 165.351562 171.738281 170.597656 C 169.058594 174.734375 166.554688 178.976562 163.941406 183.152344 C 163.347656 184.097656 162.625 184.960938 161.953125 185.859375 C 161.871094 185.96875 161.742188 186.039062 161.476562 186.0625 C 161.535156 185.835938 161.578125 185.601562 161.65625 185.382812 C 163.761719 179.421875 166.785156 173.925781 170.183594 168.621094 C 172.984375 164.25 175.953125 159.984375 179.160156 155.894531 C 179.757812 155.136719 180.414062 154.421875 181.089844 153.625 C 178.949219 151.953125 177.148438 149.929688 174.613281 148.726562 C 174.421875 149.039062 174.257812 149.3125 174.089844 149.582031 C 172.6875 151.835938 171.34375 154.128906 169.875 156.335938 C 165.371094 163.085938 160.789062 169.78125 156.300781 176.539062 C 154.195312 179.710938 152.230469 182.972656 150.199219 186.191406 C 150.042969 186.4375 149.890625 186.707031 149.675781 186.894531 C 149.519531 187.027344 149.222656 187.128906 149.050781 187.070312 C 148.878906 187.007812 148.660156 186.722656 148.671875 186.554688 C 148.703125 186.09375 148.773438 185.609375 148.96875 185.199219 C 149.890625 183.253906 150.832031 181.316406 151.816406 179.402344 C 155.148438 172.90625 159.058594 166.761719 163.378906 160.875 C 164.621094 159.1875 165.796875 157.453125 167.011719 155.746094 C 168.625 153.484375 170.414062 151.367188 172.421875 149.4375 C 172.847656 149.035156 173.246094 148.605469 173.648438 148.195312 C 171.125 146.335938 168.660156 144.515625 166.035156 142.582031 C 166 142.664062 165.953125 142.808594 165.878906 142.933594 C 163.285156 147.164062 160.207031 151.0625 157.347656 155.109375 C 152.175781 162.4375 147.015625 169.777344 141.824219 177.089844 C 140.269531 179.277344 138.625 181.402344 137.011719 183.550781 C 136.746094 183.902344 136.441406 184.234375 136.109375 184.519531 C 135.957031 184.648438 135.617188 184.753906 135.488281 184.671875 C 135.304688 184.554688 135.117188 184.246094 135.140625 184.039062 C 135.175781 183.640625 135.300781 183.222656 135.492188 182.871094 C 136.363281 181.265625 137.222656 179.648438 138.175781 178.089844 C 142.261719 171.421875 146.410156 164.796875 150.933594 158.410156 C 154.246094 153.742188 157.683594 149.164062 161.390625 144.792969 C 162.191406 143.851562 163.085938 142.984375 163.9375 142.082031 C 164.15625 141.851562 164.378906 141.621094 164.636719 141.351562 C 162.886719 139.660156 161.179688 138.007812 159.441406 136.332031 C 159.355469 136.410156 159.25 136.46875 159.191406 136.558594 C 156.320312 141.144531 152.707031 145.191406 149.601562 149.605469 C 146.085938 154.597656 142.625 159.632812 139.148438 164.652344 C 136.457031 168.53125 133.753906 172.402344 131.105469 176.3125 C 129.566406 178.582031 128.121094 180.914062 126.648438 183.230469 C 126.320312 183.742188 126.050781 184.292969 125.726562 184.871094 C 125.246094 184.527344 125.246094 184.105469 125.328125 183.71875 C 125.433594 183.199219 125.582031 182.683594 125.785156 182.199219 C 126.945312 179.414062 128.390625 176.769531 129.976562 174.214844 C 132.652344 169.90625 135.421875 165.652344 138.171875 161.386719 C 142.046875 155.382812 146.261719 149.621094 150.863281 144.144531 C 152.800781 141.839844 154.847656 139.632812 157.066406 137.589844 C 157.691406 137.011719 158.238281 136.351562 158.875 135.675781 C 158.742188 135.515625 158.566406 135.285156 158.371094 135.074219 C 155.453125 131.925781 152.824219 128.5625 150.652344 124.851562 C 150.074219 123.859375 149.351562 122.953125 148.722656 121.992188 C 146.605469 118.753906 145.542969 115.230469 145.875 111.34375 C 146.007812 109.757812 146.191406 108.179688 146.394531 106.601562 C 146.664062 104.535156 147.738281 102.871094 149.292969 101.578125 C 153.089844 98.414062 157.414062 96.492188 162.453125 96.765625 C 165.976562 96.957031 169.316406 97.980469 172.355469 99.796875 C 174.382812 101.007812 176.351562 102.3125 178.3125 103.628906 C 179.914062 104.707031 181.339844 105.988281 182.421875 107.621094 C 182.351562 107.816406 182.203125 108.027344 182.230469 108.203125 C 182.269531 108.4375 182.449219 108.648438 182.679688 109.066406 C 182.835938 108.796875 182.890625 108.65625 182.988281 108.546875 C 183.957031 107.4375 184.9375 106.339844 185.902344 105.222656 C 186.402344 104.644531 186.902344 104.0625 187.34375 103.4375 C 189.320312 100.644531 191.683594 98.226562 194.402344 96.152344 C 196.699219 94.40625 199.359375 93.527344 202.171875 93.148438 C 206.371094 92.585938 210.289062 93.445312 213.800781 95.855469 C 215.496094 97.019531 216.835938 98.558594 217.972656 100.269531 C 218.839844 101.574219 219.269531 103.039062 219.492188 104.570312 C 219.554688 104.992188 219.738281 105.328125 219.929688 105.695312 C 220.191406 106.199219 220.359375 106.792969 220.40625 107.359375 C 220.5625 109.140625 220.273438 110.890625 219.773438 112.597656 C 218.222656 117.90625 216.167969 123.011719 213.371094 127.796875 C 212.542969 129.21875 211.523438 130.53125 210.609375 131.90625 C 209.859375 133.027344 209.164062 134.183594 208.382812 135.285156 C 207.6875 136.265625 206.902344 137.179688 206.171875 138.132812 C 204.878906 139.816406 203.597656 141.503906 202.308594 143.191406 C 200.179688 145.984375 198.054688 148.777344 195.917969 151.5625 C 195.511719 152.089844 195.097656 152.625 194.621094 153.089844 C 193.652344 154.035156 193.082031 155.238281 192.351562 156.34375 C 189.960938 159.964844 187.542969 163.5625 185.125 167.164062 C 182.660156 170.839844 180.175781 174.5 177.714844 178.179688 C 177.257812 178.863281 176.894531 179.609375 176.480469 180.324219 C 176.390625 180.476562 176.308594 180.640625 176.183594 180.757812 C 175.820312 181.109375 175.367188 181.007812 175.226562 180.511719 C 175.152344 180.242188 175.132812 179.914062 175.210938 179.648438 C 175.386719 179.058594 175.566406 178.449219 175.867188 177.917969 C 177.378906 175.25 178.875 172.570312 180.480469 169.960938 C 183.207031 165.539062 186.128906 161.246094 189.257812 157.09375 C 189.40625 156.894531 189.523438 156.671875 189.679688 156.421875 Z M 152.765625 108.941406 L 152.777344 108.949219 C 152.886719 108.617188 152.960938 108.269531 153.105469 107.953125 C 153.457031 107.175781 153.875 106.429688 154.207031 105.644531 C 154.660156 104.585938 155.207031 103.59375 156.007812 102.753906 C 156.507812 102.234375 157.003906 101.710938 157.503906 101.1875 C 155.460938 102.191406 153.855469 103.640625 152.929688 105.726562 C 152.457031 106.796875 152.066406 107.90625 151.722656 109.027344 C 151.5625 109.550781 151.5625 110.132812 151.570312 110.691406 C 151.574219 111.21875 151.515625 111.726562 151.832031 112.273438 C 152.078125 112.691406 151.902344 113.351562 151.921875 113.90625 C 151.921875 113.957031 151.980469 114.003906 151.957031 113.96875 C 152.238281 112.597656 152.539062 111.191406 152.808594 109.78125 C 152.859375 109.511719 152.785156 109.222656 152.765625 108.941406 Z M 195.125 101.441406 C 195.0625 101.378906 194.949219 101.257812 194.945312 101.261719 C 194.308594 101.8125 193.609375 102.3125 193.253906 103.117188 C 193.074219 103.347656 192.90625 103.59375 192.707031 103.808594 C 191.101562 105.519531 189.800781 107.445312 188.625 109.46875 C 187.578125 111.273438 186.503906 113.058594 185.40625 114.910156 C 184.949219 114.839844 184.433594 114.746094 183.910156 114.679688 C 183.09375 114.578125 182.347656 114.367188 181.996094 113.535156 C 181.183594 113.8125 180.753906 113.683594 180.378906 112.929688 C 179.738281 111.640625 179.125 110.332031 178.566406 109.003906 C 178.28125 108.335938 177.945312 107.730469 177.390625 107.265625 C 175.925781 106.027344 174.4375 104.816406 172.976562 103.574219 C 171.257812 102.113281 169.277344 101.171875 167.109375 100.59375 C 166.367188 100.394531 165.621094 100.214844 164.882812 100 C 163.902344 99.71875 162.964844 99.867188 162.023438 100.207031 C 160.113281 100.894531 158.550781 102.074219 157.214844 103.570312 C 155.492188 105.496094 154.414062 107.773438 153.601562 110.191406 C 153.175781 111.460938 153.070312 112.792969 153.019531 114.105469 C 152.964844 115.476562 153.289062 116.820312 153.890625 118.09375 C 154.972656 120.386719 156.003906 122.703125 157.367188 124.851562 C 158.472656 126.601562 159.648438 128.296875 161.148438 129.738281 C 164.125 132.605469 167.148438 135.417969 170.355469 138.035156 C 172.339844 139.652344 174.175781 141.457031 176.097656 143.160156 C 177.371094 144.289062 178.707031 145.355469 179.96875 146.503906 C 182.210938 148.546875 184.417969 150.628906 186.636719 152.703125 C 186.917969 152.964844 187.175781 153.25 187.703125 153.140625 C 188.015625 152.800781 188.394531 152.429688 188.730469 152.023438 C 191.496094 148.71875 194.195312 145.363281 197.03125 142.121094 C 199.179688 139.664062 200.996094 136.992188 202.714844 134.238281 C 202.839844 134.035156 202.996094 133.695312 202.910156 133.539062 C 202.675781 133.113281 202.90625 132.890625 203.136719 132.613281 C 203.683594 131.957031 204.269531 131.324219 204.746094 130.617188 C 208.367188 125.230469 211.398438 119.558594 213.175781 113.273438 C 214.285156 109.355469 214.789062 105.441406 213.765625 101.421875 C 213.324219 99.6875 212.542969 98.183594 211.234375 96.945312 C 210.804688 96.535156 210.324219 96.320312 209.746094 96.261719 C 205.363281 95.800781 201.355469 96.808594 197.757812 99.351562 C 196.84375 99.996094 196 100.742188 195.125 101.441406 Z M 153.605469 120.460938 C 153.769531 121.789062 155.191406 124.480469 156.34375 125.617188 C 155.421875 123.886719 154.503906 122.152344 153.605469 120.460938 Z M 91.9375 104.003906 C 92.40625 102.691406 93.339844 101.6875 94.324219 100.773438 C 96.417969 98.828125 98.605469 96.996094 101.050781 95.492188 C 102.949219 94.328125 104.949219 93.421875 107.136719 92.929688 C 109.152344 92.476562 111.175781 92.125 113.246094 92.039062 C 116.582031 91.894531 119.617188 92.800781 122.390625 94.597656 C 123.230469 95.140625 124.058594 95.730469 124.796875 96.402344 C 128.28125 99.574219 129.429688 103.546875 128.621094 108.109375 C 128.0625 111.246094 126.652344 114.082031 125.261719 116.917969 C 124.453125 118.554688 123.648438 120.195312 122.890625 121.859375 C 121.621094 124.632812 120.0625 127.230469 118.269531 129.695312 C 115.859375 133.003906 113.257812 136.164062 111.015625 139.609375 C 108.652344 143.234375 105.859375 146.582031 103.230469 150.03125 C 97.699219 157.28125 92.175781 164.539062 86.589844 171.746094 C 85.257812 173.464844 83.683594 174.996094 82.203125 176.605469 C 81.828125 177.011719 81.320312 176.921875 81.179688 176.390625 C 81.082031 176.019531 81.117188 175.5625 81.246094 175.203125 C 81.40625 174.769531 81.71875 174.390625 81.984375 174.003906 C 83.21875 172.203125 84.492188 170.425781 85.691406 168.605469 C 89.425781 162.933594 93.398438 157.433594 97.546875 152.054688 C 97.789062 151.738281 98.03125 151.417969 98.269531 151.097656 C 98.230469 151.054688 98.1875 151.007812 98.148438 150.964844 C 97.757812 151.191406 97.386719 151.464844 96.972656 151.632812 C 96.542969 151.808594 96.070312 151.882812 95.574219 152.011719 C 95.585938 152.21875 95.59375 152.410156 95.605469 152.679688 C 95.398438 152.585938 95.226562 152.507812 95.039062 152.421875 C 94.988281 152.476562 94.914062 152.527344 94.875 152.597656 C 94.335938 153.527344 93.230469 153.859375 92.195312 153.269531 C 91.5625 152.914062 91.519531 152.960938 91.035156 153.570312 C 88.390625 156.898438 85.800781 160.269531 83.097656 163.546875 C 80.566406 166.621094 78.089844 169.746094 75.269531 172.574219 C 73.675781 174.171875 71.894531 175.527344 70 176.746094 C 69.753906 176.902344 69.484375 177.042969 69.203125 177.121094 C 68.707031 177.257812 68.367188 176.957031 68.472656 176.457031 C 68.53125 176.183594 68.679688 175.898438 68.855469 175.675781 C 69.300781 175.125 69.757812 174.582031 70.257812 174.082031 C 73.214844 171.09375 75.726562 167.738281 78.347656 164.464844 C 81.664062 160.320312 85.058594 156.234375 88.421875 152.121094 C 88.585938 151.917969 88.742188 151.703125 88.894531 151.507812 C 88.480469 150.921875 85.402344 148.832031 84.316406 148.402344 C 84.113281 148.601562 83.882812 148.816406 83.664062 149.046875 C 81.574219 151.257812 79.496094 153.476562 77.402344 155.679688 C 75.960938 157.199219 74.472656 158.675781 73.050781 160.214844 C 70.277344 163.21875 67.152344 165.835938 64.019531 168.441406 C 63.042969 169.25 62.054688 170.050781 61.050781 170.828125 C 60.730469 171.074219 60.351562 171.273438 59.964844 171.410156 C 59.480469 171.578125 59.019531 171.390625 58.800781 171.015625 C 58.554688 170.589844 58.691406 170.226562 59.007812 169.898438 C 60.957031 167.886719 62.882812 165.847656 64.867188 163.867188 C 67.054688 161.675781 69.300781 159.539062 71.515625 157.371094 C 74.808594 154.152344 78.101562 150.929688 81.390625 147.707031 C 81.636719 147.460938 81.871094 147.203125 82.164062 146.898438 C 81.898438 146.691406 81.703125 146.523438 81.488281 146.375 C 78.253906 144.136719 75.242188 141.628906 72.46875 138.832031 C 71.347656 137.699219 70.1875 136.605469 69.074219 135.46875 C 68.777344 135.160156 68.597656 134.742188 68.351562 134.382812 C 68.148438 134.097656 67.953125 133.800781 67.707031 133.554688 C 65.328125 131.171875 62.898438 128.84375 60.566406 126.417969 C 56.382812 122.0625 53.578125 116.945312 52.316406 111.027344 C 51.386719 106.667969 52.367188 102.667969 54.722656 98.953125 C 54.914062 98.652344 55.128906 98.371094 55.332031 98.082031 C 58.144531 94.09375 62.082031 92.316406 66.882812 92.292969 C 70.867188 92.273438 74.660156 93.09375 78.292969 94.78125 C 83.023438 96.976562 87.058594 99.996094 90.214844 104.15625 C 90.445312 104.460938 90.691406 104.753906 90.9375 105.050781 C 90.972656 105.09375 91.03125 105.117188 91.230469 105.25 C 91.335938 105.089844 91.457031 104.902344 91.582031 104.714844 C 91.582031 104.714844 91.570312 104.703125 91.570312 104.703125 C 91.570312 105 91.570312 105.296875 91.570312 105.59375 C 91.613281 105.601562 91.660156 105.605469 91.707031 105.613281 C 91.84375 105.3125 91.980469 105.007812 92.117188 104.703125 C 92.117188 104.703125 92.105469 104.722656 92.105469 104.722656 C 92.332031 104.410156 92.5625 104.101562 92.902344 103.640625 C 92.445312 103.808594 92.183594 103.902344 91.925781 104 C 91.925781 104 91.9375 104.003906 91.9375 104.003906 Z M 81.554688 139.804688 C 81.769531 139.953125 82.003906 140.082031 82.195312 140.257812 C 84.917969 142.746094 87.640625 145.226562 90.621094 147.414062 C 91.261719 147.882812 91.859375 148.417969 92.457031 148.945312 C 93.03125 149.453125 93.273438 149.507812 93.9375 149.140625 C 94.140625 149.027344 94.316406 148.863281 94.492188 148.707031 C 96.742188 146.699219 98.90625 144.609375 100.910156 142.359375 C 103.109375 139.890625 105.3125 137.425781 107.527344 134.972656 C 110.085938 132.140625 112.386719 129.113281 114.378906 125.863281 C 115.71875 123.675781 117.023438 121.464844 118.273438 119.226562 C 119.519531 116.996094 120.214844 114.507812 121.46875 112.265625 C 122.0625 111.199219 122.378906 109.96875 122.738281 108.789062 C 123.5625 106.09375 123.613281 103.394531 122.640625 100.71875 C 121.933594 98.777344 120.960938 97.023438 119.179688 95.824219 C 118.566406 95.410156 117.925781 95.195312 117.179688 95.28125 C 115.804688 95.441406 114.414062 95.53125 113.046875 95.75 C 110.027344 96.230469 107.203125 97.28125 104.707031 99.039062 C 100.429688 102.046875 96.566406 105.496094 93.800781 110.011719 C 93.445312 110.589844 93.074219 111.152344 92.648438 111.824219 C 92.175781 111.765625 91.65625 111.722656 91.140625 111.636719 C 90.648438 111.554688 90.300781 111.199219 90.273438 110.746094 C 90.207031 109.652344 89.539062 108.882812 88.894531 108.136719 C 86.738281 105.636719 84.59375 103.117188 82.304688 100.738281 C 79.359375 97.683594 75.742188 95.652344 71.6875 94.414062 C 70.984375 94.199219 70.242188 94.003906 69.519531 94.003906 C 66.554688 93.996094 63.867188 94.851562 61.636719 96.871094 C 58.824219 99.421875 57.308594 102.636719 56.835938 106.371094 C 56.507812 108.957031 57.003906 111.414062 57.996094 113.796875 C 58.230469 114.355469 58.351562 114.996094 59.101562 115.164062 C 59.25 115.199219 59.355469 115.46875 59.457031 115.640625 C 60.507812 117.445312 61.546875 119.257812 62.605469 121.054688 C 63.941406 123.328125 65.484375 125.4375 67.382812 127.277344 C 69.5 129.335938 71.613281 131.394531 73.746094 133.433594 C 74.578125 134.226562 75.492188 134.9375 76.316406 135.738281 C 77.164062 136.5625 78.316406 136.929688 79.179688 137.75 C 79.539062 138.089844 79.972656 138.316406 80.179688 138.808594 C 80.253906 138.984375 80.453125 139.109375 80.59375 139.253906 C 80.828125 139.589844 80.941406 140.132812 81.554688 139.804688 Z M 55.316406 112.464844 C 54.480469 109.285156 54.320312 106.101562 55.289062 102.910156 C 54.074219 106.097656 54.101562 109.28125 55.316406 112.464844 Z M 83.53125 142.019531 C 83.507812 142.042969 83.484375 142.070312 83.460938 142.097656 C 83.644531 142.261719 83.824219 142.425781 84.007812 142.589844 C 84.03125 142.558594 84.058594 142.53125 84.082031 142.503906 C 83.898438 142.339844 83.714844 142.179688 83.53125 142.019531 Z M 93.585938 102.300781 C 93.628906 102.226562 93.675781 102.164062 93.703125 102.089844 C 93.707031 102.074219 93.636719 102.027344 93.597656 101.996094 C 93.550781 102.058594 93.496094 102.121094 93.453125 102.1875 C 93.449219 102.195312 93.523438 102.25 93.585938 102.300781 Z M 100.992188 183.601562 C 104.132812 180 107.179688 176.324219 109.863281 172.355469 C 112.042969 169.132812 114.375 166.011719 116.566406 162.796875 C 120.421875 157.144531 124.210938 151.445312 128.050781 145.785156 C 129.589844 143.515625 131.207031 141.300781 132.769531 139.046875 C 133.839844 137.496094 134.878906 135.917969 135.925781 134.351562 C 136.023438 134.207031 136.085938 134.039062 136.164062 133.878906 C 135.921875 133.925781 135.785156 134.03125 135.652344 134.140625 C 134.472656 135.117188 133.3125 136.125 132.101562 137.066406 C 130.691406 138.15625 129.40625 139.359375 128.25 140.707031 C 124.851562 144.683594 121.804688 148.925781 118.898438 153.261719 C 115.679688 158.058594 112.554688 162.921875 109.414062 167.773438 C 106.644531 172.058594 103.90625 176.363281 101.160156 180.660156 C 100.796875 181.230469 100.441406 181.8125 100.132812 182.414062 C 99.75 183.164062 99.417969 183.941406 98.984375 184.871094 C 100 184.617188 100.257812 184.441406 100.992188 183.601562 Z M 122.175781 138.535156 C 120.789062 139.765625 119.367188 140.96875 118.015625 142.242188 C 116.726562 143.453125 115.441406 144.679688 114.265625 145.996094 C 110.664062 150.03125 107.34375 154.289062 104.160156 158.652344 C 101.601562 162.15625 98.914062 165.5625 96.601562 169.238281 C 94.824219 172.058594 92.976562 174.835938 91.175781 177.640625 C 90.558594 178.609375 89.980469 179.605469 89.40625 180.601562 C 89.230469 180.902344 89.097656 181.242188 89.007812 181.578125 C 88.875 182.070312 89.046875 182.511719 89.382812 182.652344 C 89.808594 182.832031 90.054688 182.542969 90.277344 182.265625 C 92.269531 179.777344 94.324219 177.339844 96.226562 174.785156 C 98.53125 171.683594 100.671875 168.460938 102.945312 165.335938 C 107.410156 159.207031 111.921875 153.113281 116.394531 146.988281 C 117.316406 145.726562 118.117188 144.378906 119.007812 143.097656 C 120.066406 141.578125 121.164062 140.082031 122.246094 138.578125 C 122.222656 138.566406 122.199219 138.550781 122.175781 138.535156 Z M 144.898438 135.578125 C 144.140625 136.445312 143.375 137.308594 142.679688 138.222656 C 139.636719 142.210938 136.601562 146.203125 133.59375 150.214844 C 131.667969 152.789062 129.683594 155.328125 127.917969 158.011719 C 122.683594 165.96875 117.558594 174 112.621094 182.148438 C 112.242188 182.773438 111.988281 183.476562 111.699219 184.148438 C 111.628906 184.3125 111.648438 184.511719 111.613281 184.78125 C 112.480469 184.390625 113.144531 183.929688 113.640625 183.242188 C 114.105469 182.59375 114.613281 181.976562 115.054688 181.316406 C 118.488281 176.195312 121.914062 171.070312 125.339844 165.945312 C 127.402344 162.855469 129.410156 159.722656 131.539062 156.679688 C 134.550781 152.378906 137.652344 148.140625 140.710938 143.875 C 142.570312 141.285156 144.398438 138.675781 145.828125 135.816406 C 145.957031 135.558594 146.074219 135.296875 146.253906 134.917969 C 145.515625 134.863281 145.195312 135.238281 144.898438 135.578125 Z M 201.40625 151.8125 C 200.226562 153.0625 199.207031 154.425781 198.289062 155.878906 C 196.101562 159.34375 193.910156 162.808594 191.691406 166.253906 C 190.015625 168.863281 188.433594 171.519531 187.074219 174.308594 C 186.90625 174.652344 186.710938 175 186.648438 175.367188 C 186.597656 175.652344 186.625 176.070312 186.800781 176.25 C 187.105469 176.5625 187.410156 176.207031 187.613281 175.988281 C 188.230469 175.316406 188.859375 174.644531 189.390625 173.90625 C 190.664062 172.132812 191.886719 170.324219 193.128906 168.53125 C 195.222656 165.496094 197.316406 162.457031 199.023438 159.183594 C 200.769531 155.839844 202.445312 152.457031 204.144531 149.09375 C 204.167969 149.050781 204.148438 148.984375 204.148438 148.742188 C 203.171875 149.839844 202.3125 150.847656 201.40625 151.8125 Z M 75.769531 143.023438 C 75.546875 143.195312 75.324219 143.371094 75.101562 143.542969 C 74.429688 144.070312 73.75 144.589844 73.082031 145.125 C 72.070312 145.9375 71.035156 146.726562 70.070312 147.589844 C 68.382812 149.109375 66.726562 150.664062 65.078125 152.226562 C 63.539062 153.6875 62.015625 155.167969 60.5 156.65625 C 58.941406 158.183594 57.402344 159.730469 55.855469 161.269531 C 55.769531 161.351562 55.644531 161.417969 55.609375 161.519531 C 55.535156 161.722656 55.410156 162.023438 55.496094 162.144531 C 55.625 162.3125 55.9375 162.457031 56.148438 162.429688 C 56.453125 162.394531 56.773438 162.238281 57.03125 162.050781 C 57.964844 161.382812 58.921875 160.734375 59.785156 159.976562 C 62.398438 157.679688 65.003906 155.367188 67.550781 152.996094 C 69.582031 151.109375 71.507812 149.113281 73.148438 146.859375 C 73.929688 145.789062 74.726562 144.726562 75.511719 143.660156 C 75.640625 143.484375 75.75 143.292969 75.871094 143.113281 C 75.835938 143.082031 75.804688 143.050781 75.769531 143.023438 Z M 213.84375 150.09375 C 213.359375 150.566406 212.917969 151.09375 212.386719 151.507812 C 210.371094 153.089844 208.738281 155.011719 207.210938 157.046875 C 205.386719 159.476562 203.617188 161.9375 202.179688 164.621094 C 201.972656 165.011719 201.792969 165.417969 201.640625 165.828125 C 201.5 166.214844 201.515625 166.617188 201.917969 166.839844 C 202.324219 167.070312 202.566406 166.761719 202.792969 166.476562 C 204.621094 164.199219 206.417969 161.902344 208.28125 159.660156 C 210.769531 156.667969 212.578125 153.265625 214.363281 149.84375 C 214.382812 149.804688 214.367188 149.742188 214.367188 149.59375 C 214.160156 149.789062 214 149.9375 213.84375 150.09375 Z M 63.328125 146.289062 C 61.726562 147.578125 60.109375 148.859375 58.523438 150.167969 C 57.089844 151.347656 55.6875 152.566406 54.261719 153.761719 C 54.046875 153.941406 53.804688 154.144531 53.980469 154.410156 C 54.105469 154.597656 54.394531 154.773438 54.609375 154.773438 C 54.917969 154.777344 55.253906 154.664062 55.53125 154.511719 C 56.050781 154.234375 56.5625 153.925781 57.027344 153.570312 C 59.613281 151.589844 61.460938 148.941406 63.5 146.472656 C 63.441406 146.410156 63.386719 146.347656 63.328125 146.289062 Z M 91.570312 104.703125 C 91.75 104.703125 91.933594 104.703125 92.117188 104.703125 C 92.117188 104.703125 92.105469 104.722656 92.105469 104.722656 C 92.046875 104.480469 91.984375 104.238281 91.925781 104 C 91.925781 104 91.9375 104.003906 91.9375 104.003906 C 91.816406 104.242188 91.699219 104.480469 91.582031 104.714844 Z M 152.777344 108.949219 C 152.597656 109.324219 152.414062 109.699219 152.234375 110.074219 C 152.3125 110.101562 152.394531 110.128906 152.472656 110.15625 C 152.570312 109.75 152.667969 109.347656 152.765625 108.941406 C 152.765625 108.941406 152.777344 108.949219 152.777344 108.949219 Z M 195.125 101.441406 C 196 100.742188 196.84375 99.996094 197.757812 99.351562 C 201.355469 96.808594 205.363281 95.800781 209.746094 96.261719 C 210.324219 96.320312 210.804688 96.535156 211.234375 96.945312 C 212.542969 98.183594 213.324219 99.6875 213.765625 101.421875 C 214.789062 105.441406 214.285156 109.355469 213.175781 113.273438 C 211.398438 119.558594 208.367188 125.230469 204.746094 130.617188 C 204.269531 131.324219 203.683594 131.957031 203.136719 132.613281 C 202.90625 132.890625 202.675781 133.113281 202.910156 133.539062 C 202.996094 133.695312 202.839844 134.035156 202.714844 134.238281 C 200.996094 136.992188 199.179688 139.664062 197.03125 142.121094 C 194.195312 145.363281 191.496094 148.71875 188.730469 152.023438 C 188.394531 152.429688 188.015625 152.800781 187.703125 153.140625 C 187.175781 153.25 186.917969 152.964844 186.636719 152.703125 C 184.417969 150.628906 182.210938 148.546875 179.96875 146.503906 C 178.707031 145.355469 177.371094 144.289062 176.097656 143.160156 C 174.175781 141.457031 172.339844 139.652344 170.355469 138.035156 C 167.148438 135.417969 164.125 132.605469 161.148438 129.738281 C 159.648438 128.296875 158.472656 126.601562 157.367188 124.851562 C 156.003906 122.703125 154.972656 120.386719 153.890625 118.09375 C 153.289062 116.820312 152.964844 115.476562 153.019531 114.105469 C 153.070312 112.792969 153.175781 111.460938 153.601562 110.191406 C 154.414062 107.773438 155.492188 105.496094 157.214844 103.570312 C 158.550781 102.074219 160.113281 100.894531 162.023438 100.207031 C 162.964844 99.867188 163.902344 99.71875 164.882812 100 C 165.621094 100.214844 166.367188 100.394531 167.109375 100.59375 C 169.277344 101.171875 171.257812 102.113281 172.976562 103.574219 C 174.4375 104.816406 175.925781 106.027344 177.390625 107.265625 C 177.945312 107.730469 178.28125 108.335938 178.566406 109.003906 C 179.125 110.332031 179.738281 111.640625 180.378906 112.929688 C 180.753906 113.683594 181.183594 113.8125 181.996094 113.535156 C 182.347656 114.367188 183.09375 114.578125 183.910156 114.679688 C 184.433594 114.746094 184.949219 114.839844 185.40625 114.910156 C 186.503906 113.058594 187.578125 111.273438 188.625 109.46875 C 189.800781 107.445312 191.101562 105.519531 192.707031 103.808594 C 192.90625 103.597656 193.074219 103.347656 193.253906 103.117188 C 193.878906 102.558594 194.503906 102 195.125 101.441406 Z M 81.558594 139.804688 C 81.769531 139.953125 82.003906 140.082031 82.195312 140.257812 C 84.917969 142.746094 87.640625 145.226562 90.621094 147.414062 C 91.261719 147.882812 91.859375 148.417969 92.457031 148.945312 C 93.03125 149.453125 93.273438 149.507812 93.9375 149.140625 C 94.140625 149.027344 94.316406 148.863281 94.492188 148.707031 C 96.742188 146.699219 98.90625 144.609375 100.910156 142.359375 C 103.109375 139.890625 105.3125 137.425781 107.527344 134.972656 C 110.085938 132.140625 112.386719 129.113281 114.378906 125.863281 C 115.71875 123.675781 117.023438 121.464844 118.273438 119.226562 C 119.519531 116.996094 120.214844 114.507812 121.46875 112.265625 C 122.0625 111.199219 122.378906 109.96875 122.738281 108.789062 C 123.5625 106.09375 123.613281 103.394531 122.640625 100.71875 C 121.933594 98.777344 120.960938 97.023438 119.179688 95.824219 C 118.566406 95.410156 117.925781 95.195312 117.179688 95.28125 C 115.804688 95.441406 114.414062 95.53125 113.046875 95.75 C 110.027344 96.230469 107.203125 97.28125 104.707031 99.039062 C 100.429688 102.046875 96.566406 105.496094 93.800781 110.011719 C 93.445312 110.589844 93.074219 111.152344 92.648438 111.824219 C 92.175781 111.765625 91.65625 111.722656 91.140625 111.636719 C 90.648438 111.554688 90.300781 111.199219 90.273438 110.746094 C 90.207031 109.652344 89.539062 108.882812 88.894531 108.136719 C 86.738281 105.636719 84.59375 103.117188 82.304688 100.738281 C 79.359375 97.683594 75.742188 95.652344 71.6875 94.414062 C 70.984375 94.199219 70.242188 94.003906 69.519531 94.003906 C 66.554688 93.996094 63.867188 94.851562 61.636719 96.871094 C 58.824219 99.421875 57.308594 102.636719 56.835938 106.371094 C 56.507812 108.957031 57.003906 111.414062 57.996094 113.796875 C 58.230469 114.355469 58.351562 114.996094 59.101562 115.164062 C 59.25 115.199219 59.355469 115.46875 59.457031 115.640625 C 60.507812 117.445312 61.546875 119.257812 62.605469 121.054688 C 63.941406 123.328125 65.484375 125.4375 67.382812 127.277344 C 69.5 129.335938 71.613281 131.394531 73.746094 133.433594 C 74.578125 134.226562 75.492188 134.9375 76.316406 135.738281 C 77.164062 136.5625 78.316406 136.929688 79.179688 137.75 C 79.539062 138.089844 79.972656 138.316406 80.179688 138.808594 C 80.253906 138.984375 80.453125 139.109375 80.59375 139.253906 C 81.023438 139.25 81.363281 139.445312 81.558594 139.804688 Z M 81.558594 139.804688 " fill-opacity="1" fill-rule="nonzero"/><path fill="rgb(21.179199%, 27.059937%, 30.979919%)" d="M 189.679688 156.421875 C 188.824219 156.421875 188.058594 156.363281 187.304688 156.433594 C 185.648438 156.589844 184.273438 155.976562 183.003906 155.007812 C 182.84375 154.886719 182.65625 154.792969 182.441406 154.664062 C 182.335938 154.777344 182.222656 154.871094 182.144531 154.984375 C 178.667969 160.183594 175.140625 165.351562 171.738281 170.597656 C 169.058594 174.734375 166.554688 178.976562 163.941406 183.152344 C 163.347656 184.097656 162.625 184.960938 161.953125 185.859375 C 161.871094 185.96875 161.742188 186.039062 161.476562 186.0625 C 161.535156 185.835938 161.578125 185.601562 161.65625 185.382812 C 163.761719 179.421875 166.785156 173.925781 170.183594 168.621094 C 172.984375 164.25 175.953125 159.984375 179.160156 155.894531 C 179.757812 155.136719 180.414062 154.421875 181.089844 153.625 C 178.949219 151.953125 177.148438 149.929688 174.613281 148.726562 C 174.421875 149.039062 174.257812 149.3125 174.089844 149.582031 C 172.6875 151.835938 171.34375 154.128906 169.875 156.335938 C 165.371094 163.085938 160.789062 169.78125 156.300781 176.539062 C 154.195312 179.710938 152.230469 182.972656 150.199219 186.191406 C 150.042969 186.4375 149.890625 186.707031 149.675781 186.894531 C 149.519531 187.027344 149.222656 187.128906 149.050781 187.070312 C 148.878906 187.007812 148.660156 186.722656 148.671875 186.554688 C 148.703125 186.09375 148.773438 185.609375 148.96875 185.199219 C 149.890625 183.253906 150.832031 181.316406 151.816406 179.402344 C 155.148438 172.90625 159.058594 166.761719 163.378906 160.875 C 164.621094 159.1875 165.796875 157.453125 167.011719 155.746094 C 168.625 153.484375 170.414062 151.367188 172.421875 149.4375 C 172.847656 149.035156 173.246094 148.605469 173.648438 148.195312 C 171.125 146.335938 168.660156 144.515625 166.035156 142.582031 C 166 142.664062 165.953125 142.808594 165.878906 142.933594 C 163.285156 147.164062 160.207031 151.0625 157.347656 155.109375 C 152.175781 162.4375 147.015625 169.777344 141.824219 177.089844 C 140.269531 179.277344 138.625 181.402344 137.011719 183.550781 C 136.746094 183.902344 136.441406 184.234375 136.109375 184.519531 C 135.957031 184.648438 135.617188 184.753906 135.488281 184.671875 C 135.304688 184.554688 135.117188 184.246094 135.140625 184.039062 C 135.175781 183.640625 135.300781 183.222656 135.492188 182.871094 C 136.363281 181.265625 137.222656 179.648438 138.175781 178.089844 C 142.261719 171.421875 146.410156 164.796875 150.933594 158.410156 C 154.246094 153.742188 157.683594 149.164062 161.390625 144.792969 C 162.191406 143.851562 163.085938 142.984375 163.9375 142.082031 C 164.15625 141.851562 164.378906 141.621094 164.636719 141.351562 C 162.886719 139.660156 161.179688 138.007812 159.441406 136.332031 C 159.355469 136.410156 159.25 136.46875 159.191406 136.558594 C 156.320312 141.144531 152.707031 145.191406 149.601562 149.605469 C 146.085938 154.597656 142.625 159.632812 139.148438 164.652344 C 136.457031 168.53125 133.753906 172.402344 131.105469 176.3125 C 129.566406 178.582031 128.121094 180.914062 126.648438 183.230469 C 126.320312 183.742188 126.050781 184.292969 125.726562 184.871094 C 125.246094 184.527344 125.246094 184.105469 125.328125 183.71875 C 125.433594 183.199219 125.582031 182.683594 125.785156 182.199219 C 126.945312 179.414062 128.390625 176.769531 129.976562 174.214844 C 132.652344 169.90625 135.421875 165.652344 138.171875 161.386719 C 142.046875 155.382812 146.261719 149.621094 150.863281 144.144531 C 152.800781 141.839844 154.847656 139.632812 157.066406 137.589844 C 157.691406 137.011719 158.238281 136.351562 158.875 135.675781 C 158.742188 135.515625 158.566406 135.285156 158.371094 135.074219 C 155.453125 131.925781 152.824219 128.5625 150.652344 124.851562 C 150.074219 123.859375 149.351562 122.953125 148.722656 121.992188 C 146.605469 118.753906 145.542969 115.230469 145.875 111.34375 C 146.007812 109.757812 146.191406 108.179688 146.394531 106.601562 C 146.664062 104.535156 147.738281 102.871094 149.292969 101.578125 C 153.089844 98.414062 157.414062 96.492188 162.453125 96.765625 C 165.976562 96.957031 169.316406 97.980469 172.355469 99.796875 C 174.382812 101.007812 176.351562 102.3125 178.3125 103.628906 C 179.914062 104.707031 181.339844 105.988281 182.421875 107.621094 C 182.351562 107.816406 182.203125 108.027344 182.230469 108.203125 C 182.269531 108.4375 182.449219 108.648438 182.679688 109.066406 C 182.835938 108.796875 182.890625 108.65625 182.988281 108.546875 C 183.957031 107.4375 184.9375 106.339844 185.902344 105.222656 C 186.402344 104.644531 186.902344 104.0625 187.34375 103.4375 C 189.320312 100.644531 191.683594 98.226562 194.402344 96.152344 C 196.699219 94.40625 199.359375 93.527344 202.171875 93.148438 C 206.371094 92.585938 210.289062 93.445312 213.800781 95.855469 C 215.496094 97.019531 216.835938 98.558594 217.972656 100.269531 C 218.839844 101.574219 219.269531 103.039062 219.492188 104.570312 C 219.554688 104.992188 219.738281 105.328125 219.929688 105.695312 C 220.191406 106.199219 220.359375 106.792969 220.40625 107.359375 C 220.5625 109.140625 220.273438 110.890625 219.773438 112.597656 C 218.222656 117.90625 216.167969 123.011719 213.371094 127.796875 C 212.542969 129.21875 211.523438 130.53125 210.609375 131.90625 C 209.859375 133.027344 209.164062 134.183594 208.382812 135.285156 C 207.6875 136.265625 206.902344 137.179688 206.171875 138.132812 C 204.878906 139.816406 203.597656 141.503906 202.308594 143.191406 C 200.179688 145.984375 198.054688 148.777344 195.917969 151.5625 C 195.511719 152.089844 195.097656 152.625 194.621094 153.089844 C 193.652344 154.035156 193.082031 155.238281 192.351562 156.34375 C 189.960938 159.964844 187.542969 163.5625 185.125 167.164062 C 182.660156 170.839844 180.175781 174.5 177.714844 178.179688 C 177.257812 178.863281 176.894531 179.609375 176.480469 180.324219 C 176.390625 180.476562 176.308594 180.640625 176.183594 180.757812 C 175.820312 181.109375 175.367188 181.007812 175.226562 180.511719 C 175.152344 180.242188 175.132812 179.914062 175.210938 179.648438 C 175.386719 179.058594 175.566406 178.449219 175.867188 177.917969 C 177.378906 175.25 178.875 172.570312 180.480469 169.960938 C 183.207031 165.539062 186.128906 161.246094 189.257812 157.09375 C 189.40625 156.894531 189.523438 156.671875 189.679688 156.421875 Z M 152.765625 108.941406 L 152.777344 108.949219 C 152.886719 108.617188 152.960938 108.269531 153.105469 107.953125 C 153.457031 107.175781 153.875 106.429688 154.207031 105.644531 C 154.660156 104.585938 155.207031 103.59375 156.007812 102.753906 C 156.507812 102.234375 157.003906 101.710938 157.503906 101.1875 C 155.460938 102.191406 153.855469 103.640625 152.929688 105.726562 C 152.457031 106.796875 152.066406 107.90625 151.722656 109.027344 C 151.5625 109.550781 151.5625 110.132812 151.570312 110.691406 C 151.574219 111.21875 151.515625 111.726562 151.832031 112.273438 C 152.078125 112.691406 151.902344 113.351562 151.921875 113.90625 C 151.921875 113.957031 151.980469 114.003906 151.957031 113.96875 C 152.238281 112.597656 152.539062 111.191406 152.808594 109.78125 C 152.859375 109.511719 152.785156 109.222656 152.765625 108.941406 Z M 195.125 101.441406 C 195.0625 101.378906 194.949219 101.257812 194.945312 101.261719 C 194.308594 101.8125 193.609375 102.3125 193.253906 103.117188 C 193.074219 103.347656 192.90625 103.59375 192.707031 103.808594 C 191.101562 105.519531 189.800781 107.445312 188.625 109.46875 C 187.578125 111.273438 186.503906 113.058594 185.40625 114.910156 C 184.949219 114.839844 184.433594 114.746094 183.910156 114.679688 C 183.09375 114.578125 182.347656 114.367188 181.996094 113.535156 C 181.183594 113.8125 180.753906 113.683594 180.378906 112.929688 C 179.738281 111.640625 179.125 110.332031 178.566406 109.003906 C 178.28125 108.335938 177.945312 107.730469 177.390625 107.265625 C 175.925781 106.027344 174.4375 104.816406 172.976562 103.574219 C 171.257812 102.113281 169.277344 101.171875 167.109375 100.59375 C 166.367188 100.394531 165.621094 100.214844 164.882812 100 C 163.902344 99.71875 162.964844 99.867188 162.023438 100.207031 C 160.113281 100.894531 158.550781 102.074219 157.214844 103.570312 C 155.492188 105.496094 154.414062 107.773438 153.601562 110.191406 C 153.175781 111.460938 153.070312 112.792969 153.019531 114.105469 C 152.964844 115.476562 153.289062 116.820312 153.890625 118.09375 C 154.972656 120.386719 156.003906 122.703125 157.367188 124.851562 C 158.472656 126.601562 159.648438 128.296875 161.148438 129.738281 C 164.125 132.605469 167.148438 135.417969 170.355469 138.035156 C 172.339844 139.652344 174.175781 141.457031 176.097656 143.160156 C 177.371094 144.289062 178.707031 145.355469 179.96875 146.503906 C 182.210938 148.546875 184.417969 150.628906 186.636719 152.703125 C 186.917969 152.964844 187.175781 153.25 187.703125 153.140625 C 188.015625 152.800781 188.394531 152.429688 188.730469 152.023438 C 191.496094 148.71875 194.195312 145.363281 197.03125 142.121094 C 199.179688 139.664062 200.996094 136.992188 202.714844 134.238281 C 202.839844 134.035156 202.996094 133.695312 202.910156 133.539062 C 202.675781 133.113281 202.90625 132.890625 203.136719 132.613281 C 203.683594 131.957031 204.269531 131.324219 204.746094 130.617188 C 208.367188 125.230469 211.398438 119.558594 213.175781 113.273438 C 214.285156 109.355469 214.789062 105.441406 213.765625 101.421875 C 213.324219 99.6875 212.542969 98.183594 211.234375 96.945312 C 210.804688 96.535156 210.324219 96.320312 209.746094 96.261719 C 205.363281 95.800781 201.355469 96.808594 197.757812 99.351562 C 196.84375 99.996094 196 100.742188 195.125 101.441406 Z M 153.605469 120.460938 C 153.769531 121.789062 155.191406 124.480469 156.34375 125.617188 C 155.421875 123.886719 154.503906 122.152344 153.605469 120.460938 Z M 91.9375 104.003906 C 92.40625 102.691406 93.339844 101.6875 94.324219 100.773438 C 96.417969 98.828125 98.605469 96.996094 101.050781 95.492188 C 102.949219 94.328125 104.949219 93.421875 107.136719 92.929688 C 109.152344 92.476562 111.175781 92.125 113.246094 92.039062 C 116.582031 91.894531 119.617188 92.800781 122.390625 94.597656 C 123.230469 95.140625 124.058594 95.730469 124.796875 96.402344 C 128.28125 99.574219 129.429688 103.546875 128.621094 108.109375 C 128.0625 111.246094 126.652344 114.082031 125.261719 116.917969 C 124.453125 118.554688 123.648438 120.195312 122.890625 121.859375 C 121.621094 124.632812 120.0625 127.230469 118.269531 129.695312 C 115.859375 133.003906 113.257812 136.164062 111.015625 139.609375 C 108.652344 143.234375 105.859375 146.582031 103.230469 150.03125 C 97.699219 157.28125 92.175781 164.539062 86.589844 171.746094 C 85.257812 173.464844 83.683594 174.996094 82.203125 176.605469 C 81.828125 177.011719 81.320312 176.921875 81.179688 176.390625 C 81.082031 176.019531 81.117188 175.5625 81.246094 175.203125 C 81.40625 174.769531 81.71875 174.390625 81.984375 174.003906 C 83.21875 172.203125 84.492188 170.425781 85.691406 168.605469 C 89.425781 162.933594 93.398438 157.433594 97.546875 152.054688 C 97.789062 151.738281 98.03125 151.417969 98.269531 151.097656 C 98.230469 151.054688 98.1875 151.007812 98.148438 150.964844 C 97.757812 151.191406 97.386719 151.464844 96.972656 151.632812 C 96.542969 151.808594 96.070312 151.882812 95.574219 152.011719 C 95.585938 152.21875 95.59375 152.410156 95.605469 152.679688 C 95.398438 152.585938 95.226562 152.507812 95.039062 152.421875 C 94.988281 152.476562 94.914062 152.527344 94.875 152.597656 C 94.335938 153.527344 93.230469 153.859375 92.195312 153.269531 C 91.5625 152.914062 91.519531 152.960938 91.035156 153.570312 C 88.390625 156.898438 85.800781 160.269531 83.097656 163.546875 C 80.566406 166.621094 78.089844 169.746094 75.269531 172.574219 C 73.675781 174.171875 71.894531 175.527344 70 176.746094 C 69.753906 176.902344 69.484375 177.042969 69.203125 177.121094 C 68.707031 177.257812 68.367188 176.957031 68.472656 176.457031 C 68.53125 176.183594 68.679688 175.898438 68.855469 175.675781 C 69.300781 175.125 69.757812 174.582031 70.257812 174.082031 C 73.214844 171.09375 75.726562 167.738281 78.347656 164.464844 C 81.664062 160.320312 85.058594 156.234375 88.421875 152.121094 C 88.585938 151.917969 88.742188 151.703125 88.894531 151.507812 C 88.480469 150.921875 85.402344 148.832031 84.316406 148.402344 C 84.113281 148.601562 83.882812 148.816406 83.664062 149.046875 C 81.574219 151.257812 79.496094 153.476562 77.402344 155.679688 C 75.960938 157.199219 74.472656 158.675781 73.050781 160.214844 C 70.277344 163.21875 67.152344 165.835938 64.019531 168.441406 C 63.042969 169.25 62.054688 170.050781 61.050781 170.828125 C 60.730469 171.074219 60.351562 171.273438 59.964844 171.410156 C 59.480469 171.578125 59.019531 171.390625 58.800781 171.015625 C 58.554688 170.589844 58.691406 170.226562 59.007812 169.898438 C 60.957031 167.886719 62.882812 165.847656 64.867188 163.867188 C 67.054688 161.675781 69.300781 159.539062 71.515625 157.371094 C 74.808594 154.152344 78.101562 150.929688 81.390625 147.707031 C 81.636719 147.460938 81.871094 147.203125 82.164062 146.898438 C 81.898438 146.691406 81.703125 146.523438 81.488281 146.375 C 78.253906 144.136719 75.242188 141.628906 72.46875 138.832031 C 71.347656 137.699219 70.1875 136.605469 69.074219 135.46875 C 68.777344 135.160156 68.597656 134.742188 68.351562 134.382812 C 68.148438 134.097656 67.953125 133.800781 67.707031 133.554688 C 65.328125 131.171875 62.898438 128.84375 60.566406 126.417969 C 56.382812 122.0625 53.578125 116.945312 52.316406 111.027344 C 51.386719 106.667969 52.367188 102.667969 54.722656 98.953125 C 54.914062 98.652344 55.128906 98.371094 55.332031 98.082031 C 58.144531 94.09375 62.082031 92.316406 66.882812 92.292969 C 70.867188 92.273438 74.660156 93.09375 78.292969 94.78125 C 83.023438 96.976562 87.058594 99.996094 90.214844 104.15625 C 90.445312 104.460938 90.691406 104.753906 90.9375 105.050781 C 90.972656 105.09375 91.03125 105.117188 91.230469 105.25 C 91.335938 105.089844 91.457031 104.902344 91.582031 104.714844 C 91.582031 104.714844 91.570312 104.703125 91.570312 104.703125 C 91.570312 105 91.570312 105.296875 91.570312 105.59375 C 91.613281 105.601562 91.660156 105.605469 91.707031 105.613281 C 91.84375 105.3125 91.980469 105.007812 92.117188 104.703125 C 92.117188 104.703125 92.105469 104.722656 92.105469 104.722656 C 92.332031 104.410156 92.5625 104.101562 92.902344 103.640625 C 92.445312 103.808594 92.183594 103.902344 91.925781 104 C 91.925781 104 91.9375 104.003906 91.9375 104.003906 Z M 81.554688 139.804688 C 81.769531 139.953125 82.003906 140.082031 82.195312 140.257812 C 84.917969 142.746094 87.640625 145.226562 90.621094 147.414062 C 91.261719 147.882812 91.859375 148.417969 92.457031 148.945312 C 93.03125 149.453125 93.273438 149.507812 93.9375 149.140625 C 94.140625 149.027344 94.316406 148.863281 94.492188 148.707031 C 96.742188 146.699219 98.90625 144.609375 100.910156 142.359375 C 103.109375 139.890625 105.3125 137.425781 107.527344 134.972656 C 110.085938 132.140625 112.386719 129.113281 114.378906 125.863281 C 115.71875 123.675781 117.023438 121.464844 118.273438 119.226562 C 119.519531 116.996094 120.214844 114.507812 121.46875 112.265625 C 122.0625 111.199219 122.378906 109.96875 122.738281 108.789062 C 123.5625 106.09375 123.613281 103.394531 122.640625 100.71875 C 121.933594 98.777344 120.960938 97.023438 119.179688 95.824219 C 118.566406 95.410156 117.925781 95.195312 117.179688 95.28125 C 115.804688 95.441406 114.414062 95.53125 113.046875 95.75 C 110.027344 96.230469 107.203125 97.28125 104.707031 99.039062 C 100.429688 102.046875 96.566406 105.496094 93.800781 110.011719 C 93.445312 110.589844 93.074219 111.152344 92.648438 111.824219 C 92.175781 111.765625 91.65625 111.722656 91.140625 111.636719 C 90.648438 111.554688 90.300781 111.199219 90.273438 110.746094 C 90.207031 109.652344 89.539062 108.882812 88.894531 108.136719 C 86.738281 105.636719 84.59375 103.117188 82.304688 100.738281 C 79.359375 97.683594 75.742188 95.652344 71.6875 94.414062 C 70.984375 94.199219 70.242188 94.003906 69.519531 94.003906 C 66.554688 93.996094 63.867188 94.851562 61.636719 96.871094 C 58.824219 99.421875 57.308594 102.636719 56.835938 106.371094 C 56.507812 108.957031 57.003906 111.414062 57.996094 113.796875 C 58.230469 114.355469 58.351562 114.996094 59.101562 115.164062 C 59.25 115.199219 59.355469 115.46875 59.457031 115.640625 C 60.507812 117.445312 61.546875 119.257812 62.605469 121.054688 C 63.941406 123.328125 65.484375 125.4375 67.382812 127.277344 C 69.5 129.335938 71.613281 131.394531 73.746094 133.433594 C 74.578125 134.226562 75.492188 134.9375 76.316406 135.738281 C 77.164062 136.5625 78.316406 136.929688 79.179688 137.75 C 79.539062 138.089844 79.972656 138.316406 80.179688 138.808594 C 80.253906 138.984375 80.453125 139.109375 80.59375 139.253906 C 80.828125 139.589844 80.941406 140.132812 81.554688 139.804688 Z M 55.316406 112.464844 C 54.480469 109.285156 54.320312 106.101562 55.289062 102.910156 C 54.074219 106.097656 54.101562 109.28125 55.316406 112.464844 Z M 83.53125 142.019531 C 83.507812 142.042969 83.484375 142.070312 83.460938 142.097656 C 83.644531 142.261719 83.824219 142.425781 84.007812 142.589844 C 84.03125 142.558594 84.058594 142.53125 84.082031 142.503906 C 83.898438 142.339844 83.714844 142.179688 83.53125 142.019531 Z M 93.585938 102.300781 C 93.628906 102.226562 93.675781 102.164062 93.703125 102.089844 C 93.707031 102.074219 93.636719 102.027344 93.597656 101.996094 C 93.550781 102.058594 93.496094 102.121094 93.453125 102.1875 C 93.449219 102.195312 93.523438 102.25 93.585938 102.300781 Z M 100.992188 183.601562 C 104.132812 180 107.179688 176.324219 109.863281 172.355469 C 112.042969 169.132812 114.375 166.011719 116.566406 162.796875 C 120.421875 157.144531 124.210938 151.445312 128.050781 145.785156 C 129.589844 143.515625 131.207031 141.300781 132.769531 139.046875 C 133.839844 137.496094 134.878906 135.917969 135.925781 134.351562 C 136.023438 134.207031 136.085938 134.039062 136.164062 133.878906 C 135.921875 133.925781 135.785156 134.03125 135.652344 134.140625 C 134.472656 135.117188 133.3125 136.125 132.101562 137.066406 C 130.691406 138.15625 129.40625 139.359375 128.25 140.707031 C 124.851562 144.683594 121.804688 148.925781 118.898438 153.261719 C 115.679688 158.058594 112.554688 162.921875 109.414062 167.773438 C 106.644531 172.058594 103.90625 176.363281 101.160156 180.660156 C 100.796875 181.230469 100.441406 181.8125 100.132812 182.414062 C 99.75 183.164062 99.417969 183.941406 98.984375 184.871094 C 100 184.617188 100.257812 184.441406 100.992188 183.601562 Z M 122.175781 138.535156 C 120.789062 139.765625 119.367188 140.96875 118.015625 142.242188 C 116.726562 143.453125 115.441406 144.679688 114.265625 145.996094 C 110.664062 150.03125 107.34375 154.289062 104.160156 158.652344 C 101.601562 162.15625 98.914062 165.5625 96.601562 169.238281 C 94.824219 172.058594 92.976562 174.835938 91.175781 177.640625 C 90.558594 178.609375 89.980469 179.605469 89.40625 180.601562 C 89.230469 180.902344 89.097656 181.242188 89.007812 181.578125 C 88.875 182.070312 89.046875 182.511719 89.382812 182.652344 C 89.808594 182.832031 90.054688 182.542969 90.277344 182.265625 C 92.269531 179.777344 94.324219 177.339844 96.226562 174.785156 C 98.53125 171.683594 100.671875 168.460938 102.945312 165.335938 C 107.410156 159.207031 111.921875 153.113281 116.394531 146.988281 C 117.316406 145.726562 118.117188 144.378906 119.007812 143.097656 C 120.066406 141.578125 121.164062 140.082031 122.246094 138.578125 C 122.222656 138.566406 122.199219 138.550781 122.175781 138.535156 Z M 144.898438 135.578125 C 144.140625 136.445312 143.375 137.308594 142.679688 138.222656 C 139.636719 142.210938 136.601562 146.203125 133.59375 150.214844 C 131.667969 152.789062 129.683594 155.328125 127.917969 158.011719 C 122.683594 165.96875 117.558594 174 112.621094 182.148438 C 112.242188 182.773438 111.988281 183.476562 111.699219 184.148438 C 111.628906 184.3125 111.648438 184.511719 111.613281 184.78125 C 112.480469 184.390625 113.144531 183.929688 113.640625 183.242188 C 114.105469 182.59375 114.613281 181.976562 115.054688 181.316406 C 118.488281 176.195312 121.914062 171.070312 125.339844 165.945312 C 127.402344 162.855469 129.410156 159.722656 131.539062 156.679688 C 134.550781 152.378906 137.652344 148.140625 140.710938 143.875 C 142.570312 141.285156 144.398438 138.675781 145.828125 135.816406 C 145.957031 135.558594 146.074219 135.296875 146.253906 134.917969 C 145.515625 134.863281 145.195312 135.238281 144.898438 135.578125 Z M 201.40625 151.8125 C 200.226562 153.0625 199.207031 154.425781 198.289062 155.878906 C 196.101562 159.34375 193.910156 162.808594 191.691406 166.253906 C 190.015625 168.863281 188.433594 171.519531 187.074219 174.308594 C 186.90625 174.652344 186.710938 175 186.648438 175.367188 C 186.597656 175.652344 186.625 176.070312 186.800781 176.25 C 187.105469 176.5625 187.410156 176.207031 187.613281 175.988281 C 188.230469 175.316406 188.859375 174.644531 189.390625 173.90625 C 190.664062 172.132812 191.886719 170.324219 193.128906 168.53125 C 195.222656 165.496094 197.316406 162.457031 199.023438 159.183594 C 200.769531 155.839844 202.445312 152.457031 204.144531 149.09375 C 204.167969 149.050781 204.148438 148.984375 204.148438 148.742188 C 203.171875 149.839844 202.3125 150.847656 201.40625 151.8125 Z M 75.769531 143.023438 C 75.546875 143.195312 75.324219 143.371094 75.101562 143.542969 C 74.429688 144.070312 73.75 144.589844 73.082031 145.125 C 72.070312 145.9375 71.035156 146.726562 70.070312 147.589844 C 68.382812 149.109375 66.726562 150.664062 65.078125 152.226562 C 63.539062 153.6875 62.015625 155.167969 60.5 156.65625 C 58.941406 158.183594 57.402344 159.730469 55.855469 161.269531 C 55.769531 161.351562 55.644531 161.417969 55.609375 161.519531 C 55.535156 161.722656 55.410156 162.023438 55.496094 162.144531 C 55.625 162.3125 55.9375 162.457031 56.148438 162.429688 C 56.453125 162.394531 56.773438 162.238281 57.03125 162.050781 C 57.964844 161.382812 58.921875 160.734375 59.785156 159.976562 C 62.398438 157.679688 65.003906 155.367188 67.550781 152.996094 C 69.582031 151.109375 71.507812 149.113281 73.148438 146.859375 C 73.929688 145.789062 74.726562 144.726562 75.511719 143.660156 C 75.640625 143.484375 75.75 143.292969 75.871094 143.113281 C 75.835938 143.082031 75.804688 143.050781 75.769531 143.023438 Z M 213.84375 150.09375 C 213.359375 150.566406 212.917969 151.09375 212.386719 151.507812 C 210.371094 153.089844 208.738281 155.011719 207.210938 157.046875 C 205.386719 159.476562 203.617188 161.9375 202.179688 164.621094 C 201.972656 165.011719 201.792969 165.417969 201.640625 165.828125 C 201.5 166.214844 201.515625 166.617188 201.917969 166.839844 C 202.324219 167.070312 202.566406 166.761719 202.792969 166.476562 C 204.621094 164.199219 206.417969 161.902344 208.28125 159.660156 C 210.769531 156.667969 212.578125 153.265625 214.363281 149.84375 C 214.382812 149.804688 214.367188 149.742188 214.367188 149.59375 C 214.160156 149.789062 214 149.9375 213.84375 150.09375 Z M 63.328125 146.289062 C 61.726562 147.578125 60.109375 148.859375 58.523438 150.167969 C 57.089844 151.347656 55.6875 152.566406 54.261719 153.761719 C 54.046875 153.941406 53.804688 154.144531 53.980469 154.410156 C 54.105469 154.597656 54.394531 154.773438 54.609375 154.773438 C 54.917969 154.777344 55.253906 154.664062 55.53125 154.511719 C 56.050781 154.234375 56.5625 153.925781 57.027344 153.570312 C 59.613281 151.589844 61.460938 148.941406 63.5 146.472656 C 63.441406 146.410156 63.386719 146.347656 63.328125 146.289062 Z M 91.570312 104.703125 C 91.75 104.703125 91.933594 104.703125 92.117188 104.703125 C 92.117188 104.703125 92.105469 104.722656 92.105469 104.722656 C 92.046875 104.480469 91.984375 104.238281 91.925781 104 C 91.925781 104 91.9375 104.003906 91.9375 104.003906 C 91.816406 104.242188 91.699219 104.480469 91.582031 104.714844 Z M 152.777344 108.949219 C 152.597656 109.324219 152.414062 109.699219 152.234375 110.074219 C 152.3125 110.101562 152.394531 110.128906 152.472656 110.15625 C 152.570312 109.75 152.667969 109.347656 152.765625 108.941406 C 152.765625 108.941406 152.777344 108.949219 152.777344 108.949219 Z M 152.777344 108.949219 " fill-opacity="1" fill-rule="nonzero"/></g><path fill="rgb(88.62915%, 88.62915%, 88.62915%)" d="M 195.125 101.441406 C 196 100.742188 196.84375 99.996094 197.757812 99.351562 C 201.355469 96.808594 205.363281 95.800781 209.746094 96.261719 C 210.324219 96.320312 210.804688 96.535156 211.234375 96.945312 C 212.542969 98.183594 213.324219 99.6875 213.765625 101.421875 C 214.789062 105.441406 214.285156 109.355469 213.175781 113.273438 C 211.398438 119.558594 208.367188 125.230469 204.746094 130.617188 C 204.269531 131.324219 203.683594 131.957031 203.136719 132.613281 C 202.90625 132.890625 202.675781 133.113281 202.910156 133.539062 C 202.996094 133.695312 202.839844 134.035156 202.714844 134.238281 C 200.996094 136.992188 199.179688 139.664062 197.03125 142.121094 C 194.195312 145.363281 191.496094 148.71875 188.730469 152.023438 C 188.394531 152.429688 188.015625 152.800781 187.703125 153.140625 C 187.175781 153.25 186.917969 152.964844 186.636719 152.703125 C 184.417969 150.628906 182.210938 148.546875 179.96875 146.503906 C 178.707031 145.355469 177.371094 144.289062 176.097656 143.160156 C 174.175781 141.457031 172.339844 139.652344 170.355469 138.035156 C 167.148438 135.417969 164.125 132.605469 161.148438 129.738281 C 159.648438 128.296875 158.472656 126.601562 157.367188 124.851562 C 156.003906 122.703125 154.972656 120.386719 153.890625 118.09375 C 153.289062 116.820312 152.964844 115.476562 153.019531 114.105469 C 153.070312 112.792969 153.175781 111.460938 153.601562 110.191406 C 154.414062 107.773438 155.492188 105.496094 157.214844 103.570312 C 158.550781 102.074219 160.113281 100.894531 162.023438 100.207031 C 162.964844 99.867188 163.902344 99.71875 164.882812 100 C 165.621094 100.214844 166.367188 100.394531 167.109375 100.59375 C 169.277344 101.171875 171.257812 102.113281 172.976562 103.574219 C 174.4375 104.816406 175.925781 106.027344 177.390625 107.265625 C 177.945312 107.730469 178.28125 108.335938 178.566406 109.003906 C 179.125 110.332031 179.738281 111.640625 180.378906 112.929688 C 180.753906 113.683594 181.183594 113.8125 181.996094 113.535156 C 182.347656 114.367188 183.09375 114.578125 183.910156 114.679688 C 184.433594 114.746094 184.949219 114.839844 185.40625 114.910156 C 186.503906 113.058594 187.578125 111.273438 188.625 109.46875 C 189.800781 107.445312 191.101562 105.519531 192.707031 103.808594 C 192.90625 103.597656 193.074219 103.347656 193.253906 103.117188 C 193.878906 102.558594 194.503906 102 195.125 101.441406 Z M 81.558594 139.804688 C 81.769531 139.953125 82.003906 140.082031 82.195312 140.257812 C 84.917969 142.746094 87.640625 145.226562 90.621094 147.414062 C 91.261719 147.882812 91.859375 148.417969 92.457031 148.945312 C 93.03125 149.453125 93.273438 149.507812 93.9375 149.140625 C 94.140625 149.027344 94.316406 148.863281 94.492188 148.707031 C 96.742188 146.699219 98.90625 144.609375 100.910156 142.359375 C 103.109375 139.890625 105.3125 137.425781 107.527344 134.972656 C 110.085938 132.140625 112.386719 129.113281 114.378906 125.863281 C 115.71875 123.675781 117.023438 121.464844 118.273438 119.226562 C 119.519531 116.996094 120.214844 114.507812 121.46875 112.265625 C 122.0625 111.199219 122.378906 109.96875 122.738281 108.789062 C 123.5625 106.09375 123.613281 103.394531 122.640625 100.71875 C 121.933594 98.777344 120.960938 97.023438 119.179688 95.824219 C 118.566406 95.410156 117.925781 95.195312 117.179688 95.28125 C 115.804688 95.441406 114.414062 95.53125 113.046875 95.75 C 110.027344 96.230469 107.203125 97.28125 104.707031 99.039062 C 100.429688 102.046875 96.566406 105.496094 93.800781 110.011719 C 93.445312 110.589844 93.074219 111.152344 92.648438 111.824219 C 92.175781 111.765625 91.65625 111.722656 91.140625 111.636719 C 90.648438 111.554688 90.300781 111.199219 90.273438 110.746094 C 90.207031 109.652344 89.539062 108.882812 88.894531 108.136719 C 86.738281 105.636719 84.59375 103.117188 82.304688 100.738281 C 79.359375 97.683594 75.742188 95.652344 71.6875 94.414062 C 70.984375 94.199219 70.242188 94.003906 69.519531 94.003906 C 66.554688 93.996094 63.867188 94.851562 61.636719 96.871094 C 58.824219 99.421875 57.308594 102.636719 56.835938 106.371094 C 56.507812 108.957031 57.003906 111.414062 57.996094 113.796875 C 58.230469 114.355469 58.351562 114.996094 59.101562 115.164062 C 59.25 115.199219 59.355469 115.46875 59.457031 115.640625 C 60.507812 117.445312 61.546875 119.257812 62.605469 121.054688 C 63.941406 123.328125 65.484375 125.4375 67.382812 127.277344 C 69.5 129.335938 71.613281 131.394531 73.746094 133.433594 C 74.578125 134.226562 75.492188 134.9375 76.316406 135.738281 C 77.164062 136.5625 78.316406 136.929688 79.179688 137.75 C 79.539062 138.089844 79.972656 138.316406 80.179688 138.808594 C 80.253906 138.984375 80.453125 139.109375 80.59375 139.253906 C 81.023438 139.25 81.363281 139.445312 81.558594 139.804688 Z M 81.558594 139.804688 " fill-opacity="1" fill-rule="nonzero"/></svg>