<svg xmlns="http://www.w3.org/2000/svg" xmlns:xlink="http://www.w3.org/1999/xlink" width="500" zoomAndPan="magnify" viewBox="0 0 375 225" height="300" preserveAspectRatio="xMidYMid meet" version="1.0"><defs><clipPath id="id1"><path d="M 0 36.136719 L 375 36.136719 L 375 189 L 0 189 Z M 0 36.136719 " clip-rule="nonzero"/></clipPath></defs><g clip-path="url(#id1)"><path fill="rgb(21.179199%, 27.059937%, 30.979919%)" d="M 296.226562 79.691406 C 302.53125 79.507812 308.628906 79.140625 314.574219 80.84375 C 320.503906 82.542969 325.964844 85.183594 331.050781 88.671875 C 336.15625 92.171875 340.449219 96.417969 343.953125 101.828125 C 343.203125 101.660156 342.917969 101.226562 342.566406 100.921875 C 338.210938 97.179688 333.644531 93.726562 328.734375 90.753906 C 322.964844 87.257812 316.800781 84.636719 310.089844 83.773438 C 303.300781 82.898438 296.503906 83.269531 289.789062 84.730469 C 288.714844 84.964844 287.71875 85.378906 286.890625 86.113281 C 278.894531 93.226562 270.1875 99.476562 262.1875 106.582031 C 259.757812 108.734375 257.472656 111.050781 255.035156 113.195312 C 250.675781 117.03125 246.089844 120.558594 240.796875 123.058594 C 240.175781 123.351562 239.59375 123.78125 239.070312 124.230469 C 229.816406 132.191406 216.378906 133.292969 205.964844 126.910156 C 203.707031 125.527344 201.757812 123.804688 200.546875 121.390625 C 199.574219 119.445312 199.382812 117.511719 200.84375 115.648438 C 201.546875 114.757812 202.367188 114.378906 203.496094 114.566406 C 205.757812 114.9375 208.03125 115.210938 210.28125 115.628906 C 216.117188 116.71875 221.746094 116.277344 227.3125 114.03125 C 233.914062 111.367188 240.011719 107.875 245.769531 103.730469 C 252.328125 99.003906 258.792969 94.144531 265.082031 89.0625 C 274.15625 81.722656 283.855469 75.273438 293.578125 68.859375 C 301.230469 63.8125 308.894531 58.78125 316.726562 54.019531 C 327.863281 47.242188 339.507812 41.570312 352.089844 37.996094 C 356.019531 36.878906 360.023438 36.171875 364.125 36.136719 C 366.207031 36.121094 368.167969 36.40625 369.929688 37.644531 C 370.542969 38.074219 371.304688 38.296875 372.007812 38.59375 C 372.65625 38.867188 373.300781 39.140625 373.808594 39.644531 C 374.285156 40.121094 374.570312 40.6875 374.355469 41.371094 C 374.144531 42.039062 373.597656 42.164062 372.976562 42.121094 C 372.65625 42.101562 372.28125 42.058594 372.085938 42.335938 C 371.246094 43.53125 369.996094 43.320312 368.800781 43.378906 C 364.839844 43.574219 360.960938 44.265625 357.191406 45.476562 C 347.148438 48.707031 337.554688 52.898438 328.804688 58.875 C 322.179688 63.40625 315.363281 67.625 308.363281 71.546875 C 304.808594 73.535156 301.355469 75.699219 297.949219 77.9375 C 297.378906 78.308594 296.679688 78.5625 296.226562 79.691406 Z M 4.324219 98.285156 C 5.359375 97.664062 6.433594 97.101562 7.503906 96.546875 C 25.726562 87.105469 45.003906 85.011719 65.027344 88.351562 C 74.984375 90.011719 84.523438 93.171875 93.871094 96.929688 C 95.015625 97.386719 95.988281 98.078125 96.886719 98.902344 C 99.75 101.53125 102.722656 104.03125 105.847656 106.34375 C 107.75 107.753906 109.421875 109.371094 111.007812 111.136719 C 115.679688 116.339844 121.394531 119.738281 128.4375 120.464844 C 132.324219 120.867188 136.238281 120.984375 139.320312 117.84375 C 139.453125 117.710938 139.632812 117.621094 139.796875 117.527344 C 141.757812 116.410156 142.53125 114.410156 143.464844 112.539062 C 143.550781 112.371094 143.582031 112.171875 143.59375 111.984375 C 143.675781 110.835938 143.050781 110.367188 141.960938 110.839844 C 140.65625 111.402344 139.289062 111.734375 137.90625 111.878906 C 134.476562 112.226562 131.09375 112.414062 127.886719 110.558594 C 124.675781 108.703125 121.703125 106.539062 118.828125 104.21875 C 114.464844 100.695312 110.4375 96.796875 106.347656 92.96875 C 98.125 85.28125 89.238281 78.480469 79.441406 72.960938 C 66.175781 65.488281 52.457031 58.9375 38.363281 53.175781 C 27.238281 48.628906 15.730469 48.21875 4.019531 49.808594 C 2.941406 49.953125 1.910156 50.304688 1.105469 51.113281 C 0.738281 51.480469 0.40625 51.894531 0.535156 52.453125 C 0.667969 53.035156 1.136719 53.222656 1.671875 53.308594 C 6.59375 54.078125 11.273438 55.78125 16.066406 57.058594 C 26.335938 59.804688 36.515625 62.855469 46.371094 66.859375 C 60.167969 72.460938 72.929688 79.992188 85.320312 88.195312 C 85.898438 88.578125 86.433594 89.039062 86.957031 89.503906 C 87.273438 89.785156 87.691406 90.046875 87.546875 90.710938 C 86.644531 90.878906 85.859375 90.394531 85.054688 90.109375 C 75.054688 86.5625 64.855469 84.027344 54.199219 83.488281 C 44.214844 82.988281 34.363281 83.539062 24.757812 86.5625 C 19.28125 88.289062 13.9375 90.3125 8.988281 93.277344 C 5.976562 95.078125 3.472656 97.449219 1.332031 100.253906 C 2.328125 99.59375 3.304688 98.898438 4.324219 98.285156 Z M 96.273438 168.558594 C 92.863281 168.953125 89.472656 169.480469 86.097656 170.113281 C 83.789062 170.546875 81.453125 170.832031 79.09375 170.878906 C 71.949219 171.019531 64.886719 170.316406 57.863281 168.984375 C 48.800781 167.261719 40.304688 164.304688 33.167969 158.191406 C 31.71875 156.953125 30.265625 155.714844 28.816406 154.472656 C 28.480469 154.183594 28.171875 153.859375 27.828125 153.578125 C 27.398438 153.226562 26.910156 153.082031 26.4375 153.464844 C 25.984375 153.832031 25.933594 154.367188 26.160156 154.859375 C 26.390625 155.375 26.699219 155.867188 27.039062 156.320312 C 28.039062 157.648438 29.253906 158.777344 30.445312 159.921875 C 31.046875 160.5 31.613281 161.085938 31.984375 161.851562 C 32.605469 163.136719 33.59375 164.125 34.671875 165.035156 C 38.558594 168.304688 42.886719 170.785156 47.691406 172.445312 C 58.160156 176.0625 68.90625 177.527344 79.96875 176.90625 C 88.070312 176.457031 94.921875 173.207031 101.027344 168.082031 C 101.09375 168.023438 101.078125 167.859375 101.121094 167.640625 C 99.480469 167.957031 97.890625 168.371094 96.273438 168.558594 Z M 324.683594 168.75 C 317.421875 172.730469 309.710938 175.746094 302.175781 179.132812 C 300.269531 179.988281 298.222656 180.535156 296.234375 181.203125 C 290.625 183.089844 284.855469 183.140625 279.058594 182.554688 C 273.886719 182.03125 269.023438 180.28125 264.230469 178.382812 C 260.507812 176.90625 256.65625 175.75 253.082031 173.90625 C 252.539062 173.628906 251.976562 173.511719 251.488281 173.984375 C 250.96875 174.488281 250.976562 175.117188 251.21875 175.753906 C 251.421875 176.304688 251.804688 176.730469 252.210938 177.140625 C 253.074219 178.003906 254.082031 178.675781 255.152344 179.242188 C 260.324219 181.996094 265.585938 184.566406 271.21875 186.242188 C 279.890625 188.816406 288.601562 189.15625 297.335938 186.453125 C 301.480469 185.167969 305.4375 183.457031 309.328125 181.546875 C 315.609375 178.46875 320.4375 173.613281 325.484375 168.554688 C 325.023438 168.664062 324.832031 168.667969 324.683594 168.75 Z M 268.570312 65.203125 C 259.664062 71.136719 250.988281 77.335938 243.382812 84.96875 C 238.761719 89.609375 233.820312 93.9375 228.792969 98.152344 C 225.839844 100.625 222.601562 101.839844 218.757812 101.296875 C 218.128906 101.210938 217.480469 101.164062 216.863281 101.359375 C 215.949219 101.652344 215.765625 102.441406 216.460938 103.117188 C 216.683594 103.332031 216.964844 103.503906 217.25 103.644531 C 220.953125 105.441406 224.679688 105.753906 228.414062 103.746094 C 230.382812 102.691406 232.1875 101.382812 233.929688 99.988281 C 239.550781 95.488281 244.703125 90.46875 249.964844 85.558594 C 256.816406 79.167969 262.984375 72.140625 269.078125 64.96875 C 268.90625 65.046875 268.722656 65.097656 268.570312 65.203125 Z M 62.910156 124.984375 C 60.945312 128.789062 61.328125 132.628906 62.492188 136.492188 C 62.9375 137.972656 64.101562 138.890625 65.574219 139.390625 C 68.832031 140.496094 72.890625 138.828125 74.496094 135.625 C 75.769531 133.078125 76.394531 130.367188 76.191406 127.492188 C 75.972656 124.367188 73.78125 122 70.683594 121.605469 C 69.992188 121.515625 69.289062 121.535156 68.589844 121.503906 C 65.664062 120.988281 64.140625 122.609375 62.910156 124.984375 Z M 292.601562 132.660156 C 292.429688 131.269531 291.738281 130.191406 290.632812 129.304688 C 288.726562 127.777344 283.371094 128.363281 282.078125 131.261719 C 280.949219 133.792969 280.117188 136.359375 279.917969 139.121094 C 279.820312 140.46875 280.070312 141.789062 280.542969 143.050781 C 281.359375 145.234375 282.976562 146.40625 285.273438 146.628906 C 287.972656 146.890625 289.769531 145.539062 290.9375 143.261719 C 292.242188 140.722656 292.710938 137.972656 292.746094 135.132812 C 292.699219 134.308594 292.699219 133.476562 292.601562 132.660156 Z M 118.984375 88.320312 C 118.984375 88.445312 118.992188 88.574219 119.035156 88.691406 C 121.128906 94.796875 125.128906 99.308594 130.609375 102.585938 C 132.101562 103.480469 133.722656 103.605469 135.394531 103.417969 C 136.699219 103.273438 137.5625 102.773438 137.464844 102.125 C 137.300781 101.011719 136.292969 101.050781 135.523438 101.019531 C 133.582031 100.941406 132 100.09375 130.480469 98.996094 C 128.199219 97.347656 126.25 95.355469 124.394531 93.257812 C 122.765625 91.414062 121.015625 89.6875 119.152344 88.050781 C 119.046875 88.214844 118.984375 88.269531 118.984375 88.320312 Z M 118.984375 88.320312 " fill-opacity="1" fill-rule="nonzero"/><path fill="rgb(21.179199%, 27.059937%, 30.979919%)" d="M 296.226562 79.691406 C 302.53125 79.507812 308.628906 79.140625 314.574219 80.84375 C 320.503906 82.542969 325.964844 85.183594 331.050781 88.671875 C 336.15625 92.171875 340.449219 96.417969 343.953125 101.828125 C 343.203125 101.660156 342.917969 101.226562 342.566406 100.921875 C 338.210938 97.179688 333.644531 93.726562 328.734375 90.753906 C 322.964844 87.257812 316.800781 84.636719 310.089844 83.773438 C 303.300781 82.898438 296.503906 83.269531 289.789062 84.730469 C 288.714844 84.964844 287.71875 85.378906 286.890625 86.113281 C 278.894531 93.226562 270.1875 99.476562 262.1875 106.582031 C 259.757812 108.734375 257.472656 111.050781 255.035156 113.195312 C 250.675781 117.03125 246.089844 120.558594 240.796875 123.058594 C 240.175781 123.351562 239.59375 123.78125 239.070312 124.230469 C 229.816406 132.191406 216.378906 133.292969 205.964844 126.910156 C 203.707031 125.527344 201.757812 123.804688 200.546875 121.390625 C 199.574219 119.445312 199.382812 117.511719 200.84375 115.648438 C 201.546875 114.757812 202.367188 114.378906 203.496094 114.566406 C 205.757812 114.9375 208.03125 115.210938 210.28125 115.628906 C 216.117188 116.71875 221.746094 116.277344 227.3125 114.03125 C 233.914062 111.367188 240.011719 107.875 245.769531 103.730469 C 252.328125 99.003906 258.792969 94.144531 265.082031 89.0625 C 274.15625 81.722656 283.855469 75.273438 293.578125 68.859375 C 301.230469 63.8125 308.894531 58.78125 316.726562 54.019531 C 327.863281 47.242188 339.507812 41.570312 352.089844 37.996094 C 356.019531 36.878906 360.023438 36.171875 364.125 36.136719 C 366.207031 36.121094 368.167969 36.40625 369.929688 37.644531 C 370.542969 38.074219 371.304688 38.296875 372.007812 38.59375 C 372.65625 38.867188 373.300781 39.140625 373.808594 39.644531 C 374.285156 40.121094 374.570312 40.6875 374.355469 41.371094 C 374.144531 42.039062 373.597656 42.164062 372.976562 42.121094 C 372.65625 42.101562 372.28125 42.058594 372.085938 42.335938 C 371.246094 43.53125 369.996094 43.320312 368.800781 43.378906 C 364.839844 43.574219 360.960938 44.265625 357.191406 45.476562 C 347.148438 48.707031 337.554688 52.898438 328.804688 58.875 C 322.179688 63.40625 315.363281 67.625 308.363281 71.546875 C 304.808594 73.535156 301.355469 75.699219 297.949219 77.9375 C 297.378906 78.308594 296.679688 78.5625 296.226562 79.691406 Z M 4.324219 98.285156 C 5.359375 97.664062 6.433594 97.101562 7.503906 96.546875 C 25.726562 87.105469 45.003906 85.011719 65.027344 88.351562 C 74.984375 90.011719 84.523438 93.171875 93.871094 96.929688 C 95.015625 97.386719 95.988281 98.078125 96.886719 98.902344 C 99.75 101.53125 102.722656 104.03125 105.847656 106.34375 C 107.75 107.753906 109.421875 109.371094 111.007812 111.136719 C 115.679688 116.339844 121.394531 119.738281 128.4375 120.464844 C 132.324219 120.867188 136.238281 120.984375 139.320312 117.84375 C 139.453125 117.710938 139.632812 117.621094 139.796875 117.527344 C 141.757812 116.410156 142.53125 114.410156 143.464844 112.539062 C 143.550781 112.371094 143.582031 112.171875 143.59375 111.984375 C 143.675781 110.835938 143.050781 110.367188 141.960938 110.839844 C 140.65625 111.402344 139.289062 111.734375 137.90625 111.878906 C 134.476562 112.226562 131.09375 112.414062 127.886719 110.558594 C 124.675781 108.703125 121.703125 106.539062 118.828125 104.21875 C 114.464844 100.695312 110.4375 96.796875 106.347656 92.96875 C 98.125 85.28125 89.238281 78.480469 79.441406 72.960938 C 66.175781 65.488281 52.457031 58.9375 38.363281 53.175781 C 27.238281 48.628906 15.730469 48.21875 4.019531 49.808594 C 2.941406 49.953125 1.910156 50.304688 1.105469 51.113281 C 0.738281 51.480469 0.40625 51.894531 0.535156 52.453125 C 0.667969 53.035156 1.136719 53.222656 1.671875 53.308594 C 6.59375 54.078125 11.273438 55.78125 16.066406 57.058594 C 26.335938 59.804688 36.515625 62.855469 46.371094 66.859375 C 60.167969 72.460938 72.929688 79.992188 85.320312 88.195312 C 85.898438 88.578125 86.433594 89.039062 86.957031 89.503906 C 87.273438 89.785156 87.691406 90.046875 87.546875 90.710938 C 86.644531 90.878906 85.859375 90.394531 85.054688 90.109375 C 75.054688 86.5625 64.855469 84.027344 54.199219 83.488281 C 44.214844 82.988281 34.363281 83.539062 24.757812 86.5625 C 19.28125 88.289062 13.9375 90.3125 8.988281 93.277344 C 5.976562 95.078125 3.472656 97.449219 1.332031 100.253906 C 2.328125 99.59375 3.304688 98.898438 4.324219 98.285156 Z M 96.273438 168.558594 C 92.863281 168.953125 89.472656 169.480469 86.097656 170.113281 C 83.789062 170.546875 81.453125 170.832031 79.09375 170.878906 C 71.949219 171.019531 64.886719 170.316406 57.863281 168.984375 C 48.800781 167.261719 40.304688 164.304688 33.167969 158.191406 C 31.71875 156.953125 30.265625 155.714844 28.816406 154.472656 C 28.480469 154.183594 28.171875 153.859375 27.828125 153.578125 C 27.398438 153.226562 26.910156 153.082031 26.4375 153.464844 C 25.984375 153.832031 25.933594 154.367188 26.160156 154.859375 C 26.390625 155.375 26.699219 155.867188 27.039062 156.320312 C 28.039062 157.648438 29.253906 158.777344 30.445312 159.921875 C 31.046875 160.5 31.613281 161.085938 31.984375 161.851562 C 32.605469 163.136719 33.59375 164.125 34.671875 165.035156 C 38.558594 168.304688 42.886719 170.785156 47.691406 172.445312 C 58.160156 176.0625 68.90625 177.527344 79.96875 176.90625 C 88.070312 176.457031 94.921875 173.207031 101.027344 168.082031 C 101.09375 168.023438 101.078125 167.859375 101.121094 167.640625 C 99.480469 167.957031 97.890625 168.371094 96.273438 168.558594 Z M 324.683594 168.75 C 317.421875 172.730469 309.710938 175.746094 302.175781 179.132812 C 300.269531 179.988281 298.222656 180.535156 296.234375 181.203125 C 290.625 183.089844 284.855469 183.140625 279.058594 182.554688 C 273.886719 182.03125 269.023438 180.28125 264.230469 178.382812 C 260.507812 176.90625 256.65625 175.75 253.082031 173.90625 C 252.539062 173.628906 251.976562 173.511719 251.488281 173.984375 C 250.96875 174.488281 250.976562 175.117188 251.21875 175.753906 C 251.421875 176.304688 251.804688 176.730469 252.210938 177.140625 C 253.074219 178.003906 254.082031 178.675781 255.152344 179.242188 C 260.324219 181.996094 265.585938 184.566406 271.21875 186.242188 C 279.890625 188.816406 288.601562 189.15625 297.335938 186.453125 C 301.480469 185.167969 305.4375 183.457031 309.328125 181.546875 C 315.609375 178.46875 320.4375 173.613281 325.484375 168.554688 C 325.023438 168.664062 324.832031 168.667969 324.683594 168.75 Z M 268.570312 65.203125 C 259.664062 71.136719 250.988281 77.335938 243.382812 84.96875 C 238.761719 89.609375 233.820312 93.9375 228.792969 98.152344 C 225.839844 100.625 222.601562 101.839844 218.757812 101.296875 C 218.128906 101.210938 217.480469 101.164062 216.863281 101.359375 C 215.949219 101.652344 215.765625 102.441406 216.460938 103.117188 C 216.683594 103.332031 216.964844 103.503906 217.25 103.644531 C 220.953125 105.441406 224.679688 105.753906 228.414062 103.746094 C 230.382812 102.691406 232.1875 101.382812 233.929688 99.988281 C 239.550781 95.488281 244.703125 90.46875 249.964844 85.558594 C 256.816406 79.167969 262.984375 72.140625 269.078125 64.96875 C 268.90625 65.046875 268.722656 65.097656 268.570312 65.203125 Z M 62.910156 124.984375 C 60.945312 128.789062 61.328125 132.628906 62.492188 136.492188 C 62.9375 137.972656 64.101562 138.890625 65.574219 139.390625 C 68.832031 140.496094 72.890625 138.828125 74.496094 135.625 C 75.769531 133.078125 76.394531 130.367188 76.191406 127.492188 C 75.972656 124.367188 73.78125 122 70.683594 121.605469 C 69.992188 121.515625 69.289062 121.535156 68.589844 121.503906 C 65.664062 120.988281 64.140625 122.609375 62.910156 124.984375 Z M 292.601562 132.660156 C 292.429688 131.269531 291.738281 130.191406 290.632812 129.304688 C 288.726562 127.777344 283.371094 128.363281 282.078125 131.261719 C 280.949219 133.792969 280.117188 136.359375 279.917969 139.121094 C 279.820312 140.46875 280.070312 141.789062 280.542969 143.050781 C 281.359375 145.234375 282.976562 146.40625 285.273438 146.628906 C 287.972656 146.890625 289.769531 145.539062 290.9375 143.261719 C 292.242188 140.722656 292.710938 137.972656 292.746094 135.132812 C 292.699219 134.308594 292.699219 133.476562 292.601562 132.660156 Z M 118.984375 88.320312 C 118.984375 88.445312 118.992188 88.574219 119.035156 88.691406 C 121.128906 94.796875 125.128906 99.308594 130.609375 102.585938 C 132.101562 103.480469 133.722656 103.605469 135.394531 103.417969 C 136.699219 103.273438 137.5625 102.773438 137.464844 102.125 C 137.300781 101.011719 136.292969 101.050781 135.523438 101.019531 C 133.582031 100.941406 132 100.09375 130.480469 98.996094 C 128.199219 97.347656 126.25 95.355469 124.394531 93.257812 C 122.765625 91.414062 121.015625 89.6875 119.152344 88.050781 C 119.046875 88.214844 118.984375 88.269531 118.984375 88.320312 Z M 118.984375 88.320312 " fill-opacity="1" fill-rule="nonzero"/></g></svg>