<svg xmlns="http://www.w3.org/2000/svg" width="224.88" viewBox="0 0 224.88 375" height="375" version="1.0"><path fill="#170B28" d="M 202.671875 172.046875 C 202.375 172.773438 202.054688 173.492188 201.753906 174.222656 C 201.589844 173.8125 201.4375 173.402344 201.25 172.992188 C 201.6875 172.070312 201.664062 170.796875 201.726562 169.855469 C 201.765625 169.304688 200.847656 169.105469 200.65625 169.617188 C 200.503906 170.007812 200.320312 170.457031 200.152344 170.921875 C 199.796875 170.3125 199.433594 169.710938 199.023438 169.113281 C 199.21875 168.421875 199.308594 167.671875 199.511719 166.96875 C 199.683594 166.359375 198.820312 166.132812 198.523438 166.609375 C 198.308594 166.945312 198.113281 167.296875 197.929688 167.65625 C 197.566406 167.1875 197.222656 166.707031 196.839844 166.246094 C 197.253906 165.1875 196.453125 163.742188 195.566406 163.082031 C 195.40625 162.964844 195.234375 162.960938 195.082031 163.007812 C 195.046875 162.570312 194.433594 162.210938 194.007812 162.609375 C 193.90625 162.707031 193.886719 162.804688 193.8125 162.898438 C 193.1875 162.257812 192.5625 161.636719 191.957031 161.0625 C 192.035156 160.796875 192.125 160.535156 192.195312 160.257812 C 192.28125 159.953125 191.769531 159.84375 191.71875 160.152344 C 191.683594 160.351562 191.664062 160.550781 191.628906 160.75 C 190.828125 159.992188 190.042969 159.277344 189.347656 158.664062 C 186.457031 156.125 183.339844 153.722656 180.085938 151.554688 C 187.980469 155.238281 202.0625 162.347656 203.261719 171.769531 C 203.019531 171.730469 202.765625 171.800781 202.671875 172.046875 Z M 199.019531 182.308594 C 199.023438 181.605469 198.160156 181.007812 197.570312 181.605469 C 198.046875 180.523438 198.613281 179.476562 199.128906 178.417969 C 199.527344 177.59375 198.367188 177.003906 197.886719 177.761719 C 197.417969 178.503906 196.617188 179.449219 196.015625 180.453125 C 195.890625 180.097656 195.8125 179.746094 195.664062 179.394531 C 196.441406 178.238281 196.609375 176.398438 196.933594 175.195312 C 197.117188 174.519531 196.121094 174.183594 195.800781 174.777344 C 195.472656 175.390625 194.9375 176.152344 194.496094 176.949219 C 194.339844 176.664062 194.199219 176.371094 194.03125 176.085938 C 195.082031 175.234375 195.378906 173.632812 195.722656 172.375 C 195.84375 171.933594 195.1875 171.5625 194.902344 171.945312 C 194.289062 172.777344 193.5 173.757812 193.234375 174.800781 C 192.847656 174.214844 192.460938 173.636719 192.054688 173.089844 C 192.617188 172.144531 192.9375 171.003906 193.519531 170.074219 C 193.953125 169.386719 192.855469 168.835938 192.417969 169.496094 C 191.945312 170.210938 191.425781 171.027344 191.132812 171.886719 C 190.578125 171.164062 190.015625 170.472656 189.476562 169.847656 C 190.195312 169.335938 190.511719 168.511719 190.46875 167.621094 C 190.441406 167.027344 189.632812 166.6875 189.234375 167.175781 C 188.832031 167.660156 188.527344 168.144531 188.445312 168.667969 C 188.167969 168.359375 187.875 168.039062 187.628906 167.765625 C 187.484375 167.617188 187.324219 167.46875 187.175781 167.316406 C 187.589844 166.75 187.648438 166.082031 187.671875 165.351562 C 187.691406 164.839844 186.878906 164.660156 186.671875 165.132812 C 186.492188 165.5625 186.332031 165.984375 186.273438 166.40625 C 185.828125 165.957031 185.402344 165.511719 184.933594 165.058594 C 185.023438 164.839844 185.0625 164.71875 185.132812 164.375 C 185.214844 163.984375 184.621094 163.851562 184.527344 164.242188 C 184.484375 164.421875 184.46875 164.511719 184.453125 164.601562 C 183.976562 164.15625 183.515625 163.703125 183.019531 163.257812 C 183.09375 162.878906 183.074219 162.464844 183 162.152344 C 182.960938 161.984375 182.789062 161.832031 182.625 161.8125 L 182.585938 161.800781 L 182.402344 161.851562 L 182.382812 161.8125 L 182.214844 161.980469 C 182.109375 162.074219 182.023438 162.1875 181.972656 162.347656 C 177.671875 158.617188 172.761719 155.25 167.753906 153.453125 C 162.363281 151.53125 156.078125 149.980469 150.214844 150.101562 C 150.261719 149.996094 150.304688 149.890625 150.335938 149.78125 C 158.320312 147.269531 164.472656 145.898438 172.519531 149.835938 C 176.882812 151.964844 180.863281 154.996094 184.664062 157.992188 C 190.097656 162.273438 204.652344 174.457031 199.019531 182.308594 Z M 183.5625 167.777344 C 178.875 162.738281 172.511719 158.734375 165.910156 156.785156 C 163.992188 156.214844 161.972656 155.800781 159.929688 155.457031 L 159.925781 155.453125 C 156.507812 154.875 153.011719 154.554688 149.664062 154.515625 C 148.9375 154.507812 148.167969 155.214844 147.953125 155.582031 C 147.511719 155.460938 147.039062 155.554688 146.707031 155.953125 C 147.09375 154.210938 144.808594 152.691406 147.761719 152.199219 C 150.191406 151.789062 152.828125 152.289062 155.230469 152.664062 C 159.445312 153.328125 164.5 154.144531 168.28125 156.242188 C 174.480469 159.6875 180.105469 163.746094 185.160156 168.75 C 187.945312 171.496094 190.390625 174.597656 192.328125 178.003906 C 192.945312 179.089844 193.347656 180.125 193.628906 181.152344 C 191 176.261719 187.042969 171.53125 183.5625 167.777344 Z M 132.050781 191.410156 C 121.28125 203.542969 108.769531 214.066406 98.359375 226.582031 C 93.617188 232.277344 89.523438 238.503906 85.171875 244.492188 C 80.476562 250.949219 73.808594 255.992188 68.125 261.527344 C 57.960938 271.429688 45.484375 281.6875 38.296875 294.050781 L 38.292969 294.09375 C 37.867188 294.253906 37.429688 294.402344 37.023438 294.570312 C 36.003906 294.988281 35.039062 295.507812 34.09375 296.066406 C 35.324219 294.613281 36.558594 293.179688 37.703125 291.777344 C 42.796875 285.53125 47.722656 279.179688 52.964844 273.058594 C 64.382812 259.742188 76.296875 246.820312 88.167969 233.914062 C 110.054688 210.121094 134.585938 186.957031 148.871094 157.472656 C 149.089844 157.023438 149.03125 156.605469 148.832031 156.269531 C 149.148438 156.367188 149.441406 156.453125 149.503906 156.460938 C 151.367188 156.734375 153.265625 156.851562 155.136719 157.097656 C 155.796875 157.183594 156.488281 157.277344 157.175781 157.363281 C 146.777344 167.066406 141.457031 180.808594 132.050781 191.410156 Z M 43.007812 294.730469 C 41.695312 296.652344 40.414062 298.589844 39.226562 300.601562 C 39.101562 300.8125 39.429688 301.050781 39.585938 300.851562 C 41.257812 298.707031 42.949219 296.582031 44.621094 294.433594 C 47.527344 294.046875 50.425781 294.277344 52.960938 295.492188 C 60.464844 299.070312 57.050781 311.074219 54.042969 318.484375 C 53.074219 319.675781 52.144531 320.898438 51.300781 322.175781 C 51.074219 322.507812 51.570312 322.765625 51.824219 322.546875 C 52.074219 322.328125 52.316406 322.09375 52.5625 321.875 C 52.511719 321.984375 52.457031 322.105469 52.414062 322.207031 C 51.917969 323.238281 53.015625 324.183594 53.980469 323.652344 C 54.535156 323.34375 55.117188 323.054688 55.707031 322.757812 C 55.402344 323.027344 55.097656 323.304688 54.816406 323.558594 C 52.921875 325.292969 51.128906 327.257812 49.859375 329.5 C 49.613281 329.941406 50.175781 330.496094 50.597656 330.183594 C 52.132812 329.027344 53.410156 327.597656 54.75 326.226562 C 56.160156 324.78125 57.9375 322.828125 59.945312 322.234375 C 60.527344 322.054688 60.527344 321.097656 59.898438 320.988281 C 66.046875 318.851562 72.894531 318.570312 76.648438 324.878906 C 76.75 325.054688 76.882812 325.167969 77.023438 325.257812 C 76.652344 325.597656 76.296875 325.941406 75.917969 326.277344 C 73.738281 328.257812 71.664062 330.292969 69.578125 332.371094 C 68.261719 333.695312 64.136719 338.683594 61.957031 338.167969 C 61.109375 337.96875 60.480469 339.09375 61.117188 339.703125 C 60.105469 340.089844 59.136719 340.566406 58.535156 340.804688 C 56.410156 341.648438 54.132812 342.847656 52.753906 344.726562 C 52.332031 345.304688 53.085938 346.058594 53.59375 345.503906 C 55.234375 343.710938 57.820312 342.894531 60.046875 342.089844 C 60.628906 341.878906 61.464844 341.722656 62.289062 341.515625 C 58.242188 343.660156 54.332031 345.945312 49.953125 347.640625 C 44.730469 349.65625 39.449219 351.492188 34.398438 353.929688 C 35.019531 353.277344 35.65625 352.648438 36.242188 351.960938 C 36.371094 351.804688 36.15625 351.609375 36.011719 351.746094 C 35.019531 352.691406 34.046875 353.667969 33.066406 354.632812 C 32.265625 355.046875 31.511719 355.539062 30.734375 355.988281 C 31.742188 355.039062 32.769531 354.121094 33.800781 353.203125 C 35.980469 351.261719 38.269531 349.398438 40.261719 347.269531 C 40.539062 346.972656 40.160156 346.585938 39.835938 346.757812 C 37.097656 348.171875 34.765625 350.691406 32.542969 352.78125 C 31.777344 353.496094 28.152344 356.023438 28.378906 357.324219 L 28.390625 357.339844 C 27.988281 357.589844 27.5625 357.800781 27.167969 358.054688 C 26.714844 356.972656 26.488281 356.054688 26.714844 354.6875 C 26.863281 353.808594 25.878906 352.929688 25.058594 353.53125 C 24.714844 353.785156 24.109375 353.671875 23.554688 353.535156 C 23.5625 352.894531 23.652344 352.246094 23.71875 351.597656 C 23.828125 351.265625 23.972656 350.957031 24.0625 350.617188 C 24.140625 350.347656 23.902344 350.203125 23.664062 350.203125 C 23.445312 349.730469 22.90625 349.496094 22.378906 349.632812 C 21.96875 349.734375 21.761719 349.839844 21.457031 350.03125 C 21.480469 349.867188 21.503906 349.691406 21.535156 349.445312 C 21.683594 348.742188 21.835938 348.039062 21.992188 347.339844 C 22.160156 346.539062 21.402344 345.894531 20.640625 346.117188 C 19.53125 346.441406 18.4375 346.804688 17.339844 347.160156 C 17.210938 347.050781 17.0625 346.980469 16.890625 346.945312 C 16.613281 346.160156 16.277344 345.402344 16.214844 344.53125 C 16.199219 344.359375 16.113281 344.171875 16.003906 344.011719 C 18.863281 336.570312 22.460938 329.804688 26.433594 322.894531 C 26.675781 322.46875 26.003906 322.117188 25.765625 322.539062 C 22.035156 329.203125 17.367188 336.207031 15.707031 343.777344 C 15.617188 343.722656 15.546875 343.628906 15.433594 343.621094 C 15.054688 343.582031 14.714844 343.585938 14.367188 343.582031 L 14.417969 343.390625 C 14.683594 342.078125 12.667969 341.632812 12.390625 342.945312 C 12.359375 343.105469 12.296875 343.269531 12.253906 343.433594 C 12.050781 343.121094 11.601562 342.96875 11.246094 343.167969 C 13.300781 338.742188 15.480469 334.363281 17.074219 329.867188 C 18.320312 326.359375 19.082031 322.644531 20.042969 319.054688 C 20.679688 316.664062 21.457031 310.617188 23.4375 308.289062 C 23.628906 308.59375 24.183594 308.65625 24.332031 308.277344 C 24.402344 308.101562 24.46875 307.921875 24.539062 307.746094 C 24.730469 307.632812 24.878906 307.460938 24.902344 307.234375 C 24.9375 306.859375 24.855469 306.402344 24.644531 306.066406 C 25.148438 305.535156 25.671875 304.996094 26.226562 304.492188 C 26 305.019531 25.792969 305.558594 25.613281 306.101562 C 25.445312 306.460938 25.28125 306.820312 25.113281 307.171875 C 24.089844 309.300781 23.074219 311.414062 22.351562 313.667969 C 22.222656 314.066406 22.804688 314.226562 23 313.90625 C 24.101562 312.160156 25.125 310.292969 25.988281 308.378906 C 26.175781 308.316406 26.351562 308.207031 26.433594 307.964844 C 27.234375 305.65625 28.457031 303.496094 29.886719 301.429688 C 30.671875 300.828125 31.449219 300.230469 32.203125 299.65625 C 35.085938 297.46875 39 295.566406 43.007812 294.730469 Z M 56.457031 318.355469 C 60.859375 314.1875 65.0625 309.773438 69.503906 305.667969 C 72.828125 302.589844 76.179688 299.546875 79.519531 296.492188 C 79.769531 304.332031 73.9375 311.597656 74.265625 319.300781 C 73.390625 318.773438 72.488281 318.328125 71.53125 318.039062 C 73.285156 313.34375 74.171875 308.050781 74.800781 303.101562 C 74.84375 302.800781 74.4375 302.710938 74.34375 303 C 72.847656 307.742188 71.441406 312.910156 71.066406 317.894531 C 66.234375 316.636719 60.535156 318.113281 55.648438 320.355469 C 55.914062 319.722656 56.1875 319.042969 56.457031 318.355469 Z M 80.382812 295.691406 C 81.359375 294.804688 82.332031 293.894531 83.308594 292.996094 C 81.179688 301.980469 78.894531 311.089844 77.992188 320.242188 C 77.9375 320.808594 78.667969 320.972656 78.855469 320.433594 C 82.078125 311.011719 83.425781 300.882812 85.355469 291.109375 C 86.304688 290.230469 87.253906 289.371094 88.191406 288.492188 C 89.328125 287.425781 90.394531 286.296875 91.507812 285.207031 C 88.6875 296.753906 85.074219 308.144531 82.742188 319.785156 C 81.359375 321.128906 80.007812 322.484375 78.601562 323.792969 L 78.550781 323.65625 C 77.523438 321.933594 76.28125 320.667969 74.914062 319.710938 L 74.976562 319.683594 C 77.113281 315.933594 77.921875 310.945312 79.023438 306.789062 C 79.992188 303.128906 80.683594 299.460938 80.382812 295.691406 Z M 94.308594 282.429688 C 95.171875 281.566406 95.988281 280.660156 96.839844 279.78125 C 96 291.433594 90.496094 302.359375 87.757812 313.605469 C 87.664062 313.976562 87.945312 314.246094 88.261719 314.320312 C 87.007812 315.585938 85.75 316.859375 84.476562 318.109375 C 88.898438 306.617188 91.648438 294.414062 94.308594 282.429688 Z M 103.589844 272.507812 C 103.753906 277.425781 100.898438 283.011719 99.339844 287.410156 C 96.960938 294.128906 94.335938 301.871094 93.386719 308.984375 C 91.984375 310.472656 90.585938 311.964844 89.152344 313.421875 C 93.824219 301.90625 97.519531 290.148438 98.769531 277.761719 C 100.402344 276.027344 101.996094 274.277344 103.589844 272.507812 Z M 108.449219 266.941406 C 105.105469 277.789062 102.289062 289.109375 101.128906 300.359375 C 99.542969 302.15625 97.976562 303.976562 96.367188 305.753906 C 98.660156 300.078125 99.453125 293.542969 101.285156 287.835938 C 102.882812 282.855469 105.667969 276.828125 104.5625 271.453125 C 105.886719 269.96875 107.148438 268.433594 108.449219 266.941406 Z M 110.464844 264.59375 C 112.777344 261.871094 115.046875 259.113281 117.292969 256.328125 C 117.015625 261.886719 114.09375 267.597656 112.621094 272.878906 C 110.605469 280.140625 107.125 286.871094 106.128906 294.398438 L 106.15625 294.515625 C 104.859375 296.035156 103.574219 297.566406 102.261719 299.070312 C 105.808594 287.832031 107.300781 275.957031 110.464844 264.59375 Z M 112.71875 286.625 C 110.917969 288.796875 109.148438 291 107.320312 293.15625 C 109.113281 288.429688 111.152344 283.503906 113.0625 278.507812 C 112.734375 281.253906 112.625 283.964844 112.71875 286.625 Z M 24.042969 360.046875 C 24.066406 359.929688 24.132812 359.824219 24.152344 359.703125 C 24.242188 358.898438 23.125 358.351562 22.726562 359.179688 C 21.921875 360.867188 20.714844 361.902344 19.320312 363.035156 C 19.09375 363.15625 18.863281 363.261719 18.644531 363.390625 C 19.269531 362.71875 19.882812 362.039062 20.496094 361.371094 C 21.863281 359.894531 23.574219 358.230469 24.484375 356.394531 C 24.539062 357.367188 24.769531 358.277344 25.398438 359.179688 C 24.949219 359.472656 24.492188 359.753906 24.042969 360.046875 Z M 15.757812 358.933594 C 16.574219 359.089844 17.402344 358.476562 17.113281 357.554688 C 17.078125 357.4375 17.058594 357.316406 17.023438 357.207031 C 17.085938 357.109375 17.136719 357.015625 17.195312 356.914062 C 17.839844 357.042969 18.601562 356.453125 18.296875 355.746094 C 18.261719 355.660156 18.214844 355.574219 18.179688 355.488281 C 19.230469 354.496094 20.328125 353.550781 21.480469 352.640625 C 21.425781 353.027344 21.40625 353.417969 21.410156 353.808594 C 20.78125 354.632812 20.289062 355.238281 20.773438 354.605469 C 19.605469 356.125 18.179688 357.445312 16.773438 358.738281 C 15.6875 359.738281 14.527344 360.65625 13.363281 361.5625 C 14.207031 360.722656 15.015625 359.84375 15.757812 358.933594 Z M 17.433594 349.308594 C 18.140625 349.089844 18.847656 348.875 19.550781 348.648438 C 19.433594 349.167969 19.320312 349.683594 19.203125 350.207031 C 19.089844 349.945312 18.953125 349.695312 18.816406 349.460938 C 18.496094 348.925781 17.46875 349.023438 17.402344 349.71875 C 17.296875 350.734375 17.386719 352.078125 18.433594 352.464844 L 18.425781 352.472656 C 18 352.828125 17.609375 353.21875 17.203125 353.597656 C 17.023438 353.292969 16.859375 352.984375 16.652344 352.710938 L 16.625 352.695312 C 16.976562 351.59375 17.273438 350.464844 17.433594 349.308594 Z M 14.09375 365.667969 C 12.976562 366.160156 11.851562 366.644531 10.730469 367.105469 L 10.503906 367.191406 C 10.488281 367.085938 10.496094 366.972656 10.457031 366.878906 C 10.578125 366.84375 10.699219 366.816406 10.820312 366.730469 C 11.777344 366.015625 12.097656 365.773438 12.609375 365.273438 C 16.136719 362.375 19.699219 359.183594 22.03125 355.289062 C 22.117188 355.339844 22.171875 355.417969 22.285156 355.445312 C 22.75 355.539062 23.277344 355.644531 23.808594 355.714844 C 22.15625 356.574219 20.828125 358.226562 19.527344 359.511719 C 17.773438 361.238281 16.027344 363 14.320312 364.777344 C 14.117188 364.992188 14.023438 365.355469 14.09375 365.667969 Z M 12.625 349.65625 C 12.65625 349.570312 12.664062 349.492188 12.691406 349.414062 C 13.140625 348.113281 13.519531 346.785156 13.867188 345.445312 C 14.546875 345.796875 14.910156 346.738281 15.078125 347.640625 C 14.195312 348.203125 13.359375 348.859375 12.625 349.65625 Z M 11.175781 357.289062 C 11.15625 356.984375 11.128906 356.683594 11.09375 356.378906 C 11.074219 355.953125 11.074219 355.523438 11.101562 355.09375 C 11.683594 354.027344 12.324219 353.003906 13.042969 352.078125 C 13.210938 352.929688 13.367188 353.792969 13.527344 354.65625 C 12.882812 355.933594 12.148438 357.175781 11.347656 358.378906 C 11.28125 358.015625 11.226562 357.660156 11.175781 357.289062 Z M 7.914062 363.140625 C 7.828125 363.25 7.796875 363.363281 7.75 363.484375 C 7.96875 362.648438 8.15625 361.8125 8.351562 360.976562 C 8.625 360.351562 8.914062 359.6875 9.199219 359.035156 C 9.335938 359.605469 9.523438 360.140625 9.796875 360.613281 C 9.175781 361.460938 8.546875 362.3125 7.914062 363.140625 Z M 10.230469 349.871094 C 10.101562 349.992188 9.992188 350.136719 9.9375 350.34375 C 9.878906 350.542969 9.820312 350.785156 9.761719 351.007812 C 9.425781 351.371094 9.097656 351.734375 8.761719 352.089844 C 9.191406 350.421875 9.710938 348.773438 10.339844 347.167969 C 10.621094 346.761719 10.949219 346.375 11.21875 345.957031 C 11.335938 345.886719 11.476562 345.847656 11.601562 345.789062 C 11.199219 347.164062 10.730469 348.53125 10.230469 349.871094 Z M 10.191406 339.914062 C 10.929688 337.738281 11.707031 335.570312 12.457031 333.390625 C 12.980469 332.363281 13.546875 331.347656 14.179688 330.363281 C 14.332031 330.128906 13.984375 329.921875 13.800781 330.097656 C 13.683594 330.210938 13.585938 330.351562 13.46875 330.46875 C 13.84375 329.421875 14.179688 328.355469 14.5625 327.320312 C 15.570312 324.976562 16.59375 322.636719 17.546875 320.269531 C 16.523438 324.066406 15.523438 327.875 14.070312 331.535156 C 13.03125 334.15625 11.644531 336.976562 10.191406 339.914062 Z M 117.964844 267.914062 C 119.441406 261.898438 121.164062 255.953125 122.390625 249.894531 C 123.496094 248.457031 124.605469 247.019531 125.714844 245.589844 C 122.597656 257.5 118.441406 269.335938 116.875 281.503906 C 116.097656 282.460938 115.347656 283.433594 114.574219 284.378906 C 115.78125 278.917969 116.628906 273.351562 117.964844 267.914062 Z M 131.425781 238.222656 C 128.769531 249.855469 126.109375 261.519531 123.578125 273.148438 C 121.765625 275.398438 119.976562 277.675781 118.148438 279.921875 C 122.300781 267.523438 125.628906 254.644531 128.542969 241.921875 C 129.503906 240.683594 130.46875 239.453125 131.425781 238.222656 Z M 137.988281 229.925781 C 135.640625 235.898438 134.328125 242.152344 132.949219 248.4375 C 132.253906 251.601562 131.195312 254.746094 130.347656 257.910156 C 132.097656 250.167969 133.097656 242.117188 134.230469 234.625 C 135.472656 233.046875 136.730469 231.488281 137.988281 229.925781 Z M 140.113281 227.332031 C 141.769531 225.320312 143.453125 223.347656 145.148438 221.378906 C 142.019531 232.992188 137.25 245.511719 135.8125 257.621094 C 134.453125 259.375 133.089844 261.136719 131.722656 262.890625 C 134.140625 251.371094 136.511719 239.410156 140.53125 228.519531 C 140.71875 228.015625 140.46875 227.570312 140.113281 227.332031 Z M 152.550781 213.164062 C 148.355469 223.667969 146.832031 235.449219 143.851562 246.289062 C 143.757812 246.613281 143.925781 246.828125 144.152344 246.929688 C 142.523438 248.992188 140.902344 251.058594 139.289062 253.132812 C 142.828125 242.988281 145.652344 231.84375 146.753906 221.699219 C 146.832031 220.972656 146.148438 220.601562 145.632812 220.804688 C 147.882812 218.214844 150.179688 215.65625 152.550781 213.164062 Z M 155.351562 211.375 C 155.507812 210.992188 155.390625 210.679688 155.1875 210.414062 C 156.402344 209.167969 157.621094 207.914062 158.84375 206.675781 C 157.738281 211.425781 157.105469 216.261719 156.398438 221.089844 C 155.699219 225.882812 154.433594 230.578125 153.601562 235.324219 C 151.285156 238.09375 148.988281 240.867188 146.734375 243.6875 C 151.640625 233.886719 151.222656 221.511719 155.351562 211.375 Z M 173.097656 191.746094 C 173.367188 194.59375 172.746094 197.824219 172.535156 200.460938 C 172.199219 204.703125 171.226562 209.023438 171.273438 213.277344 C 171.277344 213.539062 171.671875 213.636719 171.785156 213.390625 C 172.234375 212.402344 172.59375 211.328125 172.902344 210.230469 C 172.847656 211.503906 172.886719 212.777344 173.074219 214.011719 C 170.933594 216.261719 168.75 218.457031 166.644531 220.632812 C 167.890625 215.574219 168.71875 210.195312 169.625 205.183594 C 169.886719 203.742188 170.113281 202.285156 170.304688 200.828125 C 170.433594 199.871094 170.59375 198.9375 170.679688 197.980469 C 170.734375 197.359375 170.691406 197.320312 170.578125 197.386719 C 170.679688 197.285156 170.738281 197.136719 170.6875 196.976562 L 170.636719 196.84375 C 170.539062 196.5625 170.167969 196.378906 169.917969 196.582031 C 167.976562 198.0625 167.996094 202.027344 167.589844 204.199219 C 166.488281 210.136719 163.679688 216.832031 164.402344 223.003906 C 161.800781 225.789062 159.296875 228.65625 156.8125 231.546875 C 159.339844 223.175781 159.617188 213.421875 160.824219 205.230469 C 160.855469 205.039062 160.78125 204.898438 160.714844 204.757812 C 164.914062 200.476562 169.085938 196.179688 173.097656 191.746094 Z M 178.09375 185.90625 C 176.699219 190.320312 175.75 194.894531 174.761719 199.402344 C 174.679688 199.785156 174.582031 200.195312 174.496094 200.59375 C 174.5625 199.914062 174.632812 199.226562 174.691406 198.585938 C 174.847656 197 175.714844 192.25 174.425781 190.242188 C 175.679688 188.832031 176.878906 187.367188 178.09375 185.90625 Z M 127.308594 268.496094 C 128.21875 266.019531 128.984375 263.449219 129.652344 260.835938 C 129.277344 262.652344 129.050781 264.484375 129.03125 266.34375 C 128.460938 267.058594 127.875 267.773438 127.308594 268.496094 Z M 212.78125 131.171875 C 206.023438 124.140625 193.484375 121.183594 184.148438 122.984375 C 179.109375 123.960938 174.640625 126.074219 170.398438 128.914062 C 167.984375 130.539062 161.074219 134.617188 161.199219 137.789062 L 161.292969 137.902344 C 163.984375 138.316406 166.898438 134.394531 168.882812 132.855469 C 172.398438 130.125 176.183594 127.871094 180.378906 126.367188 C 190.101562 122.878906 202.664062 125.605469 210.398438 132.34375 C 215.59375 136.871094 216.96875 142.59375 216.230469 148.492188 C 215.855469 148.066406 215.101562 148.09375 214.867188 148.808594 C 214.664062 149.410156 214.472656 150.0625 214.285156 150.71875 C 213.972656 150.351562 213.28125 150.355469 213.109375 150.972656 C 212.347656 153.6875 211.566406 156.402344 210.714844 159.089844 C 210.398438 160.082031 210.007812 161.0625 209.617188 162.039062 C 210.484375 159.488281 211.207031 156.378906 210.125 153.796875 C 209.988281 153.472656 209.445312 153.417969 209.375 153.835938 C 209.007812 156.183594 208.734375 158.472656 208.148438 160.789062 C 207.640625 162.785156 206.566406 164.746094 205.945312 166.75 C 205.867188 166.367188 205.820312 165.980469 205.714844 165.617188 C 207.027344 162.703125 207.371094 159.210938 207.402344 156.125 C 207.410156 155.675781 206.675781 155.609375 206.609375 156.058594 C 206.253906 158.59375 205.53125 161.066406 204.957031 163.558594 C 204.886719 163.40625 204.832031 163.242188 204.753906 163.09375 C 205.265625 160.984375 205.039062 158.632812 204.65625 156.59375 C 204.585938 156.21875 203.925781 156.339844 203.996094 156.71875 C 204.335938 158.511719 204.265625 160.191406 204.109375 161.898438 C 199.410156 154.132812 187.976562 148.902344 180.808594 145.835938 C 175.300781 143.472656 170.058594 140.660156 164.269531 138.960938 C 163.1875 138.648438 153.515625 137.414062 156.496094 141.386719 C 156.621094 141.558594 156.898438 141.628906 157.050781 141.4375 C 159.886719 137.796875 166.28125 141.246094 169.832031 142.722656 C 173.777344 144.351562 177.523438 146.40625 181.402344 148.175781 C 188.710938 151.515625 201.453125 157.503906 203.71875 166.390625 C 198.769531 158.105469 185.773438 151.847656 178.746094 148.734375 C 172.808594 146.109375 166.652344 143.546875 160.308594 142.113281 C 157.371094 141.445312 147.605469 141.316406 151.578125 147.125 C 151.667969 147.25 151.894531 147.234375 151.921875 147.0625 C 152.394531 143.683594 153.421875 142.722656 156.941406 143.078125 C 159.632812 143.339844 162.296875 144.226562 164.847656 145.160156 C 159.710938 144.746094 154.777344 146.15625 149.105469 148.082031 C 148.621094 148.246094 148.261719 148.828125 148.464844 149.335938 C 148.605469 149.300781 148.746094 149.265625 148.890625 149.222656 C 148.648438 149.410156 148.414062 149.597656 148.148438 149.742188 C 147.921875 149.878906 147.796875 150.0625 147.75 150.261719 C 146.242188 150.472656 144.78125 151.0625 144.285156 152.613281 C 143.839844 153.996094 145.199219 156.121094 146.628906 156.0625 L 146.632812 156.054688 L 146.515625 156.226562 C 132.003906 186.46875 106.445312 210.023438 84.167969 234.46875 C 72.265625 247.527344 60.359375 260.621094 49.011719 274.171875 C 43.941406 280.222656 39.203125 286.53125 34.300781 292.722656 C 31.296875 294.6875 28.554688 298.296875 26.15625 300.914062 C 25.121094 302.054688 23.523438 303.746094 22.789062 305.5 C 22.449219 305.925781 22.121094 306.367188 21.8125 306.789062 C 20.777344 308.179688 21.34375 307.28125 21.59375 307.628906 L 21.5 307.796875 C 21.363281 307.734375 21.1875 307.738281 21.074219 307.859375 L 20.988281 307.945312 C 20.988281 307.703125 20.578125 307.625 20.476562 307.917969 C 20.289062 308.449219 19.585938 308.429688 19.722656 309.089844 C 19.742188 309.1875 19.882812 309.238281 19.957031 309.175781 C 20.074219 309.082031 20.191406 308.992188 20.308594 308.894531 C 20.253906 309.183594 20.4375 309.441406 20.699219 309.574219 C 20.128906 311.054688 19.707031 312.585938 19.300781 314.042969 C 16.828125 320.488281 13.859375 326.726562 11.21875 333.101562 C 7.316406 338.527344 5.414062 346.046875 4.207031 352.777344 C 4.015625 353.21875 3.800781 353.664062 3.625 354.113281 C 3.390625 354.523438 3.160156 354.933594 2.957031 355.367188 C 2.894531 355.496094 2.945312 355.640625 3.039062 355.726562 C 2.328125 357.800781 1.746094 359.9375 1.335938 362.0625 C 1.027344 363.648438 0.285156 367.234375 1.859375 368.488281 C 2.507812 369.003906 3.191406 369.085938 3.839844 368.914062 C 7.355469 375.261719 26.351562 361.125 29.246094 359.261719 C 35.460938 355.277344 42.425781 352.800781 49.292969 350.21875 C 54.800781 348.152344 62.558594 345.851562 66.421875 341.140625 C 67.03125 340.398438 66.207031 339.527344 65.402344 339.917969 C 65.199219 340.011719 65.007812 340.125 64.804688 340.226562 L 64.824219 340.207031 L 64.839844 340.007812 C 67.191406 338.957031 69.539062 336.265625 70.824219 335.03125 C 76.613281 329.476562 82.539062 324.0625 88.214844 318.394531 C 102.042969 304.597656 114.414062 289.382812 126.476562 274.050781 C 138.535156 258.722656 149.878906 242.679688 162.945312 228.191406 C 169.574219 220.847656 176.472656 213.742188 182.433594 205.828125 C 184.25 203.425781 185.652344 200.632812 187.042969 197.847656 C 187.257812 198.066406 187.664062 198.132812 187.871094 197.863281 C 188.902344 196.496094 190.753906 193.105469 191.601562 189.894531 C 192.253906 189.019531 192.929688 188.179688 193.695312 187.414062 C 194.1875 186.929688 193.429688 186.289062 192.9375 186.710938 C 192.613281 186.988281 192.328125 187.296875 192.023438 187.589844 C 192.199219 185.484375 191.667969 183.71875 189.769531 183.09375 C 188.699219 182.738281 188.121094 184.449219 189.101562 184.929688 C 190.464844 185.605469 189.589844 188.863281 188.570312 191.953125 C 186.648438 194.980469 185.089844 198.34375 183.324219 201.269531 C 180.960938 205.167969 177.933594 208.785156 174.710938 212.265625 C 175.78125 208.25 176.152344 203.929688 176.941406 199.878906 C 177.980469 194.582031 179.53125 189.328125 180.027344 183.949219 C 180.039062 183.84375 179.992188 183.777344 179.964844 183.699219 C 181.324219 182.007812 182.59375 180.246094 183.875 178.492188 C 182.394531 182.300781 181.789062 186.492188 180.9375 190.46875 C 179.800781 195.777344 178.472656 201.195312 178.238281 206.628906 C 178.222656 207.042969 178.886719 207.195312 179.046875 206.808594 C 180.171875 204.035156 180.898438 201.125 181.539062 198.207031 C 181.445312 198.910156 181.421875 199.578125 181.566406 200.164062 C 181.65625 200.503906 182.117188 200.660156 182.398438 200.460938 C 185.0625 198.574219 186.046875 191.839844 186.910156 188.933594 C 187.636719 186.496094 189.964844 181.082031 188.257812 178.613281 C 187.621094 177.695312 186.304688 178.570312 186.8125 179.542969 C 187.234375 180.332031 186.398438 182.523438 186.199219 183.3125 C 185.628906 185.664062 184.941406 187.988281 184.222656 190.300781 C 183.734375 191.890625 182.605469 194.183594 181.945312 196.359375 C 182.183594 195.21875 182.417969 194.078125 182.65625 192.945312 C 183.726562 187.96875 185.21875 182.6875 185.261719 177.585938 C 185.261719 177.347656 185.089844 177.195312 184.886719 177.136719 C 185.105469 176.828125 185.351562 176.542969 185.5625 176.234375 C 186.457031 174.941406 184.289062 173.8125 183.40625 175.09375 C 173.878906 188.925781 161.46875 200.304688 149.921875 212.386719 C 144.171875 218.40625 138.851562 224.8125 133.683594 231.339844 C 133.324219 231.335938 132.960938 231.488281 132.855469 231.96875 L 132.714844 232.574219 C 129.066406 237.21875 125.46875 241.90625 121.878906 246.589844 C 121.71875 246.675781 121.585938 246.824219 121.511719 247.039062 L 121.496094 247.089844 C 120.511719 248.378906 119.523438 249.671875 118.539062 250.953125 C 111.898438 259.535156 104.917969 267.726562 97.558594 275.601562 C 97.335938 275.695312 97.160156 275.863281 97.070312 276.132812 C 93.242188 280.203125 89.351562 284.214844 85.289062 288.101562 C 85.039062 288.339844 84.789062 288.566406 84.539062 288.804688 L 84.515625 288.832031 C 78.648438 294.414062 72.640625 299.847656 66.785156 305.425781 C 63.84375 308.226562 60.796875 311.050781 57.945312 314.042969 C 60.128906 306.824219 60.925781 298.519531 55.148438 294.4375 C 51.011719 291.523438 45.410156 291.960938 40.546875 293.359375 C 49.847656 282.792969 60.183594 273.339844 70.019531 263.273438 C 75.03125 258.140625 80.597656 253.636719 85.425781 248.308594 C 90.953125 242.214844 95.265625 234.921875 100.449219 228.511719 C 110.667969 215.894531 123.082031 205.164062 134.273438 193.464844 C 144.609375 182.664062 149.453125 167.796875 160.875 157.898438 C 163.195312 158.308594 165.480469 158.863281 167.492188 159.851562 C 174.027344 163.058594 179.5 166.464844 184.222656 172.136719 C 187.984375 176.65625 190.179688 182.574219 194.140625 186.816406 L 194.167969 186.839844 C 194.160156 187.445312 194.144531 188.054688 194.128906 188.695312 C 194.101562 189.507812 195.136719 189.53125 195.503906 189 C 196.097656 188.128906 196.46875 187.199219 196.671875 186.234375 C 197 186.609375 197.523438 186.78125 198.066406 186.417969 C 200.617188 184.695312 201.976562 182.710938 202.488281 180.59375 C 202.832031 180.605469 203.183594 180.472656 203.425781 180.113281 C 204.707031 178.140625 205.378906 176.222656 205.601562 174.375 C 205.746094 174.3125 205.894531 174.222656 206.027344 174.085938 C 216.652344 163.5625 224.695312 143.570312 212.78125 131.171875"/><path fill="#170B28" d="M 30.195312 340.746094 C 29.238281 341.480469 28.246094 342.378906 27.179688 342.929688 C 26.386719 343.347656 27.425781 344.542969 27.941406 343.839844 C 28.664062 342.847656 29.671875 342.023438 30.476562 341.082031 C 30.632812 340.898438 30.402344 340.589844 30.195312 340.746094"/><path fill="#170B28" d="M 32.417969 346.046875 C 32.578125 345.925781 32.425781 345.683594 32.25 345.78125 C 30.554688 346.746094 29.484375 348.046875 28.046875 349.292969 C 27.625 349.65625 26.488281 350.367188 26.375 350.949219 C 26.332031 351.179688 26.578125 351.351562 26.773438 351.230469 C 26.921875 351.144531 27.046875 351.03125 27.175781 350.921875 C 27.277344 350.847656 27.285156 350.734375 27.253906 350.640625 C 27.671875 350.261719 28.320312 349.808594 28.546875 349.628906 C 29.914062 348.542969 31 347.121094 32.417969 346.046875"/><path fill="#170B28" d="M 49.773438 340.78125 C 44.710938 342.058594 39.839844 343.960938 35.566406 346.976562 C 35.214844 347.226562 35.617188 347.714844 35.945312 347.433594 C 39.859375 344.019531 45.242188 343.121094 49.898438 341.171875 C 50.144531 341.070312 50.035156 340.714844 49.773438 340.78125"/><path fill="#170B28" d="M 54.203125 333.558594 C 51.796875 334.246094 49.578125 335.347656 47.339844 336.4375 C 45.507812 337.328125 41.390625 340.015625 39.179688 339.242188 C 37.9375 338.804688 37.96875 341.289062 39.25 340.769531 C 44.332031 338.679688 49.1875 335.863281 54.3125 333.902344 C 54.527344 333.816406 54.425781 333.492188 54.203125 333.558594"/><path fill="#170B28" d="M 45.222656 323.019531 C 43.46875 323.203125 41.90625 324.617188 40.605469 325.707031 C 39.019531 327.027344 37.578125 328.5 35.925781 329.734375 C 35.578125 329.996094 35.933594 330.558594 36.289062 330.304688 C 37.699219 329.277344 38.980469 328.101562 40.292969 326.949219 C 41.871094 325.574219 43.761719 324.726562 45.355469 323.429688 C 45.511719 323.304688 45.46875 322.992188 45.222656 323.019531"/><path fill="#170B28" d="M 44.660156 311.601562 C 43.136719 312.9375 41.769531 314.402344 40.449219 315.925781 C 39.117188 317.460938 37.492188 318.925781 36.425781 320.648438 C 36.253906 320.925781 36.628906 321.253906 36.886719 321.074219 C 38.363281 320.035156 39.394531 318.417969 40.539062 317.03125 C 41.980469 315.28125 43.46875 313.585938 45.15625 312.054688 C 45.480469 311.761719 44.980469 311.316406 44.660156 311.601562"/><path fill="#170B28" d="M 40.558594 303.671875 C 36.859375 308.222656 34.042969 313.410156 30.929688 318.367188 C 30.875 318.457031 31.011719 318.554688 31.074219 318.472656 C 34.59375 313.796875 37.167969 308.515625 40.882812 303.96875 C 41.0625 303.746094 40.738281 303.449219 40.558594 303.671875"/><path fill="#170B28" d="M 34.425781 299.3125 C 30.078125 303.226562 27.550781 308.378906 25.746094 313.855469 C 25.632812 314.199219 26.15625 314.351562 26.324219 314.066406 C 29.105469 309.273438 31.105469 303.910156 35.246094 300.070312 C 35.773438 299.574219 34.953125 298.839844 34.425781 299.3125"/><path fill="#170B28" d="M 24.445312 313.566406 C 22.710938 319.984375 20.179688 326.027344 17.675781 332.160156 C 17.613281 332.3125 17.824219 332.4375 17.902344 332.289062 C 20.859375 326.371094 23.175781 320.042969 24.953125 313.679688 C 25.042969 313.355469 24.535156 313.242188 24.445312 313.566406"/><path fill="#170B28" d="M 32.402344 325.394531 C 29.5625 331.613281 22.9375 335.449219 20.582031 341.855469 C 20.507812 342.050781 20.734375 342.257812 20.890625 342.078125 C 25.316406 337.101562 30.605469 332.046875 33.25 325.835938 C 33.488281 325.273438 32.660156 324.824219 32.402344 325.394531"/><path fill="#170B28" d="M 49.675781 301.648438 C 48.023438 303.167969 46.066406 304.777344 44.753906 306.59375 C 44.628906 306.769531 44.800781 307.007812 45 306.890625 C 46.957031 305.714844 48.488281 303.644531 50.167969 302.105469 C 50.492188 301.8125 49.992188 301.351562 49.675781 301.648438"/><path fill="#170B28" d="M 53.039062 297.054688 C 51.894531 298.042969 50.667969 298.816406 49.457031 299.699219 C 49.335938 299.78125 49.421875 299.972656 49.570312 299.929688 C 51.011719 299.488281 52.238281 298.335938 53.378906 297.371094 C 53.609375 297.179688 53.261719 296.859375 53.039062 297.054688"/><path fill="#170B28" d="M 48.382812 295.449219 C 47.019531 295.691406 46.042969 296.953125 45.140625 297.921875 C 43.722656 299.441406 42.539062 301.195312 41.0625 302.652344 C 40.882812 302.832031 41.136719 303.117188 41.34375 302.984375 C 44.195312 301.199219 45.921875 298.140625 48.636719 296.238281 C 48.957031 296.011719 48.839844 295.363281 48.382812 295.449219"/><path fill="#170B28" d="M 70.496094 320.660156 C 64.894531 321.566406 60.574219 326.207031 56.082031 329.320312 C 55.683594 329.597656 56.070312 330.210938 56.488281 329.957031 C 58.75 328.570312 60.910156 327.011719 63.152344 325.585938 C 65.242188 324.257812 67.988281 322.128906 70.582031 322.210938 C 71.59375 322.25 71.488281 320.496094 70.496094 320.660156"/><path fill="#170B28" d="M 73.589844 325.167969 C 71.164062 325.351562 68.101562 328.800781 66.269531 330.265625 C 62.859375 332.988281 59.652344 335.867188 56.042969 338.335938 C 55.699219 338.570312 55.839844 339.21875 56.300781 339.152344 C 60.074219 338.605469 63.699219 334.109375 66.539062 331.796875 C 68.152344 330.484375 69.832031 329.238281 71.480469 327.964844 C 72.328125 327.3125 73.511719 326.722656 73.917969 325.675781 C 74.007812 325.441406 73.882812 325.144531 73.589844 325.167969"/><path fill="#170B28" d="M 52.125 344.0625 C 49.746094 344.707031 47.574219 346.0625 45.382812 347.167969 C 43.5625 348.089844 40.003906 350.574219 37.761719 350.246094 C 37.648438 350.140625 37.484375 350.09375 37.316406 350.242188 C 37.210938 350.316406 37.125 350.414062 37.0625 350.519531 C 36.921875 350.714844 37.070312 350.945312 37.304688 350.894531 C 37.433594 350.886719 37.554688 350.851562 37.667969 350.785156 L 37.730469 350.722656 C 39.710938 351.105469 42.464844 349.480469 44.117188 348.722656 C 46.917969 347.441406 49.675781 346.078125 52.367188 344.574219 C 52.660156 344.410156 52.425781 343.984375 52.125 344.0625"/><path fill="#170B28" d="M 164.855469 202.398438 C 164.601562 201.722656 163.652344 201.910156 163.640625 202.617188 C 163.582031 206.941406 163.101562 210.929688 162.125 215.152344 C 161.332031 218.589844 159.496094 222.546875 159.839844 226.105469 C 159.878906 226.511719 160.386719 226.609375 160.59375 226.269531 C 162.65625 222.902344 163.21875 218.027344 164.121094 214.21875 C 164.964844 210.660156 166.210938 205.964844 164.855469 202.398438"/><path fill="#170B28" d="M 183.75 134.210938 C 183.492188 133.851562 183.371094 133.765625 182.964844 133.546875 C 182.292969 133.175781 181.742188 134.230469 182.410156 134.601562 C 182.914062 134.882812 183.050781 134.941406 183.570312 134.710938 C 183.753906 134.625 183.894531 134.394531 183.75 134.210938"/><path fill="#170B28" d="M 185.472656 136.957031 C 185.265625 137.558594 185.265625 137.554688 185.332031 138.171875 C 185.367188 138.542969 185.804688 138.710938 186.074219 138.441406 C 186.515625 137.996094 186.503906 138.015625 186.722656 137.414062 C 187.066406 136.5 185.789062 136.027344 185.472656 136.957031"/><path fill="#170B28" d="M 189.285156 136.09375 C 189.132812 136.710938 189.144531 136.960938 189.53125 137.480469 C 189.691406 137.695312 189.9375 137.742188 190.175781 137.621094 C 190.742188 137.316406 190.855469 137.09375 190.980469 136.464844 C 191.199219 135.363281 189.546875 135 189.285156 136.09375"/><path fill="#170B28" d="M 193.707031 135.800781 C 193.484375 135.632812 193.25 135.480469 193 135.351562 C 192.523438 135.074219 192.109375 135.855469 192.597656 136.105469 C 193.074219 136.359375 193.074219 136.367188 193.59375 136.316406 C 193.878906 136.289062 193.921875 135.953125 193.707031 135.800781"/><path fill="#170B28" d="M 194.398438 132.957031 C 193.878906 132.84375 193.457031 133.554688 193.902344 133.914062 C 194.535156 134.417969 195.035156 134.59375 195.753906 134.1875 C 195.894531 134.109375 195.9375 133.90625 195.847656 133.773438 C 195.449219 133.203125 195.097656 133.113281 194.398438 132.957031"/><path fill="#170B28" d="M 197.265625 131.242188 C 197.003906 130.734375 196.753906 130.648438 196.203125 130.539062 C 195.167969 130.335938 194.828125 131.890625 195.851562 132.136719 C 196.398438 132.265625 196.660156 132.296875 197.113281 131.941406 C 197.34375 131.757812 197.398438 131.503906 197.265625 131.242188"/><path fill="#170B28" d="M 196.46875 129.066406 C 196.382812 128.980469 196.296875 128.902344 196.207031 128.816406 C 195.171875 127.878906 194.632812 130.335938 195.964844 129.914062 C 196.082031 129.875 196.191406 129.839844 196.308594 129.804688 C 196.621094 129.703125 196.710938 129.285156 196.46875 129.066406"/><path fill="#170B28" d="M 181.5625 131.160156 C 181.496094 129.761719 179.25 130.253906 179.738281 131.5 L 179.816406 131.6875 C 180.183594 132.621094 181.621094 132.425781 181.566406 131.367188 L 181.5625 131.160156"/></svg>