<svg xmlns="http://www.w3.org/2000/svg" xmlns:xlink="http://www.w3.org/1999/xlink" width="500" zoomAndPan="magnify" viewBox="0 0 375 374.999991" height="500" preserveAspectRatio="xMidYMid meet" version="1.0"><defs><clipPath id="id1"><path d="M 19.894531 164.714844 L 213.957031 164.714844 L 213.957031 358.964844 L 19.894531 358.964844 Z M 19.894531 164.714844 " clip-rule="nonzero"/></clipPath><clipPath id="id2"><path d="M 110 21 L 351 21 L 351 254 L 110 254 Z M 110 21 " clip-rule="nonzero"/></clipPath><clipPath id="id3"><path d="M 75.363281 67.132812 L 303.765625 -22.195312 L 400.472656 225.0625 L 172.070312 314.394531 Z M 75.363281 67.132812 " clip-rule="nonzero"/></clipPath><clipPath id="id4"><path d="M 75.363281 67.132812 L 303.765625 -22.195312 L 400.472656 225.0625 L 172.070312 314.394531 Z M 75.363281 67.132812 " clip-rule="nonzero"/></clipPath></defs><g clip-path="url(#id1)"><path fill="rgb(21.179199%, 27.059937%, 30.979919%)" d="M 19.707031 356.851562 L 19.707031 357.378906 C 19.707031 358.277344 20.394531 358.964844 21.292969 358.964844 L 21.824219 358.964844 C 22.722656 358.964844 23.410156 358.277344 23.410156 357.378906 C 23.410156 356.796875 23.089844 356.320312 22.667969 356.003906 C 22.402344 355.527344 21.875 355.265625 21.292969 355.265625 C 20.449219 355.265625 19.707031 355.949219 19.707031 356.851562 Z M 68.496094 355.792969 L 69.605469 355.792969 C 70.503906 355.792969 71.191406 356.480469 71.191406 357.378906 C 71.191406 358.277344 70.503906 358.964844 69.605469 358.964844 L 68.496094 358.964844 C 67.597656 358.964844 66.910156 358.277344 66.910156 357.378906 C 66.910156 356.480469 67.648438 355.792969 68.496094 355.792969 Z M 187.953125 355.792969 L 189.011719 355.792969 C 189.910156 355.792969 190.59375 356.480469 190.59375 357.378906 C 190.59375 358.277344 189.910156 358.964844 189.011719 358.964844 L 187.953125 358.964844 C 187.054688 358.964844 186.367188 358.277344 186.367188 357.378906 C 186.367188 356.480469 187.054688 355.792969 187.953125 355.792969 Z M 80.441406 355.792969 L 81.5 355.792969 C 82.398438 355.792969 83.085938 356.480469 83.085938 357.378906 C 83.085938 358.277344 82.398438 358.964844 81.5 358.964844 L 80.441406 358.964844 C 79.542969 358.964844 78.855469 358.277344 78.855469 357.378906 C 78.855469 356.480469 79.59375 355.792969 80.441406 355.792969 Z M 56.601562 355.792969 L 57.710938 355.792969 C 58.609375 355.792969 59.296875 356.480469 59.296875 357.378906 C 59.296875 358.277344 58.609375 358.964844 57.710938 358.964844 L 56.601562 358.964844 C 55.703125 358.964844 55.015625 358.277344 55.015625 357.378906 C 55.015625 356.480469 55.703125 355.792969 56.601562 355.792969 Z M 32.710938 355.792969 L 33.769531 355.792969 C 34.667969 355.792969 35.355469 356.480469 35.355469 357.378906 C 35.355469 358.277344 34.667969 358.964844 33.769531 358.964844 L 32.710938 358.964844 C 31.8125 358.964844 31.125 358.277344 31.125 357.378906 C 31.125 356.480469 31.8125 355.792969 32.710938 355.792969 Z M 199.84375 355.792969 L 200.957031 355.792969 C 201.855469 355.792969 202.542969 356.480469 202.542969 357.378906 C 202.542969 358.277344 201.855469 358.964844 200.957031 358.964844 L 199.84375 358.964844 C 198.945312 358.964844 198.261719 358.277344 198.261719 357.378906 C 198.261719 356.480469 199 355.792969 199.84375 355.792969 Z M 92.386719 355.792969 L 93.445312 355.792969 C 94.34375 355.792969 95.03125 356.480469 95.03125 357.378906 C 95.03125 358.277344 94.34375 358.964844 93.445312 358.964844 L 92.386719 358.964844 C 91.488281 358.964844 90.800781 358.277344 90.800781 357.378906 C 90.800781 356.480469 91.542969 355.792969 92.386719 355.792969 Z M 44.65625 355.792969 L 45.714844 355.792969 C 46.613281 355.792969 47.300781 356.480469 47.300781 357.378906 C 47.300781 358.277344 46.613281 358.964844 45.714844 358.964844 L 44.65625 358.964844 C 43.757812 358.964844 43.070312 358.277344 43.070312 357.378906 C 43.070312 356.480469 43.757812 355.792969 44.65625 355.792969 Z M 128.222656 355.792969 L 129.335938 355.792969 C 130.234375 355.792969 130.917969 356.480469 130.917969 357.378906 C 130.917969 358.277344 130.234375 358.964844 129.335938 358.964844 L 128.222656 358.964844 C 127.324219 358.964844 126.636719 358.277344 126.636719 357.378906 C 126.636719 356.480469 127.324219 355.792969 128.222656 355.792969 Z M 164.0625 355.792969 L 165.171875 355.792969 C 166.070312 355.792969 166.757812 356.480469 166.757812 357.378906 C 166.757812 358.277344 166.070312 358.964844 165.171875 358.964844 L 164.0625 358.964844 C 163.164062 358.964844 162.476562 358.277344 162.476562 357.378906 C 162.476562 356.480469 163.164062 355.792969 164.0625 355.792969 Z M 116.277344 355.792969 L 117.386719 355.792969 C 118.285156 355.792969 118.972656 356.480469 118.972656 357.378906 C 118.972656 358.277344 118.285156 358.964844 117.386719 358.964844 L 116.277344 358.964844 C 115.378906 358.964844 114.691406 358.277344 114.691406 357.378906 C 114.691406 356.480469 115.433594 355.792969 116.277344 355.792969 Z M 140.167969 355.792969 L 141.226562 355.792969 C 142.125 355.792969 142.8125 356.480469 142.8125 357.378906 C 142.8125 358.277344 142.125 358.964844 141.226562 358.964844 L 140.167969 358.964844 C 139.269531 358.964844 138.585938 358.277344 138.585938 357.378906 C 138.585938 356.480469 139.269531 355.792969 140.167969 355.792969 Z M 152.117188 355.792969 L 153.171875 355.792969 C 154.070312 355.792969 154.757812 356.480469 154.757812 357.378906 C 154.757812 358.277344 154.070312 358.964844 153.171875 358.964844 L 152.0625 358.964844 C 151.164062 358.964844 150.476562 358.277344 150.476562 357.378906 C 150.476562 356.480469 151.21875 355.792969 152.117188 355.792969 Z M 104.332031 355.792969 L 105.390625 355.792969 C 106.289062 355.792969 106.976562 356.480469 106.976562 357.378906 C 106.976562 358.277344 106.289062 358.964844 105.390625 358.964844 L 104.332031 358.964844 C 103.433594 358.964844 102.746094 358.277344 102.746094 357.378906 C 102.746094 356.480469 103.488281 355.792969 104.332031 355.792969 Z M 176.007812 355.792969 L 177.0625 355.792969 C 177.960938 355.792969 178.648438 356.480469 178.648438 357.378906 C 178.648438 358.277344 177.960938 358.964844 177.0625 358.964844 L 176.007812 358.964844 C 175.109375 358.964844 174.421875 358.277344 174.421875 357.378906 C 174.421875 356.480469 175.109375 355.792969 176.007812 355.792969 Z M 211 356.003906 C 211.316406 355.527344 211.792969 355.265625 212.371094 355.265625 C 213.269531 355.265625 213.957031 355.949219 213.957031 356.851562 L 213.957031 357.378906 C 213.957031 358.277344 213.269531 358.964844 212.371094 358.964844 L 211.84375 358.964844 C 210.945312 358.964844 210.257812 358.277344 210.257812 357.378906 C 210.257812 356.796875 210.574219 356.269531 211 356.003906 Z M 212.371094 347.546875 C 211.472656 347.546875 210.785156 346.859375 210.785156 345.960938 L 210.785156 344.902344 C 210.785156 344.003906 211.472656 343.316406 212.371094 343.316406 C 213.269531 343.316406 213.957031 344.003906 213.957031 344.902344 L 213.957031 345.960938 C 213.957031 346.859375 213.269531 347.546875 212.371094 347.546875 Z M 212.371094 216.195312 C 211.472656 216.195312 210.785156 215.507812 210.785156 214.609375 L 210.785156 213.5 C 210.785156 212.601562 211.472656 211.914062 212.371094 211.914062 C 213.269531 211.914062 213.957031 212.601562 213.957031 213.5 L 213.957031 214.609375 C 213.957031 215.507812 213.269531 216.195312 212.371094 216.195312 Z M 212.371094 252.035156 C 211.472656 252.035156 210.785156 251.347656 210.785156 250.449219 L 210.785156 249.339844 C 210.785156 248.441406 211.472656 247.753906 212.371094 247.753906 C 213.269531 247.753906 213.957031 248.441406 213.957031 249.339844 L 213.957031 250.449219 C 213.957031 251.347656 213.269531 252.035156 212.371094 252.035156 Z M 212.371094 263.980469 C 211.472656 263.980469 210.785156 263.292969 210.785156 262.394531 L 210.785156 261.285156 C 210.785156 260.386719 211.472656 259.699219 212.371094 259.699219 C 213.269531 259.699219 213.957031 260.386719 213.957031 261.285156 L 213.957031 262.394531 C 213.957031 263.238281 213.269531 263.980469 212.371094 263.980469 Z M 212.371094 240.089844 C 211.472656 240.089844 210.785156 239.402344 210.785156 238.503906 L 210.785156 237.445312 C 210.785156 236.546875 211.472656 235.859375 212.371094 235.859375 C 213.269531 235.859375 213.957031 236.546875 213.957031 237.445312 L 213.957031 238.503906 C 213.957031 239.402344 213.269531 240.089844 212.371094 240.089844 Z M 212.371094 228.140625 C 211.472656 228.140625 210.785156 227.457031 210.785156 226.558594 L 210.785156 225.5 C 210.785156 224.601562 211.472656 223.914062 212.371094 223.914062 C 213.269531 223.914062 213.957031 224.601562 213.957031 225.5 L 213.957031 226.609375 C 213.957031 227.457031 213.269531 228.140625 212.371094 228.140625 Z M 212.371094 180.414062 C 211.472656 180.414062 210.785156 179.726562 210.785156 178.828125 L 210.785156 177.714844 C 210.785156 176.816406 211.472656 176.132812 212.371094 176.132812 C 213.269531 176.132812 213.957031 176.816406 213.957031 177.714844 L 213.957031 178.828125 C 213.957031 179.671875 213.269531 180.414062 212.371094 180.414062 Z M 212.371094 192.304688 C 211.472656 192.304688 210.785156 191.617188 210.785156 190.71875 L 210.785156 189.664062 C 210.785156 188.765625 211.472656 188.078125 212.371094 188.078125 C 213.269531 188.078125 213.957031 188.765625 213.957031 189.664062 L 213.957031 190.71875 C 213.957031 191.617188 213.269531 192.304688 212.371094 192.304688 Z M 212.371094 275.925781 C 211.472656 275.925781 210.785156 275.238281 210.785156 274.339844 L 210.785156 273.28125 C 210.785156 272.382812 211.472656 271.695312 212.371094 271.695312 C 213.269531 271.695312 213.957031 272.382812 213.957031 273.28125 L 213.957031 274.339844 C 213.957031 275.183594 213.269531 275.925781 212.371094 275.925781 Z M 212.371094 204.25 C 211.472656 204.25 210.785156 203.5625 210.785156 202.664062 L 210.785156 201.609375 C 210.785156 200.710938 211.472656 200.023438 212.371094 200.023438 C 213.269531 200.023438 213.957031 200.710938 213.957031 201.609375 L 213.957031 202.664062 C 213.957031 203.5625 213.269531 204.25 212.371094 204.25 Z M 212.371094 311.761719 C 211.472656 311.761719 210.785156 311.074219 210.785156 310.175781 L 210.785156 309.066406 C 210.785156 308.167969 211.472656 307.480469 212.371094 307.480469 C 213.269531 307.480469 213.957031 308.167969 213.957031 309.066406 L 213.957031 310.175781 C 213.957031 311.023438 213.269531 311.761719 212.371094 311.761719 Z M 212.371094 323.65625 C 211.472656 323.65625 210.785156 322.96875 210.785156 322.070312 L 210.785156 320.960938 C 210.785156 320.0625 211.472656 319.375 212.371094 319.375 C 213.269531 319.375 213.957031 320.0625 213.957031 320.960938 L 213.957031 322.070312 C 213.957031 322.96875 213.269531 323.65625 212.371094 323.65625 Z M 212.371094 335.601562 C 211.472656 335.601562 210.785156 334.914062 210.785156 334.015625 L 210.785156 332.957031 C 210.785156 332.058594 211.472656 331.371094 212.371094 331.371094 C 213.269531 331.371094 213.957031 332.058594 213.957031 332.957031 L 213.957031 334.015625 C 213.957031 334.914062 213.269531 335.601562 212.371094 335.601562 Z M 212.371094 299.816406 C 211.472656 299.816406 210.785156 299.128906 210.785156 298.230469 L 210.785156 297.175781 C 210.785156 296.273438 211.472656 295.589844 212.371094 295.589844 C 213.269531 295.589844 213.957031 296.273438 213.957031 297.175781 L 213.957031 298.230469 C 213.957031 299.078125 213.269531 299.816406 212.371094 299.816406 Z M 212.371094 287.871094 C 211.472656 287.871094 210.785156 287.183594 210.785156 286.285156 L 210.785156 285.226562 C 210.785156 284.328125 211.472656 283.640625 212.371094 283.640625 C 213.269531 283.640625 213.957031 284.328125 213.957031 285.226562 L 213.957031 286.285156 C 213.957031 287.132812 213.269531 287.871094 212.371094 287.871094 Z M 211.84375 164.714844 L 212.371094 164.714844 C 213.269531 164.714844 213.957031 165.402344 213.957031 166.300781 L 213.957031 166.828125 C 213.957031 167.726562 213.269531 168.414062 212.371094 168.414062 C 211.792969 168.414062 211.316406 168.097656 211 167.675781 C 210.574219 167.355469 210.257812 166.882812 210.257812 166.300781 C 210.257812 165.402344 210.945312 164.714844 211.84375 164.714844 Z M 201.007812 167.886719 L 199.953125 167.886719 C 199.050781 167.886719 198.367188 167.199219 198.367188 166.300781 C 198.367188 165.402344 199.050781 164.714844 199.953125 164.714844 L 201.007812 164.714844 C 201.90625 164.714844 202.59375 165.402344 202.59375 166.300781 C 202.59375 167.199219 201.855469 167.886719 201.007812 167.886719 Z M 153.226562 167.886719 L 152.117188 167.886719 C 151.21875 167.886719 150.53125 167.199219 150.53125 166.300781 C 150.53125 165.402344 151.21875 164.714844 152.117188 164.714844 L 153.226562 164.714844 C 154.125 164.714844 154.8125 165.402344 154.8125 166.300781 C 154.8125 167.199219 154.125 167.886719 153.226562 167.886719 Z M 177.117188 167.886719 L 176.058594 167.886719 C 175.160156 167.886719 174.472656 167.199219 174.472656 166.300781 C 174.472656 165.402344 175.160156 164.714844 176.058594 164.714844 L 177.117188 164.714844 C 178.015625 164.714844 178.703125 165.402344 178.703125 166.300781 C 178.703125 167.199219 177.960938 167.886719 177.117188 167.886719 Z M 165.171875 167.886719 L 164.113281 167.886719 C 163.214844 167.886719 162.527344 167.199219 162.527344 166.300781 C 162.527344 165.402344 163.214844 164.714844 164.113281 164.714844 L 165.171875 164.714844 C 166.070312 164.714844 166.757812 165.402344 166.757812 166.300781 C 166.757812 167.199219 166.015625 167.886719 165.171875 167.886719 Z M 189.0625 167.886719 L 187.953125 167.886719 C 187.054688 167.886719 186.367188 167.199219 186.367188 166.300781 C 186.367188 165.402344 187.054688 164.714844 187.953125 164.714844 L 189.0625 164.714844 C 189.960938 164.714844 190.648438 165.402344 190.648438 166.300781 C 190.648438 167.199219 189.910156 167.886719 189.0625 167.886719 Z M 69.660156 167.886719 L 68.601562 167.886719 C 67.703125 167.886719 67.015625 167.199219 67.015625 166.300781 C 67.015625 165.402344 67.703125 164.714844 68.601562 164.714844 L 69.660156 164.714844 C 70.558594 164.714844 71.242188 165.402344 71.242188 166.300781 C 71.242188 167.199219 70.503906 167.886719 69.660156 167.886719 Z M 57.710938 167.886719 L 56.65625 167.886719 C 55.757812 167.886719 55.070312 167.199219 55.070312 166.300781 C 55.070312 165.402344 55.757812 164.714844 56.65625 164.714844 L 57.710938 164.714844 C 58.609375 164.714844 59.296875 165.402344 59.296875 166.300781 C 59.296875 167.199219 58.558594 167.886719 57.710938 167.886719 Z M 81.605469 167.886719 L 80.546875 167.886719 C 79.648438 167.886719 78.960938 167.199219 78.960938 166.300781 C 78.960938 165.402344 79.648438 164.714844 80.546875 164.714844 L 81.605469 164.714844 C 82.503906 164.714844 83.191406 165.402344 83.191406 166.300781 C 83.191406 167.199219 82.449219 167.886719 81.605469 167.886719 Z M 33.820312 167.886719 L 32.765625 167.886719 C 31.867188 167.886719 31.179688 167.199219 31.179688 166.300781 C 31.179688 165.402344 31.867188 164.714844 32.765625 164.714844 L 33.820312 164.714844 C 34.71875 164.714844 35.40625 165.402344 35.40625 166.300781 C 35.40625 167.199219 34.71875 167.886719 33.820312 167.886719 Z M 45.765625 167.886719 L 44.710938 167.886719 C 43.8125 167.886719 43.125 167.199219 43.125 166.300781 C 43.125 165.402344 43.8125 164.714844 44.710938 164.714844 L 45.765625 164.714844 C 46.664062 164.714844 47.351562 165.402344 47.351562 166.300781 C 47.351562 167.199219 46.613281 167.886719 45.765625 167.886719 Z M 117.386719 167.886719 L 116.277344 167.886719 C 115.378906 167.886719 114.691406 167.199219 114.691406 166.300781 C 114.691406 165.402344 115.378906 164.714844 116.277344 164.714844 L 117.386719 164.714844 C 118.285156 164.714844 118.972656 165.402344 118.972656 166.300781 C 118.972656 167.199219 118.285156 167.886719 117.386719 167.886719 Z M 93.550781 167.886719 L 92.441406 167.886719 C 91.542969 167.886719 90.855469 167.199219 90.855469 166.300781 C 90.855469 165.402344 91.542969 164.714844 92.441406 164.714844 L 93.550781 164.714844 C 94.449219 164.714844 95.136719 165.402344 95.136719 166.300781 C 95.136719 167.199219 94.394531 167.886719 93.550781 167.886719 Z M 141.28125 167.886719 L 140.222656 167.886719 C 139.324219 167.886719 138.636719 167.199219 138.636719 166.300781 C 138.636719 165.402344 139.324219 164.714844 140.222656 164.714844 L 141.28125 164.714844 C 142.179688 164.714844 142.867188 165.402344 142.867188 166.300781 C 142.867188 167.199219 142.179688 167.886719 141.28125 167.886719 Z M 129.335938 167.886719 L 128.277344 167.886719 C 127.378906 167.886719 126.691406 167.199219 126.691406 166.300781 C 126.691406 165.402344 127.378906 164.714844 128.277344 164.714844 L 129.335938 164.714844 C 130.234375 164.714844 130.917969 165.402344 130.917969 166.300781 C 130.917969 167.199219 130.234375 167.886719 129.335938 167.886719 Z M 105.441406 167.886719 L 104.386719 167.886719 C 103.488281 167.886719 102.800781 167.199219 102.800781 166.300781 C 102.800781 165.402344 103.488281 164.714844 104.386719 164.714844 L 105.441406 164.714844 C 106.339844 164.714844 107.027344 165.402344 107.027344 166.300781 C 107.027344 167.199219 106.339844 167.886719 105.441406 167.886719 Z M 21.292969 164.714844 L 21.824219 164.714844 C 22.722656 164.714844 23.410156 165.402344 23.410156 166.300781 C 23.410156 166.882812 23.089844 167.355469 22.667969 167.675781 C 22.402344 168.148438 21.875 168.414062 21.292969 168.414062 C 20.394531 168.414062 19.707031 167.726562 19.707031 166.828125 L 19.707031 166.300781 C 19.707031 165.402344 20.449219 164.714844 21.292969 164.714844 Z M 21.292969 235.808594 C 22.191406 235.808594 22.878906 236.492188 22.878906 237.390625 L 22.878906 238.449219 C 22.878906 239.347656 22.191406 240.035156 21.292969 240.035156 C 20.394531 240.035156 19.707031 239.347656 19.707031 238.449219 L 19.707031 237.390625 C 19.707031 236.492188 20.449219 235.808594 21.292969 235.808594 Z M 21.292969 223.859375 C 22.191406 223.859375 22.878906 224.546875 22.878906 225.445312 L 22.878906 226.558594 C 22.878906 227.457031 22.191406 228.140625 21.292969 228.140625 C 20.394531 228.140625 19.707031 227.457031 19.707031 226.558594 L 19.707031 225.445312 C 19.707031 224.546875 20.449219 223.859375 21.292969 223.859375 Z M 21.292969 247.753906 C 22.191406 247.753906 22.878906 248.441406 22.878906 249.339844 L 22.878906 250.394531 C 22.878906 251.292969 22.191406 251.980469 21.292969 251.980469 C 20.394531 251.980469 19.707031 251.292969 19.707031 250.394531 L 19.707031 249.339844 C 19.707031 248.441406 20.449219 247.753906 21.292969 247.753906 Z M 21.292969 259.699219 C 22.191406 259.699219 22.878906 260.386719 22.878906 261.285156 L 22.878906 262.394531 C 22.878906 263.292969 22.191406 263.980469 21.292969 263.980469 C 20.394531 263.980469 19.707031 263.292969 19.707031 262.394531 L 19.707031 261.285156 C 19.707031 260.386719 20.449219 259.699219 21.292969 259.699219 Z M 21.292969 211.914062 C 22.191406 211.914062 22.878906 212.601562 22.878906 213.5 L 22.878906 214.558594 C 22.878906 215.457031 22.191406 216.144531 21.292969 216.144531 C 20.394531 216.144531 19.707031 215.457031 19.707031 214.558594 L 19.707031 213.5 C 19.707031 212.65625 20.449219 211.914062 21.292969 211.914062 Z M 21.292969 176.078125 C 22.191406 176.078125 22.878906 176.765625 22.878906 177.664062 L 22.878906 178.722656 C 22.878906 179.621094 22.191406 180.308594 21.292969 180.308594 C 20.394531 180.308594 19.707031 179.621094 19.707031 178.722656 L 19.707031 177.664062 C 19.707031 176.816406 20.449219 176.078125 21.292969 176.078125 Z M 21.292969 188.023438 C 22.191406 188.023438 22.878906 188.710938 22.878906 189.609375 L 22.878906 190.71875 C 22.878906 191.617188 22.191406 192.304688 21.292969 192.304688 C 20.394531 192.304688 19.707031 191.617188 19.707031 190.71875 L 19.707031 189.609375 C 19.707031 188.765625 20.449219 188.023438 21.292969 188.023438 Z M 21.292969 343.265625 C 22.191406 343.265625 22.878906 343.953125 22.878906 344.851562 L 22.878906 345.90625 C 22.878906 346.808594 22.191406 347.492188 21.292969 347.492188 C 20.394531 347.492188 19.707031 346.808594 19.707031 345.90625 L 19.707031 344.851562 C 19.707031 343.953125 20.449219 343.265625 21.292969 343.265625 Z M 21.292969 199.96875 C 22.191406 199.96875 22.878906 200.65625 22.878906 201.554688 L 22.878906 202.613281 C 22.878906 203.511719 22.191406 204.199219 21.292969 204.199219 C 20.394531 204.199219 19.707031 203.511719 19.707031 202.613281 L 19.707031 201.554688 C 19.707031 200.710938 20.449219 199.96875 21.292969 199.96875 Z M 21.292969 271.644531 C 22.191406 271.644531 22.878906 272.332031 22.878906 273.230469 L 22.878906 274.285156 C 22.878906 275.183594 22.191406 275.871094 21.292969 275.871094 C 20.394531 275.871094 19.707031 275.183594 19.707031 274.285156 L 19.707031 273.230469 C 19.707031 272.332031 20.449219 271.644531 21.292969 271.644531 Z M 21.292969 331.320312 C 22.191406 331.320312 22.878906 332.007812 22.878906 332.90625 L 22.878906 333.960938 C 22.878906 334.859375 22.191406 335.546875 21.292969 335.546875 C 20.394531 335.546875 19.707031 334.859375 19.707031 333.960938 L 19.707031 332.90625 C 19.707031 332.058594 20.449219 331.320312 21.292969 331.320312 Z M 21.292969 307.429688 C 22.191406 307.429688 22.878906 308.117188 22.878906 309.015625 L 22.878906 310.070312 C 22.878906 310.96875 22.191406 311.65625 21.292969 311.65625 C 20.394531 311.65625 19.707031 310.96875 19.707031 310.070312 L 19.707031 309.015625 C 19.707031 308.167969 20.449219 307.429688 21.292969 307.429688 Z M 21.292969 319.375 C 22.191406 319.375 22.878906 320.0625 22.878906 320.960938 L 22.878906 322.015625 C 22.878906 322.914062 22.191406 323.601562 21.292969 323.601562 C 20.394531 323.601562 19.707031 322.914062 19.707031 322.015625 L 19.707031 320.960938 C 19.707031 320.113281 20.449219 319.375 21.292969 319.375 Z M 21.292969 283.535156 C 22.191406 283.535156 22.878906 284.222656 22.878906 285.121094 L 22.878906 286.234375 C 22.878906 287.132812 22.191406 287.816406 21.292969 287.816406 C 20.394531 287.816406 19.707031 287.132812 19.707031 286.234375 L 19.707031 285.121094 C 19.707031 284.277344 20.449219 283.535156 21.292969 283.535156 Z M 21.292969 295.484375 C 22.191406 295.484375 22.878906 296.167969 22.878906 297.066406 L 22.878906 298.125 C 22.878906 299.023438 22.191406 299.710938 21.292969 299.710938 C 20.394531 299.710938 19.707031 299.023438 19.707031 298.125 L 19.707031 297.066406 C 19.707031 296.222656 20.449219 295.484375 21.292969 295.484375 Z M 21.292969 295.484375 " fill-opacity="1" fill-rule="nonzero"/></g><g clip-path="url(#id2)"><g clip-path="url(#id3)"><g clip-path="url(#id4)"><path fill="rgb(21.179199%, 27.059937%, 30.979919%)" d="M 337.710938 65.5 C 337.238281 64.921875 336.34375 64.710938 335.722656 65.210938 C 334.421875 66.257812 333.121094 67.296875 331.820312 68.339844 C 331.6875 68.449219 331.550781 68.554688 331.417969 68.664062 C 332.042969 67.003906 332.664062 65.339844 333.292969 63.683594 C 333.941406 61.972656 331.335938 60.828125 330.6875 62.542969 C 330.21875 63.78125 329.753906 65.023438 329.289062 66.261719 C 329.128906 64.886719 328.710938 63.492188 327.519531 62.667969 C 326.910156 62.242188 325.988281 62.25 325.519531 62.902344 C 325.09375 63.492188 325.101562 64.445312 325.753906 64.898438 C 325.839844 64.957031 325.917969 65.019531 325.996094 65.085938 C 326 65.101562 326.089844 65.207031 326.128906 65.257812 C 326.144531 65.277344 326.152344 65.289062 326.160156 65.300781 C 326.164062 65.316406 326.171875 65.335938 326.183594 65.367188 C 326.238281 65.507812 326.28125 65.652344 326.339844 65.792969 C 326.34375 65.800781 326.34375 65.800781 326.347656 65.808594 C 326.355469 65.851562 326.363281 65.894531 326.371094 65.941406 C 326.398438 66.074219 326.417969 66.210938 326.4375 66.347656 C 326.476562 66.644531 326.5 66.941406 326.519531 67.242188 C 326.585938 68.269531 326.683594 69.304688 327.15625 70.238281 C 327.269531 70.460938 327.402344 70.675781 327.546875 70.882812 C 323.808594 80.816406 320.085938 90.753906 316.328125 100.679688 C 314.59375 95.476562 312.882812 90.269531 311.09375 85.082031 C 309.808594 81.367188 308.214844 77.792969 306.84375 74.109375 C 305.472656 70.414062 304.609375 66.546875 303.304688 62.824219 C 301.875 58.75 300.476562 54.675781 298.898438 50.65625 C 297.265625 46.492188 295.664062 42.277344 294.210938 38.046875 C 294.050781 37.585938 293.746094 37.328125 293.394531 37.21875 C 290.964844 35.121094 288.191406 34.046875 285.148438 33.125 C 283.484375 32.617188 281.84375 32.027344 280.167969 31.554688 C 278.386719 31.054688 276.589844 30.820312 274.753906 30.625 C 266.941406 29.78125 259.128906 28.988281 251.316406 28.191406 C 247.472656 27.804688 243.59375 27.472656 239.769531 26.917969 C 235.953125 26.367188 232.21875 25.488281 228.375 25.085938 C 224.484375 24.679688 220.636719 24.214844 216.785156 23.539062 C 214.945312 23.214844 213.09375 22.890625 211.222656 22.816406 C 209.40625 22.742188 207.589844 22.832031 205.773438 22.769531 C 202.195312 22.640625 198.710938 21.691406 195.113281 21.722656 C 191.378906 21.753906 187.972656 23.140625 184.917969 25.222656 C 181.746094 27.386719 179.074219 30.171875 176.035156 32.511719 C 172.960938 34.878906 170.1875 37.335938 167.566406 40.203125 C 166.28125 41.609375 164.90625 42.921875 163.601562 44.308594 C 162.394531 45.597656 161.292969 46.980469 160.121094 48.300781 C 158.90625 49.675781 157.613281 50.871094 156.117188 51.933594 C 154.671875 52.960938 153.15625 53.898438 151.828125 55.074219 C 150.351562 56.375 148.984375 57.820312 147.570312 59.1875 C 146.191406 60.523438 144.75 61.820312 143.472656 63.253906 C 142.292969 64.570312 141.28125 66.023438 140.179688 67.402344 C 139.027344 68.839844 137.703125 70.097656 136.441406 71.433594 C 135.125 72.828125 133.84375 74.257812 132.488281 75.617188 C 131.15625 76.949219 129.671875 78.082031 128.171875 79.21875 C 125.160156 81.507812 122.613281 84.210938 119.945312 86.878906 C 117.273438 89.542969 114.347656 91.984375 111.71875 94.6875 C 110.886719 95.542969 110.886719 97.191406 110.933594 98.34375 C 110.964844 99.132812 111.15625 99.902344 111.511719 100.605469 C 111.921875 101.417969 112.464844 102.15625 112.90625 102.953125 C 113.621094 104.242188 114.128906 105.628906 114.671875 106.996094 C 115.976562 110.289062 117.136719 113.703125 118.699219 116.878906 C 119.53125 118.566406 120.46875 120.199219 121.273438 121.898438 C 122.097656 123.640625 122.726562 125.460938 123.332031 127.289062 C 124.566406 131.015625 125.949219 134.644531 127.445312 138.277344 C 128.941406 141.90625 130.195312 145.582031 131.472656 149.292969 C 132.746094 152.996094 134.535156 156.46875 136.007812 160.089844 C 136.199219 160.558594 136.378906 161.035156 136.550781 161.507812 C 134.078125 160.695312 131.597656 159.90625 129.089844 159.195312 C 128.117188 158.917969 127.144531 158.636719 126.175781 158.351562 C 126.164062 158.066406 126.070312 157.789062 125.894531 157.589844 C 123.675781 155.101562 121.097656 153.058594 118.214844 151.390625 C 117.550781 151.003906 116.625 151.472656 116.34375 152.121094 C 116.007812 152.890625 116.410156 153.609375 117.074219 153.996094 C 118.503906 154.820312 119.855469 155.800781 121.117188 156.878906 C 119.269531 156.34375 117.414062 155.820312 115.550781 155.335938 C 113.777344 154.878906 113.351562 157.691406 115.109375 158.144531 C 116.808594 158.585938 118.5 159.066406 120.1875 159.554688 C 118.230469 160.738281 116.277344 161.925781 114.324219 163.109375 C 113.667969 163.507812 113.609375 164.527344 114.035156 165.101562 C 114.53125 165.765625 115.367188 165.789062 116.027344 165.386719 C 118.640625 163.800781 121.257812 162.21875 123.871094 160.632812 C 124.804688 160.90625 125.742188 161.179688 126.679688 161.445312 C 130.371094 162.496094 134.050781 163.550781 137.667969 164.820312 C 138.347656 166.9375 139.015625 169.0625 139.90625 171.101562 C 141.417969 174.566406 143.28125 177.804688 144.597656 181.363281 C 145.894531 184.863281 147.226562 188.359375 148.476562 191.875 C 149.628906 195.117188 150.75 198.355469 152.183594 201.484375 C 152.734375 202.6875 153.320312 203.875 153.910156 205.058594 C 154.253906 205.746094 154.523438 206.558594 154.957031 207.195312 C 156.183594 208.992188 158.96875 209.53125 160.914062 210.046875 C 164.265625 210.933594 167.675781 211.738281 171.078125 212.421875 C 174.578125 213.125 178.09375 213.910156 181.613281 214.523438 C 185.265625 215.164062 188.957031 214.941406 192.636719 215.285156 C 196.195312 215.621094 199.585938 216.886719 203.152344 217.179688 C 206.980469 217.496094 210.820312 217.3125 214.640625 217.796875 C 218.3125 218.261719 221.949219 218.738281 225.636719 219.058594 C 229.398438 219.382812 233.148438 219.6875 236.921875 219.800781 C 238.617188 219.851562 240.320312 219.964844 242.027344 220.039062 C 242.761719 223.859375 243.503906 227.679688 244.234375 231.5 C 244.628906 233.542969 245.019531 235.589844 245.410156 237.632812 C 245.757812 239.441406 246.441406 241.453125 246.371094 243.304688 C 246.304688 245.105469 244.378906 244.761719 243.042969 244.695312 C 241.246094 244.609375 239.457031 244.457031 237.667969 244.304688 C 233.707031 243.96875 229.757812 243.546875 225.800781 243.222656 C 223.726562 243.054688 221.652344 242.886719 219.574219 242.8125 C 218.234375 242.765625 216.863281 242.679688 215.554688 243.023438 C 215.089844 243.144531 214.734375 243.675781 214.667969 244.125 C 214.28125 246.753906 214.140625 249.558594 214.582031 252.183594 C 214.886719 253.980469 217.714844 253.695312 217.414062 251.886719 C 217.066406 249.835938 217.113281 247.703125 217.351562 245.625 C 217.472656 245.621094 217.589844 245.613281 217.710938 245.609375 C 218.542969 245.589844 219.375 245.628906 220.207031 245.671875 C 222.269531 245.777344 224.332031 245.941406 226.390625 246.121094 C 230.632812 246.488281 234.867188 246.933594 239.109375 247.269531 C 240.796875 247.402344 242.484375 247.53125 244.175781 247.558594 C 245.960938 247.59375 247.820312 247.222656 248.710938 245.496094 C 249.515625 243.945312 249.160156 242.144531 248.847656 240.519531 C 248.425781 238.324219 248.007812 236.125 247.585938 233.929688 C 246.703125 229.316406 245.808594 224.703125 244.921875 220.089844 C 245.308594 220.085938 245.695312 220.09375 246.082031 220.074219 C 247.8125 220 249.496094 219.8125 251.230469 219.871094 C 251.542969 219.996094 251.878906 220.027344 252.210938 219.875 C 255.417969 218.378906 258.449219 216.59375 261.542969 214.886719 C 264.59375 213.203125 267.691406 211.703125 270.574219 209.726562 C 273.6875 207.59375 276.707031 205.335938 279.832031 203.21875 C 282.84375 201.171875 285.753906 199.054688 288.554688 196.726562 C 292.382812 193.542969 296.269531 190.4375 300.144531 187.316406 C 302.664062 190.992188 305.277344 194.609375 307.84375 198.25 C 310.636719 202.214844 313.285156 206.273438 315.988281 210.296875 C 317.320312 212.277344 318.578125 214.308594 319.933594 216.273438 C 321.234375 218.15625 322.679688 219.921875 324.09375 221.71875 C 327.046875 225.480469 329.71875 229.507812 332.429688 233.445312 C 333.957031 235.664062 335.417969 237.929688 337.035156 240.085938 C 338.683594 242.273438 340.460938 244.363281 342.09375 246.5625 C 342.523438 247.136719 343.511719 247.363281 344.085938 246.851562 C 347.277344 243.984375 349.679688 240.417969 350.898438 236.292969 C 351.414062 234.558594 348.8125 233.398438 348.292969 235.152344 C 347.351562 238.339844 345.703125 241.210938 343.40625 243.582031 C 340.820312 240.164062 338.15625 236.835938 335.75 233.273438 C 333.054688 229.285156 330.339844 225.253906 327.445312 221.410156 C 326.078125 219.59375 324.609375 217.855469 323.253906 216.027344 C 321.84375 214.125 320.582031 212.117188 319.289062 210.136719 C 316.636719 206.082031 313.960938 202.023438 311.183594 198.058594 C 308.253906 193.878906 305.246094 189.738281 302.363281 185.527344 C 309.09375 180.085938 315.746094 174.558594 321.945312 168.480469 C 324.523438 165.949219 326.902344 163.214844 329.371094 160.578125 C 331.066406 158.765625 333.507812 156.671875 334.128906 154.15625 C 334.285156 153.527344 334.027344 153.074219 333.621094 152.820312 C 332.492188 149.28125 331.03125 145.835938 330.1875 142.214844 C 329.738281 140.28125 329.378906 138.320312 328.847656 136.40625 C 328.328125 134.53125 327.613281 132.71875 326.90625 130.910156 C 325.496094 127.300781 324.359375 123.617188 323.175781 119.929688 C 321.917969 116.023438 320.265625 112.277344 318.933594 108.402344 C 318.410156 106.886719 317.898438 105.367188 317.386719 103.847656 C 317.84375 103.820312 318.269531 103.574219 318.484375 103.003906 C 322.359375 92.792969 326.1875 82.558594 330.035156 72.335938 C 331.511719 72.363281 332.617188 71.34375 333.71875 70.464844 C 334.953125 69.472656 336.191406 68.484375 337.425781 67.488281 C 338.003906 67.023438 338.210938 66.109375 337.710938 65.5 Z M 236.324219 216.957031 C 232.367188 216.824219 228.429688 216.441406 224.484375 216.113281 C 220.542969 215.785156 216.648438 215.046875 212.703125 214.738281 C 208.78125 214.429688 204.804688 214.738281 200.917969 214.003906 C 199.101562 213.664062 197.320312 213.171875 195.507812 212.824219 C 193.632812 212.46875 191.738281 212.355469 189.835938 212.296875 C 185.992188 212.171875 182.351562 211.84375 178.59375 210.996094 C 174.972656 210.183594 171.3125 209.621094 167.703125 208.757812 C 164.609375 208.019531 161.277344 207.542969 158.359375 206.246094 C 158.011719 206.09375 157.691406 205.933594 157.402344 205.691406 C 157.417969 205.691406 157.3125 205.558594 157.269531 205.519531 C 157.242188 205.445312 157.167969 205.277344 157.148438 205.230469 C 156.722656 204.234375 156.183594 203.28125 155.710938 202.308594 C 154.179688 199.160156 152.910156 195.921875 151.753906 192.621094 C 150.480469 188.988281 149.09375 185.394531 147.777344 181.777344 C 147.109375 179.929688 146.457031 178.066406 145.621094 176.285156 C 144.792969 174.523438 143.839844 172.828125 143.011719 171.070312 C 142.238281 169.433594 141.632812 167.738281 141.066406 166.027344 C 147.753906 168.425781 154.453125 170.777344 160.984375 173.59375 C 165.21875 175.421875 169.546875 177.058594 173.742188 178.976562 C 175.410156 179.738281 176.550781 177.132812 174.882812 176.371094 C 171.167969 174.671875 167.335938 173.234375 163.582031 171.617188 C 159.828125 170 156.074219 168.394531 152.222656 167.015625 C 148.140625 165.550781 144.0625 164.066406 139.964844 162.652344 C 139.632812 161.652344 139.289062 160.65625 138.90625 159.675781 C 137.429688 155.898438 135.527344 152.308594 134.191406 148.46875 C 132.855469 144.621094 131.5625 140.800781 130.007812 137.03125 C 128.421875 133.195312 127.027344 129.335938 125.695312 125.40625 C 125.054688 123.507812 124.335938 121.652344 123.433594 119.859375 C 122.570312 118.144531 121.601562 116.480469 120.820312 114.722656 C 119.320312 111.351562 118.085938 107.839844 116.710938 104.410156 C 116.183594 103.101562 115.554688 101.847656 114.824219 100.640625 C 114.398438 99.9375 114.03125 99.53125 113.835938 98.789062 C 113.6875 98.234375 113.789062 97.3125 113.902344 96.527344 C 116.3125 94.351562 118.640625 92.074219 120.972656 89.824219 C 123.4375 87.445312 125.6875 84.808594 128.367188 82.664062 C 131.011719 80.546875 133.605469 78.578125 135.945312 76.109375 C 138.300781 73.632812 140.816406 71.226562 142.914062 68.523438 C 147.046875 63.195312 151.949219 58.316406 157.484375 54.449219 C 160.144531 52.589844 162.191406 50.253906 164.289062 47.808594 C 166.554688 45.171875 169.0625 42.699219 171.449219 40.175781 C 173.824219 37.664062 176.636719 35.746094 179.292969 33.5625 C 182.03125 31.3125 184.515625 28.78125 187.542969 26.902344 C 190.40625 25.121094 193.515625 24.371094 196.875 24.601562 C 200.179688 24.832031 203.402344 25.574219 206.726562 25.613281 C 208.285156 25.632812 209.851562 25.554688 211.410156 25.65625 C 213.140625 25.765625 214.855469 26.085938 216.558594 26.386719 C 220.113281 27.011719 223.65625 27.453125 227.242188 27.824219 C 230.742188 28.183594 234.140625 28.8125 237.597656 29.441406 C 241.105469 30.082031 244.679688 30.285156 248.21875 30.695312 C 256.136719 31.621094 264.089844 32.386719 272.019531 33.195312 C 273.933594 33.390625 275.882812 33.519531 277.773438 33.890625 C 279.507812 34.230469 281.175781 34.820312 282.855469 35.363281 C 285.65625 36.269531 288.289062 37.015625 290.640625 38.679688 C 288.664062 40.972656 286.820312 43.375 284.765625 45.601562 C 282.347656 48.21875 279.808594 50.699219 277.582031 53.484375 C 275.496094 56.089844 273.4375 58.691406 271.222656 61.191406 C 268.878906 63.828125 266.511719 66.421875 264.386719 69.242188 C 263.445312 70.492188 262.511719 71.753906 261.476562 72.933594 C 260.28125 74.300781 258.867188 75.417969 257.460938 76.5625 C 254.898438 78.648438 252.734375 81.089844 250.472656 83.488281 C 245.527344 88.726562 240.40625 93.796875 235.070312 98.628906 C 232.695312 100.78125 230.824219 103.378906 228.488281 105.550781 C 225.949219 107.910156 222.675781 109.226562 219.964844 111.351562 C 217.742188 113.097656 215.503906 116.09375 212.425781 116.105469 C 210.984375 116.113281 209.582031 115.566406 208.242188 115.097656 C 206.761719 114.582031 205.269531 114.144531 203.734375 113.808594 C 200.273438 113.050781 196.769531 112.402344 193.292969 111.71875 C 189.980469 111.066406 186.605469 110.644531 183.375 109.65625 C 176.90625 107.675781 170.121094 106.257812 163.378906 105.597656 C 155.574219 104.832031 147.792969 103.839844 140.070312 102.472656 C 136.375 101.820312 132.816406 100.886719 129.195312 99.925781 C 125.417969 98.921875 121.628906 98.027344 117.878906 96.917969 C 116.144531 96.402344 114.984375 99.003906 116.738281 99.523438 C 120.195312 100.546875 123.65625 101.496094 127.164062 102.332031 C 130.441406 103.113281 133.640625 104.179688 136.957031 104.800781 C 143.984375 106.113281 151.042969 107.089844 158.136719 107.933594 C 161.628906 108.347656 165.117188 108.566406 168.578125 109.195312 C 171.933594 109.800781 175.402344 110.292969 178.695312 111.179688 C 181.9375 112.054688 185.039062 113.085938 188.351562 113.6875 C 191.914062 114.339844 195.445312 115.132812 199.003906 115.796875 C 200.714844 116.113281 202.429688 116.402344 204.121094 116.808594 C 205.734375 117.195312 207.261719 117.804688 208.84375 118.289062 C 210.355469 118.753906 211.785156 118.949219 213.171875 118.8125 C 213.1875 118.929688 213.214844 119.050781 213.265625 119.179688 C 215.757812 125.601562 218.402344 132.027344 220.464844 138.609375 C 221.582031 142.167969 222.578125 145.753906 223.722656 149.304688 C 224.867188 152.835938 226.03125 156.363281 227.160156 159.898438 C 228.347656 163.609375 229.625 167.214844 231.164062 170.796875 C 232.625 174.210938 233.710938 177.773438 234.914062 181.28125 C 236.074219 184.664062 237.117188 188.085938 238.273438 191.46875 C 239.457031 194.941406 240.8125 198.355469 242.117188 201.78125 C 244.054688 206.863281 245.570312 212.535156 248.714844 217.089844 C 247.78125 217.132812 246.84375 217.195312 245.894531 217.242188 C 242.726562 217.394531 239.492188 217.0625 236.324219 216.957031 Z M 303.222656 72.191406 C 304.34375 75.984375 306.101562 79.519531 307.4375 83.230469 C 310.210938 90.953125 312.667969 98.777344 315.300781 106.546875 C 316.605469 110.402344 318.175781 114.148438 319.53125 117.984375 C 320.851562 121.710938 321.855469 125.539062 323.222656 129.246094 C 323.96875 131.277344 324.8125 133.269531 325.527344 135.3125 C 326.246094 137.378906 326.691406 139.5 327.160156 141.628906 C 328.113281 145.9375 329.777344 149.992188 331.082031 154.191406 C 330.800781 154.644531 330.34375 155.214844 330.046875 155.578125 C 329.125 156.695312 328.128906 157.753906 327.140625 158.8125 C 324.964844 161.132812 322.859375 163.53125 320.632812 165.800781 C 315.785156 170.730469 310.429688 175.226562 305.15625 179.683594 C 299.742188 184.257812 294.074219 188.507812 288.597656 193 C 285.78125 195.308594 283 197.601562 280 199.664062 C 277.003906 201.722656 274.027344 203.792969 271.070312 205.90625 C 267.914062 208.160156 264.660156 210.027344 261.242188 211.84375 C 258.160156 213.476562 255.183594 215.261719 252.050781 216.792969 C 248.714844 212.679688 247.164062 207.300781 245.390625 202.417969 C 244.1875 199.105469 242.871094 195.832031 241.664062 192.519531 C 240.445312 189.179688 239.46875 185.761719 238.308594 182.402344 C 237.054688 178.765625 235.949219 175.046875 234.523438 171.46875 C 233.144531 168 231.664062 164.632812 230.515625 161.070312 C 228.269531 154.078125 225.863281 147.132812 223.851562 140.070312 C 221.726562 132.609375 218.71875 125.367188 215.914062 118.140625 C 215.898438 118.109375 215.882812 118.085938 215.871094 118.058594 C 216.355469 117.835938 216.835938 117.578125 217.316406 117.253906 C 218.550781 116.414062 219.625 115.363281 220.753906 114.390625 C 222.167969 113.171875 223.71875 112.179688 225.316406 111.21875 C 226.65625 110.414062 228.011719 109.625 229.238281 108.648438 C 230.640625 107.53125 231.851562 106.191406 233.023438 104.84375 C 235.316406 102.207031 237.875 99.933594 240.410156 97.539062 C 243 95.101562 245.539062 92.617188 248.027344 90.078125 C 250.539062 87.519531 253.011719 84.933594 255.453125 82.3125 C 257.738281 79.859375 260.515625 77.996094 262.863281 75.613281 C 265.570312 72.871094 267.625 69.519531 270.179688 66.632812 C 272.8125 63.660156 275.507812 60.746094 277.957031 57.617188 C 280.453125 54.421875 283.113281 51.464844 285.90625 48.527344 C 288.15625 46.15625 290.171875 43.59375 292.289062 41.113281 C 294.675781 47.816406 297.363281 54.410156 299.703125 61.132812 C 300.980469 64.800781 302.121094 68.46875 303.222656 72.191406 Z M 259.855469 135.894531 C 259.109375 135.921875 258.480469 136.730469 258.589844 137.457031 C 258.707031 138.261719 259.351562 138.753906 260.148438 138.722656 C 263.503906 138.597656 267.101562 139.144531 270.273438 140.285156 C 270.996094 140.542969 271.824219 140.289062 272.144531 139.550781 C 272.4375 138.882812 272.136719 137.9375 271.414062 137.679688 C 267.699219 136.34375 263.800781 135.746094 259.855469 135.894531 Z M 290.121094 114.867188 C 289.339844 114.777344 288.636719 115.269531 288.492188 116.050781 C 287.878906 119.429688 287.269531 122.808594 286.652344 126.1875 C 286.519531 126.917969 287.085938 127.726562 287.835938 127.8125 C 288.617188 127.902344 289.320312 127.410156 289.464844 126.628906 C 290.078125 123.25 290.6875 119.871094 291.304688 116.492188 C 291.4375 115.757812 290.871094 114.953125 290.121094 114.867188 Z M 286.34375 143.710938 C 287.480469 143.300781 288.21875 142.324219 288.476562 141.167969 C 288.753906 139.9375 288.324219 138.597656 287.613281 137.59375 C 287.351562 137.230469 286.785156 136.929688 286.324219 137.03125 C 285.027344 137.320312 283.574219 137.742188 282.792969 138.921875 C 282.390625 139.53125 282.195312 140.191406 282.253906 140.929688 C 282.261719 141.070312 282.285156 141.21875 282.320312 141.367188 C 282.320312 141.425781 282.316406 141.488281 282.320312 141.550781 C 282.375 142.230469 282.730469 142.808594 283.222656 143.257812 C 284.054688 144.007812 285.332031 144.078125 286.34375 143.710938 Z M 290.96875 142.746094 C 290.234375 147.722656 284.269531 151.277344 279.546875 149.460938 C 277.84375 148.804688 276.695312 151.410156 278.40625 152.066406 C 284.808594 154.53125 292.769531 150.03125 293.777344 143.1875 C 294.046875 141.375 291.234375 140.933594 290.96875 142.746094 Z M 290.96875 142.746094 " fill-opacity="1" fill-rule="nonzero"/></g></g></g></svg>