<svg xmlns="http://www.w3.org/2000/svg" xmlns:xlink="http://www.w3.org/1999/xlink" width="500" zoomAndPan="magnify" viewBox="0 0 375 225" height="300" preserveAspectRatio="xMidYMid meet" version="1.0"><defs><clipPath id="id1"><path d="M 7.5 2.964844 L 161.25 2.964844 L 161.25 156.714844 L 7.5 156.714844 Z M 7.5 2.964844 " clip-rule="nonzero"/></clipPath><clipPath id="id2"><path d="M 178 37 L 366 37 L 366 218 L 178 218 Z M 178 37 " clip-rule="nonzero"/></clipPath><clipPath id="id3"><path d="M 150.363281 72.574219 L 328.476562 2.914062 L 403.871094 195.695312 L 225.761719 265.355469 Z M 150.363281 72.574219 " clip-rule="nonzero"/></clipPath><clipPath id="id4"><path d="M 150.363281 72.574219 L 328.476562 2.914062 L 403.871094 195.695312 L 225.761719 265.355469 Z M 150.363281 72.574219 " clip-rule="nonzero"/></clipPath></defs><g clip-path="url(#id1)"><path fill="rgb(21.179199%, 27.059937%, 30.979919%)" d="M 161.25 155.042969 L 161.25 155.460938 C 161.25 156.171875 160.707031 156.714844 159.996094 156.714844 L 159.578125 156.714844 C 158.867188 156.714844 158.320312 156.171875 158.320312 155.460938 C 158.320312 155 158.574219 154.625 158.90625 154.371094 C 159.117188 153.996094 159.535156 153.785156 159.996094 153.785156 C 160.664062 153.785156 161.25 154.332031 161.25 155.042969 Z M 122.632812 154.203125 L 121.757812 154.203125 C 121.042969 154.203125 120.5 154.75 120.5 155.460938 C 120.5 156.171875 121.042969 156.714844 121.757812 156.714844 L 122.632812 156.714844 C 123.347656 156.714844 123.890625 156.171875 123.890625 155.460938 C 123.890625 154.75 123.304688 154.203125 122.632812 154.203125 Z M 28.082031 154.203125 L 27.246094 154.203125 C 26.535156 154.203125 25.992188 154.75 25.992188 155.460938 C 25.992188 156.171875 26.535156 156.714844 27.246094 156.714844 L 28.082031 156.714844 C 28.792969 156.714844 29.339844 156.171875 29.339844 155.460938 C 29.339844 154.75 28.792969 154.203125 28.082031 154.203125 Z M 113.179688 154.203125 L 112.34375 154.203125 C 111.632812 154.203125 111.085938 154.75 111.085938 155.460938 C 111.085938 156.171875 111.632812 156.714844 112.34375 156.714844 L 113.179688 156.714844 C 113.890625 156.714844 114.433594 156.171875 114.433594 155.460938 C 114.433594 154.75 113.847656 154.203125 113.179688 154.203125 Z M 132.046875 154.203125 L 131.167969 154.203125 C 130.457031 154.203125 129.914062 154.75 129.914062 155.460938 C 129.914062 156.171875 130.457031 156.714844 131.167969 156.714844 L 132.046875 156.714844 C 132.757812 156.714844 133.304688 156.171875 133.304688 155.460938 C 133.304688 154.75 132.757812 154.203125 132.046875 154.203125 Z M 150.957031 154.203125 L 150.121094 154.203125 C 149.410156 154.203125 148.867188 154.75 148.867188 155.460938 C 148.867188 156.171875 149.410156 156.714844 150.121094 156.714844 L 150.957031 156.714844 C 151.667969 156.714844 152.214844 156.171875 152.214844 155.460938 C 152.214844 154.75 151.667969 154.203125 150.957031 154.203125 Z M 18.671875 154.203125 L 17.792969 154.203125 C 17.082031 154.203125 16.535156 154.75 16.535156 155.460938 C 16.535156 156.171875 17.082031 156.714844 17.792969 156.714844 L 18.671875 156.714844 C 19.382812 156.714844 19.925781 156.171875 19.925781 155.460938 C 19.925781 154.75 19.339844 154.203125 18.671875 154.203125 Z M 103.722656 154.203125 L 102.886719 154.203125 C 102.175781 154.203125 101.632812 154.75 101.632812 155.460938 C 101.632812 156.171875 102.175781 156.714844 102.886719 156.714844 L 103.722656 156.714844 C 104.4375 156.714844 104.980469 156.171875 104.980469 155.460938 C 104.980469 154.75 104.394531 154.203125 103.722656 154.203125 Z M 141.503906 154.203125 L 140.667969 154.203125 C 139.957031 154.203125 139.410156 154.75 139.410156 155.460938 C 139.410156 156.171875 139.957031 156.714844 140.667969 156.714844 L 141.503906 156.714844 C 142.214844 156.714844 142.757812 156.171875 142.757812 155.460938 C 142.757812 154.75 142.214844 154.203125 141.503906 154.203125 Z M 75.359375 154.203125 L 74.480469 154.203125 C 73.769531 154.203125 73.226562 154.75 73.226562 155.460938 C 73.226562 156.171875 73.769531 156.714844 74.480469 156.714844 L 75.359375 156.714844 C 76.070312 156.714844 76.613281 156.171875 76.613281 155.460938 C 76.613281 154.75 76.070312 154.203125 75.359375 154.203125 Z M 46.992188 154.203125 L 46.117188 154.203125 C 45.402344 154.203125 44.859375 154.75 44.859375 155.460938 C 44.859375 156.171875 45.402344 156.714844 46.117188 156.714844 L 46.992188 156.714844 C 47.707031 156.714844 48.25 156.171875 48.25 155.460938 C 48.25 154.75 47.707031 154.203125 46.992188 154.203125 Z M 84.8125 154.203125 L 83.9375 154.203125 C 83.222656 154.203125 82.679688 154.75 82.679688 155.460938 C 82.679688 156.171875 83.222656 156.714844 83.9375 156.714844 L 84.8125 156.714844 C 85.527344 156.714844 86.070312 156.171875 86.070312 155.460938 C 86.070312 154.75 85.484375 154.203125 84.8125 154.203125 Z M 65.902344 154.203125 L 65.066406 154.203125 C 64.355469 154.203125 63.8125 154.75 63.8125 155.460938 C 63.8125 156.171875 64.355469 156.714844 65.066406 156.714844 L 65.902344 156.714844 C 66.617188 156.714844 67.160156 156.171875 67.160156 155.460938 C 67.160156 154.75 66.617188 154.203125 65.902344 154.203125 Z M 56.449219 154.203125 L 55.613281 154.203125 C 54.902344 154.203125 54.355469 154.75 54.355469 155.460938 C 54.355469 156.171875 54.902344 156.714844 55.613281 156.714844 L 56.492188 156.714844 C 57.203125 156.714844 57.746094 156.171875 57.746094 155.460938 C 57.746094 154.75 57.160156 154.203125 56.449219 154.203125 Z M 94.269531 154.203125 L 93.433594 154.203125 C 92.722656 154.203125 92.175781 154.75 92.175781 155.460938 C 92.175781 156.171875 92.722656 156.714844 93.433594 156.714844 L 94.269531 156.714844 C 94.980469 156.714844 95.523438 156.171875 95.523438 155.460938 C 95.523438 154.75 94.9375 154.203125 94.269531 154.203125 Z M 37.539062 154.203125 L 36.703125 154.203125 C 35.992188 154.203125 35.445312 154.75 35.445312 155.460938 C 35.445312 156.171875 35.992188 156.714844 36.703125 156.714844 L 37.539062 156.714844 C 38.25 156.714844 38.792969 156.171875 38.792969 155.460938 C 38.792969 154.75 38.25 154.203125 37.539062 154.203125 Z M 9.84375 154.371094 C 9.59375 153.996094 9.214844 153.785156 8.753906 153.785156 C 8.042969 153.785156 7.5 154.332031 7.5 155.042969 L 7.5 155.460938 C 7.5 156.171875 8.042969 156.714844 8.753906 156.714844 L 9.171875 156.714844 C 9.882812 156.714844 10.429688 156.171875 10.429688 155.460938 C 10.429688 155 10.175781 154.582031 9.84375 154.371094 Z M 8.753906 147.679688 C 9.464844 147.679688 10.011719 147.132812 10.011719 146.421875 L 10.011719 145.585938 C 10.011719 144.875 9.464844 144.332031 8.753906 144.332031 C 8.042969 144.332031 7.5 144.875 7.5 145.585938 L 7.5 146.421875 C 7.5 147.132812 8.042969 147.679688 8.753906 147.679688 Z M 8.753906 43.714844 C 9.464844 43.714844 10.011719 43.171875 10.011719 42.460938 L 10.011719 41.582031 C 10.011719 40.871094 9.464844 40.324219 8.753906 40.324219 C 8.042969 40.324219 7.5 40.871094 7.5 41.582031 L 7.5 42.460938 C 7.5 43.171875 8.042969 43.714844 8.753906 43.714844 Z M 8.753906 72.078125 C 9.464844 72.078125 10.011719 71.535156 10.011719 70.824219 L 10.011719 69.945312 C 10.011719 69.234375 9.464844 68.691406 8.753906 68.691406 C 8.042969 68.691406 7.5 69.234375 7.5 69.945312 L 7.5 70.824219 C 7.5 71.535156 8.042969 72.078125 8.753906 72.078125 Z M 8.753906 81.535156 C 9.464844 81.535156 10.011719 80.992188 10.011719 80.28125 L 10.011719 79.402344 C 10.011719 78.691406 9.464844 78.144531 8.753906 78.144531 C 8.042969 78.144531 7.5 78.691406 7.5 79.402344 L 7.5 80.28125 C 7.5 80.949219 8.042969 81.535156 8.753906 81.535156 Z M 8.753906 62.625 C 9.464844 62.625 10.011719 62.082031 10.011719 61.371094 L 10.011719 60.53125 C 10.011719 59.820312 9.464844 59.277344 8.753906 59.277344 C 8.042969 59.277344 7.5 59.820312 7.5 60.53125 L 7.5 61.371094 C 7.5 62.082031 8.042969 62.625 8.753906 62.625 Z M 8.753906 53.167969 C 9.464844 53.167969 10.011719 52.625 10.011719 51.914062 L 10.011719 51.078125 C 10.011719 50.367188 9.464844 49.824219 8.753906 49.824219 C 8.042969 49.824219 7.5 50.367188 7.5 51.078125 L 7.5 51.957031 C 7.5 52.625 8.042969 53.167969 8.753906 53.167969 Z M 8.753906 15.390625 C 9.464844 15.390625 10.011719 14.847656 10.011719 14.136719 L 10.011719 13.257812 C 10.011719 12.546875 9.464844 12.003906 8.753906 12.003906 C 8.042969 12.003906 7.5 12.546875 7.5 13.257812 L 7.5 14.136719 C 7.5 14.804688 8.042969 15.390625 8.753906 15.390625 Z M 8.753906 24.804688 C 9.464844 24.804688 10.011719 24.261719 10.011719 23.550781 L 10.011719 22.710938 C 10.011719 22 9.464844 21.457031 8.753906 21.457031 C 8.042969 21.457031 7.5 22 7.5 22.710938 L 7.5 23.550781 C 7.5 24.261719 8.042969 24.804688 8.753906 24.804688 Z M 8.753906 90.988281 C 9.464844 90.988281 10.011719 90.445312 10.011719 89.734375 L 10.011719 88.898438 C 10.011719 88.1875 9.464844 87.644531 8.753906 87.644531 C 8.042969 87.644531 7.5 88.1875 7.5 88.898438 L 7.5 89.734375 C 7.5 90.402344 8.042969 90.988281 8.753906 90.988281 Z M 8.753906 34.257812 C 9.464844 34.257812 10.011719 33.714844 10.011719 33.003906 L 10.011719 32.167969 C 10.011719 31.457031 9.464844 30.914062 8.753906 30.914062 C 8.042969 30.914062 7.5 31.457031 7.5 32.167969 L 7.5 33.003906 C 7.5 33.714844 8.042969 34.257812 8.753906 34.257812 Z M 8.753906 119.355469 C 9.464844 119.355469 10.011719 118.8125 10.011719 118.101562 L 10.011719 117.222656 C 10.011719 116.511719 9.464844 115.964844 8.753906 115.964844 C 8.042969 115.964844 7.5 116.511719 7.5 117.222656 L 7.5 118.101562 C 7.5 118.769531 8.042969 119.355469 8.753906 119.355469 Z M 8.753906 128.769531 C 9.464844 128.769531 10.011719 128.222656 10.011719 127.511719 L 10.011719 126.632812 C 10.011719 125.921875 9.464844 125.378906 8.753906 125.378906 C 8.042969 125.378906 7.5 125.921875 7.5 126.632812 L 7.5 127.511719 C 7.5 128.222656 8.042969 128.769531 8.753906 128.769531 Z M 8.753906 138.222656 C 9.464844 138.222656 10.011719 137.679688 10.011719 136.96875 L 10.011719 136.132812 C 10.011719 135.421875 9.464844 134.875 8.753906 134.875 C 8.042969 134.875 7.5 135.421875 7.5 136.132812 L 7.5 136.96875 C 7.5 137.679688 8.042969 138.222656 8.753906 138.222656 Z M 8.753906 109.898438 C 9.464844 109.898438 10.011719 109.355469 10.011719 108.644531 L 10.011719 107.808594 C 10.011719 107.097656 9.464844 106.554688 8.753906 106.554688 C 8.042969 106.554688 7.5 107.097656 7.5 107.808594 L 7.5 108.644531 C 7.5 109.3125 8.042969 109.898438 8.753906 109.898438 Z M 8.753906 100.445312 C 9.464844 100.445312 10.011719 99.902344 10.011719 99.191406 L 10.011719 98.351562 C 10.011719 97.640625 9.464844 97.097656 8.753906 97.097656 C 8.042969 97.097656 7.5 97.640625 7.5 98.351562 L 7.5 99.191406 C 7.5 99.859375 8.042969 100.445312 8.753906 100.445312 Z M 9.171875 2.964844 L 8.753906 2.964844 C 8.042969 2.964844 7.5 3.507812 7.5 4.21875 L 7.5 4.640625 C 7.5 5.351562 8.042969 5.894531 8.753906 5.894531 C 9.214844 5.894531 9.59375 5.644531 9.84375 5.308594 C 10.175781 5.058594 10.429688 4.679688 10.429688 4.21875 C 10.429688 3.507812 9.882812 2.964844 9.171875 2.964844 Z M 17.75 5.476562 L 18.585938 5.476562 C 19.296875 5.476562 19.84375 4.929688 19.84375 4.21875 C 19.84375 3.507812 19.296875 2.964844 18.585938 2.964844 L 17.75 2.964844 C 17.039062 2.964844 16.496094 3.507812 16.496094 4.21875 C 16.496094 4.929688 17.082031 5.476562 17.75 5.476562 Z M 55.570312 5.476562 L 56.449219 5.476562 C 57.160156 5.476562 57.703125 4.929688 57.703125 4.21875 C 57.703125 3.507812 57.160156 2.964844 56.449219 2.964844 L 55.570312 2.964844 C 54.859375 2.964844 54.316406 3.507812 54.316406 4.21875 C 54.316406 4.929688 54.859375 5.476562 55.570312 5.476562 Z M 36.660156 5.476562 L 37.496094 5.476562 C 38.207031 5.476562 38.753906 4.929688 38.753906 4.21875 C 38.753906 3.507812 38.207031 2.964844 37.496094 2.964844 L 36.660156 2.964844 C 35.949219 2.964844 35.40625 3.507812 35.40625 4.21875 C 35.40625 4.929688 35.992188 5.476562 36.660156 5.476562 Z M 46.117188 5.476562 L 46.953125 5.476562 C 47.664062 5.476562 48.207031 4.929688 48.207031 4.21875 C 48.207031 3.507812 47.664062 2.964844 46.953125 2.964844 L 46.117188 2.964844 C 45.402344 2.964844 44.859375 3.507812 44.859375 4.21875 C 44.859375 4.929688 45.445312 5.476562 46.117188 5.476562 Z M 27.207031 5.476562 L 28.082031 5.476562 C 28.792969 5.476562 29.339844 4.929688 29.339844 4.21875 C 29.339844 3.507812 28.792969 2.964844 28.082031 2.964844 L 27.207031 2.964844 C 26.492188 2.964844 25.949219 3.507812 25.949219 4.21875 C 25.949219 4.929688 26.535156 5.476562 27.207031 5.476562 Z M 121.714844 5.476562 L 122.550781 5.476562 C 123.261719 5.476562 123.804688 4.929688 123.804688 4.21875 C 123.804688 3.507812 123.261719 2.964844 122.550781 2.964844 L 121.714844 2.964844 C 121.003906 2.964844 120.460938 3.507812 120.460938 4.21875 C 120.460938 4.929688 121.042969 5.476562 121.714844 5.476562 Z M 131.167969 5.476562 L 132.007812 5.476562 C 132.71875 5.476562 133.261719 4.929688 133.261719 4.21875 C 133.261719 3.507812 132.71875 2.964844 132.007812 2.964844 L 131.167969 2.964844 C 130.457031 2.964844 129.914062 3.507812 129.914062 4.21875 C 129.914062 4.929688 130.5 5.476562 131.167969 5.476562 Z M 112.257812 5.476562 L 113.097656 5.476562 C 113.808594 5.476562 114.351562 4.929688 114.351562 4.21875 C 114.351562 3.507812 113.808594 2.964844 113.097656 2.964844 L 112.257812 2.964844 C 111.546875 2.964844 111.003906 3.507812 111.003906 4.21875 C 111.003906 4.929688 111.589844 5.476562 112.257812 5.476562 Z M 150.078125 5.476562 L 150.917969 5.476562 C 151.628906 5.476562 152.171875 4.929688 152.171875 4.21875 C 152.171875 3.507812 151.628906 2.964844 150.917969 2.964844 L 150.078125 2.964844 C 149.367188 2.964844 148.824219 3.507812 148.824219 4.21875 C 148.824219 4.929688 149.367188 5.476562 150.078125 5.476562 Z M 140.625 5.476562 L 141.460938 5.476562 C 142.171875 5.476562 142.714844 4.929688 142.714844 4.21875 C 142.714844 3.507812 142.171875 2.964844 141.460938 2.964844 L 140.625 2.964844 C 139.914062 2.964844 139.371094 3.507812 139.371094 4.21875 C 139.371094 4.929688 139.957031 5.476562 140.625 5.476562 Z M 83.9375 5.476562 L 84.8125 5.476562 C 85.527344 5.476562 86.070312 4.929688 86.070312 4.21875 C 86.070312 3.507812 85.527344 2.964844 84.8125 2.964844 L 83.9375 2.964844 C 83.222656 2.964844 82.679688 3.507812 82.679688 4.21875 C 82.679688 4.929688 83.222656 5.476562 83.9375 5.476562 Z M 102.804688 5.476562 L 103.683594 5.476562 C 104.394531 5.476562 104.9375 4.929688 104.9375 4.21875 C 104.9375 3.507812 104.394531 2.964844 103.683594 2.964844 L 102.804688 2.964844 C 102.09375 2.964844 101.550781 3.507812 101.550781 4.21875 C 101.550781 4.929688 102.132812 5.476562 102.804688 5.476562 Z M 65.027344 5.476562 L 65.863281 5.476562 C 66.574219 5.476562 67.117188 4.929688 67.117188 4.21875 C 67.117188 3.507812 66.574219 2.964844 65.863281 2.964844 L 65.027344 2.964844 C 64.3125 2.964844 63.769531 3.507812 63.769531 4.21875 C 63.769531 4.929688 64.3125 5.476562 65.027344 5.476562 Z M 74.480469 5.476562 L 75.316406 5.476562 C 76.027344 5.476562 76.574219 4.929688 76.574219 4.21875 C 76.574219 3.507812 76.027344 2.964844 75.316406 2.964844 L 74.480469 2.964844 C 73.769531 2.964844 73.226562 3.507812 73.226562 4.21875 C 73.226562 4.929688 73.769531 5.476562 74.480469 5.476562 Z M 93.390625 5.476562 L 94.226562 5.476562 C 94.9375 5.476562 95.484375 4.929688 95.484375 4.21875 C 95.484375 3.507812 94.9375 2.964844 94.226562 2.964844 L 93.390625 2.964844 C 92.679688 2.964844 92.136719 3.507812 92.136719 4.21875 C 92.136719 4.929688 92.679688 5.476562 93.390625 5.476562 Z M 159.996094 2.964844 L 159.578125 2.964844 C 158.867188 2.964844 158.320312 3.507812 158.320312 4.21875 C 158.320312 4.679688 158.574219 5.058594 158.90625 5.308594 C 159.117188 5.683594 159.535156 5.894531 159.996094 5.894531 C 160.707031 5.894531 161.25 5.351562 161.25 4.640625 L 161.25 4.21875 C 161.25 3.507812 160.664062 2.964844 159.996094 2.964844 Z M 159.996094 59.234375 C 159.285156 59.234375 158.738281 59.78125 158.738281 60.492188 L 158.738281 61.328125 C 158.738281 62.039062 159.285156 62.582031 159.996094 62.582031 C 160.707031 62.582031 161.25 62.039062 161.25 61.328125 L 161.25 60.492188 C 161.25 59.78125 160.664062 59.234375 159.996094 59.234375 Z M 159.996094 49.78125 C 159.285156 49.78125 158.738281 50.324219 158.738281 51.035156 L 158.738281 51.914062 C 158.738281 52.625 159.285156 53.167969 159.996094 53.167969 C 160.707031 53.167969 161.25 52.625 161.25 51.914062 L 161.25 51.035156 C 161.25 50.324219 160.664062 49.78125 159.996094 49.78125 Z M 159.996094 68.691406 C 159.285156 68.691406 158.738281 69.234375 158.738281 69.945312 L 158.738281 70.78125 C 158.738281 71.492188 159.285156 72.039062 159.996094 72.039062 C 160.707031 72.039062 161.25 71.492188 161.25 70.78125 L 161.25 69.945312 C 161.25 69.234375 160.664062 68.691406 159.996094 68.691406 Z M 159.996094 78.144531 C 159.285156 78.144531 158.738281 78.691406 158.738281 79.402344 L 158.738281 80.28125 C 158.738281 80.992188 159.285156 81.535156 159.996094 81.535156 C 160.707031 81.535156 161.25 80.992188 161.25 80.28125 L 161.25 79.402344 C 161.25 78.691406 160.664062 78.144531 159.996094 78.144531 Z M 159.996094 40.324219 C 159.285156 40.324219 158.738281 40.871094 158.738281 41.582031 L 158.738281 42.417969 C 158.738281 43.128906 159.285156 43.671875 159.996094 43.671875 C 160.707031 43.671875 161.25 43.128906 161.25 42.417969 L 161.25 41.582031 C 161.25 40.910156 160.664062 40.324219 159.996094 40.324219 Z M 159.996094 11.960938 C 159.285156 11.960938 158.738281 12.503906 158.738281 13.214844 L 158.738281 14.050781 C 158.738281 14.761719 159.285156 15.308594 159.996094 15.308594 C 160.707031 15.308594 161.25 14.761719 161.25 14.050781 L 161.25 13.214844 C 161.25 12.546875 160.664062 11.960938 159.996094 11.960938 Z M 159.996094 21.414062 C 159.285156 21.414062 158.738281 21.960938 158.738281 22.671875 L 158.738281 23.550781 C 158.738281 24.261719 159.285156 24.804688 159.996094 24.804688 C 160.707031 24.804688 161.25 24.261719 161.25 23.550781 L 161.25 22.671875 C 161.25 22 160.664062 21.414062 159.996094 21.414062 Z M 159.996094 144.289062 C 159.285156 144.289062 158.738281 144.832031 158.738281 145.542969 L 158.738281 146.382812 C 158.738281 147.09375 159.285156 147.636719 159.996094 147.636719 C 160.707031 147.636719 161.25 147.09375 161.25 146.382812 L 161.25 145.542969 C 161.25 144.832031 160.664062 144.289062 159.996094 144.289062 Z M 159.996094 30.871094 C 159.285156 30.871094 158.738281 31.414062 158.738281 32.125 L 158.738281 32.960938 C 158.738281 33.671875 159.285156 34.21875 159.996094 34.21875 C 160.707031 34.21875 161.25 33.671875 161.25 32.960938 L 161.25 32.125 C 161.25 31.457031 160.664062 30.871094 159.996094 30.871094 Z M 159.996094 87.601562 C 159.285156 87.601562 158.738281 88.144531 158.738281 88.855469 L 158.738281 89.691406 C 158.738281 90.402344 159.285156 90.949219 159.996094 90.949219 C 160.707031 90.949219 161.25 90.402344 161.25 89.691406 L 161.25 88.855469 C 161.25 88.144531 160.664062 87.601562 159.996094 87.601562 Z M 159.996094 134.835938 C 159.285156 134.835938 158.738281 135.378906 158.738281 136.089844 L 158.738281 136.925781 C 158.738281 137.636719 159.285156 138.179688 159.996094 138.179688 C 160.707031 138.179688 161.25 137.636719 161.25 136.925781 L 161.25 136.089844 C 161.25 135.421875 160.664062 134.835938 159.996094 134.835938 Z M 159.996094 115.925781 C 159.285156 115.925781 158.738281 116.46875 158.738281 117.179688 L 158.738281 118.015625 C 158.738281 118.726562 159.285156 119.269531 159.996094 119.269531 C 160.707031 119.269531 161.25 118.726562 161.25 118.015625 L 161.25 117.179688 C 161.25 116.511719 160.664062 115.925781 159.996094 115.925781 Z M 159.996094 125.378906 C 159.285156 125.378906 158.738281 125.921875 158.738281 126.632812 L 158.738281 127.472656 C 158.738281 128.183594 159.285156 128.726562 159.996094 128.726562 C 160.707031 128.726562 161.25 128.183594 161.25 127.472656 L 161.25 126.632812 C 161.25 125.964844 160.664062 125.378906 159.996094 125.378906 Z M 159.996094 97.015625 C 159.285156 97.015625 158.738281 97.558594 158.738281 98.269531 L 158.738281 99.148438 C 158.738281 99.859375 159.285156 100.402344 159.996094 100.402344 C 160.707031 100.402344 161.25 99.859375 161.25 99.148438 L 161.25 98.269531 C 161.25 97.601562 160.664062 97.015625 159.996094 97.015625 Z M 159.996094 106.46875 C 159.285156 106.46875 158.738281 107.011719 158.738281 107.722656 L 158.738281 108.5625 C 158.738281 109.273438 159.285156 109.816406 159.996094 109.816406 C 160.707031 109.816406 161.25 109.273438 161.25 108.5625 L 161.25 107.722656 C 161.25 107.054688 160.664062 106.46875 159.996094 106.46875 Z M 159.996094 106.46875 " fill-opacity="1" fill-rule="nonzero"/></g><g clip-path="url(#id2)"><g clip-path="url(#id3)"><g clip-path="url(#id4)"><path fill="rgb(21.179199%, 27.059937%, 30.979919%)" d="M 354.9375 71.289062 C 354.570312 70.835938 353.871094 70.675781 353.386719 71.0625 C 352.375 71.878906 351.359375 72.691406 350.34375 73.503906 C 350.238281 73.589844 350.132812 73.671875 350.03125 73.757812 C 350.519531 72.460938 351.003906 71.164062 351.492188 69.871094 C 351.996094 68.539062 349.96875 67.644531 349.460938 68.984375 C 349.09375 69.949219 348.734375 70.917969 348.371094 71.882812 C 348.246094 70.8125 347.917969 69.726562 346.992188 69.082031 C 346.515625 68.75 345.796875 68.757812 345.433594 69.261719 C 345.097656 69.726562 345.105469 70.46875 345.613281 70.820312 C 345.679688 70.867188 345.742188 70.917969 345.800781 70.96875 C 345.804688 70.980469 345.875 71.058594 345.90625 71.101562 C 345.917969 71.117188 345.925781 71.125 345.933594 71.132812 C 345.933594 71.144531 345.941406 71.160156 345.949219 71.183594 C 345.992188 71.292969 346.027344 71.410156 346.070312 71.515625 C 346.074219 71.523438 346.074219 71.523438 346.074219 71.527344 C 346.082031 71.5625 346.089844 71.597656 346.097656 71.632812 C 346.117188 71.738281 346.132812 71.84375 346.148438 71.949219 C 346.175781 72.179688 346.195312 72.414062 346.210938 72.648438 C 346.261719 73.449219 346.335938 74.253906 346.707031 74.984375 C 346.796875 75.15625 346.898438 75.324219 347.011719 75.484375 C 344.097656 83.230469 341.195312 90.980469 338.261719 98.71875 C 336.910156 94.664062 335.578125 90.601562 334.183594 86.558594 C 333.179688 83.660156 331.9375 80.875 330.871094 78.003906 C 329.800781 75.121094 329.125 72.105469 328.109375 69.203125 C 326.996094 66.027344 325.902344 62.851562 324.675781 59.71875 C 323.402344 56.472656 322.152344 53.183594 321.019531 49.886719 C 320.894531 49.527344 320.65625 49.324219 320.382812 49.242188 C 318.488281 47.605469 316.324219 46.769531 313.953125 46.046875 C 312.652344 45.652344 311.375 45.195312 310.066406 44.828125 C 308.679688 44.4375 307.277344 44.253906 305.847656 44.101562 C 299.757812 43.445312 293.664062 42.824219 287.570312 42.207031 C 284.574219 41.902344 281.550781 41.644531 278.570312 41.210938 C 275.589844 40.78125 272.679688 40.097656 269.679688 39.785156 C 266.648438 39.464844 263.648438 39.105469 260.644531 38.578125 C 259.210938 38.324219 257.769531 38.070312 256.308594 38.015625 C 254.890625 37.957031 253.476562 38.027344 252.058594 37.976562 C 249.269531 37.878906 246.550781 37.140625 243.746094 37.164062 C 240.835938 37.1875 238.179688 38.269531 235.796875 39.894531 C 233.324219 41.582031 231.238281 43.753906 228.871094 45.574219 C 226.472656 47.421875 224.308594 49.339844 222.265625 51.574219 C 221.261719 52.667969 220.191406 53.691406 219.171875 54.773438 C 218.230469 55.777344 217.371094 56.855469 216.460938 57.886719 C 215.511719 58.960938 214.503906 59.890625 213.335938 60.722656 C 212.210938 61.519531 211.027344 62.253906 209.992188 63.167969 C 208.839844 64.183594 207.773438 65.308594 206.667969 66.378906 C 205.59375 67.417969 204.472656 68.429688 203.476562 69.546875 C 202.558594 70.574219 201.765625 71.707031 200.90625 72.78125 C 200.011719 73.898438 198.976562 74.882812 197.992188 75.925781 C 196.964844 77.011719 195.964844 78.125 194.910156 79.183594 C 193.871094 80.226562 192.710938 81.109375 191.546875 81.996094 C 189.195312 83.777344 187.210938 85.886719 185.128906 87.964844 C 183.042969 90.042969 180.765625 91.945312 178.714844 94.054688 C 178.066406 94.722656 178.066406 96.007812 178.101562 96.90625 C 178.125 97.523438 178.273438 98.121094 178.550781 98.667969 C 178.871094 99.304688 179.292969 99.878906 179.640625 100.5 C 180.195312 101.507812 180.59375 102.585938 181.015625 103.652344 C 182.03125 106.21875 182.9375 108.878906 184.15625 111.355469 C 184.804688 112.671875 185.535156 113.945312 186.164062 115.273438 C 186.804688 116.628906 187.292969 118.046875 187.765625 119.472656 C 188.730469 122.378906 189.808594 125.210938 190.972656 128.039062 C 192.140625 130.871094 193.117188 133.734375 194.113281 136.628906 C 195.105469 139.519531 196.503906 142.222656 197.652344 145.046875 C 197.800781 145.414062 197.941406 145.78125 198.074219 146.15625 C 196.148438 145.519531 194.210938 144.902344 192.253906 144.347656 C 191.496094 144.132812 190.738281 143.914062 189.984375 143.691406 C 189.972656 143.46875 189.902344 143.253906 189.765625 143.101562 C 188.035156 141.160156 186.027344 139.566406 183.777344 138.265625 C 183.257812 137.964844 182.539062 138.332031 182.316406 138.835938 C 182.054688 139.4375 182.367188 139.996094 182.886719 140.296875 C 184.003906 140.941406 185.054688 141.703125 186.039062 142.542969 C 184.597656 142.128906 183.152344 141.71875 181.699219 141.34375 C 180.316406 140.984375 179.984375 143.179688 181.355469 143.53125 C 182.679688 143.875 183.996094 144.25 185.3125 144.632812 C 183.789062 145.554688 182.265625 146.480469 180.742188 147.402344 C 180.230469 147.714844 180.183594 148.507812 180.515625 148.953125 C 180.902344 149.472656 181.554688 149.492188 182.070312 149.179688 C 184.109375 147.941406 186.148438 146.707031 188.1875 145.472656 C 188.914062 145.6875 189.644531 145.898438 190.375 146.105469 C 193.253906 146.921875 196.125 147.746094 198.945312 148.738281 C 199.476562 150.386719 199.996094 152.042969 200.6875 153.632812 C 201.867188 156.335938 203.320312 158.859375 204.347656 161.632812 C 205.359375 164.363281 206.398438 167.085938 207.375 169.832031 C 208.269531 172.359375 209.144531 174.882812 210.261719 177.324219 C 210.691406 178.261719 211.148438 179.183594 211.609375 180.105469 C 211.875 180.644531 212.089844 181.277344 212.425781 181.773438 C 213.378906 183.175781 215.554688 183.59375 217.070312 183.996094 C 219.683594 184.6875 222.34375 185.316406 224.996094 185.847656 C 227.726562 186.394531 230.46875 187.007812 233.210938 187.488281 C 236.058594 187.984375 238.9375 187.8125 241.804688 188.082031 C 244.578125 188.339844 247.222656 189.328125 250.003906 189.554688 C 252.988281 189.804688 255.984375 189.660156 258.964844 190.035156 C 261.828125 190.398438 264.664062 190.773438 267.539062 191.019531 C 270.472656 191.273438 273.394531 191.511719 276.339844 191.597656 C 277.660156 191.636719 278.988281 191.726562 280.320312 191.785156 C 280.890625 194.761719 281.46875 197.742188 282.042969 200.71875 C 282.347656 202.3125 282.652344 203.90625 282.957031 205.5 C 283.226562 206.914062 283.757812 208.480469 283.703125 209.925781 C 283.652344 211.328125 282.152344 211.058594 281.109375 211.007812 C 279.710938 210.941406 278.3125 210.824219 276.917969 210.703125 C 273.832031 210.441406 270.75 210.113281 267.664062 209.859375 C 266.050781 209.730469 264.429688 209.601562 262.8125 209.542969 C 261.765625 209.503906 260.695312 209.4375 259.675781 209.707031 C 259.3125 209.800781 259.035156 210.214844 258.984375 210.566406 C 258.683594 212.613281 258.574219 214.800781 258.917969 216.847656 C 259.152344 218.25 261.359375 218.027344 261.125 216.617188 C 260.855469 215.015625 260.890625 213.355469 261.078125 211.734375 C 261.171875 211.730469 261.261719 211.722656 261.355469 211.722656 C 262.003906 211.707031 262.65625 211.734375 263.300781 211.769531 C 264.910156 211.851562 266.519531 211.980469 268.125 212.121094 C 271.433594 212.40625 274.734375 212.753906 278.042969 213.015625 C 279.359375 213.121094 280.675781 213.21875 281.992188 213.242188 C 283.386719 213.265625 284.835938 212.980469 285.53125 211.632812 C 286.15625 210.421875 285.882812 209.019531 285.636719 207.75 C 285.308594 206.039062 284.980469 204.328125 284.65625 202.613281 C 283.964844 199.015625 283.269531 195.421875 282.578125 191.824219 C 282.878906 191.820312 283.179688 191.824219 283.480469 191.8125 C 284.832031 191.753906 286.144531 191.605469 287.496094 191.652344 C 287.738281 191.75 288.003906 191.777344 288.257812 191.65625 C 290.761719 190.488281 293.125 189.097656 295.539062 187.765625 C 297.917969 186.453125 300.332031 185.285156 302.582031 183.742188 C 305.007812 182.078125 307.363281 180.320312 309.796875 178.667969 C 312.148438 177.074219 314.417969 175.417969 316.601562 173.605469 C 319.585938 171.125 322.617188 168.703125 325.640625 166.269531 C 327.605469 169.132812 329.640625 171.957031 331.640625 174.792969 C 333.820312 177.882812 335.882812 181.050781 337.992188 184.1875 C 339.03125 185.730469 340.011719 187.3125 341.070312 188.84375 C 342.082031 190.3125 343.210938 191.691406 344.3125 193.089844 C 346.617188 196.023438 348.699219 199.160156 350.8125 202.234375 C 352.003906 203.964844 353.140625 205.730469 354.402344 207.410156 C 355.6875 209.117188 357.074219 210.742188 358.347656 212.457031 C 358.683594 212.90625 359.453125 213.085938 359.902344 212.683594 C 362.386719 210.449219 364.261719 207.667969 365.214844 204.453125 C 365.613281 203.101562 363.585938 202.195312 363.183594 203.5625 C 362.449219 206.046875 361.160156 208.289062 359.371094 210.136719 C 357.355469 207.472656 355.277344 204.875 353.398438 202.097656 C 351.300781 198.988281 349.183594 195.847656 346.925781 192.851562 C 345.859375 191.433594 344.714844 190.078125 343.660156 188.652344 C 342.558594 187.167969 341.574219 185.605469 340.566406 184.058594 C 338.5 180.898438 336.414062 177.734375 334.246094 174.644531 C 331.960938 171.382812 329.617188 168.15625 327.371094 164.871094 C 332.617188 160.628906 337.804688 156.320312 342.640625 151.578125 C 344.652344 149.609375 346.503906 147.472656 348.429688 145.417969 C 349.753906 144.007812 351.65625 142.375 352.140625 140.414062 C 352.261719 139.921875 352.0625 139.566406 351.746094 139.371094 C 350.867188 136.613281 349.726562 133.925781 349.070312 131.101562 C 348.71875 129.59375 348.4375 128.066406 348.023438 126.570312 C 347.621094 125.113281 347.0625 123.699219 346.511719 122.289062 C 345.410156 119.472656 344.523438 116.601562 343.601562 113.726562 C 342.621094 110.683594 341.332031 107.761719 340.292969 104.742188 C 339.886719 103.558594 339.488281 102.371094 339.089844 101.1875 C 339.441406 101.167969 339.777344 100.976562 339.945312 100.53125 C 342.964844 92.570312 345.949219 84.589844 348.953125 76.621094 C 350.105469 76.640625 350.964844 75.847656 351.824219 75.160156 C 352.789062 74.386719 353.753906 73.613281 354.714844 72.839844 C 355.164062 72.476562 355.328125 71.761719 354.9375 71.289062 Z M 275.871094 189.382812 C 272.785156 189.277344 269.71875 188.976562 266.640625 188.722656 C 263.566406 188.46875 260.527344 187.890625 257.453125 187.652344 C 254.394531 187.414062 251.292969 187.652344 248.261719 187.082031 C 246.847656 186.816406 245.457031 186.429688 244.042969 186.160156 C 242.582031 185.882812 241.105469 185.796875 239.621094 185.75 C 236.625 185.652344 233.785156 185.398438 230.855469 184.738281 C 228.03125 184.101562 225.175781 183.664062 222.363281 182.992188 C 219.953125 182.417969 217.351562 182.046875 215.078125 181.035156 C 214.808594 180.914062 214.558594 180.789062 214.332031 180.601562 C 214.34375 180.601562 214.261719 180.496094 214.230469 180.464844 C 214.207031 180.410156 214.148438 180.277344 214.132812 180.242188 C 213.800781 179.464844 213.382812 178.722656 213.011719 177.964844 C 211.820312 175.507812 210.828125 172.984375 209.925781 170.410156 C 208.933594 167.578125 207.851562 164.777344 206.828125 161.957031 C 206.304688 160.515625 205.796875 159.0625 205.144531 157.675781 C 204.5 156.300781 203.757812 154.980469 203.109375 153.609375 C 202.507812 152.332031 202.039062 151.011719 201.59375 149.675781 C 206.8125 151.546875 212.035156 153.378906 217.125 155.574219 C 220.429688 157 223.804688 158.273438 227.074219 159.773438 C 228.375 160.367188 229.265625 158.335938 227.964844 157.742188 C 225.066406 156.414062 222.078125 155.296875 219.152344 154.035156 C 216.222656 152.773438 213.296875 151.519531 210.296875 150.445312 C 207.109375 149.304688 203.933594 148.144531 200.734375 147.046875 C 200.476562 146.265625 200.207031 145.488281 199.910156 144.722656 C 198.757812 141.777344 197.277344 138.980469 196.234375 135.988281 C 195.195312 132.988281 194.183594 130.007812 192.972656 127.070312 C 191.738281 124.078125 190.648438 121.070312 189.613281 118.007812 C 189.109375 116.523438 188.550781 115.082031 187.847656 113.683594 C 187.171875 112.34375 186.421875 111.046875 185.8125 109.675781 C 184.640625 107.046875 183.679688 104.308594 182.605469 101.636719 C 182.195312 100.617188 181.707031 99.636719 181.136719 98.699219 C 180.804688 98.148438 180.515625 97.832031 180.363281 97.253906 C 180.25 96.820312 180.328125 96.101562 180.417969 95.488281 C 182.292969 93.792969 184.109375 92.019531 185.929688 90.261719 C 187.851562 88.410156 189.609375 86.355469 191.695312 84.679688 C 193.757812 83.03125 195.78125 81.492188 197.605469 79.570312 C 199.441406 77.640625 201.40625 75.761719 203.039062 73.65625 C 206.261719 69.5 210.085938 65.695312 214.402344 62.679688 C 216.476562 61.230469 218.074219 59.410156 219.710938 57.503906 C 221.476562 55.445312 223.429688 53.519531 225.292969 51.550781 C 227.144531 49.59375 229.339844 48.097656 231.410156 46.394531 C 233.542969 44.640625 235.480469 42.667969 237.839844 41.199219 C 240.074219 39.8125 242.5 39.230469 245.121094 39.410156 C 247.699219 39.585938 250.210938 40.164062 252.800781 40.195312 C 254.019531 40.210938 255.238281 40.152344 256.453125 40.230469 C 257.800781 40.316406 259.140625 40.5625 260.46875 40.796875 C 263.238281 41.285156 266.003906 41.632812 268.800781 41.917969 C 271.527344 42.199219 274.179688 42.691406 276.875 43.179688 C 279.609375 43.679688 282.394531 43.835938 285.15625 44.15625 C 291.328125 44.878906 297.53125 45.476562 303.714844 46.105469 C 305.207031 46.257812 306.726562 46.355469 308.199219 46.644531 C 309.554688 46.910156 310.855469 47.371094 312.164062 47.796875 C 314.347656 48.5 316.402344 49.082031 318.234375 50.378906 C 316.695312 52.167969 315.253906 54.042969 313.652344 55.777344 C 311.769531 57.816406 309.789062 59.75 308.050781 61.921875 C 306.425781 63.957031 304.820312 65.984375 303.089844 67.933594 C 301.265625 69.988281 299.417969 72.011719 297.761719 74.207031 C 297.027344 75.183594 296.296875 76.167969 295.492188 77.089844 C 294.558594 78.15625 293.457031 79.027344 292.359375 79.917969 C 290.359375 81.542969 288.675781 83.449219 286.910156 85.320312 C 283.054688 89.402344 279.0625 93.355469 274.898438 97.125 C 273.046875 98.800781 271.589844 100.828125 269.765625 102.523438 C 267.789062 104.359375 265.234375 105.386719 263.121094 107.046875 C 261.390625 108.40625 259.640625 110.742188 257.242188 110.753906 C 256.117188 110.757812 255.023438 110.328125 253.980469 109.964844 C 252.824219 109.5625 251.660156 109.222656 250.464844 108.960938 C 247.765625 108.371094 245.035156 107.863281 242.320312 107.332031 C 239.742188 106.824219 237.109375 106.496094 234.589844 105.722656 C 229.546875 104.179688 224.253906 103.074219 218.996094 102.558594 C 212.910156 101.964844 206.84375 101.1875 200.820312 100.125 C 197.941406 99.617188 195.164062 98.890625 192.339844 98.140625 C 189.394531 97.355469 186.441406 96.660156 183.515625 95.792969 C 182.164062 95.394531 181.257812 97.417969 182.628906 97.824219 C 185.320312 98.621094 188.023438 99.363281 190.757812 100.015625 C 193.3125 100.625 195.808594 101.457031 198.394531 101.941406 C 203.871094 102.964844 209.378906 103.722656 214.910156 104.382812 C 217.628906 104.707031 220.351562 104.875 223.050781 105.363281 C 225.667969 105.839844 228.375 106.21875 230.941406 106.914062 C 233.464844 107.59375 235.886719 108.394531 238.46875 108.867188 C 241.246094 109.375 244 109.992188 246.777344 110.507812 C 248.109375 110.757812 249.445312 110.980469 250.765625 111.296875 C 252.023438 111.597656 253.214844 112.074219 254.449219 112.453125 C 255.625 112.816406 256.742188 112.96875 257.824219 112.859375 C 257.835938 112.953125 257.855469 113.046875 257.894531 113.148438 C 259.839844 118.15625 261.902344 123.164062 263.507812 128.292969 C 264.378906 131.070312 265.15625 133.867188 266.050781 136.632812 C 266.941406 139.386719 267.847656 142.136719 268.730469 144.894531 C 269.65625 147.789062 270.652344 150.597656 271.851562 153.390625 C 272.992188 156.050781 273.835938 158.828125 274.773438 161.566406 C 275.679688 164.203125 276.492188 166.871094 277.390625 169.507812 C 278.316406 172.214844 279.375 174.878906 280.390625 177.550781 C 281.902344 181.511719 283.082031 185.933594 285.535156 189.484375 C 284.804688 189.519531 284.078125 189.566406 283.335938 189.601562 C 280.863281 189.722656 278.34375 189.464844 275.871094 189.382812 Z M 328.042969 76.507812 C 328.917969 79.464844 330.289062 82.222656 331.328125 85.117188 C 333.492188 91.132812 335.410156 97.234375 337.460938 103.292969 C 338.476562 106.300781 339.703125 109.21875 340.761719 112.210938 C 341.789062 115.113281 342.570312 118.101562 343.636719 120.992188 C 344.21875 122.574219 344.878906 124.128906 345.433594 125.722656 C 345.996094 127.332031 346.339844 128.984375 346.707031 130.648438 C 347.449219 134.003906 348.746094 137.167969 349.765625 140.441406 C 349.546875 140.792969 349.191406 141.238281 348.957031 141.519531 C 348.238281 142.394531 347.464844 143.21875 346.691406 144.042969 C 344.996094 145.855469 343.355469 147.722656 341.617188 149.492188 C 337.835938 153.335938 333.660156 156.839844 329.546875 160.316406 C 325.328125 163.882812 320.90625 167.199219 316.632812 170.699219 C 314.4375 172.5 312.269531 174.285156 309.929688 175.898438 C 307.59375 177.503906 305.273438 179.117188 302.96875 180.761719 C 300.503906 182.519531 297.96875 183.976562 295.300781 185.394531 C 292.902344 186.667969 290.578125 188.058594 288.132812 189.25 C 285.53125 186.046875 284.324219 181.851562 282.941406 178.042969 C 282.003906 175.460938 280.980469 172.910156 280.035156 170.328125 C 279.085938 167.722656 278.324219 165.058594 277.421875 162.441406 C 276.441406 159.605469 275.582031 156.703125 274.472656 153.917969 C 273.394531 151.210938 272.238281 148.585938 271.347656 145.808594 C 269.59375 140.359375 267.71875 134.941406 266.148438 129.433594 C 264.492188 123.617188 262.148438 117.972656 259.960938 112.339844 C 259.949219 112.3125 259.9375 112.296875 259.925781 112.273438 C 260.304688 112.097656 260.679688 111.898438 261.054688 111.644531 C 262.019531 110.988281 262.855469 110.171875 263.734375 109.414062 C 264.839844 108.464844 266.046875 107.6875 267.292969 106.941406 C 268.335938 106.3125 269.394531 105.695312 270.351562 104.9375 C 271.445312 104.066406 272.390625 103.019531 273.304688 101.96875 C 275.089844 99.914062 277.085938 98.140625 279.066406 96.273438 C 281.082031 94.371094 283.0625 92.433594 285.003906 90.457031 C 286.960938 88.460938 288.890625 86.445312 290.792969 84.402344 C 292.578125 82.488281 294.742188 81.035156 296.574219 79.179688 C 298.683594 77.039062 300.289062 74.425781 302.277344 72.175781 C 304.332031 69.855469 306.433594 67.585938 308.34375 65.144531 C 310.292969 62.652344 312.363281 60.347656 314.542969 58.058594 C 316.296875 56.210938 317.871094 54.210938 319.519531 52.277344 C 321.378906 57.503906 323.476562 62.644531 325.300781 67.882812 C 326.296875 70.742188 327.183594 73.605469 328.042969 76.507812 Z M 294.226562 126.175781 C 293.644531 126.199219 293.152344 126.832031 293.238281 127.394531 C 293.332031 128.023438 293.832031 128.40625 294.453125 128.382812 C 297.070312 128.285156 299.875 128.710938 302.347656 129.597656 C 302.910156 129.800781 303.554688 129.601562 303.808594 129.027344 C 304.035156 128.507812 303.804688 127.769531 303.238281 127.566406 C 300.339844 126.527344 297.300781 126.058594 294.226562 126.175781 Z M 317.824219 109.78125 C 317.214844 109.710938 316.667969 110.09375 316.558594 110.703125 C 316.078125 113.339844 315.601562 115.972656 315.121094 118.609375 C 315.019531 119.179688 315.460938 119.808594 316.042969 119.875 C 316.652344 119.945312 317.203125 119.5625 317.3125 118.953125 C 317.792969 116.316406 318.269531 113.683594 318.75 111.046875 C 318.851562 110.476562 318.410156 109.847656 317.824219 109.78125 Z M 314.878906 132.269531 C 315.765625 131.949219 316.339844 131.1875 316.542969 130.285156 C 316.757812 129.328125 316.421875 128.285156 315.871094 127.503906 C 315.667969 127.21875 315.222656 126.984375 314.867188 127.0625 C 313.851562 127.289062 312.722656 127.617188 312.113281 128.535156 C 311.796875 129.011719 311.644531 129.527344 311.691406 130.101562 C 311.699219 130.210938 311.714844 130.328125 311.742188 130.441406 C 311.742188 130.488281 311.738281 130.539062 311.742188 130.585938 C 311.785156 131.117188 312.0625 131.566406 312.449219 131.917969 C 313.09375 132.503906 314.089844 132.554688 314.878906 132.269531 Z M 318.484375 131.519531 C 317.914062 135.398438 313.261719 138.171875 309.578125 136.753906 C 308.25 136.242188 307.355469 138.273438 308.691406 138.785156 C 313.683594 140.707031 319.890625 137.199219 320.675781 131.863281 C 320.886719 130.449219 318.695312 130.105469 318.484375 131.519531 Z M 318.484375 131.519531 " fill-opacity="1" fill-rule="nonzero"/></g></g></g></svg>