<svg xmlns="http://www.w3.org/2000/svg" xmlns:xlink="http://www.w3.org/1999/xlink" width="500" zoomAndPan="magnify" viewBox="0 0 375 225" height="300" preserveAspectRatio="xMidYMid meet" version="1.0"><defs><clipPath id="id1"><path d="M 193.535156 19.640625 L 317.039062 19.640625 L 317.039062 143.390625 L 193.535156 143.390625 Z M 193.535156 19.640625 " clip-rule="nonzero"/></clipPath><clipPath id="id2"><path d="M 39 46 L 187 46 L 187 221 L 39 221 Z M 39 46 " clip-rule="nonzero"/></clipPath><clipPath id="id3"><path d="M 17.15625 76.539062 L 162.441406 19.71875 L 224.179688 177.574219 L 78.898438 234.394531 Z M 17.15625 76.539062 " clip-rule="nonzero"/></clipPath><clipPath id="id4"><path d="M 162.636719 19.640625 L 17.355469 76.460938 L 79.09375 234.320312 L 224.375 177.496094 Z M 162.636719 19.640625 " clip-rule="nonzero"/></clipPath></defs><g clip-path="url(#id1)"><path fill="rgb(21.179199%, 27.059937%, 30.979919%)" d="M 193.289062 142.042969 L 193.289062 142.378906 C 193.289062 142.953125 193.726562 143.390625 194.300781 143.390625 L 194.636719 143.390625 C 195.207031 143.390625 195.644531 142.953125 195.644531 142.378906 C 195.644531 142.007812 195.445312 141.707031 195.175781 141.503906 C 195.007812 141.199219 194.667969 141.03125 194.300781 141.03125 C 193.761719 141.03125 193.289062 141.46875 193.289062 142.042969 Z M 224.371094 141.371094 L 225.078125 141.371094 C 225.648438 141.371094 226.085938 141.808594 226.085938 142.378906 C 226.085938 142.953125 225.648438 143.390625 225.078125 143.390625 L 224.371094 143.390625 C 223.796875 143.390625 223.359375 142.953125 223.359375 142.378906 C 223.359375 141.808594 223.832031 141.371094 224.371094 141.371094 Z M 300.472656 141.371094 L 301.144531 141.371094 C 301.71875 141.371094 302.15625 141.808594 302.15625 142.378906 C 302.15625 142.953125 301.71875 143.390625 301.144531 143.390625 L 300.472656 143.390625 C 299.898438 143.390625 299.460938 142.953125 299.460938 142.378906 C 299.460938 141.808594 299.898438 141.371094 300.472656 141.371094 Z M 231.980469 141.371094 L 232.652344 141.371094 C 233.226562 141.371094 233.664062 141.808594 233.664062 142.378906 C 233.664062 142.953125 233.226562 143.390625 232.652344 143.390625 L 231.980469 143.390625 C 231.40625 143.390625 230.96875 142.953125 230.96875 142.378906 C 230.96875 141.808594 231.441406 141.371094 231.980469 141.371094 Z M 216.792969 141.371094 L 217.5 141.371094 C 218.074219 141.371094 218.511719 141.808594 218.511719 142.378906 C 218.511719 142.953125 218.074219 143.390625 217.5 143.390625 L 216.792969 143.390625 C 216.222656 143.390625 215.78125 142.953125 215.78125 142.378906 C 215.78125 141.808594 216.222656 141.371094 216.792969 141.371094 Z M 201.574219 141.371094 L 202.246094 141.371094 C 202.820312 141.371094 203.257812 141.808594 203.257812 142.378906 C 203.257812 142.953125 202.820312 143.390625 202.246094 143.390625 L 201.574219 143.390625 C 201 143.390625 200.5625 142.953125 200.5625 142.378906 C 200.5625 141.808594 201 141.371094 201.574219 141.371094 Z M 308.046875 141.371094 L 308.753906 141.371094 C 309.328125 141.371094 309.765625 141.808594 309.765625 142.378906 C 309.765625 142.953125 309.328125 143.390625 308.753906 143.390625 L 308.046875 143.390625 C 307.476562 143.390625 307.039062 142.953125 307.039062 142.378906 C 307.039062 141.808594 307.507812 141.371094 308.046875 141.371094 Z M 239.589844 141.371094 L 240.265625 141.371094 C 240.835938 141.371094 241.273438 141.808594 241.273438 142.378906 C 241.273438 142.953125 240.835938 143.390625 240.265625 143.390625 L 239.589844 143.390625 C 239.019531 143.390625 238.578125 142.953125 238.578125 142.378906 C 238.578125 141.808594 239.050781 141.371094 239.589844 141.371094 Z M 209.183594 141.371094 L 209.855469 141.371094 C 210.429688 141.371094 210.867188 141.808594 210.867188 142.378906 C 210.867188 142.953125 210.429688 143.390625 209.855469 143.390625 L 209.183594 143.390625 C 208.609375 143.390625 208.171875 142.953125 208.171875 142.378906 C 208.171875 141.808594 208.609375 141.371094 209.183594 141.371094 Z M 262.421875 141.371094 L 263.128906 141.371094 C 263.699219 141.371094 264.136719 141.808594 264.136719 142.378906 C 264.136719 142.953125 263.699219 143.390625 263.128906 143.390625 L 262.421875 143.390625 C 261.847656 143.390625 261.410156 142.953125 261.410156 142.378906 C 261.410156 141.808594 261.847656 141.371094 262.421875 141.371094 Z M 285.25 141.371094 L 285.957031 141.371094 C 286.53125 141.371094 286.96875 141.808594 286.96875 142.378906 C 286.96875 142.953125 286.53125 143.390625 285.957031 143.390625 L 285.25 143.390625 C 284.679688 143.390625 284.242188 142.953125 284.242188 142.378906 C 284.242188 141.808594 284.679688 141.371094 285.25 141.371094 Z M 254.8125 141.371094 L 255.519531 141.371094 C 256.089844 141.371094 256.527344 141.808594 256.527344 142.378906 C 256.527344 142.953125 256.089844 143.390625 255.519531 143.390625 L 254.8125 143.390625 C 254.238281 143.390625 253.800781 142.953125 253.800781 142.378906 C 253.800781 141.808594 254.273438 141.371094 254.8125 141.371094 Z M 270.03125 141.371094 L 270.703125 141.371094 C 271.277344 141.371094 271.714844 141.808594 271.714844 142.378906 C 271.714844 142.953125 271.277344 143.390625 270.703125 143.390625 L 270.03125 143.390625 C 269.457031 143.390625 269.019531 142.953125 269.019531 142.378906 C 269.019531 141.808594 269.457031 141.371094 270.03125 141.371094 Z M 277.640625 141.371094 L 278.316406 141.371094 C 278.886719 141.371094 279.324219 141.808594 279.324219 142.378906 C 279.324219 142.953125 278.886719 143.390625 278.316406 143.390625 L 277.609375 143.390625 C 277.035156 143.390625 276.597656 142.953125 276.597656 142.378906 C 276.597656 141.808594 277.070312 141.371094 277.640625 141.371094 Z M 247.199219 141.371094 L 247.875 141.371094 C 248.445312 141.371094 248.882812 141.808594 248.882812 142.378906 C 248.882812 142.953125 248.445312 143.390625 247.875 143.390625 L 247.199219 143.390625 C 246.628906 143.390625 246.191406 142.953125 246.191406 142.378906 C 246.191406 141.808594 246.660156 141.371094 247.199219 141.371094 Z M 292.863281 141.371094 L 293.535156 141.371094 C 294.109375 141.371094 294.546875 141.808594 294.546875 142.378906 C 294.546875 142.953125 294.109375 143.390625 293.535156 143.390625 L 292.863281 143.390625 C 292.289062 143.390625 291.851562 142.953125 291.851562 142.378906 C 291.851562 141.808594 292.289062 141.371094 292.863281 141.371094 Z M 315.152344 141.503906 C 315.355469 141.199219 315.660156 141.03125 316.027344 141.03125 C 316.601562 141.03125 317.039062 141.46875 317.039062 142.042969 L 317.039062 142.378906 C 317.039062 142.953125 316.601562 143.390625 316.027344 143.390625 L 315.691406 143.390625 C 315.121094 143.390625 314.683594 142.953125 314.683594 142.378906 C 314.683594 142.007812 314.882812 141.671875 315.152344 141.503906 Z M 316.027344 136.117188 C 315.457031 136.117188 315.019531 135.679688 315.019531 135.105469 L 315.019531 134.433594 C 315.019531 133.859375 315.457031 133.421875 316.027344 133.421875 C 316.601562 133.421875 317.039062 133.859375 317.039062 134.433594 L 317.039062 135.105469 C 317.039062 135.679688 316.601562 136.117188 316.027344 136.117188 Z M 316.027344 52.4375 C 315.457031 52.4375 315.019531 52 315.019531 51.425781 L 315.019531 50.71875 C 315.019531 50.148438 315.457031 49.710938 316.027344 49.710938 C 316.601562 49.710938 317.039062 50.148438 317.039062 50.71875 L 317.039062 51.425781 C 317.039062 52 316.601562 52.4375 316.027344 52.4375 Z M 316.027344 75.269531 C 315.457031 75.269531 315.019531 74.832031 315.019531 74.257812 L 315.019531 73.550781 C 315.019531 72.980469 315.457031 72.539062 316.027344 72.539062 C 316.601562 72.539062 317.039062 72.980469 317.039062 73.550781 L 317.039062 74.257812 C 317.039062 74.832031 316.601562 75.269531 316.027344 75.269531 Z M 316.027344 82.878906 C 315.457031 82.878906 315.019531 82.441406 315.019531 81.867188 L 315.019531 81.160156 C 315.019531 80.589844 315.457031 80.152344 316.027344 80.152344 C 316.601562 80.152344 317.039062 80.589844 317.039062 81.160156 L 317.039062 81.867188 C 317.039062 82.40625 316.601562 82.878906 316.027344 82.878906 Z M 316.027344 67.65625 C 315.457031 67.65625 315.019531 67.21875 315.019531 66.648438 L 315.019531 65.972656 C 315.019531 65.402344 315.457031 64.964844 316.027344 64.964844 C 316.601562 64.964844 317.039062 65.402344 317.039062 65.972656 L 317.039062 66.648438 C 317.039062 67.21875 316.601562 67.65625 316.027344 67.65625 Z M 316.027344 60.046875 C 315.457031 60.046875 315.019531 59.609375 315.019531 59.039062 L 315.019531 58.363281 C 315.019531 57.792969 315.457031 57.355469 316.027344 57.355469 C 316.601562 57.355469 317.039062 57.792969 317.039062 58.363281 L 317.039062 59.070312 C 317.039062 59.609375 316.601562 60.046875 316.027344 60.046875 Z M 316.027344 29.640625 C 315.457031 29.640625 315.019531 29.203125 315.019531 28.628906 L 315.019531 27.921875 C 315.019531 27.351562 315.457031 26.914062 316.027344 26.914062 C 316.601562 26.914062 317.039062 27.351562 317.039062 27.921875 L 317.039062 28.628906 C 317.039062 29.167969 316.601562 29.640625 316.027344 29.640625 Z M 316.027344 37.21875 C 315.457031 37.21875 315.019531 36.78125 315.019531 36.207031 L 315.019531 35.535156 C 315.019531 34.960938 315.457031 34.523438 316.027344 34.523438 C 316.601562 34.523438 317.039062 34.960938 317.039062 35.535156 L 317.039062 36.207031 C 317.039062 36.78125 316.601562 37.21875 316.027344 37.21875 Z M 316.027344 90.488281 C 315.457031 90.488281 315.019531 90.050781 315.019531 89.480469 L 315.019531 88.804688 C 315.019531 88.234375 315.457031 87.792969 316.027344 87.792969 C 316.601562 87.792969 317.039062 88.234375 317.039062 88.804688 L 317.039062 89.480469 C 317.039062 90.015625 316.601562 90.488281 316.027344 90.488281 Z M 316.027344 44.828125 C 315.457031 44.828125 315.019531 44.390625 315.019531 43.816406 L 315.019531 43.144531 C 315.019531 42.570312 315.457031 42.132812 316.027344 42.132812 C 316.601562 42.132812 317.039062 42.570312 317.039062 43.144531 L 317.039062 43.816406 C 317.039062 44.390625 316.601562 44.828125 316.027344 44.828125 Z M 316.027344 113.320312 C 315.457031 113.320312 315.019531 112.882812 315.019531 112.308594 L 315.019531 111.601562 C 315.019531 111.03125 315.457031 110.59375 316.027344 110.59375 C 316.601562 110.59375 317.039062 111.03125 317.039062 111.601562 L 317.039062 112.308594 C 317.039062 112.847656 316.601562 113.320312 316.027344 113.320312 Z M 316.027344 120.894531 C 315.457031 120.894531 315.019531 120.457031 315.019531 119.886719 L 315.019531 119.179688 C 315.019531 118.605469 315.457031 118.167969 316.027344 118.167969 C 316.601562 118.167969 317.039062 118.605469 317.039062 119.179688 L 317.039062 119.886719 C 317.039062 120.457031 316.601562 120.894531 316.027344 120.894531 Z M 316.027344 128.507812 C 315.457031 128.507812 315.019531 128.066406 315.019531 127.496094 L 315.019531 126.824219 C 315.019531 126.25 315.457031 125.8125 316.027344 125.8125 C 316.601562 125.8125 317.039062 126.25 317.039062 126.824219 L 317.039062 127.496094 C 317.039062 128.066406 316.601562 128.507812 316.027344 128.507812 Z M 316.027344 105.710938 C 315.457031 105.710938 315.019531 105.269531 315.019531 104.699219 L 315.019531 104.027344 C 315.019531 103.453125 315.457031 103.015625 316.027344 103.015625 C 316.601562 103.015625 317.039062 103.453125 317.039062 104.027344 L 317.039062 104.699219 C 317.039062 105.238281 316.601562 105.710938 316.027344 105.710938 Z M 316.027344 98.097656 C 315.457031 98.097656 315.019531 97.660156 315.019531 97.089844 L 315.019531 96.414062 C 315.019531 95.84375 315.457031 95.40625 316.027344 95.40625 C 316.601562 95.40625 317.039062 95.84375 317.039062 96.414062 L 317.039062 97.089844 C 317.039062 97.628906 316.601562 98.097656 316.027344 98.097656 Z M 315.691406 19.640625 L 316.027344 19.640625 C 316.601562 19.640625 317.039062 20.078125 317.039062 20.648438 L 317.039062 20.988281 C 317.039062 21.558594 316.601562 21.996094 316.027344 21.996094 C 315.660156 21.996094 315.355469 21.792969 315.152344 21.527344 C 314.882812 21.324219 314.683594 21.019531 314.683594 20.648438 C 314.683594 20.078125 315.121094 19.640625 315.691406 19.640625 Z M 308.789062 21.660156 L 308.117188 21.660156 C 307.542969 21.660156 307.105469 21.222656 307.105469 20.648438 C 307.105469 20.078125 307.542969 19.640625 308.117188 19.640625 L 308.789062 19.640625 C 309.363281 19.640625 309.800781 20.078125 309.800781 20.648438 C 309.800781 21.222656 309.328125 21.660156 308.789062 21.660156 Z M 278.347656 21.660156 L 277.640625 21.660156 C 277.070312 21.660156 276.632812 21.222656 276.632812 20.648438 C 276.632812 20.078125 277.070312 19.640625 277.640625 19.640625 L 278.347656 19.640625 C 278.921875 19.640625 279.359375 20.078125 279.359375 20.648438 C 279.359375 21.222656 278.921875 21.660156 278.347656 21.660156 Z M 293.570312 21.660156 L 292.894531 21.660156 C 292.324219 21.660156 291.886719 21.222656 291.886719 20.648438 C 291.886719 20.078125 292.324219 19.640625 292.894531 19.640625 L 293.570312 19.640625 C 294.140625 19.640625 294.578125 20.078125 294.578125 20.648438 C 294.578125 21.222656 294.109375 21.660156 293.570312 21.660156 Z M 285.957031 21.660156 L 285.285156 21.660156 C 284.710938 21.660156 284.273438 21.222656 284.273438 20.648438 C 284.273438 20.078125 284.710938 19.640625 285.285156 19.640625 L 285.957031 19.640625 C 286.53125 19.640625 286.96875 20.078125 286.96875 20.648438 C 286.96875 21.222656 286.496094 21.660156 285.957031 21.660156 Z M 301.179688 21.660156 L 300.472656 21.660156 C 299.898438 21.660156 299.460938 21.222656 299.460938 20.648438 C 299.460938 20.078125 299.898438 19.640625 300.472656 19.640625 L 301.179688 19.640625 C 301.75 19.640625 302.1875 20.078125 302.1875 20.648438 C 302.1875 21.222656 301.71875 21.660156 301.179688 21.660156 Z M 225.109375 21.660156 L 224.4375 21.660156 C 223.863281 21.660156 223.425781 21.222656 223.425781 20.648438 C 223.425781 20.078125 223.863281 19.640625 224.4375 19.640625 L 225.109375 19.640625 C 225.683594 19.640625 226.121094 20.078125 226.121094 20.648438 C 226.121094 21.222656 225.648438 21.660156 225.109375 21.660156 Z M 217.5 21.660156 L 216.828125 21.660156 C 216.253906 21.660156 215.816406 21.222656 215.816406 20.648438 C 215.816406 20.078125 216.253906 19.640625 216.828125 19.640625 L 217.5 19.640625 C 218.074219 19.640625 218.511719 20.078125 218.511719 20.648438 C 218.511719 21.222656 218.039062 21.660156 217.5 21.660156 Z M 232.722656 21.660156 L 232.046875 21.660156 C 231.476562 21.660156 231.039062 21.222656 231.039062 20.648438 C 231.039062 20.078125 231.476562 19.640625 232.046875 19.640625 L 232.722656 19.640625 C 233.292969 19.640625 233.730469 20.078125 233.730469 20.648438 C 233.730469 21.222656 233.257812 21.660156 232.722656 21.660156 Z M 202.28125 21.660156 L 201.605469 21.660156 C 201.035156 21.660156 200.597656 21.222656 200.597656 20.648438 C 200.597656 20.078125 201.035156 19.640625 201.605469 19.640625 L 202.28125 19.640625 C 202.851562 19.640625 203.289062 20.078125 203.289062 20.648438 C 203.289062 21.222656 202.851562 21.660156 202.28125 21.660156 Z M 209.890625 21.660156 L 209.214844 21.660156 C 208.644531 21.660156 208.207031 21.222656 208.207031 20.648438 C 208.207031 20.078125 208.644531 19.640625 209.214844 19.640625 L 209.890625 19.640625 C 210.460938 19.640625 210.902344 20.078125 210.902344 20.648438 C 210.902344 21.222656 210.429688 21.660156 209.890625 21.660156 Z M 255.519531 21.660156 L 254.8125 21.660156 C 254.238281 21.660156 253.800781 21.222656 253.800781 20.648438 C 253.800781 20.078125 254.238281 19.640625 254.8125 19.640625 L 255.519531 19.640625 C 256.089844 19.640625 256.527344 20.078125 256.527344 20.648438 C 256.527344 21.222656 256.089844 21.660156 255.519531 21.660156 Z M 240.332031 21.660156 L 239.625 21.660156 C 239.050781 21.660156 238.613281 21.222656 238.613281 20.648438 C 238.613281 20.078125 239.050781 19.640625 239.625 19.640625 L 240.332031 19.640625 C 240.902344 19.640625 241.339844 20.078125 241.339844 20.648438 C 241.339844 21.222656 240.871094 21.660156 240.332031 21.660156 Z M 270.738281 21.660156 L 270.066406 21.660156 C 269.492188 21.660156 269.054688 21.222656 269.054688 20.648438 C 269.054688 20.078125 269.492188 19.640625 270.066406 19.640625 L 270.738281 19.640625 C 271.3125 19.640625 271.75 20.078125 271.75 20.648438 C 271.75 21.222656 271.3125 21.660156 270.738281 21.660156 Z M 263.128906 21.660156 L 262.453125 21.660156 C 261.882812 21.660156 261.445312 21.222656 261.445312 20.648438 C 261.445312 20.078125 261.882812 19.640625 262.453125 19.640625 L 263.128906 19.640625 C 263.699219 19.640625 264.136719 20.078125 264.136719 20.648438 C 264.136719 21.222656 263.699219 21.660156 263.128906 21.660156 Z M 247.90625 21.660156 L 247.234375 21.660156 C 246.660156 21.660156 246.222656 21.222656 246.222656 20.648438 C 246.222656 20.078125 246.660156 19.640625 247.234375 19.640625 L 247.90625 19.640625 C 248.480469 19.640625 248.917969 20.078125 248.917969 20.648438 C 248.917969 21.222656 248.480469 21.660156 247.90625 21.660156 Z M 194.300781 19.640625 L 194.636719 19.640625 C 195.207031 19.640625 195.644531 20.078125 195.644531 20.648438 C 195.644531 21.019531 195.445312 21.324219 195.175781 21.527344 C 195.007812 21.828125 194.667969 21.996094 194.300781 21.996094 C 193.726562 21.996094 193.289062 21.558594 193.289062 20.988281 L 193.289062 20.648438 C 193.289062 20.078125 193.761719 19.640625 194.300781 19.640625 Z M 194.300781 64.929688 C 194.871094 64.929688 195.308594 65.367188 195.308594 65.941406 L 195.308594 66.613281 C 195.308594 67.1875 194.871094 67.625 194.300781 67.625 C 193.726562 67.625 193.289062 67.1875 193.289062 66.613281 L 193.289062 65.941406 C 193.289062 65.367188 193.761719 64.929688 194.300781 64.929688 Z M 194.300781 57.320312 C 194.871094 57.320312 195.308594 57.757812 195.308594 58.332031 L 195.308594 59.039062 C 195.308594 59.609375 194.871094 60.046875 194.300781 60.046875 C 193.726562 60.046875 193.289062 59.609375 193.289062 59.039062 L 193.289062 58.332031 C 193.289062 57.757812 193.761719 57.320312 194.300781 57.320312 Z M 194.300781 72.539062 C 194.871094 72.539062 195.308594 72.980469 195.308594 73.550781 L 195.308594 74.222656 C 195.308594 74.796875 194.871094 75.234375 194.300781 75.234375 C 193.726562 75.234375 193.289062 74.796875 193.289062 74.222656 L 193.289062 73.550781 C 193.289062 72.980469 193.761719 72.539062 194.300781 72.539062 Z M 194.300781 80.152344 C 194.871094 80.152344 195.308594 80.589844 195.308594 81.160156 L 195.308594 81.867188 C 195.308594 82.441406 194.871094 82.878906 194.300781 82.878906 C 193.726562 82.878906 193.289062 82.441406 193.289062 81.867188 L 193.289062 81.160156 C 193.289062 80.589844 193.761719 80.152344 194.300781 80.152344 Z M 194.300781 49.710938 C 194.871094 49.710938 195.308594 50.148438 195.308594 50.71875 L 195.308594 51.394531 C 195.308594 51.964844 194.871094 52.402344 194.300781 52.402344 C 193.726562 52.402344 193.289062 51.964844 193.289062 51.394531 L 193.289062 50.71875 C 193.289062 50.179688 193.761719 49.710938 194.300781 49.710938 Z M 194.300781 26.878906 C 194.871094 26.878906 195.308594 27.316406 195.308594 27.890625 L 195.308594 28.5625 C 195.308594 29.136719 194.871094 29.574219 194.300781 29.574219 C 193.726562 29.574219 193.289062 29.136719 193.289062 28.5625 L 193.289062 27.890625 C 193.289062 27.351562 193.761719 26.878906 194.300781 26.878906 Z M 194.300781 34.488281 C 194.871094 34.488281 195.308594 34.925781 195.308594 35.5 L 195.308594 36.207031 C 195.308594 36.78125 194.871094 37.21875 194.300781 37.21875 C 193.726562 37.21875 193.289062 36.78125 193.289062 36.207031 L 193.289062 35.5 C 193.289062 34.960938 193.761719 34.488281 194.300781 34.488281 Z M 194.300781 133.390625 C 194.871094 133.390625 195.308594 133.828125 195.308594 134.398438 L 195.308594 135.074219 C 195.308594 135.644531 194.871094 136.082031 194.300781 136.082031 C 193.726562 136.082031 193.289062 135.644531 193.289062 135.074219 L 193.289062 134.398438 C 193.289062 133.828125 193.761719 133.390625 194.300781 133.390625 Z M 194.300781 42.101562 C 194.871094 42.101562 195.308594 42.539062 195.308594 43.109375 L 195.308594 43.785156 C 195.308594 44.355469 194.871094 44.792969 194.300781 44.792969 C 193.726562 44.792969 193.289062 44.355469 193.289062 43.785156 L 193.289062 43.109375 C 193.289062 42.570312 193.761719 42.101562 194.300781 42.101562 Z M 194.300781 87.761719 C 194.871094 87.761719 195.308594 88.199219 195.308594 88.769531 L 195.308594 89.445312 C 195.308594 90.015625 194.871094 90.457031 194.300781 90.457031 C 193.726562 90.457031 193.289062 90.015625 193.289062 89.445312 L 193.289062 88.769531 C 193.289062 88.199219 193.761719 87.761719 194.300781 87.761719 Z M 194.300781 125.777344 C 194.871094 125.777344 195.308594 126.214844 195.308594 126.789062 L 195.308594 127.460938 C 195.308594 128.035156 194.871094 128.472656 194.300781 128.472656 C 193.726562 128.472656 193.289062 128.035156 193.289062 127.460938 L 193.289062 126.789062 C 193.289062 126.25 193.761719 125.777344 194.300781 125.777344 Z M 194.300781 110.558594 C 194.871094 110.558594 195.308594 110.996094 195.308594 111.566406 L 195.308594 112.242188 C 195.308594 112.8125 194.871094 113.253906 194.300781 113.253906 C 193.726562 113.253906 193.289062 112.8125 193.289062 112.242188 L 193.289062 111.566406 C 193.289062 111.03125 193.761719 110.558594 194.300781 110.558594 Z M 194.300781 118.167969 C 194.871094 118.167969 195.308594 118.605469 195.308594 119.179688 L 195.308594 119.851562 C 195.308594 120.425781 194.871094 120.863281 194.300781 120.863281 C 193.726562 120.863281 193.289062 120.425781 193.289062 119.851562 L 193.289062 119.179688 C 193.289062 118.640625 193.761719 118.167969 194.300781 118.167969 Z M 194.300781 95.335938 C 194.871094 95.335938 195.308594 95.777344 195.308594 96.347656 L 195.308594 97.054688 C 195.308594 97.628906 194.871094 98.066406 194.300781 98.066406 C 193.726562 98.066406 193.289062 97.628906 193.289062 97.054688 L 193.289062 96.347656 C 193.289062 95.808594 193.761719 95.335938 194.300781 95.335938 Z M 194.300781 102.949219 C 194.871094 102.949219 195.308594 103.386719 195.308594 103.957031 L 195.308594 104.632812 C 195.308594 105.203125 194.871094 105.640625 194.300781 105.640625 C 193.726562 105.640625 193.289062 105.203125 193.289062 104.632812 L 193.289062 103.957031 C 193.289062 103.417969 193.761719 102.949219 194.300781 102.949219 Z M 194.300781 102.949219 " fill-opacity="1" fill-rule="nonzero"/></g><g clip-path="url(#id2)"><g clip-path="url(#id3)"><g clip-path="url(#id4)"><path fill="rgb(21.179199%, 27.059937%, 30.979919%)" d="M 39.417969 132.296875 C 39.386719 131.820312 39.714844 131.335938 40.222656 131.300781 C 41.28125 131.230469 42.339844 131.15625 43.398438 131.082031 C 43.507812 131.074219 43.617188 131.066406 43.726562 131.0625 C 42.714844 130.550781 41.707031 130.039062 40.695312 129.535156 C 39.65625 129.011719 40.375 127.347656 41.417969 127.871094 C 42.171875 128.25 42.925781 128.632812 43.679688 129.011719 C 43.160156 128.300781 42.753906 127.464844 42.953125 126.5625 C 43.054688 126.097656 43.488281 125.703125 43.988281 125.808594 C 44.441406 125.898438 44.851562 126.351562 44.742188 126.84375 C 44.726562 126.910156 44.71875 126.972656 44.710938 127.039062 C 44.714844 127.046875 44.71875 127.132812 44.722656 127.175781 C 44.722656 127.191406 44.726562 127.199219 44.726562 127.210938 C 44.730469 127.21875 44.734375 127.230469 44.742188 127.25 C 44.777344 127.339844 44.820312 127.429688 44.855469 127.515625 C 44.855469 127.523438 44.855469 127.523438 44.859375 127.527344 C 44.875 127.550781 44.886719 127.578125 44.902344 127.601562 C 44.949219 127.675781 45 127.75 45.046875 127.820312 C 45.160156 127.976562 45.277344 128.125 45.398438 128.277344 C 45.8125 128.785156 46.214844 129.3125 46.394531 129.957031 C 46.4375 130.109375 46.46875 130.269531 46.492188 130.429688 C 52.53125 133.472656 58.566406 136.53125 64.613281 139.5625 C 63.175781 136.371094 61.71875 133.1875 60.3125 129.980469 C 59.304688 127.679688 58.507812 125.3125 57.554688 122.992188 C 56.597656 120.664062 55.328125 118.476562 54.328125 116.164062 C 53.234375 113.636719 52.128906 111.117188 51.125 108.550781 C 50.085938 105.890625 49.015625 103.21875 47.863281 100.605469 C 47.738281 100.320312 47.769531 100.066406 47.886719 99.863281 C 48.113281 97.832031 48.945312 96.128906 49.964844 94.378906 C 50.523438 93.417969 51.035156 92.433594 51.617188 91.488281 C 52.230469 90.484375 52.96875 89.597656 53.742188 88.710938 C 57.023438 84.9375 60.328125 81.1875 63.632812 77.4375 C 65.261719 75.59375 66.929688 73.757812 68.476562 71.847656 C 70.019531 69.9375 71.382812 67.910156 73.003906 66.058594 C 74.644531 64.1875 76.238281 62.304688 77.746094 60.324219 C 78.46875 59.375 79.191406 58.421875 80.03125 57.578125 C 80.847656 56.761719 81.734375 56.015625 82.554688 55.203125 C 84.171875 53.59375 85.390625 51.644531 87.082031 50.101562 C 88.839844 48.5 91.027344 47.679688 93.355469 47.335938 C 95.773438 46.980469 98.226562 47.132812 100.65625 46.917969 C 103.113281 46.699219 105.472656 46.652344 107.933594 46.867188 C 109.144531 46.96875 110.355469 46.992188 111.5625 47.078125 C 112.683594 47.160156 113.796875 47.332031 114.914062 47.449219 C 116.074219 47.566406 117.195312 47.570312 118.355469 47.421875 C 119.472656 47.277344 120.585938 47.0625 121.714844 47.039062 C 122.96875 47.011719 124.230469 47.097656 125.484375 47.128906 C 126.703125 47.160156 127.9375 47.148438 129.152344 47.265625 C 130.273438 47.375 131.375 47.621094 132.484375 47.789062 C 133.644531 47.964844 134.808594 47.984375 135.972656 48.066406 C 137.191406 48.152344 138.40625 48.269531 139.628906 48.320312 C 140.824219 48.371094 142.007812 48.261719 143.199219 48.144531 C 145.597656 47.917969 147.953125 48.085938 150.355469 48.183594 C 152.753906 48.277344 155.175781 48.160156 157.570312 48.292969 C 158.332031 48.335938 159.042969 49.109375 159.519531 49.667969 C 159.847656 50.050781 160.089844 50.496094 160.226562 50.980469 C 160.386719 51.539062 160.453125 52.121094 160.589844 52.683594 C 160.816406 53.597656 161.175781 54.46875 161.515625 55.34375 C 162.328125 57.453125 163.261719 59.558594 163.90625 61.722656 C 164.246094 62.875 164.511719 64.046875 164.875 65.195312 C 165.242188 66.367188 165.734375 67.492188 166.242188 68.613281 C 167.277344 70.894531 168.203125 73.195312 169.074219 75.546875 C 169.941406 77.898438 170.945312 80.164062 171.953125 82.460938 C 172.960938 84.75 173.625 87.152344 174.503906 89.488281 C 174.617188 89.789062 174.738281 90.089844 174.863281 90.390625 C 175.667969 88.9375 176.484375 87.492188 177.347656 86.074219 C 177.683594 85.527344 178.015625 84.972656 178.34375 84.421875 C 178.226562 84.28125 178.148438 84.113281 178.148438 83.941406 C 178.109375 81.816406 178.425781 79.742188 179.050781 77.710938 C 179.195312 77.246094 179.832031 77.066406 180.242188 77.246094 C 180.734375 77.460938 180.855469 77.972656 180.710938 78.441406 C 180.398438 79.449219 180.191406 80.492188 180.070312 81.542969 C 180.703125 80.492188 181.339844 79.445312 182.003906 78.414062 C 182.632812 77.429688 184.046875 78.566406 183.425781 79.539062 C 182.820312 80.480469 182.238281 81.4375 181.660156 82.398438 C 183.085938 82.109375 184.511719 81.820312 185.9375 81.53125 C 186.414062 81.433594 186.882812 81.886719 186.929688 82.339844 C 186.988281 82.867188 186.605469 83.238281 186.125 83.335938 C 184.21875 83.722656 182.3125 84.109375 180.40625 84.496094 C 180.089844 85.027344 179.769531 85.5625 179.445312 86.089844 C 178.175781 88.179688 176.914062 90.265625 175.773438 92.425781 C 176.371094 93.714844 176.980469 95 177.445312 96.339844 C 178.238281 98.621094 178.765625 100.945312 179.6875 103.1875 C 180.597656 105.390625 181.484375 107.605469 182.421875 109.796875 C 183.289062 111.816406 184.164062 113.820312 184.847656 115.910156 C 185.109375 116.710938 185.347656 117.523438 185.585938 118.332031 C 185.722656 118.804688 185.945312 119.300781 186.019531 119.789062 C 186.226562 121.160156 185.15625 122.621094 184.472656 123.699219 C 183.289062 125.566406 182.042969 127.421875 180.753906 129.210938 C 179.421875 131.054688 178.117188 132.941406 176.742188 134.753906 C 175.3125 136.628906 173.492188 138.125 171.921875 139.875 C 170.40625 141.570312 169.371094 143.628906 167.832031 145.308594 C 166.179688 147.113281 164.308594 148.6875 162.734375 150.566406 C 161.21875 152.371094 159.726562 154.167969 158.140625 155.914062 C 156.527344 157.691406 154.90625 159.457031 153.195312 161.140625 C 152.425781 161.894531 151.675781 162.6875 150.914062 163.460938 C 152.222656 165.570312 153.527344 167.683594 154.835938 169.792969 C 155.535156 170.921875 156.238281 172.050781 156.941406 173.179688 C 157.5625 174.179688 158.109375 175.417969 158.945312 176.257812 C 159.753906 177.074219 160.503906 176.078125 161.097656 175.46875 C 161.898438 174.652344 162.671875 173.808594 163.441406 172.960938 C 165.140625 171.09375 166.804688 169.1875 168.515625 167.324219 C 169.410156 166.347656 170.304688 165.375 171.242188 164.441406 C 171.847656 163.839844 172.453125 163.207031 173.210938 162.800781 C 173.480469 162.660156 173.875 162.753906 174.101562 162.9375 C 175.417969 164.003906 176.699219 165.257812 177.625 166.679688 C 178.261719 167.65625 176.816406 168.746094 176.175781 167.765625 C 175.449219 166.652344 174.507812 165.671875 173.496094 164.800781 C 173.441406 164.851562 173.378906 164.898438 173.324219 164.949219 C 172.925781 165.296875 172.554688 165.675781 172.183594 166.054688 C 171.265625 166.996094 170.375 167.964844 169.492188 168.9375 C 167.667969 170.945312 165.882812 172.984375 164.046875 174.980469 C 163.320312 175.769531 162.585938 176.558594 161.808594 177.304688 C 160.988281 178.089844 159.960938 178.722656 158.796875 178.296875 C 157.753906 177.917969 157.140625 176.917969 156.582031 176.019531 C 155.828125 174.808594 155.074219 173.59375 154.320312 172.382812 C 152.738281 169.835938 151.164062 167.285156 149.582031 164.734375 C 149.402344 164.898438 149.222656 165.070312 149.035156 165.230469 C 148.195312 165.941406 147.328125 166.582031 146.542969 167.359375 C 146.453125 167.550781 146.308594 167.714844 146.085938 167.785156 C 143.941406 168.46875 141.753906 168.941406 139.570312 169.476562 C 137.417969 170.007812 135.324219 170.644531 133.125 170.960938 C 130.75 171.304688 128.359375 171.550781 125.988281 171.90625 C 123.695312 172.25 121.421875 172.515625 119.105469 172.632812 C 115.941406 172.796875 112.785156 173.015625 109.625 173.226562 C 110.039062 176.042969 110.382812 178.871094 110.757812 181.6875 C 111.167969 184.753906 111.6875 187.804688 112.164062 190.863281 C 112.398438 192.371094 112.6875 193.867188 112.902344 195.375 C 113.109375 196.820312 113.199219 198.273438 113.316406 199.726562 C 113.5625 202.769531 114.054688 205.816406 114.492188 208.835938 C 114.738281 210.539062 115.035156 212.230469 115.210938 213.941406 C 115.390625 215.683594 115.460938 217.429688 115.648438 219.167969 C 115.699219 219.625 115.335938 220.160156 114.84375 220.164062 C 112.117188 220.199219 109.453125 219.566406 107.097656 218.15625 C 106.109375 217.566406 106.820312 215.898438 107.820312 216.496094 C 109.640625 217.582031 111.652344 218.21875 113.75 218.339844 C 113.480469 215.617188 113.285156 212.902344 112.867188 210.1875 C 112.402344 207.152344 111.929688 204.085938 111.617188 201.03125 C 111.46875 199.589844 111.40625 198.136719 111.246094 196.695312 C 111.082031 195.191406 110.804688 193.703125 110.550781 192.214844 C 110.039062 189.167969 109.53125 186.105469 109.117188 183.042969 C 108.675781 179.8125 108.289062 176.570312 107.816406 173.347656 C 102.320312 173.703125 96.824219 173.984375 91.300781 173.8125 C 89.003906 173.738281 86.710938 173.484375 84.417969 173.3125 C 82.839844 173.195312 80.796875 173.269531 79.421875 172.359375 C 79.078125 172.128906 79 171.804688 79.078125 171.511719 C 78.078125 169.363281 77.269531 167.113281 76.097656 165.050781 C 75.472656 163.945312 74.792969 162.871094 74.210938 161.742188 C 73.644531 160.640625 73.195312 159.480469 72.742188 158.324219 C 71.839844 156.019531 70.777344 153.800781 69.738281 151.558594 C 68.636719 149.183594 67.789062 146.710938 66.734375 144.3125 C 66.324219 143.375 65.90625 142.441406 65.488281 141.507812 C 65.265625 141.691406 64.957031 141.761719 64.609375 141.585938 C 58.386719 138.46875 52.175781 135.320312 45.957031 132.1875 C 45.28125 132.839844 44.324219 132.839844 43.429688 132.898438 C 42.421875 132.96875 41.417969 133.039062 40.410156 133.105469 C 39.941406 133.136719 39.449219 132.796875 39.417969 132.296875 Z M 152.242188 159.546875 C 154.035156 157.773438 155.707031 155.890625 157.40625 154.03125 C 159.109375 152.175781 160.605469 150.144531 162.3125 148.292969 C 164.015625 146.453125 166.003906 144.878906 167.503906 142.855469 C 168.203125 141.910156 168.820312 140.90625 169.519531 139.960938 C 170.238281 138.984375 171.074219 138.113281 171.9375 137.261719 C 173.679688 135.542969 175.238281 133.8125 176.628906 131.789062 C 177.964844 129.84375 179.433594 127.996094 180.746094 126.03125 C 181.871094 124.347656 183.21875 122.683594 184.023438 120.8125 C 184.117188 120.589844 184.199219 120.378906 184.226562 120.140625 C 184.21875 120.144531 184.210938 120.039062 184.214844 120 C 184.195312 119.953125 184.160156 119.84375 184.148438 119.8125 C 183.914062 119.160156 183.753906 118.480469 183.554688 117.820312 C 182.910156 115.679688 182.101562 113.613281 181.214844 111.5625 C 180.238281 109.304688 179.335938 107.019531 178.382812 104.753906 C 177.898438 103.597656 177.398438 102.441406 177.015625 101.246094 C 176.640625 100.0625 176.355469 98.851562 175.980469 97.667969 C 175.632812 96.566406 175.183594 95.511719 174.710938 94.460938 C 172.621094 98.480469 170.511719 102.476562 168.679688 106.625 C 167.492188 109.3125 166.179688 111.953125 165.046875 114.667969 C 164.597656 115.746094 162.941406 115.015625 163.390625 113.9375 C 164.390625 111.53125 165.558594 109.203125 166.613281 106.820312 C 167.667969 104.4375 168.722656 102.0625 169.925781 99.75 C 171.199219 97.296875 172.460938 94.835938 173.765625 92.402344 C 173.488281 91.789062 173.21875 91.171875 172.972656 90.546875 C 172.027344 88.132812 171.367188 85.628906 170.328125 83.25 C 169.289062 80.867188 168.242188 78.511719 167.335938 76.070312 C 166.417969 73.585938 165.402344 71.171875 164.324219 68.753906 C 163.804688 67.582031 163.339844 66.402344 162.984375 65.171875 C 162.644531 63.992188 162.378906 62.792969 161.984375 61.632812 C 161.226562 59.398438 160.285156 57.21875 159.445312 55.011719 C 159.125 54.171875 158.875 53.3125 158.695312 52.429688 C 158.589844 51.914062 158.585938 51.566406 158.355469 51.132812 C 158.183594 50.808594 157.738281 50.417969 157.34375 50.097656 C 155.28125 50.117188 153.210938 50.058594 151.148438 50.007812 C 148.96875 49.957031 146.777344 49.695312 144.597656 49.847656 C 142.449219 49.996094 140.386719 50.191406 138.226562 50.046875 C 136.054688 49.902344 133.839844 49.859375 131.695312 49.5 C 127.457031 48.785156 123.058594 48.613281 118.804688 49.191406 C 116.757812 49.46875 114.789062 49.257812 112.753906 49.019531 C 110.554688 48.761719 108.316406 48.683594 106.109375 48.53125 C 103.917969 48.378906 101.773438 48.695312 99.589844 48.816406 C 97.339844 48.945312 95.082031 48.832031 92.855469 49.257812 C 90.75 49.660156 88.972656 50.652344 87.503906 52.214844 C 86.058594 53.75 84.875 55.492188 83.339844 56.949219 C 82.621094 57.632812 81.859375 58.273438 81.171875 58.992188 C 80.414062 59.792969 79.75 60.683594 79.082031 61.5625 C 77.695312 63.390625 76.230469 65.132812 74.714844 66.855469 C 73.238281 68.539062 71.921875 70.300781 70.582031 72.089844 C 69.21875 73.910156 67.636719 75.546875 66.164062 77.273438 C 62.863281 81.128906 59.484375 84.925781 56.128906 88.734375 C 55.320312 89.65625 54.464844 90.558594 53.742188 91.546875 C 53.078125 92.457031 52.554688 93.457031 52.003906 94.4375 C 51.089844 96.074219 50.183594 97.5625 49.804688 99.359375 C 51.71875 99.582031 53.617188 99.910156 55.539062 100.066406 C 57.800781 100.25 60.058594 100.316406 62.300781 100.660156 C 64.402344 100.984375 66.488281 101.316406 68.605469 101.527344 C 70.839844 101.753906 73.066406 101.949219 75.277344 102.351562 C 76.257812 102.53125 77.238281 102.722656 78.230469 102.828125 C 79.382812 102.953125 80.527344 102.863281 81.675781 102.792969 C 83.773438 102.664062 85.839844 102.875 87.933594 103.023438 C 92.507812 103.34375 97.089844 103.511719 101.671875 103.472656 C 103.710938 103.453125 105.710938 103.863281 107.738281 103.875 C 109.945312 103.882812 112.042969 103.085938 114.226562 102.914062 C 116.019531 102.769531 118.359375 103.207031 119.804688 101.882812 C 120.476562 101.265625 120.898438 100.398438 121.320312 99.601562 C 121.789062 98.71875 122.296875 97.867188 122.867188 97.046875 C 124.15625 95.195312 125.511719 93.375 126.839844 91.550781 C 128.105469 89.816406 129.5 88.15625 130.582031 86.296875 C 132.746094 82.570312 135.300781 78.96875 138.164062 75.746094 C 141.476562 72.011719 144.679688 68.183594 147.699219 64.203125 C 149.140625 62.300781 150.402344 60.320312 151.675781 58.304688 C 153.003906 56.203125 154.386719 54.144531 155.660156 52 C 156.246094 51.011719 157.910156 51.726562 157.316406 52.730469 C 156.148438 54.703125 154.941406 56.648438 153.664062 58.558594 C 152.472656 60.339844 151.4375 62.222656 150.15625 63.949219 C 147.445312 67.601562 144.570312 71.113281 141.621094 74.578125 C 140.171875 76.28125 138.636719 77.890625 137.289062 79.683594 C 135.984375 81.417969 134.578125 83.148438 133.425781 84.988281 C 132.289062 86.800781 131.285156 88.625 130 90.339844 C 128.617188 92.183594 127.3125 94.085938 125.9375 95.933594 C 125.277344 96.824219 124.597656 97.699219 123.984375 98.621094 C 123.398438 99.5 122.949219 100.449219 122.417969 101.359375 C 121.914062 102.230469 121.332031 102.941406 120.625 103.476562 C 120.667969 103.539062 120.707031 103.605469 120.738281 103.6875 C 122.351562 107.78125 123.894531 111.941406 125.777344 115.917969 C 126.792969 118.070312 127.878906 120.1875 128.878906 122.347656 C 129.871094 124.5 130.851562 126.660156 131.855469 128.804688 C 132.90625 131.0625 133.867188 133.304688 134.699219 135.652344 C 135.488281 137.886719 136.523438 140.027344 137.480469 142.195312 C 138.398438 144.285156 139.390625 146.339844 140.316406 148.425781 C 141.261719 150.566406 142.105469 152.757812 142.976562 154.929688 C 144.269531 158.152344 146.015625 161.46875 146.515625 164.964844 C 146.96875 164.582031 147.433594 164.207031 147.898438 163.820312 C 149.445312 162.519531 150.808594 160.96875 152.242188 159.546875 Z M 58.417969 120.527344 C 59.53125 122.789062 60.242188 125.210938 61.222656 127.53125 C 63.261719 132.351562 65.5 137.089844 67.628906 141.871094 C 68.6875 144.246094 69.574219 146.683594 70.597656 149.070312 C 71.59375 151.386719 72.78125 153.621094 73.746094 155.949219 C 74.273438 157.226562 74.738281 158.527344 75.289062 159.792969 C 75.847656 161.074219 76.554688 162.261719 77.257812 163.464844 C 78.675781 165.898438 79.652344 168.523438 80.859375 171.058594 C 81.183594 171.148438 81.644531 171.21875 81.941406 171.257812 C 82.855469 171.386719 83.777344 171.453125 84.695312 171.519531 C 86.714844 171.671875 88.734375 171.886719 90.757812 171.988281 C 95.152344 172.207031 99.59375 172 103.988281 171.8125 C 108.492188 171.621094 112.976562 171.160156 117.476562 170.902344 C 119.789062 170.769531 122.078125 170.640625 124.371094 170.3125 C 126.660156 169.984375 128.945312 169.667969 131.238281 169.382812 C 133.6875 169.074219 136.015625 168.546875 138.398438 167.921875 C 140.542969 167.355469 142.703125 166.90625 144.828125 166.269531 C 144.609375 162.894531 143.007812 159.703125 141.722656 156.640625 C 140.855469 154.566406 140.054688 152.464844 139.1875 150.386719 C 138.3125 148.292969 137.289062 146.265625 136.378906 144.1875 C 135.390625 141.9375 134.300781 139.714844 133.417969 137.421875 C 132.5625 135.195312 131.800781 132.976562 130.792969 130.808594 C 128.820312 126.554688 126.941406 122.253906 124.828125 118.070312 C 122.59375 113.648438 120.867188 108.949219 119.054688 104.347656 C 119.046875 104.324219 119.042969 104.308594 119.039062 104.289062 C 118.714844 104.390625 118.378906 104.480469 118.015625 104.535156 C 117.074219 104.675781 116.121094 104.648438 115.171875 104.679688 C 113.984375 104.71875 112.832031 104.921875 111.671875 105.164062 C 110.695312 105.363281 109.722656 105.578125 108.726562 105.652344 C 107.589844 105.734375 106.445312 105.628906 105.316406 105.503906 C 103.105469 105.257812 100.925781 105.292969 98.707031 105.269531 C 96.445312 105.242188 94.183594 105.171875 91.925781 105.058594 C 89.648438 104.945312 87.375 104.796875 85.101562 104.625 C 82.972656 104.460938 80.871094 104.785156 78.742188 104.683594 C 76.292969 104.566406 73.886719 103.882812 71.445312 103.632812 C 68.929688 103.375 66.410156 103.171875 63.914062 102.761719 C 61.367188 102.34375 58.847656 102.105469 56.273438 101.933594 C 54.195312 101.796875 52.148438 101.464844 50.085938 101.214844 C 51.871094 105.390625 53.464844 109.648438 55.277344 113.816406 C 56.265625 116.089844 57.320312 118.304688 58.417969 120.527344 Z M 106.210938 131.675781 C 106.570312 131.367188 107.214844 131.472656 107.476562 131.859375 C 107.769531 132.289062 107.679688 132.800781 107.292969 133.128906 C 105.671875 134.519531 104.230469 136.332031 103.242188 138.238281 C 103.015625 138.671875 102.519531 138.910156 102.050781 138.703125 C 101.625 138.519531 101.355469 137.945312 101.582031 137.507812 C 102.742188 135.277344 104.304688 133.308594 106.210938 131.675781 Z M 82.984375 134.890625 C 83.3125 134.511719 83.851562 134.4375 84.257812 134.742188 C 86.003906 136.0625 87.75 137.386719 89.496094 138.707031 C 89.878906 138.992188 89.960938 139.617188 89.648438 139.980469 C 89.320312 140.359375 88.78125 140.433594 88.378906 140.128906 C 86.628906 138.808594 84.882812 137.484375 83.136719 136.164062 C 82.757812 135.878906 82.671875 135.253906 82.984375 134.890625 Z M 97.21875 146.796875 C 96.511719 147.09375 95.742188 146.953125 95.121094 146.523438 C 94.460938 146.066406 94.082031 145.253906 93.980469 144.472656 C 93.945312 144.191406 94.082031 143.804688 94.339844 143.652344 C 95.070312 143.226562 95.929688 142.796875 96.804688 143.015625 C 97.257812 143.125 97.632812 143.351562 97.925781 143.722656 C 97.984375 143.792969 98.035156 143.871094 98.082031 143.957031 C 98.109375 143.984375 98.140625 144.011719 98.164062 144.042969 C 98.433594 144.386719 98.515625 144.808594 98.480469 145.234375 C 98.417969 145.945312 97.847656 146.53125 97.21875 146.796875 Z M 94.640625 148.34375 C 97.136719 150.359375 101.460938 149.449219 102.878906 146.554688 C 103.390625 145.511719 105.054688 146.238281 104.539062 147.285156 C 102.613281 151.210938 96.953125 152.539062 93.523438 149.765625 C 92.613281 149.03125 93.734375 147.609375 94.640625 148.34375 Z M 94.640625 148.34375 " fill-opacity="1" fill-rule="nonzero"/></g></g></g></svg>