<svg xmlns="http://www.w3.org/2000/svg" xmlns:xlink="http://www.w3.org/1999/xlink" width="500" zoomAndPan="magnify" viewBox="0 0 375 374.999991" height="500" preserveAspectRatio="xMidYMid meet" version="1.0"><defs><clipPath id="id1"><path d="M 180.933594 26.679688 L 374.996094 26.679688 L 374.996094 220.929688 L 180.933594 220.929688 Z M 180.933594 26.679688 " clip-rule="nonzero"/></clipPath><clipPath id="id2"><path d="M 34 61 L 267 61 L 267 334 L 34 334 Z M 34 61 " clip-rule="nonzero"/></clipPath><clipPath id="id3"><path d="M 0 108.453125 L 228.402344 19.125 L 325.109375 266.386719 L 96.707031 355.714844 Z M 0 108.453125 " clip-rule="nonzero"/></clipPath><clipPath id="id4"><path d="M 228.589844 19.050781 L 0.1875 108.382812 L 96.890625 355.644531 L 325.292969 266.3125 Z M 228.589844 19.050781 " clip-rule="nonzero"/></clipPath></defs><g clip-path="url(#id1)"><path fill="rgb(21.179199%, 27.059937%, 30.979919%)" d="M 180.746094 218.8125 L 180.746094 219.34375 C 180.746094 220.242188 181.433594 220.929688 182.332031 220.929688 L 182.859375 220.929688 C 183.757812 220.929688 184.445312 220.242188 184.445312 219.34375 C 184.445312 218.761719 184.128906 218.285156 183.707031 217.96875 C 183.441406 217.492188 182.914062 217.226562 182.332031 217.226562 C 181.484375 217.226562 180.746094 217.914062 180.746094 218.8125 Z M 229.535156 217.757812 L 230.644531 217.757812 C 231.542969 217.757812 232.230469 218.445312 232.230469 219.34375 C 232.230469 220.242188 231.542969 220.929688 230.644531 220.929688 L 229.535156 220.929688 C 228.632812 220.929688 227.949219 220.242188 227.949219 219.34375 C 227.949219 218.445312 228.6875 217.757812 229.535156 217.757812 Z M 348.992188 217.757812 L 350.046875 217.757812 C 350.945312 217.757812 351.632812 218.445312 351.632812 219.34375 C 351.632812 220.242188 350.945312 220.929688 350.046875 220.929688 L 348.992188 220.929688 C 348.09375 220.929688 347.40625 220.242188 347.40625 219.34375 C 347.40625 218.445312 348.09375 217.757812 348.992188 217.757812 Z M 241.480469 217.757812 L 242.535156 217.757812 C 243.433594 217.757812 244.121094 218.445312 244.121094 219.34375 C 244.121094 220.242188 243.433594 220.929688 242.535156 220.929688 L 241.480469 220.929688 C 240.582031 220.929688 239.894531 220.242188 239.894531 219.34375 C 239.894531 218.445312 240.632812 217.757812 241.480469 217.757812 Z M 217.640625 217.757812 L 218.75 217.757812 C 219.648438 217.757812 220.335938 218.445312 220.335938 219.34375 C 220.335938 220.242188 219.648438 220.929688 218.75 220.929688 L 217.640625 220.929688 C 216.742188 220.929688 216.054688 220.242188 216.054688 219.34375 C 216.054688 218.445312 216.742188 217.757812 217.640625 217.757812 Z M 193.75 217.757812 L 194.804688 217.757812 C 195.703125 217.757812 196.390625 218.445312 196.390625 219.34375 C 196.390625 220.242188 195.703125 220.929688 194.804688 220.929688 L 193.75 220.929688 C 192.851562 220.929688 192.164062 220.242188 192.164062 219.34375 C 192.164062 218.445312 192.851562 217.757812 193.75 217.757812 Z M 360.882812 217.757812 L 361.992188 217.757812 C 362.890625 217.757812 363.578125 218.445312 363.578125 219.34375 C 363.578125 220.242188 362.890625 220.929688 361.992188 220.929688 L 360.882812 220.929688 C 359.984375 220.929688 359.296875 220.242188 359.296875 219.34375 C 359.296875 218.445312 360.039062 217.757812 360.882812 217.757812 Z M 253.425781 217.757812 L 254.480469 217.757812 C 255.378906 217.757812 256.066406 218.445312 256.066406 219.34375 C 256.066406 220.242188 255.378906 220.929688 254.480469 220.929688 L 253.425781 220.929688 C 252.527344 220.929688 251.839844 220.242188 251.839844 219.34375 C 251.839844 218.445312 252.578125 217.757812 253.425781 217.757812 Z M 205.695312 217.757812 L 206.75 217.757812 C 207.652344 217.757812 208.335938 218.445312 208.335938 219.34375 C 208.335938 220.242188 207.652344 220.929688 206.75 220.929688 L 205.695312 220.929688 C 204.796875 220.929688 204.109375 220.242188 204.109375 219.34375 C 204.109375 218.445312 204.796875 217.757812 205.695312 217.757812 Z M 289.261719 217.757812 L 290.371094 217.757812 C 291.269531 217.757812 291.957031 218.445312 291.957031 219.34375 C 291.957031 220.242188 291.269531 220.929688 290.371094 220.929688 L 289.261719 220.929688 C 288.363281 220.929688 287.675781 220.242188 287.675781 219.34375 C 287.675781 218.445312 288.363281 217.757812 289.261719 217.757812 Z M 325.097656 217.757812 L 326.207031 217.757812 C 327.109375 217.757812 327.792969 218.445312 327.792969 219.34375 C 327.792969 220.242188 327.109375 220.929688 326.207031 220.929688 L 325.097656 220.929688 C 324.199219 220.929688 323.511719 220.242188 323.511719 219.34375 C 323.511719 218.445312 324.199219 217.757812 325.097656 217.757812 Z M 277.316406 217.757812 L 278.425781 217.757812 C 279.324219 217.757812 280.011719 218.445312 280.011719 219.34375 C 280.011719 220.242188 279.324219 220.929688 278.425781 220.929688 L 277.316406 220.929688 C 276.417969 220.929688 275.730469 220.242188 275.730469 219.34375 C 275.730469 218.445312 276.46875 217.757812 277.316406 217.757812 Z M 301.207031 217.757812 L 302.265625 217.757812 C 303.164062 217.757812 303.851562 218.445312 303.851562 219.34375 C 303.851562 220.242188 303.164062 220.929688 302.265625 220.929688 L 301.207031 220.929688 C 300.308594 220.929688 299.621094 220.242188 299.621094 219.34375 C 299.621094 218.445312 300.308594 217.757812 301.207031 217.757812 Z M 313.152344 217.757812 L 314.210938 217.757812 C 315.109375 217.757812 315.796875 218.445312 315.796875 219.34375 C 315.796875 220.242188 315.109375 220.929688 314.210938 220.929688 L 313.101562 220.929688 C 312.203125 220.929688 311.515625 220.242188 311.515625 219.34375 C 311.515625 218.445312 312.253906 217.757812 313.152344 217.757812 Z M 265.371094 217.757812 L 266.425781 217.757812 C 267.324219 217.757812 268.011719 218.445312 268.011719 219.34375 C 268.011719 220.242188 267.324219 220.929688 266.425781 220.929688 L 265.371094 220.929688 C 264.472656 220.929688 263.785156 220.242188 263.785156 219.34375 C 263.785156 218.445312 264.523438 217.757812 265.371094 217.757812 Z M 337.042969 217.757812 L 338.101562 217.757812 C 339 217.757812 339.6875 218.445312 339.6875 219.34375 C 339.6875 220.242188 339 220.929688 338.101562 220.929688 L 337.042969 220.929688 C 336.144531 220.929688 335.457031 220.242188 335.457031 219.34375 C 335.457031 218.445312 336.144531 217.757812 337.042969 217.757812 Z M 372.035156 217.96875 C 372.351562 217.492188 372.828125 217.226562 373.410156 217.226562 C 374.308594 217.226562 374.996094 217.914062 374.996094 218.8125 L 374.996094 219.34375 C 374.996094 220.242188 374.308594 220.929688 373.410156 220.929688 L 372.882812 220.929688 C 371.984375 220.929688 371.296875 220.242188 371.296875 219.34375 C 371.296875 218.761719 371.613281 218.230469 372.035156 217.96875 Z M 373.410156 209.511719 C 372.511719 209.511719 371.824219 208.824219 371.824219 207.925781 L 371.824219 206.867188 C 371.824219 205.96875 372.511719 205.28125 373.410156 205.28125 C 374.308594 205.28125 374.996094 205.96875 374.996094 206.867188 L 374.996094 207.925781 C 374.996094 208.824219 374.308594 209.511719 373.410156 209.511719 Z M 373.410156 78.160156 C 372.511719 78.160156 371.824219 77.472656 371.824219 76.574219 L 371.824219 75.464844 C 371.824219 74.566406 372.511719 73.878906 373.410156 73.878906 C 374.308594 73.878906 374.996094 74.566406 374.996094 75.464844 L 374.996094 76.574219 C 374.996094 77.472656 374.308594 78.160156 373.410156 78.160156 Z M 373.410156 113.996094 C 372.511719 113.996094 371.824219 113.3125 371.824219 112.410156 L 371.824219 111.300781 C 371.824219 110.402344 372.511719 109.714844 373.410156 109.714844 C 374.308594 109.714844 374.996094 110.402344 374.996094 111.300781 L 374.996094 112.410156 C 374.996094 113.3125 374.308594 113.996094 373.410156 113.996094 Z M 373.410156 125.945312 C 372.511719 125.945312 371.824219 125.257812 371.824219 124.359375 L 371.824219 123.246094 C 371.824219 122.347656 372.511719 121.660156 373.410156 121.660156 C 374.308594 121.660156 374.996094 122.347656 374.996094 123.246094 L 374.996094 124.359375 C 374.996094 125.203125 374.308594 125.945312 373.410156 125.945312 Z M 373.410156 102.050781 C 372.511719 102.050781 371.824219 101.363281 371.824219 100.464844 L 371.824219 99.410156 C 371.824219 98.511719 372.511719 97.824219 373.410156 97.824219 C 374.308594 97.824219 374.996094 98.511719 374.996094 99.410156 L 374.996094 100.464844 C 374.996094 101.363281 374.308594 102.050781 373.410156 102.050781 Z M 373.410156 90.105469 C 372.511719 90.105469 371.824219 89.417969 371.824219 88.519531 L 371.824219 87.464844 C 371.824219 86.566406 372.511719 85.878906 373.410156 85.878906 C 374.308594 85.878906 374.996094 86.566406 374.996094 87.464844 L 374.996094 88.574219 C 374.996094 89.417969 374.308594 90.105469 373.410156 90.105469 Z M 373.410156 42.375 C 372.511719 42.375 371.824219 41.6875 371.824219 40.789062 L 371.824219 39.679688 C 371.824219 38.78125 372.511719 38.09375 373.410156 38.09375 C 374.308594 38.09375 374.996094 38.78125 374.996094 39.679688 L 374.996094 40.789062 C 374.996094 41.636719 374.308594 42.375 373.410156 42.375 Z M 373.410156 54.269531 C 372.511719 54.269531 371.824219 53.582031 371.824219 52.683594 L 371.824219 51.625 C 371.824219 50.726562 372.511719 50.039062 373.410156 50.039062 C 374.308594 50.039062 374.996094 50.726562 374.996094 51.625 L 374.996094 52.683594 C 374.996094 53.582031 374.308594 54.269531 373.410156 54.269531 Z M 373.410156 137.890625 C 372.511719 137.890625 371.824219 137.203125 371.824219 136.304688 L 371.824219 135.246094 C 371.824219 134.347656 372.511719 133.660156 373.410156 133.660156 C 374.308594 133.660156 374.996094 134.347656 374.996094 135.246094 L 374.996094 136.304688 C 374.996094 137.148438 374.308594 137.890625 373.410156 137.890625 Z M 373.410156 66.214844 C 372.511719 66.214844 371.824219 65.527344 371.824219 64.628906 L 371.824219 63.570312 C 371.824219 62.671875 372.511719 61.988281 373.410156 61.988281 C 374.308594 61.988281 374.996094 62.671875 374.996094 63.570312 L 374.996094 64.628906 C 374.996094 65.527344 374.308594 66.214844 373.410156 66.214844 Z M 373.410156 173.726562 C 372.511719 173.726562 371.824219 173.039062 371.824219 172.140625 L 371.824219 171.03125 C 371.824219 170.132812 372.511719 169.445312 373.410156 169.445312 C 374.308594 169.445312 374.996094 170.132812 374.996094 171.03125 L 374.996094 172.140625 C 374.996094 172.988281 374.308594 173.726562 373.410156 173.726562 Z M 373.410156 185.621094 C 372.511719 185.621094 371.824219 184.933594 371.824219 184.035156 L 371.824219 182.921875 C 371.824219 182.023438 372.511719 181.335938 373.410156 181.335938 C 374.308594 181.335938 374.996094 182.023438 374.996094 182.921875 L 374.996094 184.035156 C 374.996094 184.933594 374.308594 185.621094 373.410156 185.621094 Z M 373.410156 197.566406 C 372.511719 197.566406 371.824219 196.878906 371.824219 195.980469 L 371.824219 194.921875 C 371.824219 194.023438 372.511719 193.335938 373.410156 193.335938 C 374.308594 193.335938 374.996094 194.023438 374.996094 194.921875 L 374.996094 195.980469 C 374.996094 196.878906 374.308594 197.566406 373.410156 197.566406 Z M 373.410156 161.78125 C 372.511719 161.78125 371.824219 161.09375 371.824219 160.195312 L 371.824219 159.136719 C 371.824219 158.238281 372.511719 157.550781 373.410156 157.550781 C 374.308594 157.550781 374.996094 158.238281 374.996094 159.136719 L 374.996094 160.195312 C 374.996094 161.039062 374.308594 161.78125 373.410156 161.78125 Z M 373.410156 149.835938 C 372.511719 149.835938 371.824219 149.148438 371.824219 148.25 L 371.824219 147.191406 C 371.824219 146.292969 372.511719 145.605469 373.410156 145.605469 C 374.308594 145.605469 374.996094 146.292969 374.996094 147.191406 L 374.996094 148.25 C 374.996094 149.09375 374.308594 149.835938 373.410156 149.835938 Z M 372.882812 26.679688 L 373.410156 26.679688 C 374.308594 26.679688 374.996094 27.363281 374.996094 28.261719 L 374.996094 28.792969 C 374.996094 29.691406 374.308594 30.378906 373.410156 30.378906 C 372.828125 30.378906 372.351562 30.0625 372.035156 29.636719 C 371.613281 29.320312 371.296875 28.84375 371.296875 28.261719 C 371.296875 27.363281 371.984375 26.679688 372.882812 26.679688 Z M 362.046875 29.847656 L 360.988281 29.847656 C 360.089844 29.847656 359.402344 29.160156 359.402344 28.261719 C 359.402344 27.363281 360.089844 26.679688 360.988281 26.679688 L 362.046875 26.679688 C 362.945312 26.679688 363.632812 27.363281 363.632812 28.261719 C 363.632812 29.160156 362.890625 29.847656 362.046875 29.847656 Z M 314.261719 29.847656 L 313.152344 29.847656 C 312.253906 29.847656 311.566406 29.160156 311.566406 28.261719 C 311.566406 27.363281 312.253906 26.679688 313.152344 26.679688 L 314.261719 26.679688 C 315.160156 26.679688 315.847656 27.363281 315.847656 28.261719 C 315.847656 29.160156 315.160156 29.847656 314.261719 29.847656 Z M 338.15625 29.847656 L 337.097656 29.847656 C 336.199219 29.847656 335.511719 29.160156 335.511719 28.261719 C 335.511719 27.363281 336.199219 26.679688 337.097656 26.679688 L 338.15625 26.679688 C 339.054688 26.679688 339.742188 27.363281 339.742188 28.261719 C 339.742188 29.160156 339 29.847656 338.15625 29.847656 Z M 326.207031 29.847656 L 325.152344 29.847656 C 324.253906 29.847656 323.566406 29.160156 323.566406 28.261719 C 323.566406 27.363281 324.253906 26.679688 325.152344 26.679688 L 326.207031 26.679688 C 327.109375 26.679688 327.792969 27.363281 327.792969 28.261719 C 327.792969 29.160156 327.054688 29.847656 326.207031 29.847656 Z M 350.101562 29.847656 L 348.992188 29.847656 C 348.09375 29.847656 347.40625 29.160156 347.40625 28.261719 C 347.40625 27.363281 348.09375 26.679688 348.992188 26.679688 L 350.101562 26.679688 C 351 26.679688 351.6875 27.363281 351.6875 28.261719 C 351.6875 29.160156 350.945312 29.847656 350.101562 29.847656 Z M 230.695312 29.847656 L 229.640625 29.847656 C 228.742188 29.847656 228.054688 29.160156 228.054688 28.261719 C 228.054688 27.363281 228.742188 26.679688 229.640625 26.679688 L 230.695312 26.679688 C 231.59375 26.679688 232.28125 27.363281 232.28125 28.261719 C 232.28125 29.160156 231.542969 29.847656 230.695312 29.847656 Z M 218.75 29.847656 L 217.691406 29.847656 C 216.792969 29.847656 216.109375 29.160156 216.109375 28.261719 C 216.109375 27.363281 216.792969 26.679688 217.691406 26.679688 L 218.75 26.679688 C 219.648438 26.679688 220.335938 27.363281 220.335938 28.261719 C 220.335938 29.160156 219.597656 29.847656 218.75 29.847656 Z M 242.640625 29.847656 L 241.585938 29.847656 C 240.6875 29.847656 240 29.160156 240 28.261719 C 240 27.363281 240.6875 26.679688 241.585938 26.679688 L 242.640625 26.679688 C 243.539062 26.679688 244.226562 27.363281 244.226562 28.261719 C 244.226562 29.160156 243.488281 29.847656 242.640625 29.847656 Z M 194.859375 29.847656 L 193.800781 29.847656 C 192.902344 29.847656 192.214844 29.160156 192.214844 28.261719 C 192.214844 27.363281 192.902344 26.679688 193.800781 26.679688 L 194.859375 26.679688 C 195.757812 26.679688 196.445312 27.363281 196.445312 28.261719 C 196.445312 29.160156 195.757812 29.847656 194.859375 29.847656 Z M 206.804688 29.847656 L 205.746094 29.847656 C 204.847656 29.847656 204.160156 29.160156 204.160156 28.261719 C 204.160156 27.363281 204.847656 26.679688 205.746094 26.679688 L 206.804688 26.679688 C 207.703125 26.679688 208.390625 27.363281 208.390625 28.261719 C 208.390625 29.160156 207.648438 29.847656 206.804688 29.847656 Z M 278.425781 29.847656 L 277.316406 29.847656 C 276.417969 29.847656 275.730469 29.160156 275.730469 28.261719 C 275.730469 27.363281 276.417969 26.679688 277.316406 26.679688 L 278.425781 26.679688 C 279.324219 26.679688 280.011719 27.363281 280.011719 28.261719 C 280.011719 29.160156 279.324219 29.847656 278.425781 29.847656 Z M 254.585938 29.847656 L 253.476562 29.847656 C 252.578125 29.847656 251.890625 29.160156 251.890625 28.261719 C 251.890625 27.363281 252.578125 26.679688 253.476562 26.679688 L 254.585938 26.679688 C 255.484375 26.679688 256.171875 27.363281 256.171875 28.261719 C 256.171875 29.160156 255.433594 29.847656 254.585938 29.847656 Z M 302.316406 29.847656 L 301.261719 29.847656 C 300.363281 29.847656 299.675781 29.160156 299.675781 28.261719 C 299.675781 27.363281 300.363281 26.679688 301.261719 26.679688 L 302.316406 26.679688 C 303.214844 26.679688 303.902344 27.363281 303.902344 28.261719 C 303.902344 29.160156 303.214844 29.847656 302.316406 29.847656 Z M 290.371094 29.847656 L 289.316406 29.847656 C 288.417969 29.847656 287.730469 29.160156 287.730469 28.261719 C 287.730469 27.363281 288.417969 26.679688 289.316406 26.679688 L 290.371094 26.679688 C 291.269531 26.679688 291.957031 27.363281 291.957031 28.261719 C 291.957031 29.160156 291.269531 29.847656 290.371094 29.847656 Z M 266.480469 29.847656 L 265.421875 29.847656 C 264.523438 29.847656 263.835938 29.160156 263.835938 28.261719 C 263.835938 27.363281 264.523438 26.679688 265.421875 26.679688 L 266.480469 26.679688 C 267.378906 26.679688 268.066406 27.363281 268.066406 28.261719 C 268.066406 29.160156 267.378906 29.847656 266.480469 29.847656 Z M 182.332031 26.679688 L 182.859375 26.679688 C 183.757812 26.679688 184.445312 27.363281 184.445312 28.261719 C 184.445312 28.84375 184.128906 29.320312 183.707031 29.636719 C 183.441406 30.113281 182.914062 30.378906 182.332031 30.378906 C 181.433594 30.378906 180.746094 29.691406 180.746094 28.792969 L 180.746094 28.261719 C 180.746094 27.363281 181.484375 26.679688 182.332031 26.679688 Z M 182.332031 97.769531 C 183.230469 97.769531 183.917969 98.457031 183.917969 99.355469 L 183.917969 100.414062 C 183.917969 101.3125 183.230469 102 182.332031 102 C 181.433594 102 180.746094 101.3125 180.746094 100.414062 L 180.746094 99.355469 C 180.746094 98.457031 181.484375 97.769531 182.332031 97.769531 Z M 182.332031 85.824219 C 183.230469 85.824219 183.917969 86.511719 183.917969 87.410156 L 183.917969 88.519531 C 183.917969 89.417969 183.230469 90.105469 182.332031 90.105469 C 181.433594 90.105469 180.746094 89.417969 180.746094 88.519531 L 180.746094 87.410156 C 180.746094 86.511719 181.484375 85.824219 182.332031 85.824219 Z M 182.332031 109.714844 C 183.230469 109.714844 183.917969 110.402344 183.917969 111.300781 L 183.917969 112.359375 C 183.917969 113.257812 183.230469 113.945312 182.332031 113.945312 C 181.433594 113.945312 180.746094 113.257812 180.746094 112.359375 L 180.746094 111.300781 C 180.746094 110.402344 181.484375 109.714844 182.332031 109.714844 Z M 182.332031 121.660156 C 183.230469 121.660156 183.917969 122.347656 183.917969 123.246094 L 183.917969 124.359375 C 183.917969 125.257812 183.230469 125.945312 182.332031 125.945312 C 181.433594 125.945312 180.746094 125.257812 180.746094 124.359375 L 180.746094 123.246094 C 180.746094 122.347656 181.484375 121.660156 182.332031 121.660156 Z M 182.332031 73.878906 C 183.230469 73.878906 183.917969 74.566406 183.917969 75.464844 L 183.917969 76.523438 C 183.917969 77.421875 183.230469 78.109375 182.332031 78.109375 C 181.433594 78.109375 180.746094 77.421875 180.746094 76.523438 L 180.746094 75.464844 C 180.746094 74.621094 181.484375 73.878906 182.332031 73.878906 Z M 182.332031 38.042969 C 183.230469 38.042969 183.917969 38.730469 183.917969 39.628906 L 183.917969 40.683594 C 183.917969 41.582031 183.230469 42.269531 182.332031 42.269531 C 181.433594 42.269531 180.746094 41.582031 180.746094 40.683594 L 180.746094 39.628906 C 180.746094 38.78125 181.484375 38.042969 182.332031 38.042969 Z M 182.332031 49.988281 C 183.230469 49.988281 183.917969 50.675781 183.917969 51.574219 L 183.917969 52.683594 C 183.917969 53.582031 183.230469 54.269531 182.332031 54.269531 C 181.433594 54.269531 180.746094 53.582031 180.746094 52.683594 L 180.746094 51.574219 C 180.746094 50.726562 181.484375 49.988281 182.332031 49.988281 Z M 182.332031 205.230469 C 183.230469 205.230469 183.917969 205.917969 183.917969 206.816406 L 183.917969 207.871094 C 183.917969 208.769531 183.230469 209.457031 182.332031 209.457031 C 181.433594 209.457031 180.746094 208.769531 180.746094 207.871094 L 180.746094 206.816406 C 180.746094 205.917969 181.484375 205.230469 182.332031 205.230469 Z M 182.332031 61.933594 C 183.230469 61.933594 183.917969 62.621094 183.917969 63.519531 L 183.917969 64.578125 C 183.917969 65.476562 183.230469 66.160156 182.332031 66.160156 C 181.433594 66.160156 180.746094 65.476562 180.746094 64.578125 L 180.746094 63.519531 C 180.746094 62.671875 181.484375 61.933594 182.332031 61.933594 Z M 182.332031 133.609375 C 183.230469 133.609375 183.917969 134.292969 183.917969 135.195312 L 183.917969 136.25 C 183.917969 137.148438 183.230469 137.835938 182.332031 137.835938 C 181.433594 137.835938 180.746094 137.148438 180.746094 136.25 L 180.746094 135.195312 C 180.746094 134.292969 181.484375 133.609375 182.332031 133.609375 Z M 182.332031 193.285156 C 183.230469 193.285156 183.917969 193.96875 183.917969 194.871094 L 183.917969 195.925781 C 183.917969 196.824219 183.230469 197.511719 182.332031 197.511719 C 181.433594 197.511719 180.746094 196.824219 180.746094 195.925781 L 180.746094 194.871094 C 180.746094 194.023438 181.484375 193.285156 182.332031 193.285156 Z M 182.332031 169.390625 C 183.230469 169.390625 183.917969 170.078125 183.917969 170.976562 L 183.917969 172.035156 C 183.917969 172.933594 183.230469 173.621094 182.332031 173.621094 C 181.433594 173.621094 180.746094 172.933594 180.746094 172.035156 L 180.746094 170.976562 C 180.746094 170.132812 181.484375 169.390625 182.332031 169.390625 Z M 182.332031 181.335938 C 183.230469 181.335938 183.917969 182.023438 183.917969 182.921875 L 183.917969 183.980469 C 183.917969 184.878906 183.230469 185.566406 182.332031 185.566406 C 181.433594 185.566406 180.746094 184.878906 180.746094 183.980469 L 180.746094 182.921875 C 180.746094 182.078125 181.484375 181.335938 182.332031 181.335938 Z M 182.332031 145.5 C 183.230469 145.5 183.917969 146.1875 183.917969 147.085938 L 183.917969 148.195312 C 183.917969 149.09375 183.230469 149.78125 182.332031 149.78125 C 181.433594 149.78125 180.746094 149.09375 180.746094 148.195312 L 180.746094 147.085938 C 180.746094 146.242188 181.484375 145.5 182.332031 145.5 Z M 182.332031 157.445312 C 183.230469 157.445312 183.917969 158.132812 183.917969 159.03125 L 183.917969 160.089844 C 183.917969 160.988281 183.230469 161.675781 182.332031 161.675781 C 181.433594 161.675781 180.746094 160.988281 180.746094 160.089844 L 180.746094 159.03125 C 180.746094 158.1875 181.484375 157.445312 182.332031 157.445312 Z M 182.332031 157.445312 " fill-opacity="1" fill-rule="nonzero"/></g><g clip-path="url(#id2)"><g clip-path="url(#id3)"><g clip-path="url(#id4)"><path fill="rgb(21.179199%, 27.059937%, 30.979919%)" d="M 34.742188 195.839844 C 34.699219 195.09375 35.214844 194.328125 36.011719 194.277344 C 37.671875 194.164062 39.335938 194.042969 41 193.929688 C 41.171875 193.917969 41.34375 193.90625 41.515625 193.894531 C 39.929688 193.097656 38.34375 192.296875 36.757812 191.503906 C 35.125 190.691406 36.257812 188.082031 37.898438 188.902344 C 39.082031 189.492188 40.265625 190.089844 41.449219 190.683594 C 40.632812 189.566406 39.996094 188.257812 40.3125 186.84375 C 40.472656 186.117188 41.152344 185.5 41.9375 185.660156 C 42.652344 185.804688 43.292969 186.507812 43.121094 187.285156 C 43.097656 187.386719 43.085938 187.484375 43.070312 187.585938 C 43.078125 187.601562 43.082031 187.738281 43.089844 187.800781 C 43.09375 187.828125 43.09375 187.839844 43.09375 187.855469 C 43.101562 187.871094 43.109375 187.890625 43.121094 187.921875 C 43.175781 188.058594 43.246094 188.199219 43.296875 188.339844 C 43.300781 188.347656 43.300781 188.347656 43.300781 188.355469 C 43.324219 188.394531 43.347656 188.433594 43.375 188.46875 C 43.445312 188.585938 43.523438 188.699219 43.601562 188.8125 C 43.773438 189.054688 43.960938 189.292969 44.148438 189.523438 C 44.796875 190.324219 45.429688 191.148438 45.710938 192.160156 C 45.78125 192.398438 45.828125 192.648438 45.863281 192.898438 C 55.347656 197.65625 64.828125 202.433594 74.324219 207.175781 C 72.066406 202.179688 69.789062 197.191406 67.585938 192.167969 C 66.007812 188.566406 64.753906 184.855469 63.261719 181.222656 C 61.761719 177.574219 59.773438 174.148438 58.203125 170.527344 C 56.492188 166.566406 54.757812 162.625 53.1875 158.601562 C 51.5625 154.4375 49.878906 150.253906 48.078125 146.15625 C 47.882812 145.710938 47.929688 145.3125 48.117188 144.996094 C 48.476562 141.808594 49.785156 139.136719 51.394531 136.390625 C 52.273438 134.890625 53.078125 133.34375 53.992188 131.859375 C 54.960938 130.285156 56.121094 128.894531 57.335938 127.503906 C 62.503906 121.585938 67.703125 115.703125 72.90625 109.816406 C 75.464844 106.921875 78.089844 104.046875 80.523438 101.046875 C 82.953125 98.050781 85.097656 94.875 87.652344 91.96875 C 90.234375 89.03125 92.742188 86.082031 95.113281 82.96875 C 96.25 81.484375 97.386719 79.988281 98.710938 78.664062 C 99.996094 77.382812 101.390625 76.214844 102.683594 74.933594 C 105.222656 72.414062 107.140625 69.351562 109.804688 66.933594 C 112.570312 64.421875 116.011719 63.132812 119.667969 62.589844 C 123.46875 62.027344 127.320312 62.257812 131.140625 61.917969 C 135.003906 61.570312 138.710938 61.492188 142.578125 61.820312 C 144.476562 61.984375 146.378906 62.015625 148.277344 62.148438 C 150.039062 62.273438 151.785156 62.542969 153.542969 62.71875 C 155.367188 62.90625 157.128906 62.90625 158.953125 62.671875 C 160.707031 62.445312 162.457031 62.109375 164.234375 62.066406 C 166.199219 62.023438 168.183594 62.15625 170.152344 62.203125 C 172.070312 62.246094 174.011719 62.222656 175.917969 62.410156 C 177.679688 62.578125 179.40625 62.957031 181.152344 63.222656 C 182.972656 63.496094 184.800781 63.523438 186.632812 63.648438 C 188.546875 63.777344 190.460938 63.960938 192.375 64.039062 C 194.257812 64.117188 196.121094 63.941406 197.988281 63.757812 C 201.753906 63.394531 205.460938 63.65625 209.230469 63.800781 C 213.003906 63.949219 216.804688 63.757812 220.570312 63.960938 C 221.765625 64.023438 222.882812 65.234375 223.632812 66.113281 C 224.144531 66.714844 224.523438 67.40625 224.738281 68.167969 C 224.988281 69.042969 225.09375 69.953125 225.308594 70.839844 C 225.660156 72.269531 226.226562 73.632812 226.753906 75.003906 C 228.03125 78.308594 229.496094 81.601562 230.5 85 C 231.03125 86.800781 231.453125 88.636719 232.015625 90.433594 C 232.59375 92.269531 233.363281 94.035156 234.160156 95.785156 C 235.78125 99.363281 237.230469 102.96875 238.59375 106.652344 C 239.957031 110.335938 241.527344 113.882812 243.109375 117.476562 C 244.6875 121.0625 245.726562 124.824219 247.101562 128.484375 C 247.277344 128.960938 247.46875 129.429688 247.664062 129.898438 C 248.925781 127.621094 250.214844 125.359375 251.578125 123.132812 C 252.105469 122.273438 252.625 121.40625 253.144531 120.539062 C 252.960938 120.320312 252.839844 120.054688 252.835938 119.789062 C 252.777344 116.457031 253.28125 113.203125 254.269531 110.023438 C 254.496094 109.289062 255.492188 109.007812 256.140625 109.292969 C 256.910156 109.628906 257.101562 110.429688 256.875 111.164062 C 256.386719 112.742188 256.054688 114.375 255.859375 116.027344 C 256.855469 114.378906 257.863281 112.734375 258.90625 111.113281 C 259.898438 109.574219 262.117188 111.351562 261.136719 112.878906 C 260.183594 114.355469 259.269531 115.855469 258.363281 117.359375 C 260.601562 116.902344 262.839844 116.449219 265.078125 115.992188 C 265.832031 115.839844 266.566406 116.550781 266.640625 117.261719 C 266.730469 118.085938 266.128906 118.667969 265.375 118.820312 C 262.378906 119.429688 259.382812 120.042969 256.386719 120.652344 C 255.886719 121.488281 255.382812 122.324219 254.875 123.15625 C 252.875 126.429688 250.886719 129.699219 249.089844 133.089844 C 250.027344 135.105469 250.976562 137.117188 251.707031 139.21875 C 252.949219 142.792969 253.773438 146.433594 255.222656 149.941406 C 256.644531 153.394531 258.035156 156.867188 259.503906 160.300781 C 260.859375 163.460938 262.230469 166.597656 263.300781 169.871094 C 263.714844 171.128906 264.085938 172.398438 264.457031 173.667969 C 264.671875 174.40625 265.023438 175.1875 265.136719 175.949219 C 265.457031 178.101562 263.773438 180.386719 262.695312 182.082031 C 260.835938 185.011719 258.875 187.917969 256.839844 190.726562 C 254.746094 193.617188 252.695312 196.578125 250.527344 199.417969 C 248.277344 202.363281 245.414062 204.707031 242.945312 207.453125 C 240.558594 210.113281 238.925781 213.34375 236.503906 215.980469 C 233.90625 218.808594 230.960938 221.28125 228.484375 224.226562 C 226.101562 227.0625 223.753906 229.878906 221.257812 232.617188 C 218.71875 235.40625 216.167969 238.175781 213.472656 240.816406 C 212.261719 242.003906 211.085938 243.246094 209.886719 244.457031 C 211.9375 247.761719 213.984375 251.070312 216.035156 254.375 C 217.136719 256.140625 218.234375 257.910156 219.335938 259.675781 C 220.308594 261.242188 221.171875 263.179688 222.480469 264.496094 C 223.75 265.773438 224.929688 264.214844 225.867188 263.257812 C 227.125 261.976562 228.339844 260.652344 229.550781 259.324219 C 232.230469 256.390625 234.847656 253.402344 237.535156 250.480469 C 238.941406 248.949219 240.355469 247.417969 241.832031 245.957031 C 242.78125 245.011719 243.730469 244.015625 244.925781 243.382812 C 245.351562 243.15625 245.972656 243.304688 246.324219 243.589844 C 248.390625 245.257812 250.398438 247.222656 251.855469 249.453125 C 252.851562 250.980469 250.578125 252.6875 249.574219 251.15625 C 248.4375 249.414062 246.957031 247.878906 245.371094 246.515625 C 245.28125 246.589844 245.1875 246.664062 245.097656 246.746094 C 244.472656 247.296875 243.886719 247.886719 243.304688 248.480469 C 241.863281 249.960938 240.457031 251.480469 239.066406 253.007812 C 236.199219 256.15625 233.390625 259.355469 230.5 262.484375 C 229.355469 263.726562 228.199219 264.964844 226.976562 266.132812 C 225.6875 267.367188 224.070312 268.359375 222.246094 267.695312 C 220.605469 267.097656 219.640625 265.535156 218.765625 264.128906 C 217.585938 262.230469 216.40625 260.332031 215.222656 258.433594 C 212.742188 254.445312 210.269531 250.449219 207.792969 246.457031 C 207.503906 246.714844 207.226562 246.984375 206.929688 247.234375 C 205.609375 248.351562 204.242188 249.355469 203.007812 250.578125 C 202.867188 250.878906 202.640625 251.132812 202.292969 251.246094 C 198.921875 252.320312 195.484375 253.066406 192.050781 253.910156 C 188.667969 254.746094 185.375 255.746094 181.914062 256.25 C 178.183594 256.792969 174.429688 257.183594 170.699219 257.746094 C 167.101562 258.289062 163.523438 258.703125 159.886719 258.894531 C 154.914062 259.15625 149.953125 259.507812 144.988281 259.847656 C 145.632812 264.253906 146.167969 268.6875 146.753906 273.101562 C 147.390625 277.90625 148.195312 282.6875 148.9375 287.480469 C 149.304688 289.835938 149.757812 292.183594 150.09375 294.542969 C 150.417969 296.808594 150.554688 299.089844 150.734375 301.367188 C 151.117188 306.136719 151.882812 310.90625 152.566406 315.640625 C 152.949219 318.304688 153.414062 320.960938 153.683594 323.640625 C 153.960938 326.367188 154.070312 329.105469 154.363281 331.832031 C 154.441406 332.542969 153.867188 333.382812 153.097656 333.394531 C 148.808594 333.453125 144.625 332.464844 140.929688 330.261719 C 139.375 329.335938 140.496094 326.71875 142.070312 327.65625 C 144.925781 329.359375 148.082031 330.347656 151.378906 330.535156 C 150.960938 326.265625 150.660156 322.015625 150.007812 317.761719 C 149.285156 313.003906 148.546875 308.203125 148.0625 303.414062 C 147.832031 301.152344 147.734375 298.878906 147.488281 296.617188 C 147.234375 294.261719 146.800781 291.933594 146.40625 289.597656 C 145.605469 284.824219 144.816406 280.027344 144.167969 275.226562 C 143.484375 270.167969 142.882812 265.085938 142.144531 260.035156 C 133.507812 260.605469 124.867188 261.058594 116.191406 260.796875 C 112.582031 260.6875 108.976562 260.292969 105.375 260.03125 C 102.898438 259.851562 99.6875 259.96875 97.527344 258.539062 C 96.984375 258.183594 96.863281 257.675781 96.988281 257.214844 C 95.417969 253.851562 94.152344 250.328125 92.320312 247.09375 C 91.335938 245.367188 90.273438 243.683594 89.359375 241.914062 C 88.46875 240.1875 87.765625 238.371094 87.058594 236.5625 C 85.644531 232.953125 83.980469 229.476562 82.351562 225.964844 C 80.625 222.242188 79.296875 218.371094 77.648438 214.617188 C 77.003906 213.148438 76.347656 211.6875 75.691406 210.222656 C 75.339844 210.511719 74.855469 210.621094 74.3125 210.347656 C 64.539062 205.472656 54.785156 200.554688 45.023438 195.652344 C 43.953125 196.675781 42.453125 196.679688 41.046875 196.777344 C 39.464844 196.886719 37.886719 197 36.304688 197.105469 C 35.5625 197.15625 34.789062 196.625 34.742188 195.839844 Z M 211.984375 238.324219 C 214.800781 235.542969 217.433594 232.585938 220.109375 229.671875 C 222.785156 226.753906 225.144531 223.570312 227.832031 220.667969 C 230.507812 217.78125 233.636719 215.308594 235.992188 212.132812 C 237.09375 210.652344 238.066406 209.078125 239.167969 207.59375 C 240.300781 206.0625 241.617188 204.695312 242.972656 203.359375 C 245.714844 200.660156 248.167969 197.949219 250.355469 194.777344 C 252.460938 191.722656 254.769531 188.824219 256.835938 185.742188 C 258.605469 183.105469 260.730469 180.492188 261.996094 177.558594 C 262.144531 177.210938 262.273438 176.878906 262.320312 176.503906 C 262.308594 176.511719 262.296875 176.34375 262.300781 176.285156 C 262.269531 176.214844 262.210938 176.039062 262.195312 175.988281 C 261.832031 174.972656 261.582031 173.90625 261.269531 172.871094 C 260.257812 169.515625 258.996094 166.277344 257.605469 163.066406 C 256.074219 159.535156 254.65625 155.953125 253.167969 152.402344 C 252.40625 150.59375 251.621094 148.78125 251.027344 146.90625 C 250.4375 145.050781 249.988281 143.15625 249.40625 141.304688 C 248.863281 139.578125 248.15625 137.921875 247.414062 136.28125 C 244.125 142.582031 240.796875 148.851562 237.914062 155.351562 C 236.042969 159.570312 233.972656 163.707031 232.191406 167.964844 C 231.484375 169.65625 228.878906 168.511719 229.585938 166.824219 C 231.164062 163.050781 233.003906 159.398438 234.664062 155.664062 C 236.328125 151.925781 237.992188 148.203125 239.886719 144.574219 C 241.894531 140.726562 243.878906 136.871094 245.933594 133.054688 C 245.496094 132.09375 245.074219 131.128906 244.691406 130.148438 C 243.210938 126.371094 242.175781 122.445312 240.550781 118.71875 C 238.921875 114.984375 237.28125 111.300781 235.867188 107.476562 C 234.425781 103.582031 232.835938 99.800781 231.144531 96.011719 C 230.328125 94.179688 229.601562 92.328125 229.046875 90.398438 C 228.515625 88.554688 228.097656 86.675781 227.480469 84.855469 C 226.292969 81.359375 224.816406 77.941406 223.503906 74.488281 C 223.003906 73.171875 222.613281 71.824219 222.332031 70.441406 C 222.167969 69.636719 222.160156 69.085938 221.800781 68.410156 C 221.53125 67.902344 220.835938 67.292969 220.214844 66.792969 C 216.972656 66.828125 213.714844 66.734375 210.472656 66.664062 C 207.050781 66.589844 203.609375 66.179688 200.1875 66.421875 C 196.808594 66.660156 193.5625 66.972656 190.171875 66.75 C 186.761719 66.523438 183.277344 66.464844 179.90625 65.902344 C 173.253906 64.792969 166.339844 64.53125 159.652344 65.445312 C 156.4375 65.886719 153.347656 65.558594 150.144531 65.1875 C 146.695312 64.785156 143.175781 64.671875 139.707031 64.4375 C 136.261719 64.203125 132.890625 64.699219 129.460938 64.898438 C 125.921875 65.101562 122.378906 64.929688 118.878906 65.601562 C 115.570312 66.238281 112.777344 67.796875 110.464844 70.246094 C 108.191406 72.65625 106.328125 75.386719 103.914062 77.667969 C 102.777344 78.742188 101.578125 79.75 100.5 80.878906 C 99.304688 82.132812 98.261719 83.53125 97.214844 84.90625 C 95.027344 87.777344 92.726562 90.507812 90.339844 93.214844 C 88.011719 95.851562 85.945312 98.621094 83.832031 101.425781 C 81.6875 104.277344 79.199219 106.851562 76.878906 109.554688 C 71.6875 115.605469 66.367188 121.5625 61.089844 127.539062 C 59.816406 128.980469 58.46875 130.398438 57.332031 131.953125 C 56.289062 133.378906 55.464844 134.945312 54.597656 136.484375 C 53.15625 139.046875 51.726562 141.382812 51.128906 144.199219 C 54.136719 144.542969 57.121094 145.058594 60.140625 145.300781 C 63.691406 145.582031 67.242188 145.683594 70.765625 146.214844 C 74.070312 146.71875 77.34375 147.234375 80.667969 147.5625 C 84.179688 147.914062 87.675781 148.210938 91.148438 148.839844 C 92.691406 149.121094 94.234375 149.414062 95.792969 149.582031 C 97.601562 149.773438 99.398438 149.632812 101.207031 149.519531 C 104.503906 149.3125 107.75 149.640625 111.039062 149.867188 C 118.222656 150.359375 125.429688 150.613281 132.628906 150.542969 C 135.832031 150.511719 138.96875 151.152344 142.160156 151.160156 C 145.625 151.171875 148.921875 149.917969 152.355469 149.644531 C 155.171875 149.417969 158.851562 150.097656 161.121094 148.019531 C 162.183594 147.046875 162.84375 145.691406 163.507812 144.441406 C 164.246094 143.054688 165.046875 141.722656 165.945312 140.433594 C 167.976562 137.527344 170.109375 134.675781 172.199219 131.8125 C 174.1875 129.089844 176.382812 126.488281 178.085938 123.570312 C 181.496094 117.726562 185.519531 112.082031 190.023438 107.019531 C 195.238281 101.164062 200.28125 95.15625 205.027344 88.914062 C 207.300781 85.925781 209.28125 82.828125 211.289062 79.664062 C 213.382812 76.363281 215.558594 73.136719 217.5625 69.777344 C 218.484375 68.222656 221.101562 69.34375 220.164062 70.914062 C 218.320312 74.011719 216.421875 77.0625 214.414062 80.054688 C 212.535156 82.851562 210.910156 85.804688 208.890625 88.511719 C 204.621094 94.242188 200.097656 99.75 195.457031 105.183594 C 193.175781 107.855469 190.757812 110.382812 188.640625 113.191406 C 186.589844 115.917969 184.375 118.632812 182.558594 121.515625 C 180.769531 124.355469 179.1875 127.21875 177.164062 129.910156 C 174.988281 132.804688 172.933594 135.78125 170.769531 138.683594 C 169.730469 140.078125 168.664062 141.453125 167.695312 142.898438 C 166.773438 144.277344 166.066406 145.761719 165.234375 147.191406 C 164.4375 148.558594 163.519531 149.671875 162.40625 150.511719 C 162.476562 150.609375 162.539062 150.71875 162.589844 150.84375 C 165.113281 157.253906 167.53125 163.769531 170.480469 170.003906 C 172.074219 173.375 173.777344 176.6875 175.34375 180.074219 C 176.898438 183.441406 178.433594 186.824219 180.003906 190.1875 C 181.648438 193.71875 183.15625 197.234375 184.457031 200.910156 C 185.699219 204.410156 187.320312 207.761719 188.816406 211.160156 C 190.257812 214.429688 191.8125 217.652344 193.261719 220.917969 C 194.746094 224.273438 196.066406 227.703125 197.429688 231.105469 C 199.457031 236.152344 202.191406 241.34375 202.96875 246.828125 C 203.6875 246.226562 204.417969 245.636719 205.148438 245.023438 C 207.578125 242.988281 209.726562 240.550781 211.984375 238.324219 Z M 64.621094 177.355469 C 66.371094 180.902344 67.476562 184.691406 69.015625 188.324219 C 72.214844 195.878906 75.71875 203.296875 79.058594 210.789062 C 80.714844 214.507812 82.101562 218.324219 83.707031 222.0625 C 85.265625 225.695312 87.125 229.191406 88.636719 232.839844 C 89.464844 234.839844 90.199219 236.875 91.0625 238.859375 C 91.933594 240.867188 93.042969 242.726562 94.144531 244.609375 C 96.367188 248.417969 97.898438 252.53125 99.789062 256.5 C 100.300781 256.640625 101.023438 256.75 101.488281 256.8125 C 102.921875 257.011719 104.371094 257.113281 105.816406 257.21875 C 108.992188 257.449219 112.164062 257.785156 115.339844 257.9375 C 122.246094 258.273438 129.226562 257.941406 136.128906 257.636719 C 143.207031 257.328125 150.257812 256.601562 157.328125 256.1875 C 160.960938 255.972656 164.558594 255.769531 168.164062 255.25 C 171.761719 254.730469 175.355469 254.230469 178.957031 253.777344 C 182.808594 253.289062 186.464844 252.457031 190.207031 251.472656 C 193.578125 250.582031 196.980469 249.871094 200.320312 248.871094 C 199.980469 243.585938 197.46875 238.582031 195.457031 233.789062 C 194.09375 230.539062 192.839844 227.246094 191.480469 223.992188 C 190.113281 220.710938 188.511719 217.539062 187.082031 214.28125 C 185.535156 210.757812 183.824219 207.277344 182.445312 203.683594 C 181.105469 200.199219 179.910156 196.722656 178.332031 193.324219 C 175.242188 186.664062 172.296875 179.929688 168.984375 173.375 C 165.480469 166.453125 162.78125 159.089844 159.9375 151.878906 C 159.925781 151.847656 159.921875 151.820312 159.914062 151.789062 C 159.40625 151.953125 158.878906 152.09375 158.304688 152.179688 C 156.828125 152.398438 155.328125 152.355469 153.839844 152.410156 C 151.972656 152.472656 150.160156 152.796875 148.332031 153.171875 C 146.804688 153.492188 145.269531 153.832031 143.710938 153.945312 C 141.921875 154.078125 140.125 153.914062 138.347656 153.71875 C 134.875 153.339844 131.453125 153.402344 127.964844 153.367188 C 124.40625 153.328125 120.855469 153.226562 117.304688 153.050781 C 113.726562 152.875 110.15625 152.652344 106.582031 152.382812 C 103.238281 152.128906 99.933594 152.644531 96.59375 152.488281 C 92.742188 152.308594 88.960938 151.242188 85.125 150.855469 C 81.175781 150.457031 77.214844 150.144531 73.296875 149.507812 C 69.292969 148.855469 65.332031 148.484375 61.289062 148.222656 C 58.027344 148.007812 54.808594 147.492188 51.570312 147.105469 C 54.363281 153.648438 56.863281 160.316406 59.703125 166.84375 C 61.253906 170.40625 62.90625 173.875 64.621094 177.355469 Z M 139.699219 194.734375 C 140.265625 194.25 141.277344 194.414062 141.691406 195.023438 C 142.148438 195.695312 142.007812 196.492188 141.402344 197.011719 C 138.851562 199.195312 136.582031 202.039062 135.023438 205.027344 C 134.671875 205.707031 133.890625 206.082031 133.152344 205.757812 C 132.484375 205.464844 132.0625 204.570312 132.421875 203.886719 C 134.242188 200.386719 136.703125 197.300781 139.699219 194.734375 Z M 103.199219 199.816406 C 103.714844 199.222656 104.5625 199.105469 105.199219 199.585938 C 107.941406 201.648438 110.683594 203.71875 113.425781 205.785156 C 114.023438 206.230469 114.152344 207.207031 113.660156 207.78125 C 113.148438 208.375 112.296875 208.492188 111.664062 208.015625 C 108.917969 205.949219 106.179688 203.878906 103.433594 201.816406 C 102.839844 201.367188 102.707031 200.390625 103.199219 199.816406 Z M 125.542969 218.445312 C 124.429688 218.914062 123.222656 218.699219 122.25 218.027344 C 121.214844 217.308594 120.621094 216.035156 120.460938 214.816406 C 120.40625 214.371094 120.617188 213.765625 121.027344 213.527344 C 122.175781 212.859375 123.527344 212.183594 124.902344 212.519531 C 125.613281 212.695312 126.203125 213.046875 126.660156 213.628906 C 126.75 213.738281 126.832031 213.863281 126.90625 213.996094 C 126.949219 214.039062 126.996094 214.082031 127.03125 214.132812 C 127.453125 214.667969 127.585938 215.332031 127.527344 215.996094 C 127.425781 217.113281 126.535156 218.027344 125.542969 218.445312 Z M 121.492188 220.875 C 125.40625 224.035156 132.203125 222.597656 134.4375 218.0625 C 135.246094 216.421875 137.855469 217.554688 137.042969 219.203125 C 134.011719 225.355469 125.113281 227.449219 119.726562 223.109375 C 118.300781 221.957031 120.066406 219.726562 121.492188 220.875 Z M 121.492188 220.875 " fill-opacity="1" fill-rule="nonzero"/></g></g></g></svg>