<svg xmlns="http://www.w3.org/2000/svg" xmlns:xlink="http://www.w3.org/1999/xlink" width="500" zoomAndPan="magnify" viewBox="0 0 375 225" height="300" preserveAspectRatio="xMidYMid meet" version="1.0"><defs><clipPath id="id1"><path d="M 0.207031 215.230469 L 7.988281 215.230469 L 7.988281 225 L 0.207031 225 Z M 0.207031 215.230469 " clip-rule="nonzero"/></clipPath></defs><path fill="rgb(21.179199%, 27.059937%, 30.979919%)" d="M 138.65625 185.007812 C 123.648438 201.503906 76.699219 211.492188 51.960938 206.570312 C 47.273438 205.632812 39.425781 202.992188 35.636719 200.890625 C 31.117188 198.386719 20.070312 189.804688 19.445312 184.265625 C 18.921875 179.648438 26.84375 167.59375 30.773438 163.394531 C 38.140625 155.535156 51.902344 146.785156 57.902344 144.644531 C 100.035156 129.578125 128.578125 155.898438 138.65625 185.007812 M 128.132812 175.703125 C 118.625 157.292969 102.089844 145.464844 79.003906 145.9375 C 53.167969 146.484375 32.488281 166.160156 25.800781 184.195312 C 47.054688 210.941406 99.960938 202.808594 127.863281 185.761719 C 126.558594 181.386719 127.28125 178.492188 128.132812 175.703125 " fill-opacity="1" fill-rule="evenodd"/><path fill="rgb(21.179199%, 27.059937%, 30.979919%)" d="M 371.191406 148.238281 C 364.652344 155.457031 358.925781 164.550781 348.035156 169.105469 C 327.582031 177.671875 278.148438 178.820312 263.738281 164.808594 C 256.480469 157.753906 260.796875 148.828125 267.757812 137.785156 C 274.933594 126.398438 285.890625 116.21875 298.367188 112.117188 C 311.863281 107.679688 328.824219 105.941406 338.261719 111.433594 C 351.007812 118.84375 362.492188 134.011719 371.191406 148.238281 M 327.601562 113.074219 C 320.449219 111.804688 303.042969 114.355469 293.992188 119.171875 C 284.367188 124.285156 264.273438 148.105469 266.191406 157.144531 C 267.496094 163.261719 282.632812 168.6875 291.742188 169.597656 C 304.941406 170.910156 319.921875 169.515625 331.363281 167.128906 C 340.117188 165.304688 348.46875 163.410156 353.773438 159.121094 C 357.773438 155.886719 358.453125 149.316406 362.652344 145.914062 C 353.632812 132.894531 343.132812 115.835938 327.601562 113.074219 " fill-opacity="1" fill-rule="evenodd"/><path fill="rgb(89.7995%, 89.7995%, 89.7995%)" d="M 127.863281 185.761719 C 99.960938 202.808594 47.054688 210.941406 25.800781 184.195312 C 32.488281 166.160156 53.167969 146.484375 79.003906 145.9375 C 102.089844 145.464844 118.625 157.292969 128.132812 175.703125 C 127.28125 178.492188 126.558594 181.386719 127.863281 185.761719 M 66.441406 170.640625 C 67.484375 183.207031 73.898438 188.441406 86.800781 184.804688 C 90.960938 180.503906 94.082031 173.914062 90.285156 166.058594 C 83.382812 164.214844 69.523438 162.617188 66.441406 170.640625 " fill-opacity="1" fill-rule="evenodd"/><path fill="rgb(89.7995%, 89.7995%, 89.7995%)" d="M 362.652344 145.910156 C 358.453125 149.316406 357.773438 155.886719 353.773438 159.121094 C 348.472656 163.410156 340.117188 165.304688 331.367188 167.128906 C 319.921875 169.515625 304.941406 170.910156 291.742188 169.597656 C 282.636719 168.6875 267.496094 163.261719 266.191406 157.144531 C 264.273438 148.105469 284.367188 124.285156 293.996094 119.171875 C 303.042969 114.355469 320.453125 111.800781 327.601562 113.074219 C 343.136719 115.835938 353.632812 132.894531 362.652344 145.910156 M 304.242188 138.527344 C 296.675781 156.410156 322.828125 161.332031 327.476562 147.695312 C 328.5 131.972656 313.730469 130.578125 304.242188 138.527344 " fill-opacity="1" fill-rule="evenodd"/><path fill="rgb(21.179199%, 27.059937%, 30.979919%)" d="M 90.285156 166.058594 C 94.082031 173.914062 90.960938 180.503906 86.800781 184.804688 C 73.898438 188.441406 67.484375 183.207031 66.441406 170.640625 C 69.523438 162.617188 83.382812 164.214844 90.285156 166.058594 M 84.203125 179.742188 C 85.273438 177.371094 86.941406 175.4375 85.640625 171.320312 C 80.628906 170.398438 78.253906 172.410156 73.066406 172.355469 C 73.414062 180.675781 78.910156 180.730469 84.203125 179.742188 " fill-opacity="1" fill-rule="evenodd"/><path fill="rgb(21.179199%, 27.059937%, 30.979919%)" d="M 327.472656 147.695312 C 322.828125 161.332031 296.671875 156.410156 304.242188 138.527344 C 313.726562 130.578125 328.496094 131.972656 327.472656 147.695312 M 309.4375 148.65625 C 312.585938 149.011719 315.027344 150.34375 319.476562 148.929688 C 324.863281 138.835938 306.273438 134.90625 309.4375 148.65625 " fill-opacity="1" fill-rule="evenodd"/><path fill="rgb(21.179199%, 27.059937%, 30.979919%)" d="M 73.066406 172.355469 C 78.253906 172.410156 80.628906 170.398438 85.640625 171.320312 C 86.941406 175.4375 85.273438 177.371094 84.203125 179.742188 C 78.910156 180.730469 73.414062 180.675781 73.066406 172.355469 " fill-opacity="1" fill-rule="evenodd"/><path fill="rgb(21.179199%, 27.059937%, 30.979919%)" d="M 319.476562 148.929688 C 315.027344 150.34375 312.585938 149.011719 309.4375 148.65625 C 306.273438 134.90625 324.863281 138.835938 319.476562 148.929688 " fill-opacity="1" fill-rule="evenodd"/><path fill="rgb(21.179199%, 27.059937%, 30.979919%)" d="M 4.414062 204.792969 C 9.617188 203.425781 10.824219 207.519531 14.113281 208.761719 C 13.554688 209.652344 13.472656 210.914062 13.773438 212.457031 C 11.148438 212.109375 11.667969 214.0625 9.46875 214.027344 C 7.832031 210.882812 4.398438 210.199219 4.414062 204.792969 " fill-opacity="1" fill-rule="evenodd"/><g clip-path="url(#id1)"><path fill="rgb(21.179199%, 27.059937%, 30.979919%)" d="M 1.480469 215.261719 C 3.984375 216.859375 4.875 220.667969 7.898438 221.550781 C 8.128906 225.96875 3.929688 225.585938 1.066406 224.433594 C -0.589844 221.8125 0.484375 218.128906 1.480469 215.261719 " fill-opacity="1" fill-rule="evenodd"/></g><path fill="rgb(21.179199%, 27.059937%, 30.979919%)" d="M 368.390625 171.433594 C 368.617188 172.917969 368.84375 174.398438 369.074219 175.886719 C 367.058594 177.234375 363.171875 179.828125 360.328125 178.140625 C 358.453125 171.378906 363.882812 169.636719 368.390625 171.433594 " fill-opacity="1" fill-rule="evenodd"/><path fill="rgb(21.179199%, 27.059937%, 30.979919%)" d="M 373.585938 181.5625 C 374.796875 185.941406 369.738281 188.796875 366.28125 187.242188 C 364.308594 181.855469 369.925781 180.523438 373.585938 181.5625 " fill-opacity="1" fill-rule="evenodd"/></svg>