<svg xmlns="http://www.w3.org/2000/svg" width="375" viewBox="0 0 375 375" height="375" version="1.0"><defs><clipPath id="a"><path d="M 0 23.058594 L 374.976562 23.058594 L 374.976562 355.867188 L 0 355.867188 Z M 0 23.058594"/></clipPath></defs><g clip-path="url(#a)"><path fill="#36454F" d="M 45.011719 354.683594 C 49.929688 326.828125 50.757812 298.460938 49.519531 270.253906 C 48.269531 241.773438 45.011719 213.4375 41.921875 185.117188 C 38.835938 156.792969 35.890625 128.414062 35.28125 99.914062 C 34.980469 85.765625 35.261719 71.597656 36.398438 57.488281 C 36.679688 54.015625 37.015625 50.546875 37.398438 47.085938 C 37.746094 43.972656 37.945312 40.730469 38.753906 37.695312 C 39.113281 36.363281 39.632812 35.042969 40.496094 33.945312 C 40.871094 33.46875 41.308594 33.046875 41.796875 32.6875 C 42.089844 32.472656 42.386719 32.285156 42.710938 32.121094 C 44.761719 31.050781 41.285156 32.683594 41.101562 32.421875 C 41.21875 32.589844 44.796875 32.214844 45.253906 32.222656 C 47.289062 32.246094 49.320312 32.292969 51.355469 32.328125 C 81.949219 32.871094 112.546875 33.410156 143.140625 33.953125 C 173.617188 34.492188 204.089844 35.03125 234.566406 35.570312 C 249.867188 35.84375 265.164062 36.113281 280.460938 36.382812 C 288.113281 36.519531 295.761719 36.652344 303.414062 36.789062 C 307.0625 36.851562 310.734375 36.832031 314.378906 37.007812 C 317.1875 37.148438 320.136719 37.515625 322.578125 39.011719 C 328.066406 42.371094 327.933594 50.0625 328.507812 55.703125 C 329.277344 63.269531 330.007812 70.84375 330.699219 78.414062 C 332.085938 93.5625 333.3125 108.726562 334.378906 123.898438 C 336.511719 154.25 338.019531 184.644531 338.898438 215.054688 C 339.773438 245.347656 340.023438 275.65625 339.648438 305.957031 C 339.554688 313.441406 339.421875 320.925781 339.253906 328.410156 C 340.726562 328.011719 342.199219 327.621094 343.671875 327.222656 C 298.734375 329.488281 253.800781 331.746094 208.867188 334.011719 C 164.171875 336.257812 119.480469 338.507812 74.785156 340.757812 C 69.371094 341.03125 63.949219 341.367188 58.53125 341.5625 C 53.972656 341.726562 49.222656 341.671875 44.925781 339.945312 C 36.820312 336.683594 33.589844 328.0625 31.339844 320.292969 C 25.445312 299.9375 20.667969 279.21875 16.738281 258.394531 C 8.832031 216.511719 4.714844 173.914062 4.433594 131.285156 C 4.289062 109.976562 5.109375 88.65625 6.894531 67.421875 C 7.34375 62.113281 7.847656 56.804688 8.417969 51.507812 C 8.640625 49.457031 8.796875 47.203125 9.925781 45.410156 C 10.542969 44.4375 11.332031 43.949219 12.242188 43.308594 C 13.089844 42.714844 13.605469 43.699219 10.820312 43.582031 C 11.492188 43.613281 12.269531 43.394531 12.949219 43.335938 C 24.03125 42.402344 35.136719 41.738281 46.226562 40.9375 C 90.867188 37.71875 135.507812 34.5 180.144531 31.28125 C 202.46875 29.667969 224.789062 28.058594 247.109375 26.449219 C 252.6875 26.046875 258.265625 25.644531 263.851562 25.242188 C 269 24.871094 274.191406 24.285156 279.359375 24.257812 C 283.746094 24.234375 288.34375 24.859375 291.902344 27.644531 C 294.992188 30.066406 296.699219 33.703125 297.589844 37.445312 C 298.53125 41.398438 298.652344 45.507812 298.664062 49.554688 C 298.675781 55.152344 298.671875 60.753906 298.675781 66.355469 C 298.691406 77.558594 298.703125 88.757812 298.714844 99.957031 C 298.734375 122.484375 298.761719 145.007812 298.785156 167.53125 C 298.828125 212.460938 298.875 257.386719 298.921875 302.316406 C 298.9375 313.476562 299.011719 324.640625 298.953125 335.804688 C 298.9375 340.027344 298.472656 344.402344 294.976562 347.238281 C 294.417969 347.695312 293.808594 348.085938 293.164062 348.425781 C 292.777344 348.632812 292.367188 348.789062 291.964844 348.976562 C 290.128906 349.859375 295.804688 348.25 292.855469 348.765625 C 290.9375 349.101562 288.980469 349.171875 287.035156 349.117188 C 282.566406 349.003906 278.121094 348.179688 273.691406 347.609375 C 268.292969 346.917969 262.886719 346.292969 257.472656 345.742188 C 246.640625 344.632812 235.78125 343.816406 224.914062 343.277344 C 181.421875 341.128906 137.710938 343.503906 94.710938 350.394531 C 89.5625 351.222656 84.4375 352.285156 79.261719 352.972656 C 74.644531 353.582031 69.695312 353.734375 65.410156 351.625 C 57.949219 347.945312 55.429688 339.089844 53.707031 331.613281 C 48.832031 310.523438 44.851562 289.214844 41.542969 267.828125 C 34.917969 224.910156 31.300781 181.53125 30.726562 138.113281 C 30.441406 116.402344 30.917969 94.683594 32.15625 73.007812 C 32.453125 67.867188 32.519531 62.613281 33.285156 57.515625 C 33.933594 53.191406 35.765625 49.347656 39.757812 47.242188 C 40.207031 47.003906 40.671875 46.835938 41.121094 46.609375 C 42.921875 45.722656 38.210938 47.128906 40.230469 46.773438 C 41.25 46.59375 42.261719 46.433594 43.289062 46.328125 C 45.523438 46.105469 47.773438 46.089844 50.019531 46.0625 C 55.59375 46.003906 61.167969 45.953125 66.742188 45.921875 C 111.339844 45.671875 155.941406 46.417969 200.503906 48.160156 C 222.910156 49.035156 245.300781 50.164062 267.675781 51.539062 C 278.925781 52.238281 290.171875 52.992188 301.414062 53.8125 C 306.96875 54.21875 312.53125 54.640625 318.089844 55.078125 C 323.253906 55.484375 328.539062 55.640625 333.65625 56.492188 C 338.003906 57.222656 341.949219 58.933594 344.773438 62.410156 C 347.324219 65.546875 348.738281 69.464844 349.75 73.332031 C 352.371094 83.296875 353.882812 93.664062 355.640625 103.804688 C 359.378906 125.363281 362.417969 147.046875 364.757812 168.804688 C 369.429688 212.324219 371.285156 256.140625 370.304688 299.894531 C 370.066406 310.507812 370.027344 321.265625 369.03125 331.839844 C 368.628906 336.078125 367.621094 340.472656 364.402344 343.488281 C 363.023438 344.78125 361.359375 345.730469 359.597656 346.390625 C 356.332031 347.613281 363.414062 345.667969 359.914062 346.296875 C 359.472656 346.371094 359.023438 346.4375 358.574219 346.5 C 357.40625 346.660156 356.222656 346.761719 355.039062 346.828125 C 344.328125 347.433594 333.511719 347.183594 322.785156 347.332031 C 311.589844 347.484375 300.394531 347.632812 289.195312 347.78125 C 244.421875 348.390625 199.640625 348.992188 154.863281 349.597656 C 133.203125 349.890625 111.542969 350.179688 89.886719 350.476562 C 88.398438 350.492188 86.933594 351.636719 85.46875 351.660156 C 131.21875 351.042969 176.972656 350.421875 222.726562 349.804688 C 245.601562 349.496094 268.480469 349.191406 291.351562 348.878906 C 302.546875 348.730469 313.746094 348.578125 324.9375 348.425781 C 330.777344 348.34375 336.621094 348.269531 342.460938 348.1875 C 346.980469 348.125 351.570312 348.25 356.03125 347.375 C 359.445312 346.710938 363.296875 345.859375 366.34375 344.117188 C 370.121094 341.960938 372.152344 338.234375 372.972656 334.058594 C 373.9375 329.164062 373.847656 324.003906 374.058594 319.035156 C 374.296875 313.449219 374.492188 307.863281 374.632812 302.277344 C 375.214844 279.925781 375.050781 257.554688 374.15625 235.214844 C 372.367188 190.769531 367.65625 146.441406 360.054688 102.621094 C 359.101562 97.109375 358.101562 91.613281 357.050781 86.121094 C 356.132812 81.289062 355.324219 76.382812 354.03125 71.628906 C 352.976562 67.777344 351.503906 63.894531 348.863281 60.835938 C 345.765625 57.242188 341.457031 55.753906 336.875 55.132812 C 331.636719 54.425781 326.316406 54.1875 321.050781 53.777344 C 315.253906 53.328125 309.457031 52.890625 303.652344 52.46875 C 292.53125 51.671875 281.40625 50.929688 270.277344 50.246094 C 224.796875 47.472656 179.25 45.734375 133.6875 45.039062 C 110.90625 44.695312 88.121094 44.605469 65.34375 44.773438 C 60.179688 44.816406 54.988281 44.71875 49.832031 44.988281 C 46.074219 45.1875 42.542969 46.03125 38.9375 47.058594 C 35.035156 48.167969 31.710938 50.265625 30.074219 54.125 C 28.191406 58.558594 28.382812 63.816406 28.082031 68.539062 C 25.277344 112.816406 25.664062 157.296875 29.214844 201.519531 C 32.75 245.496094 39.351562 289.277344 49.171875 332.285156 C 50.914062 339.910156 53.367188 349.046875 60.992188 352.808594 C 65.28125 354.917969 70.226562 354.765625 74.847656 354.15625 C 80.253906 353.441406 85.613281 352.324219 90.996094 351.46875 C 112.847656 347.992188 134.882812 345.679688 156.980469 344.535156 C 179.078125 343.394531 201.234375 343.414062 223.332031 344.609375 C 234.4375 345.207031 245.527344 346.105469 256.585938 347.296875 C 262.113281 347.890625 267.636719 348.558594 273.148438 349.300781 C 277.277344 349.859375 281.394531 350.507812 285.574219 350.265625 C 288.921875 350.074219 292.292969 349.191406 295.464844 348.132812 C 299.042969 346.9375 301.785156 344.429688 302.789062 340.722656 C 303.378906 338.539062 303.367188 336.246094 303.371094 334.007812 C 303.378906 331.082031 303.367188 328.160156 303.363281 325.238281 C 303.355469 319.394531 303.351562 313.550781 303.347656 307.707031 C 303.324219 285.0625 303.296875 262.414062 303.273438 239.769531 C 303.230469 193.984375 303.179688 148.207031 303.136719 102.429688 C 303.121094 90.984375 303.109375 79.535156 303.097656 68.09375 C 303.089844 62.492188 303.085938 56.890625 303.082031 51.289062 C 303.078125 46.964844 303.140625 42.605469 302.417969 38.316406 C 301.753906 34.355469 300.375 30.34375 297.453125 27.464844 C 294.28125 24.335938 289.882812 23.273438 285.554688 23.097656 C 280.292969 22.894531 274.960938 23.578125 269.71875 23.953125 C 264.140625 24.359375 258.5625 24.757812 252.980469 25.160156 C 207.492188 28.445312 162.003906 31.722656 116.511719 35.003906 C 93.828125 36.636719 71.144531 38.277344 48.457031 39.910156 C 42.636719 40.332031 36.8125 40.75 30.992188 41.171875 C 25.789062 41.546875 20.386719 41.542969 15.238281 42.398438 C 13.585938 42.675781 11.964844 43.175781 10.355469 43.617188 C 8.535156 44.117188 6.796875 44.738281 5.667969 46.363281 C 4.402344 48.195312 4.234375 50.539062 4.003906 52.691406 C 3.703125 55.457031 3.429688 58.222656 3.164062 60.992188 C -0.9375 104.117188 -1.039062 147.617188 2.796875 190.765625 C 6.65625 234.148438 14.492188 277.175781 26.253906 319.109375 C 28.460938 326.996094 31.085938 336.285156 38.90625 340.390625 C 43 342.539062 47.746094 342.871094 52.292969 342.800781 C 57.589844 342.714844 62.890625 342.316406 68.183594 342.054688 C 91.019531 340.902344 113.847656 339.753906 136.683594 338.605469 C 182.347656 336.304688 228.011719 334.007812 273.675781 331.710938 C 295.535156 330.609375 317.390625 329.507812 339.253906 328.410156 C 339.699219 328.386719 343.667969 327.417969 343.671875 327.222656 C 344.363281 296.445312 344.417969 265.652344 343.824219 234.871094 C 343.226562 204.09375 341.988281 173.324219 340.101562 142.59375 C 338.226562 111.984375 335.71875 81.417969 332.558594 50.914062 C 331.9375 44.960938 330.835938 38.605469 324.292969 36.644531 C 321.328125 35.75 318.171875 35.789062 315.109375 35.738281 C 311.226562 35.664062 307.339844 35.597656 303.457031 35.527344 C 288.035156 35.253906 272.617188 34.980469 257.195312 34.710938 C 226.238281 34.160156 195.273438 33.617188 164.316406 33.066406 C 133.351562 32.515625 102.390625 31.972656 71.433594 31.421875 C 63.90625 31.289062 56.367188 31.019531 48.835938 31.03125 C 46.136719 31.03125 43.714844 31.617188 41.128906 32.332031 C 38.621094 33.019531 36.507812 33.992188 35.253906 36.425781 C 33.875 39.097656 33.691406 42.308594 33.335938 45.246094 C 32.902344 48.820312 32.527344 52.398438 32.210938 55.984375 C 31.578125 63.144531 31.167969 70.324219 30.949219 77.503906 C 30.074219 106.15625 32.214844 134.796875 35.078125 163.289062 C 37.960938 192.035156 41.605469 220.703125 43.78125 249.519531 C 45.925781 278.019531 46.613281 306.734375 43.535156 335.195312 C 42.785156 342.117188 41.808594 349.011719 40.59375 355.867188 C 40.699219 355.257812 44.890625 355.347656 45.011719 354.683594"/></g></svg>