<svg xmlns="http://www.w3.org/2000/svg" xmlns:xlink="http://www.w3.org/1999/xlink" width="500" zoomAndPan="magnify" viewBox="0 0 375 225" height="300" preserveAspectRatio="xMidYMid meet" version="1.0"><defs><clipPath id="id1"><path d="M 0.128906 22.5 L 175.007812 22.5 L 175.007812 190.210938 L 0.128906 190.210938 Z M 0.128906 22.5 " clip-rule="nonzero"/></clipPath><clipPath id="id2"><path d="M 199.878906 22.5 L 374.871094 22.5 L 374.871094 190.210938 L 199.878906 190.210938 Z M 199.878906 22.5 " clip-rule="nonzero"/></clipPath></defs><g clip-path="url(#id1)"><path fill="rgb(21.179199%, 27.059937%, 30.979919%)" d="M 96.832031 22.597656 C 131.691406 22.082031 167.679688 52.964844 173.832031 90.773438 C 187.003906 171.808594 86.253906 210.140625 32.074219 179.925781 C -21.941406 149.800781 -1.617188 44.5625 49.578125 26.089844 C 63.296875 21.140625 80.503906 22.832031 96.832031 22.597656 M 117.824219 31.335938 C 61.359375 22.503906 21.355469 40.523438 11.078125 89.023438 C 67.253906 94.882812 113.914062 86.148438 163.328125 92.519531 C 157.570312 62.722656 137.382812 47.347656 117.824219 31.335938 M 9.335938 99.511719 L 9.335938 125.734375 C 25.425781 125.707031 37.675781 130.601562 49.578125 127.484375 C 46.613281 120.847656 44.550781 108.910156 47.824219 101.257812 C 36.210938 98.460938 21.734375 96.683594 9.335938 99.511719 M 56.582031 101.257812 C 52.125 112.945312 56.875 123.648438 61.828125 130.976562 C 85.792969 128.695312 92.9375 132.378906 114.332031 127.484375 C 114.140625 117.765625 115.71875 106.277344 110.835938 101.257812 C 91.886719 101.351562 74.316406 97.394531 56.582031 101.257812 M 123.078125 129.230469 C 134.269531 132.480469 145.863281 126.152344 159.828125 130.976562 C 162.019531 122.085938 165.53125 114.535156 165.074219 103.007812 C 152.886719 106.085938 142.972656 96.082031 121.332031 99.511719 C 123.921875 110.039062 125.421875 117.449219 123.078125 129.230469 M 151.082031 141.46875 C 102.25 136.027344 72.664062 142.265625 12.828125 134.476562 C 17.339844 203.253906 138.917969 186.15625 151.082031 141.46875 " fill-opacity="1" fill-rule="evenodd"/></g><path fill="rgb(89.7995%, 89.7995%, 89.7995%)" d="M 163.328125 92.519531 C 113.914062 86.148438 67.253906 94.882812 11.078125 89.023438 C 21.355469 40.523438 61.359375 22.503906 117.824219 31.332031 C 137.382812 47.347656 157.570312 62.71875 163.328125 92.519531 " fill-opacity="1" fill-rule="evenodd"/><path fill="rgb(89.7995%, 89.7995%, 89.7995%)" d="M 47.828125 101.257812 C 44.550781 108.910156 46.617188 120.847656 49.578125 127.484375 C 37.675781 130.601562 25.425781 125.707031 9.335938 125.734375 L 9.335938 99.511719 C 21.734375 96.683594 36.210938 98.460938 47.828125 101.257812 " fill-opacity="1" fill-rule="evenodd"/><path fill="rgb(21.179199%, 27.059937%, 30.979919%)" d="M 110.835938 101.257812 C 115.71875 106.277344 114.140625 117.765625 114.332031 127.484375 C 92.9375 132.378906 85.792969 128.695312 61.828125 130.976562 C 56.875 123.644531 52.128906 112.945312 56.582031 101.257812 C 74.316406 97.394531 91.886719 101.351562 110.835938 101.257812 " fill-opacity="1" fill-rule="evenodd"/><path fill="rgb(89.7995%, 89.7995%, 89.7995%)" d="M 121.332031 99.511719 C 142.972656 96.082031 152.886719 106.085938 165.074219 103.003906 C 165.53125 114.53125 162.019531 122.085938 159.828125 130.976562 C 145.863281 126.152344 134.269531 132.480469 123.078125 129.230469 C 125.425781 117.449219 123.921875 110.039062 121.332031 99.511719 " fill-opacity="1" fill-rule="evenodd"/><path fill="rgb(89.7995%, 89.7995%, 89.7995%)" d="M 12.828125 134.476562 C 72.664062 142.265625 102.25 136.027344 151.082031 141.46875 C 138.917969 186.15625 17.339844 203.253906 12.828125 134.476562 " fill-opacity="1" fill-rule="evenodd"/><g clip-path="url(#id2)"><path fill="rgb(21.179199%, 27.059937%, 30.979919%)" d="M 296.695312 22.597656 C 331.554688 22.082031 367.546875 52.964844 373.695312 90.773438 C 386.871094 171.808594 286.121094 210.140625 231.9375 179.925781 C 177.921875 149.800781 198.246094 44.558594 249.445312 26.089844 C 263.164062 21.140625 280.367188 22.832031 296.695312 22.597656 M 317.6875 31.332031 C 261.226562 22.503906 221.21875 40.523438 210.941406 89.023438 C 267.117188 94.882812 313.78125 86.148438 363.195312 92.519531 C 357.433594 62.722656 337.246094 47.347656 317.6875 31.332031 M 209.199219 99.511719 L 209.199219 125.734375 C 225.289062 125.707031 237.539062 130.601562 249.445312 127.484375 C 246.476562 120.84375 244.414062 108.910156 247.6875 101.257812 C 236.074219 98.460938 221.597656 96.683594 209.199219 99.511719 M 256.445312 101.257812 C 251.992188 112.945312 256.738281 123.644531 261.691406 130.976562 C 285.65625 128.695312 292.800781 132.378906 314.195312 127.484375 C 314.003906 117.765625 315.582031 106.277344 310.703125 101.257812 C 291.75 101.351562 274.179688 97.394531 256.445312 101.257812 M 322.941406 129.230469 C 334.132812 132.480469 345.726562 126.152344 359.691406 130.976562 C 361.882812 122.085938 365.394531 114.53125 364.9375 103.003906 C 352.75 106.085938 342.839844 96.082031 321.195312 99.511719 C 323.785156 110.039062 325.285156 117.445312 322.941406 129.230469 M 350.945312 141.46875 C 302.113281 136.027344 272.527344 142.265625 212.695312 134.476562 C 217.203125 203.253906 338.78125 186.15625 350.945312 141.46875 " fill-opacity="1" fill-rule="evenodd"/></g><path fill="rgb(89.7995%, 89.7995%, 89.7995%)" d="M 363.195312 92.519531 C 313.777344 86.148438 267.117188 94.882812 210.941406 89.023438 C 221.214844 40.523438 261.226562 22.503906 317.6875 31.332031 C 337.246094 47.347656 357.433594 62.722656 363.195312 92.519531 " fill-opacity="1" fill-rule="evenodd"/><path fill="rgb(89.7995%, 89.7995%, 89.7995%)" d="M 247.691406 101.257812 C 244.414062 108.910156 246.476562 120.847656 249.441406 127.484375 C 237.539062 130.601562 225.289062 125.707031 209.199219 125.734375 L 209.199219 99.511719 C 221.597656 96.683594 236.074219 98.460938 247.691406 101.257812 " fill-opacity="1" fill-rule="evenodd"/><path fill="rgb(21.179199%, 27.059937%, 30.979919%)" d="M 310.703125 101.257812 C 315.582031 106.277344 314.003906 117.765625 314.195312 127.484375 C 292.800781 132.378906 285.65625 128.695312 261.691406 130.976562 C 256.738281 123.644531 251.992188 112.945312 256.449219 101.257812 C 274.183594 97.394531 291.753906 101.347656 310.703125 101.257812 " fill-opacity="1" fill-rule="evenodd"/><path fill="rgb(89.7995%, 89.7995%, 89.7995%)" d="M 321.199219 99.511719 C 342.839844 96.082031 352.753906 106.085938 364.9375 103.003906 C 365.394531 114.53125 361.882812 122.085938 359.691406 130.976562 C 345.726562 126.152344 334.132812 132.480469 322.941406 129.230469 C 325.289062 117.445312 323.785156 110.039062 321.199219 99.511719 " fill-opacity="1" fill-rule="evenodd"/><path fill="rgb(89.7995%, 89.7995%, 89.7995%)" d="M 212.691406 134.476562 C 272.523438 142.265625 302.113281 136.027344 350.945312 141.46875 C 338.78125 186.15625 217.203125 203.253906 212.691406 134.476562 " fill-opacity="1" fill-rule="evenodd"/></svg>