<svg xmlns="http://www.w3.org/2000/svg" width="375" viewBox="0 0 375 375" height="375" version="1.0"><defs><clipPath id="a"><path d="M 47.605469 0 L 316.855469 0 L 316.855469 374 L 47.605469 374 Z M 47.605469 0"/></clipPath></defs><g clip-path="url(#a)" fill="#97EAFF"><path d="M 152.273438 138.085938 C 151.84375 131.558594 154.382812 124.96875 155.84375 118.1875 C 155.953125 117.679688 156.171875 117.160156 156.46875 116.726562 C 157.398438 115.363281 158.730469 115.324219 159.511719 116.78125 C 161.40625 120.316406 163.457031 123.707031 163.476562 128.050781 C 163.503906 133.28125 163.773438 138.527344 164.277344 143.753906 C 164.710938 148.21875 166.597656 151.960938 169.378906 155.316406 C 172.242188 158.773438 175.933594 159.1875 179.597656 156.488281 C 183.582031 153.546875 186.199219 149.535156 188.207031 145.085938 C 189.132812 143.039062 190.015625 140.972656 190.953125 138.933594 C 191.308594 138.15625 191.734375 137.40625 192.457031 136.886719 C 192.824219 136.621094 193.445312 136.414062 193.585938 136.789062 C 194.121094 138.222656 195.859375 138.378906 196.476562 139.671875 C 197.054688 140.886719 197.070312 142.171875 196.804688 143.445312 C 196.457031 145.117188 196.15625 146.820312 195.589844 148.421875 C 193.589844 154.101562 191 159.566406 187.464844 164.398438 C 183.800781 169.40625 178.714844 172.570312 172.261719 172.722656 C 167.472656 172.832031 163.542969 170.839844 160.496094 167.160156 C 159.75 166.257812 159.082031 165.269531 158.527344 164.238281 C 155.695312 158.984375 151.304688 146.757812 152.273438 138.085938 Z M 152.121094 248.125 C 150.636719 251.570312 148.992188 254.9375 146.875 258.046875 C 145.285156 260.386719 143.339844 262.316406 140.65625 263.429688 C 136.777344 265.039062 133.804688 264.136719 131.609375 260.515625 C 131.003906 259.515625 130.527344 258.421875 130.09375 257.332031 C 128.371094 253.042969 127.148438 248.628906 126.433594 244.046875 C 125.605469 238.761719 124.566406 233.503906 123.574219 228.246094 C 123.214844 226.339844 122.640625 224.484375 121.207031 223.0625 C 119.738281 221.597656 118.195312 221.515625 116.675781 222.910156 C 115.980469 223.554688 115.398438 224.355469 114.886719 225.164062 C 112.542969 228.859375 111.9375 232.929688 112.53125 237.199219 C 113.359375 243.140625 114.335938 249.058594 115.71875 254.898438 C 116.410156 257.816406 117.164062 260.726562 118.367188 263.484375 C 121.007812 269.542969 125.117188 274.128906 131.558594 276.25 C 139.058594 278.722656 145.054688 276.664062 149.460938 270.160156 C 150.058594 269.277344 150.660156 268.371094 151.097656 267.402344 C 154.5625 259.699219 156.40625 251.632812 156.597656 242.644531 C 153.289062 245.390625 153.296875 245.394531 152.121094 248.125 Z M 192.121094 348.796875 C 193.191406 353.1875 194.824219 357.359375 197.023438 361.320312 C 199.90625 366.519531 204.339844 370.003906 209.667969 372.238281 C 215.367188 374.628906 220.78125 374.101562 225.273438 369.324219 C 226.738281 367.765625 228.183594 366.183594 229.679688 364.652344 C 232.535156 361.71875 234.242188 358.171875 234.957031 354.199219 C 235.5625 350.832031 235.929688 347.421875 236.3125 344.019531 C 236.480469 342.523438 236.566406 340.636719 234.890625 340.148438 C 233.1875 339.65625 232.34375 341.300781 231.710938 342.699219 C 230.5625 345.230469 229.429688 347.773438 228.296875 350.316406 C 226.84375 353.570312 224.898438 356.523438 222.554688 359.179688 C 218.738281 363.5 213.960938 363.421875 210.164062 359.035156 C 208.472656 357.082031 207.207031 354.839844 206.175781 352.472656 C 204.804688 349.320312 203.738281 346.070312 202.945312 342.726562 C 201.835938 338.035156 201.039062 333.285156 200.449219 328.5 C 200.027344 325.085938 199.304688 321.734375 198.035156 318.539062 C 197.027344 316.007812 195.398438 315.867188 193.863281 318.117188 C 192.644531 319.898438 191.882812 321.910156 191.351562 323.996094 C 190.523438 327.226562 190.105469 330.511719 190.164062 334.207031 C 190.441406 338.882812 190.925781 343.886719 192.121094 348.796875 Z M 48.074219 107.804688 C 49.113281 116.355469 52.15625 123.949219 58.777344 129.8125 C 61.640625 132.351562 64.902344 133.523438 68.734375 133.570312 C 73.847656 133.632812 77.644531 130.957031 81.378906 128.011719 C 83.023438 126.710938 84.242188 125.109375 84.859375 123.109375 C 86.652344 117.324219 87.59375 111.441406 86.683594 105.375 C 86.574219 104.644531 86.464844 103.875 86.152344 103.21875 C 85.671875 102.210938 84.804688 102.101562 84.125 102.964844 C 83.539062 103.703125 83.070312 104.59375 82.78125 105.492188 C 81.996094 107.9375 81.34375 110.425781 80.613281 112.886719 C 80.34375 113.800781 80.265625 114.804688 79.601562 115.566406 C 77.769531 117.65625 75.917969 119.730469 74.082031 121.820312 C 72.871094 123.203125 71.382812 123.441406 69.703125 122.910156 C 66.359375 121.859375 63.933594 119.722656 62.375 116.601562 C 60.25 112.34375 58.964844 107.835938 58.363281 103.117188 C 57.78125 98.550781 57.242188 93.976562 56.5 89.4375 C 55.996094 86.367188 54.445312 84.847656 52.375 84.882812 C 50.316406 84.917969 48.941406 86.441406 48.324219 89.550781 C 47.660156 92.929688 47.636719 96.359375 47.605469 100.492188 C 47.726562 102.464844 47.753906 105.152344 48.074219 107.804688 Z M 316.109375 109.867188 C 315.644531 110.9375 315.175781 112 314.722656 113.070312 C 313.628906 115.636719 312.410156 118.148438 310.796875 120.421875 C 307.472656 125.109375 300 126.480469 296.308594 122.832031 C 291.941406 118.507812 288.121094 113.742188 287.734375 107.15625 C 287.621094 105.238281 287.3125 103.328125 287.199219 101.40625 C 287.003906 98.085938 286.558594 94.804688 285.984375 91.53125 C 285.613281 89.402344 284.875 87.390625 283.800781 85.523438 C 282.796875 83.78125 281.820312 83.769531 280.761719 85.519531 C 279.414062 87.742188 278.664062 90.222656 278.265625 92.769531 C 276.777344 102.34375 277.476562 111.761719 280.445312 121 C 281.652344 124.757812 283.816406 127.917969 286.628906 130.632812 C 293.125 136.894531 307.167969 138.621094 314.257812 126.667969 C 315.515625 124.550781 316.757812 122.265625 316.765625 119.789062 C 316.773438 116.519531 316.460938 113.242188 316.898438 109.953125 C 316.636719 109.925781 316.371094 109.898438 316.109375 109.867188 Z M 140.714844 25.257812 C 139.113281 29.941406 137.117188 34.394531 134.003906 38.316406 C 130.679688 42.507812 127.5625 43.3125 122.785156 40.929688 C 121.734375 40.410156 120.738281 39.757812 119.792969 39.0625 C 116.203125 36.417969 114.101562 32.703125 112.648438 28.613281 C 111.320312 24.882812 110.324219 21.03125 108.929688 17.324219 C 107.363281 13.152344 106.625 8.875 106.550781 4.449219 C 106.539062 3.703125 106.515625 2.941406 106.378906 2.210938 C 106.175781 1.136719 105.414062 0.558594 104.359375 0.453125 C 103.40625 0.355469 102.652344 0.855469 102.292969 1.6875 C 101.914062 2.558594 101.722656 3.519531 101.496094 4.449219 C 100.492188 8.558594 100.769531 12.738281 100.746094 16.914062 C 100.710938 23.292969 101.679688 29.507812 103.3125 35.632812 C 104.316406 39.386719 105.871094 42.898438 108.402344 45.921875 C 110.921875 48.933594 114.105469 50.761719 118 51.214844 C 121.214844 51.589844 124.390625 51.3125 127.5625 50.582031 C 133.753906 49.160156 137.285156 44.921875 139.292969 39.320312 C 140.765625 35.207031 141.726562 30.902344 142.855469 26.667969 C 143.308594 24.960938 143.511719 23.207031 142.96875 21.171875 C 141.390625 22.371094 141.175781 23.90625 140.714844 25.257812 Z M 279.507812 258.371094 C 281.726562 254.617188 282.757812 250.253906 283.609375 245.9375 C 283.835938 244.769531 283.789062 243.585938 283.382812 242.453125 C 283.113281 241.699219 281.117188 240.773438 280.210938 240.976562 C 279.101562 241.226562 279.527344 242.152344 279.476562 242.816406 C 279.363281 244.316406 279.28125 245.804688 278.519531 247.160156 C 277.261719 249.398438 276.042969 251.65625 274.785156 253.894531 C 273.582031 256.042969 271.667969 257.097656 269.261719 257.183594 C 266.175781 257.292969 264.035156 255.691406 262.386719 253.210938 C 257.351562 245.644531 253.65625 237.535156 252.285156 228.472656 C 251.925781 226.121094 250.632812 224.082031 250.058594 221.796875 C 249.84375 220.9375 249.179688 220.285156 248.21875 220.234375 C 247.347656 220.191406 246.921875 220.796875 246.636719 221.5625 C 245.261719 225.28125 244.042969 229.007812 243.941406 233.050781 C 243.734375 241.132812 245.546875 248.75 248.832031 256.074219 C 251.613281 262.28125 257.113281 265.019531 263.042969 267.183594 C 263.820312 267.46875 264.730469 267.390625 266.15625 267.542969 C 271.773438 266.789062 276.457031 263.539062 279.507812 258.371094 Z M 227.40625 44.390625 C 226.199219 47.71875 224.898438 51 222.773438 53.863281 C 218.585938 59.5 214.914062 59.703125 210.292969 54.402344 C 206.527344 50.078125 203.746094 45.171875 202.226562 39.585938 C 201.019531 35.148438 199.734375 30.730469 198.46875 26.308594 C 198.265625 25.589844 198.039062 24.875 197.757812 24.183594 C 197.507812 23.566406 197.085938 23.054688 196.355469 23.046875 C 195.605469 23.039062 195.199219 23.585938 194.960938 24.1875 C 194.246094 25.992188 193.871094 27.871094 193.746094 29.808594 C 193.421875 34.664062 194.066406 39.453125 195.171875 44.132812 C 196.46875 49.613281 197.070312 55.285156 199.996094 60.347656 C 204.164062 67.5625 211.285156 70.046875 218.695312 66.535156 C 219.082031 66.351562 219.476562 66.183594 219.859375 65.996094 C 224.113281 63.894531 227.035156 60.59375 228.382812 56.0625 C 229.859375 51.09375 229.902344 45.941406 229.953125 40.808594 C 229.957031 40.660156 229.734375 40.511719 229.492188 40.207031 C 228.230469 41.351562 227.929688 42.941406 227.40625 44.390625 Z M 227.40625 44.390625"/><path d="M 152.273438 138.085938 C 151.84375 131.558594 154.382812 124.96875 155.84375 118.1875 C 155.953125 117.679688 156.171875 117.160156 156.46875 116.726562 C 157.398438 115.363281 158.730469 115.324219 159.511719 116.78125 C 161.40625 120.316406 163.457031 123.707031 163.476562 128.050781 C 163.503906 133.28125 163.773438 138.527344 164.277344 143.753906 C 164.710938 148.21875 166.597656 151.960938 169.378906 155.316406 C 172.242188 158.773438 175.933594 159.1875 179.597656 156.488281 C 183.582031 153.546875 186.199219 149.535156 188.207031 145.085938 C 189.132812 143.039062 190.015625 140.972656 190.953125 138.933594 C 191.308594 138.15625 191.734375 137.40625 192.457031 136.886719 C 192.824219 136.621094 193.445312 136.414062 193.585938 136.789062 C 194.121094 138.222656 195.859375 138.378906 196.476562 139.671875 C 197.054688 140.886719 197.070312 142.171875 196.804688 143.445312 C 196.457031 145.117188 196.15625 146.820312 195.589844 148.421875 C 193.589844 154.101562 191 159.566406 187.464844 164.398438 C 183.800781 169.40625 178.714844 172.570312 172.261719 172.722656 C 167.472656 172.832031 163.542969 170.839844 160.496094 167.160156 C 159.75 166.257812 159.082031 165.269531 158.527344 164.238281 C 155.695312 158.984375 151.304688 146.757812 152.273438 138.085938 Z M 152.121094 248.125 C 150.636719 251.570312 148.992188 254.9375 146.875 258.046875 C 145.285156 260.386719 143.339844 262.316406 140.65625 263.429688 C 136.777344 265.039062 133.804688 264.136719 131.609375 260.515625 C 131.003906 259.515625 130.527344 258.421875 130.09375 257.332031 C 128.371094 253.042969 127.148438 248.628906 126.433594 244.046875 C 125.605469 238.761719 124.566406 233.503906 123.574219 228.246094 C 123.214844 226.339844 122.640625 224.484375 121.207031 223.0625 C 119.738281 221.597656 118.195312 221.515625 116.675781 222.910156 C 115.980469 223.554688 115.398438 224.355469 114.886719 225.164062 C 112.542969 228.859375 111.9375 232.929688 112.53125 237.199219 C 113.359375 243.140625 114.335938 249.058594 115.71875 254.898438 C 116.410156 257.816406 117.164062 260.726562 118.367188 263.484375 C 121.007812 269.542969 125.117188 274.128906 131.558594 276.25 C 139.058594 278.722656 145.054688 276.664062 149.460938 270.160156 C 150.058594 269.277344 150.660156 268.371094 151.097656 267.402344 C 154.5625 259.699219 156.40625 251.632812 156.597656 242.644531 C 153.289062 245.390625 153.296875 245.394531 152.121094 248.125 Z M 192.121094 348.796875 C 193.191406 353.1875 194.824219 357.359375 197.023438 361.320312 C 199.90625 366.519531 204.339844 370.003906 209.667969 372.238281 C 215.367188 374.628906 220.78125 374.101562 225.273438 369.324219 C 226.738281 367.765625 228.183594 366.183594 229.679688 364.652344 C 232.535156 361.71875 234.242188 358.171875 234.957031 354.199219 C 235.5625 350.832031 235.929688 347.421875 236.3125 344.019531 C 236.480469 342.523438 236.566406 340.636719 234.890625 340.148438 C 233.1875 339.65625 232.34375 341.300781 231.710938 342.699219 C 230.5625 345.230469 229.429688 347.773438 228.296875 350.316406 C 226.84375 353.570312 224.898438 356.523438 222.554688 359.179688 C 218.738281 363.5 213.960938 363.421875 210.164062 359.035156 C 208.472656 357.082031 207.207031 354.839844 206.175781 352.472656 C 204.804688 349.320312 203.738281 346.070312 202.945312 342.726562 C 201.835938 338.035156 201.039062 333.285156 200.449219 328.5 C 200.027344 325.085938 199.304688 321.734375 198.035156 318.539062 C 197.027344 316.007812 195.398438 315.867188 193.863281 318.117188 C 192.644531 319.898438 191.882812 321.910156 191.351562 323.996094 C 190.523438 327.226562 190.105469 330.511719 190.164062 334.207031 C 190.441406 338.882812 190.925781 343.886719 192.121094 348.796875 Z M 48.074219 107.804688 C 49.113281 116.355469 52.15625 123.949219 58.777344 129.8125 C 61.640625 132.351562 64.902344 133.523438 68.734375 133.570312 C 73.847656 133.632812 77.644531 130.957031 81.378906 128.011719 C 83.023438 126.710938 84.242188 125.109375 84.859375 123.109375 C 86.652344 117.324219 87.59375 111.441406 86.683594 105.375 C 86.574219 104.644531 86.464844 103.875 86.152344 103.21875 C 85.671875 102.210938 84.804688 102.101562 84.125 102.964844 C 83.539062 103.703125 83.070312 104.59375 82.78125 105.492188 C 81.996094 107.9375 81.34375 110.425781 80.613281 112.886719 C 80.34375 113.800781 80.265625 114.804688 79.601562 115.566406 C 77.769531 117.65625 75.917969 119.730469 74.082031 121.820312 C 72.871094 123.203125 71.382812 123.441406 69.703125 122.910156 C 66.359375 121.859375 63.933594 119.722656 62.375 116.601562 C 60.25 112.34375 58.964844 107.835938 58.363281 103.117188 C 57.78125 98.550781 57.242188 93.976562 56.5 89.4375 C 55.996094 86.367188 54.445312 84.847656 52.375 84.882812 C 50.316406 84.917969 48.941406 86.441406 48.324219 89.550781 C 47.660156 92.929688 47.636719 96.359375 47.605469 100.492188 C 47.726562 102.464844 47.753906 105.152344 48.074219 107.804688 Z M 316.109375 109.867188 C 315.644531 110.9375 315.175781 112 314.722656 113.070312 C 313.628906 115.636719 312.410156 118.148438 310.796875 120.421875 C 307.472656 125.109375 300 126.480469 296.308594 122.832031 C 291.941406 118.507812 288.121094 113.742188 287.734375 107.15625 C 287.621094 105.238281 287.3125 103.328125 287.199219 101.40625 C 287.003906 98.085938 286.558594 94.804688 285.984375 91.53125 C 285.613281 89.402344 284.875 87.390625 283.800781 85.523438 C 282.796875 83.78125 281.820312 83.769531 280.761719 85.519531 C 279.414062 87.742188 278.664062 90.222656 278.265625 92.769531 C 276.777344 102.34375 277.476562 111.761719 280.445312 121 C 281.652344 124.757812 283.816406 127.917969 286.628906 130.632812 C 293.125 136.894531 307.167969 138.621094 314.257812 126.667969 C 315.515625 124.550781 316.757812 122.265625 316.765625 119.789062 C 316.773438 116.519531 316.460938 113.242188 316.898438 109.953125 C 316.636719 109.925781 316.371094 109.898438 316.109375 109.867188 Z M 140.714844 25.257812 C 139.113281 29.941406 137.117188 34.394531 134.003906 38.316406 C 130.679688 42.507812 127.5625 43.3125 122.785156 40.929688 C 121.734375 40.410156 120.738281 39.757812 119.792969 39.0625 C 116.203125 36.417969 114.101562 32.703125 112.648438 28.613281 C 111.320312 24.882812 110.324219 21.03125 108.929688 17.324219 C 107.363281 13.152344 106.625 8.875 106.550781 4.449219 C 106.539062 3.703125 106.515625 2.941406 106.378906 2.210938 C 106.175781 1.136719 105.414062 0.558594 104.359375 0.453125 C 103.40625 0.355469 102.652344 0.855469 102.292969 1.6875 C 101.914062 2.558594 101.722656 3.519531 101.496094 4.449219 C 100.492188 8.558594 100.769531 12.738281 100.746094 16.914062 C 100.710938 23.292969 101.679688 29.507812 103.3125 35.632812 C 104.316406 39.386719 105.871094 42.898438 108.402344 45.921875 C 110.921875 48.933594 114.105469 50.761719 118 51.214844 C 121.214844 51.589844 124.390625 51.3125 127.5625 50.582031 C 133.753906 49.160156 137.285156 44.921875 139.292969 39.320312 C 140.765625 35.207031 141.726562 30.902344 142.855469 26.667969 C 143.308594 24.960938 143.511719 23.207031 142.96875 21.171875 C 141.390625 22.371094 141.175781 23.90625 140.714844 25.257812 Z M 279.507812 258.371094 C 281.726562 254.617188 282.757812 250.253906 283.609375 245.9375 C 283.835938 244.769531 283.789062 243.585938 283.382812 242.453125 C 283.113281 241.699219 281.117188 240.773438 280.210938 240.976562 C 279.101562 241.226562 279.527344 242.152344 279.476562 242.816406 C 279.363281 244.316406 279.28125 245.804688 278.519531 247.160156 C 277.261719 249.398438 276.042969 251.65625 274.785156 253.894531 C 273.582031 256.042969 271.667969 257.097656 269.261719 257.183594 C 266.175781 257.292969 264.035156 255.691406 262.386719 253.210938 C 257.351562 245.644531 253.65625 237.535156 252.285156 228.472656 C 251.925781 226.121094 250.632812 224.082031 250.058594 221.796875 C 249.84375 220.9375 249.179688 220.285156 248.21875 220.234375 C 247.347656 220.191406 246.921875 220.796875 246.636719 221.5625 C 245.261719 225.28125 244.042969 229.007812 243.941406 233.050781 C 243.734375 241.132812 245.546875 248.75 248.832031 256.074219 C 251.613281 262.28125 257.113281 265.019531 263.042969 267.183594 C 263.820312 267.46875 264.730469 267.390625 266.15625 267.542969 C 271.773438 266.789062 276.457031 263.539062 279.507812 258.371094 Z M 227.40625 44.390625 C 226.199219 47.71875 224.898438 51 222.773438 53.863281 C 218.585938 59.5 214.914062 59.703125 210.292969 54.402344 C 206.527344 50.078125 203.746094 45.171875 202.226562 39.585938 C 201.019531 35.148438 199.734375 30.730469 198.46875 26.308594 C 198.265625 25.589844 198.039062 24.875 197.757812 24.183594 C 197.507812 23.566406 197.085938 23.054688 196.355469 23.046875 C 195.605469 23.039062 195.199219 23.585938 194.960938 24.1875 C 194.246094 25.992188 193.871094 27.871094 193.746094 29.808594 C 193.421875 34.664062 194.066406 39.453125 195.171875 44.132812 C 196.46875 49.613281 197.070312 55.285156 199.996094 60.347656 C 204.164062 67.5625 211.285156 70.046875 218.695312 66.535156 C 219.082031 66.351562 219.476562 66.183594 219.859375 65.996094 C 224.113281 63.894531 227.035156 60.59375 228.382812 56.0625 C 229.859375 51.09375 229.902344 45.941406 229.953125 40.808594 C 229.957031 40.660156 229.734375 40.511719 229.492188 40.207031 C 228.230469 41.351562 227.929688 42.941406 227.40625 44.390625 Z M 227.40625 44.390625"/></g></svg>